<svg xmlns="http://www.w3.org/2000/svg" xmlns:xlink="http://www.w3.org/1999/xlink" viewBox="0 0 5625 1000.17781"><defs><style>.cls-1{isolation:isolate;}.cls-2{fill:#ffac7d;}.cls-3{opacity:0.3;}.cls-4{fill:#ff867d;}.cls-5{mix-blend-mode:multiply;}.cls-6{fill:#db5c7e;}.cls-7{mix-blend-mode:soft-light;fill:url(#radial-gradient);}.cls-8{opacity:0.25;fill:url(#radial-gradient-2);}.cls-10,.cls-11,.cls-13,.cls-14,.cls-15,.cls-16,.cls-17,.cls-18,.cls-19,.cls-20,.cls-21,.cls-22,.cls-8,.cls-9{mix-blend-mode:screen;}.cls-9{fill:url(#radial-gradient-3);}.cls-10{fill:url(#radial-gradient-4);}.cls-11{opacity:0.2;fill:url(#radial-gradient-5);}.cls-12,.cls-16{fill:none;}.cls-13{opacity:0.15;fill:url(#radial-gradient-6);}.cls-14,.cls-17{opacity:0.5;}.cls-14{fill:url(#radial-gradient-7);}.cls-15{fill:url(#radial-gradient-8);}.cls-16{stroke:#fff;stroke-width:2px;opacity:0.03;}.cls-16,.cls-23{stroke-miterlimit:10;}.cls-17{fill:url(#radial-gradient-9);}.cls-18{fill:url(#radial-gradient-10);}.cls-19{fill:url(#radial-gradient-11);}.cls-20{fill:url(#radial-gradient-12);}.cls-21{fill:url(#radial-gradient-13);}.cls-22{fill:url(#radial-gradient-14);}.cls-23{stroke:#000;stroke-width:10px;}.cls-24{fill:#90c474;}.cls-25{fill:#c1e895;}.cls-26{fill:#6bab63;}</style><radialGradient id="radial-gradient" cx="875.84442" cy="500" r="712.73635" gradientTransform="translate(-2.21371 0.0889) scale(3.21371 1)" gradientUnits="userSpaceOnUse"><stop offset="0.00403" stop-color="#fff"/><stop offset="1" stop-color="#231f20"/></radialGradient><radialGradient id="radial-gradient-2" cx="2708.08162" cy="595.05711" r="180" gradientTransform="translate(-493.80819 -120.47768) scale(1.19834 1.15453)" gradientUnits="userSpaceOnUse"><stop offset="0.1"/><stop offset="0.11244" stop-color="#080602"/><stop offset="0.16172" stop-color="#231b08"/><stop offset="0.21838" stop-color="#392c0d"/><stop offset="0.28458" stop-color="#4a3910"/><stop offset="0.36644" stop-color="#554213"/><stop offset="0.48125" stop-color="#5c4815"/><stop offset="0.8" stop-color="#5e4915"/><stop offset="1"/></radialGradient><radialGradient id="radial-gradient-3" cx="2896.32161" cy="406.81719" r="6" gradientTransform="translate(-493.80819 -120.47768) scale(1.19834 1.15453)" gradientUnits="userSpaceOnUse"><stop offset="0" stop-color="#d4e194"/><stop offset="0.05952" stop-color="#afba7a"/><stop offset="0.13651" stop-color="#868f5e"/><stop offset="0.21955" stop-color="#626845"/><stop offset="0.30759" stop-color="#44482f"/><stop offset="0.40211" stop-color="#2b2e1e"/><stop offset="0.50556" stop-color="#181911"/><stop offset="0.62249" stop-color="#0a0b07"/><stop offset="0.76429" stop-color="#020302"/><stop offset="1"/></radialGradient><radialGradient id="radial-gradient-4" cx="2973.24666" cy="329.89204" xlink:href="#radial-gradient-3"/><radialGradient id="radial-gradient-5" cx="2962.63997" cy="340.49864" r="45" gradientTransform="translate(-493.80819 -120.47768) scale(1.19834 1.15453)" gradientUnits="userSpaceOnUse"><stop offset="0.05"/><stop offset="0.09242" stop-color="#040a03"/><stop offset="0.29802" stop-color="#183411"/><stop offset="0.48337" stop-color="#25531c"/><stop offset="0.64031" stop-color="#2e6622"/><stop offset="0.75" stop-color="#316d24"/><stop offset="0.78593" stop-color="#4f6e16"/><stop offset="0.83397" stop-color="#716f06"/><stop offset="0.86" stop-color="#7e6f00"/><stop offset="0.88764" stop-color="#7a6c00"/><stop offset="0.91229" stop-color="#706200"/><stop offset="0.93581" stop-color="#5d5200"/><stop offset="0.95863" stop-color="#443c00"/><stop offset="0.98074" stop-color="#231f00"/><stop offset="1"/></radialGradient><radialGradient id="radial-gradient-6" cx="2761.11458" cy="542.02409" r="120" gradientTransform="translate(-493.80819 -120.47768) scale(1.19834 1.15453)" gradientUnits="userSpaceOnUse"><stop offset="0" stop-color="#200"/><stop offset="0.73" stop-color="#984023"/><stop offset="1" stop-color="#200"/></radialGradient><radialGradient id="radial-gradient-7" cx="2761.11458" cy="542.02409" r="60" gradientTransform="translate(-493.80819 -120.47768) scale(1.19834 1.15453)" gradientUnits="userSpaceOnUse"><stop offset="0.15" stop-color="#fff"/><stop offset="0.20939" stop-color="#e5d3d3"/><stop offset="0.29044" stop-color="#c49c9e"/><stop offset="0.36051" stop-color="#ad7477"/><stop offset="0.41599" stop-color="#9e5c5f"/><stop offset="0.45" stop-color="#995356"/><stop offset="0.57175" stop-color="#6b3335"/><stop offset="0.69355" stop-color="#431718"/><stop offset="0.79053" stop-color="#2b0606"/><stop offset="0.85" stop-color="#200"/><stop offset="0.85727" stop-color="#260201"/><stop offset="0.8648" stop-color="#330704"/><stop offset="0.87246" stop-color="#471009"/><stop offset="0.8802" stop-color="#641d0f"/><stop offset="0.88801" stop-color="#8a2e18"/><stop offset="0.89577" stop-color="#b74223"/><stop offset="0.9" stop-color="#d34e29"/><stop offset="0.90254" stop-color="#c84927"/><stop offset="0.91417" stop-color="#9c361c"/><stop offset="0.92635" stop-color="#772514"/><stop offset="0.93893" stop-color="#58180c"/><stop offset="0.95205" stop-color="#400d07"/><stop offset="0.96594" stop-color="#2f0603"/><stop offset="0.98111" stop-color="#250101"/><stop offset="1" stop-color="#200"/></radialGradient><radialGradient id="radial-gradient-8" cx="2761.11458" cy="542.02409" r="50" gradientTransform="translate(-493.80819 -120.47768) scale(1.19834 1.15453)" gradientUnits="userSpaceOnUse"><stop offset="0.15" stop-color="#fff"/><stop offset="0.28237" stop-color="#c2c2c2"/><stop offset="0.42528" stop-color="#888"/><stop offset="0.5636" stop-color="#575757"/><stop offset="0.69361" stop-color="#313131"/><stop offset="0.81336" stop-color="#161616"/><stop offset="0.91921" stop-color="#060606"/><stop offset="1"/></radialGradient><radialGradient id="radial-gradient-9" cx="2973.24666" cy="329.89204" r="90" gradientTransform="translate(-493.80819 -120.47768) scale(1.19834 1.15453)" gradientUnits="userSpaceOnUse"><stop offset="0.64"/><stop offset="0.71799" stop-color="#000200"/><stop offset="0.74608" stop-color="#020902"/><stop offset="0.76609" stop-color="#051405"/><stop offset="0.78228" stop-color="#082509"/><stop offset="0.79598" stop-color="#0d3b0e"/><stop offset="0.8" stop-color="#0f4310"/><stop offset="0.8131" stop-color="#1e2c0a"/><stop offset="0.82975" stop-color="#2d1605"/><stop offset="0.84569" stop-color="#360901"/><stop offset="0.86" stop-color="#390400"/><stop offset="0.8715" stop-color="#250300"/><stop offset="0.88602" stop-color="#140100"/><stop offset="0.90412" stop-color="#090100"/><stop offset="0.92951" stop-color="#020000"/><stop offset="1"/></radialGradient><radialGradient id="radial-gradient-10" cx="2833.91903" cy="469.21962" r="19.02153" gradientTransform="translate(-493.80819 -120.47768) scale(1.19834 1.15453)" gradientUnits="userSpaceOnUse"><stop offset="0.1"/><stop offset="0.12317" stop-color="#0b0809"/><stop offset="0.24121" stop-color="#3c2b32"/><stop offset="0.3623" stop-color="#664956"/><stop offset="0.48446" stop-color="#886273"/><stop offset="0.60809" stop-color="#a37589"/><stop offset="0.73376" stop-color="#b68399"/><stop offset="0.86272" stop-color="#c18ba3"/><stop offset="1" stop-color="#c58ea6"/></radialGradient><radialGradient id="radial-gradient-11" cx="2940.79598" cy="362.34276" r="9.74881" gradientTransform="translate(-493.80819 -120.47768) scale(1.19834 1.15453)" gradientUnits="userSpaceOnUse"><stop offset="0.1" stop-color="#176f55"/><stop offset="0.16505" stop-color="#145f49"/><stop offset="0.32376" stop-color="#0d3d2f"/><stop offset="0.48587" stop-color="#07221a"/><stop offset="0.65065" stop-color="#030f0c"/><stop offset="0.81983" stop-color="#010403"/><stop offset="1"/></radialGradient><radialGradient id="radial-gradient-12" cx="2711.88509" cy="591.25365" r="1.88791" gradientTransform="translate(-493.80819 -120.47768) scale(1.19834 1.15453)" gradientUnits="userSpaceOnUse"><stop offset="0.1" stop-color="#65430f"/><stop offset="0.1269" stop-color="#5f3f0e"/><stop offset="0.29291" stop-color="#3d2809"/><stop offset="0.46237" stop-color="#221705"/><stop offset="0.6347" stop-color="#0f0a02"/><stop offset="0.81159" stop-color="#040201"/><stop offset="1"/></radialGradient><radialGradient id="radial-gradient-13" cx="2711.48836" cy="591.65019" r="15.32913" gradientTransform="translate(-493.80819 -120.47768) scale(1.19834 1.15453)" gradientUnits="userSpaceOnUse"><stop offset="0.1"/><stop offset="0.21377" stop-color="#1f150a"/><stop offset="0.36319" stop-color="#412b14"/><stop offset="0.51586" stop-color="#5c3d1c"/><stop offset="0.67104" stop-color="#6f4922"/><stop offset="0.83032" stop-color="#7a5126"/><stop offset="1" stop-color="#7e5327"/></radialGradient><radialGradient id="radial-gradient-14" cx="2971.36922" cy="331.76952" r="22.77443" xlink:href="#radial-gradient-10"/></defs><title>logo_pop_news_1</title><g class="cls-1"><g id="Fond"><rect class="cls-2" width="5625" height="1000.17781"/><g class="cls-3"><polygon class="cls-4" points="2569.555 0 2179.405 0 2812.5 500.089 2569.555 0"/><polygon class="cls-4" points="3442.456 0 3052.667 0 2812.5 500.089 3442.456 0"/><polygon class="cls-4" points="1529.717 0 791.989 0 2812.5 500.089 1529.717 0"/><polygon class="cls-4" points="4826.012 0 4090.838 0 2812.5 500.089 4826.012 0"/><polygon class="cls-4" points="5625 367.793 5625 155.341 2812.5 500.089 5625 367.793"/><polygon class="cls-4" points="3055.449 1000.178 3445.601 1000.178 2812.5 500.089 3055.449 1000.178"/><polygon class="cls-4" points="4095.289 1000.178 4833.018 1000.178 2812.5 500.089 4095.289 1000.178"/><polygon class="cls-4" points="2812.5 500.089 5625 843.125 5625 630.868 2812.5 500.089"/><polygon class="cls-4" points="0 157.048 0 369.309 2812.5 500.089 0 157.048"/><polygon class="cls-4" points="0 632.381 0 844.836 2812.5 500.089 0 632.381"/><polygon class="cls-4" points="798.976 1000.178 1534.156 1000.178 2812.5 500.089 798.976 1000.178"/><polygon class="cls-4" points="2182.541 1000.178 2572.333 1000.178 2812.5 500.089 2182.541 1000.178"/></g><g class="cls-5"><polygon class="cls-6" points="419.508 0 332.314 0 1711.78 290.22 419.508 0"/><polygon class="cls-6" points="99.888 0 43.029 0 660.605 125.174 99.888 0"/><polygon class="cls-6" points="1255.223 0 1168.029 0 2300.054 341.234 1255.223 0"/><polygon class="cls-6" points="935.602 0 878.743 0 1419.616 155.342 935.602 0"/><polygon class="cls-6" points="2026.651 0 1939.457 0 2595.363 328.571 2026.651 0"/><polygon class="cls-6" points="1707.031 0 1650.171 0 2068.603 170.617 1707.031 0"/><polygon class="cls-6" points="2478.459 0 2421.6 0 2595.363 185.194 2478.459 0"/><polygon class="cls-6" points="5176.023 0 5263.217 0 3883.755 290.22 5176.023 0"/><polygon class="cls-6" points="5495.644 0 5552.503 0 4934.927 125.174 5495.644 0"/><polygon class="cls-6" points="4340.309 0 4427.503 0 3295.478 341.234 4340.309 0"/><polygon class="cls-6" points="4659.93 0 4716.788 0 4175.916 155.342 4659.93 0"/><polygon class="cls-6" points="3568.881 0 3656.074 0 3000.171 328.571 3568.881 0"/><polygon class="cls-6" points="3888.501 0 3945.36 0 3526.932 170.617 3888.501 0"/><polygon class="cls-6" points="3117.072 0 3173.931 0 3000.171 185.194 3117.072 0"/><polygon class="cls-6" points="0 504.319 0 534.578 1022.049 514.833 0 504.319"/><polygon class="cls-6" points="0 409.37 0 425.91 543.98 438.605 0 409.37"/><polygon class="cls-6" points="0 316.774 0 328.772 559.339 359.242 0 316.774"/><polygon class="cls-6" points="0 196.753 0 208.751 878.743 327.715 0 196.753"/><polygon class="cls-6" points="0 86.733 0 98.731 530.991 170.617 0 86.733"/><polygon class="cls-6" points="0 316.774 0 328.772 559.339 359.242 0 316.774"/><polygon class="cls-6" points="0 196.753 0 208.751 878.743 327.715 0 196.753"/><polygon class="cls-6" points="0 86.733 0 98.731 530.991 170.617 0 86.733"/><polygon class="cls-6" points="0 616.368 0 598.285 620.263 582.999 0 616.368"/><polygon class="cls-6" points="0 706.56 0 694.562 559.339 664.093 0 706.56"/><polygon class="cls-6" points="0 826.582 0 814.583 878.743 695.619 0 826.582"/><polygon class="cls-6" points="0 936.601 0 924.603 530.991 852.717 0 936.601"/><polygon class="cls-6" points="2507.927 1000.178 2451.069 1000.178 2624.832 814.984 2507.927 1000.178"/><polygon class="cls-6" points="5625 500.089 5625 469.83 4602.951 489.575 5625 500.089"/><polygon class="cls-6" points="5625 591.465 5625 574.078 5053.171 560.733 5625 591.465"/><polygon class="cls-6" points="5625 683.404 5625 671.405 5065.664 640.936 5625 683.404"/><polygon class="cls-6" points="5625 803.425 5625 791.427 4746.257 672.462 5625 803.425"/><polygon class="cls-6" points="5625 913.445 5625 901.446 5094.009 829.561 5625 913.445"/><polygon class="cls-6" points="5625 683.404 5625 671.405 5065.664 640.936 5625 683.404"/><polygon class="cls-6" points="5625 803.425 5625 791.427 4746.257 672.462 5625 803.425"/><polygon class="cls-6" points="5625 913.445 5625 901.446 5094.009 829.561 5625 913.445"/><polygon class="cls-6" points="5625 386.247 5625 402.748 5058.991 416.697 5625 386.247"/><polygon class="cls-6" points="5625 293.618 5625 305.616 5065.664 336.085 5625 293.618"/><polygon class="cls-6" points="5625 173.596 5625 185.594 4746.257 304.559 5625 173.596"/><polygon class="cls-6" points="5625 63.577 5625 75.575 5094.009 147.461 5625 63.577"/><polygon class="cls-6" points="3917.969 1000.178 3974.828 1000.178 3556.4 829.561 3917.969 1000.178"/><polygon class="cls-6" points="3146.541 1000.178 3203.4 1000.178 3029.64 814.984 3146.541 1000.178"/><polygon class="cls-6" points="448.977 1000.178 361.783 1000.178 1741.248 709.958 448.977 1000.178"/><polygon class="cls-6" points="129.356 1000.178 72.497 1000.178 690.073 875.004 129.356 1000.178"/><polygon class="cls-6" points="1284.691 1000.178 1197.497 1000.178 2329.522 658.944 1284.691 1000.178"/><polygon class="cls-6" points="965.07 1000.178 908.212 1000.178 1449.084 844.836 965.07 1000.178"/><polygon class="cls-6" points="2056.119 1000.178 1968.926 1000.178 2624.832 671.607 2056.119 1000.178"/><polygon class="cls-6" points="1736.499 1000.178 1679.64 1000.178 2098.072 829.561 1736.499 1000.178"/><polygon class="cls-6" points="5205.492 1000.178 5292.686 1000.178 3913.223 709.958 5205.492 1000.178"/><polygon class="cls-6" points="5525.112 1000.178 5581.971 1000.178 4964.395 875.004 5525.112 1000.178"/><polygon class="cls-6" points="4369.777 1000.178 4456.971 1000.178 3324.946 658.944 4369.777 1000.178"/><polygon class="cls-6" points="4689.398 1000.178 4746.257 1000.178 4205.384 844.836 4689.398 1000.178"/><polygon class="cls-6" points="3598.349 1000.178 3685.543 1000.178 3029.64 671.607 3598.349 1000.178"/></g><rect class="cls-7" width="5625" height="1000.17781"/><ellipse class="cls-8" cx="2751.39185" cy="566.53448" rx="215.70103" ry="207.81566"/><ellipse class="cls-9" cx="2976.96719" cy="349.20556" rx="7.19003" ry="6.92719"/><ellipse class="cls-10" cx="3069.14948" cy="260.39307" rx="7.19003" ry="6.92719"/><ellipse class="cls-11" cx="3056.43907" cy="272.63872" rx="53.92526" ry="51.95392"/><line class="cls-12" x1="2814.94332" y1="505.30619" x2="2967" y2="77.0889"/><ellipse class="cls-13" cx="2814.94332" cy="505.30619" rx="143.80069" ry="138.54378"/><ellipse class="cls-14" cx="2814.94332" cy="505.30619" rx="71.90034" ry="69.27189"/><ellipse class="cls-15" cx="2814.94332" cy="505.30619" rx="59.91695" ry="57.72657"/><polyline class="cls-16" points="2814.943 505.306 3013.077 598.806 2814.943 505.306 2616.809 411.806 2814.943 505.306 2717.895 696.197 2814.943 505.306 2911.991 314.415 2814.943 505.306 3166.17 531.018 2814.943 505.306 2463.717 479.594 2814.943 505.306 2788.256 843.693 2814.943 505.306 2841.631 166.92 2814.943 505.306 2897.357 615.576 2814.943 505.306 2732.53 395.036 2814.943 505.306 2700.489 584.707 2814.943 505.306 2929.397 425.905 2814.943 505.306 2975.133 550.36 2814.943 505.306 2654.754 460.252 2814.943 505.306 2768.179 659.64 2814.943 505.306 2861.707 350.973 2814.943 505.306 3000.263 530.088 2814.943 505.306 2629.624 480.524 2814.943 505.306 2789.221 683.851 2814.943 505.306 2840.666 326.761 2814.943 505.306 2969.75 672.158 2814.943 505.306 2660.136 338.454 2814.943 505.306 2641.76 654.454 2814.943 505.306 2988.126 356.159 2814.943 505.306 2920.96 564.112 2814.943 505.306 2708.927 446.5 2814.943 505.306 2753.906 607.447 2814.943 505.306 2875.98 403.165 2814.943 505.306 2873.659 609.449 2814.943 505.306 2756.227 401.163 2814.943 505.306 2706.849 561.876 2814.943 505.306 2923.038 448.737 2814.943 505.306 2919.216 577.871 2814.943 505.306 2710.671 432.742 2814.943 505.306 2739.626 605.767 2814.943 505.306 2890.261 404.846 2814.943 505.306 2913.143 577.314 2814.943 505.306 2716.744 433.298 2814.943 505.306 2740.203 599.916 2814.943 505.306 2889.684 410.696 2814.943 505.306 2903.933 560.178 2814.943 505.306 2725.953 450.434 2814.943 505.306 2757.989 591.043 2814.943 505.306 2871.897 419.569 2814.943 505.306 2885.307 514.729 2814.943 505.306 2744.58 495.884 2814.943 505.306 2805.163 573.098 2814.943 505.306 2824.723 437.515 2814.943 505.306 2820.614 564.651 2814.943 505.306 2809.273 445.961 2814.943 505.306 2753.347 510.77 2814.943 505.306 2876.54 499.843 2814.943 505.306 2874.931 582.462 2814.943 505.306 2754.956 428.15 2814.943 505.306 2734.86 563.101 2814.943 505.306 2895.027 447.511 2814.943 505.306 2826.096 533.902 2814.943 505.306 2803.79 476.71 2814.943 505.306 2785.262 516.052 2814.943 505.306 2844.624 494.561"/><ellipse class="cls-17" cx="3069.14948" cy="260.39307" rx="107.85052" ry="103.90783"/><ellipse class="cls-18" cx="2902.18773" cy="421.25114" rx="22.79419" ry="21.96101"/><ellipse class="cls-19" cx="3030.26256" cy="297.85844" rx="11.68234" ry="11.25534"/><ellipse class="cls-20" cx="2755.9497" cy="562.14326" rx="2.26239" ry="2.17962"/><ellipse class="cls-21" cx="2755.47428" cy="562.60109" rx="18.36946" ry="17.698"/><ellipse class="cls-22" cx="3066.89967" cy="262.56067" rx="27.29147" ry="26.29381"/></g><g id="Texte"><path class="cls-23" d="M1136.8335,223.38721l274.5249-15.626,1.80224,61.30225q-32.43822,13.83178-75.08886,21.63574-10.81275,1.80322-130.95508,15.0249l9.01074,105.17529,101.52-1.20214,1.20166,95.55957-115.9375-3.00489,6.00733,140.03321,150.77832-7.21192,5.40625,63.70508-230.67286,3.00586Z" transform="translate(0 0.0889)"/><path class="cls-23" d="M1479.83447,229.99805q103.31323,0,174.20655,54.09033,77.4917,58.90722,77.49121,159.26465,0,79.33227-13.81641,131.61963-16.82373,64.3169-57.668,98.56445-45.65917,38.46827-124.34765,38.46387-16.82373,0-30.93653-1.20215a166.872,166.872,0,0,1-27.93262-4.80762Zm69.68213,417.69531q61.86476-16.22607,88.90528-60.7002,24.019-39.06152,24.02929-106.979,0-55.28686-17.4209-99.76611-23.42871-60.09009-68.48144-60.09961a174.04238,174.04238,0,0,0-47.45606,6.61084Z" transform="translate(0 0.0889)"/><path class="cls-23" d="M1875.69922,444.55518q0,59.499,6.00781,126.21045,4.19532,48.08935,15.01758,126.21l-85.90234,1.80273q0-31.24218,2.40332-76.32617,5.40674-102.16552,5.40625-127.41309,0-48.0747-2.10254-86.84424-2.11231-38.76489-7.50879-98.26367-3.01319-30.04541-9.61133-91.95312l87.7041-6.61084q-6.01172,68.5144-8.71094,119.89941Q1875.69972,382.6526,1875.69922,444.55518Z" transform="translate(0 0.0889)"/><path class="cls-23" d="M2076.92871,317.14307l-84.09961-1.20166L1981.416,222.18506l424.70312-7.813-7.80957,48.08008-249.29492,28.24707,24.02832,400.2666h-109.3291Z" transform="translate(0 0.0889)"/><path class="cls-23" d="M2538.27246,444.55518q0,59.499,6.00781,126.21045,4.19532,48.08935,15.01758,126.21l-85.90234,1.80273q0-31.24218,2.40332-76.32617,5.40673-102.16552,5.40625-127.41309,0-48.0747-2.10254-86.84424-2.1123-38.76489-7.50879-98.26367-3.01318-30.04541-9.61133-91.95312l87.7041-6.61084q-6.01172,68.5144-8.71093,119.89941Q2538.273,382.6526,2538.27246,444.55518Z" transform="translate(0 0.0889)"/><path class="cls-23" d="M2988.79785,461.3833q0,71.52906-40.84765,147.84619-47.46095,88.95264-112.333,88.94824-74.49316,0-135.76172-82.33691-56.47119-76.31836-56.4668-153.85644,0-90.74194,43.252-158.66407,49.85448-78.12084,135.16015-78.12988,72.67675,0,123.14551,84.74072Q2988.78906,383.2627,2988.79785,461.3833Zm-231.874,7.813q0,39.0747,21.625,110.585,25.23046,82.938,50.46,82.9375,18.6123,0,37.24414-80.53418,15.61377-67.90869,15.61816-100.36719,0-39.06078-19.82324-120.20019-23.42724-94.95337-45.6543-94.958-22.23046,0-42.65039,89.54932Q2756.91943,430.13109,2756.92383,469.19629Z" transform="translate(0 0.0889)"/><path class="cls-23" d="M3137.16992,728.8291l-.60058,18.0293-71.48438,7.21191q0-41.46826,6.00684-175.49121,2.99853-66.71191,3.0039-106.37793,0-31.24218-6.00781-135.2251-3.01318-51.68115-3.00293-82.33691l58.86914-4.80811q34.24073,24.6504,67.88086,61.30225,27.03224,28.84789,58.26856,70.918,27.03222,37.27149,54.06445,74.52393,5.40674-36.65113,8.41016-73.62256,2.99853-36.96094,3.00292-74.22315a430.521,430.521,0,0,0-2.10253-45.37549q-2.11085-19.52343-7.50879-51.98681,27.624,0,59.4707,12.02,0,34.86255-1.80176,81.73584-4.21,109.3916-4.20508,137.02832,0,45.0747,4.20508,91.35254,4.19532,46.28613,21.625,170.68359l-88.30469-5.40918q-40.85742-78.12012-81.0957-156.25977-49.86914-91.34765-94.91211-146.644,0,46.28613,3.9043,107.27881,3.89942,61.00635,8.10937,121.40234Q3137.16016,684.95558,3137.16992,728.8291Z" transform="translate(0 0.0889)"/><path class="cls-23" d="M3896.4668,386.2583l14.417-64.30713,87.10351,3.606a204.51271,204.51271,0,0,0,8.40918-28.24707,129.94637,129.94637,0,0,0,3.00391-27.646l-1.80176-37.26172,65.47754-5.40918a517.51238,517.51238,0,0,0-33.03906,98.564l56.4668-1.80274a275.43274,275.43274,0,0,0,14.71679-45.07519,366.55762,366.55762,0,0,0,7.50977-49.88281l75.08887,3.606a239.35733,239.35733,0,0,0-28.2334,45.07471,198.69774,198.69774,0,0,0-15.61914,48.08008h73.88769l-46.25488,55.292h-56.4668L4109.71973,443.353l67.87988-4.80762-1.80176,55.89307-80.49512,3.00488q-3.605,16.834-4.50585,24.04a176.00017,176.00017,0,0,0-.90137,20.43457,280.97751,280.97751,0,0,0,2.70312,40.2666,406.14666,406.14666,0,0,0,8.71094,42.07031l-77.49219-15.626,20.42481-114.19043-53.46387,3.00488v92.55469l-76.89062,10.21679a245.2846,245.2846,0,0,0,21.625-50.48437,302.25,302.25,0,0,0,10.21289-54.09033h-75.69043l12.61523-52.28711h75.68945l12.01465-60.70069Zm108.12793,60.70117,58.87011-3.60644,12.61426-70.3169h-61.27246Z" transform="translate(0 0.0889)"/><path class="cls-23" d="M4350.00293,493.23633a605.69314,605.69314,0,0,0-3.9043-69.71631q-3.91406-33.65112-12.31445-84.13965l-44.45313,1.20215q34.83252-55.2876,46.85547-122.60449l56.4668,9.61621q0,106.377,8.11035,215.75879,8.10938,109.39233,23.127,224.17334l-85.30079-11.41895q5.99708-47.46972,8.71-83.83887Q4350.00391,535.9126,4350.00293,493.23633Z" transform="translate(0 0.0889)"/></g><g id="icons"><path class="cls-24" d="M745.214,451.345c-11.246,0-20.98,9.899-25.717,24.321H677.381a152.37186,152.37186,0,0,0-30.472-73.525l29.792-29.792c13.547,6.848,27.429,6.965,35.382-.987,11.242-11.242,6.376-34.334-10.867-51.577s-40.335-22.109-51.577-10.867c-7.952,7.952-7.835,21.834-.987,35.382L618.86,374.092a152.38951,152.38951,0,0,0-73.525-30.472V301.503c14.422-4.737,24.321-14.47,24.321-25.717C569.655,259.888,549.886,247,525.5,247s-44.155,12.888-44.155,28.786c0,11.246,9.899,20.98,24.321,25.717v42.116a152.372,152.372,0,0,0-73.525,30.472l-29.792-29.792c6.848-13.547,6.965-27.429-.987-35.382-11.242-11.242-34.334-6.376-51.577,10.867-17.244,17.244-22.109,40.335-10.867,51.577,7.952,7.952,21.834,7.835,35.382.987l29.792,29.792a152.38959,152.38959,0,0,0-30.472,73.525H331.503c-4.737-14.422-14.47-24.321-25.717-24.321C289.888,451.345,277,471.114,277,495.5s12.888,44.155,28.786,44.155c11.246,0,20.98-9.899,25.717-24.321h42.116a152.37591,152.37591,0,0,0,30.472,73.525l-29.792,29.792c-13.547-6.848-27.429-6.965-35.382.987-11.242,11.242-6.376,34.334,10.867,51.577s40.335,22.109,51.577,10.867c7.952-7.952,7.835-21.835.987-35.382l29.792-29.792a152.38921,152.38921,0,0,0,73.526,30.472v42.116c-14.422,4.737-24.321,14.47-24.321,25.717,0,15.898,19.769,28.786,44.155,28.786s44.155-12.888,44.155-28.786c0-11.246-9.899-20.98-24.321-25.717V647.38a152.37959,152.37959,0,0,0,73.526-30.472L648.652,646.7c-6.848,13.547-6.965,27.429.987,35.382,11.242,11.242,34.334,6.376,51.577-10.867,17.244-17.243,22.109-40.335,10.867-51.577-7.952-7.952-21.834-7.835-35.382-.987l-29.792-29.792a152.38956,152.38956,0,0,0,30.472-73.525h42.116c4.737,14.422,14.47,24.321,25.717,24.321,15.898,0,28.786-19.769,28.786-44.155s-12.888-44.155-28.786-44.155Z" transform="translate(0 0.0889)"/><path class="cls-25" d="M627.441,471.338a28.305,28.305,0,0,1-12.768-30.817l.009-.036a28.30446,28.30446,0,0,0-34.166-34.166l-.036.009a28.305,28.305,0,0,1-30.817-12.768,28.30411,28.30411,0,0,0-48.323,0,28.30442,28.30442,0,0,1-30.817,12.768l-.036-.009a28.30447,28.30447,0,0,0-34.166,34.166l.009.036a28.305,28.305,0,0,1-12.768,30.817,28.305,28.305,0,0,0,0,48.324,28.30443,28.30443,0,0,1,12.768,30.817l-.009.036a28.30446,28.30446,0,0,0,34.166,34.166l.036-.009A28.305,28.305,0,0,1,501.34,597.44a28.30411,28.30411,0,0,0,48.323,0,28.30441,28.30441,0,0,1,30.817-12.768l.036.009a28.30449,28.30449,0,0,0,34.166-34.166l-.009-.036a28.305,28.305,0,0,1,12.768-30.817,28.305,28.305,0,0,0,0-48.324Z" transform="translate(0 0.0889)"/><path class="cls-26" d="M481.63,642.263c-50.106-36.952-82.413-95.052-82.413-160.406a195.37427,195.37427,0,0,1,32.602-108.088l-29.47-29.47c6.848-13.547,6.965-27.429-.987-35.382-11.242-11.242-34.333-6.376-51.577,10.867s-22.109,40.335-10.867,51.577c7.952,7.952,21.834,7.835,35.382.987l29.792,29.792a152.38,152.38,0,0,0-30.472,73.525H331.503c-4.737-14.422-14.47-24.321-25.717-24.321C289.888,451.345,277,471.114,277,495.5s12.888,44.155,28.786,44.155c11.246,0,20.98-9.899,25.717-24.321h42.116a152.3796,152.3796,0,0,0,30.472,73.526l-29.792,29.792c-13.547-6.848-27.429-6.965-35.382.987-11.242,11.242-6.376,34.333,10.867,51.577,17.244,17.243,40.335,22.109,51.577,10.867,7.952-7.953,7.835-21.834.987-35.382l29.792-29.792a152.74107,152.74107,0,0,0,49.49,25.354Z" transform="translate(0 0.0889)"/><path class="cls-24" d="M442.767,478.723c0-27.153,10.598-52.187,28.441-72.258-.229-.049-.458-.082-.687-.137l-.036-.009a28.30446,28.30446,0,0,0-34.166,34.166l.009.036a28.305,28.305,0,0,1-12.768,30.817,28.305,28.305,0,0,0,0,48.324,28.305,28.305,0,0,1,12.768,30.817l-.009.036a28.30474,28.30474,0,0,0,34.166,34.166l.036-.009a28.30442,28.30442,0,0,1,30.817,12.768,28.30413,28.30413,0,0,0,48.323,0c.468-.768.978-1.498,1.509-2.207-62.094-12.2-108.403-59.732-108.403-116.51Z" transform="translate(0 0.0889)"/><path d="M631.347,526.064a35.80435,35.80435,0,0,0,0-61.128,20.75153,20.75153,0,0,1-9.376-22.687,35.80358,35.80358,0,0,0-43.256-43.21,20.74253,20.74253,0,0,1-22.651-9.385c-11.208-18.37-31.564-17.423-30.564-17.156a35.55263,35.55263,0,0,0-30.564,17.156,20.75647,20.75647,0,0,1-22.687,9.376,35.8033,35.8033,0,0,0-43.211,43.255,20.7405,20.7405,0,0,1-9.385,22.651,35.80435,35.80435,0,0,0,0,61.128,20.75157,20.75157,0,0,1,9.376,22.687,35.80385,35.80385,0,0,0,43.256,43.21,20.74457,20.74457,0,0,1,22.651,9.386,35.80477,35.80477,0,0,0,61.128,0,20.75625,20.75625,0,0,1,22.687-9.377,35.803,35.803,0,0,0,43.21-43.255A20.74254,20.74254,0,0,1,631.347,526.064Zm-23.956,26.215a20.80428,20.80428,0,0,1-25.149,25.104,35.69274,35.69274,0,0,0-38.983,16.152,20.80476,20.80476,0,0,1-35.519,0,35.70484,35.70484,0,0,0-39.019-16.143,20.80485,20.80485,0,0,1-25.104-25.149,35.69564,35.69564,0,0,0-16.151-38.983,20.80435,20.80435,0,0,1,0-35.519,35.70608,35.70608,0,0,0,16.143-39.019,20.80394,20.80394,0,0,1,25.148-25.104,35.693,35.693,0,0,0,38.983-16.151,20.80434,20.80434,0,0,1,35.519,0,35.70119,35.70119,0,0,0,39.019,16.143,20.80371,20.80371,0,0,1,25.104,25.149,35.69281,35.69281,0,0,0,16.152,38.982,20.80393,20.80393,0,0,1,0,35.519,35.70609,35.70609,0,0,0-16.143,39.019Z" transform="translate(0 0.0889)"/><path d="M336.68,522.834h30.485a160.31173,160.31173,0,0,0,27.061,65.284l-21.57,21.569c-15.309-6.096-29.934-4.46-39.042,4.648-23.302,23.302,5.518,72.508,42.664,80.335,28.728,6.053,46.74-16.931,35.036-46.326l21.569-21.57a160.32357,160.32357,0,0,0,65.284,27.06v30.485c-15.136,6.516-24.32,18.014-24.32,30.894-.001,20.348,22.688,36.287,51.653,36.287,28.966,0,51.655-15.939,51.655-36.287,0-12.88-9.184-24.378-24.321-30.894V653.834a160.3124,160.3124,0,0,0,65.284-27.06l21.57,21.569c-14.437,36.255,16.221,60.727,52.411,39.397a7.49988,7.49988,0,1,0-7.615-12.923c-11.855,6.987-23.727,7.775-29.541,1.961-5.282-5.283-5.124-15.761.403-26.695a7.50032,7.50032,0,0,0-1.39-8.687l-29.792-29.792a7.4999,7.4999,0,0,0-9.879-.639,145.26679,145.26679,0,0,1-69.911,28.976,7.499,7.499,0,0,0-6.538,7.438v42.116a7.49937,7.49937,0,0,0,5.16,7.125c11.64,3.824,19.162,11.121,19.162,18.591-.003,11.541-16.789,21.289-36.658,21.289s-36.654-9.748-36.654-21.287c0-7.47,7.521-14.768,19.161-18.591a7.49939,7.49939,0,0,0,5.16-7.125V647.381a7.499,7.499,0,0,0-6.538-7.438,145.25676,145.25676,0,0,1-69.911-28.976,7.50121,7.50121,0,0,0-9.88.639l-29.792,29.792a7.50033,7.50033,0,0,0-1.39,8.687c5.527,10.935,5.685,21.413.402,26.695-8.159,8.158-26.921,3.183-40.97-10.867s-19.026-32.812-10.868-40.971c5.283-5.282,15.762-5.124,26.695.403a7.50031,7.50031,0,0,0,8.687-1.39l29.792-29.792a7.5,7.5,0,0,0,.639-9.879,145.27053,145.27053,0,0,1-28.976-69.911,7.499,7.499,0,0,0-7.438-6.538H331.503a7.49937,7.49937,0,0,0-7.125,5.16c-3.823,11.64-11.121,19.161-18.592,19.161-11.538-.001-21.286-16.787-21.286-36.656s9.748-36.655,21.286-36.655c7.471,0,14.769,7.521,18.592,19.161a7.49939,7.49939,0,0,0,7.125,5.16h42.116a7.50052,7.50052,0,0,0,7.438-6.538,145.26658,145.26658,0,0,1,28.976-69.911,7.49981,7.49981,0,0,0-.639-9.879l-29.792-29.792a7.49693,7.49693,0,0,0-8.687-1.39c-10.934,5.527-21.413,5.685-26.695.403-6.149-6.15-4.866-19.069,3.12-31.418a7.50028,7.50028,0,0,0-12.596-8.146c-23.724,36.683.482,69.722,37.911,54.819l21.57,21.569a160.3312,160.3312,0,0,0-27.061,65.284H336.68c-6.515-15.136-18.013-24.32-30.894-24.32-20.347-.002-36.286,22.688-36.286,51.653s15.939,51.655,36.286,51.655c12.881,0,24.379-9.185,30.894-24.321Z" transform="translate(0 0.0889)"/><path d="M714.321,522.834c6.515,15.136,18.013,24.321,30.893,24.321,20.347,0,36.286-22.69,36.286-51.655s-15.939-51.655-36.287-51.655c-12.88,0-24.378,9.184-30.893,24.32H683.834a160.32358,160.32358,0,0,0-27.06-65.284l21.57-21.569c15.31,6.096,29.935,4.46,39.042-4.648,23.105-23.105-5.274-72.456-42.663-80.335-28.728-6.052-46.741,16.931-35.035,46.327l-21.57,21.569a160.32376,160.32376,0,0,0-65.284-27.06v-30.485c15.137-6.516,24.321-18.014,24.321-30.894,0-20.347-22.689-36.286-51.655-36.286-28.965,0-51.654,15.939-51.654,36.286,0,12.88,9.184,24.378,24.32,30.894v30.485a160.32376,160.32376,0,0,0-65.284,27.06l-21.569-21.57c14.485-36.379-16.366-60.692-52.473-39.361a7.5,7.5,0,1,0,7.629,12.915c11.873-7.016,23.763-7.814,29.588-1.99,5.283,5.283,5.125,15.761-.402,26.695a7.50032,7.50032,0,0,0,1.39,8.687l29.792,29.792a7.50008,7.50008,0,0,0,9.88.639,145.257,145.257,0,0,1,69.911-28.976,7.499,7.499,0,0,0,6.538-7.438v-42.115a7.49937,7.49937,0,0,0-5.16-7.125c-11.64-3.824-19.161-11.121-19.161-18.591.001-11.539,16.786-21.287,36.655-21.287s36.655,9.748,36.655,21.286c0,7.47-7.521,14.768-19.162,18.591a7.49937,7.49937,0,0,0-5.16,7.125v42.116a7.499,7.499,0,0,0,6.538,7.438,145.249,145.249,0,0,1,69.911,28.976,7.4986,7.4986,0,0,0,9.879-.639l29.792-29.792a7.49879,7.49879,0,0,0,1.39-8.687c-5.527-10.934-5.686-21.412-.403-26.695,8.159-8.158,26.921-3.182,40.971,10.867,14.049,14.049,19.026,32.812,10.867,40.971-5.283,5.282-15.761,5.124-26.695-.403a7.50035,7.50035,0,0,0-8.687,1.39l-29.792,29.792a7.5,7.5,0,0,0-.639,9.879,145.26116,145.26116,0,0,1,28.976,69.911,7.49976,7.49976,0,0,0,7.438,6.538h42.116a7.49937,7.49937,0,0,0,7.125-5.16c3.823-11.64,11.12-19.161,18.591-19.161,11.541.002,21.289,16.788,21.289,36.657s-9.748,36.655-21.287,36.655c-7.47,0-14.768-7.521-18.591-19.161a7.49937,7.49937,0,0,0-7.125-5.16h-42.116a7.49977,7.49977,0,0,0-7.438,6.538,145.24743,145.24743,0,0,1-28.976,69.911,7.49869,7.49869,0,0,0,.639,9.879l29.792,29.792a7.50014,7.50014,0,0,0,8.687,1.39c10.934-5.527,21.412-5.685,26.695-.403,6.161,6.161,4.866,19.1-3.149,31.465a7.50031,7.50031,0,1,0,12.587,8.16c23.764-36.662-.392-69.805-37.873-54.878l-21.57-21.569a160.32941,160.32941,0,0,0,27.06-65.284h30.486Z" transform="translate(0 0.0889)"/><path class="cls-6" d="M525,184.03614C350.4977,184.03614,209.03616,325.49768,209.03616,500S350.4977,815.96386,525,815.96386,840.96388,674.5023,840.96388,500,699.50232,184.03614,525,184.03614ZM285.32522,500c0-132.15681,107.518-239.6748,239.6748-239.6748a238.36585,238.36585,0,0,1,140.2714,45.45938L330.78459,640.27141A238.36592,238.36592,0,0,1,285.32521,500ZM525,739.6748a238.366,238.366,0,0,1-140.27143-45.45937L719.21545,359.72859A238.366,238.366,0,0,1,764.67482,500C764.67482,632.15681,657.15683,739.6748,525,739.6748Z" transform="translate(0 0.0889)"/><path d="M525,825.5c179.8947,0,325.5-145.58116,325.5-325.5,0-179.89342-145.57988-325.5-325.5-325.5a325.88866,325.88866,0,0,0-92.1572,13.25523,9.536,9.536,0,0,0,5.39108,18.29412A306.83192,306.83192,0,0,1,525,193.57227C694.35407,193.57227,831.42771,330.623,831.42771,500,831.42771,669.35281,694.377,806.42773,525,806.42773,355.64717,806.42773,218.57225,669.377,218.57225,500A306.30289,306.30289,0,0,1,403.961,218.42217a9.53576,9.53576,0,1,0-7.54118-17.51724A325.35677,325.35677,0,0,0,199.5,500c0,179.89342,145.58115,325.5,325.5,325.5Z" transform="translate(0 0.0889)"/><path d="M665.635,426.79811,717.86,374.5719A228.04653,228.04653,0,0,1,755.13865,500a230.42694,230.42694,0,0,1-99.70854,189.49568h0A9.536,9.536,0,1,0,666.267,705.18963a248.87444,248.87444,0,0,0,60.6714-351.0556,9.53945,9.53945,0,0,0-14.4657-1.14943L377.9846,687.4727a9.5393,9.5393,0,0,0,1.14943,14.4657,248.80154,248.80154,0,0,0,253.2034,22.94651,9.53578,9.53578,0,1,0-8.24048-17.19938A229.56089,229.56089,0,0,1,399.57188,692.86l52.22621-52.22624m16.70857-16.70984L648.924,443.50666" transform="translate(0 0.0889)"/><path d="M670.86471,298.06031A247.15535,247.15535,0,0,0,525,250.78907c-137.41567,0-249.21093,111.79526-249.21093,249.21093a247.16391,247.16391,0,0,0,47.27124,145.86469A9.5369,9.5369,0,0,0,337.526,647.0141L672.01284,312.52726a9.5387,9.5387,0,0,0-1.14817-14.46695Zm-89.37265,78.01321M384.365,573.20192l-52.22622,52.22624A228.05867,228.05867,0,0,1,294.86136,500c0-126.89923,103.23945-230.13867,230.13866-230.13867A228.03606,228.03606,0,0,1,650.42814,307.14l-52.2262,52.22748" transform="translate(0 0.0889)"/><path class="cls-24" d="M4879.786,451.345c-15.898,0-28.786,19.769-28.786,44.155s12.888,44.155,28.786,44.155c11.247,0,20.98-9.899,25.717-24.321h42.116a152.38956,152.38956,0,0,0,30.472,73.525l-29.792,29.792c-13.548-6.848-27.43-6.965-35.382.987-11.242,11.242-6.377,34.334,10.867,51.577,17.243,17.243,40.335,22.109,51.577,10.867,7.952-7.953,7.835-21.835.987-35.382l29.792-29.792a152.37959,152.37959,0,0,0,73.526,30.472v42.116c-14.422,4.737-24.321,14.471-24.321,25.717,0,15.898,19.769,28.786,44.155,28.786s44.155-12.888,44.155-28.786c0-11.247-9.899-20.98-24.321-25.717V647.38a152.38921,152.38921,0,0,0,73.526-30.472l29.792,29.792c-6.848,13.547-6.965,27.43.987,35.382,11.242,11.242,34.334,6.376,51.577-10.867s22.109-40.335,10.867-51.577c-7.953-7.952-21.835-7.835-35.382-.987l-29.792-29.792a152.37591,152.37591,0,0,0,30.472-73.525h42.116c4.737,14.422,14.471,24.321,25.717,24.321,15.898,0,28.786-19.769,28.786-44.155s-12.888-44.155-28.786-44.156c-11.247,0-20.98,9.899-25.717,24.321H5251.38a152.38959,152.38959,0,0,0-30.472-73.525l29.792-29.792c13.548,6.848,27.43,6.965,35.382-.987,11.242-11.242,6.377-34.333-10.867-51.577-17.243-17.243-40.335-22.109-51.577-10.867-7.952,7.953-7.835,21.835-.987,35.382l-29.792,29.792a152.372,152.372,0,0,0-73.525-30.472V301.503c14.422-4.737,24.321-14.471,24.321-25.717,0-15.898-19.769-28.786-44.155-28.786s-44.155,12.888-44.156,28.786c0,11.247,9.899,20.98,24.321,25.717V343.62a152.38951,152.38951,0,0,0-73.525,30.472L4976.348,344.3c6.848-13.548,6.965-27.43-.987-35.382-11.242-11.242-34.334-6.376-51.577,10.867s-22.109,40.335-10.867,51.577c7.953,7.952,21.835,7.835,35.382.987l29.792,29.792a152.37186,152.37186,0,0,0-30.472,73.525h-42.116c-4.737-14.422-14.471-24.321-25.717-24.321Z" transform="translate(0 0.0889)"/><path class="cls-25" d="M4997.559,471.338a28.305,28.305,0,0,0,0,48.324,28.305,28.305,0,0,1,12.768,30.817l-.009.036a28.30449,28.30449,0,0,0,34.166,34.166l.036-.009a28.30441,28.30441,0,0,1,30.817,12.768,28.30411,28.30411,0,0,0,48.323,0,28.305,28.305,0,0,1,30.817-12.768l.036.009a28.30446,28.30446,0,0,0,34.166-34.166l-.009-.036a28.30443,28.30443,0,0,1,12.768-30.817,28.305,28.305,0,0,0,0-48.324,28.305,28.305,0,0,1-12.768-30.817l.009-.036a28.30447,28.30447,0,0,0-34.166-34.166l-.036.009a28.30442,28.30442,0,0,1-30.817-12.768,28.30411,28.30411,0,0,0-48.323,0,28.305,28.305,0,0,1-30.817,12.768l-.036-.009a28.30446,28.30446,0,0,0-34.166,34.166l.009.036a28.305,28.305,0,0,1-12.768,30.817Z" transform="translate(0 0.0889)"/><path class="cls-26" d="M5143.37,642.263a152.74107,152.74107,0,0,0,49.49-25.354l29.792,29.792c-6.848,13.548-6.965,27.429.987,35.382,11.242,11.242,34.333,6.376,51.577-10.867,17.243-17.244,22.109-40.335,10.867-51.577-7.953-7.952-21.835-7.835-35.382-.987l-29.792-29.792a152.3796,152.3796,0,0,0,30.472-73.526h42.116c4.737,14.422,14.471,24.321,25.717,24.321,15.898,0,28.786-19.769,28.786-44.155s-12.888-44.155-28.786-44.156c-11.247,0-20.98,9.899-25.717,24.321H5251.38a152.38,152.38,0,0,0-30.472-73.525l29.792-29.792c13.548,6.848,27.43,6.965,35.382-.987,11.242-11.242,6.377-34.334-10.867-51.577s-40.335-22.109-51.577-10.867c-7.952,7.953-7.835,21.835-.987,35.382l-29.47,29.47a195.37427,195.37427,0,0,1,32.602,108.088c0,65.354-32.307,123.454-82.413,160.406Z" transform="translate(0 0.0889)"/><path class="cls-24" d="M5182.233,478.723c0,56.778-46.309,104.31-108.403,116.51.531.709,1.041,1.439,1.509,2.207a28.30413,28.30413,0,0,0,48.323,0,28.30442,28.30442,0,0,1,30.817-12.768l.036.009a28.30474,28.30474,0,0,0,34.166-34.166l-.009-.036a28.305,28.305,0,0,1,12.768-30.817,28.305,28.305,0,0,0,0-48.324,28.305,28.305,0,0,1-12.768-30.817l.009-.036a28.30446,28.30446,0,0,0-34.166-34.166l-.036.009c-.229.055-.458.088-.687.137,17.843,20.071,28.441,45.105,28.441,72.258Z" transform="translate(0 0.0889)"/><path d="M5003.039,548.715a35.803,35.803,0,0,0,43.21,43.255,20.75625,20.75625,0,0,1,22.687,9.377,35.80477,35.80477,0,0,0,61.128,0,20.74457,20.74457,0,0,1,22.651-9.386,35.80385,35.80385,0,0,0,43.256-43.21,20.75157,20.75157,0,0,1,9.376-22.687,35.80435,35.80435,0,0,0,0-61.128,20.7405,20.7405,0,0,1-9.385-22.651,35.8033,35.8033,0,0,0-43.211-43.255,20.75647,20.75647,0,0,1-22.687-9.376,35.55263,35.55263,0,0,0-30.564-17.156c1-.267-19.356-1.214-30.564,17.156a20.74253,20.74253,0,0,1-22.651,9.385,35.80358,35.80358,0,0,0-43.256,43.21,20.75153,20.75153,0,0,1-9.376,22.687,35.80435,35.80435,0,0,0,0,61.128A20.74254,20.74254,0,0,1,5003.039,548.715Zm14.57,3.564a35.70609,35.70609,0,0,0-16.143-39.019,20.80393,20.80393,0,0,1,0-35.519,35.69281,35.69281,0,0,0,16.152-38.982,20.80371,20.80371,0,0,1,25.104-25.149,35.70119,35.70119,0,0,0,39.019-16.143,20.80434,20.80434,0,0,1,35.519,0,35.693,35.693,0,0,0,38.983,16.151,20.80394,20.80394,0,0,1,25.148,25.104,35.70608,35.70608,0,0,0,16.143,39.019,20.80435,20.80435,0,0,1,0,35.519,35.69564,35.69564,0,0,0-16.151,38.983,20.80485,20.80485,0,0,1-25.104,25.149,35.70484,35.70484,0,0,0-39.019,16.143,20.80476,20.80476,0,0,1-35.519,0,35.69274,35.69274,0,0,0-38.983-16.152,20.80428,20.80428,0,0,1-25.149-25.104Z" transform="translate(0 0.0889)"/><path d="M5288.32,522.834c6.515,15.136,18.013,24.321,30.894,24.321,20.347,0,36.286-22.69,36.286-51.655s-15.939-51.655-36.286-51.653c-12.881,0-24.379,9.184-30.894,24.32h-30.484a160.3312,160.3312,0,0,0-27.061-65.284l21.57-21.569c37.429,14.903,61.635-18.136,37.911-54.819a7.50028,7.50028,0,1,0-12.596,8.146c7.986,12.349,9.269,25.268,3.12,31.418-5.282,5.282-15.761,5.124-26.695-.403a7.49693,7.49693,0,0,0-8.687,1.39l-29.792,29.792a7.49981,7.49981,0,0,0-.639,9.879,145.26658,145.26658,0,0,1,28.976,69.911,7.50052,7.50052,0,0,0,7.438,6.538h42.116a7.49939,7.49939,0,0,0,7.125-5.16c3.823-11.64,11.121-19.161,18.592-19.161,11.538,0,21.286,16.786,21.286,36.655s-9.748,36.655-21.286,36.656c-7.471,0-14.769-7.521-18.592-19.161a7.49937,7.49937,0,0,0-7.125-5.16h-42.116a7.499,7.499,0,0,0-7.438,6.538,145.27053,145.27053,0,0,1-28.976,69.911,7.5,7.5,0,0,0,.639,9.879l29.792,29.792a7.50031,7.50031,0,0,0,8.687,1.39c10.933-5.527,21.412-5.685,26.695-.403,8.158,8.159,3.181,26.921-10.868,40.971s-32.811,19.025-40.97,10.867c-5.283-5.282-5.125-15.76.402-26.695a7.50033,7.50033,0,0,0-1.39-8.687l-29.792-29.792a7.50121,7.50121,0,0,0-9.88-.639,145.25676,145.25676,0,0,1-69.911,28.976,7.499,7.499,0,0,0-6.538,7.438v42.116a7.49939,7.49939,0,0,0,5.16,7.125c11.64,3.823,19.161,11.121,19.161,18.591,0,11.539-16.785,21.287-36.654,21.287s-36.655-9.748-36.658-21.289c0-7.47,7.522-14.767,19.162-18.591a7.49937,7.49937,0,0,0,5.16-7.125V647.379a7.499,7.499,0,0,0-6.538-7.438,145.26679,145.26679,0,0,1-69.911-28.976,7.4999,7.4999,0,0,0-9.879.639l-29.792,29.792a7.50032,7.50032,0,0,0-1.39,8.687c5.527,10.934,5.685,21.412.403,26.695-5.814,5.814-17.686,5.026-29.541-1.961a7.49988,7.49988,0,1,0-7.615,12.923c36.19,21.33,66.848-3.142,52.411-39.397l21.57-21.569a160.3124,160.3124,0,0,0,65.284,27.06v30.485c-15.137,6.516-24.321,18.014-24.321,30.894,0,20.348,22.689,36.287,51.655,36.287,28.965,0,51.654-15.939,51.653-36.287,0-12.88-9.184-24.378-24.32-30.894V653.834a160.32357,160.32357,0,0,0,65.284-27.06l21.569,21.57c-11.704,29.395,6.308,52.379,35.036,46.326,37.146-7.827,65.966-57.033,42.664-80.335-9.108-9.108-23.733-10.744-39.042-4.648l-21.57-21.569a160.31173,160.31173,0,0,0,27.061-65.284h30.485Z" transform="translate(0 0.0889)"/><path d="M4910.67891,522.83505h30.486a160.32941,160.32941,0,0,0,27.06,65.284l-21.57,21.569c-37.481-14.927-61.637,18.216-37.873,54.878a7.50031,7.50031,0,1,0,12.587-8.16c-8.015-12.365-9.31-25.304-3.149-31.465,5.283-5.282,15.761-5.124,26.695.403a7.50014,7.50014,0,0,0,8.687-1.39l29.792-29.792a7.49869,7.49869,0,0,0,.639-9.879,145.24743,145.24743,0,0,1-28.976-69.911,7.49977,7.49977,0,0,0-7.438-6.538h-42.116a7.49937,7.49937,0,0,0-7.125,5.16c-3.823,11.64-11.121,19.161-18.591,19.161-11.539,0-21.287-16.786-21.287-36.655s9.748-36.655,21.289-36.657c7.471,0,14.768,7.521,18.591,19.161a7.49937,7.49937,0,0,0,7.125,5.16h42.116a7.49976,7.49976,0,0,0,7.438-6.538,145.26116,145.26116,0,0,1,28.976-69.911,7.5,7.5,0,0,0-.639-9.879l-29.792-29.792a7.50035,7.50035,0,0,0-8.687-1.39c-10.934,5.527-21.412,5.685-26.695.403-8.159-8.159-3.182-26.922,10.867-40.971,14.05-14.049,32.812-19.025,40.971-10.867,5.283,5.283,5.124,15.761-.403,26.695a7.49879,7.49879,0,0,0,1.39,8.687l29.792,29.792a7.4986,7.4986,0,0,0,9.879.639,145.249,145.249,0,0,1,69.911-28.976,7.499,7.499,0,0,0,6.538-7.438v-42.116a7.49937,7.49937,0,0,0-5.16-7.125c-11.641-3.823-19.162-11.121-19.162-18.591,0-11.538,16.786-21.286,36.655-21.286s36.654,9.748,36.655,21.287c0,7.47-7.521,14.767-19.161,18.591a7.49937,7.49937,0,0,0-5.16,7.125v42.115a7.499,7.499,0,0,0,6.538,7.438,145.257,145.257,0,0,1,69.911,28.976,7.50008,7.50008,0,0,0,9.88-.639l29.792-29.792a7.50032,7.50032,0,0,0,1.39-8.687c-5.527-10.934-5.685-21.412-.402-26.695,5.825-5.824,17.715-5.026,29.588,1.99a7.5,7.5,0,0,0,7.629-12.915c-36.107-21.331-66.958,2.982-52.473,39.361l-21.569,21.57a160.32376,160.32376,0,0,0-65.284-27.06v-30.485c15.136-6.516,24.32-18.014,24.32-30.894,0-20.347-22.689-36.286-51.654-36.286-28.966,0-51.655,15.939-51.655,36.286,0,12.88,9.184,24.378,24.321,30.894v30.485a160.32376,160.32376,0,0,0-65.284,27.06l-21.57-21.569c11.706-29.396-6.307-52.379-35.035-46.327-37.389,7.879-65.768,57.23-42.663,80.335,9.107,9.108,23.732,10.744,39.042,4.648l21.57,21.569a160.32358,160.32358,0,0,0-27.06,65.284H4910.68c-6.515-15.136-18.013-24.32-30.893-24.32-20.348,0-36.287,22.69-36.287,51.655s15.939,51.655,36.286,51.655c12.88,0,24.378-9.185,30.893-24.321Z" transform="translate(0 0.0889)"/><path class="cls-6" d="M4784.03612,500c0,174.5023,141.46156,315.96386,315.96386,315.96386S5415.96384,674.5023,5415.96384,500,5274.5023,184.03614,5100,184.03614,4784.03612,325.4977,4784.03612,500Zm555.63867,0a238.36592,238.36592,0,0,1-45.45938,140.27143L4959.72858,305.78458A238.36585,238.36585,0,0,1,5100,260.3252c132.15681,0,239.6748,107.518,239.6748,239.6748Zm-479.34961,0a238.366,238.366,0,0,1,45.45937-140.27141l334.48686,334.48684A238.366,238.366,0,0,1,5100,739.6748C4967.84317,739.6748,4860.32518,632.15681,4860.32518,500Z" transform="translate(0 0.0889)"/><path d="M5100,825.5c179.91885,0,325.5-145.60658,325.5-325.5a325.35677,325.35677,0,0,0-196.91986-299.09507,9.53576,9.53576,0,1,0-7.54118,17.51724A306.30289,306.30289,0,0,1,5406.42775,500c0,169.377-137.07492,306.42773-306.42773,306.42773-169.377,0-306.42773-137.07492-306.42773-306.42773,0-169.377,137.07364-306.42773,306.42773-306.42773a306.83192,306.83192,0,0,1,86.76608,12.47708,9.536,9.536,0,0,0,5.39108-18.29412A325.88866,325.88866,0,0,0,5100,174.5c-179.92012,0-325.5,145.60658-325.5,325.5,0,179.91884,145.6053,325.5,325.5,325.5Z" transform="translate(0 0.0889)"/><path d="M5173.20191,640.63378,5225.42812,692.86a229.56089,229.56089,0,0,1-224.52507,14.82551,9.53578,9.53578,0,0,0-8.24048,17.19938A248.80154,248.80154,0,0,0,5245.866,701.9384a9.5393,9.5393,0,0,0,1.14943-14.4657L4912.52728,352.9846a9.53945,9.53945,0,0,0-14.4657,1.14943,248.87444,248.87444,0,0,0,60.6714,351.0556,9.536,9.536,0,1,0,10.83687-15.69395h0A230.42694,230.42694,0,0,1,4869.86135,500,228.04653,228.04653,0,0,1,4907.14,374.5719l52.225,52.22621m16.71108,16.70855,180.4173,180.41728" transform="translate(0 0.0889)"/><path d="M4954.13533,298.06031a9.5387,9.5387,0,0,0-1.14817,14.46695L5287.474,647.0141a9.5369,9.5369,0,0,0,14.46568-1.14941A247.16391,247.16391,0,0,0,5349.21091,500c0-137.41567-111.79526-249.21093-249.21093-249.21093a247.15535,247.15535,0,0,0-145.86469,47.27124Zm89.37261,78.01321-16.70988-16.706L4974.57186,307.14A228.03606,228.03606,0,0,1,5100,269.86137c126.89921,0,230.13866,103.23944,230.13866,230.13867a228.05867,228.05867,0,0,1-37.27738,125.42812L5240.635,573.20192" transform="translate(0 0.0889)"/></g><g id="Ancrage"><rect class="cls-12" x="5624" y="999.0889" width="1" height="1"/><rect class="cls-12" x="5624" y="0.0889" width="1" height="1"/><rect class="cls-12" y="999.0889" width="1" height="1"/><rect class="cls-12" y="0.0889" width="1" height="1"/></g></g></svg>