<?xml version="1.0" encoding="utf-8"?>
<!-- Generator: Adobe Illustrator 23.0.3, SVG Export Plug-In . SVG Version: 6.00 Build 0)  -->
<svg version="1.1" id="Calque_1" xmlns="http://www.w3.org/2000/svg" xmlns:xlink="http://www.w3.org/1999/xlink" x="0px" y="0px"
	 viewBox="0 0 582.5 787.6" style="enable-background:new 0 0 582.5 787.6;" xml:space="preserve">
<style type="text/css">
	.st0{fill:#1D1D1B;}
	.st1{fill:#F7A81B;stroke:#1D1D1B;stroke-width:2;stroke-miterlimit:10;}
	.st2{fill:#E8B10A;stroke:#1D1D1B;stroke-width:2;stroke-miterlimit:10;}
	.st3{fill:#FFD700;stroke:#1D1D1B;stroke-width:2;stroke-miterlimit:10;}
	.st4{fill:#E8917B;}
	.st5{opacity:0.5;fill:#FFFFFF;enable-background:new    ;}
	.st6{opacity:0.3;}
	.st7{opacity:0.7;fill:#1D1D1B;enable-background:new    ;}
	.st8{opacity:0.6;fill:#1D1D1B;enable-background:new    ;}
	.st9{opacity:0.7;}
	.st10{fill:none;stroke:#1D1D1B;stroke-width:2;stroke-miterlimit:10;}
	.st11{fill:none;}
	.st12{fill:none;stroke:#1D1D1B;stroke-miterlimit:10;}
	.st13{fill:#1D1D1B;stroke:#1D1D1B;stroke-miterlimit:10;}
	.st14{fill:#FFFFFF;}
	.st15{fill:#FFFFFF;stroke:#1D1D1B;stroke-width:0.5;stroke-miterlimit:10;}
	.st16{fill:#FFFFFF;stroke:#1D1D1B;stroke-miterlimit:10;}
	.st17{fill:#C46453;stroke:#1D1D1B;stroke-width:2;stroke-miterlimit:10;}
	.st18{fill:#9D9D9C;stroke:#1D1D1B;stroke-width:2;stroke-miterlimit:10;}
	.st19{opacity:0.7;fill:#B3B3B3;enable-background:new    ;}
	.st20{fill:#58B09B;}
	.st21{opacity:0.1;fill:#010101;enable-background:new    ;}
	.st22{fill:#E470A6;}
	.st23{fill:#E9CA5A;}
	.st24{fill:#A1D1B0;}
	.st25{fill:#2CA8C1;}
	.st26{opacity:0.4;}
	.st27{opacity:0.1;}
	.st28{fill:#010101;}
	.st29{fill:#1D1E1B;}
	.st30{fill:#E14C4C;stroke:#1D1E1B;stroke-width:2;stroke-miterlimit:10;}
	.st31{fill:#D1403F;stroke:#1D1E1B;stroke-width:2;stroke-miterlimit:10;}
	.st32{fill:#D9E4EE;stroke:#1D1E1B;stroke-width:2;stroke-miterlimit:10;}
	.st33{fill:#CCD6E0;}
	.st34{fill:#EBE1E8;stroke:#1D1D1B;stroke-width:5;stroke-miterlimit:10;}
	.st35{fill:#F7F4F6;stroke:#1D1D1B;stroke-width:5;stroke-miterlimit:10;}
	.st36{fill:#E2343F;stroke:#1D1D1B;stroke-width:5;stroke-miterlimit:10;}
	.st37{fill:#E94547;stroke:#1D1D1B;stroke-width:5;stroke-miterlimit:10;}
	.st38{fill:#EBE1E8;}
	.st39{fill:#F7F4F6;}
	.st40{fill:#E2343F;}
	.st41{fill:#E94547;}
	.st42{fill:#FFD700;}
	.st43{fill:#F8BD31;}
	.st44{fill:#F7A81B;}
	.st45{fill:#1E1E1C;}
	.st46{fill:none;stroke:#1D1E1B;stroke-width:2;stroke-miterlimit:10;}
	.st47{fill:#E8917B;stroke:#1D1D1B;stroke-width:2;stroke-miterlimit:10;}
</style>
<title>logo_alligator_news-xmas</title>
<g id="fafe0ef2-109a-470f-a23d-1c382872506e">
	<path class="st0" d="M326.4,337.6c41.5,6.8,82.2,7.1,122.8,8.2c3.8-24.2,7.6-48.4,11.3-72.7c-23.9-6.7-57.7-20.1-89.2-48.2
		c-9.4-8.4-46.6-41.6-61.8-89.6c-7.1-22.3-6-37-20-56.2c-5.6-7.7-13.7-16-14-28.9c-0.2-8.6,3.2-12.7,3.6-22.7
		c0.5-11.8-3.5-21.5-6.8-27.6c3.1,8.4,4.4,17.3,4,26.2c-1,16.3-7.8,20.1-4.4,30.7c2.3,7.1,5.9,11.6,4.8,20.1c-0.5,3-1.4,5.8-2.8,8.5
		c-7.3,14-130.1,189-153.8,222.8c39.3,6.7,77.4,15.1,117.1,20.4C267.4,332.6,296.4,333.6,326.4,337.6z"/>
	<path class="st0" d="M326.4,337.6c-30-4-59-5-89-9c-39.7-5.3-77.8-13.7-117.1-20.4c-0.8,1.2-1.6,2.2-2.1,3
		c-1.3,12.9-2.6,25.8-3.9,38.8L76.7,533.4c45.1,27.4,90.3,54.9,135.4,82.3c11.1,5.8,23,9.5,35.4,11.2c4.3,0.6,8.7,0.8,13.1,0.9
		c4.8,5.3,8.2,11.7,9.7,18.7c3.3,16.6-7.9,22.6-5,34.8c3.6,14.6,21.4,12.3,42.8,36.1c8.9,9.9,6.2,10.8,16.1,21.2
		c11.7,12.5,18.8,14.7,30.7,26.9c6.6,6.8,12.3,14.2,17.3,22.2c-2.8-6.4-6.4-12.6-10.5-18.2c-11.8-16.1-21.5-19-35.6-35.4
		c-10.7-12.5-6.4-12.3-16-22.9c-18.8-20.8-33.7-19.4-36.6-32.3c-2.5-10.9,7.6-14.8,5.9-31.5c-0.8-7.5-3.4-12.9-7.6-21.3
		c-4.7-9.4-10.5-18.2-17.5-26.1l61.8-15.2c29.8-7.7,58.2-19.9,84.3-36.1c6.8-4.2,13.1-8.5,19.1-12.9c9.9-63.3,19.8-126.7,29.7-190
		C408.6,344.7,367.9,344.4,326.4,337.6z M319.4,509.6c16,7,34,3,51,6C353.4,512.6,335.4,516.6,319.4,509.6z"/>
	<ellipse class="st1" cx="114.2" cy="199.1" rx="24.2" ry="24.7"/>
	<path class="st2" d="M114.2,201.5c0.5-0.1,7.5-1,12.2,4.5c4.6,5.3,3,11.9,2.8,12.4c5.4-3.5,9.2-9,10.2-15.4
		c1.6-10.4-5-17.7-5.8-18.5L114.2,201.5z"/>
	<path class="st3" d="M165.1,273.2c16.2-17.2,16.7-22,39.9-52.8c54.1-71.8,66.1-86.3,66.1-86.3c11.6-14,23.4-27.6,20.6-43.8
		C290,80,282.9,72.5,277.6,68c0.3,7.1-1.7,14.2-5.6,20.2c-1.9,2.9-4.4,6.6-8.7,7.7c-6.1,1.6-11-3.5-15.3-5.5
		c-14.2-6.7-30.1,14.4-64,31.8c-26,13.4-30.4,8.7-50.2,21.9c-13.9,9.4-25.9,21.2-35.4,35c4.8-2.6,10.2-3.9,15.7-3.9
		c3.3,0.1,11.1,0.2,17,5.6c1,0.9,5.5,5.3,6.7,15.9c1.8,16.9-7,31-14.2,42.3c-8.3,12.9-18.6,24.3-30.5,33.9
		c11.1,8.9,21.4,28.6,25.2,42.3c2.9,0.5,4.1-4,15.4-13C148.1,291.5,152.7,286.3,165.1,273.2z"/>
	<ellipse class="st1" cx="46.6" cy="583.4" rx="16.2" ry="16.6"/>
	<path class="st2" d="M60.9,586c-0.3-1-0.7-1.9-1.2-2.8c-1.1-2.1-2.8-5.3-5.9-6.3c-0.6-0.2-3.3-1-5.3,0.6c-0.8,0.6-1.3,1.4-1.6,2.3
		c-0.4,1.4,0.2,2.2-0.1,2.4c-0.1,0.1-0.8,0.4-5.7-4.4c-3.9-3.9-4-4.6-4-5.2c0.1-2.9,5.3-4.7,5.9-4.9c4.1-1.3,8.5-0.7,12.2,1.6
		c4.8,3.1,7.3,8.8,6.5,14.5C61.4,584.6,61.2,585.3,60.9,586z"/>
	<path class="st3" d="M74.1,314c-15.9,12.1-25.7,30.5-27.2,50.4c0,3.5,0.6,7,1.7,10.3c2.4,6.9,6.3,10.1,8.3,12.9
		c7.6,10.6-1,32-9.3,44.2c-7.4,10.9-10.3,8.3-30.5,29.9c-10.6,11.3-14.4,16.7-15.7,24C0,493.3,2.4,497,5.7,510
		c7.5,28.9,1.9,34.9,9.7,54.7c3.9,9.6,9.4,18.5,16.3,26.3c0-5,0.7-15.4,8.2-22.5c2.2-2.1,4.9-3.7,7.7-4.9
		c16.1-6.7,44.3-9.7,52.2-10.4c-1.5-9.7-2.5-19.4-2.9-29.2c-0.6-17.1,0.6-34.1,3.4-50.9c7.5-43.8,21.7-53.5,32-97.3
		c3.8-16,6.1-32.3,6.9-48.6c-6.3-5.2-13.5-9.3-21.2-12C98.6,308.2,81.3,311.9,74.1,314z"/>
	<path class="st1" d="M494.9,192.1c-7.9-7.1-17-12.9-26.7-17.1c3.7-2.3,8-3.2,12.3-2.7c1.3,0.2,9.8,1.4,13.4,9
		C495.4,184.7,495.8,188.5,494.9,192.1z"/>
	<path class="st3" d="M460.6,273.2c-14.5-0.7-28.8-3.4-42.5-8.2c-73.6-25.6-108.8-103.2-114-129c-2-10.5-4.6-20.9-7.7-31.1
		c-3.4-11.3-6.9-20.2-9-25.5c6.7,6.6,14.9,14.6,24.2,23.6c16.2,15.6,20.2,19.3,26.8,22.7c7.4,3.9,14.1,5.6,30,7.7
		c34.8,4.7,38.3,1.5,59.2,5.2c18.2,3.7,35.5,10.6,51.3,20.4c13.1,8.2,19.7,15.3,19.7,23.2c0,2.8-0.8,5.5-2.1,7.9
		c-0.2-1-2.2-12.3-11.9-16.3c-6.8-2.8-13.3-0.3-14.5,0.2c-12.6,5-16.4,21.8-18.5,30.5C445.1,232.9,454.1,258.9,460.6,273.2z"/>
	<path class="st3" d="M425.1,345.2c-0.3,4.6-0.5,8.9-0.8,12.8c-3.4,54.9-7,79.3-6.9,122.8c0.1,25.4,1.3,45.9,2.3,58.4
		c9.3-12.8,27.2-33.5,55.2-45.4c0,0,24.8-10.5,46.4-5.2c2.9,0.7,6.5,2,9.2,5.3c5.4,6.8,2.2,16.8,1.6,18.7
		c5.8-4.1,10.6-9.3,14.2-15.5c11.8-20.6,3.4-43,1.9-46.6c-4.5-3.9-9.7-7-15.2-9.2c-10.3-4-21.6-4.7-32.4-2.1c4.4-3.9,9.5-7,15-9
		c15.3-5.5,29-1,33.5,0.6c-7.2-39.6,4.7-80.3,32.1-109.8c-38.2-43.4-98.6-59.7-153.4-41.5C427.1,305.7,426.1,327.9,425.1,345.2"/>
	<path class="st1" d="M202.1,694.9c8.9-1.3,15-9.5,13.8-18.4c-0.5-3.2-1.9-6.2-4-8.6c-10.8,0.3-21.5-1.8-31.4-6.1
		c-0.5,1.3-4,11.1,1.5,20.8C188.4,694,201.2,694.8,202.1,694.9z"/>
	<path class="st3" d="M260.6,627.7c-22.3-9.1-43.8-20.2-64.2-33c-17.1-10.8-28-19.6-50.2-31.8c-12.8-7-26-13.3-39.5-18.9
		c-10.3,1.6-19.8,6.2-27.5,13.3c-17.2,16.3-16.2,38.8-16,42.2c4.5,3.6,9.3,6.8,14.4,9.4c6.4,3.3,8.4,3.3,11.6,6
		c5.3,4.5,6.2,10.1,8.9,18.3c0,0,2.6,7.8,10.6,23.5c9.7,19.1,28.7,28.7,34.1,31.5c24.8,12.6,48.5,8.9,56.2,7.3
		c-9.9-3-17.3-11.3-19.1-21.5c-2.5-14.5,8.1-24.5,8.8-25.1c4.1-1.5,8.5-2.2,12.9-1.9c6.3,0.4,12.3,2.6,17.3,6.3
		c4.4-10.1,6.6-21,6.3-32C236.3,626.1,248.5,628.3,260.6,627.7L260.6,627.7z"/>
	<path class="st3" d="M337.9,633.3c13,2,26.3,1.1,38.9-2.6c16.3-4.8,27.3-13.3,42.1-24.9c18.4-14.3,14.8-15.6,29.2-26
		c23.8-17.1,39.7-17.9,41.5-29.8c1.3-8.3-5.2-16.3-6.9-18.3c-4.3-5.4-10.4-9.2-17.2-10.7c-6-1.2-10.6-0.1-16.6,1.5
		c-3.7,1-12.6,3.6-33.5,17.5c-6.6,4.4-7.3,5.2-11.2,7.7c-16.4,10.9-30,13.2-48.6,19.6c-10.2,3.5-24.8,8.7-42.6,16.1
		c4-0.3,16.3-0.6,27.1,7.8c3,2.3,16.5,12.9,13.4,26C351.2,628.1,339.4,632.7,337.9,633.3z"/>
	<path class="st4" d="M238.1,317.4c-28-3.7-52.3-4.8-79.7-9.9c-0.3,0.7-4.1,8.5-4.4,9.2c-9.3,4.3-30.3,15.6-44.8,39.6
		c-4.4,7.2-14.1,23.8-13.9,47.1c0.1,10.5,2.2,21,6.2,30.8c-1.2,2.9-2.3,6-3.4,9.4c-1.5,4.7-2.4,8.4-2.9,10.7
		c-3,13.2-4.5,19.8-4.9,24.4c-0.6,7.4,1.1,5.1,4.9,30c2.6,17.2,2.6,23.6,2.5,26.8c0,1.8-0.2,5.5-0.3,11.3c-0.1,9.6,0.2,6.2,0.1,14.2
		c0,3.9-0.1,5.2,0.4,7.4c0.7,2.9,2.1,5.6,4,7.9c3.7,2.9,7.8,5.3,12.2,7.1c0,0,2.4,1,5,1.8c13.9,4.3,32.6,3.1,32.7,3.1h0
		c8.9,0.1,17.8-1.2,26.3-3.8c7.2,5.2,10.2,7.3,10.7,7.6c0,0,0.3,0.2,0.7,0.5c0.5,0.3,0.7,0.5,0.9,0.6c3.9,2.8,15.8,9.7,15.8,9.7
		c3.4,2,5.1,3,5.7,3.3c6.7,3.8,11.9,6.5,14.5,7.9c10.5,5.4,20.3,9.8,25.6,12.1c3.4,0.8,7,0.9,10.4,0.4c1.5-0.2,4.4-0.8,4.7-2.1
		c0.1-0.6-0.3-1-1.5-3.1c-0.8-1.5-1.1-2.1-1.5-2.9c-1.1-2.1-5.6-9.2-12.2-18.5c21.3-5.2,42.6-10.5,64-15.7
		c15.7-8.2,27-12.6,35.2-15.2c3.8-1.2,11.8-3.5,13.7-9.4c0.6-1.8,0.5-3.7,0.3-7.4c-0.2-3.9-0.7-7.9-1.6-11.7c4.4,4.3,8.5,9,12.1,14
		c2.3,3.1,4.2,6.1,5.9,9c-0.7,3.3-1,6.6-1,10c0.1,5.5,1.1,8.8-0.3,13.6c-0.5,1.6-1.1,3.1-2,4.6c10.7,1.2,21.4,2.4,32.2,3.6
		c3.9-1.6,7.7-3.2,11.6-4.9c3.2-1.8,6.4-3.6,9.6-5.3c7.3-1.7,14-5.5,19-11.1c7.5-2.4,12.9-7.7,13.3-13.2c0.1-1.9-0.1-7.4-3.6-10.9
		c-1.4-1.4-2.9-2.2-3.1-4c-0.2-1.7,1.2-2.6,1.7-4.9c0.4-1.7,0.3-3.5-0.3-5.2c-5.1,3.1-10.9,5-16.8,5.3c-4.7,0.2-9.4-0.5-13.9-1.9
		c-4.4-1.2-8.6-3-12.4-5.4c-3.7-4.7-7.1-9.8-9.9-15.1c-3.2-6-5.9-12.3-7.9-18.7c-4.1-12.5-9.9-29.2-17.4-50.7
		c4.7-6.7,8.4-14.1,11-21.8c1.7-5.1,2.3-8.4,5-15.9c2.8-7.6,5.1-12.1,6.3-14.9c9.8-22.2-0.1-49.6-0.8-51.4c-0.1-0.2-5.8-9.6-5.9-9.8
		c-25-1-44.9-0.4-70.3-4.5C295.9,326.8,268.1,321.4,238.1,317.4z M319.4,509.6c16,7,34,3,51,6C353.4,512.6,335.4,516.6,319.4,509.6z
		"/>
	<path class="st4" d="M488.9,219.5c-0.4-5.2-4-4.8-7.9-13c-3.6-7.4-2.6-11.7-7.7-16.8c-2.8-2.9-4.5-2.9-5.2-2.9
		c-2.9,0.2-5.5,3.7-6.6,8.9c-1-0.9-2.5-2.3-4.3-3.8c-2.3-1.9-11.1-9.2-18.1-12.4c-3-1.4-12.9-5.1-28.8-0.2
		c-6.6-4.4-14.3-7.1-22.2-7.9c-5.2-0.5-10.4-0.2-15.5,0.9c-6.3-7.9-15.6-13-25.7-13.9c-1.6-7.9-5.6-15.1-11.5-20.6
		c-3.4-3.1-8-7.2-14.2-7c-7,0.2-13.5,5.9-16.9,14.3c-7.1-1.3-14.4-0.4-20.9,2.5c-2.5-2.5-10.6-10.1-22.1-10.1
		c-3.8,0-7.6,0.8-11.2,2.4c-13.4,5.1-20.7,16.2-25.1,22.7c-4.8,7.2-8.4,15.2-10.6,23.5c-4.5,4.9-13.2,15.2-17.7,27.9
		c-3.2,8.7-3.9,18.1-2.1,27.1c-16.6,22.5-30.8,49.5-40.5,75.7c27.4,5.1,54.2,17.4,82.2,21.2c30,4,59.4,3.4,89.4,7.4
		c25.4,4.1,53.4,4.9,78.4,5.9c-2.3-6.2-8.4-22.9-15.2-27.8c-1.9-1.3-3.6-2.8-5.1-4.6c-2.5-3.1-4.3-6.7-5.2-10.6
		c-3.7-13.6-6.8-27.2-7.4-30.1c9.3-2.6,18-6.9,25.6-12.9c5.8,0.7,23.6,2.2,41.3-8.7c8.7-5.4,15.9-12.8,21.1-21.5
		c1.6,0,3.9,0,6.7-0.1c8.9-0.3,13.3-0.4,16-2C486.5,230,489.2,224.9,488.9,219.5z"/>
	<path class="st5" d="M374.3,352.2c-3.8-1.3-11.7-2.2-17.8-2.6c-7-0.4-14.1-0.1-21,0.9c2.2-3.2,4.4-6.7,6.7-10.6
		c-5.2-0.7-10.5-1.4-15.7-2.3c-27.2-3.6-53.6-4.8-80.6-8c5.2,9.9,11.7,19.1,19.4,27.2c-7-1.2-14.1-1.7-21.1-1.5
		c-12.7,0.4-25.2,3-37,7.7c1.7,6.9,4.6,22.2-0.3,39.4c-2.7,9.5-5,17.4-11.6,23.7c-1.7,1.6-4.1,3.5-5.9,7.2
		c-2.3,4.8-2.7,10.2-1.1,15.2c2.9,8.3,13,14.1,24.5,13.1c-2.4,3.6-3.3,8-2.8,12.2c1.3,9.2,9.5,13.4,10.3,13.7
		c-1.9,4-2.5,8.5-1.7,12.9c1.2,5.3,4.3,10,8.9,12.9c-0.3,1-0.4,2-0.4,3c0.1,2.2,1,4.2,2.5,5.8c11.5-0.4,23-1.9,34.3-4.6
		c3.9-0.9,7.7-2,11.4-3.3c9.5-3.4,11.9-5.9,19.2-7.9c2.2-0.6,3.5-0.8,14-1.6c11.7-0.9,17.6-1.4,23.7-1.7c7.6-0.4,17.4-0.9,29-1.3
		c0.6-2.3,1.2-4.5,1.8-6.8c1-1.9,1.7-4,2.1-6.2c0.7-3.3,0.6-6.7-0.1-9.9c-0.5-1.4-1.1-2.8-1.6-4.2c2.2-1,4-2.6,5.4-4.6
		c2.6-3.8,3.1-8.8,1.1-13c-0.4-0.8-0.9-1.5-1.5-2.2c3.9-1.2,7.6-3.1,10.7-5.8c4-3.5,6.3-7.5,9.4-15.2c3.3-8.2,6.1-16.6,8.4-25.1
		C396,380.6,388,356.7,374.3,352.2z"/>
	<path class="st5" d="M342.2,339.9c10.6-18.1,17.8-38,21.2-58.7c-24.6,4.6-49.5,7.2-74.5,7.9c-18.6,0.5-37.2-0.1-55.8-1.7
		c1.4,12.8,4.8,25.2,10.1,36.9c0.8,1.9,1.7,3.7,2.6,5.4c27,3.2,53.4,4.3,80.6,8C331.7,338.5,336.9,339.2,342.2,339.9z"/>
	<path id="f60e3a47-dc5c-4ddf-932c-69e9f0c87f4c" class="st5" d="M236.8,569.4c-0.5,2.8-0.2,5.8,0.8,8.5c1.4,3.7,4.1,6.8,7.6,8.8
		c-2.6,5.6-1.8,11.5,1.6,14.6c1.5,1.3,3.4,2.1,5.3,2.3c-1.4,1.8-2.1,4.1-1.9,6.4c0.7,3.8,3.7,6.8,7.4,7.4c-1.4,1.5-2,3.7-1.6,5.7
		c0.1,0.3,0.7,2.9,2.7,3.6c0.4,0.1,0.4,0.1,3-0.2c0,0,3.5-0.3,4.8-1.2c0.2-0.1,0.4-0.4,0.6-0.6c0.1-0.3,0.2-0.5,0.2-0.8
		c-0.1-0.6-0.4-1.2-0.9-1.7c-0.6-0.9-1.1-1.9-1.6-2.8c-0.4-0.8-0.7-1.4-0.8-1.7c-1.7-3.2-3.7-6.2-5.8-9.1c0,0-2.8-4.2-5.4-7.8
		c-0.1-0.1-0.2-0.3-0.4-0.5c-0.2-0.2-0.2-0.2-0.2-0.3c-0.1-0.2-0.2-0.2-0.2-0.3c0-0.1,0.2-0.1,0.3-0.1c0.3,0,0.5-0.1,0.8-0.2
		c0.6-0.2,1.2-0.3,1.9-0.4c0.8-0.2,0.8-0.2,2.2-0.6c0,0,0.6-0.2,1.4-0.4c2-0.5,52.9-13,58.7-14.4c4.1-2.3,8.6-4.7,13.5-6.9
		c7.1-3.2,14.3-6,21.7-8.3c0.1-3,0.3-6,0.4-9c0.4-0.3,4-3,4-7.4c0-1.7-0.6-3.4-1.6-4.9l-7.2,0.7c1.7,4.2,1.8,8.8,0.3,13
		c-14.7,2.5-29.4,5.1-44.1,7.6c-9.1,3.1-18.8,3.6-28.2,1.4c-5.3-1.3-10.4-3.5-15-6.4C253.3,565.4,245,567.4,236.8,569.4z"/>
	<g id="bfd7d0cc-9b13-4efe-a396-49f84b472a5b" class="st6">
		<path class="st7" d="M232.6,327.9c3.8,8.1,4.1,11,3.8,13.8c-0.9,6.5-5,11.1-7.7,13.6c11-1.7,22.2-1.9,33.3-0.6
			c-7-7.6-13-16.1-17.8-25.3c-2.2-0.3-4.5-0.6-6.7-0.8C235.8,328.4,234.2,328.1,232.6,327.9z"/>
		<path class="st7" d="M231,286.7c-18.4-7.4-32.2-23.1-37.3-42.3c-12.2,17-22.3,35.4-30,54.8c3.8-7.6,9-14.3,15.5-19.9
			c3.8-3.2,6.5-4.7,9.6-4.6c3.7,0.1,6.4,2.4,10,5.9c7.6,7.2,11.4,10.8,15,15.5c7.2,9.2,11.1,16.6,16.2,26.5c1,2,1.9,3.8,2.7,5.4
			c1.6,0.2,3.2,0.5,4.8,0.7c2.3,0.3,4.5,0.6,6.7,0.8c-0.1-0.2-0.2-0.3-0.2-0.5C237.1,315.8,232.7,301.5,231,286.7z"/>
		<path class="st7" d="M357.8,337.8c-0.8-2,0.8-7.1,4-17.3c2.4-7.8,3.9-11.3,5.6-11.2c0.9,0,1.1,1,3.5,3.5c1.7,1.7,3.6,3.3,5.6,4.7
			c2.1,1.6,4.3,3.1,6.5,4.4c4.6,3,8.5,6.7,11.7,11.2c-1.5-3.2-3.5-6.1-5.8-8.7c-3.9-4.3-6.9-5.4-8.9-9.9c-0.3-0.6-0.2-0.7-1.5-5.9
			c-0.8-3.3-1.7-6.7-2.5-10c-0.9-3.8-2.6-9.9-5.8-19.4c-2.1,0.7-4.3,1.3-6.4,2c-2.7,14.3-7,28.3-12.7,41.7
			c-2.6,6.2-5.4,11.9-8.3,17.2c6.3,0.8,12.5,1.5,18.8,2C359.9,341.1,358.5,339.6,357.8,337.8z"/>
		<path class="st7" d="M377.2,350c-6.4-4.9-11.9-6-15.6-8c-6.2-0.6-12.5-1.2-18.8-2c-2,3.8-4.1,7.3-6.1,10.6
			c5.7-1,11.4-1.5,17.2-1.6c5-0.1,9-0.2,13.1,0.6c3.9,0.8,12.6,3.3,21.5,13.7C385.8,358.1,381.9,353.6,377.2,350z"/>
		<path class="st7" d="M252.9,339.7c0.8-3.1,1.8-6.1,3-9c-3-0.3-6.1-0.6-9.1-1C248.9,333.5,251,336.8,252.9,339.7z"/>
		<path class="st7" d="M341.9,339.8c7.9-13.2,13.7-27.5,17.1-42.5c1.2-5.3,2.1-10.7,2.7-16.1c-3.5,0.7-8.5,1.6-14.4,2.5
			c-16.2,2.5-32.5,4.2-48.9,4.9c-7.6,0.3-17.1,0.5-28.3,0.3c-12.4,1.5-24.9,0.8-37.1-2c1.8,15,6.5,29.6,13.8,42.8
			c3,0.4,6.1,0.7,9.1,1c1.8-4.4,4.1-8.6,6.9-12.5c4.2-5.9,7.7-10.9,14.4-13.4c6.2-2.3,12.5-1.5,14.6-1.3c2.9,0.4,5.7,1.1,8.4,2.1
			c2.8,1,9.9,3.7,14.2,8.7c5.1,6,4.7,13.8,4.3,21c0,0.4-0.1,0.8-0.1,1.2c2.6,0.3,5.2,0.6,7.8,1C331.6,338.4,336.7,339.2,341.9,339.8
			z"/>
		<path class="st7" d="M308.4,368.8c-0.9,1.3-1.7,2.6-2.4,3.9C306.8,371.4,307.6,370.1,308.4,368.8z"/>
		<path class="st7" d="M326.4,337.6c-2.6-0.3-5.2-0.7-7.8-1c-1,11.3-4.5,22.3-10.3,32.1c6.1-8.9,15.3-15.1,25.8-17.4
			c2.5-3.5,5.1-7.3,7.6-11.6C336.7,339.2,331.6,338.4,326.4,337.6z"/>
		<path class="st7" d="M117.7,472.9c-1.6-4.1-4-7.9-7.2-11c-2.5-2.5-5.9-5.8-9-5c-2.1,0.5-3.3,2.8-4.9,6.6c-2.5,6-4.4,12.2-5.9,18.6
			c0.1-4.7,0.6-9.5,1.3-14.2c1.7-10.5,4.8-20.7,9.4-30.3c2.3,4.6,5,9,8,13.2c3.1,4.2,4.9,5.9,6.4,9.4
			C117.7,464.2,118.3,468.6,117.7,472.9z"/>
		<path class="st7" d="M175.7,507c0.1-8.4-0.3-24.8-4-37.6c-0.4-1.5-1.2-3.8-3-4.5c-5.5-2.3-15.7,10.9-20,16.7
			c1.7-4.4,3.9-8.6,6.5-12.5c2.1-3.1,4.4-6,7-8.7c4.9-5.4,10.1-10.4,15.7-15C183.2,465.7,182.5,487.1,175.7,507L175.7,507z"/>
		<path class="st7" d="M389.4,555.3c1,1.1,2.4,2.8,4.3,4.8c1.3,1.4,2,2.1,2.3,2.4c1.6,1.7,2.7,5.5,0.2,14.9
			c24.8-10.8,36.9-17,36.3-18.6c-0.1-0.4-0.9-0.5-2.3-0.4c-3.7,1.8-15.9,7.1-29.7,2.7C396.5,559.8,392.8,557.8,389.4,555.3z"/>
		<path class="st7" d="M354.8,517.7l13.4,1.4c0.3-1.3,0.7-2.5,1-3.8c-4.4-0.6-8.8-1-13.2-1.1C355.6,515.4,355.2,516.6,354.8,517.7z"
			/>
		<path class="st7" d="M395.9,495.2c-6.3-15.9-11.7-31.1-16.2-45.6l-10.6,4.3c1,2.8,1.5,5.9,1.3,8.9c-0.1,2.6-0.7,5.1-2,7.3
			c-1.2,1.9-1.7,1.7-2.6,3.1c-2.1,3.5,0,6.8-0.3,12.2c-0.1,2.6-0.7,4.1-2.3,8.5c-2.1,5.8-4.5,12.6-7.2,20.5
			c4.4,0.1,8.8,0.4,13.2,1.1c2-8,3.6-16.1,4.7-24.3c0.9-6.7,1.4-12.8,3.4-13.1c2.1-0.3,4.6,6.1,5.5,8c4.4,10.5,12.3,25.1,27.5,42.5
			C405.4,518.1,400.6,507,395.9,495.2z"/>
		<path class="st8" d="M252.3,626.2c-7.3-3.3-13.3-6.2-17.8-8.4c-9.3-4.4-12.2-6-13.9-6.9c-6.1-3.2-4.3-2.6-13.7-7.9
			c-5.1-2.8-9.9-6.1-15-9.1c-0.1,0-0.6-0.4-1.5-1.1c-0.5-0.4-1-0.9-1.4-1.4c-0.6-0.8-2.7-2.8-8.4-7.4c20-5.6,40-11.3,59.9-16.9
			c-0.6,0.3-1.2,0.7-1.6,1.2c-1.8,2.1-1.3,5.1-0.9,7c0.4,2.4,1.1,6.1,4.3,8.2c1.4,0.9,3,1.4,4.7,1.5c-1.7,1.5-2.9,3.4-3.4,5.5
			c-0.9,3.6,0,8.4,3.6,11c2.1,1.4,4.7,2,7.2,1.6c3,3.9,5.4,7.2,7.2,9.9c3.4,5.1,1.3,2.7,4.7,8.2c1.3,2,1.6,2.6,1.4,3.3
			C267.4,626,264.2,627.2,252.3,626.2z"/>
		<path class="st7" d="M303.4,144.4c0.4-1.2,3.2-9.1,11.4-12.3c3.8-1.5,8-1.7,11.9-0.6c5.6,1.7,8.6,5.8,12.4,11.2
			c3.4,4.7,6,10,7.7,15.5c-4,0.7-8.1,1.3-12.1,2C326.6,151.2,315.4,145.6,303.4,144.4L303.4,144.4z"/>
		<path class="st8" d="M294.9,377.6c-8.4-6.9-18.2-11.8-28.8-14.3c3.4,2.8,6.7,5.6,10.1,8.4c-4,0.1-7.9,1-11.5,2.7
			c7.2,4.6,14.3,9.1,21.5,13.7c-2.1-0.2-4.3-0.4-6.4-0.6c-2.7,0-8.3,0.2-9.9,0.9c-0.2,0.1-1.1,0.5-1,0.8c0,0.1,0.1,0.1,0.4,0.2
			c0.6,0.2,0.9,0.3,1,0.3c0.2,0,2.7,0.7,7.6,2.1c0,0,2,0.6,12,6.2l24.8-2.7c2.1-3.7,4.7-7.2,7.6-10.4c1.2-1.3,2.3-2.4,3.5-3.5
			c-1.1-0.1-2.3-0.1-3.4,0c-2.4,0.3-4.7,1.2-6.7,2.6c2.9-3.5,6.3-6.4,10.1-8.9c-2.3,0.5-4.5,1.5-6.5,2.7c0.9-1.1,1.9-2.2,3-3.2
			c2.6-2.5,5.5-4.6,8.6-6.3c-6.8-0.2-13.3,3-17.3,8.6c0.3-2.8,1.7-5.5,3.8-7.4c-6.2,1.1-12,3.6-17,7.4
			C298.6,377.1,296.8,377.3,294.9,377.6z"/>
		<g class="st9">
			<path class="st7" d="M228.3,486.5c-1.2-0.4-7.1-2.4-8.9-7.8c-0.7-1.7-0.8-3.6-0.1-5.3c1.1-2.2,3.9-3.5,7-3.4
				c14-1,25.3-1.1,33.3-1c14.2,0.2,25,1.1,35-5.8c1.7-1.2,3.4-2.6,4.8-4.1c1.5,1.3,3.2,2.4,5,3.3c5.8,2.9,11.3,2.7,15.2,2.5
				c25.4-1.4,29.4-1.5,37.4-1.8c1.7-0.1,4.7-0.1,6,1.7c2,2.8-1.2,8.2-2,9.5c6.9-2.5,10.5-10.2,7.9-17.1c-0.3-0.8-0.7-1.6-1.2-2.4
				c-10.1,0.8-18.5,1.1-24.8,1.3c-9.7,0.2-4.4-0.2-18.9-0.1c-8.8,0.1-12.8,0.2-17.7-2c-3.2-1.5-6.1-3.7-8.4-6.4
				c-2.7,2.8-5.7,5.2-9.1,7.1c-5.4,2.9-11.4,4.5-17.6,4.7c-12.1,0.8-32,2.2-57.3,3.5c-2.3,2.9-3.6,6.5-3.5,10.2
				c0.2,6,4.3,12.1,10.2,13.7C223.3,487.4,225.9,487.3,228.3,486.5z"/>
			<path class="st7" d="M357.5,486.6c0.8,0.9,1.3,2.2,1.3,3.4c-0.2,3.8-6.1,6.2-7.1,6.5c2.8,0.5,5.7,0,8.1-1.6
				c1.4-1,2.6-2.2,3.5-3.8c1-3,1.3-6.1,0.8-9.2c-0.3-2.1-1-4.1-2-6c-9.8-0.2-19.5,0.2-29.2,1.1c-9.1,0.9-17.6,2.3-27.4-1.9
				c-1.8-0.8-3.6-1.7-5.3-2.8c-1.6,2-3.6,3.8-5.8,5.2c-4.2,2.6-8.9,4.2-13.9,4.4c-9.1,0.8-30.7,3.5-59.9,6.8
				c-1.4,2.4-2.1,5.1-2.1,7.9c0,2,0.4,4,1.2,5.9c0.7,2.7,2.2,5.1,4.2,6.9c4.7,4.2,12.3,4.7,19.3,1.4c-7.8,0.4-13.1-4.2-13.2-8.4
				c-0.1-3.5,3.6-6.2,4.2-6.7c31.9-2.3,55.1-5.1,59.1-6.7c1.8-0.7,3.4-1.8,4.8-3.2c1.1-1.3,2-2.8,2.5-4.5c0.6,1.5,1.5,2.8,2.7,3.9
				c1.3,1.1,2.8,2,4.5,2.6C315.9,490.6,351,479,357.5,486.6z"/>
			<path class="st7" d="M359.7,502.4c1.2-2.1,2.1-4.4,2.4-6.8c-18.4,1.8-32.3,3.3-42.3,5.2c-3.4,0.6-10.5,2-15.3-2
				c-1.6-1.4-2.8-3.2-3.5-5.3c-0.6,2-1.6,3.9-2.9,5.6c-4.1,5.1-10.4,6.3-15.2,7.1c-33.7,5.7-40,6.1-45.8,6.4
				c-4.2,0.2-7.7,0.4-9.9,0.4c-0.9,3.1-0.2,6.4,1.9,8.9c11.2-0.3,22.4-1.7,33.4-4.2c5.1-1.1,10.1-2.6,15-4.3
				c7.4-2.6,7.6-3.5,12.4-4.9c5.9-1.6,8.5-1.1,18.3-2c7.1-0.6,9.9-1.2,15.7-2C335.8,503.1,347.7,502.4,359.7,502.4z"/>
			<path class="st7" d="M258.4,584c-0.6,0-1.3,0-1.9-0.1c-1.5-0.2-3.5-0.5-4.4-2c-0.8-1.4-0.6-3.2,0.4-4.5c0.9-0.7,2-1.1,3.1-1
				c3.8,0.1,5.7,0.1,25,0.6c9.4,0.2,21-1.5,25-3.8c1.5-0.8,3.1-1.4,4.7-1.6c1.5-0.2,3-0.1,4.4,0.2c2.6,0.6,10.7-0.5,30.8-5.8
				c0.1,0.6,0.1,1.3,0,1.9c-0.6,2.8-3.5,4.1-3.9,4.2c8.5-1.4,10.9-3.7,11.4-5.7c0.4-1.7-0.5-3,0.4-5.9c0.7-2.2,1.7-2.8,2.6-4.7
				c1.1-2.5,1.4-5.4,0.8-8c-2.4-0.7-5.6-1.2-7,0.3c-2,2.3,1.8,6.9,0,10.4c-1.4,2.6-5,3-10.9,3.8c-6.8,0.9-13.5,2.2-20.3,3.2
				c-12.1,1.9-11.1,3.1-20.9,4.3c-9.8,1.2-14.7,2-20,0.2c-6.1-2.1-9.4-5.7-16.6-5.7c-2.1,0-4.4,0.5-9,1.5c-6,1.3-10.9,2.7-14.2,3.7
				c-0.7,6.2,1.1,11.9,5,14.3c2.7,1.6,6.2,1.5,8.2,1.5C253.5,585.4,256,584.9,258.4,584z"/>
			<path class="st7" d="M257,600.9c-2.2-0.2-4.1-1.6-4.8-3.6c-0.4-1.1-0.2-2.3,0.4-3.3c1.1-1.4,3.7-1.2,4.4-1.1
				c8.2,0.6,36.9-2,55.3-7.7c1.3-0.4,3.6-1.1,6.4-2.3c0.1-1.1-0.2-2.2-0.8-3.1c-1-1.2-2.3-1.2-4.3-2.2c-1.4-0.7-2.6-1.6-3.7-2.7
				c-2,3.3-4.8,6-8.3,7.8c-3.9,1.9-7.1,1.7-15.7,1.9c-4.9,0.1-9.7,0.5-14.6,0.6c-5.8,0.2-14.1,0.6-24.4,1.7c-1.7,1.7-2.6,4-2.7,6.3
				c-0.1,4,2.4,7.6,6.2,8.8C252.5,602.5,255,602.1,257,600.9z"/>
		</g>
	</g>
	<path class="st10" d="M194.5,240.1c-16.7,23.8-30.1,49.8-39.7,77.3"/>
	<path class="st10" d="M232.2,285.5c2.9,27.1,14.9,52.3,33.9,71.8"/>
	<path class="st10" d="M362.8,280c-3.5,25.5-13.1,49.9-28,70.9"/>
	<path class="st10" d="M395.4,412.7c6.1-10.4,9.8-22,10.9-34c0.9-9.2,0.1-18.5-2.3-27.5c-4-14-12-26.6-22.9-36.3l-10-37"/>
	<path class="st10" d="M116.6,459.8c-4.2-5.1-7.9-10.6-11-16.5c-4.2-7.5-7.2-15.6-8.9-24c-1.5-8.1-1.8-16.4-0.9-24.6
		c1.3-11.7,5-23.1,10.7-33.5c8-14.5,17.8-23,24-28.3c8.3-7,17.5-12.9,27.3-17.4"/>
	<path class="st10" d="M154.8,468.2c8.7-10.2,17.9-19.9,27.7-29.1c6.7-6.3,11.5-10.4,16.3-18.2c4.3-7.3,7.2-15.3,8.6-23.6
		c2.4-12.8,1.4-25.9-2.8-38.2c-2-5.5-4.7-10.8-8-15.6"/>
	<path class="st10" d="M348.4,547.9c1.5,2.7,2.1,5.9,1.7,8.9c-0.2,1.4-0.5,2.7-1.1,3.9c-15.4,1.8-30.6,4.5-45.7,7.9
		c-6.4,1.5-15,3.7-25.8,1.4c-5.7-1.3-11-3.5-15.9-6.7c-11,2.3-27.6,5.9-47.9,11.3c-22.3,5.9-30.4,8.9-47.8,11.7
		c0,0-33.8,5.5-54.4-3.8c-4.7-2.1-8.7-5.3-11.7-9.4c-0.8-1.2-1.5-2.6-2-3.9c0,0,0.7-43.2-2.5-60.9c-0.9-5.1-2.1-10.3-2.1-10.3
		c-1.3-6.1-2.3-9.4-2.7-11.2c-1.7-7.2-0.2-13.6,2.7-26c2.1-8.9,4.8-17.6,8.1-26.2"/>
	<path class="st10" d="M120.2,482.2c0,5.5-0.1,11-0.1,16.5c-1.7,2.4-3.3,5-4.6,7.7c-3.2,6.7-5.1,13.9-5.6,21.3"/>
	<path class="st10" d="M317.6,548.6c7.9,0,16-0.3,24.4-0.6c4.8-0.2,9.5-0.5,14.2-0.9c1.2-1.6,1.9-3.5,2.1-5.5
		c0.3-3.2-0.8-6.5-2.9-8.9"/>
	<path class="st10" d="M319,530.7l49.2,2c2.6-2.4,4.1-5.7,4.1-9.2c0-3-1-5.8-2.9-8.1c-8.8-0.6-16.3-1.3-22.1-2
		c-8.7-0.9-13.1-1.4-17.8-2.3c-3.6-0.6-9.8-1.8-20.2-3.6c-2.7-0.6-5.4-0.9-8.2-1c-4.4,0-8.8,0.6-13,2c-2.2,0.8-4.6,1.8-9.2,4
		c-1.8,0.8-3.1,1.5-3.4,1.6c-3.4,1.6-10.9,5-27.5,12.1"/>
	<path class="st10" d="M124.2,532.6c14.1-6.1,29.1-10,44.4-11.6c22.8-2.2,34.1,2.3,60.1,1.3c14.5-0.6,28.8-2.7,42.9-6.2"/>
	<path class="st10" d="M178.5,442.4c7.9,26.1,5.2,54.2-7.4,78.4"/>
	<path class="st10" d="M360.5,507.9c1.7-1.8,3-4,3.8-6.3c-3.7,0.5-9.3,1.1-16.2,1.5c-6.7,0.4-11.2,0.3-14.4,0.3
		c-9.7,0.1-19.3,1.2-28.8,3.2c13.6,2.2,27.2,4.5,40.8,6.7C347.2,513.3,355,513.6,360.5,507.9z"/>
	<path class="st10" d="M305,374c2.9-5.5,6.9-10.4,11.8-14.2c10.3-8,21.2-8.9,29.4-9.6c10.5-0.8,25.5-2,35.9,7.7
		c4.3,4,5.9,8.1,8.7,15c5.5,14,6.8,29.3,3.7,44c-1.5,7.2-4.1,14.1-7.6,20.5c-3.4,6.2-6.2,11.2-11.7,14.6c-1.5,0.9-4.1,2.1-17.7,3.1
		c-9.7,0.8-16.7,0.9-16.7,0.9c-8,0.1-18.8,0.1-31.8-0.3c-4.4-1.6-7.7-5.4-8.6-10"/>
	<path class="st10" d="M294.7,446c0,2.7-0.9,5.2-2.6,7.3c-1.3,1.4-2.9,2.4-4.7,2.9c-12.5,3.9-39.6,4.9-39.6,4.9
		c-11.2,0.4-9.1,0.9-17.2,1c-10.1,0.1-20.3-0.5-30.3-2c-3.6-1.1-6.8-3.3-9.2-6.2c-6.6-7.9-4.1-18.1-3.8-19.3"/>
	<path class="st10" d="M290,374.7c-2.2-4-5.1-7.6-8.6-10.5c-3.1-2.6-10.5-7.8-28.3-8.8c-16.1-0.8-32.2,1.9-47.2,7.9"/>
	<path class="st10" d="M213.6,461.8c-2.6,3.4-3.9,7.6-3.6,11.8c0.4,4.1,2.2,8,5.2,10.9c5.3,5,12.2,3.3,30.2,1.9c0,0,35.6-2.8,47-7.6
		c2.2-0.9,4.1-2.2,5.7-4c1-1.3,1.9-2.7,2.4-4.3c0.5,1.6,1.4,3,2.6,4.1c1.1,0.9,2.4,1.5,3.7,1.8c2.9,0.8,6,1.2,9,1.2
		c16.7-0.9,25.1-1.4,27.7-1.6c16.5-1.3,21.3,0,24.4-4.2c2.8-3.7,2.5-9.6,2.5-9.9c-0.2-2.8-1-5.4-2.4-7.8"/>
	<path class="st10" d="M221.2,487.6c-2.3,3.5-3.4,7.7-3,11.9c0.4,4.1,2.2,7.9,5.1,10.7c5,4.9,11.3,3,27.8,1.1c0,0,32.7-3.7,43-8.8
		c2-0.9,3.8-2.4,5.1-4.2c0.9-1.3,1.6-2.8,2.1-4.3c0.5,1.6,1.3,3,2.5,4c1,0.8,2.2,1.4,3.5,1.7c2.7,0.7,5.5,1.1,8.3,0.9
		c15.3-1.4,23-2.1,25.4-2.3c15.1-1.7,19.6-0.6,22.3-4.8c2.3-3.6,2.2-7.6,2-10c-0.2-2.8-1-5.6-2.3-8.1"/>
	<path class="st0" d="M299.3,511.8c-2.7,1.2-4.5,3.7-4.7,6.6c-0.1,3.7,2.3,7.1,5.8,8.1c-4.1,0.1-7.5-3.1-7.6-7.2
		C292.8,515.5,295.5,512.3,299.3,511.8L299.3,511.8z"/>
	<path class="st0" d="M296,534c-0.9,0.9-1.5,2-1.6,3.3c-0.3,2.5,1.1,5.8,3.7,6.4c1.6,0.3,3.3-0.2,4.4-1.4c1-1.4,1.3-3.2,0.8-4.8
		c1.1,1.2,1.7,2.7,1.6,4.4c-0.4,3-3.7,5-6.7,4.8c-2.2-0.3-4.1-1.5-5.2-3.4c-1.7-3.2-0.6-7.2,2.6-9C295.8,534.1,295.9,534.1,296,534
		L296,534z"/>
	<path class="st0" d="M296.1,552.7c-1.6,1.7-2,4.2-0.8,6.2c1.1,2.1,3.7,2.9,5.8,1.7c1.3-0.7,2.1-2,2.2-3.4c0.2,0.4,1,2.9-0.2,4.7
		c-1.6,2.4-5.4,2.3-7.8,0.9c-1.6-0.8-2.7-2.3-3-4C292,556.3,293.6,553.8,296.1,552.7z"/>
	<path class="st10" d="M234.2,297.5c6.1,1.4,12.6,2.6,19.5,3.6c14.1,2.1,28.3,3,42.5,2.9c2.4,1.5,4.8,3.1,7.2,4.6l7.1-5.6
		c6.3-0.8,12.8-1.9,19.6-3.1c10.7-2,20.7-4.3,30-6.9"/>
	<path class="st10" d="M241.9,319.4c5.4,1.4,11.2,2.6,17.3,3.6c12.5,2.1,25.1,3,37.8,2.9l6.4,4.6l6.3-5.6c5.6-0.8,11.4-1.9,17.4-3.1
		c9.5-2,18.4-4.3,26.7-6.9"/>
	<path class="st10" d="M252.2,339.9c4.5,1.4,9.2,2.6,14.3,3.6c10.3,2.1,20.7,3,31.1,2.9l5.3,4.6l5.2-5.6c4.6-0.8,9.4-1.9,14.4-3.1
		c7.5-1.9,14.8-4.2,22-6.9"/>
	<path class="st11" d="M492.8,567.6"/>
	<path class="st12" d="M475.6,546"/>
	<path class="st12" d="M472.8,534"/>
	<path class="st12" d="M468.1,541.2"/>
	<path class="st12" d="M482.8,540.7"/>
	<path class="st12" d="M488.4,534.1"/>
	<path class="st12" d="M480,528.7"/>
	<path class="st12" d="M475.3,535.9"/>
	<path class="st12" d="M490.6,535.1"/>
	<path class="st12" d="M483.2,530.3"/>
	<path class="st12" d="M499.1,529.8"/>
	<path class="st12" d="M512.8,517.9"/>
	<path class="st10" d="M379.8,448.3c6.2,17.2,10.7,31.1,13.6,40.2c0.6,1.9,12.4,38.7,24,45.4c3.8,2.2,8.3,4.1,8.3,4.1
		c2.9,1.3,6,2.4,9,3.4"/>
	<path class="st10" d="M443.5,563"/>
	<path class="st10" d="M418.9,573.1"/>
	<path class="st10" d="M458.9,546.4c0.8,1.4,3.7,6.2,4.4,8.4c0.8,2.9,1.1,5.9,0.9,8.9c-0.7,1.6-1.6,3-2.7,4.3c-2.9,3.1-6.8,5-11,5.4
		"/>
	<path class="st10" d="M419,572.9"/>
	<path class="st10" d="M409,577"/>
	<path class="st10" d="M433.1,585.6"/>
	<path class="st10" d="M452.4,573.6"/>
	<path class="st10" d="M396.8,583.6"/>
	<path class="st10" d="M430.1,585.5c-2.1,1.3-4.3,2.7-6.9,4c-3.9,2-7.9,3.7-12.1,5.1c-10.4-0.7-20.8-1.5-31.2-2.2"/>
	<path class="st10" d="M379.8,561.7"/>
	<path class="st10" d="M379.8,589.1c0.6-9.4,0.6-9.4,1.3-18.7"/>
	<line class="st12" x1="386.6" y1="505" x2="394.3" y2="534"/>
	<line class="st12" x1="392.4" y1="543.7" x2="372.4" y2="528.5"/>
	<path class="st10" d="M422.9,552.5c2.1,2.1,4.8,3.6,7.6,4.4c3,0.8,4,0.9,5.5,0.8c6.5-2.9,14.6-6.1,21.1-9c1.3-2.8,2.1-5.7,2.4-8.8
		c0.1-1.7,0.1-3.4-0.1-5c-1.9,1.2-3.9,2.2-6,3.1c-6.1,2.6-12.8,3.7-19.4,3.4"/>
	<path class="st12" d="M388.5,554c5.3,4.8,12,7.9,19.1,8.9c8.5,1,17-1,24.1-5.7"/>
	<path class="st12" d="M397.3,563.3c0.7,4.9,0.1,9.9-1.9,14.4"/>
	<path class="st10" d="M276.1,285.3c-2.6,0.9-32.2,11.3-57.8-7.2c-3-2.2-21.1-15.7-24-40.3c-0.4-3.6-3.3-31.1,17.7-48.9
		c14.2-12,30.6-12.4,35.5-12.3"/>
	<path class="st10" d="M328,183.5c-3.8-3.2-9.6-7.9-17-13.3c-7.9-5.8-7.9-5.1-12.7-8.8c-12.4-9.6-13.2-14.3-22.3-19.3
		c-3.6-2-8.6-4.7-15.1-4.9c-17.4-0.7-30.3,17.1-35.2,23.7c-5.8,8-10,17.2-12.2,26.8"/>
	<path class="st10" d="M220.3,215.8c9,1.1,18.2,0,26.8-3.1c5.2-2,10.2-4.7,14.6-8.2"/>
	<path class="st10" d="M274.8,191.2c11.7-1.7,23.7-1,35.2,1.9"/>
	<path class="st3" d="M250.2,162.8c1.3-1,2.6-1.9,4.1-2.6c2.8-1.2,5.8-1.9,8.9-1.9c9.1-0.1,25.5,7.5,34.9,23.1
		c0.8,1.3,1.4,2.4,1.7,3.1c-13.6-4.1-28-5.3-42.2-3.3c-1.2-2.5-1.9-5.2-1.9-7.9c0-7,4.5-11.7,3-13.1c-1.1-1-4.3,0.4-5.5,1
		C252.1,161.5,251.1,162.1,250.2,162.8z"/>
	<path class="st13" d="M270.5,159.9c-1.3,1.5-2.1,3.4-2.3,5.4c-0.5,5,3,8.4,3.5,8.8c-0.2-2.9,0.7-5.9,2.4-8.2c0.9-1.2,2-2.1,3.3-2.9
		L270.5,159.9z"/>
	<path class="st10" d="M304.2,144.3c0.6-1.1,5.9-11.6,15.6-13.1c2.9-0.5,5.8-0.2,8.5,0.9c2.4,1.1,4.6,2.7,6.2,4.8
		c6.2,7.2,11.1,17.8,12.7,21.4"/>
	<path class="st14" d="M251.8,210.8c-7.1,4.3-15.3,6.3-23.6,5.6c5.5,8.3,12.4,15.6,20.4,21.6c20,14.8,41.2,16.8,50.3,17
		c-13.8-4.6-26-13-35.3-24.1C258.7,224.9,254.7,218.1,251.8,210.8z"/>
	<path class="st10" d="M449.5,199.3c4.7-0.6,9.5-0.8,14.2-0.3c6.1,0.5,8.6,1.7,9.3,2c3.4,1.7,5.4,3.9,7.8,6.7
		c4.3,4.9,7.5,8.6,7.4,13.6c-0.2,3.5-1.6,6.9-4,9.4c-2.5,2.6-6.4,4.4-23.7,4.1c-14.7-0.2-18.1-1.6-28-0.6c-3.7,0.4-5.8,0.8-14.3,2.7
		c-38.2,8.4-39.1,8.9-43.7,8.8c-15.6-0.1-16.1-5.5-27.9-3.1c-9.5,1.9-13.1,6.1-24.9,9.4c-7.4,2.1-15.1,3.1-22.7,2.9
		c-13.1-5.1-24.8-13.3-34.1-23.9c-5.3-6.1-9.6-12.9-13-20.3c-7.3,3.8-15.4,5.7-23.6,5.6c6.2,9.7,14.3,18.1,23.9,24.6
		c13.7,9.1,29.8,14.1,46.4,14.3"/>
	<path class="st10" d="M283.8,147.8c7.5-2.7,15.6-3.5,23.5-2.3c10.5,1.7,20.1,6.8,27.5,14.4"/>
	<path class="st10" d="M325.8,164.6c6.2-4.1,13.6-6.1,21-5.7c15.2,0.8,24.3,11.6,25.8,13.4"/>
	<path class="st10" d="M362.8,175.8c15-6.3,32.1-5.4,46.4,2.5"/>
	<path class="st10" d="M401.4,183.1c21.2-11.7,47.9-4.8,60.7,15.8"/>
	<path class="st10" d="M376.7,259.5c4.4,1.9,28.5,11.7,54.5,0.4c12-5.3,22.2-14,29.3-25"/>
	<path class="st10" d="M310,274.5c9.2,3.7,27.6,9.6,48.1,6.4c8.2-1.4,16.2-3.7,23.8-6.9c6-2.4,11.7-5.4,17.2-8.8"/>
	<path class="st10" d="M462,198.3c-0.6-2.7-0.1-5.5,1.5-7.7c1.3-1.7,3.3-3.1,5-3.2c4.4-0.2,9.3,8,12.3,20.3"/>
	<path class="st10" d="M438.1,205.5c-2.8-3.2-6.2-5.8-10.1-7.6c-6.2-2.9-16.9-5-20.1-0.4c-2.2,3.2,0.1,8.6,0.4,9.3
		c1,2.3,2.7,4.3,4.7,5.8"/>
	<path class="st15" d="M284.1,252.9l-9.2-4.9c-0.5-1.2-1-2.4-1.5-3.6h-5.7c-0.3-1.5-0.7-3-1-4.4c-1.8-0.1-3.5-0.2-5.3-0.4l-0.5-4.5
		c-1.7-0.2-3.4-0.5-5.2-0.7c0.1-1.5,0.2-2.9,0.3-4.4c-2.3-0.1-4.6-0.1-6.9-0.2c0.1-1.5,0.3-3,0.4-4.5c-2-0.5-4-1-6-1.5
		c1-1.8,2-3.7,3-5.5"/>
	<path class="st0" d="M434.4,211.4c-2-3.1-4.8-5.7-8-7.5c-4.3-2.4-10.9-4.2-12.3-2.2c-0.9,1.3,0.2,4.1,2.1,5.5c2,1.6,4.3,0.9,7.5,1
		C427.4,208.3,431.1,209.5,434.4,211.4z"/>
	<path class="st16" d="M300,254.2c-0.9-4.6-0.9-9.4-0.2-14.1c0.2-1.4,0.5-2.7,0.9-4.1c2.7,6.4,6.2,12.4,10.4,17.8
		C307.4,254.5,303.7,254.6,300,254.2L300,254.2z"/>
	<path class="st16" d="M429.4,233.8l-6.2-10.7c-1.4,3.9-1.6,8.1-0.5,12.1C424.9,234.8,427.2,234.3,429.4,233.8z"/>
	<path class="st16" d="M353.7,241.2c-1-4.7-0.2-9.7,2.3-13.8c0.6,2.8,1.5,5.4,2.6,8c0.4,0.8,0.6,1.5,1.1,2.4
		c0.8,1.7,1.7,3.3,2.7,4.9c0.1,0.1,0.4,0.5,0.3,0.6c-0.1,0.1-0.4,0-0.5,0c-1.2-0.4-2.4-0.5-3.6-0.8c-0.3-0.1,0,0-0.7-0.2
		C356.9,242,355.5,241.6,353.7,241.2z"/>
	<path class="st16" d="M480.8,233.8c0.5,2.7,1,5.3,1.5,8c2.5-3.3,3.7-7.4,3.6-11.5c-0.9,0.8-1.9,1.5-2.8,2.1
		C482.3,232.9,481.5,233.4,480.8,233.8z"/>
	<path class="st16" d="M440.9,234.6c0.2,1.2,0.5,2.4,0.9,3.5c0.8,2.2,1.9,4.3,3.4,6.2c0.7-3.1,1.4-6.2,2-9.3
		C445.1,234.9,443,234.7,440.9,234.6z"/>
	<path class="st15" d="M477.9,235.2c-0.7,2.2-1.4,4.5-2.1,6.7c-0.7-2.1-1.4-4.1-2.1-6.2L477.9,235.2z"/>
	<path class="st15" d="M470.9,235.8l-2.3,7c-0.7-2.3-1.4-4.6-2.2-6.8L470.9,235.8z"/>
	<path class="st15" d="M463.6,236c-0.8,2.3-1.6,4.5-2.5,6.8c-0.7-2.3-1.4-4.5-2.1-6.8H463.6z"/>
	<path class="st15" d="M456,235.9c-0.9,2.5-1.8,4.9-2.6,7.4c-0.8-2.5-1.5-5-2.3-7.6C452.7,235.8,454.3,235.8,456,235.9z"/>
	<path class="st16" d="M351.1,241.3c-1.4-2.6-2.9-5.2-4.3-7.8c-0.9,1.7-1.5,3.6-1.6,5.5c-0.1,1-0.1,2.1,0.1,3.1
		C347.1,241.8,349.1,241.6,351.1,241.3z"/>
	<path class="st16" d="M344.9,242.3c-1.8-2.4-3.7-4.7-5.5-7.1c-0.6,1.8-0.9,3.8-0.8,5.7c0.1,1.1,0.3,2.1,0.6,3.1
		C341.1,243.4,343,242.8,344.9,242.3z"/>
	<path class="st10" d="M247.2,586.3c-1.6,0.9-2.9,2.4-3.5,4.1c-0.7,2.4,0.1,4.5,1.2,7c0.9,2.2,1.3,3.3,2.5,4
		c1.2,0.7,2.6,0.6,4.6,0.4c0.9-0.1,1.9-0.2,2.8-0.4"/>
	<path class="st12" d="M226.8,513.7c-0.4,2.8,0.2,5.6,1.6,8.1"/>
	<path class="st17" d="M220.1,167.5c-14.1,3.5-21.4,10.5-24.7,14.4c-1.7,2-6.6,7.8-5.2,10.7c1.8,3.6,12.7,0.2,18-1.6
		c1.6-2.1,3-4.4,4.2-6.7c1.2-2.3,1.9-3.8,3.3-7C216.7,175,218.2,171.6,220.1,167.5z"/>
	<path class="st12" d="M362,495.9c-0.1,1.9-0.8,3.8-1.8,5.4"/>
	<path class="st10" d="M349.7,559.5c0.7,0,3.7,0.1,5.6-1.9c1.7-1.9,1.5-4.6,1.4-6.8c-0.1-1-0.2-1.9-0.5-2.9"/>
	<path class="st10" d="M352.8,560.1c0.4,3.1,0.3,6.3-0.1,9.4"/>
	<path class="st12" d="M144.8,568.6c25.5-0.9,50.7-5.1,75-12.7"/>
	<path class="st17" d="M192.8,230.6c-9.8,3-18.5,8.8-25,16.7c-2.8,3.5-7.3,9.1-6,11.7c2.1,4.1,18.1-0.5,20.4-1.2
		c1.8-2.8,3.3-5.1,4.3-6.7c3.4-5.1,4.1-5.8,4.8-7.9c0.6-2.4,1-4.8,1.1-7.3C192.7,233.8,192.8,231.9,192.8,230.6z"/>
	<path class="st17" d="M160.2,302.2c2.2-5.6,4.4-11.1,6.7-16.4c-14.9,3.4-23.2,10.5-27.2,14.7c-2.3,2.4-6.8,7.2-6.2,10.1
		c3.6,0.6,7.2,1.3,10.8,2c4.3-0.7,8.7-1.6,12.9-2.8C158.2,307.2,159.2,304.7,160.2,302.2z"/>
	<path class="st17" d="M133.7,311c1.1,2,5.3,2.2,10.6,1.4c-3.6-0.7-7.2-1.3-10.8-2C133.6,310.7,133.6,310.9,133.7,311z"/>
	<path class="st10" d="M171.1,355.2c0.4,10.2-0.6,20.5-3,30.4c-3.4,14.2-9.5,27.6-18,39.5"/>
	<path class="st10" d="M148.8,336.7c-19.2,23.2-28.6,52.9-26.2,82.8"/>
	<path class="st12" d="M309.3,391.8c2.8-2.2,6-3.9,9.3-5"/>
	<path class="st12" d="M271.5,388.9c2.1,0.2,4.4,0.5,6.9,1c2.8,0.5,5.4,1.2,7.7,1.9"/>
	<path class="st12" d="M269.1,375.1c7,3,13.3,7.3,18.7,12.6"/>
	<path class="st12" d="M327.3,369.5c-4.8,2.7-9,6.2-12.6,10.3c-2.1,2.4-3.9,5.1-5.5,7.8"/>
	<path class="st10" d="M236.9,569.3c-0.1,2.4,0.1,4.7,0.7,7c0.6,2.1,1.6,5.7,4.3,7.9c2.4,1.9,5.1,1.9,10.2,1.7
		c9.4-0.3,16.9-0.9,19.9-1.1c6.3-0.4,5-0.1,15.7-0.6c11.9-0.6,15.7-1.3,18.7-4.2c1.9-2,3.2-4.5,3.6-7.2c0.7,2.1,2.1,3.8,3.9,5
		c3.3,2,7.5,1.2,13.6,0c1.8-0.4,3.3-0.7,4.2-1"/>
	<path class="st18" d="M251.9,601.9c22-5,43.6-11.5,64.8-19.5c7.4-2.8,24.8-9.7,49.9-18.1c5.9-2,9.6-3.3,12.8-4.3"/>
	<path class="st12" d="M165.1,541.2c16.3-0.8,32.6-1.5,48.9-2.3"/>
	<line class="st12" x1="264.8" y1="536.1" x2="281.3" y2="526.5"/>
	<line class="st12" x1="256.9" y1="544" x2="282.6" y2="552.7"/>
	<path class="st10" d="M257.5,627.9c-10-4.3-20.6-9.2-31.5-14.8c-16.3-8.5-32.1-18-47.2-28.4"/>
	<g id="b285f24b-bd7b-4998-8e80-0cc506a7777b">
		<path class="st19" d="M441.9,169.5c-2.5-0.3-5,0.2-7.1,1.6c-2,1.3-3.6,3.3-4.3,5.7c6.7,1.1,13,3.7,18.6,7.4
			c0.4-0.8,0.7-1.8,0.8-2.7C450.9,175.8,447.3,170.4,441.9,169.5z"/>
		<path class="st12" d="M449,184.2c0.4-0.8,0.6-1.7,0.8-2.6c1-5.7-2.6-11.1-8-12c-5.1-0.7-10,2.5-11.3,7.5
			C437,178,443.4,180.4,449,184.2L449,184.2z"/>
		<path class="st19" d="M409.6,195c1.5-0.6,3-0.9,4.6-1c1.1,0,2.2,0.1,3.3,0.3c0.6-1.1,1-2.3,1.2-3.6c0.9-6.4-3.5-12.4-9.9-13.3
			c-6.4-0.9-12.4,3.5-13.3,9.9c-0.9,6.3,3.4,12.2,9.7,13.3c0.2,0,0.3,0,0.5,0.1c0.1-0.7,0.3-1.4,0.6-2
			C407,197.1,408.1,195.8,409.6,195z"/>
		<path class="st11" d="M417.8,193.7c-2.1,4.7-6.9,7.5-12.1,7c0,1,0.1,1.9,0.4,2.9l18.4-0.3c0.1-2.6,0.3-5.2,0.4-7.8
			C422.6,194.6,420.2,194,417.8,193.7z"/>
		<path class="st12" d="M408.4,195.5c0.9-0.6,1.9-1.1,2.9-1.4c1.2-0.3,2.5-0.5,3.8-0.5c0.8,0,1.7,0,2.5,0.1c0,0,0.1,0,0.1,0
			c0.4-0.9,0.7-1.9,0.9-3c0.9-6.4-3.5-12.4-9.9-13.3c-6.4-0.9-12.4,3.5-13.3,9.9c-0.9,6.3,3.4,12.2,9.7,13.3c0.2,0,0.4,0,0.6,0.1
			C405.8,198.6,406.8,196.7,408.4,195.5z"/>
		<path class="st11" d="M417.8,193.7C417.7,193.7,417.7,193.7,417.8,193.7c-0.9-0.1-1.7-0.1-2.6-0.1c-1.3,0-2.6,0.1-3.8,0.5
			c-1,0.3-2,0.8-2.9,1.4c-1.7,1.2-2.7,3.2-2.7,5.2C410.8,201.3,415.7,198.4,417.8,193.7z"/>
		<path class="st12" d="M433.2,172c-7-3.5-15.5-0.7-19,6.3c-0.1,0.3-0.3,0.6-0.4,0.9"/>
	</g>
	<path class="st0" d="M186.7,520.7c2.2-20.4,1-41-3.7-60.9c2.3,21-1.4,42.1-10.8,61c2.9-0.3,5.8-0.4,8.7-0.4
		C182.9,520.4,184.9,520.5,186.7,520.7z"/>
	<path class="st10" d="M251.9,602.4c-0.9,1.5-1.4,3.1-1.6,4.8c-0.3,2.6,0.4,5.2,2.1,7.2c1.6,1.6,3.8,2.5,6.1,2.5
		c-0.3,0.2-3,2.3-2.8,5.2c0.2,3.1,3.6,6.2,8.2,6"/>
</g>
<g id="f229fa30-1ed6-4d36-85b7-bf40708a5ffe">
	<g id="b4c406b4-b099-4713-bf35-d8838fda6508">
		
			<ellipse transform="matrix(0.9895 -0.1447 0.1447 0.9895 -53.7158 38.6219)" class="st20" cx="238.6" cy="388.5" rx="16.8" ry="9.9"/>
		<path class="st21" d="M233.7,379.5c-6.7,1.9-11.6,6.1-11.7,10.5c-0.1,5.5,7.3,9.3,16.5,8.5c2.6-0.2,5.1-0.8,7.6-1.8
			C230.2,397.4,226.4,383.6,233.7,379.5z"/>
		
			<ellipse transform="matrix(0.9895 -0.1447 0.1447 0.9895 -49.7066 36.1745)" class="st22" cx="223.8" cy="359.7" rx="16.8" ry="9.9"/>
		<path class="st21" d="M218.9,350.7c-6.7,1.9-11.6,6.1-11.7,10.5c-0.1,5.5,7.3,9.3,16.5,8.5c2.6-0.2,5.1-0.8,7.6-1.8
			C215.4,368.6,211.5,354.8,218.9,350.7z"/>
		
			<ellipse transform="matrix(0.9895 -0.1447 0.1447 0.9895 -55.2014 41.9693)" class="st23" cx="260.9" cy="400.4" rx="18" ry="10.6"/>
		<path class="st21" d="M255.6,390.7c-7.2,2-12.5,6.5-12.6,11.3c-0.1,5.9,7.8,10,17.7,9.1c2.8-0.2,5.5-0.9,8.1-1.9
			C251.9,409.9,247.7,395.1,255.6,390.7z"/>
		
			<ellipse transform="matrix(0.9895 -0.1447 0.1447 0.9895 -51.0556 54.9345)" class="st20" cx="352.1" cy="378.4" rx="16.8" ry="9.9"/>
		<path class="st21" d="M347.1,369.4c-6.7,1.9-11.6,6.1-11.7,10.5c-0.1,5.5,7.3,9.3,16.5,8.5c2.6-0.2,5.1-0.8,7.6-1.8
			C343.7,387.3,339.8,373.5,347.1,369.4z"/>
		
			<ellipse transform="matrix(0.9895 -0.1447 0.1447 0.9895 -46.3307 56.8759)" class="st22" cx="367.8" cy="346.9" rx="16.8" ry="9.9"/>
		<path class="st21" d="M362.8,337.8c-6.7,1.9-11.6,6.1-11.7,10.5c-0.1,5.5,7.3,9.3,16.5,8.5c2.6-0.2,5.1-0.8,7.6-1.8
			C359.4,355.7,355.5,342,362.8,337.8z"/>
		
			<ellipse transform="matrix(0.9895 -0.1447 0.1447 0.9895 -53.595 51.8203)" class="st23" cx="329.4" cy="394.3" rx="18" ry="10.6"/>
		<path class="st21" d="M324.1,384.6c-7.2,2-12.5,6.5-12.6,11.3c-0.1,5.9,7.8,10,17.7,9.1c2.8-0.2,5.5-0.9,8.1-1.9
			C320.4,403.8,316.2,389,324.1,384.6z"/>
		<path class="st24" d="M342.9,367.3l28.2,3.5c2.9,0.4,6-0.8,7.1-2.6l3.8-6.5c1-1.8-0.4-3.6-3.3-3.9l-28.2-3.5
			c-2.9-0.4-6,0.8-7.1,2.6l-3.8,6.5C338.6,365.2,340,367,342.9,367.3z"/>
		<path class="st21" d="M359.9,365.9l3.8-6.5c1-1.8-0.4-3.6-3.3-3.9l18.2,2.3c2.9,0.4,4.3,2.1,3.3,3.9l-3.8,6.5
			c-1,1.8-4.2,3-7.1,2.6l-18.2-2.3C355.7,368.9,358.8,367.8,359.9,365.9z"/>
		
			<ellipse transform="matrix(0.9895 -0.1447 0.1447 0.9895 -55.0951 46.9352)" class="st25" cx="295.1" cy="402.2" rx="19.6" ry="11.6"/>
		<path class="st21" d="M289.3,391.6c-7.9,2.2-13.6,7.1-13.7,12.3c-0.1,6.4,8.5,10.9,19.3,9.9c3-0.3,6-1,8.9-2.1
			C285.3,412.5,280.7,396.4,289.3,391.6z"/>
		<path class="st24" d="M248.1,375.8l-28.3,8.5c-2.9,0.9-6,0.2-7-1.4l-3.6-5.9c-1-1.6,0.5-3.6,3.4-4.5l28.3-8.5c2.9-0.9,6-0.2,7,1.4
			l3.6,5.9C252.5,372.9,251,374.9,248.1,375.8z"/>
		<path class="st21" d="M231.1,377.4l-3.6-5.9c-1-1.6,0.5-3.6,3.4-4.5l-18.3,5.5c-2.9,0.9-4.4,2.9-3.4,4.5l3.6,5.9
			c1,1.6,4.1,2.2,7,1.4l18.3-5.5C235.3,379.7,232.1,379.1,231.1,377.4z"/>
		<g class="st26">
			
				<ellipse transform="matrix(0.9895 -0.1447 0.1447 0.9895 -45.6854 57.7181)" class="st14" cx="373.9" cy="342.9" rx="2.5" ry="1.5"/>
			
				<ellipse transform="matrix(0.9895 -0.1447 0.1447 0.9895 -46.5816 57.7695)" class="st14" cx="373.8" cy="349.1" rx="2.5" ry="1.5"/>
			
				<ellipse transform="matrix(0.9895 -0.1447 0.1447 0.9895 -53.5769 53.0992)" class="st14" cx="338.2" cy="394.8" rx="2.5" ry="1.5"/>
			
				<ellipse transform="matrix(0.9895 -0.1447 0.1447 0.9895 -52.7955 52.4311)" class="st14" cx="334" cy="389.1" rx="2.5" ry="1.5"/>
			
				<ellipse transform="matrix(0.9895 -0.1447 0.1447 0.9895 -54.1569 47.2476)" class="st14" cx="297.7" cy="395.9" rx="2.5" ry="1.5"/>
			
				<ellipse transform="matrix(0.9895 -0.1447 0.1447 0.9895 -54.5515 43.0183)" class="st14" cx="268.4" cy="396.5" rx="2.5" ry="1.5"/>
			
				<ellipse transform="matrix(0.9895 -0.1447 0.1447 0.9895 -53.1321 39.4815)" class="st14" cx="244.8" cy="384.9" rx="2.5" ry="1.5"/>
			
				<ellipse transform="matrix(0.9895 -0.1447 0.1447 0.9895 -51.0021 38.8309)" class="st14" cx="241.4" cy="370" rx="2.5" ry="1.5"/>
			
				<ellipse transform="matrix(0.9895 -0.1447 0.1447 0.9895 -48.9373 36.4183)" class="st14" cx="225.9" cy="354.6" rx="2.5" ry="1.5"/>
			
				<ellipse transform="matrix(0.9895 -0.1447 0.1447 0.9895 -49.5812 37.1567)" class="st14" cx="230.6" cy="359.4" rx="2.5" ry="1.5"/>
			
				<ellipse transform="matrix(0.9895 -0.1447 0.1447 0.9895 -54.4982 48.3692)" class="st14" cx="305.2" cy="398.8" rx="2.5" ry="1.5"/>
			
				<ellipse transform="matrix(0.9895 -0.1447 0.1447 0.9895 -50.7444 56.1425)" class="st14" cx="360.5" cy="376.9" rx="2.5" ry="1.5"/>
		</g>
		<g class="st27">
			
				<ellipse transform="matrix(0.9895 -0.1447 0.1447 0.9895 -55.4089 48.2354)" class="st28" cx="303.8" cy="405" rx="2.5" ry="1.5"/>
			
				<ellipse transform="matrix(0.9895 -0.1447 0.1447 0.9895 -55.8225 42.4738)" class="st28" cx="264" cy="404.9" rx="2.5" ry="1.5"/>
			
				<ellipse transform="matrix(0.9895 -0.1447 0.1447 0.9895 -53.9605 39.1347)" class="st28" cx="242" cy="390.5" rx="2.5" ry="1.5"/>
		</g>
		<path class="st29" d="M221.4,349.7c-8.8,1.9-15.4,7.1-15.5,12.7c-0.1,4.2,3.6,7.6,9.2,9.1l-1.9,0.6c-4.3,1.3-6.5,4.3-5.1,6.7
			l3.6,5.9c1.2,1.9,4.3,2.9,7.7,2.6c0.9-0.1,1.8-0.3,2.7-0.5l0.1,0c-0.9,1.3-1.4,2.9-1.5,4.5c-0.1,6.4,8.5,10.8,19.2,9.9
			c0.8-0.1,1.5-0.2,2.3-0.3c-0.3,0.8-0.4,1.6-0.4,2.4c0,0.3,0,0.6,0,0.9c0.1,0.8,1.3,1.4,2.7,1.2c0.1,0,0.1,0,0.2,0
			c1.5-0.2,2.6-1.1,2.5-1.9c0-0.2,0-0.5,0-0.7c0.1-5,6.9-9.7,15.3-10.5c7.3-0.7,13.6,2,14.8,6.1c-1.7,1.8-2.8,4.2-2.9,6.7
			c0,0.2,0,0.4,0,0.7c-3.5,2.8-7.7,4.4-12.2,4.7c-3.8,0.5-7.6-0.2-11-1.9c-1.2-0.5-2.7-0.4-3.8,0.3c-1.1,0.7-1.2,1.7-0.1,2.3
			c3.8,2.1,9.3,3,14.9,2.5c4.7-0.4,9.4-1.8,13.5-4.2c3,4.8,11.1,7.8,20.7,6.9s17.8-5.2,21-10.6c4.2,1.7,8.8,2.3,13.4,1.8
			c11.3-1,20.6-7.4,20.7-14.2c0-0.8-0.1-1.6-0.4-2.4c0.8,0,1.5-0.1,2.3-0.1c10.7-1,19.4-6.9,19.5-13.3c0-1.5-0.5-3-1.4-4.3l0.1,0
			c0.9,0.1,1.8,0.1,2.7,0c3.4-0.3,6.5-1.8,7.8-4l3.8-6.5c1.5-2.7-0.6-5.3-4.9-5.8l-1.9-0.2c5.7-2.5,9.5-6.6,9.5-10.8
			c0.1-5.6-6.4-9.6-15.2-10c0.3-0.5,0.6-1,0.9-1.4c-2-0.1-4-0.1-6,0.1c-0.2,0.5-0.3,1-0.3,1.6c-1.3,0.2-2.6,0.4-3.9,0.8
			c-1.4,0.4-2.3,1.3-1.9,2.2c0.4,0.8,1.9,1.2,3.3,0.8c1.3-0.3,2.5-0.5,3.8-0.7c7.7-0.7,13.9,2.5,13.8,7.1c-0.1,4.2-5.2,8.1-12,9.3
			l-12.4-1.5c-2.3-1.3-3.6-3.2-3.5-5.3c0.1-1.6,0.8-3.2,1.9-4.3c0.7-0.8,0.3-1.8-1-2.1c-1.3-0.3-2.7,0-3.7,0.9
			c-1.6,1.6-2.5,3.7-2.6,6c0,1.4,0.4,2.8,1.2,4c-3.7,0.1-7.4,1.7-8.8,4l-3.8,6.5c-0.8,1.2-0.7,2.7,0.3,3.7c1.2,1.2,2.9,2,4.6,2.1
			l1,0.1c-1.6,0.7-3.1,1.5-4.6,2.5c-3.6,2.5-5.6,5.6-5.7,8.6c0,0.6,0.1,1.2,0.2,1.7c-1.1,0-2.2,0-3.4,0.1
			c-8.4,0.8-15.9,4.5-19.1,9.2c-4.8-2.1-10.1-2.9-15.3-2.3c-5.5,0.4-10.7,2.2-15.4,5.1c-3.1-4.2-10.4-6.6-18.8-5.9
			c-1.1,0.1-2.3,0.3-3.4,0.5c0.2-0.6,0.2-1.2,0.2-1.8c0-3.1-1.9-5.8-5.4-7.6c-1.4-0.7-2.9-1.3-4.5-1.6l1-0.3h0
			c1.8-0.5,3.5-1.5,4.7-2.9c0.9-1,1.1-2.6,0.4-3.8l-3.6-5.9c-1.3-2.1-5-3.1-8.7-2.4c0.8-1.3,1.3-2.7,1.3-4.2
			c0.1-6.1-7.8-10.4-17.8-9.9 M211.3,362c0.1-4.6,6.4-8.9,14.1-9.6c7.7-0.7,13.9,2.5,13.8,7.1c0,2.1-1.3,4.2-3.7,5.9l-12.5,3.8
			C216.2,369.2,211.2,366.1,211.3,362L211.3,362z M220.4,383.9c-1.5,0.4-3.1,0.1-3.6-0.7l-3.6-5.9c-0.5-0.8,0.3-1.9,1.7-2.3
			l28.3-8.5c0.3-0.1,0.6-0.2,0.9-0.2c1-0.2,2,0.1,2.6,0.9l3.6,5.9c0.2,0.4,0.2,0.9-0.1,1.3c-0.4,0.5-1,0.8-1.6,1l0,0L220.4,383.9z
			 M253.1,391.3c-3.3,1.2-6.2,3.2-8.6,5.7c-1.5,0.4-3,0.7-4.5,0.8c-7.7,0.7-13.9-2.5-13.8-7.1c0-2.4,1.7-4.8,4.7-6.6l10.1-3
			c7.3-0.4,13.2,2.7,13.1,7.2C254,389.3,253.7,390.4,253.1,391.3L253.1,391.3z M296.4,413.2c-9.3,0.8-16.7-3-16.6-8.6
			s7.7-10.7,16.9-11.6s16.7,3,16.6,8.6S305.6,412.4,296.4,413.2z M330.7,404.4c-4.8,0.4-9.2-0.5-12.1-2.6c0-0.2,0-0.4,0-0.7
			c0-2.4-1-4.6-2.7-6.2c1.4-4.4,7.7-8.1,15-8.8c8.4-0.7,15.1,2.7,15.1,7.7C346,398.9,339.1,403.6,330.7,404.4L330.7,404.4z
			 M353.4,387.7c-1.5,0.1-3,0.1-4.5,0c-2.4-2.2-5.3-3.6-8.5-4.2c-0.6-0.8-0.9-1.8-0.9-2.9c0.1-4.4,6-8.6,13.4-9.5l10,1.2
			c2.9,1.3,4.5,3.4,4.5,5.8C367.4,382.7,361.1,387,353.4,387.7L353.4,387.7z M380.8,362.4l-3.8,6.5c-0.9,1.1-2.3,1.6-3.6,1.3
			l-28.2-3.5h0c-0.6,0-1.2-0.3-1.6-0.7c-0.3-0.4-0.4-0.9-0.1-1.3l3.8-6.5c0.6-0.8,1.6-1.3,2.7-1.4c0.3,0,0.6,0,0.9,0l28.2,3.5
			C380.6,360.5,381.3,361.4,380.8,362.4L380.8,362.4z"/>
		<path class="st29" d="M221.4,349.7c1.8-0.5,3.6-0.7,5.4-0.7"/>
	</g>
	<path class="st29" d="M373.8,336.6c7.1-11.4,2.7-4.3,10.9-16.7l-4.7-5.5c1.1,4.6-12,15.2-12,22C370,336.3,371.9,336.4,373.8,336.6z
		"/>
	<path class="st29" d="M159,309.8c9.3,10.9,50.7,26.6,61.2,38.3c0.5,0.6,0.5,1.4-0.1,1.9c-0.1,0.1-0.3,0.2-0.4,0.3l-4.7,1.7
		c-0.6,0.2-1.2,0-1.6-0.5c-4.5-6.2-50-28.4-57.5-35.7c-0.5-0.5-0.6-1.2-0.2-1.7c0.6-0.7,0.7-2.3,1-3.6c0.2-0.7,0.9-1.2,1.6-1
		C158.6,309.5,158.9,309.6,159,309.8z"/>
</g>
<g id="b2320780-6250-4619-96c3-c79621626a32">
	<path class="st30" d="M311.5,119.5L214,137.5l2.4-11c-0.7-6.8-4-3.7-4-3.7c-0.1,6.1-11,27-11,27l-0.2,5.1l-14.5-9l-0.2-28.3
		c-2.4-13,0.6-18.7,0.6-18.7c-2.2-20.7,15.4-25.6,15.4-25.6c1.5-4.8,12.8-14.1,12.8-14.1c39.7-15.9,54.9,1.6,54.9,1.6
		c34.8,10.1,46.6,41.9,46.6,41.9L311.5,119.5z"/>
	<path class="st31" d="M204.7,69.9c2.7-3.2,5.6-6.2,8.7-9c-4.3,12.5-7.2,25.4-8.7,38.4C203.9,89.5,203.9,79.7,204.7,69.9z"/>
	<path class="st31" d="M236.2,68.9c0.7-0.8,1.7-1.3,2.8-1.4C238.1,67.9,237.1,68.4,236.2,68.9z"/>
	<path class="st31" d="M217.5,95.2c1.4-6.3,3-12.8,7.1-17.8c3.1-3.8,7.2-6.3,11.6-8.5c-0.9,1-1.7,2.2-2.2,3.5
		c-3.4,7.2-6.8,14.3-10.2,21.5c-2.6,5.5-5.2,11.3-4.6,17.3c6.1-9.7,16.5-15.6,26.7-20.8c5.1-2.7,10.5-5.3,16.3-5.6
		c-11.3,4.7-20.7,13.1-29.8,21.3c-4.8,4.3-9.6,8.7-12.7,14.3c-1.1,2-2,4.2-3.2,6.1c-0.7-6.3-3.6-3.9-3.9-3.6
		C213.9,113.6,215.5,104.4,217.5,95.2z"/>
	<path class="st32" d="M335.1,138.3c-0.9,1.7-1.5,4.3-1.8,1.1c0.3,2.7,0.1,1.3-0.1,0.2c0,0.8-0.2,0.2-0.5,0.6
		c-0.4-1.2-0.7,0.7-1.4,0.9c-0.8-1.4-1.5,0.6-2.7,1.1c-1.2,0-2.3,3.2-4.4,1.2c-2.3,0-4.5,0.5-6.6,1.3c-2.6,0.3-5.6,1.3-9.2,1.3
		c-3.6,0-7.7-0.4-12.2,1.2c-2.7-0.1-5.3-0.4-7.8,0.8c-2.5,0.3-5.1-0.2-7.4,1.1c-2.6-1.1-4.8,0.7-7,1.3c-2.2,1.5-4.4,1.3-6.6,1.4
		c-2,1.5-4.2,0.5-6.2,1.5c-2.1-0.3-3.7,2.1-5.7,1.6c-1.6,2.9-3.7-0.3-5.1,1.6c-1.8-1.7-3.1,1.6-4.6,1.5c-1.7-2.1-2.9-0.5-4,1.4
		c-1.3,0-2,3.7-3.3,1.3c-0.9,0.9-1.9,0.1-2.7,1.1c-0.7,1-1.7-2.3-1.9,0.8c-0.6-0.8-0.8,1.8-1.2,0.5c-0.3-0.6-0.7-2.2-0.4,0.2
		c-2.3,0.4-4.4,1.3-6.3,2.7c-1.8,1.3-3.4,2.5-5,0.2c-1.5-0.8-2.6,0.1-3.7-1.1c-1.2-2.3-1.8-1.2-2.3-1.5c-0.6-1.7-0.8-0.7-0.8-0.7
		c-2.5-5.2-3.3-19.1-2.4-22.3c0.3,0.2,0.3-2.9,0.5-3.4c0.3-1,0.5-1.9,0.7-2.9c0.8-2.1,2.1-1.8,3.6-2.7c1.4-1.6,3.4,1,4.9-2.8
		c1.8-1.4,3.5-4.6,5.7-2.8c2.2,1.4,4.1-1.3,6-2.6c2-0.6,3.6-4,5.6-2.3c1.7-0.8,3.3-1.8,4.7-1.8c1.3-1.5,2.5-0.6,3.3-1.2
		c0.9,0.9,1.1-1.4,1.2-0.4c0.5-4.6,1.8-3.5,3.4-2.3c1.6,1,2.9-2,4.7-1.8c1.5-1.2,3.5-1.7,5.5-1.4c1.8-1.6,3.7-2.3,5.7-1.1
		c1.5-3.4,3.5-2.3,5.4-0.7c1.6-0.5,3.4,1.5,4.5-0.5c1.4,0.8,2.3-0.6,3.1-0.3c0.9,1.5,1.2,0,1.2-0.1c-0.1-1,0.8,1,1.7-0.7
		c1.2,1.3,2.7,1,4.1-1.4c1.4-1.8,3.1-2.5,4.9-1.2c1.8,1.6,3.2,1.2,4.1-0.2c1.2-1.9,3.1-1,5,0.6c1.9,0.9,3.7,2,4.8,0.2
		c1.1-2,2.3,1.8,2.1,0c2.1-1.8,3.8-0.8,4.9-2.8c1.3,0.6,2-1.9,2.9-1.4c0.6-2.7,1.6-0.3,2.7,0.1c1.3,2.6,2.4,0.2,4.4,1.5
		c1.8-3.4,5.2,4.6,8.2,7c4,2.2,6.7,26.6,6.1,22.2c0.1,1.7-0.4-2.9,0,1.1C337.6,140,336.2,138.4,335.1,138.3z"/>
	<path class="st32" d="M198,146.1c7.6,3.8,10.7,13,7,20.6s-13,10.7-20.6,7l0,0c-7.6-3.8-12.2-14.3-8.4-21.9
		C179.8,144.2,190.4,142.4,198,146.1z"/>
	<path class="st33" d="M197.9,160.9c2.4-4.8,2-10.4-1-14.8c0.4,0.1,0.7,0.3,1,0.4c7.4,3.6,10.4,12.6,6.8,19.9c0,0,0,0,0,0
		c-3.6,7.4-12.6,10.8-19.9,7.1c-2.6-1.4-4.8-3.4-6.6-5.8C185.4,170.7,194.4,168,197.9,160.9z"/>
	<path class="st33" d="M196.3,145.9C196.3,145.9,196.3,145.9,196.3,145.9c-0.1,0.2-0.1,0.4,0,0.6L196.3,145.9z"/>
</g>
<g id="f0a89e78-f908-461e-a12b-4c635a256b90">
	<path class="st34" d="M387.6,572.9l-28.8,13.9c-6.8,3.3-9.1,9.9-5.1,14.9l41.2-19.9L387.6,572.9z"/>
	<path class="st35" d="M377.3,602.7l-4.2,2c-6.8,3.3-15.6,2-19.5-3c-1.3-1.6,3.1-5.6,9.9-8.9l18.7-9L377.3,602.7z"/>
	<path class="st36" d="M401.6,586.8l-27.6,0.9c1.6-5.8,6.3-11.3,13.6-14.8l22.6-10.9L401.6,586.8z"/>
	<path class="st37" d="M399.9,591.8l-22.6,10.9c-3.5-4.1-4.7-9.7-3.3-14.9l32.8-15.8L399.9,591.8z"/>
	<path class="st34" d="M424.2,575.9l-27.6,0.9c1.6-5.8,6.3-11.3,13.6-14.8l22.6-10.9L424.2,575.9z"/>
	<path class="st35" d="M422.5,580.9l-22.6,10.9c-3.5-4.1-4.7-9.7-3.3-14.9l32.8-15.8L422.5,580.9z"/>
	<path class="st36" d="M446.8,565l-27.6,0.9c1.6-5.8,6.3-11.3,13.6-14.8l22.6-10.9L446.8,565z"/>
	<path class="st37" d="M445.1,570l-22.6,10.9c-3.5-4.1-4.7-9.7-3.3-14.9l32.8-15.8L445.1,570z"/>
	<path class="st34" d="M467,534.7c2-1,4.1-1.8,6.2-2.5l11.7,14.5l-43.1,8.4c1.6-5.8,6.3-11.3,13.6-14.8L467,534.7L467,534.7z"/>
	<path class="st35" d="M467.7,559.1L445.1,570c-3.5-4.1-4.7-9.7-3.3-14.9l35.9-17.3L467.7,559.1z"/>
	<path class="st36" d="M473.2,532.2c-4.2,2.9-7.3,7.1-8.8,12l44.2-3.7c0,0-7.2-8.9-7.2-8.9C492.1,529.1,482.3,529.3,473.2,532.2z"/>
	<path class="st37" d="M471.8,540.6c7.6-3.7,15.8-5.7,24.2-6l-9.9,16.7c-1.6,0.1-3.3,0.5-4.8,1.2l-13.7,6.6
		c-3.5-4.1-4.7-9.7-3.3-14.9L471.8,540.6L471.8,540.6z"/>
	<path class="st34" d="M518.7,542.2l-22.7-7.6c1.7-1.2,3.5-2.2,5.4-3C508.5,533.6,514.5,535.9,518.7,542.2z"/>
	<path class="st35" d="M524,553.5l-29.6,1c-1.8-2.2-5-3.3-8.3-3.2c0-6.5,3.8-12.5,9.9-16.7c10-0.3,16.8,2.2,23.1,8
		C521.7,545.7,523.4,549.5,524,553.5z"/>
	<path class="st37" d="M508.8,580.3l-14.4-18.8c1.7-2.1,1.7-5.1,0-7.1c9.3-4.4,20.1-4.8,29.6-1C525.5,563.3,520,573.7,508.8,580.3z"
		/>
	<path class="st35" d="M508.8,580.3c-1.1,0.7-2.3,1.3-3.5,1.9l-4.1,2c-6.8,3.3-15.6,2-19.5-3c-4-4.9-1.7-11.6,5.1-14.9l4.1-2
		c1.4-0.6,2.6-1.6,3.5-2.8C504,565.3,509.2,572.6,508.8,580.3z"/>
	<path class="st38" d="M387.6,572.9l-28.8,13.9c-6.8,3.3-9.1,9.9-5.1,14.9l41.2-19.9L387.6,572.9z"/>
	<path class="st39" d="M377.3,602.7l-4.2,2c-6.8,3.3-15.6,2-19.5-3c-1.3-1.6,3.1-5.6,9.9-8.9l18.7-9L377.3,602.7z"/>
	<path class="st40" d="M401.6,586.8l-27.6,0.9c1.6-5.8,6.3-11.3,13.6-14.8l22.6-10.9L401.6,586.8z"/>
	<path class="st41" d="M399.9,591.8l-22.6,10.9c-3.5-4.1-4.7-9.7-3.3-14.9l32.8-15.8L399.9,591.8z"/>
	<path class="st38" d="M424.2,575.9l-27.6,0.9c1.6-5.8,6.3-11.3,13.6-14.8l22.6-10.9L424.2,575.9z"/>
	<path class="st39" d="M422.5,580.9l-22.6,10.9c-3.5-4.1-4.7-9.7-3.3-14.9l32.8-15.8L422.5,580.9z"/>
	<path class="st40" d="M446.8,565l-27.6,0.9c1.6-5.8,6.3-11.3,13.6-14.8l22.6-10.9L446.8,565z"/>
	<path class="st41" d="M445.1,570l-22.6,10.9c-3.5-4.1-4.7-9.7-3.3-14.9l32.8-15.8L445.1,570z"/>
	<path class="st38" d="M467,534.7c2-1,4.1-1.8,6.2-2.5l11.7,14.5l-43.1,8.4c1.6-5.8,6.3-11.3,13.6-14.8L467,534.7L467,534.7z"/>
	<path class="st39" d="M467.7,559.1L445.1,570c-3.5-4.1-4.7-9.7-3.3-14.9l35.9-17.3L467.7,559.1z"/>
	<path class="st40" d="M473.2,532.2c-4.2,2.9-7.3,7.1-8.8,12l44.2-3.7c0,0-7.2-8.9-7.2-8.9C492.1,529.1,482.3,529.3,473.2,532.2z"/>
	<path class="st41" d="M471.8,540.6c7.6-3.7,15.8-5.7,24.2-6l-9.9,16.7c-1.6,0.1-3.3,0.5-4.8,1.2l-13.7,6.6
		c-3.5-4.1-4.7-9.7-3.3-14.9L471.8,540.6L471.8,540.6z"/>
	<path class="st38" d="M519.1,542.6l-23.1-8c1.7-1.2,3.5-2.2,5.4-3C508.5,533.6,514.8,537.3,519.1,542.6z"/>
	<path class="st39" d="M524,553.5l-29.6,1c-1.8-2.2-5-3.3-8.3-3.2c0-6.5,3.8-12.5,9.9-16.7c10-0.3,18.6,2.4,23.1,8
		C521.7,545.7,523.4,549.5,524,553.5z"/>
	<path class="st41" d="M508.8,580.3l-14.4-18.8c1.7-2.1,1.7-5.1,0-7.1c9.3-4.4,20.1-4.8,29.6-1C525.5,563.3,520,573.7,508.8,580.3z"
		/>
	<path class="st39" d="M508.8,580.3c-1.1,0.7-2.3,1.3-3.5,1.9l-4.1,2c-6.8,3.3-15.6,2-19.5-3c-4-4.9-1.7-11.6,5.1-14.9l4.1-2
		c1.4-0.6,2.6-1.6,3.5-2.8C504,565.3,509.2,572.6,508.8,580.3z"/>
</g>
<g id="a142a0ce-445f-406e-b2fb-f117aff31312">
	<path class="st42" d="M342.5,504.8l-0.5-6.7v-14.9l-16.6-0.7v15.7l-0.5,6.7l-0.3,4.4c5.6,1.3,11.3,2.2,17.1,2.8L342.5,504.8z"/>
	<path class="st43" d="M331,498.1v-15.4l-5.6-0.3v15.7l-0.5,11.2c2,0.5,4.1,1,6.2,1.2V498.1z"/>
	<path class="st43" d="M333.6,482.8l-2.7-0.1v-0.3L333.6,482.8z"/>
	<path class="st43" d="M342.5,504.8l-4.6-2.4c-2.7-1.4-5.8-1.4-8.5,0l-4.6,2.4l0.5-6.7v-15.7l16.6,0.7v14.9L342.5,504.8z"/>
	<path class="st42" d="M341.8,421.7l7,14.3c1.3,2.7,3.9,4.6,6.9,5l15.7,2.3c5,0.7,8.5,5.4,7.7,10.4c-0.3,2-1.2,3.8-2.7,5.2
		l-11.4,11.1c-2.2,2.1-3.1,5.1-2.6,8.1l2.7,15.7c0.9,5-2.5,9.7-7.5,10.6c-2,0.3-4,0-5.8-0.9l-14.1-7.4c-2.7-1.4-5.8-1.4-8.5,0
		l-14.1,7.4c-4.5,2.4-10,0.6-12.3-3.8c-0.9-1.8-1.3-3.8-0.9-5.8l2.7-15.7c0.5-3-0.5-6-2.6-8.1l-11.4-11.1c-3.6-3.5-3.7-9.3-0.2-12.9
		c1.4-1.4,3.2-2.4,5.2-2.7l15.7-2.3c3-0.4,5.6-2.3,6.9-5l7-14.3c2.2-4.5,7.7-6.4,12.2-4.2C339.5,418.4,341,419.9,341.8,421.7z"/>
	<path class="st44" d="M325.4,467.1l-20.7,7.6c-0.4-1.8-1.3-3.5-2.6-4.8l-11.4-11.1c-2.4-2.3-3.3-5.6-2.5-8.8l37.1,11.5
		C324.7,463.4,324.8,465.3,325.4,467.1L325.4,467.1z"/>
	<path class="st44" d="M328.5,457l-12.8-17.9c1.1-0.9,2.1-2,2.7-3.2l7-14.3c1.5-3.1,4.7-5.1,8.2-5.1v38.8
		C331.8,455.4,330,456,328.5,457z"/>
	<path class="st44" d="M338.8,471.2l23,31.3c-2.8,2.2-6.7,2.6-9.9,0.9l-14.1-7.4c-2.7-1.4-5.8-1.4-8.5,0l-14.1,7.4
		c-3.2,1.7-7.1,1.4-9.9-0.9l23-31.3c1.5,1.1,3.3,1.7,5.2,1.7h0C335.5,472.9,337.3,472.3,338.8,471.2z"/>
	<path class="st44" d="M376.6,458.8l-11.4,11.1c-1.3,1.3-2.2,3-2.6,4.8l-20.7-7.6c0.7-1.8,0.7-3.8,0.1-5.6l37.1-11.5
		C379.9,453.2,378.9,456.5,376.6,458.8z"/>
	<path class="st45" d="M344.9,512.4l-0.9-11.1l7.1,3.7c5.4,2.8,12,0.8,14.9-4.6c1.1-2.1,1.5-4.6,1.1-7l-2.7-15.7
		c-0.4-2.4,0.4-4.8,2.1-6.4l11.4-11.1c4.4-4.2,4.4-11.2,0.2-15.6c-1.7-1.7-3.9-2.9-6.3-3.2l-15.7-2.3c-2.4-0.3-4.4-1.8-5.5-4
		l-7-14.3c-2.7-5.5-9.3-7.7-14.7-5c-2.2,1.1-3.9,2.8-5,5l-7,14.3c-1.1,2.1-3.1,3.6-5.5,4l-3.4,0.5c-1,0.1-1.7,1.1-1.6,2.1
		s1.1,1.7,2.1,1.6l3.4-0.5c1.2-0.2,2.4-0.5,3.4-1.1l10.8,15.1c-0.7,0.7-1.3,1.6-1.8,2.5l-33.5-10.5c1.1-2,3.1-3.4,5.4-3.7l5-0.7
		c1-0.1,1.7-1.1,1.6-2.1s-1.1-1.7-2.1-1.6l-5,0.7c-6,0.9-10.2,6.5-9.3,12.5c0.3,2.4,1.5,4.6,3.2,6.3l11.4,11.1
		c1.7,1.7,2.5,4.1,2.1,6.4l-2.7,15.7c-1,6,3,11.7,9,12.7c2.4,0.4,4.8,0,7-1.1l7.1-3.7l-0.5,7.3c1.2,0.4,2,0.7,3.3,1l1.2-10.4
		l3.1-1.6c2.1-1.1,4.7-1.1,6.8,0l3.1,1.6l1.2,12.8 M352.1,441.7c1.1,0.6,2.2,0.9,3.4,1.1l15.7,2.3c2.3,0.3,4.3,1.7,5.4,3.7
		l-33.5,10.5c-0.5-0.9-1.1-1.8-1.8-2.5L352.1,441.7z M335.5,418.7c2,0.5,3.7,1.9,4.7,3.8l7,14.3c0.5,1,1.1,1.9,1.9,2.7l-10.9,15.1
		c-0.9-0.4-1.8-0.7-2.7-0.9V418.7z M318.2,439.4c0.8-0.8,1.4-1.7,1.9-2.7l7-14.3c0.9-1.9,2.6-3.3,4.7-3.8v35
		c-0.9,0.2-1.9,0.5-2.7,0.9L318.2,439.4z M292,457.5c-1.4-1.3-2.2-3.1-2.2-5l33.3,10.4c-0.1,1-0.1,2.1,0.1,3.2l-17.3,6.3
		c-0.6-1.4-1.4-2.6-2.5-3.7L292,457.5z M303.9,494l2.7-15.7c0.1-0.8,0.2-1.6,0.1-2.4l17.8-6.5c0.4,0.7,0.9,1.4,1.5,2l-20.7,28.2
		C304,498,303.5,496,303.9,494L303.9,494z M331.8,493.2c-1.1,0.2-2.2,0.6-3.3,1.1l-14.1,7.4c-1.9,1.1-4.3,1.1-6.3,0.2l20.8-28.3
		c0.9,0.4,1.8,0.8,2.8,0.9V493.2z M326.8,464.1c0-3.8,3.1-6.9,6.9-6.9c3.8,0,6.9,3.1,6.9,6.9c0,3.8-3.1,6.9-6.9,6.9
		C329.8,471,326.8,467.9,326.8,464.1L326.8,464.1z M352.8,501.7l-14.1-7.4c-1-0.5-2.1-0.9-3.3-1.1v-18.6c1-0.2,1.9-0.5,2.8-0.9
		l20.8,28.3C357.1,502.8,354.8,502.7,352.8,501.7L352.8,501.7z M362.1,499.6l-20.7-28.2c0.6-0.6,1.1-1.3,1.5-2l17.8,6.5
		c0,0.8,0,1.6,0.1,2.4l2.7,15.7C363.8,496,363.3,498,362.1,499.6L362.1,499.6z M363.9,468.6c-1.1,1-1.9,2.3-2.5,3.7l-17.3-6.3
		c0.2-1,0.2-2.1,0.1-3.2l33.3-10.4c0,1.9-0.8,3.7-2.2,5L363.9,468.6z"/>
</g>
<g id="b877a091-f0fd-472f-bf26-31d7a96f506f">
	<path class="st46" d="M381.1,570.3c1.9-10.4-4.6-13.6-13.8-24.7"/>
	<path class="st47" d="M407.3,547.8c1.7,1.4,8.7,9.8,14,11.1c3.2,0.8,6.4,1,9.7,0.7l26.6-10.3c1.8-3.2,2.9-6.7,3.2-10.3
		c0.2-2,0.1-3.9-0.1-5.9c-2.6,1.5-5.4,2.7-8.2,3.6c-13.4,4.3-24.1,7.3-36.4-4"/>
	<path class="st47" d="M428.6,585.3c-2.1,1.4-4.5,2.8-7.2,4.2c-4.1,2.1-8.3,3.9-12.6,5.3l-28.1-2c-0.8-0.1-1.4-0.7-1.3-1.5
		c0-0.5,0.3-0.9,0.7-1.1c2.1-1.2,4.3-2.5,6.8-3.7c2.4-1.2,6.5-2.3,8.7-3.2"/>
	<path class="st47" d="M451.9,572.9c-5.6,5.7-12.5,10-20.1,12.5c-12-0.7-24.1-1.5-36.1-2.2c6.4-4.9,13.7-8.6,21.4-11.1"/>
	<path class="st47" d="M464,562.6c-0.7,1.6-1.7,3.1-2.8,4.5c-3,3.2-7.1,5.2-11.5,5.7c-10.9-0.1-21.9-0.3-32.8-0.4
		c4.1-4.5,9.3-7.9,15-10c3.5-0.5,7.1-0.7,10.7-0.4c2.3,0.1,10.9,1.3,12.8,1.7"/>
</g>
</svg>
