<svg xmlns="http://www.w3.org/2000/svg" viewBox="0 0 582.48489 787.5849"><title>logo_alligator_news-xmas</title><g id="fafe0ef2-109a-470f-a23d-1c382872506e" data-name="logo"><path d="M333,369c41.45917,6.76886,82.202,7.0979,122.835,8.24933q5.669-36.329,11.338-72.65814c-23.92144-6.679-57.7254-20.09784-89.20239-48.21369-9.38971-8.38708-46.60229-41.62616-61.805-89.56-7.07392-22.304-5.95978-36.99823-19.97571-56.17175-5.61255-7.678-13.69366-16.03442-14.00269-28.91748-.20605-8.59137,3.194-12.74493,3.6482-22.74768.5357-11.79925-3.4931-21.48645-6.76-27.57623a66.32145,66.32145,0,0,1,3.9621,26.21759c-.95819,16.27618-7.7544,20.0813-4.3913,30.65167,2.25855,7.09869,5.94983,11.64185,4.82855,20.06513a28.649,28.649,0,0,1-2.78979,8.47674c-7.32184,13.99909-130.07685,188.98962-153.80341,222.78412C166.19366,346.31122,204.32025,354.70935,244,360,274,364,303,365,333,369Z" transform="translate(-6.56839 -31.40436)" style="fill:#1d1d1b"/><path d="M333,369c-30-4-59-5-89-9-39.67975-5.29065-77.80634-13.68878-117.11841-20.40039-.83868,1.19452-1.5581,2.21905-2.13983,3.04742q-1.96692,19.38566-3.9339,38.77124L83.25226,564.77252q67.70654,41.16083,135.41308,82.32154a106.89952,106.89952,0,0,0,35.40912,11.15924,104.31739,104.31739,0,0,0,13.09064.85839,40.51383,40.51383,0,0,1,9.69421,18.67444c3.34711,16.60736-7.94934,22.58008-4.973,34.76117,3.57862,14.64588,21.43756,12.26642,42.81281,36.05292,8.87292,9.87372,6.23,10.767,16.09509,21.24548,11.74243,12.47254,18.80664,14.73285,30.68793,26.93238a129.04308,129.04308,0,0,1,17.27533,22.21118,98.469,98.469,0,0,0-10.51544-18.241c-11.75861-16.11212-21.5293-19.03326-35.62372-35.40912-10.72315-12.45892-6.42267-12.34253-15.95282-22.8941-18.75012-20.75946-33.71887-19.3526-36.62433-32.2583-2.45764-10.91639,7.61523-14.752,5.93725-31.4748-.75634-7.5379-3.42083-12.91644-7.58258-21.317a121.63086,121.63086,0,0,0-17.45416-26.05213l61.805-15.15124a308.43253,308.43253,0,0,0,84.33814-36.05292c6.7843-4.20544,13.145-8.52209,19.09949-12.876q14.82531-95.00665,29.65069-190.01324C415.202,376.0979,374.45917,375.76886,333,369Zm-7,172c16,7,34,3,51,6C360,544,342,548,326,541Z" transform="translate(-6.56839 -31.40436)" style="fill:#1d1d1b"/><ellipse cx="114.23946" cy="199.08656" rx="24.18607" ry="24.71959" style="fill:#f7a81b;stroke:#1d1d1b;stroke-miterlimit:10;stroke-width:2px"/><path d="M120.80785,232.91454c.46792-.06931,7.46786-.9798,12.23178,4.50662,4.61507,5.315,2.98735,11.86052,2.844,12.39623a22.77934,22.77934,0,0,0,10.24662-15.40064c1.60892-10.42674-5.00344-17.67507-5.811-18.53012Z" transform="translate(-6.56839 -31.40436)" style="fill:#e8b10a;stroke:#1d1d1b;stroke-miterlimit:10;stroke-width:2px"/><path d="M124.02637,345.36536c2.194-1.5033,4.577-3.18018,7.11157-5.02875q-4.28512-.74579-8.58911-1.46448C123.23047,341.31348,123.70068,343.51263,124.02637,345.36536Z" transform="translate(-6.56839 -31.40436)" style="fill:#f7a81b;stroke:#1d1d1b;stroke-miterlimit:10;stroke-width:2px"/><path d="M171.66779,304.59119c16.20422-17.2229,16.74353-22.04749,39.91571-52.79181,54.10565-71.78589,66.097-86.26935,66.097-86.26935,11.57532-13.9812,23.35486-27.57953,20.60175-43.77869-1.76233-10.36963-8.80353-17.82672-14.16364-22.31848a34.75133,34.75133,0,0,1-5.57965,20.17243c-1.94592,2.87744-4.44781,6.577-8.692,7.67108-6.08874,1.56939-10.95654-3.46247-15.34326-5.525-14.15314-6.65478-30.14136,14.38172-63.95105,31.76087-25.97387,13.35132-30.38183,8.66211-50.21655,21.88928a134.33772,134.33772,0,0,0-35.40912,34.98,32.25654,32.25654,0,0,1,15.66583-3.86285c3.34461.05206,11.13428.17321,16.95349,5.57965.96991.90106,5.50751,5.31457,6.65259,15.88043,1.82648,16.853-6.96625,31.014-14.16363,42.27637A141.85647,141.85647,0,0,1,99.56189,304.162a67.58489,67.58489,0,0,1,22.98694,34.71014q4.30389.71887,8.58911,1.46448A291.75344,291.75344,0,0,0,171.66779,304.59119Z" transform="translate(-6.56839 -31.40436)" style="fill:gold;stroke:#1d1d1b;stroke-miterlimit:10;stroke-width:2px"/><ellipse cx="46.6054" cy="583.38768" rx="16.16308" ry="16.55074" style="fill:#f7a81b;stroke:#1d1d1b;stroke-miterlimit:10;stroke-width:2px"/><path d="M67.47908,617.37186a18.40164,18.40164,0,0,0-1.1803-2.78981c-1.12128-2.13925-2.75565-5.25735-5.93728-6.25921-.61307-.19307-3.348-.95884-5.2935.57229a4.55451,4.55451,0,0,0-1.57372,2.28909c-.37472,1.36033.21038,2.17189-.14309,2.43213-.13871.10211-.82951.41935-5.72268-4.4351-3.90894-3.87807-4.03-4.638-4.00587-5.15042.13761-2.926,5.331-4.68879,5.86574-4.86425a14.44675,14.44675,0,0,1,12.16073,1.57372,14.69716,14.69716,0,0,1,6.47377,14.48555A11.17891,11.17891,0,0,1,67.47908,617.37186Z" transform="translate(-6.56839 -31.40436)" style="fill:#e8b10a;stroke:#1d1d1b;stroke-miterlimit:10;stroke-width:2px"/><path d="M80.67706,345.36536A69.69614,69.69614,0,0,0,53.49426,395.725a31.713,31.713,0,0,0,1.7168,10.30084c2.39325,6.89441,6.3172,10.11,8.29791,12.876,7.60785,10.62426-.97455,32.04351-9.25165,44.24383-7.38867,10.89087-10.32153,8.3089-30.521,29.86493C13.182,504.27374,9.37354,509.73407,7.9989,517.046c-1.44061,7.6629.92261,11.34528,4.292,24.32141,7.49811,28.8761,1.88507,34.94177,9.72858,54.65167a90.90813,90.90813,0,0,0,16.30969,26.3244c-.01043-5.02545.73859-15.40057,8.15479-22.46154a24.18631,24.18631,0,0,1,7.72564-4.86432c16.14209-6.71594,44.33191-9.67847,52.21955-10.44385a243.26461,243.26461,0,0,1-2.86139-29.18573,249.95249,249.95249,0,0,1,3.43365-50.932c7.52021-43.82836,21.66565-53.50158,32.04706-97.2857a266.08707,266.08707,0,0,0,6.86719-48.64282,70.40531,70.40531,0,0,0-21.17389-12.01764C105.21613,339.58435,87.90247,343.33728,80.67706,345.36536Z" transform="translate(-6.56839 -31.40436)" style="fill:gold;stroke:#1d1d1b;stroke-miterlimit:10;stroke-width:2px"/><path d="M501.42871,223.49893a99.66555,99.66555,0,0,0-26.74462-17.12334,19.16864,19.16864,0,0,1,12.30376-2.7183c1.26727.16635,9.80824,1.43234,13.44833,9.01326A16.355,16.355,0,0,1,501.42871,223.49893Z" transform="translate(-6.56839 -31.40436)" style="fill:#f7a81b;stroke:#1d1d1b;stroke-miterlimit:10;stroke-width:2px"/><path d="M467.17306,304.59121a152.37127,152.37127,0,0,1-42.491-8.15483c-73.62667-25.61-108.7797-103.18167-113.953-128.97508a303.84765,303.84765,0,0,0-7.72563-31.11712c-3.4323-11.282-6.8514-20.18638-9.01323-25.53749,6.74442,6.62009,14.91423,14.59312,24.24989,23.60609,16.204,15.64385,20.22057,19.26359,26.8251,22.74768,7.35332,3.87911,14.07113,5.56252,30.04411,7.72563,34.84643,4.719,38.28486,1.50268,59.22982,5.15042a156.22645,156.22645,0,0,1,51.28959,20.38707c13.115,8.18465,19.707,15.25327,19.74327,23.17689a16.42694,16.42694,0,0,1-2.146,7.94023c-.16315-.98708-2.21537-12.29286-11.87456-16.30966-6.84993-2.84854-13.29864-.27362-14.52133.2146-12.55274,5.01226-16.4134,21.77459-18.45567,30.47331C451.71059,264.30221,460.69307,290.30045,467.17306,304.59121Z" transform="translate(-6.56839 -31.40436)" style="fill:gold;stroke:#1d1d1b;stroke-miterlimit:10;stroke-width:2px"/><path d="M431.66876,376.601c-.26184,4.64069-.51935,8.94-.76324,12.829-3.44141,54.875-6.95478,79.26416-6.86719,122.75171.05115,25.42645,1.33057,45.9469,2.28906,58.3714,9.29132-12.79968,27.20038-33.47894,55.22406-45.35236,0,0,24.81287-10.50878,46.35364-5.15032,2.86292.71215,6.53455,2.00091,9.15631,5.29345,5.39673,6.77753,2.20715,16.84876,1.57373,18.74182a48.36175,48.36175,0,0,0,14.16364-15.45129c11.77179-20.63129,3.35974-42.953,1.93139-46.56836a52.985,52.985,0,0,0-15.23663-9.22784,55.16021,55.16021,0,0,0-32.40472-2.146,46.00319,46.00319,0,0,1,15.022-9.01324c15.30963-5.52552,29.01636-1.03608,33.47772.64379a128.00843,128.00843,0,0,1,32.11865-109.80407,143.92386,143.92386,0,0,0-153.3681-41.48944c-.65967,26.07421-1.69714,48.32482-2.67035,65.57171" transform="translate(-6.56839 -31.40436)" style="fill:gold;stroke:#1d1d1b;stroke-miterlimit:10;stroke-width:2px"/><path d="M208.68639,726.28176a16.23225,16.23225,0,0,0,9.76435-26.9324,74.29183,74.29183,0,0,1-31.439-6.11612c-.50849,1.33675-4.035,11.10287,1.5022,20.81628C194.96387,725.36394,207.80016,726.237,208.68639,726.28176Z" transform="translate(-6.56839 -31.40436)" style="fill:#f7a81b;stroke:#1d1d1b;stroke-miterlimit:10;stroke-width:2px"/><path d="M267.16512,659.11171a415.34612,415.34612,0,0,1-64.16564-33.04852C185.94692,615.26211,174.971,606.433,152.7829,594.30227a402.59232,402.59232,0,0,0-39.48655-18.88487,52.04566,52.04566,0,0,0-27.4689,13.30525c-17.2356,16.27755-16.23256,38.78349-16.02351,42.20484a84.965,84.965,0,0,0,14.44976,9.44244c6.43216,3.32547,8.41871,3.31017,11.58845,6.00882,5.32745,4.5357,6.15073,10.05737,8.87017,18.31258,0,0,2.5765,7.8212,10.55274,23.48391,9.72,19.08679,28.68562,28.71355,34.08423,31.4539,24.82529,12.60119,48.49349,8.86,56.2254,7.29642a27.57582,27.57582,0,0,1-19.09947-21.46008c-2.54222-14.54873,8.11832-24.4954,8.79864-25.10829a32.07738,32.07738,0,0,1,12.876-1.93141,32.63288,32.63288,0,0,1,17.31115,6.295,74.60751,74.60751,0,0,0,6.29494-32.04709,79.63,79.63,0,0,0,35.40913,6.438Z" transform="translate(-6.56839 -31.40436)" style="fill:gold;stroke:#1d1d1b;stroke-miterlimit:10;stroke-width:2px"/><path d="M344.49292,664.69133a91.2761,91.2761,0,0,0,38.91431-2.57521c16.32743-4.823,27.2552-13.3458,42.06176-24.89369,18.37687-14.33251,14.75553-15.64584,29.18571-26.03821,23.76583-17.11577,39.67217-17.93478,41.48947-29.758,1.27084-8.2679-5.21544-16.27377-6.86723-18.31259a30.44357,30.44357,0,0,0-17.156-10.654c-5.99342-1.217-10.60891-.06869-16.60788,1.49765-3.66466.95684-12.63326,3.62683-33.47772,17.45418-6.60464,4.38124-7.34054,5.19862-11.15924,7.72562-16.40512,10.856-29.95,13.23368-48.64287,19.60024-10.18761,3.46977-24.82783,8.7211-42.59827,16.05467,4.02268-.27726,16.3386-.58591,27.147,7.83754,3.0032,2.34054,16.49319,12.85378,13.44833,26.03826C357.73907,659.45531,346.0066,664.116,344.49292,664.69133Z" transform="translate(-6.56839 -31.40436)" style="fill:gold;stroke:#1d1d1b;stroke-miterlimit:10;stroke-width:2px"/><path d="M244,360c-27.96-3.728-55.14825-9.00006-82.52356-14.13745-.27649.74182-.55811,1.48816-.82483,2.22107-9.29065,4.28558-30.293,15.56824-44.78,39.62958-4.35095,7.22638-14.06433,23.83953-13.8775,47.06915a84.201,84.201,0,0,0,6.15186,30.75946c-1.19275,2.90607-2.34791,6.03253-3.41413,9.37286-1.501,4.70252-2.36279,8.38379-2.88086,10.6565-3.01489,13.227-4.52234,19.84045-4.86426,24.393-.55218,7.35144,1.09571,5.10773,4.86426,29.9726,2.61286,17.23944,2.61829,23.5805,2.53949,26.7893-.04449,1.80982-.18536,5.4549-.25036,11.26654-.10761,9.61078.20428,6.19654.14306,14.16364-.02972,3.8645-.10736,5.22687.4292,7.40375a20.36146,20.36146,0,0,0,4.00586,7.90442,54.12522,54.12522,0,0,0,12.19647,7.11761s2.42682,1.01795,5.04315,1.8241c13.939,4.295,32.62916,3.11786,32.7262,3.11169h.00037a86.02744,86.02744,0,0,0,26.28863-3.75549c7.24781,5.17328,10.2453,7.28912,10.73676,7.60443.03686.02362.313.22168.70691.4646.462.28485.71612.4931.90216.6261,3.85077,2.75244,15.75409,9.73517,15.75409,9.73517,3.38293,1.98456,5.07428,2.97674,5.69592,3.33276,6.67786,3.82471,11.88312,6.51086,14.48932,7.85187,10.48505,5.39477,20.34393,9.79565,25.609,12.08917a27.71175,27.71175,0,0,0,10.444.35767c1.52612-.24909,4.43127-.75061,4.72119-2.146.12628-.60779-.32025-1.01642-1.5022-3.11175-.84424-1.49665-1.08331-2.11579-1.5022-2.8971-1.1239-2.09589-5.59234-9.18152-12.23223-18.45563q31.97542-7.86868,63.951-15.73742c15.65461-8.21906,26.97211-12.60627,35.19458-15.1651,3.75074-1.1673,11.78449-3.48731,13.73444-9.44245.58575-1.78888.49384-3.69671.28613-7.43951a75.57636,75.57636,0,0,0-1.57373-11.73151,110.25923,110.25923,0,0,1,12.12494,14.02057c2.26184,3.11047,4.21478,6.13953,5.90149,9.01325a45.60937,45.60937,0,0,0-1.00146,10.0147c.07049,5.464,1.13354,8.7652-.28614,13.59137a20.03251,20.03251,0,0,1-2.00293,4.57819q16.07721,1.7883,32.15436,3.57666,5.81214-2.43219,11.62421-4.86432,4.81064-2.66465,9.62127-5.32922a36.2721,36.2721,0,0,0,18.99219-11.12348c7.49219-2.38775,12.94715-7.65368,13.30524-13.2337.1203-1.87433-.10339-7.38733-3.64826-10.94464-1.35022-1.355-2.9356-2.17859-3.11169-3.97009-.17017-1.73139,1.1532-2.56232,1.7168-4.93586a9.463,9.463,0,0,0-.3219-5.15039,36.43791,36.43791,0,0,1-16.81037,5.32923,40.282,40.282,0,0,1-13.87756-1.89563,51.86335,51.86335,0,0,1-12.44684-5.365,103.2032,103.2032,0,0,1-9.94311-15.05786,105.8203,105.8203,0,0,1-7.86872-18.74176c-4.05578-12.48755-9.85693-29.2389-17.38269-50.71735a89.16134,89.16134,0,0,0,11.01618-21.81775c1.7218-5.09357,2.29742-8.433,5.00738-15.88043,2.781-7.64252,5.08045-12.11109,6.29492-14.879,9.754-22.23108-.102-49.59949-.78686-51.43262-.07593-.20324-.15863-.42334-.23828-.636C383.45532,374.864,358.36218,373.14075,333,369,303,365,274,364,244,360Zm82,181c16,7,34,3,51,6C360,544,342,548,326,541Z" transform="translate(-6.56839 -31.40436)" style="fill:#e8917b"/><path d="M495.50037,250.86945c-.42389-5.17756-3.97113-4.83832-7.94025-13.01911-3.59106-7.40161-2.64166-11.7074-7.67194-16.84613-2.84069-2.902-4.53436-2.94977-5.2041-2.89715-2.86285.22509-5.472,3.73706-6.599,8.90594-1.00012-.92175-2.4884-2.26074-4.34564-3.80914-2.2561-1.881-11.088-9.24439-18.13379-12.39319-3.03033-1.35431-12.8977-5.13226-28.79223-.2146a49.46971,49.46971,0,0,0-22.17542-7.94025,48.74421,48.74421,0,0,0-15.45129.92993,37.37941,37.37941,0,0,0-25.68055-13.949,38.61684,38.61684,0,0,0-11.5169-20.60169c-3.443-3.10534-8.005-7.22-14.16364-7.01031-6.972.23736-13.50512,5.93207-16.93561,14.34247a35.5744,35.5744,0,0,0-20.92358,2.5216c-2.49445-2.5437-10.55646-10.10687-22.05023-10.13989a29.2726,29.2726,0,0,0-11.15924,2.3606c-13.43408,5.14117-20.74719,16.17047-25.10828,22.74768A81.264,81.264,0,0,0,221.02594,217.356c-4.54773,4.90625-13.23138,15.17993-17.70459,27.89813a50.41708,50.41708,0,0,0-2.146,27.147,301.53686,301.53686,0,0,0-39.69891,73.46149C188.85175,350.99994,216.04,356.272,244,360c30,4,59,5,89,9,25.36218,4.14075,50.45532,5.864,75.42029,6.8465-2.32166-6.19983-6.2309-16.22119-13.03119-21.0387a24.67486,24.67486,0,0,1-5.11462-4.57819,26.53268,26.53268,0,0,1-5.18622-10.5512c-3.7439-13.58283-6.77368-27.22516-7.40375-30.0799a73.07766,73.07766,0,0,0,25.609-12.876c5.781.71735,23.60919,2.16956,41.34643-8.727a63.04973,63.04973,0,0,0,21.10242-21.53167c1.57794.0147,3.9068.01416,6.72418-.07148,8.88886-.27026,13.33332-.40539,16.01532-2.02917A15.27993,15.27993,0,0,0,495.50037,250.86945Z" transform="translate(-6.56839 -31.40436)" style="fill:#e8917b"/><path d="M380.90356,383.56427c-3.81073-1.25677-11.73938-2.22833-17.81189-2.5752a107.86622,107.86622,0,0,0-21.03088.8584c2.16827-3.18609,4.41815-6.72216,6.66834-10.588C343.496,370.59375,338.25482,369.85791,333,369c-27.1911-3.62549-53.563-4.79358-80.60034-7.95758a119.54571,119.54571,0,0,0,19.37939,27.2431,106.903,106.903,0,0,0-21.13818-1.50226,108.1607,108.1607,0,0,0-37.01868,7.72565c1.72821,6.92151,4.60657,22.21973-.3219,39.415-2.72345,9.50214-4.998,17.43823-11.58844,23.74915-1.69165,1.61993-4.08929,3.53649-5.86572,7.22491a20.7985,20.7985,0,0,0-1.10876,15.23663c2.91412,8.33783,12.95012,14.14429,24.46447,13.09064a18.19791,18.19791,0,0,0-2.78979,12.23224c1.30658,9.1593,9.54016,13.36218,10.30084,13.73444a20.44937,20.44937,0,0,0-1.681,12.87609,20.83784,20.83784,0,0,0,8.87012,12.94751,8.91811,8.91811,0,0,0-.39337,3.04023,9.554,9.554,0,0,0,2.46789,5.83,170.47878,170.47878,0,0,0,34.26453-4.64972,107.25336,107.25336,0,0,0,11.44543-3.29052c9.53894-3.39649,11.85486-5.9303,19.171-7.86872,2.15833-.57184,3.4704-.75238,14.02057-1.57373,11.73383-.91351,17.60077-1.37024,23.74921-1.71679,7.58166-.42731,17.41949-.90931,29.0426-1.2876q.8942-3.39789,1.78839-6.79572a24.153,24.153,0,0,0,2.146-6.15191,24.40371,24.40371,0,0,0-.0716-9.94312q-.82251-2.11029-1.6452-4.22052a13.65294,13.65294,0,0,0,5.365-4.57812,13.25937,13.25937,0,0,0,1.14453-13.01917,10.74625,10.74625,0,0,0-1.5022-2.21753,29.11523,29.11523,0,0,0,10.73005-5.79419c4.02166-3.47351,6.25116-7.45489,9.44244-15.23663a198.94071,198.94071,0,0,0,8.36945-25.10834C402.55219,411.97345,394.61273,388.08569,380.90356,383.56427Z" transform="translate(-6.56839 -31.40436)" style="fill:#fff;opacity:0.5"/><path d="M348.72913,371.25946a173.24478,173.24478,0,0,0,21.22979-58.728,477.93355,477.93355,0,0,1-74.46649,7.94019,477.57326,477.57326,0,0,1-55.7962-1.7168,119.47233,119.47233,0,0,0,10.08624,36.91138q1.27076,2.7876,2.61719,5.37622C279.437,364.20642,305.8089,365.37451,333,369,338.25482,369.85791,343.496,370.59375,348.72913,371.25946Z" transform="translate(-6.56839 -31.40436)" style="fill:#fff;opacity:0.5"/><path id="f60e3a47-dc5c-4ddf-932c-69e9f0c87f4c" data-name="bas ventre" d="M243.34443,600.794a16.46963,16.46963,0,0,0,.75109,8.47673,16.90026,16.90026,0,0,0,7.64517,8.77181c-2.55509,5.61776-1.83459,11.521,1.58267,14.63754a9.65345,9.65345,0,0,0,5.32925,2.32488,8.80337,8.80337,0,0,0-1.85984,6.36645,9.22633,9.22633,0,0,0,7.43946,7.43952,6.575,6.575,0,0,0-1.57373,5.72265c.08635.33846.72282,2.871,2.7183,3.57675.35973.12721.4083.06947,3.02228-.17887,0,0,3.53116-.33552,4.843-1.17779a1.64441,1.64441,0,0,0,.58575-.60587,1.62292,1.62292,0,0,0,.18175-.82812,3.05986,3.05986,0,0,0-.88869-1.69669,31.30638,31.30638,0,0,1-1.55649-2.827c-.43559-.832-.7173-1.43-.82685-1.65687a90.32389,90.32389,0,0,0-5.77212-9.12682s-2.80568-4.16727-5.38372-7.75842c-.05941-.08278-.242-.33212-.36361-.49826-.16608-.22686-.17735-.24116-.202-.2693-.14251-.16283-.231-.21549-.21544-.2693.01954-.06764.18364-.06874.32316-.08079a4.51527,4.51527,0,0,0,.781-.202c.59356-.15692,1.1944-.26411,1.93895-.44434.82293-.1992.80685-.242,2.24534-.63537,0,0,.56511-.15456,1.35913-.35769,1.99291-.50988,52.90611-13.027,58.6933-14.44977,4.11709-2.32791,8.624-4.66049,13.51985-6.903a178.60269,178.60269,0,0,1,21.74794-8.292q.19584-4.49169.39174-8.98337c.40562-.29025,4.03435-2.97853,4.00584-7.43951a8.75321,8.75321,0,0,0-1.57372-4.86425l-7.15334.71532a18.45324,18.45324,0,0,1,.28612,13.01913q-22.03231,3.79129-44.06468,7.58254a50.87524,50.87524,0,0,1-28.18427,1.43069,49.339,49.339,0,0,1-15.02206-6.438Q255.71977,597.83423,243.34443,600.794Z" transform="translate(-6.56839 -31.40436)" style="fill:#fff;opacity:0.5"/><g id="bfd7d0cc-9b13-4efe-a396-49f84b472a5b" data-name="ombres" style="opacity:0.30000000000000004"><path d="M239.1535,359.32605c3.83185,8.07269,4.135,10.97675,3.76172,13.79431-.85553,6.45874-4.9942,11.08515-7.72564,13.59143a124.20679,124.20679,0,0,1,33.33465-.57232,121.37368,121.37368,0,0,1-17.78039-25.29084Q247.37872,360.44489,244,360C242.38019,359.784,240.76831,359.55206,239.1535,359.32605Z" transform="translate(-6.56839 -31.40436)" style="fill:#1d1d1b;opacity:0.7000000000000001"/><path d="M237.55023,318.111a62.73927,62.73927,0,0,1-37.269-42.27636,254.91335,254.91335,0,0,0-30.04407,54.79473,64.46069,64.46069,0,0,1,15.45123-19.88629c3.78046-3.21246,6.50928-4.67016,9.58551-4.57818,3.72034.1112,6.39808,2.44262,10.01471,5.86578,7.57239,7.16742,11.35859,10.75116,15.022,15.45123,7.20233,9.24042,11.08594,16.64954,16.16662,26.46747,1.048,2.02521,1.92353,3.79077,2.67627,5.37665,1.61481.226,3.22669.45795,4.8465.67395q3.38078.45081,6.74384.84863c-.08167-.155-.16474-.30523-.246-.46124A122.01412,122.01412,0,0,1,237.55023,318.111Z" transform="translate(-6.56839 -31.40436)" style="fill:#1d1d1b;opacity:0.7000000000000001"/><path d="M364.37927,369.186c-.76043-1.97651.81647-7.07612,3.9701-17.2754,2.42157-7.83148,3.90417-11.27325,5.6029-11.24853.90466.01312,1.09168.99811,3.51764,3.523a42.73366,42.73366,0,0,0,5.57965,4.72119,71.97466,71.97466,0,0,0,6.54529,4.39929,43.95111,43.95111,0,0,1,11.69574,11.15924,36.4178,36.4178,0,0,0-5.84784-8.74493c-3.921-4.312-6.90814-5.40088-8.8523-9.92529-.27246-.6341-.23394-.65973-1.50219-5.90155-.80573-3.33045-1.65381-6.65052-2.4679-9.97895-.93957-3.84143-2.61621-9.88873-5.8479-19.42132q-3.19217.99243-6.38434,1.985A205.73151,205.73151,0,0,1,357.72668,354.164c-2.64172,6.22852-5.43957,11.9494-8.26428,17.1919q9.406,1.18194,18.77075,2.01568A7.94414,7.94414,0,0,1,364.37927,369.186Z" transform="translate(-6.56839 -31.40436)" style="fill:#1d1d1b;opacity:0.7000000000000001"/><path d="M383.80066,381.41827c-6.41351-4.88958-11.93048-5.99737-15.56751-8.04669q-9.36519-.84091-18.77075-2.01568c-2.03979,3.78564-4.09314,7.32934-6.114,10.59887a113.98615,113.98615,0,0,1,17.16809-1.60949c4.97479-.08954,9.0163-.1623,13.09064.64379,3.908.7732,12.63086,3.3017,21.53161,13.73444A42.58326,42.58326,0,0,0,383.80066,381.41827Z" transform="translate(-6.56839 -31.40436)" style="fill:#1d1d1b;opacity:0.7000000000000001"/><path d="M259.511,371.11743a68.29309,68.29309,0,0,1,3.01025-8.96979q-4.54962-.46224-9.12042-.988C255.45386,364.90369,257.53516,368.2265,259.511,371.11743Z" transform="translate(-6.56839 -31.40436)" style="fill:#1d1d1b;opacity:0.7000000000000001"/><path d="M348.41876,371.21863a145.06488,145.06488,0,0,0,17.14081-42.48487,141.71761,141.71761,0,0,0,2.6825-16.095c-3.53858.68531-8.49878,1.59894-14.44977,2.53943a431.0979,431.0979,0,0,1-48.85742,4.86426c-7.56373.32257-17.137.53259-28.2558.28613a107.97135,107.97135,0,0,1-37.05439-2.00293,118.75458,118.75458,0,0,0,13.77613,42.834q4.57122.52707,9.12042.988a64.48568,64.48568,0,0,1,6.86139-12.49029c4.16186-5.89966,7.7066-10.9245,14.44983-13.4483,6.22357-2.32929,12.53992-1.54316,14.59283-1.2876a35.97075,35.97075,0,0,1,8.441,2.146c2.803,1.0409,9.90973,3.68012,14.16364,8.72712,5.05291,5.99493,4.713,13.76428,4.29205,21.03088-.02356.40668-.06543.80273-.096,1.20538,2.58545.30542,5.17487.62262,7.774.96918C338.151,369.841,343.2887,370.56262,348.41876,371.21863Z" transform="translate(-6.56839 -31.40436)" style="fill:#1d1d1b;opacity:0.7000000000000001"/><path d="M314.939,400.16388a43.51561,43.51561,0,0,0-2.3858,3.89477C313.34,402.84735,314.14069,401.54175,314.939,400.16388Z" transform="translate(-6.56839 -31.40436)" style="fill:#1d1d1b;opacity:0.7000000000000001"/><path d="M333,369c-2.59912-.34656-5.18854-.66376-7.774-.96918a75.72682,75.72682,0,0,1-10.287,32.13306,41.77476,41.77476,0,0,1,25.83423-17.35071c2.50171-3.45019,5.092-7.32672,7.64557-11.59454C343.2887,370.56262,338.151,369.841,333,369Z" transform="translate(-6.56839 -31.40436)" style="fill:#1d1d1b;opacity:0.7000000000000001"/><path d="M124.31254,504.313a31.55664,31.55664,0,0,0-7.15337-11.01621c-2.5158-2.48981-5.87205-5.81146-9.01324-5.00734-2.13254.54594-3.29705,2.77095-4.86427,6.58111a118.003,118.003,0,0,0-5.86576,18.5987,108.84681,108.84681,0,0,1,1.2876-14.16365,110.17128,110.17128,0,0,1,9.44243-30.33023,91.08972,91.08972,0,0,0,8.01178,13.16217c3.09541,4.2172,4.90983,5.89245,6.438,9.44243A25.18622,25.18622,0,0,1,124.31254,504.313Z" transform="translate(-6.56839 -31.40436)" style="fill:#1d1d1b;opacity:0.7000000000000001"/><path d="M182.2905,538.39877c.05759-8.38646-.26685-24.83842-3.97011-37.55514-.44376-1.52384-1.15649-3.75106-3.00441-4.50662-5.53087-2.26137-15.73069,10.90975-19.95787,16.69863a64.82951,64.82951,0,0,1,6.54531-12.51391,74.62315,74.62315,0,0,1,6.97454-8.69133,153.75715,153.75715,0,0,1,15.66586-15.02206,107.55816,107.55816,0,0,1-2.25332,61.59043Z" transform="translate(-6.56839 -31.40436)" style="fill:#1d1d1b;opacity:0.7000000000000001"/><path d="M395.99711,586.71973c.96377,1.12828,2.4381,2.8104,4.32779,4.79273,1.3277,1.39281,2.02175,2.054,2.307,2.36061,1.59892,1.719,2.67209,5.54227.161,14.86111q37.19766-16.19031,36.32119-18.61662-.19828-.54855-2.34275-.39342c-3.73052,1.79241-15.91582,7.05411-29.68642,2.71824A37.0349,37.0349,0,0,1,395.99711,586.71973Z" transform="translate(-6.56839 -31.40436)" style="fill:#1d1d1b;opacity:0.7000000000000001"/><path d="M361.37488,549.12878l13.4483,1.44855q.51279-1.92745.97022-3.77478a104.17024,104.17024,0,0,0-13.22388-1.07043Q361.984,547.39673,361.37488,549.12878Z" transform="translate(-6.56839 -31.40436)" style="fill:#1d1d1b;opacity:0.7000000000000001"/><path d="M402.47089,526.5957c-6.33045-15.88287-11.67481-31.14624-16.20234-45.60266l-10.587,4.292a21.5952,21.5952,0,0,1,1.28766,8.87018,15.42282,15.42282,0,0,1-2.003,7.29645c-1.16547,1.93573-1.69873,1.66968-2.5752,3.14746-2.10547,3.54981-.0282,6.77112-.28613,12.16071-.12311,2.57263-.70508,4.10962-2.28912,8.51251-2.104,5.8482-4.4776,12.58789-7.24628,20.45978a104.17024,104.17024,0,0,1,13.22388,1.07043,225.45255,225.45255,0,0,0,4.681-24.28424c.90032-6.655,1.41522-12.799,3.43359-13.09064,2.12506-.30719,4.63678,6.06195,5.47229,8.04749,4.40112,10.45892,12.27264,25.06439,27.5047,42.491C411.99988,549.48608,407.15967,538.3595,402.47089,526.5957Z" transform="translate(-6.56839 -31.40436)" style="fill:#1d1d1b;opacity:0.7000000000000001"/><path d="M258.86721,657.60951c-7.26143-3.34916-13.31521-6.21672-17.81187-8.36943-9.292-4.44857-12.17975-5.96209-13.87748-6.86723-6.08982-3.24673-4.314-2.63446-13.73448-7.86871-5.09745-2.83225-9.92083-6.13383-14.95051-9.08475-.07877-.04621-.55324-.38849-1.50221-1.073a5.67826,5.67826,0,0,1-1.35914-1.43069c-.6403-.81487-2.71877-2.78044-8.36944-7.43946q29.97108-8.44095,59.94213-16.88195a5.08922,5.08922,0,0,0-1.62072,1.222c-1.79372,2.0562-1.26607,5.05118-.91567,7.04017.42307,2.40127,1.06614,6.05142,4.292,8.19061a9.19817,9.19817,0,0,0,4.68543,1.46643,11.12394,11.12394,0,0,0-3.43361,5.54383c-.901,3.619.02153,8.39621,3.64821,10.98043a10.17584,10.17584,0,0,0,7.22491,1.6095c3.04219,3.85129,5.40709,7.23036,7.15335,9.87164,3.384,5.11846,1.31238,2.72882,4.72121,8.15483,1.27011,2.02163,1.62659,2.6406,1.43069,3.29058C273.95187,657.41817,270.72186,658.59659,258.86721,657.60951Z" transform="translate(-6.56839 -31.40436)" style="fill:#1d1d1b;opacity:0.6000000000000001"/><path d="M309.9422,175.75919c.41557-1.22356,3.2265-9.072,11.44541-12.30376a18.54743,18.54743,0,0,1,11.87456-.64381c5.62991,1.67945,8.61258,5.82721,12.44684,11.15925a54.5454,54.5454,0,0,1,7.72563,15.52277q-6.04461,1.00146-12.08916,2.00295a49.42316,49.42316,0,0,0-31.40328-15.7374Z" transform="translate(-6.56839 -31.40436)" style="fill:#1d1d1b;opacity:0.7000000000000001"/><path d="M301.50125,408.99449a71.52006,71.52006,0,0,0-28.75651-14.27095q5.05227,4.18471,10.10458,8.36943a28.86494,28.86494,0,0,0-11.4995,2.68251q10.748,6.84936,21.49588,13.69867-3.219-.28616-6.438-.57224c-2.73941.03123-8.34491.168-9.87164.89414-.21423.1019-1.06106.50464-1.00149.7511.01918.07927.12611.1172.37367.19611.594.18934.891.28407,1.02123.30466.22278.03526,2.688.7269,7.61834,2.11022,0,0,2.01963.56663,12.01764,6.21033l24.79415-2.73868a57.75834,57.75834,0,0,1,7.55692-10.39252c1.17066-1.28027,2.341-2.44323,3.48726-3.498a14.47114,14.47114,0,0,0-3.38.01068,14.96177,14.96177,0,0,0-6.68548,2.57521,44.14508,44.14508,0,0,1,10.06544-8.87014,22.23561,22.23561,0,0,0-6.54534,2.70037,39.34394,39.34394,0,0,1,3.00442-3.219,39.80922,39.80922,0,0,1,8.63769-6.27707,20.21558,20.21558,0,0,0-17.27536,8.584,11.54846,11.54846,0,0,1,3.7958-7.36795,41.07081,41.07081,0,0,0-17.04741,7.36795Q304.23741,408.619,301.50125,408.99449Z" transform="translate(-6.56839 -31.40436)" style="fill:#1d1d1b;opacity:0.6000000000000001"/><g style="opacity:0.7000000000000001"><path d="M234.90349,517.90439c-1.16187-.37392-7.10247-2.40608-8.94172-7.79714a6.7991,6.7991,0,0,1-.07152-5.29351c1.10785-2.23256,3.8625-3.547,7.046-3.43361,13.98569-.97744,25.282-1.07473,33.26313-.9657,14.21825.19422,24.95186,1.13923,34.97992-5.79422a33.04667,33.04667,0,0,0,4.82853-4.07742,24.74084,24.74084,0,0,0,5.04311,3.32631c5.7881,2.86426,11.28285,2.68372,15.23666,2.46791,25.353-1.3839,29.3846-1.53065,37.44785-1.8241,1.67-.06078,4.6793-.13161,6.00882,1.7168,2.0232,2.81281-1.19267,8.19439-2.03872,9.54974a13.34,13.34,0,0,0,6.75994-19.52867c-10.09441.788-18.53777,1.12906-24.78641,1.2876-9.67028.24536-4.35959-.19322-18.88487-.1073-8.7796.052-12.84025.22476-17.70455-2.03871a25.00711,25.00711,0,0,1-8.36943-6.438,37.56926,37.56926,0,0,1-9.12055,7.08182,40.46395,40.46395,0,0,1-17.59726,4.72122c-12.08941.81728-31.98368,2.23193-57.33418,3.4694a15.725,15.725,0,0,0-3.50513,10.15775c.22054,5.98074,4.26163,12.07732,10.22932,13.73445A13.36592,13.36592,0,0,0,234.90349,517.90439Z" transform="translate(-6.56839 -31.40436)" style="fill:#1d1d1b;opacity:0.7000000000000001"/><path d="M364.05737,518.01166a5.17077,5.17077,0,0,1,1.2876,3.43365c-.20953,3.84778-6.097,6.16974-7.08185,6.54529a11.38242,11.38242,0,0,0,8.1012-1.55585,10.81472,10.81472,0,0,0,3.48724-3.75549,19.52877,19.52877,0,0,0,.80481-9.17419,19.29246,19.29246,0,0,0-1.985-6.00885,253.17356,253.17356,0,0,0-29.23938,1.12664c-9.07373.89069-17.63031,2.25977-27.36164-1.87774a36.91962,36.91962,0,0,1-5.31134-2.7898,25.95255,25.95255,0,0,1-5.75842,5.22193,28.80769,28.80769,0,0,1-13.87756,4.43512c-9.06421.80419-30.67633,3.47387-59.94513,6.79571a15.42768,15.42768,0,0,0-2.146,7.86865,15.24049,15.24049,0,0,0,1.216,5.86579,14.416,14.416,0,0,0,4.22052,6.93872c4.731,4.17523,12.32965,4.67895,19.31409,1.35913-7.76556.381-13.13916-4.23645-13.23376-8.44092-.07959-3.53766,3.59094-6.21686,4.22052-6.66339,31.86352-2.34912,55.05755-5.06281,59.1491-6.656a13.6746,13.6746,0,0,0,4.80182-3.20477,11.78635,11.78635,0,0,0,2.468-4.50671,11.48709,11.48709,0,0,0,2.6825,3.86279,13.211,13.211,0,0,0,4.50665,2.5752C322.463,522.00708,357.598,510.41052,364.05737,518.01166Z" transform="translate(-6.56839 -31.40436)" style="fill:#1d1d1b;opacity:0.7000000000000001"/><path d="M366.23022,533.8385a18.8647,18.8647,0,0,0,2.44111-6.8136c-18.37793,1.75092-32.278,3.34357-42.27637,5.15045-3.355.60627-10.5119,2.00318-15.344-2.03875a12.1438,12.1438,0,0,1-3.54089-5.25769,16.54324,16.54324,0,0,1-2.89709,5.57959c-4.10492,5.1206-10.40021,6.269-15.2367,7.08184-33.73913,5.67041-39.98047,6.12134-45.81726,6.438-4.22211.22907-7.67358.35755-9.87164.4292a9.62468,9.62468,0,0,0,1.93146,8.90595,169.23956,169.23956,0,0,0,33.37036-4.18476,128.27818,128.27818,0,0,0,14.98632-4.32782c7.35169-2.64306,7.5597-3.52471,12.44684-4.86419,5.88391-1.61273,8.49482-1.13306,18.31263-2.003,7.05548-.62519,9.86059-1.24091,15.73736-2.00293A277.27911,277.27911,0,0,1,366.23022,533.8385Z" transform="translate(-6.56839 -31.40436)" style="fill:#1d1d1b;opacity:0.7000000000000001"/><path d="M264.93864,615.36a9.41723,9.41723,0,0,1-1.93141-.05365c-1.49115-.19632-3.48768-.45923-4.42614-2.01189a3.9251,3.9251,0,0,1,.42737-4.493,4.15389,4.15389,0,0,1,3.07776-.97928c3.82829.0876,5.7424.13141,25.03678.64381,9.40869.24986,20.98267-1.52144,25.001-3.75552a12.84251,12.84251,0,0,1,4.72122-1.6095,12.55275,12.55275,0,0,1,4.39933.2146c2.6406.5683,10.66444-.50774,30.75943-5.79422a4.96127,4.96127,0,0,1,0,1.9314c-.56883,2.79951-3.474,4.05892-3.86281,4.2205,8.52545-1.3949,10.86217-3.7311,11.37384-5.65119.44523-1.6708-.48956-3.03385.35768-5.86573.66623-2.22675,1.6651-2.791,2.57521-4.72122a12.89358,12.89358,0,0,0,.75109-8.04753c-2.44578-.69028-5.61146-1.229-6.97451.3219-2.00224,2.27809,1.803,6.88289,0,10.40814-1.3531,2.64557-5.01656,2.96679-10.94464,3.75551-6.78476.90273-13.51513,2.17624-20.27979,3.219-12.08789,1.86341-11.13015,3.10082-20.92356,4.292-9.79169,1.191-14.74752,1.975-19.95788.2146-6.09417-2.05893-9.37453-5.6526-16.63157-5.68692-2.11828-.01-4.43352.482-8.97744,1.46642-5.99174,1.29808-10.85588,2.66774-14.19944,3.684-.71122,6.17789,1.07579,11.8908,5.04313,14.271,2.69953,1.61951,6.15719,1.54517,8.15483,1.50221A22.01458,22.01458,0,0,0,264.93864,615.36Z" transform="translate(-6.56839 -31.40436)" style="fill:#1d1d1b;opacity:0.7000000000000001"/><path d="M263.57056,632.28661a5.76334,5.76334,0,0,1-4.84639-3.64821,3.87361,3.87361,0,0,1,.35764-3.29053c1.13823-1.44588,3.6632-1.205,4.4351-1.14457,8.24211.64564,36.90038-2.01833,55.25969-7.74349,1.31371-.40966,3.58263-1.14934,6.38439-2.25331a4.62949,4.62949,0,0,0-.84054-3.09385c-.96136-1.21656-2.28516-1.20959-4.292-2.18174a13.63552,13.63552,0,0,1-3.71973-2.68251,20.38516,20.38516,0,0,1-8.26214,7.79715c-3.906,1.905-7.12614,1.67306-15.70163,1.85989-4.87331.1062-9.7384.46441-14.61072.608-5.80774.17116-14.11215.582-24.41085,1.66315a9.558,9.558,0,0,0-2.73615,6.33073,9.06267,9.06267,0,0,0,6.22342,8.79863A8.96567,8.96567,0,0,0,263.57056,632.28661Z" transform="translate(-6.56839 -31.40436)" style="fill:#1d1d1b;opacity:0.7000000000000001"/></g></g><path d="M201.06808,271.54268A318.59737,318.59737,0,0,0,161.36693,348.799" transform="translate(-6.56839 -31.40436)" style="fill:none;stroke:#1d1d1b;stroke-miterlimit:10;stroke-width:2px"/><path d="M238.817,316.94621a121.10174,121.10174,0,0,0,33.92772,71.76851" transform="translate(-6.56839 -31.40436)" style="fill:none;stroke:#1d1d1b;stroke-miterlimit:10;stroke-width:2px"/><path d="M369.38661,311.41835a158.75708,158.75708,0,0,1-28.04113,70.85834" transform="translate(-6.56839 -31.40436)" style="fill:none;stroke:#1d1d1b;stroke-miterlimit:10;stroke-width:2px"/><path d="M401.93442,444.08172a81.97529,81.97529,0,0,0,10.94464-34.05,78.50694,78.50694,0,0,0-2.28909-27.4689,76.81508,76.81508,0,0,0-22.89072-36.339l-9.95164-36.98647" transform="translate(-6.56839 -31.40436)" style="fill:none;stroke:#1d1d1b;stroke-miterlimit:10;stroke-width:2px"/><path d="M123.168,491.19948a97.91463,97.91463,0,0,1-11.01618-16.50136,83.1779,83.1779,0,0,1-8.87015-24.03529,84.09837,84.09837,0,0,1-.8584-24.60758,90.81869,90.81869,0,0,1,10.65849-33.47772c7.95726-14.52527,17.75335-23.03354,23.96375-28.3273a117.31694,117.31694,0,0,1,27.32584-17.40268" transform="translate(-6.56839 -31.40436)" style="fill:none;stroke:#1d1d1b;stroke-miterlimit:10;stroke-width:2px"/><path d="M161.36693,499.61905a370.42475,370.42475,0,0,1,27.6835-29.14143c6.70911-6.31836,11.54276-10.36623,16.30966-18.24107a67.26683,67.26683,0,0,0,8.584-23.60609,75.085,75.085,0,0,0-2.78982-38.19894,69.531,69.531,0,0,0-8.01177-15.59434" transform="translate(-6.56839 -31.40436)" style="fill:none;stroke:#1d1d1b;stroke-miterlimit:10;stroke-width:2px"/><path d="M354.93685,579.28022a15.33365,15.33365,0,0,1,1.7168,8.94172,14.44431,14.44431,0,0,1-1.073,3.93433,437.56407,437.56407,0,0,0-45.6778,7.94484c-6.42194,1.49942-15.04307,3.705-25.78427,1.35451a47.93389,47.93389,0,0,1-15.88045-6.72414c-10.95245,2.2685-27.64673,5.9417-47.9275,11.30232-22.27981,5.889-30.35674,8.91631-47.78446,11.73148,0,0-33.77832,5.45628-54.40131-3.827A28.88561,28.88561,0,0,1,106.45,604.538a22.29916,22.29916,0,0,1-2.02385-3.94083s.693-43.198-2.51281-60.94662c-.92253-5.10735-2.0653-10.30068-2.0653-10.30068-1.33724-6.07714-2.283-9.41153-2.69262-11.16684-1.68021-7.19976-.24546-13.57471,2.6926-26.03077a200.46324,200.46324,0,0,1,8.10477-26.15987" transform="translate(-6.56839 -31.40436)" style="fill:none;stroke:#1d1d1b;stroke-miterlimit:10;stroke-width:2px"/><path d="M126.74466,513.61238q-.07152,8.22639-.14306,16.45274a55.455,55.455,0,0,0-4.57816,7.72563,56.91439,56.91439,0,0,0-5.57962,21.317" transform="translate(-6.56839 -31.40436)" style="fill:none;stroke:#1d1d1b;stroke-miterlimit:10;stroke-width:2px"/><path d="M324.14162,580.03132q11.794-.05753,24.3572-.6438,7.218-.34658,14.16365-.8584a11.56454,11.56454,0,0,0,2.146-5.54384,12.25053,12.25053,0,0,0-2.89712-8.94172" transform="translate(-6.56839 -31.40436)" style="fill:none;stroke:#1d1d1b;stroke-miterlimit:10;stroke-width:2px"/><path d="M325.60805,562.11216l49.21515,2.00292a13.04316,13.04316,0,0,0,4.14893-9.192,12.82461,12.82461,0,0,0-2.86132-8.11905c-8.83452-.60943-16.34236-1.33528-22.13968-1.96719-8.70987-.94941-13.06481-1.42414-17.81187-2.25331-3.56023-.6219-9.76484-1.81289-20.17247-3.64821a45.12684,45.12684,0,0,0-8.15483-.9657,39.95795,39.95795,0,0,0-12.98334,2.0387c-2.22019.7576-4.55607,1.82846-9.22783,3.97012-1.80325.82665-3.13015,1.46417-3.43361,1.6095-3.3906,1.624-10.9097,4.98539-27.54042,12.08917" transform="translate(-6.56839 -31.40436)" style="fill:none;stroke:#1d1d1b;stroke-miterlimit:10;stroke-width:2px"/><path d="M130.75056,564.04356a148.51858,148.51858,0,0,1,44.35082-11.58844c22.79489-2.21244,34.12182,2.30691,60.08822,1.2876a206.23638,206.23638,0,0,0,42.85436-6.24155" transform="translate(-6.56839 -31.40436)" style="fill:none;stroke:#1d1d1b;stroke-miterlimit:10;stroke-width:2px"/><path d="M185.11608,473.83971a103.96052,103.96052,0,0,1-7.44017,78.39185" transform="translate(-6.56839 -31.40436)" style="fill:none;stroke:#1d1d1b;stroke-miterlimit:10;stroke-width:2px"/><path d="M367.06177,539.25714a17.20577,17.20577,0,0,0,3.827-6.33069c-3.73333.4925-9.32757,1.1283-16.16656,1.5022-6.73175.368-11.17194.291-14.37824.3219a149.85047,149.85047,0,0,0-28.75653,3.21686q20.38705,3.347,40.77417,6.69384C353.80414,544.73621,361.55048,544.999,367.06177,539.25714Z" transform="translate(-6.56839 -31.40436)" style="fill:none;stroke:#1d1d1b;stroke-miterlimit:10;stroke-width:2px"/><path d="M311.58749,405.45358a44.30452,44.30452,0,0,1,11.83238-14.19881c10.297-8.01321,21.20042-8.89587,29.371-9.55036,10.47588-.83918,25.516-2.044,35.94561,7.65411,4.27752,3.9775,5.91941,8.05932,8.69135,14.95054a76.62452,76.62452,0,0,1,3.71973,44.02213,75.52682,75.52682,0,0,1-7.58254,20.50114c-3.37619,6.16023-6.155,11.2306-11.73153,14.59285-1.50928.91-4.11461,2.05081-17.7403,3.1475-9.66955.77824-16.7387.8584-16.7387.8584-8.01913.0909-18.77537.07728-31.79687-.3219a13.432,13.432,0,0,1-8.584-9.97894" transform="translate(-6.56839 -31.40436)" style="fill:none;stroke:#1d1d1b;stroke-miterlimit:10;stroke-width:2px"/><path d="M301.28665,477.41636a11.234,11.234,0,0,1-2.57521,7.29643,10.23211,10.23211,0,0,1-4.72122,2.86137c-12.51815,3.89782-39.62947,4.86425-39.62947,4.86425-11.199.39918-9.09031.88481-17.16822,1.00149A188.59671,188.59671,0,0,1,206.8623,491.437a20.144,20.144,0,0,1-9.22783-6.15191c-6.599-7.91676-4.10532-18.107-3.7946-19.29264" transform="translate(-6.56839 -31.40436)" style="fill:none;stroke:#1d1d1b;stroke-miterlimit:10;stroke-width:2px"/><path d="M296.56543,406.09738a36.31907,36.31907,0,0,0-8.584-10.51544c-3.14839-2.61843-10.49338-7.776-28.32731-8.79863a112.77338,112.77338,0,0,0-47.15014,7.88894" transform="translate(-6.56839 -31.40436)" style="fill:none;stroke:#1d1d1b;stroke-miterlimit:10;stroke-width:2px"/><path d="M220.16755,493.2253a17.47382,17.47382,0,0,0-3.64822,11.803,17.15883,17.15883,0,0,0,5.22194,10.87313c5.32751,5.04558,12.15989,3.2756,30.1872,1.85984,0,0,35.6035-2.7961,46.99757-7.58255a14.39575,14.39575,0,0,0,5.65114-4.00589,13.55979,13.55979,0,0,0,2.39638-4.25624,8.62786,8.62786,0,0,0,2.611,4.1132,8.91122,8.91122,0,0,0,3.71973,1.78833,31.69882,31.69882,0,0,0,9.01308,1.1803c16.702-.93668,25.05291-1.405,27.68366-1.60951,16.45636-1.27906,21.27675-.01959,24.35717-4.18471,2.75441-3.72429,2.48632-9.57981,2.46793-9.90742a17.44348,17.44348,0,0,0-2.38157-7.83073" transform="translate(-6.56839 -31.40436)" style="fill:none;stroke:#1d1d1b;stroke-miterlimit:10;stroke-width:2px"/><path d="M227.73511,519.04367a18.44889,18.44889,0,0,0-3.02637,11.89243,17.72253,17.72253,0,0,0,5.10935,10.73428c5.04333,4.90627,11.28048,2.96093,27.82847,1.08107,0,0,32.68188-3.7126,43.032-8.79087a13.27309,13.27309,0,0,0,5.08765-4.15,13.94281,13.94281,0,0,0,2.08586-4.31633,8.7761,8.7761,0,0,0,2.51763,4.0443,7.94077,7.94077,0,0,0,3.47275,1.69177,26.97042,26.97042,0,0,0,8.32631.94752c15.34192-1.36677,23.01285-2.05013,25.42773-2.32236,15.10636-1.70271,19.577-.56794,22.29486-4.81086,2.32859-3.63528,2.186-7.55981,1.99344-9.9671a21.93468,21.93468,0,0,0-2.30146-8.11779" transform="translate(-6.56839 -31.40436)" style="fill:none;stroke:#1d1d1b;stroke-miterlimit:10;stroke-width:2px"/><path d="M305.86478,543.22729a7.984,7.984,0,0,0-4.72122,6.5811,8.13589,8.13589,0,0,0,5.83,8.11905,7.3809,7.3809,0,0,1-1.10878-14.70015Z" transform="translate(-6.56839 -31.40436)" style="fill:#1d1d1b"/><path d="M302.57425,565.40268a6.036,6.036,0,0,0-1.64529,3.29058c-.346,2.52827,1.05194,5.75786,3.71978,6.36646a4.54321,4.54321,0,0,0,4.36354-1.43064,5.21262,5.21262,0,0,0,.78688-4.79278,5.78693,5.78693,0,0,1,1.64524,4.36358c-.35475,2.96465-3.72287,5.01766-6.72414,4.79273a6.91182,6.91182,0,0,1-5.15042-3.43361,6.61335,6.61335,0,0,1,3.00441-9.15632Z" transform="translate(-6.56839 -31.40436)" style="fill:#1d1d1b"/><path d="M302.649,584.1445a5.227,5.227,0,0,0-.81385,6.21516,4.29987,4.29987,0,0,0,8.05672-1.6574c.15909.44441.97705,2.85485-.24414,4.72352-1.5728,2.40661-5.44548,2.25815-7.81258.91158a5.79778,5.79778,0,0,1-3.01108-3.9777A6.19626,6.19626,0,0,1,302.649,584.1445Z" transform="translate(-6.56839 -31.40436)" style="fill:#1d1d1b"/><path d="M240.76922,328.91261c6.12058,1.35661,12.613,2.57427,19.45716,3.5767a273.078,273.078,0,0,0,42.491,2.86132q3.59774,2.28908,7.19552,4.57819l7.11116-5.57962q9.45121-1.27,19.60024-3.1475c10.70364-2.00177,20.7324-4.345,30.04411-6.86722" transform="translate(-6.56839 -31.40436)" style="fill:none;stroke:#1d1d1b;stroke-miterlimit:10;stroke-width:2px"/><path d="M248.50217,350.80189c5.44557,1.35661,11.222,2.57427,17.31132,3.5767a216.6232,216.6232,0,0,0,37.80481,2.86133l6.402,4.57818,6.32691-5.57962c5.60592-.84667,11.42668-1.88378,17.43862-3.1475,9.52317-2.00177,18.44591-4.345,26.73068-6.86722" transform="translate(-6.56839 -31.40436)" style="fill:none;stroke:#1d1d1b;stroke-miterlimit:10;stroke-width:2px"/><path d="M258.79569,371.26048c4.4861,1.35661,9.24478,2.57427,14.26121,3.5767a147.71659,147.71659,0,0,0,31.14394,2.86133l5.274,4.57818,5.21216-5.57962c4.61821-.84667,9.4134-1.88378,14.36609-3.14749a221.542,221.542,0,0,0,22.021-6.86723" transform="translate(-6.56839 -31.40436)" style="fill:none;stroke:#1d1d1b;stroke-miterlimit:10;stroke-width:2px"/><path d="M499.36318,599.02349" transform="translate(-6.56839 -31.40436)" style="fill:none"/><path d="M482.14146,577.40246" transform="translate(-6.56839 -31.40436)" style="fill:none;stroke:#1d1d1b;stroke-miterlimit:10"/><path d="M479.35165,565.43847" transform="translate(-6.56839 -31.40436)" style="fill:none;stroke:#1d1d1b;stroke-miterlimit:10"/><path d="M474.70091,572.60318" transform="translate(-6.56839 -31.40436)" style="fill:none;stroke:#1d1d1b;stroke-miterlimit:10"/><path d="M489.34848,572.07321" transform="translate(-6.56839 -31.40436)" style="fill:none;stroke:#1d1d1b;stroke-miterlimit:10"/><path d="M494.9281,565.47423" transform="translate(-6.56839 -31.40436)" style="fill:none;stroke:#1d1d1b;stroke-miterlimit:10"/><path d="M486.55866,560.10922" transform="translate(-6.56839 -31.40436)" style="fill:none;stroke:#1d1d1b;stroke-miterlimit:10"/><path d="M481.90792,567.27393" transform="translate(-6.56839 -31.40436)" style="fill:none;stroke:#1d1d1b;stroke-miterlimit:10"/><path d="M497.21717,566.54931" transform="translate(-6.56839 -31.40436)" style="fill:none;stroke:#1d1d1b;stroke-miterlimit:10"/><path d="M489.77661,561.75" transform="translate(-6.56839 -31.40436)" style="fill:none;stroke:#1d1d1b;stroke-miterlimit:10"/><path d="M505.62062,561.171" transform="translate(-6.56839 -31.40436)" style="fill:none;stroke:#1d1d1b;stroke-miterlimit:10"/><path d="M519.37959,549.29792" transform="translate(-6.56839 -31.40436)" style="fill:none;stroke:#1d1d1b;stroke-miterlimit:10"/><path d="M386.40593,479.726c6.17895,17.2422,10.70636,31.08537,13.59708,40.18128.61446,1.93339,12.3933,38.676,24.03529,45.35233,3.79863,2.17839,8.262,4.14888,8.262,4.14888a93.104,93.104,0,0,0,9.01338,3.43367" transform="translate(-6.56839 -31.40436)" style="fill:none;stroke:#1d1d1b;stroke-miterlimit:10;stroke-width:2px"/><path d="M450.07651,594.44536" transform="translate(-6.56839 -31.40436)" style="fill:none;stroke:#1d1d1b;stroke-miterlimit:10;stroke-width:2px"/><path d="M425.469,604.46" transform="translate(-6.56839 -31.40436)" style="fill:none;stroke:#1d1d1b;stroke-miterlimit:10;stroke-width:2px"/><path d="M465.4486,577.84864c.79647,1.43441,3.73891,6.16694,4.37119,8.44189a25.7947,25.7947,0,0,1,.8584,8.87015,15.752,15.752,0,0,1-2.71824,4.292,17.4631,17.4631,0,0,1-11.01621,5.43654" transform="translate(-6.56839 -31.40436)" style="fill:none;stroke:#1d1d1b;stroke-miterlimit:10;stroke-width:2px"/><path d="M425.54051,604.28121" transform="translate(-6.56839 -31.40436)" style="fill:none;stroke:#1d1d1b;stroke-miterlimit:10;stroke-width:2px"/><path d="M415.56155,608.35863" transform="translate(-6.56839 -31.40436)" style="fill:none;stroke:#1d1d1b;stroke-miterlimit:10;stroke-width:2px"/><path d="M439.70416,617.05" transform="translate(-6.56839 -31.40436)" style="fill:none;stroke:#1d1d1b;stroke-miterlimit:10;stroke-width:2px"/><path d="M459.01823,605.03231" transform="translate(-6.56839 -31.40436)" style="fill:none;stroke:#1d1d1b;stroke-miterlimit:10;stroke-width:2px"/><path d="M403.36511,615.047" transform="translate(-6.56839 -31.40436)" style="fill:none;stroke:#1d1d1b;stroke-miterlimit:10;stroke-width:2px"/><path d="M436.69975,616.90687c-2.05741,1.33984-4.3453,2.69661-6.86723,4.0059a81.00009,81.00009,0,0,1-12.08916,5.07891q-15.59436-1.10881-31.18868-2.21758" transform="translate(-6.56839 -31.40436)" style="fill:none;stroke:#1d1d1b;stroke-miterlimit:10;stroke-width:2px"/><path d="M386.40593,593.05676" transform="translate(-6.56839 -31.40436)" style="fill:none;stroke:#1d1d1b;stroke-miterlimit:10;stroke-width:2px"/><path d="M386.40593,620.487c.55769-9.39125.55769-9.39125,1.29332-18.74519" transform="translate(-6.56839 -31.40436)" style="fill:none;stroke:#1d1d1b;stroke-miterlimit:10;stroke-width:2px"/><line x1="386.5674" y1="504.9557" x2="394.29302" y2="533.99833" style="fill:none;stroke:#1d1d1b;stroke-miterlimit:10"/><line x1="392.36162" y1="543.69115" x2="372.40458" y2="528.45763" style="fill:none;stroke:#1d1d1b;stroke-miterlimit:10"/><path d="M429.5106,583.89414a18.27487,18.27487,0,0,0,7.61835,4.39931c2.96218.84677,3.95052.93558,5.51617.75393,6.50954-2.94478,14.58479-6.07127,21.09433-9.01606a25.35769,25.35769,0,0,0,2.36061-8.79863,25.03548,25.03548,0,0,0-.10732-5.04312,43.41873,43.41873,0,0,1-6.00882,3.11171,45.24351,45.24351,0,0,1-19.42136,3.43361" transform="translate(-6.56839 -31.40436)" style="fill:none;stroke:#1d1d1b;stroke-miterlimit:10;stroke-width:2px"/><path d="M395.06719,585.39634a35.38722,35.38722,0,0,0,19.09947,8.90593,35.80474,35.80474,0,0,0,24.10592-5.7227" transform="translate(-6.56839 -31.40436)" style="fill:none;stroke:#1d1d1b;stroke-miterlimit:10"/><path d="M403.86583,594.73148a26.06654,26.06654,0,0,1-1.93141,14.37825" transform="translate(-6.56839 -31.40436)" style="fill:none;stroke:#1d1d1b;stroke-miterlimit:10"/><path d="M282.68789,316.75193c-2.57065.94978-32.20306,11.32816-57.79912-7.15339-2.98938-2.15848-21.06279-15.66811-24.03529-40.345-.42936-3.56449-3.274-31.10423,17.74035-48.929,14.16952-12.01885,30.64322-12.3742,35.48064-12.30376" transform="translate(-6.56839 -31.40436)" style="fill:none;stroke:#1d1d1b;stroke-miterlimit:10;stroke-width:2px"/><path d="M334.54977,214.88807c-3.78873-3.21518-9.56792-7.94546-16.95346-13.30524-7.92912-5.75425-7.88229-5.10217-12.66145-8.79864-12.3998-9.59065-13.18406-14.34288-22.31848-19.31407-3.61547-1.96764-8.61447-4.68821-15.09357-4.93582-17.38927-.66455-30.31771,17.06229-35.19453,23.74915a74.61422,74.61422,0,0,0-12.23366,26.81978" transform="translate(-6.56839 -31.40436)" style="fill:none;stroke:#1d1d1b;stroke-miterlimit:10;stroke-width:2px"/><path d="M226.89169,247.22128a57.01657,57.01657,0,0,0,26.75358-3.1475,56.03158,56.03158,0,0,0,14.59286-8.15483" transform="translate(-6.56839 -31.40436)" style="fill:none;stroke:#1d1d1b;stroke-miterlimit:10;stroke-width:2px"/><path d="M281.32877,222.6137a90.54938,90.54938,0,0,1,35.19453,1.93141" transform="translate(-6.56839 -31.40436)" style="fill:none;stroke:#1d1d1b;stroke-miterlimit:10;stroke-width:2px"/><path d="M256.757,194.1791a22.16252,22.16252,0,0,1,4.07742-2.57521,23.34909,23.34909,0,0,1,8.90594-1.93141c9.08292-.14916,25.515,7.46825,34.87262,23.06959.78365,1.30646,1.36227,2.40991,1.7168,3.11171a98.496,98.496,0,0,0-42.169-3.32631,17.88584,17.88584,0,0,1-1.93141-7.90448c.00414-6.97947,4.53758-11.701,3.00441-13.1264-1.08227-1.00618-4.32863.42862-5.54383.9657A15.61337,15.61337,0,0,0,256.757,194.1791Z" transform="translate(-6.56839 -31.40436)" style="fill:gold;stroke:#1d1d1b;stroke-miterlimit:10;stroke-width:2px"/><path d="M277.03676,191.282a10.27361,10.27361,0,0,0-2.28909,5.43656c-.48935,4.95455,3.033,8.35728,3.50518,8.79863a12.34611,12.34611,0,0,1,2.43212-8.22637,11.49287,11.49287,0,0,1,3.29053-2.86135Z" transform="translate(-6.56839 -31.40436)" style="fill:#1d1d1b;stroke:#1d1d1b;stroke-miterlimit:10"/><path d="M310.72908,175.72343c.55285-1.12914,5.88371-11.64262,15.55855-13.09065a15.73834,15.73834,0,0,1,8.47674.8584,16.084,16.084,0,0,1,6.22342,4.82852c6.17088,7.24511,11.09019,17.8455,12.66145,21.35063" transform="translate(-6.56839 -31.40436)" style="fill:none;stroke:#1d1d1b;stroke-miterlimit:10;stroke-width:2px"/><path d="M258.36649,242.24968a38.61882,38.61882,0,0,1-23.60609,5.57962,85.74431,85.74431,0,0,0,20.38708,21.56738c20.0132,14.83868,41.18485,16.757,50.2881,17.025a78.19236,78.19236,0,0,1-35.26605-24.1068A75.56962,75.56962,0,0,1,258.36649,242.24968Z" transform="translate(-6.56839 -31.40436)" style="fill:#fff"/><path d="M456.08533,230.68015a63.6202,63.6202,0,0,1,14.19942-.34082c6.13605.54939,8.63136,1.69936,9.33516,2.03871,3.44608,1.66153,5.42768,3.89037,7.83291,6.65262,4.29575,4.93336,7.46336,8.57109,7.40374,13.62715a14.78626,14.78626,0,0,1-4.0059,9.44244c-2.52617,2.63949-6.39841,4.42446-23.74912,4.14893-14.68-.23315-18.11019-1.6094-28.04118-.57223-3.65765.382-5.79092.84006-14.30674,2.71824-38.15776,8.41574-39.1046,8.87392-43.74279,8.83441-15.555-.13255-16.08908-5.46844-27.93388-3.11171-9.50729,1.89164-13.059,6.0773-24.89369,9.44244a76.65292,76.65292,0,0,1-22.74768,2.86132,86.641,86.641,0,0,1-34.08576-23.8922,84.75835,84.75835,0,0,1-12.98333-20.27977,48.77378,48.77378,0,0,1-23.60609,5.57962,84.072,84.072,0,0,0,23.89221,24.57179,85.5484,85.5484,0,0,0,46.35377,14.30673" transform="translate(-6.56839 -31.40436)" style="fill:none;stroke:#1d1d1b;stroke-miterlimit:10;stroke-width:2px"/><path d="M290.35139,179.16975a47.97185,47.97185,0,0,1,23.52519-2.33756,48.80174,48.80174,0,0,1,27.4689,14.4498" transform="translate(-6.56839 -31.40436)" style="fill:none;stroke:#1d1d1b;stroke-miterlimit:10;stroke-width:2px"/><path d="M332.33219,196.0032a35.50369,35.50369,0,0,1,21.03093-5.72267c15.24415.82484,24.26687,11.61209,25.7521,13.4483" transform="translate(-6.56839 -31.40436)" style="fill:none;stroke:#1d1d1b;stroke-miterlimit:10;stroke-width:2px"/><path d="M369.38661,207.16245a52.96106,52.96106,0,0,1,46.35378,2.53811" transform="translate(-6.56839 -31.40436)" style="fill:none;stroke:#1d1d1b;stroke-miterlimit:10;stroke-width:2px"/><path d="M407.94324,214.45887A45.59554,45.59554,0,0,1,468.682,230.21925" transform="translate(-6.56839 -31.40436)" style="fill:none;stroke:#1d1d1b;stroke-miterlimit:10;stroke-width:2px"/><path d="M383.26415,290.85675c4.44537,1.913,28.50581,11.74914,54.5086.42921a67.54883,67.54883,0,0,0,29.32879-25.03678" transform="translate(-6.56839 -31.40436)" style="fill:none;stroke:#1d1d1b;stroke-miterlimit:10;stroke-width:2px"/><path d="M316.5233,305.87881c9.20761,3.6753,27.57956,9.61224,48.07058,6.438a112.79292,112.79292,0,0,0,23.82069-6.86722,114.27759,114.27759,0,0,0,17.16806-8.80544" transform="translate(-6.56839 -31.40436)" style="fill:none;stroke:#1d1d1b;stroke-miterlimit:10;stroke-width:2px"/><path d="M468.60375,229.69553a9.75309,9.75309,0,0,1,1.4664-7.72563c1.25436-1.682,3.32151-3.12612,5.04314-3.219,4.35363-.235,9.32518,8.01766,12.33953,20.27977" transform="translate(-6.56839 -31.40436)" style="fill:none;stroke:#1d1d1b;stroke-miterlimit:10;stroke-width:2px"/><path d="M444.64,236.88466a29.98216,29.98216,0,0,0-10.08624-7.61833c-6.22578-2.85132-16.91522-5.029-20.06519-.4292-2.20614,3.22158.102,8.57617.4292,9.33513a13.958,13.958,0,0,0,4.72122,5.79422" transform="translate(-6.56839 -31.40436)" style="fill:none;stroke:#1d1d1b;stroke-miterlimit:10;stroke-width:2px"/><path d="M290.69969,284.27565l-9.22783-4.86425q-.769-1.78838-1.538-3.5767H274.247q-.50078-2.21755-1.00149-4.4351-2.64672-.17879-5.29345-.35763l-.50077-4.50662q-2.57522-.35766-5.15042-.71537.12519-2.18179.25037-4.36353-3.45146-.10728-6.903-.2146.21463-2.25331.42921-4.50662-2.98655-.75108-5.97305-1.50221,1.48432-2.75407,2.96864-5.5081" transform="translate(-6.56839 -31.40436)" style="fill:#fff;stroke:#1d1d1b;stroke-miterlimit:10;stroke-width:0.5px"/><path d="M440.92025,242.78618a23.61273,23.61273,0,0,0-8.0118-7.511c-4.27881-2.40409-10.87375-4.24444-12.30376-2.21752-.90205,1.27859.24436,4.10549,2.07449,5.508,2.03881,1.56251,4.31433.88847,7.511,1.00149A23.28285,23.28285,0,0,1,440.92025,242.78618Z" transform="translate(-6.56839 -31.40436)" style="fill:#1d1d1b"/><path d="M306.54435,285.599a41.76223,41.76223,0,0,1-.2146-14.05636,40.66546,40.66546,0,0,1,.85841-4.07741,79.50836,79.50836,0,0,0,10.40815,17.81186,40.72429,40.72429,0,0,1-11.052.32191Z" transform="translate(-6.56839 -31.40436)" style="fill:#fff;stroke:#1d1d1b;stroke-miterlimit:10"/><path d="M436.00166,265.23721l-6.22342-10.73a21.03152,21.03152,0,0,0-.5365,12.12494Q432.62171,265.93464,436.00166,265.23721Z" transform="translate(-6.56839 -31.40436)" style="fill:#fff;stroke:#1d1d1b;stroke-miterlimit:10"/><path d="M360.29511,272.57059a19.5278,19.5278,0,0,1,2.26006-13.83242,48.47064,48.47064,0,0,0,2.57521,8.04753c.35538.83676.62919,1.48146,1.073,2.36061a40.31488,40.31488,0,0,0,2.65568,4.909c.08917.11034.39138.47421.29744.60488-.075.10436-.36775.01116-.50837-.03228-1.16658-.36046-2.3889-.50978-3.57141-.814-.26112-.06717-.0373-.00807-.6701-.169C363.44292,273.39982,362.0608,273.04318,360.29511,272.57059Z" transform="translate(-6.56839 -31.40436)" style="fill:#fff;stroke:#1d1d1b;stroke-miterlimit:10"/><path d="M487.34553,265.212q.75108,3.997,1.50221,7.99388a18.16007,18.16007,0,0,0,3.59456-11.53479,33.71579,33.71579,0,0,1-2.84348,2.146C488.82123,264.34182,488.06588,264.80429,487.34553,265.212Z" transform="translate(-6.56839 -31.40436)" style="fill:#fff;stroke:#1d1d1b;stroke-miterlimit:10"/><path d="M447.48344,266.01671a20.72045,20.72045,0,0,0,.8584,3.48727,21.00356,21.00356,0,0,0,3.38,6.20534q1.01938-4.65852,2.03869-9.31706Q450.622,266.20452,447.48344,266.01671Z" transform="translate(-6.56839 -31.40436)" style="fill:#fff;stroke:#1d1d1b;stroke-miterlimit:10"/><path d="M484.50207,266.60687q-1.073,3.35316-2.146,6.70627-1.04621-3.11173-2.09236-6.22342Z" transform="translate(-6.56839 -31.40436)" style="fill:#fff;stroke:#1d1d1b;stroke-miterlimit:10;stroke-width:0.5px"/><path d="M477.4509,267.17271l-2.284,6.99883q-1.07636-3.41485-2.15272-6.82976Z" transform="translate(-6.56839 -31.40436)" style="fill:#fff;stroke:#1d1d1b;stroke-miterlimit:10;stroke-width:0.5px"/><path d="M470.17747,267.41162q-1.23393,3.38-2.46793,6.75992-1.073-3.38-2.146-6.75992Z" transform="translate(-6.56839 -31.40436)" style="fill:#fff;stroke:#1d1d1b;stroke-miterlimit:10;stroke-width:0.5px"/><path d="M462.55913,267.30432q-1.31439,3.67506-2.62885,7.35007-1.15345-3.78232-2.307-7.56467Q460.09126,267.197,462.55913,267.30432Z" transform="translate(-6.56839 -31.40436)" style="fill:#fff;stroke:#1d1d1b;stroke-miterlimit:10;stroke-width:0.5px"/><path d="M357.62549,272.70222q-2.16695-3.924-4.33393-7.84791a14.48956,14.48956,0,0,0-1.64524,5.50805,14.25426,14.25426,0,0,0,.07151,3.1475Q354.67169,273.10606,357.62549,272.70222Z" transform="translate(-6.56839 -31.40436)" style="fill:#fff;stroke:#1d1d1b;stroke-miterlimit:10"/><path d="M351.48034,273.66432q-2.747-3.54219-5.494-7.08438a14.48949,14.48949,0,0,0-.77479,5.69606,14.25358,14.25358,0,0,0,.55678,3.09869Q348.62436,274.51953,351.48034,273.66432Z" transform="translate(-6.56839 -31.40436)" style="fill:#fff;stroke:#1d1d1b;stroke-miterlimit:10"/><path d="M253.75256,617.69376a7.71036,7.71036,0,0,0-3.5409,4.14893c-.74864,2.36637.13423,4.4919,1.18029,7.01031.90688,2.18326,1.29867,3.32233,2.46792,3.97012,1.20252.66622,2.60356.55536,4.6497.39341a19.167,19.167,0,0,0,2.78981-.4292" transform="translate(-6.56839 -31.40436)" style="fill:none;stroke:#1d1d1b;stroke-miterlimit:10;stroke-width:2px"/><path d="M233.32971,545.08718a12.90239,12.90239,0,0,0,1.64529,8.08326" transform="translate(-6.56839 -31.40436)" style="fill:none;stroke:#1d1d1b;stroke-miterlimit:10"/><path d="M226.71286,198.90032c-14.07984,3.544-21.35753,10.461-24.71484,14.37993-1.74124,2.03252-6.57545,7.83046-5.15042,10.719,1.76548,3.57858,12.688.2124,17.95493-1.6038a57.00016,57.00016,0,0,0,4.23836-6.69935c1.22044-2.26206,1.86728-3.826,3.27267-7.03143C223.3141,206.38255,224.80268,203.03219,226.71286,198.90032Z" transform="translate(-6.56839 -31.40436)" style="fill:#c46453;stroke:#1d1d1b;stroke-miterlimit:10;stroke-width:2px"/><path d="M368.5607,527.33608a11.418,11.418,0,0,1-1.82411,5.40714" transform="translate(-6.56839 -31.40436)" style="fill:none;stroke:#1d1d1b;stroke-miterlimit:10"/><path d="M356.296,590.86866c.71987.04082,3.74487.13392,5.57962-1.93141,1.68652-1.8985,1.50278-4.6475,1.35917-6.7957a15.16926,15.16926,0,0,0-.4696-2.86133" transform="translate(-6.56839 -31.40436)" style="fill:none;stroke:#1d1d1b;stroke-miterlimit:10;stroke-width:2px"/><path d="M359.33615,591.45881a35.9995,35.9995,0,0,1-.10729,9.353" transform="translate(-6.56839 -31.40436)" style="fill:none;stroke:#1d1d1b;stroke-miterlimit:10;stroke-width:2px"/><path d="M151.35224,600.025a284.34546,284.34546,0,0,0,74.99551-12.71148" transform="translate(-6.56839 -31.40436)" style="fill:none;stroke:#1d1d1b;stroke-miterlimit:10"/><path d="M199.35127,261.993a51.81257,51.81257,0,0,0-25.02863,16.69888c-2.83413,3.45085-7.321,9.12174-5.98034,11.72414,2.10645,4.08879,18.09473-.4839,20.43988-1.16872,1.806-2.84252,3.31783-5.12276,4.34567-6.65263,3.3939-5.0516,4.08923-5.76,4.77487-7.88657a33.6134,33.6134,0,0,0,1.12664-7.29643C199.24316,265.1614,199.32065,263.28867,199.35127,261.993Z" transform="translate(-6.56839 -31.40436)" style="fill:#c46453;stroke:#1d1d1b;stroke-miterlimit:10;stroke-width:2px"/><path d="M166.73193,333.56232q3.312-8.36711,6.7063-16.417c-14.91284,3.38733-23.16589,10.45282-27.178,14.68213-2.2929,2.41712-6.8366,7.20911-6.16809,10.09369q5.4072.97275,10.79566,1.96887a116.25085,116.25085,0,0,0,12.89337-2.76306Q165.22771,337.36332,166.73193,333.56232Z" transform="translate(-6.56839 -31.40436)" style="fill:#c46453;stroke:#1d1d1b;stroke-miterlimit:10;stroke-width:2px"/><path d="M140.27991,342.44525c1.05682,2.04468,5.27331,2.1958,10.60791,1.44476q-5.388-.99645-10.79566-1.96887A2.23206,2.23206,0,0,0,140.27991,342.44525Z" transform="translate(-6.56839 -31.40436)" style="fill:#c46453;stroke:#1d1d1b;stroke-miterlimit:10;stroke-width:2px"/><path d="M177.67591,386.61649a112.8287,112.8287,0,0,1-3.00373,30.42553,113.601,113.601,0,0,1-18.02647,39.48655" transform="translate(-6.56839 -31.40436)" style="fill:none;stroke:#1d1d1b;stroke-miterlimit:10;stroke-width:2px"/><path d="M155.35811,368.113a115.48863,115.48863,0,0,0-26.1813,82.83591" transform="translate(-6.56839 -31.40436)" style="fill:none;stroke:#1d1d1b;stroke-miterlimit:10;stroke-width:2px"/><path d="M315.84843,423.19393a30.527,30.527,0,0,1,9.33042-5.00739" transform="translate(-6.56839 -31.40436)" style="fill:none;stroke:#1d1d1b;stroke-miterlimit:10"/><path d="M278.10976,420.33255c2.1359.219,4.43479.54012,6.86723,1.00149,2.81134.5332,5.3931,1.17642,7.72563,1.85989" transform="translate(-6.56839 -31.40436)" style="fill:none;stroke:#1d1d1b;stroke-miterlimit:10"/><path d="M275.67764,406.45507a61.73436,61.73436,0,0,1,18.74178,12.56844" transform="translate(-6.56839 -31.40436)" style="fill:none;stroke:#1d1d1b;stroke-miterlimit:10"/><path d="M333.90916,400.87544A47.3023,47.3023,0,0,0,321.316,411.17628a46.83079,46.83079,0,0,0-5.46761,7.84723" transform="translate(-6.56839 -31.40436)" style="fill:none;stroke:#1d1d1b;stroke-miterlimit:10"/><path d="M243.48752,600.7403a21.65363,21.65363,0,0,0,.71532,7.01031c.56306,2.06343,1.55407,5.6953,4.292,7.86866,2.39509,1.90123,5.13271,1.897,10.15776,1.71681,9.3958-.33684,16.89771-.93412,19.88635-1.14452,6.27765-.442,4.98077-.061,15.66586-.64381,11.89353-.64872,15.712-1.256,18.67027-4.18471a13.84174,13.84174,0,0,0,3.64821-7.18913,9.7897,9.7897,0,0,0,3.93433,5.00734c3.32972,2.02445,7.47205,1.20723,13.59142,0,1.80567-.35622,3.26837-.73639,4.22045-1.00144" transform="translate(-6.56839 -31.40436)" style="fill:none;stroke:#1d1d1b;stroke-miterlimit:10;stroke-width:2px"/><path d="M258.50957,633.2881A510.08824,510.08824,0,0,0,323.28321,613.831c7.37692-2.80014,24.80972-9.65856,49.8947-18.13377,5.86422-1.98129,9.55315-3.281,12.78883-4.32825" transform="translate(-6.56839 -31.40436)" style="fill:#9d9d9c;stroke:#1d1d1b;stroke-miterlimit:10;stroke-width:2px"/><path d="M171.66777,572.55608q24.46449-1.14457,48.929-2.28909" transform="translate(-6.56839 -31.40436)" style="fill:none;stroke:#1d1d1b;stroke-miterlimit:10"/><line x1="264.78143" y1="536.07439" x2="281.30848" y2="526.52308" style="fill:none;stroke:#1d1d1b;stroke-miterlimit:10"/><line x1="256.94852" y1="544.01305" x2="282.57838" y2="552.74015" style="fill:none;stroke:#1d1d1b;stroke-miterlimit:10"/><path d="M264.08919,659.25475c-10.0462-4.26928-20.58517-9.18079-31.4748-14.84319a448.57616,448.57616,0,0,1-47.21217-28.36309" transform="translate(-6.56839 -31.40436)" style="fill:none;stroke:#1d1d1b;stroke-miterlimit:10;stroke-width:2px"/><g id="b285f24b-bd7b-4998-8e80-0cc506a7777b" data-name="lunettes"><path d="M448.49336,200.89365a10.36541,10.36541,0,0,0-7.09692,1.61286,10.79,10.79,0,0,0-4.32114,5.67529,48.09675,48.09675,0,0,1,18.64407,7.41735,10.08872,10.08872,0,0,0,.82047-2.67654C457.51016,207.19671,453.90763,201.81115,448.49336,200.89365Z" transform="translate(-6.56839 -31.40436)" style="fill:#b3b3b3;opacity:0.7000000000000001"/><path d="M455.52248,215.55521a11.068,11.068,0,0,0,.80161-2.63274c.97031-5.7259-2.63222-11.11136-8.04649-12.02886a10.15923,10.15923,0,0,0-11.28666,7.51983,45.64928,45.64928,0,0,1,18.53154,7.14177Z" transform="translate(-6.56839 -31.40436)" style="fill:none;stroke:#1d1d1b;stroke-miterlimit:10"/><path d="M416.17152,226.35475a13.164,13.164,0,0,1,4.61392-.96571,12.90529,12.90529,0,0,1,3.26617.33741,12.26145,12.26145,0,0,0,1.19224-3.56931,11.7349,11.7349,0,1,0-13.57444,9.88862c.16462.02787.32777.03678.49187.05742a8.02244,8.02244,0,0,1,.63028-2.04657A8.84969,8.84969,0,0,1,416.17152,226.35475Z" transform="translate(-6.56839 -31.40436)" style="fill:#b3b3b3;opacity:0.7000000000000001"/><path d="M424.32834,225.13347a11.78759,11.78759,0,0,1-12.05505,6.98281,8.70308,8.70308,0,0,0,.37524,2.87615l18.3841-.3219q.19679-3.91657.39347-7.83293A28.83581,28.83581,0,0,0,424.32834,225.13347Z" transform="translate(-6.56839 -31.40436)" style="fill:none"/><path d="M415.00117,226.89565a10.75817,10.75817,0,0,1,2.93536-1.38694,13.66064,13.66064,0,0,1,3.82415-.47122,22.6545,22.6545,0,0,1,2.47629.0833c.03123.00283.06015.00975.09137.01268a12.271,12.271,0,0,0,.91551-2.97633,11.7349,11.7349,0,1,0-13.57444,9.88862c.20213.03426.40259.04715.60388.07052a6.64752,6.64752,0,0,1,2.72788-5.22063Z" transform="translate(-6.56839 -31.40436)" style="fill:none;stroke:#1d1d1b;stroke-miterlimit:10"/><path d="M424.32834,225.13347c-.03122-.00293-.06014-.00985-.09137-.01268a22.6545,22.6545,0,0,0-2.47629-.0833,13.66064,13.66064,0,0,0-3.82415.47122,10.75817,10.75817,0,0,0-2.93536,1.38694,6.64752,6.64752,0,0,0-2.72788,5.22063A11.78759,11.78759,0,0,0,424.32834,225.13347Z" transform="translate(-6.56839 -31.40436)" style="fill:none"/><path d="M439.746,203.40786a14.13181,14.13181,0,0,0-19.35311,7.16811" transform="translate(-6.56839 -31.40436)" style="fill:none;stroke:#1d1d1b;stroke-miterlimit:10"/></g><path d="M193.27091,552.09743a181.34357,181.34357,0,0,0-3.70936-60.898,110.25428,110.25428,0,0,1-10.812,61.03208,74.82988,74.82988,0,0,1,8.65557-.42024C189.48029,551.83091,191.44,551.93591,193.27091,552.09743Z" transform="translate(-6.56839 -31.40436)" style="fill:#1d1d1b"/><path d="M258.438,633.78882a10.81314,10.81314,0,0,0-1.57373,4.79273,9.074,9.074,0,0,0,2.146,7.1534,8.64931,8.64931,0,0,0,6.08034,2.50369c-.31729.24468-2.95438,2.33976-2.78981,5.22188.17918,3.13791,3.6205,6.17512,8.2264,6.00883" transform="translate(-6.56839 -31.40436)" style="fill:none;stroke:#1d1d1b;stroke-miterlimit:10;stroke-width:2px"/></g><g id="f229fa30-1ed6-4d36-85b7-bf40708a5ffe" data-name="necklace"><g id="b4c406b4-b099-4713-bf35-d8838fda6508" data-name="collier"><ellipse cx="245.18151" cy="419.93542" rx="16.75542" ry="9.89257" transform="translate(-64.75981 8.4987) rotate(-8.32099)" style="fill:#58b09b"/><path d="M240.24371,410.88949c-6.72513,1.88577-11.637,6.08528-11.70266,10.5324-.08126,5.50892,7.30314,9.30979,16.494,8.48925a27.44128,27.44128,0,0,0,7.56905-1.76184C236.813,428.78472,232.9286,415.01686,240.24371,410.88949Z" transform="translate(-6.56839 -31.40436)" style="fill:#010101;opacity:0.100000001490116;isolation:isolate"/><ellipse cx="230.3634" cy="391.15422" rx="16.75542" ry="9.89257" transform="translate(-60.75062 6.05125) rotate(-8.32099)" style="fill:#e470a6"/><path d="M225.42489,382.10814c-6.72513,1.88577-11.63705,6.08527-11.70266,10.5324-.08126,5.50892,7.30314,9.30978,16.494,8.48925a27.44919,27.44919,0,0,0,7.569-1.76185C221.99456,400.00313,218.11013,386.23547,225.42489,382.10814Z" transform="translate(-6.56839 -31.40436)" style="fill:#010101;opacity:0.100000001490116;isolation:isolate"/><ellipse cx="267.44732" cy="431.82121" rx="17.99667" ry="10.62542" transform="translate(-66.24548 11.84608) rotate(-8.32098)" style="fill:#e9ca5a"/><path d="M262.14264,422.10524c-7.223,2.02535-12.49837,6.53564-12.56883,11.31187-.08728,5.91678,7.8438,9.9988,17.71475,9.11755a29.47545,29.47545,0,0,0,8.12932-1.89221C258.45828,441.325,254.28648,426.538,262.14264,422.10524Z" transform="translate(-6.56839 -31.40436)" style="fill:#010101;opacity:0.100000001490116;isolation:isolate"/><ellipse cx="358.6376" cy="409.8064" rx="16.75542" ry="9.89257" transform="translate(-62.09959 24.81129) rotate(-8.32099)" style="fill:#58b09b"/><path d="M353.69945,400.7605c-6.72513,1.88577-11.63706,6.08528-11.70266,10.5324-.08127,5.50892,7.30313,9.30979,16.494,8.48925a27.44112,27.44112,0,0,0,7.569-1.76185C350.26911,418.6557,346.38469,404.88784,353.69945,400.7605Z" transform="translate(-6.56839 -31.40436)" style="fill:#010101;opacity:0.100000001490116;isolation:isolate"/><ellipse cx="374.34434" cy="378.30003" rx="16.75542" ry="9.89257" transform="translate(-57.37468 26.75268) rotate(-8.32099)" style="fill:#e470a6"/><path d="M369.408,369.25376c-6.72513,1.88577-11.637,6.08527-11.70265,10.5324-.08127,5.50891,7.30349,9.30975,16.494,8.48924a27.45064,27.45064,0,0,0,7.569-1.76184C365.97692,387.14881,362.0925,373.38116,369.408,369.25376Z" transform="translate(-6.56839 -31.40436)" style="fill:#010101;opacity:0.100000001490116;isolation:isolate"/><ellipse cx="335.96194" cy="425.70442" rx="17.99667" ry="10.62542" transform="translate(-64.63904 21.69706) rotate(-8.32099)" style="fill:#e9ca5a"/><path d="M330.65942,415.98827c-7.223,2.02535-12.49838,6.53563-12.56884,11.31187-.08728,5.91677,7.8438,9.9988,17.71475,9.11755a29.47509,29.47509,0,0,0,8.12932-1.89222C326.97505,435.208,322.80325,420.42106,330.65942,415.98827Z" transform="translate(-6.56839 -31.40436)" style="fill:#010101;opacity:0.100000001490116;isolation:isolate"/><path d="M349.45863,398.74621l28.15926,3.49742c2.85228.3543,6.0099-.82259,7.05243-2.62849l3.76076-6.51471c1.04254-1.80611-.42473-3.55722-3.277-3.91151l-28.15891-3.49745c-2.85228-.35429-6.0099.82259-7.05243,2.6285l-3.76076,6.5147C345.13907,396.6406,346.606,398.39194,349.45863,398.74621Z" transform="translate(-6.56839 -31.40436)" style="fill:#a1d1b0"/><path d="M366.4566,397.35274l3.76075-6.5147c1.04254-1.80612-.42473-3.55722-3.277-3.91152l18.21337,2.26222c2.85264.35427,4.31955,2.1054,3.277,3.91152L384.67,399.615c-1.04253,1.80612-4.20015,2.98278-7.05243,2.62849l-18.21337-2.26222C362.2568,400.33571,365.41406,399.15886,366.4566,397.35274Z" transform="translate(-6.56839 -31.40436)" style="fill:#010101;opacity:0.100000001490116;isolation:isolate"/><ellipse cx="301.63367" cy="433.57296" rx="19.59905" ry="11.57148" transform="translate(-66.13914 16.81195) rotate(-8.32099)" style="fill:#2ca8c1"/><path d="M295.85776,422.99187c-7.86621,2.20576-13.6115,7.11774-13.68823,12.31921-.09506,6.4437,8.54237,10.88927,19.292,9.92957a32.10183,32.10183,0,0,0,8.85315-2.06075C291.84539,443.92287,287.302,427.81922,295.85776,422.99187Z" transform="translate(-6.56839 -31.40436)" style="fill:#010101;opacity:0.100000001490116;isolation:isolate"/><path d="M254.71251,407.20486l-28.33684,8.54123c-2.87028.86519-6.00146.24975-6.99339-1.37453l-3.57821-5.8595c-.99193-1.62449.53094-3.64254,3.40121-4.50773l28.33685-8.54122c2.87027-.86519,6.00145-.24975,6.99339,1.37452l3.57821,5.8595C259.10566,404.32141,257.58279,406.33967,254.71251,407.20486Z" transform="translate(-6.56839 -31.40436)" style="fill:#a1d1b0"/><path d="M237.71052,408.84681l-3.57821-5.85929c-.99193-1.62448.53093-3.64254,3.40121-4.50773l-18.32824,5.52455c-2.87063.86522-4.39314,2.88324-3.40121,4.50773l3.57821,5.8595c.99193,1.62448,4.12311,2.23971,6.99339,1.37452l18.32824-5.52454C241.83363,411.08673,238.70245,410.47129,237.71052,408.84681Z" transform="translate(-6.56839 -31.40436)" style="fill:#010101;opacity:0.100000001490116;isolation:isolate"/><g style="opacity:0.400000005960465"><ellipse cx="380.45175" cy="374.2837" rx="2.54088" ry="1.50016" transform="matrix(0.98947, -0.14472, 0.14472, 0.98947, -56.72926, 27.59441)" style="fill:#fff"/><ellipse cx="380.36047" cy="380.47123" rx="2.54088" ry="1.50016" transform="translate(-57.62568 27.64633) rotate(-8.32101)" style="fill:#fff"/><ellipse cx="344.76209" cy="426.21936" rx="2.54088" ry="1.50016" transform="translate(-64.62092 22.97602) rotate(-8.32099)" style="fill:#fff"/><ellipse cx="340.5568" cy="420.51183" rx="2.54088" ry="1.50016" transform="matrix(0.98947, -0.14472, 0.14472, 0.98947, -63.8392, 22.30735)" style="fill:#fff"/><ellipse cx="304.25015" cy="427.27997" rx="2.54088" ry="1.50016" transform="translate(-65.20088 17.12435) rotate(-8.32099)" style="fill:#fff"/><ellipse cx="274.98348" cy="427.87873" rx="2.54089" ry="1.50016" transform="translate(-65.59549 12.8951) rotate(-8.32097)" style="fill:#fff"/><ellipse cx="251.3826" cy="416.35426" rx="2.54089" ry="1.50016" transform="translate(-64.17613 9.3583) rotate(-8.32097)" style="fill:#fff"/><ellipse cx="247.97519" cy="401.38785" rx="2.54089" ry="1.50016" transform="translate(-62.04609 8.70763) rotate(-8.32097)" style="fill:#fff"/><ellipse cx="232.4242" cy="385.9886" rx="2.54089" ry="1.50016" transform="translate(-59.98134 6.29509) rotate(-8.32098)" style="fill:#fff"/><ellipse cx="237.17771" cy="390.78369" rx="2.54089" ry="1.50016" transform="translate(-60.62527 7.03352) rotate(-8.32099)" style="fill:#fff"/><ellipse cx="311.78892" cy="430.18729" rx="2.54088" ry="1.50016" transform="translate(-65.54226 18.24596) rotate(-8.32099)" style="fill:#fff"/><ellipse cx="367.09623" cy="408.27132" rx="2.54088" ry="1.50016" transform="translate(-61.78839 26.01925) rotate(-8.32099)" style="fill:#fff"/></g><g style="opacity:0.100000001490116"><ellipse cx="310.4143" cy="436.38011" rx="2.54088" ry="1.50016" transform="translate(-66.45295 18.11222) rotate(-8.32099)" style="fill:#010101"/><ellipse cx="270.60487" cy="436.34311" rx="2.54089" ry="1.50016" transform="translate(-66.86653 12.35054) rotate(-8.32097)" style="fill:#010101"/><ellipse cx="248.58448" cy="421.87496" rx="2.54089" ry="1.50016" transform="translate(-65.00454 9.01148) rotate(-8.32097)" style="fill:#010101"/></g><path d="M227.98974,381.14818c-8.75553,1.88941-15.403,7.13561-15.485,12.69948-.062,4.2,3.60433,7.57537,9.23609,9.10186l-1.94534.58635c-4.26482,1.28561-6.5351,4.29491-5.06152,6.70841l3.57784,5.85951c1.1612,1.90078,4.30359,2.87369,7.67021,2.57309a13.74873,13.74873,0,0,0,2.7377-.52763l.10841-.0326a8.45523,8.45523,0,0,0-1.50458,4.51237c-.09425,6.38726,8.49848,10.81007,19.15438,9.85873.77563-.06924,1.54419-.16849,2.30561-.2907a8.0044,8.0044,0,0,0-.42758,2.42723,7.35211,7.35211,0,0,0,.04487.93063c.09419.83556,1.26121,1.37355,2.65213,1.24936.06764-.00607.13638-.01367.20517-.023,1.47922-.19894,2.59875-1.07069,2.49982-1.94677a5.4988,5.4988,0,0,1-.03311-.68953c.0741-5.02,6.94783-9.71236,15.323-10.46,7.34613-.65587,13.56817,1.95009,14.81831,6.11114a10.54921,10.54921,0,0,0-2.9141,6.72192c-.00331.22123.00348.44027.01815.65727a21.88848,21.88848,0,0,1-12.19095,4.71779,19.54159,19.54159,0,0,1-11.02165-1.87922,4.07878,4.07878,0,0,0-3.79368.26947c-1.08922.70535-1.15578,1.72819-.14957,2.285,3.83393,2.12027,9.27109,3.0473,14.9174,2.54319a32.03229,32.03229,0,0,0,13.47335-4.19786c3.01291,4.82964,11.12977,7.758,20.70005,6.90358s17.795-5.24165,20.95853-10.62273a28.08376,28.08376,0,0,0,13.38486,1.8c11.33562-1.012,20.63919-7.3631,20.73938-14.15758a7.25226,7.25226,0,0,0-.35662-2.3572c.76017-.01368,1.52781-.05156,2.3031-.1208,10.65624-.95135,19.4019-6.92182,19.49615-13.3093a7.07448,7.07448,0,0,0-1.37533-4.25529l.10812.01351a12.90468,12.90468,0,0,0,2.729.03958c3.36594-.30072,6.54606-1.83807,7.76651-3.95147l3.76035-6.51465c1.54876-2.68331-.63891-5.29462-4.87776-5.82124l-1.93278-.24014c5.6913-2.5374,9.46735-6.57719,9.52935-10.7772.082-5.5638-6.42829-9.63512-15.15072-9.96438.32071-.50354.611-.96024.88809-1.39645a36.91817,36.91817,0,0,0-6.02474.07734,4.21725,4.21725,0,0,0-.25267,1.57806,32.63521,32.63521,0,0,0-3.89633.75477c-1.4299.36956-2.272,1.33285-1.88049,2.152.39185.81884,1.86919,1.18361,3.29807.81371a23.7213,23.7213,0,0,1,3.81692-.65569c7.69584-.68711,13.90138,2.50682,13.83333,7.11979-.06142,4.16218-5.16873,8.10791-11.97482,9.32743l-12.39926-1.54006c-2.31595-1.3338-3.56985-3.20058-3.539-5.2954a6.71374,6.71374,0,0,1,1.89813-4.31591c.74835-.83685.31723-1.78037-.96231-2.10726a4.02749,4.02749,0,0,0-3.67255.92331,9.30692,9.30692,0,0,0-2.63186,5.97914,7.01252,7.01252,0,0,0,1.181,3.97843c-3.72547.05089-7.43878,1.67758-8.781,4.00264l-3.76041,6.51448a3.07242,3.07242,0,0,0,.26471,3.72084,7.085,7.085,0,0,0,4.612,2.10051l.98868.12277a24.50416,24.50416,0,0,0-4.55231,2.45544c-3.60536,2.49771-5.61578,5.556-5.66082,8.61184a6.84418,6.84418,0,0,0,.19415,1.71715c-1.09367-.01081-2.21565.03023-3.36137.13251-8.43169.75275-15.86122,4.494-19.06224,9.24283a29.392,29.392,0,0,0-15.25267-2.32788,33.85608,33.85608,0,0,0-15.36165,5.06106c-3.07063-4.18875-10.40923-6.61148-18.841-5.85873-1.14573.10229-2.26942.26171-3.36628.46808a7.37907,7.37907,0,0,0,.24541-1.75639c.04505-3.0558-1.88031-5.76275-5.42134-7.62244a19.407,19.407,0,0,0-4.49145-1.648l.995-.29987h-.0004a9.12851,9.12851,0,0,0,4.68663-2.93066,3.21208,3.21208,0,0,0,.37529-3.778l-3.57784-5.85952c-1.27714-2.09122-4.95289-3.058-8.68555-2.44327a8.29513,8.29513,0,0,0,1.30157-4.20006c.09014-6.10793-7.76474-10.41557-17.77-9.94935m-15.51265,12.92116c.068-4.613,6.38428-8.92483,14.08012-9.61188,7.69544-.687,13.901,2.50689,13.83293,7.11985-.03088,2.09483-1.3433,4.19072-3.70475,5.9421l-12.47746,3.76081C222.81605,400.57352,217.81189,397.53078,217.87326,393.36861Zm9.09224,21.90925c-1.46781.4428-3.0724.12644-3.57956-.70332L219.8081,408.715c-.50682-.83.27447-1.865,1.74051-2.30705l28.3372-8.54124a4.73415,4.73415,0,0,1,.94136-.18155,2.83239,2.83239,0,0,1,2.63786.88487l3.57784,5.85957a1.10383,1.10383,0,0,1-.12924,1.29907,3.13727,3.13727,0,0,1-1.61167,1.00775l-.00034.00006Zm32.7025,7.40025a22.45591,22.45591,0,0,0-8.63971,5.74355,23.45546,23.45546,0,0,1-4.50328.84811c-7.69544.687-13.901-2.50689-13.83293-7.11985.035-2.37072,1.74211-4.76367,4.69411-6.61277L247.49531,412.49c7.3342-.42743,13.17524,2.73386,13.10982,7.16793A5.94648,5.94648,0,0,1,259.668,422.67811ZM302.95223,444.599c-9.25282.826-16.71346-3.01408-16.63166-8.5601s7.67564-10.73,16.9284-11.556,16.71352,3.01381,16.63166,8.55988S312.20505,443.77293,302.95223,444.599Zm34.3434-8.82271c-4.79693.42822-9.24968-.52172-12.08375-2.5504.02113-.22027.03443-.44105.03768-.66245a8.49967,8.49967,0,0,0-2.72326-6.21866c1.37636-4.39551,7.69185-8.1208,15.03792-8.77666,8.37483-.74768,15.12845,2.72811,15.05441,7.74808C352.54459,430.3364,345.67046,435.02863,337.29563,435.77631Zm22.68551-16.63558a22.069,22.069,0,0,1-4.49008-.0452,17.21058,17.21058,0,0,0-8.49283-4.214,5.027,5.027,0,0,1-.85042-2.86058c.06542-4.43378,6.01527-8.648,13.35649-9.5307l10.04547,1.2475c2.90513,1.32621,4.54643,3.42024,4.51143,5.791C373.99316,414.14165,367.67659,418.45373,359.98114,419.14073Zm27.39465-25.3859-3.76041,6.51471a3.87042,3.87042,0,0,1-3.60941,1.34534l-28.15926-3.49741h-.0004a2.43605,2.43605,0,0,1-1.58609-.7223,1.057,1.057,0,0,1-.09123-1.27959l3.76041-6.51448a3.50279,3.50279,0,0,1,2.67091-1.359,4.43494,4.43494,0,0,1,.93884.01368l28.15892,3.49719C387.156,391.93393,387.90841,392.832,387.37579,393.75483Z" transform="translate(-6.56839 -31.40436)" style="fill:#1d1e1b"/><path d="M227.98974,381.14818a19.51713,19.51713,0,0,1,5.39617-.70073" transform="translate(-6.56839 -31.40436)" style="fill:#1d1e1b"/></g><path d="M380.36047,368.03082c7.12732-11.38073,2.739-4.33252,10.8949-16.70794l-4.66492-5.52832c1.14905,4.56-11.99252,15.24786-11.99252,22.04269A31.363,31.363,0,0,1,380.36047,368.03082Z" transform="translate(-6.56839 -31.40436)" style="fill:#1d1e1b"/><path d="M165.61357,341.244c9.30545,10.88836,50.73953,26.57655,61.16436,38.3425a1.3713,1.3713,0,0,1-.55771,2.202l-4.67119,1.69039a1.35921,1.35921,0,0,1-1.56-.5251c-4.47818-6.16823-49.99379-28.41471-57.50923-35.749a1.31344,1.31344,0,0,1-.17124-1.73348c.581-.73079.66115-2.3448.95707-3.64529A1.36015,1.36015,0,0,1,165.61357,341.244Z" transform="translate(-6.56839 -31.40436)" style="fill:#1d1e1b"/></g><g id="b2320780-6250-4619-96c3-c79621626a32" data-name="xmas hat"><path d="M320.09626,150.93979,222.59013,168.889l2.42181-10.983c-.71717-6.82337-3.96212-3.6721-3.96212-3.6721-.12059,6.14029-10.96424,26.9567-10.96424,26.9567l-.22657,5.13188L195.37416,177.37l-.16877-28.3432c-2.38948-13.034.5897-18.714.5897-18.714-2.17786-20.72093,15.44452-25.6421,15.44452-25.6421,1.54417-4.758,12.82569-14.1208,12.82569-14.1208,39.7184-15.9278,54.85062,1.64607,54.85062,1.64607,34.79413,10.14566,46.55763,41.85557,46.55763,41.85557Z" transform="translate(-6.56839 -31.40436)" style="fill:#e14c4c;stroke:#1d1e1b;stroke-miterlimit:10;stroke-width:2px"/><path d="M213.25207,101.266a74.0218,74.0218,0,0,1,8.74742-8.95154,185.69393,185.69393,0,0,0-8.71623,38.44777A172.114,172.114,0,0,1,213.25207,101.266Z" transform="translate(-6.56839 -31.40436)" style="fill:#d1403f;stroke:#1d1e1b;stroke-miterlimit:10;stroke-width:2px"/><path d="M244.73235,100.31725a4.14718,4.14718,0,0,1,2.82549-1.43037C246.62347,99.35254,245.65838,99.82142,244.73235,100.31725Z" transform="translate(-6.56839 -31.40436)" style="fill:#d1403f;stroke:#1d1e1b;stroke-miterlimit:10;stroke-width:2px"/><path d="M226.0745,126.65418c1.36069-6.30686,2.97707-12.79068,7.05263-17.78888,3.06725-3.75881,7.24156-6.34015,11.61033-8.54859a12.69233,12.69233,0,0,0-2.21129,3.48254q-5.08134,10.74246-10.16215,21.49c-2.58392,5.45211-5.22448,11.25174-4.62411,17.25933,6.0672-9.68421,16.51087-15.595,26.69364-20.83655,5.145-2.6523,10.53839-5.30484,16.33391-5.60862-11.34356,4.68562-20.731,13.06268-29.83445,21.28569-4.7592,4.3041-9.63211,8.70813-12.72335,14.30672-1.11053,1.9902-2.04545,4.17413-3.22118,6.135-.69677-6.33385-3.569-3.92043-3.90663-3.63653C222.44165,144.97379,224.11234,135.75685,226.0745,126.65418Z" transform="translate(-6.56839 -31.40436)" style="fill:#d1403f;stroke:#1d1e1b;stroke-miterlimit:10;stroke-width:2px"/><path d="M343.69787,169.71948c-.86965,1.72163-1.51016,4.29383-1.848,1.07922.28461,2.70786.12669,1.25465-.0655.2139.00311.81739-.22283.19422-.4923.58481-.43248-1.1604-.69276.7456-1.35633.88263-.82766-1.42421-1.5112.64014-2.653,1.10173-1.19455-.04006-2.336,3.2317-4.39206,1.24828a18.03925,18.03925,0,0,0-6.56322,1.32121c-2.61248.30564-5.58285,1.34238-9.17215,1.316-3.58446.01964-7.72543-.43011-12.21535,1.2166-2.67573-.05-5.33123-.35052-7.776.81212-2.53947.26173-5.10361-.20366-7.42447,1.05464-2.56943-1.10658-4.77157.73958-7.04141,1.25244-2.16492,1.511-4.44029,1.331-6.61657,1.40445-2.02671,1.49651-4.23542.5228-6.16129,1.50152-2.05741-.322-3.74858,2.10186-5.66425,1.55277-1.55573,2.87539-3.65768-.28319-5.13621,1.5542-1.84921-1.68947-3.08172,1.60222-4.56694,1.50473-1.69881-2.12966-2.9087-.54305-3.96616,1.41052-1.26136.01355-2.02947,3.686-3.32467,1.26031-.94333.922-1.947.13735-2.65166,1.06535-.6877,1.04007-1.71926-2.32416-1.9369.82463-.62813-.75687-.78182,1.76932-1.19166.52892-.33991-.575-.65916-2.23375-.40468.18744a14.87559,14.87559,0,0,0-6.29861,2.70628c-1.80306,1.2608-3.3615,2.48554-5.03066.2441-1.51959-.81844-2.61783.05777-3.68664-1.14961-1.18395-2.3028-1.7725-1.20587-2.26655-1.47481-.64469-1.70222-.77147-.7418-.76986-.72644-2.47555-5.236-3.26057-19.10628-2.44243-22.30266.30521.19564.26987-2.94726.493-3.38474a27.33523,27.33523,0,0,0,.671-2.92215c.75332-2.139,2.10622-1.774,3.55254-2.68677,1.37422-1.59871,3.42427,1.01674,4.93273-2.80078,1.76672-1.36049,3.47041-4.55162,5.73853-2.76644,2.221,1.38645,4.05155-1.3367,5.9745-2.5894,1.99343-.58214,3.62415-4.02435,5.64065-2.26967,1.74938-.836,3.32421-1.75708,4.73806-1.797,1.26375-1.46806,2.51419-.60065,3.26-1.18622.904.91935,1.11367-1.36949,1.21267-.42763.46976-4.63991,1.83925-3.52624,3.43636-2.26571,1.56886,1.041,2.91718-2.03517,4.72567-1.8164a6.92127,6.92127,0,0,1,5.48157-1.41972c1.76648-1.60889,3.65809-2.27348,5.6903-1.05868,1.54208-3.44843,3.50857-2.26812,5.36615-.74514,1.63834-.51377,3.40021,1.52645,4.4989-.478,1.3892.75967,2.31456-.57967,3.09417-.25275.90227,1.494,1.159-.00278,1.15145-.07444-.10491-.99817.78677,1.03518,1.70006-.66517,1.23232,1.33511,2.69391,1.0107,4.07068-1.40081,1.43192-1.83767,3.122-2.54836,4.8751-1.23177,1.79049,1.62319,3.212,1.16327,4.1276-.16988,1.20643-1.86572,3.08568-1.023,5.0176.61638,1.85069.86644,3.69595,1.97668,4.80456.2144,1.07606-2.0228,2.3317,1.79919,2.145.023,2.11486-1.79041,3.84267-.81274,4.89987-2.818,1.33051.59506,1.9772-1.8691,2.88017-1.35332.5651-2.69882,1.6111-.32977,2.70725.10361,1.3248,2.60887,2.37586.20054,4.38569,1.54709,1.83331-3.38588,5.17188,4.59554,8.16029,7.02956,4.04884,2.18282,6.711,26.62568,6.10126,22.20274.138,1.65714-.374-2.86924.04078,1.07736C346.13492,171.3886,344.76982,169.82421,343.69787,169.71948Z" transform="translate(-6.56839 -31.40436)" style="fill:#d9e4ee;stroke:#1d1e1b;stroke-miterlimit:10;stroke-width:2px"/><path d="M206.57522,177.5331a15.38258,15.38258,0,0,1-13.62578,27.5832c-7.61526-3.76427-12.15445-14.30551-8.39019-21.92077C188.323,175.57515,198.96509,173.7683,206.57522,177.5331Z" transform="translate(-6.56839 -31.40436)" style="fill:#d9e4ee;stroke:#1d1e1b;stroke-miterlimit:10;stroke-width:2px"/><path d="M206.44358,192.33667a14.84249,14.84249,0,0,0-.95865-14.84853,9.89317,9.89317,0,0,1,1.04971.4415,14.88364,14.88364,0,0,1,6.763,19.95732c-3.63622,7.40533-12.57324,10.75525-19.93417,7.0642a19.965,19.965,0,0,1-6.57926-5.81216C193.92327,202.15106,202.97456,199.42345,206.44358,192.33667Z" transform="translate(-6.56839 -31.40436)" style="fill:#ccd6e0"/><path d="M204.88226,177.29063c-.02584-.00732-.04726-.02011-.07311-.02744a.98394.98394,0,0,0,.02785.59907Z" transform="translate(-6.56839 -31.40436)" style="fill:#ccd6e0"/></g><g id="f0a89e78-f908-461e-a12b-4c635a256b90" data-name="candycane2"><path d="M394.13922,604.34l-28.846,13.90816c-6.81661,3.28669-9.11824,9.944-5.14021,14.86765l41.18946-19.85987Z" transform="translate(-6.56839 -31.40436)" style="fill:#ebe1e8;stroke:#1d1d1b;stroke-miterlimit:10;stroke-width:5px"/><path d="M383.85888,634.07506l-4.15856,2.00508c-6.81662,3.28669-15.56771,1.96132-19.54732-2.96433-1.32556-1.64034,3.12582-5.63682,9.94243-8.92351l18.67469-9.00417Z" transform="translate(-6.56839 -31.40436)" style="fill:#f7f4f6;stroke:#1d1d1b;stroke-miterlimit:10;stroke-width:5px"/><path d="M408.16925,618.22391l-27.62818.93193c1.57373-5.8272,6.28809-11.29123,13.59814-14.81583l22.597-10.89535Z" transform="translate(-6.56839 -31.40436)" style="fill:#e2343f;stroke:#1d1d1b;stroke-miterlimit:10;stroke-width:5px"/><path d="M406.45588,623.17971l-22.597,10.89535a16.40006,16.40006,0,0,1-3.3178-14.91922l32.7684-15.79958Z" transform="translate(-6.56839 -31.40436)" style="fill:#e94547;stroke:#1d1d1b;stroke-miterlimit:10;stroke-width:5px"/><path d="M430.76666,607.32838l-27.62819.93192c1.57373-5.8272,6.28809-11.29122,13.59815-14.81583l22.597-10.89535Z" transform="translate(-6.56839 -31.40436)" style="fill:#ebe1e8;stroke:#1d1d1b;stroke-miterlimit:10;stroke-width:5px"/><path d="M429.0532,612.28441l-22.597,10.89535a16.40006,16.40006,0,0,1-3.3178-14.91922l32.7684-15.79958Z" transform="translate(-6.56839 -31.40436)" style="fill:#f7f4f6;stroke:#1d1d1b;stroke-miterlimit:10;stroke-width:5px"/><path d="M453.36367,596.433l-27.62819.93192c1.57372-5.8272,6.28809-11.29122,13.59815-14.81583l22.597-10.89535Z" transform="translate(-6.56839 -31.40436)" style="fill:#e2343f;stroke:#1d1d1b;stroke-miterlimit:10;stroke-width:5px"/><path d="M451.65029,601.38883l-22.597,10.89535a16.40008,16.40008,0,0,1-3.3178-14.91923l32.7684-15.79957Z" transform="translate(-6.56839 -31.40436)" style="fill:#e94547;stroke:#1d1d1b;stroke-miterlimit:10;stroke-width:5px"/><path d="M473.53657,566.05786a47.08655,47.08655,0,0,1,6.19108-2.45634l11.69842,14.47937-43.0963,8.39c1.57373-5.8272,6.2881-11.29122,13.59815-14.81583l11.60865-5.59721Z" transform="translate(-6.56839 -31.40436)" style="fill:#ebe1e8;stroke:#1d1d1b;stroke-miterlimit:10;stroke-width:5px"/><path d="M474.24458,590.49479l-22.597,10.89535a16.39165,16.39165,0,0,1-3.3178-14.91922l35.89275-17.306Z" transform="translate(-6.56839 -31.40436)" style="fill:#f7f4f6;stroke:#1d1d1b;stroke-miterlimit:10;stroke-width:5px"/><path d="M479.72774,563.60129a22.26284,22.26284,0,0,0-8.80328,11.9754l44.19325-3.66867s-7.20356-8.916-7.20129-8.92253A50.12041,50.12041,0,0,0,479.72774,563.60129Z" transform="translate(-6.56839 -31.40436)" style="fill:#e2343f;stroke:#1d1d1b;stroke-miterlimit:10;stroke-width:5px"/><path d="M478.33886,572.00178a60.28434,60.28434,0,0,1,24.217-6.01307l-9.85517,16.7168a12.28471,12.28471,0,0,0-4.7569,1.18411l-13.69879,6.605a16.41077,16.41077,0,0,1-3.32051-14.91791l7.41441-3.57493Z" transform="translate(-6.56839 -31.40436)" style="fill:#e94547;stroke:#1d1d1b;stroke-miterlimit:10;stroke-width:5px"/><path d="M525.26933,573.60917l-22.71359-7.62023a32.09462,32.09462,0,0,1,5.35834-2.99668C515.11442,564.98825,521.066,567.27393,525.26933,573.60917Z" transform="translate(-6.56839 -31.40436)" style="fill:#ebe1e8;stroke:#1d1d1b;stroke-miterlimit:10;stroke-width:5px"/><path d="M530.60688,584.88982l-29.63209.97594c-1.77531-2.19734-4.9846-3.32033-8.27332-3.16357-.04158-6.49113,3.78186-12.49176,9.854-16.71354,9.96291-.25546,16.82408,2.234,23.10674,7.974A22.705,22.705,0,0,1,530.60688,584.88982Z" transform="translate(-6.56839 -31.40436)" style="fill:#f7f4f6;stroke:#1d1d1b;stroke-miterlimit:10;stroke-width:5px"/><path d="M515.413,611.74683,501.015,592.99667a5.61812,5.61812,0,0,0-.04-7.13063,36.98694,36.98694,0,0,1,29.63208-.97594C532.09978,594.73416,526.55341,605.08431,515.413,611.74683Z" transform="translate(-6.56839 -31.40436)" style="fill:#e94547;stroke:#1d1d1b;stroke-miterlimit:10;stroke-width:5px"/><path d="M515.413,611.74683q-1.64817.98887-3.45767,1.8628l-4.11472,1.98394c-6.81662,3.2867-15.5693,1.95936-19.54732-2.96433-3.97961-4.92565-1.6764-11.581,5.14021-14.86764l4.11472-1.984a9.22729,9.22729,0,0,0,3.471-2.78033C510.58729,596.65449,515.79594,604.02139,515.413,611.74683Z" transform="translate(-6.56839 -31.40436)" style="fill:#f7f4f6;stroke:#1d1d1b;stroke-miterlimit:10;stroke-width:5px"/><path d="M394.13868,604.34119l-28.846,13.90817c-6.81662,3.28669-9.11824,9.94395-5.14022,14.86764l41.18947-19.85986Z" transform="translate(-6.56839 -31.40436)" style="fill:#ebe1e8"/><path d="M383.85834,634.07625l-4.15855,2.00509c-6.81662,3.28668-15.56771,1.96131-19.54733-2.96434-1.32555-1.64034,3.12582-5.63682,9.94243-8.92351l18.6747-9.00417Z" transform="translate(-6.56839 -31.40436)" style="fill:#f7f4f6"/><path d="M408.16872,618.22511l-27.62819.93192c1.57373-5.8272,6.2881-11.29122,13.59815-14.81583l22.597-10.89535Z" transform="translate(-6.56839 -31.40436)" style="fill:#e2343f"/><path d="M406.45534,623.18091l-22.597,10.89534a16.40008,16.40008,0,0,1-3.3178-14.91922l32.76841-15.79957Z" transform="translate(-6.56839 -31.40436)" style="fill:#e94547"/><path d="M430.76612,607.32957l-27.62818.93192c1.57372-5.82719,6.28809-11.29122,13.59814-14.81583l22.597-10.89535Z" transform="translate(-6.56839 -31.40436)" style="fill:#ebe1e8"/><path d="M429.05266,612.28561l-22.597,10.89534a16.40005,16.40005,0,0,1-3.31779-14.91922l32.7684-15.79957Z" transform="translate(-6.56839 -31.40436)" style="fill:#f7f4f6"/><path d="M453.36313,596.43422l-27.62818.93193c1.57372-5.8272,6.28809-11.29123,13.59814-14.81584l22.597-10.89534Z" transform="translate(-6.56839 -31.40436)" style="fill:#e2343f"/><path d="M451.64976,601.39l-22.597,10.89535a16.40006,16.40006,0,0,1-3.3178-14.91922l32.76839-15.79958Z" transform="translate(-6.56839 -31.40436)" style="fill:#e94547"/><path d="M473.536,566.05906a47.08467,47.08467,0,0,1,6.19108-2.45635l11.69842,14.47938-43.0963,8.39c1.57373-5.82719,6.28809-11.29122,13.59814-14.81583l11.60865-5.59721Z" transform="translate(-6.56839 -31.40436)" style="fill:#ebe1e8"/><path d="M474.24405,590.496l-22.597,10.89535a16.39167,16.39167,0,0,1-3.31779-14.91923l35.89274-17.306Z" transform="translate(-6.56839 -31.40436)" style="fill:#f7f4f6"/><path d="M479.7272,563.60249a22.26288,22.26288,0,0,0-8.80328,11.97539l44.19326-3.66867s-7.20356-8.916-7.2013-8.92253A50.12042,50.12042,0,0,0,479.7272,563.60249Z" transform="translate(-6.56839 -31.40436)" style="fill:#e2343f"/><path d="M478.33832,572.003a60.2845,60.2845,0,0,1,24.217-6.01307l-9.85517,16.7168a12.28446,12.28446,0,0,0-4.75689,1.18412l-13.69879,6.605a16.41076,16.41076,0,0,1-3.32051-14.91792l7.41441-3.57492Z" transform="translate(-6.56839 -31.40436)" style="fill:#e94547"/><path d="M525.66194,573.96416l-23.10674-7.974a32.09533,32.09533,0,0,1,5.35834-2.99668C515.11389,564.98944,521.41655,568.70955,525.66194,573.96416Z" transform="translate(-6.56839 -31.40436)" style="fill:#ebe1e8"/><path d="M530.60634,584.891l-29.63209.97594c-1.7753-2.19733-4.98459-3.32033-8.27331-3.16357-.04158-6.49112,3.78186-12.49176,9.854-16.71353,9.9629-.25547,18.63745,2.4423,23.10673,7.974A22.70482,22.70482,0,0,1,530.60634,584.891Z" transform="translate(-6.56839 -31.40436)" style="fill:#f7f4f6"/><path d="M515.41251,611.748l-14.39806-18.75016a5.61808,5.61808,0,0,0-.04-7.13062,36.98693,36.98693,0,0,1,29.63209-.976C532.09925,594.73535,526.55287,605.0855,515.41251,611.748Z" transform="translate(-6.56839 -31.40436)" style="fill:#e94547"/><path d="M515.41251,611.748q-1.64819.98888-3.45768,1.8628l-4.11472,1.984c-6.81661,3.28669-15.56929,1.95935-19.54732-2.96434-3.97961-4.92564-1.6764-11.581,5.14022-14.86764l4.11472-1.984a9.22741,9.22741,0,0,0,3.471-2.78032C510.58676,596.65568,515.79541,604.02259,515.41251,611.748Z" transform="translate(-6.56839 -31.40436)" style="fill:#f7f4f6"/></g><g id="a142a0ce-445f-406e-b2fb-f117aff31312" data-name="star"><path d="M349.02478,536.19238l-.51721-6.73541V514.53772l-16.5943-.7467V529.457l-.52008,6.73541-.33847,4.40322a129.11668,129.11668,0,0,0,17.056,2.78739Z" transform="translate(-6.56839 -31.40436)" style="fill:gold"/><path d="M337.553,529.457v-15.4126l-5.63977-.25335V529.457l-.52006,11.20729a50.082,50.082,0,0,0,6.15983,1.24941Z" transform="translate(-6.56839 -31.40436)" style="fill:#f8bd31"/><path d="M340.208,514.16391l-2.655-.11951V513.791Z" transform="translate(-6.56839 -31.40436)" style="fill:#f8bd31"/><path d="M349.02477,536.19237l-4.56038-2.39874a9.15553,9.15553,0,0,0-8.5108,0l-4.56038,2.39874.52009-6.73541V513.791l16.59425.74668V529.457Z" transform="translate(-6.56839 -31.40436)" style="fill:#f8bd31"/><path d="M348.41,453.06147l7.04135,14.26721a9.14164,9.14164,0,0,0,6.88455,5.00208l15.74432,2.28784a9.14458,9.14458,0,0,1,5.068,15.598l-11.39235,11.10553a9.14508,9.14508,0,0,0-2.63011,8.094l2.68939,15.68121a9.14394,9.14394,0,0,1-13.26814,9.639l-14.08269-7.40273a9.14255,9.14255,0,0,0-8.50985,0l-14.08269,7.40273a9.14416,9.14416,0,0,1-13.26813-9.639l2.68938-15.68121a9.14245,9.14245,0,0,0-2.63011-8.094l-11.39235-11.10553a9.14486,9.14486,0,0,1,5.068-15.598l15.74432-2.28784a9.14483,9.14483,0,0,0,6.8855-5.00208l7.04039-14.26721A9.14566,9.14566,0,0,1,348.41,453.06147Z" transform="translate(-6.56839 -31.40436)" style="fill:gold"/><path d="M331.99456,498.54292l-20.73874,7.56622a9.15337,9.15337,0,0,0-2.59283-4.787l-11.39235-11.10553a9.02273,9.02273,0,0,1-2.47523-8.8177l37.06244,11.54628a8.77115,8.77115,0,0,0,.13671,5.5977Z" transform="translate(-6.56839 -31.40436)" style="fill:#f7a81b"/><path d="M335.10939,488.44507l-12.83026-17.8658a9.10287,9.10287,0,0,0,2.68938-3.24868l7.04135-14.26817a9.03779,9.03779,0,0,1,8.20009-5.09768v38.83782A8.6789,8.6789,0,0,0,335.10939,488.44507Z" transform="translate(-6.56839 -31.40436)" style="fill:#f7a81b"/><path d="M345.39655,502.589l23.02563,31.26969a9.04845,9.04845,0,0,1-9.87414.87862l-14.08174-7.40369a9.15,9.15,0,0,0-8.5108,0l-14.08174,7.40369a9.04843,9.04843,0,0,1-9.87413-.87862L335.02526,502.589a8.68665,8.68665,0,0,0,5.18469,1.70369h.00191A8.69309,8.69309,0,0,0,345.39655,502.589Z" transform="translate(-6.56839 -31.40436)" style="fill:#f7a81b"/><path d="M383.14829,490.21664l-11.39235,11.10553a9.1487,9.1487,0,0,0-2.58995,4.787l-20.73875-7.56622a8.77786,8.77786,0,0,0,.13385-5.5977l37.06243-11.54628A9.01194,9.01194,0,0,1,383.14829,490.21664Z" transform="translate(-6.56839 -31.40436)" style="fill:#f7a81b"/><path d="M351.48118,543.76442l-.854-11.08272,7.05182,3.70758a11.011,11.011,0,0,0,15.9757-11.60742l-2.68939-15.6803a7.2766,7.2766,0,0,1,2.09284-6.44281l11.39331-11.10559a11.01068,11.01068,0,0,0-6.10254-18.7807l-15.74433-2.28784a7.27634,7.27634,0,0,1-5.4801-3.981l-7.04132-14.26721a11.01053,11.01053,0,0,0-19.74731,0l-7.04041,14.26623a7.275,7.275,0,0,1-5.48108,3.982l-3.37866.49139a1.8655,1.8655,0,1,0,.53631,3.69226l3.3797-.49041a11.02446,11.02446,0,0,0,3.42743-1.0976l10.82734,15.07514a10.65788,10.65788,0,0,0-1.80982,2.50293l-33.54895-10.4516a7.1189,7.1189,0,0,1,5.35968-3.741l5.003-.7276a1.86557,1.86557,0,0,0-.53729-3.69226l-5.003.72662a11.01081,11.01081,0,0,0-6.10156,18.7807l11.39233,11.10559a7.277,7.277,0,0,1,2.09375,6.4419l-2.68939,15.68121a11.01016,11.01016,0,0,0,15.97473,11.60742l7.05286-3.70849-.54788,7.32867c1.20941.423,2.04434.6695,3.27261.99054l1.17694-10.37,3.12817-1.6444a7.278,7.278,0,0,1,6.77368,0l3.13013,1.64538,1.175,12.80689m10.73932-70.35761a10.98611,10.98611,0,0,0,3.42651,1.0976l15.7453,2.28784a7.11314,7.11314,0,0,1,5.3587,3.741l-33.548,10.45257a10.668,10.668,0,0,0-1.80981-2.503ZM342.0752,450.06519a7.12538,7.12538,0,0,1,4.66174,3.82232l7.0404,14.26721a10.98445,10.98445,0,0,0,1.87482,2.69031l-10.86652,15.12958a10.476,10.476,0,0,0-2.71044-.871ZM324.76776,470.845a11.02459,11.02459,0,0,0,1.87384-2.69031l7.04138-14.26721a7.12149,7.12149,0,0,1,4.66077-3.82232v35.03845a10.4796,10.4796,0,0,0-2.70947.871Zm-26.195,18.036a7.14315,7.14315,0,0,1-2.21044-5.04132l33.32238,10.38184a10.36956,10.36956,0,0,0,.07453,3.15112l-17.29981,6.31a10.99063,10.99063,0,0,0-2.49334-3.69708Zm11.87037,36.53083,2.68939-15.68024a11.0301,11.0301,0,0,0,.14148-2.3739l17.76733-6.48017a10.69284,10.69284,0,0,0,1.47614,1.96662l-20.73969,28.16443A7.1331,7.1331,0,0,1,310.44318,525.41187Zm27.90149-.83368a10.99937,10.99937,0,0,0-3.25824,1.10327l-14.08265,7.40375a7.121,7.121,0,0,1-6.29663.239l20.81336-28.26294a10.54632,10.54632,0,0,0,2.82416.92834Zm-5.01355-29.03156a6.87882,6.87882,0,1,1,6.87884,6.87885A6.88582,6.88582,0,0,1,333.33112,495.54663Zm26.084,37.53858-14.08172-7.40278a10.97522,10.97522,0,0,0-3.25727-1.10327V505.98962a10.55135,10.55135,0,0,0,2.82324-.92834l20.81232,28.26294A7.121,7.121,0,0,1,359.41516,533.08521Zm9.226-2.0766-20.73968-28.16443a10.69548,10.69548,0,0,0,1.47613-1.96662l17.76734,6.48017a11.03248,11.03248,0,0,0,.14148,2.3739l2.68939,15.68024A7.13306,7.13306,0,0,1,368.64111,531.00861Zm1.81269-31.023a11.00682,11.00682,0,0,0-2.49433,3.69708l-17.29986-6.31a10.36773,10.36773,0,0,0,.07458-3.15112l33.32233-10.38184a7.13911,7.13911,0,0,1-2.21039,5.04132Z" transform="translate(-6.56839 -31.40436)" style="fill:#1e1e1c"/></g><g id="b877a091-f0fd-472f-bf26-31d7a96f506f" data-name="hand"><path d="M387.69925,601.74176c1.90452-10.37283-4.56352-13.64013-13.83133-24.72289" transform="translate(-6.56839 -31.40436)" style="fill:none;stroke:#1d1e1b;stroke-miterlimit:10;stroke-width:2px"/><path d="M413.85979,579.2388c1.66453,1.3697,8.69911,9.80373,13.9569,11.08931a28.82051,28.82051,0,0,0,9.652.66717l26.61606-10.299A26.3417,26.3417,0,0,0,467.302,570.4389a24.9949,24.9949,0,0,0-.14626-5.8792,49.982,49.982,0,0,1-8.18956,3.62759c-13.44441,4.33633-24.13434,7.2961-36.44041-3.96213" transform="translate(-6.56839 -31.40436)" style="fill:#e8917b;stroke:#1d1d1b;stroke-miterlimit:10;stroke-width:2px"/><path d="M435.19994,616.70378c-2.14439,1.39649-4.529,2.81062-7.15756,4.17527a84.42409,84.42409,0,0,1-12.60028,5.29363L387.315,624.17279a1.44278,1.44278,0,0,1-.65685-2.66865c2.07915-1.24609,4.34167-2.48785,6.78934-3.682,2.43628-1.18859,6.51925-2.32034,8.74305-3.1796" transform="translate(-6.56839 -31.40436)" style="fill:#e8917b;stroke:#1d1d1b;stroke-miterlimit:10;stroke-width:2px"/><path d="M458.462,604.32718a50.20773,50.20773,0,0,1-20.13065,12.52574q-18.07041-1.10516-36.14087-2.21037a71.2379,71.2379,0,0,1,21.37839-11.09823" transform="translate(-6.56839 -31.40436)" style="fill:#e8917b;stroke:#1d1d1b;stroke-miterlimit:10;stroke-width:2px"/><path d="M470.615,594.03818a16.41788,16.41788,0,0,1-2.83316,4.47348,18.20139,18.20139,0,0,1-11.482,5.66638q-16.40275-.2237-32.80547-.44734A37.89432,37.89432,0,0,1,438.47183,593.74a53.17527,53.17527,0,0,1,10.67044-.44734c2.27966.13444,10.86916,1.32356,12.75619,1.66295" transform="translate(-6.56839 -31.40436)" style="fill:#e8917b;stroke:#1d1d1b;stroke-miterlimit:10;stroke-width:2px"/></g></svg>