<svg xmlns="http://www.w3.org/2000/svg" viewBox="0 0 5625 1000"><title>logo_mise_en_lumiere-v2</title><g id="a251278b-739f-4fd2-adcb-31ec62a390f0" data-name="Texte"><g id="a13e785a-e18a-4842-a33e-beb6e2a25462" data-name="playball"><path d="M1207.90869,273.52783l49.47949-3.46q-33.958,30.45556-96.48047,179.96826-92.55542,224.61621-85.915,319.57129,3.06957,43.89845,31.001,41.93946,12.75587-.8921,30.398-12.55176l.79834-.05567c1.59619-.1123,2.48731,1.167,2.67334,3.82227q1.06055,15.16992-38.29248,31.54883-39.35889,16.37841-64.89014,18.1709-53.4763,3.73974-57.543-54.51856-7.08691-101.33936,134.17236-420.78369Q1083.50269,409.75,1073.229,423.28809q-70.64062,90.76024-208.48584,298.46875-29.08227,42.93456-40.3208,54.1455-11.24487,11.21778-30.79785,12.57911-19.56445,1.36815-45.92676-8.81739,18.15307-26.92675,9.09668-156.61621-9.06883-129.67676-32.45214-234.707-24.99024,55.48534-87.11524,245.07324Q575.0957,823.0088,578.39453,870.09375q.39111,5.59278,1.30029,7.12695l-73.42041,5.13477Q543.61549,762.666,614.87012,566.00977q71.2434-196.64136,87.09863-233.84473-72.62915,5.07861-139.64453,38.63574-67.02832,33.55737-76.314,72.7002a3.13915,3.13915,0,0,1-3.02441,2.61816q-6.39624.44751-7.10986-9.92871-.11133-1.58936,4.87744-21.99365,4.98339-20.38477,21.43847-43.20069,16.44873-22.80249,39.665-34.85156,37.97608-18.6892,95.44776-22.71387l101.352-7.0874q23.94141-1.67431,38.46533,5.32959,14.51221,7.01,22.20313,36.53955,7.667,29.53712,20.42822,137.30957,12.74487,107.78541,15.81885,151.66455,3.06957,43.89991,2.58935,59.96485,104.12549-150.82325,270.22022-378.97168Q1137.66919,278.4458,1207.90869,273.52783Z" style="fill:red"/><path d="M1272.41992,507.99805l39.958-1.99317,7.98047-.55761q-12.10547,10.47069-30.28955,54.24511-18.19556,43.78859-27.05762,66.04785-8.87475,22.27441-19.46875,59.9043-10.60107,37.6377-8.98291,60.77442,1.61938,23.15478,16.78223,22.083,10.36157-.7251,28.15185-16.00293,17.76563-15.26367,28.66016-31.67675a477.14,477.14,0,0,0,23.97168-41.37207q13.084-24.97413,22.63574-43.28516,9.54713-18.29736,11.1416-18.42188,4.78857-.33544,5.82129,14.42872a55.27288,55.27288,0,0,1-5.99951,28.88964q-26.07276,51.55665-48.0918,86.36524a302.26448,302.26448,0,0,1-51.41845,61.73633q-29.39357,26.92236-54.93213,28.70214-44.70264,3.126-49.04346-59.12207Q1155.4873,682.19092,1213.52,560.2334,1238.09789,510.398,1272.41992,507.99805Zm101.168-112.93213-3.19238.22314q-15.9734,1.11694-29.77588,15.71582-13.82739,14.61181-19.19531,29.41016-21.31934-6.51636-22.75782-27.27832-1.45092-20.74365,16.22266-43.23731,17.67554-22.47508,35.23145-23.71582,17.54442-1.2268,26.89355,6.13916a26.37559,26.37559,0,0,1,10.20166,19.73633Q1388.08155,384.4414,1373.58789,395.06592Z" style="fill:red"/><path d="M1668.06934,638.31445q-52.8772,103.95264-98.82373,146.4502-45.95362,42.49512-123.35743,47.92187-44.70262,3.126-76.2163-11.91211-31.53737-15.03075-33.86963-48.55566a60.01261,60.01261,0,0,1,8.71777-35.89551q10.05029-16.73437,29.6084-18.10937,19.5454-1.36671,26.14306,12.60742-14.10864,16.229-12.70752,36.17383,2.79126,39.91552,47.481,36.77734,26.33569-1.84131,44.604-21.56348,18.26293-19.7168,16.73388-41.66894-1.53443-21.94042-12.2832-38.03613a126.81662,126.81662,0,0,0-25.208-27.90918q-14.47119-11.80665-28.91992-23.64063-34.90869-28.834-37.71436-69.13672-2.81762-40.28905,25.981-69.98242,28.78711-29.67993,82.26856-33.42041,33.51855-2.34375,57.499,8.0083,23.97363,10.35279,25.73828,35.49121,1.75782,25.13819-12.12109,44.55371-13.88526,19.42823-39.81641,21.22852-25.94238,1.81494-27.61084-22.12695-.38964-5.57373,17.18311-18.043,17.5686-12.44972,16.73681-24.42676-.83715-11.9707-11.23144-17.25879-10.40625-5.28661-28.74951-4.00391-18.36694,1.28467-34.61963,15.252-16.27662,13.97607-14.81446,34.71777,1.4524,20.7627,20.292,37.87695a192.0234,192.0234,0,0,0,40.48242,28.44434q21.63646,11.32617,40.78955,32.835,19.136,21.5171,20.90625,46.65527,1.7578,25.13819-8.41895,45.89942-10.18212,20.76563-25.30029,33.84668,43.34545-22.27734,88.271-102.40723,4.34253-6.71191,14.917-27.50781,24.41016-52.229,27.6084-52.45313,4.78857-.33544,5.82031,14.42969A55.27107,55.27107,0,0,1,1668.06934,638.31445Z" style="fill:red"/><path d="M1954.57227,572.56738q4.78857-.33544,5.877,15.22754,1.08765,15.561-10.17432,38.002-11.26758,22.43994-22.292,42.458-11.04273,20.02-29.99365,47.00684-18.97485,27.00147-37.85449,43.54687-47.70924,40.23193-98.38623,43.76954-50.688,3.54492-83.61329-20.21583-32.93628-23.748-36.67627-77.22949-5.69238-81.40137,49.30567-155.0166,54.99829-73.61572,134.80273-79.19629,35.91212-2.51074,58.771,14.73584,22.85963,17.25366,24.70068,43.58252,3.126,44.70411-37.27392,74.78223-40.41064,30.09815-97.85889,34.10937-33.51781,2.34375-50.09277-5.31836-12.32228,41.76123-10.13965,72.88575,4.6875,67.03565,61.34912,63.07324,33.5171-2.34375,67.21728-30.76367a302.03658,302.03658,0,0,0,56.57764-62.499q22.87792-34.07958,50.55908-96.96289C1951.23682,574.68066,1952.97656,572.67871,1954.57227,572.56738ZM1865.5708,515.4375q-1.61865-23.1372-23.96435-21.58057-31.12428,2.17677-66.75147,43.16162t-33.95312,64.92579q1.11693,15.97411,31.44189,13.84082,30.32007-2.12111,61.37988-33.96485Q1864.76661,549.99073,1865.5708,515.4375Z" style="fill:red"/><path d="M2479.66748,535.84766q4.78712-.33546,5.876,15.22656,1.08837,15.5625-10.17383,38.002-11.26758,22.44141-22.292,42.459-11.042,20.01855-29.99414,47.00683-18.97413,27.00147-37.85352,43.54688-47.71,40.23046-98.38574,43.76953-50.68946,3.54492-83.61377-20.21582-32.93628-23.74951-36.67676-77.22949-5.69238-81.40137,49.30615-155.01661,54.99829-73.61644,134.80274-79.19677,35.9121-2.51075,58.77051,14.73584,22.86035,17.25366,24.70019,43.583,3.12744,44.70264-37.27344,74.78223-40.41065,30.09814-97.8584,34.10938-33.51708,2.34375-50.09277-5.31836-12.323,41.76123-10.13965,72.88476,4.6875,67.03565,61.34864,63.07422,33.51855-2.34522,67.21777-30.76465a301.99818,301.99818,0,0,0,56.57715-62.499q22.87792-34.07812,50.55957-96.96289C2476.33154,537.96,2478.07178,535.959,2479.66748,535.84766Zm-89.00195-57.13037q-1.61865-23.13721-23.96387-21.58057-31.12353,2.17676-66.751,43.16162-35.62792,40.98413-33.95361,64.92627,1.11695,15.97411,31.44189,13.83984,30.3208-2.11962,61.37989-33.96484Q2389.86182,513.27,2390.66553,478.71729Z" style="fill:red"/><path d="M2826.10938,558.93555q-26.07349,51.55664-48.09229,86.36523a302.24765,302.24765,0,0,1-51.418,61.73731q-29.39355,26.92089-54.93066,28.70117-47.09766,3.293-50.71289-48.58008-3.627-51.86719,45.28808-212.47607a37.1492,37.1492,0,0,0,2.13184-15.38623q-1.17187-16.75856-22.32031-15.27979-21.15381,1.47949-40.57715,16.06982-19.4297,14.59058-34.48633,40.103a538.26167,538.26167,0,0,0-26.86621,51.59912,409.20959,409.20959,0,0,0-21.09278,59.61621q-9.28857,33.54346-14.53125,55.95118-5.25585,22.4326-10.27441,48.0332-5.03321,25.61279-5.65625,28.0625l-77.41113,5.41308Q2413.9878,732.106,2471.939,551.625q22.98193-84.19556,20.69336-116.92773-.55811-7.968-3.23144-11.80323l33.51758-2.34424q27.92577-1.95263,36.30273,3.0752a17.638,17.638,0,0,1,9.041,14.60449q.66944,9.57716-6.04395,39.71826,62.57227-68.52538,130.40528-73.27539,45.48925-3.1809,48.39062,38.31787a96.01229,96.01229,0,0,1-2.09277,27.41211q-3.05274,13.85963-16.15625,55.66211-28.875,91.84425-26.74317,122.16309,1.34034,19.15283,15.7041,18.14844,10.36377-.72365,28.125-16.40137a177.62487,177.62487,0,0,0,29.03125-32.10352,438.91,438.91,0,0,0,24.39844-41.00195q13.11328-24.561,22.26319-42.85742,9.13623-18.26953,10.74316-18.39453,4.79-.334,5.82129,14.42871A55.28488,55.28488,0,0,1,2826.10938,558.93555Z" style="fill:red"/><path d="M3316.41016,196.65088q-24.65479,60.2732-78.54883,138.21582-53.90333,77.95605-97.85254,125.93262l-10.20215,37.603q-7.62157,28.6128-13.61035,69.11719-6,40.52929-4.01856,57.21973,1.67433,23.94141,19.23145,22.71387,17.543-1.22754,40.50195-22.88086,22.93946-21.64161,33.085-37.19922,10.13526-15.5376,23.23047-40.51856,13.084-24.97412,22.63574-43.28515,9.54639-18.29664,11.14161-18.42139,4.78857-.33472,5.82129,14.42871a55.28614,55.28614,0,0,1-5.999,28.88916q-38.71,77.28661-63.71582,109.51074-50.82274,64.50879-109.082,68.57617-44.70409,3.126-48.93164-57.52539-4.18506-59.85351,38.84766-212.82812,3.09081-13.03491,14.61523-54.75293,11.51953-41.70411,20.30273-65.17432,8.77149-23.469,23.71875-62.20654,14.92238-38.72827,29.73145-62.22559,14.78613-23.47559,33.12988-48.02734,35.85645-49.00854,81.35645-52.20264,45.48925-3.18163,48.39062,38.31739Q3332.42334,161.85571,3316.41016,196.65088Zm-22.8418-85.81543-5.58691.39062q-48.687,3.40431-135.19336,302.96827,100.3418-136.125,134.50195-221.1211,18.81738-51.83862,17.74121-67.40136Q3303.94287,110.1101,3293.56836,110.83545Z" style="fill:red"/><path d="M3525.07031,348.063l38.36328-1.88086q11.97071-.83716,15.10743-1.8584-21.29151,16.73145-56.84961,110.23389-35.56349,93.51416-32.77246,133.41113,1.67285,23.94141,17.63476,22.8252,10.3623-.7251,27.38184-15.54883a164.49652,164.49652,0,0,0,28.63183-32.0752,454.34936,454.34936,0,0,0,24.71485-42.22656q13.084-24.97411,22.63672-43.28467,9.54492-18.29662,11.1416-18.42139,4.78857-.33471,5.84765,14.82764a52.15009,52.15009,0,0,1-6.76855,29.34326q-87.41309,172.11768-153.64453,176.748-44.70264,3.126-49.32227-63.1123a242.77707,242.77707,0,0,1,.40137-40.126q-67.59815,111.39258-135.42774,116.12988-19.95849,1.396-33.49316-14.49805-13.5542-15.89355-15.83008-48.61425-2.28809-32.7129,15.582-109.75391,17.86231-77.03321,47.98243-128.05859,7.13232-12.52807,16.126-15.96387,8.97071-3.42774,34.51953-5.2207l38.30664-2.67871q-18.06006,28.53588-37.96093,76.43408-45.02492,113.02807-41.45313,164.09033,2.12109,30.33839,24.06738,28.791,21.939-1.53371,49.31446-45.95118,27.36182-44.41113,57.36621-114.28027,30-69.85693,34.97168-79.03174Q3497.9248,349.97436,3525.07031,348.063Z" style="fill:red"/><path d="M4150.832,466.29688q-26.07274,51.55664-48.09277,86.36523a302.2433,302.2433,0,0,1-51.417,61.7373q-29.39356,26.9209-54.93164,28.70118-47.09766,3.293-50.87989-50.97461-4.40771-63.03369,37.72071-183.07666,9.10252-30.29591,8.32617-41.48145-1.11621-15.95508-15.48047-14.95605-8.79052.61449-29.60156,12.49511-20.81984,11.88722-38.92286,33.99805-18.11131,22.13013-28.84375,40.51074-10.7417,18.40063-22.65234,54.5127-11.90772,36.1311-15.69238,50.81787-18.1333,73.44434-23.86914,105.92285l-78.209,5.46973q33.44972-117.82032,46.23438-158.812,12.772-40.98341,15.29394-50.79l5.61914-22.84815q6.98731-26.14453,5.82129-42.91015-1.17187-16.75856-16.335-15.69825-12.7749.89283-33.93359,13.6001-21.17726,12.7207-40.40723,35.70557a196.843,196.843,0,0,0-31.22754,52.30566q-11.99121,29.31446-18.91308,50.6416-6.92725,21.34865-13.61426,51.877-6.69873,30.542-12.15723,49.76855-5.47851,19.23486-10.9248,44.4707l-77.41114,5.41309a536.2839,536.2839,0,0,1,14.96778-61.19238L3613.9082,471.7666q26.32911-82.02393,23.77344-118.74756c-.37109-5.312-1.14941-8.74072-2.32129-10.26269l33.51758-2.34424q27.12012-1.89624,35.47754,2.73193,8.33057,4.64209,8.957,13.40772.61524,8.79126-6.73047,41.37012,65.751-68.74806,135.99219-73.666,42.29-2.95752,44.75195,32.15625,1.06054,15.16845-6.15625,38.12207,67.53369-77.68725,144.15723-83.05811,41.48584-2.90186,43.95312,32.21192a83.26757,83.26757,0,0,1-3.46484,30.71631q-4.58789,14.7561-11.77051,38.11377-7.1997,23.35913-11.74121,38.51269-4.56006,15.16773-10.23047,37.2041-12.09668,44.95972-10.61328,66.10108,1.47949,21.15526,14.64551,20.22754,13.169-.91992,31.8916-19.87305,18.71192-18.939,27.80566-32.418,9.07911-13.4546,22.2002-38.042,13.11474-24.561,22.26465-42.85693,9.13476-18.26953,10.74316-18.39454,4.78859-.33471,5.82031,14.42871A55.27358,55.27358,0,0,1,4150.832,466.29688Z" style="fill:red"/><path d="M4230.69824,301.124l39.959-1.99267,7.98047-.55811q-12.10548,10.47071-30.29,54.24463-18.19629,43.7893-27.05762,66.04834-8.874,22.27368-19.46973,59.9043-10.60107,37.63623-8.98144,60.77441,1.61865,23.15479,16.78125,22.083,10.3623-.7251,28.15234-16.00293,17.76563-15.26367,28.65918-31.67676a477.16632,477.16632,0,0,0,23.97363-41.37256q13.08252-24.97338,22.63477-43.28418,9.54639-18.2981,11.14258-18.42236,4.7871-.33471,5.82031,14.42871a55.285,55.285,0,0,1-5.999,28.88916q-26.07423,51.55665-48.09278,86.36475a302.2522,302.2522,0,0,1-51.418,61.7373q-29.395,26.92236-54.93261,28.70215-44.70264,3.126-49.043-59.12305-6.75292-96.55077,51.28125-218.5083Q4196.376,303.52368,4230.69824,301.124Zm101.168-112.93213-3.19141.22315q-15.97558,1.11695-29.77734,15.71533-13.82666,14.61255-19.19336,29.41065-21.3208-6.51709-22.75976-27.27832-1.4502-20.74366,16.22363-43.2378,17.6748-22.47437,35.23144-23.71533,17.54443-1.22681,26.89356,6.13867a26.37832,26.37832,0,0,1,10.20117,19.73633Q4346.35987,177.56689,4331.86621,188.19189Z" style="fill:red"/><path d="M4611.19629,386.78809q4.78857-.33473,5.876,15.22754,1.08837,15.56176-10.17286,38.00146-11.269,22.44141-22.293,42.459-11.04054,20.0193-29.99219,47.00635-18.97559,27.00147-37.85547,43.54688-47.70849,40.23193-98.38477,43.76953-50.68946,3.54492-83.61328-20.21582-32.93847-23.748-36.67773-77.22949-5.69238-81.40063,49.30664-155.01612,54.99756-73.61644,134.80273-79.19677,35.91211-2.51148,58.77051,14.73583,22.85889,17.25367,24.7002,43.583,3.12744,44.70338-37.27344,74.78223-40.41212,30.09814-97.8584,34.10937-33.51855,2.34375-50.09277-5.31836-12.32373,41.76124-10.14063,72.88428,4.689,67.03565,61.34961,63.07422,33.51855-2.34375,67.2168-30.76367a302.01547,302.01547,0,0,0,56.57812-62.49951q22.87794-34.07886,50.5586-96.96289C4607.86133,388.90137,4609.60059,386.8999,4611.19629,386.78809ZM4453.51855,173.269q-35.55028-15.145-49.10351-19.82324-13.55714-4.65234-13.66992-6.26172-.334-4.78857,15.01269-14.68262,15.34131-9.88769,21.73145-10.3413,6.37792-.44606,9.6875.92627,15.09228,9.37646,43.62012,27.42382l48.68554,31.07959q19.29932,12.29517,25.05762,14.28662.167,2.3943-7.56152,6.54346-7.73585,4.1499-9.72461,4.28906-2.001.1399-25.1211-9.4707Zm68.67579,156.38916q-1.61719-23.1372-23.96387-21.58056-31.12353,2.17676-66.751,43.16113-35.62645,40.9856-33.95312,64.92676,1.11621,15.97411,31.44238,13.83984,30.31934-2.11962,61.37891-33.96435Q4521.39063,364.21143,4522.19434,329.6582Z" style="fill:red"/><path d="M4783.62012,260.85352l40.75683-2.04786,7.98047-.5581q-11.35547,9.62769-30.29,54.24512-18.94482,44.62939-28.17187,67.32861-9.23732,22.71313-19.81153,60.73-10.57177,38.02954-8.9541,61.17334,1.61865,23.15625,17.5791,22.02734,10.3081-1.51171,28.09668-16.80078a166.80051,166.80051,0,0,0,29.0586-31.70459q11.27637-16.42675,24.34375-41.7998,13.05615-25.366,22.58008-44.08252,9.51855-18.70972,11.11328-18.8208,5.57373-.39039,6.62011,14.373a55.27374,55.27374,0,0,1-6,28.88868q-30.35888,59.07422-50.5791,90.9497a294.96451,294.96451,0,0,1-49.98925,59.23145q-29.77736,27.34424-55.30274,29.1289-45.48925,3.18018-50.17676-63.85546-3.18164-45.4878,10.3584-104.1753,13.52637-58.6875,44.11524-114.55664-26.38038,24.30543-54.29981,26.252a47.61673,47.61673,0,0,1-18.63476-2.70655q-48.85988,115.70289-53.23829,115.99561-4.39452.30762-5.30859-12.86035-.92139-13.16822,7.4082-37.40821,8.32324-24.227,18.39356-46.59619,10.05322-22.35571,10.69629-24.80615-29.73486-12.356-31.9668-44.27832a45.54833,45.54833,0,0,1,7.9668-29.42676q9.07764-13.45386,26.63867-14.69433,17.54443-1.22682,29.51074,9.16357-1.27294,4.90063-.59082,14.47607,1.50732,21.54786,17.93359,32.82911,16.42823,11.29467,38.77247,9.71923a42.40606,42.40606,0,0,0,9.5205-1.46826Q4754.88575,262.86915,4783.62012,260.85352Z" style="fill:red"/><path d="M5165.03027,348.05811q4.78859-.33472,5.876,15.22753,1.08839,15.56178-10.17285,38.002-11.269,22.44067-22.293,42.45849-11.04052,20.0193-29.99219,47.00684-18.97559,27.00147-37.85547,43.54687-47.70849,40.23048-98.38476,43.76954-50.68946,3.54492-83.61328-20.2168-32.93848-23.748-36.67774-77.22852-5.69238-81.40135,49.30664-155.0166,54.99756-73.61644,134.80274-79.19678,35.9121-2.51146,58.77051,14.73584,22.85888,17.25368,24.70019,43.583,3.12744,44.70337-37.27344,74.78223-40.4121,30.09814-97.8584,34.10937-33.51855,2.34375-50.09277-5.31836-12.32373,41.76123-10.14062,72.88477,4.689,67.03564,61.34961,63.07324Q5019,541.917,5052.69824,513.49707a301.99874,301.99874,0,0,0,56.57813-62.49853q22.87793-34.07959,50.55859-96.9629C5161.69531,350.17139,5163.43457,348.16992,5165.03027,348.05811Zm-89.00195-57.12989q-1.61718-23.1372-23.96387-21.58056-31.12353,2.17675-66.751,43.16162-35.62647,40.98486-33.95313,64.92627,1.11621,15.97412,31.44238,13.84033,30.31935-2.12037,61.37891-33.96484Q5075.2246,325.48145,5076.02832,290.92822Z" style="fill:red"/></g></g><g id="b6347029-4d0c-440d-b082-3881aecb0652" data-name="soulignage"><g id="af17daa1-a799-450c-96af-62eadb3e6905" data-name="movie-film"><path d="M180.86937,950.60367H261.1389a51.56363,51.56363,0,0,0,36.90391-15.45585c14.84529-15.01133,27.2942-24.31631,50.07833-24.31631H368v30.2494H348.12114c-11.61157,0-17.06824,3.467-28.925,15.45586a81.11759,81.11759,0,0,1-58.05719,24.31631H180.86937Z"/><circle cx="176.83518" cy="854.83517" r="126.01726" style="fill:#bab8b9"/><path d="M196.10747,974.4292a126.0362,126.0362,0,0,1-49.41379-241.97409,126.036,126.036,0,1,0,79.55593,238.33627A126.28567,126.28567,0,0,1,196.10747,974.4292Z" style="fill:#9e9c9d"/><circle cx="245.4872" cy="833.28305" r="30.97595" style="fill:#fdf5e6"/><circle cx="220.36339" cy="911.98844" r="30.97595" style="fill:#fdf5e6"/><circle cx="133.31338" cy="911.98844" r="30.97595" style="fill:#fdf5e6"/><circle cx="108.18317" cy="833.28305" r="30.97595" style="fill:#fdf5e6"/><circle cx="176.83518" cy="782.9905" r="30.97595" style="fill:#fdf5e6"/><circle cx="176.83518" cy="854.83518" r="18.10892" style="fill:#fdf5e6"/><path d="M215.30715,840.25811a30.97594,30.97594,0,0,0,33.5044,23.8191,73.24886,73.24886,0,0,0,.58328-9.242,72.2915,72.2915,0,0,0-18.78728-48.71679A30.98361,30.98361,0,0,0,215.30715,840.25811Z"/><path d="M240.94359,888.84063a30.97646,30.97646,0,0,0-48.37119,36.83645A72.676,72.676,0,0,0,240.94359,888.84063Z"/><path d="M152.07818,887.34643a30.98186,30.98186,0,0,0-39.34948,1.49483,72.67852,72.67852,0,0,0,48.37182,36.8371A30.984,30.984,0,0,0,152.07818,887.34643Z"/><path d="M123.06473,806.11839a72.2915,72.2915,0,0,0-18.78728,48.71679,73.24886,73.24886,0,0,0,.58328,9.242,30.97238,30.97238,0,0,0,18.204-57.95882Z"/><path d="M176.83582,782.27616a72.27572,72.27572,0,0,0-30.401,6.66221,30.97682,30.97682,0,0,0,60.802,0A72.27356,72.27356,0,0,0,176.83582,782.27616Z"/><path d="M199.76008,854.83518a22.92459,22.92459,0,1,0-22.9249,22.92426A22.95064,22.95064,0,0,0,199.76008,854.83518Zm-36.2127,0a13.28876,13.28876,0,1,1,13.28844,13.28844A13.30333,13.30333,0,0,1,163.54738,854.83518Z"/><path d="M280.365,825.22687a35.61911,35.61911,0,0,0-34.84891-27.74346,35.80667,35.80667,0,0,0-34.07419,46.86285c5.60741,17.38751,24.32724,27.922,42.10469,23.81525A35.8356,35.8356,0,0,0,280.365,825.22687Zm-35.94162,34.195a26.05448,26.05448,0,0,1-13.96489-4.683c-14.28735-9.99555-14.62395-31.77059-.78049-42.29162a67.57457,67.57457,0,0,1,14.8989,42.388C244.57692,856.36277,244.52553,857.89616,244.4234,859.42184Zm9.71869-1.45373c.04175-1.04453.07065-2.08968.07065-3.13293a77.18774,77.18774,0,0,0-15.7231-46.753c.36744-.1015.73682-.19914,1.11069-.28522a26.30633,26.30633,0,0,1,5.91639-.67836,26.16153,26.16153,0,0,1,8.62537,50.84952Z"/><path d="M184.64469,909.75422l-.00579.09186a35.78276,35.78276,0,0,0,35.74762,37.94266,36.125,36.125,0,0,0,35.4457-30.99458c2.59782-19.18621-11.15507-37.47884-30.32136-40.21863-.14068-.01992-.28073-.04176-.42141-.06038C204.80346,873.80362,185.9526,889.36675,184.64469,909.75422Zm9.684.31349a26.09745,26.09745,0,0,1,40.35482-19.97055,67.62345,67.62345,0,0,1-39.23514,29.88645A25.61869,25.61869,0,0,1,194.32868,910.06771Zm51.95507,5.43268a26.4095,26.4095,0,0,1-25.89915,22.65188,25.96818,25.96818,0,0,1-20.20567-9.533,77.22479,77.22479,0,0,0,41.57472-31.67358A25.96757,25.96757,0,0,1,246.28375,915.50039Z"/><path d="M111.62444,940.46871a35.47556,35.47556,0,0,0,21.66325,7.31938c20.31424,0,36.999-17.64448,35.74441-37.94971l-.0045-.07708a35.75719,35.75719,0,0,0-40.86681-33.18577,35.78816,35.78816,0,0,0-16.53635,63.89318Zm17.81535-54.34409c.05846-.00835.11691-.01735.176-.0257,15.75071-2.179,30.42414,11.04008,29.83315,26.9077-.00128.0257-.00193.05139-.00257.07709a25.94744,25.94744,0,0,1-1.22374,6.90053,67.62011,67.62011,0,0,1-39.2345-29.88645A26.11078,26.11078,0,0,1,129.43979,886.12462Zm-17.52114,10.82165a77.22823,77.22823,0,0,0,41.57408,31.67294,26.15093,26.15093,0,0,1-41.57408-31.67294Z"/><path d="M137.95207,813.5277a36.0934,36.0934,0,0,0-29.79716-16.04428,35.801,35.801,0,0,0-30.33228,54.76486,36.13871,36.13871,0,0,0,30.39009,16.83827,35.596,35.596,0,0,0,34.03308-24.79489A36.22686,36.22686,0,0,0,137.95207,813.5277Zm-3.6507,21.09731a26.35563,26.35563,0,0,1-25.05377,24.79745c-.10214-1.52631-.15289-3.059-.15289-4.58729a67.57626,67.57626,0,0,1,14.89441-42.38284c.11756.08929.23576.1773.35139.26788A26.60478,26.60478,0,0,1,134.30137,834.625ZM85.99572,847.14322a26.16494,26.16494,0,0,1,22.15854-40.02463,26.34173,26.34173,0,0,1,7.0258.96423,77.1964,77.1964,0,0,0-15.72117,46.75236c0,1.04388.02827,2.089.07,3.13421A25.96006,25.96006,0,0,1,85.99572,847.14322Z"/><path d="M141.73509,789.93086a35.72213,35.72213,0,1,0-.69441-6.93652A35.24583,35.24583,0,0,0,141.73509,789.93086Zm59.18835,3.26268c-6.46563,15.21175-26.2711,20.68618-39.60965,10.841a26.35847,26.35847,0,0,1-8.56753-10.84415l-.02248-.05268c-.03084-.07194-.57109-1.40426-.54411-1.41453a67.977,67.977,0,0,1,49.31164,0C201.49774,791.72569,200.93244,793.173,200.92344,793.19354Zm-24.08826-36.35916a26.18711,26.18711,0,0,1,26.13427,25.15591,77.61656,77.61656,0,0,0-52.2679,0A26.187,26.187,0,0,1,176.83518,756.83438Z"/><path d="M196,985c57-13,55-20,73-33,22.25617-23.46644,38.67167-62.34544,38.67167-97.16351a130.50185,130.50185,0,0,0-47.49977-100.865,4.81811,4.81811,0,1,0-6.18012,7.393,121.20873,121.20873,0,0,1-73.26241,214.60322c-1.29313.04111-2.59011.06873-3.89352.06873A121.20065,121.20065,0,1,1,238.48938,750.476a4.81885,4.81885,0,1,0,5.02827-8.22062A130.68831,130.68831,0,0,0,176.83646,724C104.69307,723.99936,46,782.69179,46,854.83518,46,926.97792,104.69307,985.671,176.83582,985.671q1.71133,0,3.413-.04432a4.82675,4.82675,0,0,0,.62055.04432" style="stroke:#000;stroke-miterlimit:10;stroke-width:3px"/><g id="a59eba1f-78a3-433c-8c9d-216222cf1145" data-name="bande_magnetique"><path d="M5364,893.612"/><path d="M5217,676c-303.18064-36.19848-1627.39733,68.35982-2402,120-30,2-271,17-271,17L330,943c-6.29679,0-44.17749,30.70741-53,30-1.043-.08363-4.76508-12.18924-3.95025-12.84564L308,932c0-7.05843,20.94157-20,28-20L2618,785c551-41,2323.40354-174,2672-174"/><path d="M4028,876"/></g></g></g><g id="f8483680-d833-4836-b69a-9912946bef48" data-name="icones"><g id="b2192a6c-6169-43f4-906b-2c2706dadf1a" data-name="popcorn"><path d="M5573.18,762.95687a15.85,15.85,0,0,0-7.92423-11.12731,14.51186,14.51186,0,0,0-12.8697-1.15811c0-.33388.09912-.6521.09912-.99118a15.514,15.514,0,0,0-20.96609-14.659c0-.33387.09913-.65209.09913-.99118a15.65009,15.65009,0,0,0-15.65023-15.65022,15.65008,15.65008,0,0,0-15.65022-15.65022c-.33908,0-.65731.07825-.99117.09911a14.362,14.362,0,0,0-.25041-11.08036,16.12493,16.12493,0,0,0-13.04185-9.82834,22.82243,22.82243,0,0,1-32.78657-4.399c-6.219,2.2458-10.28367.86743-10.24781,7.479.01435-8.62914-7.03525-8.33977-15.66375-8.35476a15.62539,15.62539,0,0,0-13.25117,7.30409,15.19341,15.19341,0,0,0-11.29946-1.64328,15.85425,15.85425,0,0,0-11.75854,12.348,15.51961,15.51961,0,0,0,3.91256,13.38094,15.57093,15.57093,0,0,0-12.12893,7.19389,15.21717,15.21717,0,0,0-12.73928-1.22594,15.72839,15.72839,0,0,0-9.66662,9.54143,15.41207,15.41207,0,0,0,.20867,11.096,15.60806,15.60806,0,0,0-11.58117,15.04508c0,.33908.07826.65731.09912.99118a14.50893,14.50893,0,0,0-12.8384,1.14246,15.86356,15.86356,0,0,0-7.95032,11.143,15.58344,15.58344,0,0,0,7.366,15.7024l2.89007,2.32666h18.2586v20.42354h182.58595v-20.434h23.47534l-.73034-.73034A15.58751,15.58751,0,0,0,5573.18,762.95687Z" style="fill:#ffb932"/><path d="M5372.50765,978.7839l-45.297-178.90293a24.29882,24.29882,0,0,1,23.67879-29.76672h.22954a24.29918,24.29918,0,0,1,24.10656,21.21127l28.58252,187.45838Z" style="fill:#d30114"/><path d="M5403.80809,978.7839l-27.78958-181.27656a24.2987,24.2987,0,0,1,24.10657-27.3931h.866a24.29937,24.29937,0,0,1,24.29436,23.67879l9.82312,184.99085h-31.30045Z" style="fill:#fdf5e6"/><path d="M5425.31672,795.03983l9.79183,183.74407H5466.409l9.12408-183.10762a24.3,24.3,0,0,0-23.00452-25.52943q-.62406-.03228-1.24811-.0326h-1.6537a24.299,24.299,0,0,0-24.31784,24.28133q0,.32178.00782.64425Z" style="fill:#d30114"/><path d="M5475.65827,793.17224,5466.409,978.78392h31.30045l26.99142-180.67141a24.29893,24.29893,0,0,0-24.01788-27.99825h-.75643A24.29947,24.29947,0,0,0,5475.65827,793.17224Z" style="fill:#fdf5e6"/><path d="M5549.87685,770.11424a24.29925,24.29925,0,0,1,23.53795,30.33535l-44.40491,178.33433h-31.30045l28.12866-188.06353A24.29923,24.29923,0,0,1,5549.87685,770.11424Z" style="fill:#d30114"/><path d="M5382.94113,848.36536H5518.5764v62.6009H5382.94113Z" style="fill:#ffb932"/><path d="M5346.42394,691.86312a15.5981,15.5981,0,0,0-29.35461-7.41364,15.4444,15.4444,0,0,0-1.94584-.193,15.6577,15.6577,0,1,0,2.17016,31.08135,15.58754,15.58754,0,0,0,27.13292-15.35222q-.08509-.14966-.1728-.29736A15.49333,15.49333,0,0,0,5346.42394,691.86312Z" style="fill:#ffb932"/><path d="M5602.04427,702.2966a15.59809,15.59809,0,0,0-29.3546-7.413,15.44659,15.44659,0,0,0-1.94585-.193,15.6577,15.6577,0,1,0,2.17016,31.08135,15.58754,15.58754,0,1,0,27.13291-15.35222q-.08509-.14966-.17281-.298A15.49305,15.49305,0,0,0,5602.04427,702.2966Z" style="fill:#ffb932"/><path d="M5351.64068,707.51334a20.5271,20.5271,0,0,0-1.565-7.82511,20.52707,20.52707,0,0,0,1.565-7.82511,20.80947,20.80947,0,0,0-37.25275-12.8071,20.86772,20.86772,0,1,0,.35474,41.73393,20.80969,20.80969,0,0,0,36.898-13.27661Zm-29.83976,5.21675-2.13365-2.97876-3.47435.49037a7.43512,7.43512,0,0,1-1.06943.09912,10.43348,10.43348,0,0,1,0-20.867,11.05637,11.05637,0,0,1,1.29376.15129l3.53695.44864,1.70066-3.13005a10.38657,10.38657,0,0,1,19.55234,4.91939,10.22805,10.22805,0,0,1-1.46069,5.21674l-1.5285,2.60837,1.5285,2.60837a10.22811,10.22811,0,0,1,1.46069,5.21675,10.43311,10.43311,0,0,1-10.43348,10.43348A10.31941,10.31941,0,0,1,5321.80092,712.73009Z"/><path d="M5607.261,702.2966a20.80947,20.80947,0,0,0-37.25275-12.8071,20.86772,20.86772,0,0,0,.35475,41.73393,20.80969,20.80969,0,0,0,36.898-13.27661,20.5271,20.5271,0,0,0-1.565-7.82511A20.52952,20.52952,0,0,0,5607.261,702.2966Zm-11.89417,10.43349a10.228,10.228,0,0,1,1.46069,5.21674,10.43311,10.43311,0,0,1-10.43349,10.43348,10.31862,10.31862,0,0,1-8.9728-5.21674l-2.13365-2.97876-3.47435.49037a7.51854,7.51854,0,0,1-1.07466.11477,10.43348,10.43348,0,0,1,0-20.867,11.0561,11.0561,0,0,1,1.29376.15128l3.537.44864,1.70066-3.13a10.38656,10.38656,0,0,1,19.55757,4.90373,10.22818,10.22818,0,0,1-1.46069,5.21675l-1.5285,2.60837Z"/><path d="M5441.23783,676.80605c-7.72743-6.99769-11.23783-8.80605-27.66856-.198-.36452.32018,17.77243-.95236,17.43073-.60806-3.54869-1.12812-25.831.3544-29.44554,1.25038a21.13275,21.13275,0,0,0-15.65022,16.49012,20.76354,20.76354,0,0,0,1.04335,11.15339,20.89987,20.89987,0,0,0-5.67581,4.01689,20.198,20.198,0,0,0-12.87492.193,20.9242,20.9242,0,0,0-12.90622,12.74971,20.68892,20.68892,0,0,0-1.04334,9.72923,20.95544,20.95544,0,0,0-9.95355,12.90621,19.47216,19.47216,0,0,0-10.78822,2.81183A21.10812,21.10812,0,0,0,5323.1938,762.205a20.72492,20.72492,0,0,0,3.65171,15.19115,29.37546,29.37546,0,0,0-4.69506,23.77791L5368.449,984h164.64036L5578.475,801.7427a29.266,29.266,0,0,0-4.17339-23.83008,20.57319,20.57319,0,0,0,4.03775-15.71739h0a21.06137,21.06137,0,0,0-10.48043-14.88858,20.4414,20.4414,0,0,0-10.81431-2.8327,21.0809,21.0809,0,0,0-20.867-15.65022,20.94517,20.94517,0,0,0-15.525-15.12855,20.95131,20.95131,0,0,0-15.12856-15.525,19.3623,19.3623,0,0,0-1.66414-8.50329,21.44588,21.44588,0,0,0-17.403-12.93231,20.72436,20.72436,0,0,0-11.70637,2.45709C5467.55863,670.2495,5449.94215,669.80807,5441,677m-102.109,79.33161a9.30219,9.30219,0,0,1,8.46155-.76165,5.21737,5.21737,0,0,0,6.98521-5.21674c0-.13042-.073-.52167-.08868-.66774a10.433,10.433,0,0,1,7.726-10.01615,5.21628,5.21628,0,0,0,3.50439-6.90377,10.46085,10.46085,0,0,1-.82685-3.388,10.58944,10.58944,0,0,1,7.07255-10.41352,10.017,10.017,0,0,1,8.48242.82425,5.21716,5.21716,0,0,0,6.97479-1.74239,10.2989,10.2989,0,0,1,8.08594-4.78375,5.21646,5.21646,0,0,0,3.48478-8.73283,10.30357,10.30357,0,0,1-2.60837-8.94671,10.56384,10.56384,0,0,1,7.88249-8.20593,9.91239,9.91239,0,0,1,7.49125,1.11116,5.21713,5.21713,0,0,0,6.97478-1.74239,10.43342,10.43342,0,0,1,19.22369,5.55061c0,2.88095,2.40216,5.7039,5.2831,5.7039s5.15038-2.82295,5.15038-5.7039a10.40214,10.40214,0,0,1,20.17837-3.563,5.217,5.217,0,0,0,3.876,3.31263,5.15887,5.15887,0,0,0,4.84636-1.565,10.43467,10.43467,0,0,1,8.52415-3.33872,10.91377,10.91377,0,0,1,8.71718,6.71917,9.07761,9.07761,0,0,1,.13043,7.20953,5.21638,5.21638,0,0,0,4.90374,7.00087c.22953,0,.75643-.073.986-.09912a10.43311,10.43311,0,0,1,10.43349,10.43348,5.217,5.217,0,0,0,5.21674,5.21675,10.4331,10.4331,0,0,1,10.43348,10.28741c0,.13042-.07825.68339-.08867.81381a5.21718,5.21718,0,0,0,6.99043,5.21674,10.23635,10.23635,0,0,1,3.53172-.673,10.43311,10.43311,0,0,1,10.43349,10.28741c0,.13042-.07825.68339-.08868.81381a5.21619,5.21619,0,0,0,6.9852,5.21674,9.35415,9.35415,0,0,1,8.48242.76686,10.58,10.58,0,0,1,5.36281,7.37126,10.34647,10.34647,0,0,1-1.16333,6.55223l-.12519-.07825a29.09479,29.09479,0,0,0-3.38045-2.01887c-.58692-.30433-1.17385-.54072-1.80776-.898a9.88879,9.88879,0,0,0-2.44436-.8918c-.11915-.03045-.22239-.08471-.33859-.11958a29.22584,29.22584,0,0,0-3.88126-.90771c-.31822-.05217-.63121-.09911-.94944-.14607a29.99793,29.99793,0,0,0-4.03775-.31822,29.44833,29.44833,0,0,0-24.51869,13.1827l-.06782.10956-.05739-.10434a29.46373,29.46373,0,0,0-24.55-13.18792h-.75643a29.32632,29.32632,0,0,1-48.64611,0h-1.6537a29.41459,29.41459,0,0,1-48.6409,0h-.866a34.97717,34.97717,0,0,1-54.46278.52167c-.53571.09108-1.02742.22616-1.5429.34876a29.86232,29.86232,0,0,0-3.61115,1.091c-.48519.1826-.97559.35477-1.45034.56345a29.01454,29.01454,0,0,0-4.236,2.26406c-.10434.06782-.22432.12-.32866.1878l-.04695.02608a10.32112,10.32112,0,0,1-.94423-6.17141,10.5944,10.5944,0,0,1,5.39407-7.39733Zm180.65054,41.014-6.83915,45.803h-34.29487l2.478-49.71033a18.78028,18.78028,0,0,1,3.22916-9.55707,19.03641,19.03641,0,0,1,15.81716-8.55024h.75643a19.11149,19.11149,0,0,1,18.85332,22.01465Zm-88.98718-2.67619a19.06728,19.06728,0,0,1,18.794-19.3365c.08608-.0013.1715-.002.25758-.002h1.67457a19.21071,19.21071,0,0,1,19.062,20.06359l-2.3997,47.75405h-34.81653l-2.56141-48.19225Zm-46.309-10.79865a19.06265,19.06265,0,0,1,15.87977-8.5398h.866a19.20282,19.20282,0,0,1,19.08283,18.749l.03131.56862v.20345l2.551,48.29659h-34.24791l-7.30343-48.04619a18.81275,18.81275,0,0,1,3.16656-11.22643Zm-7.679,189.69636-44.27448-174.86a19.18192,19.18192,0,1,1,37.75878-6.59918l.61035,4.00124c.03652.6834.07825,1.36678.18259,2.18582l6.88088,44.85354V916.183h11.21077l1.11639,7.30344,7.679,50.08073h-21.16432Zm31.723,0-5.34716-35.06693L5399.5408,916.183h27.00707l3.057,57.38415Zm53.15337,0H5440.054l-3.04657-57.38415h27.31484Zm31.77,0H5471.8918l2.864-57.38415h27.03836Zm-17.93516-67.81763h-87.11958V853.5821h125.20179v52.16742Zm93.06667-106.55716-43.41371,174.37479h-21.16432l8.58154-57.38415h11.44554V843.14862l7.20432-51.64574a19.08286,19.08286,0,1,1,37.70137,5.93535q-.13889.88227-.36,1.74892Z" style="stroke:#000;stroke-miterlimit:10;stroke-width:4px"/></g><g id="fd42f9ee-a7f2-4eed-b20d-54a0e747fb89" data-name="Ticket"><path d="M5207.925,876.19489a3.65324,3.65324,0,1,0-2.58228-1.07A3.67884,3.67884,0,0,0,5207.925,876.19489Z" style="stroke:#000;stroke-miterlimit:10;stroke-width:3px"/><path d="M5260.24409,871.35845a3.65785,3.65785,0,1,0,1.06716,2.58229A3.6855,3.6855,0,0,0,5260.24409,871.35845Z" style="stroke:#000;stroke-miterlimit:10;stroke-width:3px"/><path d="M5270.44484,864.81a3.65324,3.65324,0,1,0-2.58514-1.07A3.67884,3.67884,0,0,0,5270.44484,864.81Z" style="stroke:#000;stroke-miterlimit:10;stroke-width:3px"/><path d="M5336.04063,886.845h-10.19076l17.939-17.93905a10.95806,10.95806,0,0,0,0-15.49515l-16.27126-16.27126a3.65355,3.65355,0,0,0-5.16457,0,10.95673,10.95673,0,0,1-15.49515-15.49515,3.651,3.651,0,0,0,0-5.16457L5290.5881,800.21a10.95462,10.95462,0,0,0-15.49514,0l-60.3228,60.32137a3.65241,3.65241,0,0,0,5.166,5.16458l60.32137-60.32137a3.651,3.651,0,0,1,5.16457,0l13.94578,13.94435A18.26937,18.26937,0,0,0,5324.68,844.63107l13.94435,13.94435a3.65614,3.65614,0,0,1,0,5.16457L5315.5193,886.845h-16.01161l11.99979-11.99979a3.65355,3.65355,0,0,0,0-5.16457l-37.18921-37.18922a3.6527,3.6527,0,0,0-5.166,0L5214.7987,886.845h-43.84181A10.96887,10.96887,0,0,0,5160,897.80192v23.00946a3.65293,3.65293,0,0,0,3.6523,3.6523,10.95689,10.95689,0,0,1,0,21.91377,3.652,3.652,0,0,0-3.6523,3.6523v23.00946a10.96979,10.96979,0,0,0,10.95689,10.95688h165.08374a10.96978,10.96978,0,0,0,10.95689-10.95688V950.02975a3.652,3.652,0,0,0-3.65229-3.6523,10.95689,10.95689,0,1,1,0-21.91377,3.65293,3.65293,0,0,0,3.65229-3.6523V897.80192A10.96886,10.96886,0,0,0,5336.04063,886.845Zm-64.30607-46.60671,32.02463,32.02463L5289.17712,886.845h-14.46223l10.70721-10.70865a3.6519,3.6519,0,0,0-5.16457-5.16457l-15.87322,15.87179h-39.255Zm67.95837,77.28742a18.26429,18.26429,0,0,0,0,35.78964v19.72382a3.6566,3.6566,0,0,1-3.6523,3.65229H5170.95689a3.6566,3.6566,0,0,1-3.6523-3.65229V953.31539a18.26429,18.26429,0,0,0,0-35.78964V897.80192a3.65568,3.65568,0,0,1,3.6523-3.65229h165.08374a3.65568,3.65568,0,0,1,3.6523,3.65229Z" style="stroke:#000;stroke-miterlimit:10;stroke-width:3px"/><path d="M5238.00219,929.23734a3.651,3.651,0,1,0-2.58229,1.07A3.6839,3.6839,0,0,0,5238.00219,929.23734Z" style="stroke:#000;stroke-miterlimit:10;stroke-width:3px"/><path d="M5274.15991,929.23734a3.651,3.651,0,1,0-2.58229,1.07A3.68387,3.68387,0,0,0,5274.15991,929.23734Z" style="stroke:#000;stroke-miterlimit:10;stroke-width:3px"/><path d="M5256.08105,929.23734a3.651,3.651,0,1,0-2.58229,1.07A3.68387,3.68387,0,0,0,5256.08105,929.23734Z" style="stroke:#000;stroke-miterlimit:10;stroke-width:3px"/><path d="M5217.341,930.30735a3.65324,3.65324,0,1,0-2.58229-1.07A3.68135,3.68135,0,0,0,5217.341,930.30735Z" style="stroke:#000;stroke-miterlimit:10;stroke-width:3px"/><path d="M5292.23877,929.23734a3.651,3.651,0,1,0-2.58229,1.07A3.68387,3.68387,0,0,0,5292.23877,929.23734Z" style="stroke:#000;stroke-miterlimit:10;stroke-width:3px"/><path d="M5217.341,947.83837h72.31544a3.6523,3.6523,0,1,0,0-7.30459H5217.341a3.6523,3.6523,0,1,0,0,7.30459Z" style="stroke:#000;stroke-miterlimit:10;stroke-width:3px"/><path d="M5230.60629,958.0648a3.65324,3.65324,0,1,0,2.58228,1.07A3.68136,3.68136,0,0,0,5230.60629,958.0648Z" style="stroke:#000;stroke-miterlimit:10;stroke-width:3px"/><path d="M5309.01365,905.47174H5197.98387a3.652,3.652,0,0,0-3.65229,3.6523v52.593a3.65293,3.65293,0,0,0,3.65229,3.6523H5213.198a3.6523,3.6523,0,1,0,0-7.30459h-11.56179V912.77633h103.72518V958.0648h-59.29273a3.6523,3.6523,0,0,0,0,7.30459h62.945a3.65293,3.65293,0,0,0,3.65229-3.6523V909.124A3.652,3.652,0,0,0,5309.01365,905.47174Z" style="stroke:#000;stroke-miterlimit:10;stroke-width:3px"/></g><g id="bb4dff9e-fc44-4500-879c-26aaf5b970fa" data-name="Singe_roi_lion"><path d="M5442.3984,868.81665a1.11363,1.11363,0,0,1,.65044,1.029,2.22028,2.22028,0,1,0,4.43126-.18015,1.43561,1.43561,0,0,1,.4167-1.32985,1.08983,1.08983,0,0,0,.49916-.98747,1.12048,1.12048,0,0,0-2.093-.34994,1.74511,1.74511,0,0,1-2.56715.2246,1.08984,1.08984,0,0,0-.98747-.49916,1.11514,1.11514,0,0,0-1.013,1.20723A1.08984,1.08984,0,0,0,5442.3984,868.81665Z" style="fill:red;stroke:#000;stroke-miterlimit:10;stroke-width:0.75px"/><path d="M5437.56821,870.3568a7.75772,7.75772,0,0,0,15.35285-1.3432,3.32882,3.32882,0,1,0-2.62413-6.1172,7.59548,7.59548,0,0,0-11.2067.98046,3.30841,3.30841,0,0,0-1.07366-.095,3.33387,3.33387,0,0,0-.44836,6.575Zm4.98588-5.85336a3.25229,3.25229,0,0,0,4.44041-.38848,3.34671,3.34671,0,0,1,3.62166,3.03893,3.25549,3.25549,0,0,1-.90124,2.54656,4.45789,4.45789,0,0,1-8.87.776,3.25551,3.25551,0,0,1-1.32976-2.35136A3.34673,3.34673,0,0,1,5442.55409,864.50344Z" style="fill:red;stroke:#000;stroke-miterlimit:10;stroke-width:0.75px"/><path d="M5459.06194,897.81031l7.74932-.678a6.75726,6.75726,0,0,0,6.0714-7.31734l-.777-8.88081a2.22508,2.22508,0,0,1,1.01632-2.06831,2.08026,2.08026,0,0,0,.86842-1.96037,2.283,2.283,0,0,0-1.29711-1.85279,2.09186,2.09186,0,0,0-2.10132.1423,6.69829,6.69829,0,0,0-2.92671,6.12765l.777,8.88081a2.2316,2.2316,0,0,1-2.026,2.41445l-2.98477.26113A16.017,16.017,0,0,1,5459.06194,897.81031Z" style="fill:red;stroke:#000;stroke-miterlimit:10;stroke-width:0.75px"/><path d="M5438.84889,886.081l4.55519-.39853a7.74633,7.74633,0,0,1,4.03548-2.49629,1.11394,1.11394,0,1,1,.52588,2.16493,5.70965,5.70965,0,0,0-4.19144,4.88264,5.63023,5.63023,0,0,0,.25536,2.1056l-.06979.00611c.00706.0304.00747.06229.015.09265a5.66136,5.66136,0,0,0-4.05084,5.928,1.1137,1.1137,0,0,0,1.20722,1.013l10.74112-.93973c5.97523-.52276,12.07421-6.77821,11.39907-14.495a13.43076,13.43076,0,0,0-8.88809-11.41265,9.9743,9.9743,0,0,1-8.34615,6.20886,9.81188,9.81188,0,0,1-1.11841.0021l.10543,1.20512a1.11514,1.11514,0,0,1-1.013,1.20723l-5.5505.4856a2.22869,2.22869,0,0,0,.38848,4.44041Z" style="fill:red;stroke:#000;stroke-miterlimit:10;stroke-width:0.75px"/></g></g><g id="bd6e07de-1e5a-40d0-ac0d-706caca357fc" data-name="Ancrage"><rect x="5624" y="999" width="1" height="1" style="fill:none"/><rect x="5624" width="1" height="1" style="fill:none"/><rect y="999" width="1" height="1" style="fill:none"/><rect width="1" height="1" style="fill:none"/></g></svg>