<svg xmlns="http://www.w3.org/2000/svg" viewBox="0 0 5625 1000"><title>logo_mise_en_lumiere-v3</title><g id="bfc0f1a4-630d-4562-baf8-852ea3c84de1" data-name="Texte"><g id="a77613bb-a88c-48e7-ae13-c5fa843c628a" data-name="Bebas"><path d="M424.13184,380.582l114.7998-8.02783L615.7334,735.31348l1.46289-.10254,25.56836-369.91748,114.80078-8.02735,35.792,511.8501-76.04687,5.31738L690.21094,486.89014l-1.46289.10254L657.35156,878.626l-67.27246,4.7041L504.48242,499.87793l-1.46289.10205,27.10059,387.54346-70.19629,4.9082Z" style="fill:red;stroke:#000;stroke-miterlimit:10;stroke-width:5px"/><path d="M846.76953,351.02832l80.4336-5.62451,35.792,511.8501-80.4336,5.624Z" style="fill:red;stroke:#000;stroke-miterlimit:10;stroke-width:5px"/><path d="M1066.46484,823.93359q-32.31738-31.16748-36.65234-93.32714l-2.0459-29.24805,76.0459-5.31836,2.4541,35.09863q3.479,49.73292,45.15723,46.80762,20.4624-1.43115,30.23242-14.23731,9.74707-12.80712,7.86719-39.86132-2.25-32.168-18.58692-55.64649-16.34911-23.4668-58.22558-55.0791-52.80175-40.396-75.01367-74.47949-22.22314-34.07812-25.3418-78.688-4.24365-60.68408,24.14062-96.1084,28.38429-35.41187,86.88184-39.50781,57.75439-4.03857,89.707,27.15967,31.94093,31.2107,36.28613,93.353l1.48243,21.20508-76.0459,5.31739-1.83985-26.32325q-1.84131-26.324-12.92187-37.67334-11.0918-11.34815-30.82324-9.96826-40.22314,2.8125-36.791,51.80322a96.81511,96.81511,0,0,0,18.62012,50.86817q16.66552,23.083,58.56543,54.6875,53.52246,40.34472,75.03906,74.84472,21.51123,34.50587,24.8916,82.76075,4.39746,62.896-24.32715,98.69336-28.73583,35.81542-87.95312,39.95019Q1098.75879,855.10791,1066.46484,823.93359Z" style="fill:red;stroke:#000;stroke-miterlimit:10;stroke-width:5px"/><path d="M1317.65723,318.10059l219.36425-15.33936,5.11329,73.12158-138.93164,9.71485,9.46,135.27441,110.41308-7.7207,5.11328,73.12109-110.41308,7.7207,10.99316,157.21192,138.93067-9.71485,5.11328,73.1211L1353.44922,829.9502Z" style="fill:red;stroke:#000;stroke-miterlimit:10;stroke-width:5px"/><path d="M1758.56445,287.26953l219.36426-15.33935,5.11328,73.12109-138.93164,9.71533,9.46,135.2749,110.41309-7.72119,5.11328,73.1211-110.41309,7.7207L1869.67676,720.374l138.93066-9.71582,5.11328,73.1211-219.36425,15.33984Z" style="fill:red;stroke:#000;stroke-miterlimit:10;stroke-width:5px"/><path d="M2053.2373,266.66357l100.90723-7.05566,99.66406,300.90772,1.46289-.10254-21.4248-306.37891,71.65918-5.01074,35.792,511.84961-82.62695,5.77832L2136.02246,399.75049l-1.46191.102,26.12793,373.65039-71.65918,5.01074Z" style="fill:red;stroke:#000;stroke-miterlimit:10;stroke-width:5px"/><path d="M2540.93848,232.56055l80.43359-5.62451,30.67969,438.729,132.34961-9.25488,5.1123,73.12109-212.7832,14.87891Z" style="fill:red;stroke:#000;stroke-miterlimit:10;stroke-width:5px"/><path d="M2883.48438,696.875q-33.0381-31.11621-37.38379-93.27637L2818.7959,213.13086l80.43359-5.62451,27.71387,396.31787q1.83984,26.32325,13.26074,37.28125,11.40968,10.96582,31.16309,9.57812,19.74317-1.37988,29.52734-13.82129,9.7749-12.42773,7.94434-38.76464L2981.125,201.77979l77.50879-5.41993,27.30469,390.46729q4.34619,62.15918-24.03809,97.57226-28.38427,35.42871-86.88184,39.50782Q2916.50978,727.99854,2883.48438,696.875Z" style="fill:red;stroke:#000;stroke-miterlimit:10;stroke-width:5px"/><path d="M3144.91211,190.32666l114.80078-8.02783,76.80274,362.75879,1.46289-.10254,25.56738-369.917,114.80078-8.02784,35.792,511.8501-76.0459,5.31738-27.09961-387.543-1.46386.10205-31.39649,391.63427-67.27148,4.70411-85.59766-383.45313-1.46191.10254,27.09961,387.543-70.19727,4.9082Z" style="fill:red;stroke:#000;stroke-miterlimit:10;stroke-width:5px"/><path d="M3567.54883,160.773l80.43359-5.62451,35.792,511.84961-80.43359,5.625Z" style="fill:red;stroke:#000;stroke-miterlimit:10;stroke-width:5px"/><path d="M3737.18066,148.91113l219.36524-15.33984,5.11328,73.12158-138.93164,9.71533,9.46,135.27491,110.41406-7.7212,5.11231,73.1211L3837.2998,424.8042,3848.294,582.01563l138.93164-9.71583,5.1123,73.1211-219.36523,15.33984Zm6.3418-119.47949,87.74512-6.13574,57.06543,80.51074-60.69141,4.24414Z" style="fill:red;stroke:#000;stroke-miterlimit:10;stroke-width:5px"/><path d="M4031.85352,128.30518l119.18847-8.334q62.14161-4.34546,92.69141,22.543,30.5376,26.89967,34.72851,86.84814l2.19922,31.44239q5.57227,79.708-45.59082,104.58886l.10254,1.46192q29.85058,6.73095,43.81836,32.94141,13.9585,26.217,17.12793,71.54638l6.28906,89.939a342.3957,342.3957,0,0,0,3.94141,35.36132,88.83054,88.83054,0,0,0,9.17871,26.17774l-81.89648,5.72754a117.27793,117.27793,0,0,1-7.48536-22.99024q-2.24121-10.86474-4.22363-39.38281l-6.54394-93.59521q-2.45508-35.0984-14.75977-48.19922-12.31641-13.08839-40.0918-11.15772l-27.78711,1.94336,15.33887,219.36426-80.43359,5.624ZM4156.876,340q24.13036-1.6875,35.32617-14.96191,11.19726-13.26783,9.15039-42.522l-2.76074-39.48584q-1.94238-27.78-12.68457-39.52685-10.73877-11.73414-31.94532-10.25733l-36.56152,2.55664L4127.627,342.04541Z" style="fill:red;stroke:#000;stroke-miterlimit:10;stroke-width:5px"/><path d="M4355.78223,105.6543l219.36425-15.33936,5.11329,73.1211-138.93164,9.71533,9.46,135.2749,110.41406-7.7207,5.1123,73.12109-110.41406,7.7207,10.99316,157.21143L4605.8252,529.043l5.11328,73.12109-219.36426,15.33985Z" style="fill:red;stroke:#000;stroke-miterlimit:10;stroke-width:5px"/><path d="M4701.98145,569.71289q-32.3174-31.166-36.65235-93.32666l-2.04492-29.24805,76.04687-5.31787,2.45411,35.09815q3.47754,49.73364,45.15429,46.8081,20.46387-1.43115,30.2334-14.23828,9.74708-12.80493,7.86719-39.86084-2.25-32.168-18.58691-55.64648-16.34766-23.46679-58.22657-55.0791-52.80029-40.39527-75.01269-74.4795-22.22022-34.07739-25.3418-78.688-4.24365-60.68409,24.14063-96.1084,28.38573-35.41187,86.88183-39.50782,57.75587-4.03857,89.707,27.15967,31.94092,31.21143,36.28711,93.353l1.48242,21.20508-76.04687,5.31787-1.84082-26.32324q-1.83984-26.324-12.92188-37.67334-11.08885-11.34888-30.82226-9.96875-40.22315,2.8125-36.791,51.80322a96.81354,96.81354,0,0,0,18.62012,50.86816q16.667,23.083,58.56641,54.688,53.521,40.34474,75.03906,74.84473,21.51123,34.50659,24.89062,82.76074,4.39893,62.896-24.32715,98.69238-28.73583,35.8169-87.95214,39.95118Q4734.27637,600.88818,4701.98145,569.71289Z" style="fill:red;stroke:#000;stroke-miterlimit:10;stroke-width:5px"/></g></g><g id="e59f1e14-e251-4247-8618-251c967cf4d4" data-name="soulignage"><g id="a0792e2e-5836-41d6-b749-129083095e08" data-name="movie-film"><path d="M180.86937,950.60367H261.1389a51.56363,51.56363,0,0,0,36.90391-15.45585c14.84529-15.01133,27.2942-24.31631,50.07833-24.31631H368v30.2494H348.12114c-11.61157,0-17.06824,3.467-28.925,15.45586a81.11759,81.11759,0,0,1-58.05719,24.31631H180.86937Z"/><circle cx="176.83518" cy="854.83517" r="126.01726" style="fill:#bab8b9"/><path d="M196.10747,974.4292a126.0362,126.0362,0,0,1-49.41379-241.97409,126.036,126.036,0,1,0,79.55593,238.33627A126.28567,126.28567,0,0,1,196.10747,974.4292Z" style="fill:#9e9c9d"/><circle cx="245.4872" cy="833.28305" r="30.97595" style="fill:#fdf5e6"/><circle cx="220.36339" cy="911.98844" r="30.97595" style="fill:#fdf5e6"/><circle cx="133.31338" cy="911.98844" r="30.97595" style="fill:#fdf5e6"/><circle cx="108.18317" cy="833.28305" r="30.97595" style="fill:#fdf5e6"/><circle cx="176.83518" cy="782.9905" r="30.97595" style="fill:#fdf5e6"/><circle cx="176.83518" cy="854.83518" r="18.10892" style="fill:#fdf5e6"/><path d="M215.30715,840.25811a30.97594,30.97594,0,0,0,33.5044,23.8191,73.24886,73.24886,0,0,0,.58328-9.242,72.2915,72.2915,0,0,0-18.78728-48.71679A30.98361,30.98361,0,0,0,215.30715,840.25811Z"/><path d="M240.94359,888.84063a30.97646,30.97646,0,0,0-48.37119,36.83645A72.676,72.676,0,0,0,240.94359,888.84063Z"/><path d="M152.07818,887.34643a30.98186,30.98186,0,0,0-39.34948,1.49483,72.67852,72.67852,0,0,0,48.37182,36.8371A30.984,30.984,0,0,0,152.07818,887.34643Z"/><path d="M123.06473,806.11839a72.2915,72.2915,0,0,0-18.78728,48.71679,73.24886,73.24886,0,0,0,.58328,9.242,30.97238,30.97238,0,0,0,18.204-57.95882Z"/><path d="M176.83582,782.27616a72.27572,72.27572,0,0,0-30.401,6.66221,30.97682,30.97682,0,0,0,60.802,0A72.27356,72.27356,0,0,0,176.83582,782.27616Z"/><path d="M199.76008,854.83518a22.92459,22.92459,0,1,0-22.9249,22.92426A22.95064,22.95064,0,0,0,199.76008,854.83518Zm-36.2127,0a13.28876,13.28876,0,1,1,13.28844,13.28844A13.30333,13.30333,0,0,1,163.54738,854.83518Z"/><path d="M280.365,825.22687a35.61911,35.61911,0,0,0-34.84891-27.74346,35.80667,35.80667,0,0,0-34.07419,46.86285c5.60741,17.38751,24.32724,27.922,42.10469,23.81525A35.8356,35.8356,0,0,0,280.365,825.22687Zm-35.94162,34.195a26.05448,26.05448,0,0,1-13.96489-4.683c-14.28735-9.99555-14.62395-31.77059-.78049-42.29162a67.57457,67.57457,0,0,1,14.8989,42.388C244.57692,856.36277,244.52553,857.89616,244.4234,859.42184Zm9.71869-1.45373c.04175-1.04453.07065-2.08968.07065-3.13293a77.18774,77.18774,0,0,0-15.7231-46.753c.36744-.1015.73682-.19914,1.11069-.28522a26.30633,26.30633,0,0,1,5.91639-.67836,26.16153,26.16153,0,0,1,8.62537,50.84952Z"/><path d="M184.64469,909.75422l-.00579.09186a35.78276,35.78276,0,0,0,35.74762,37.94266,36.125,36.125,0,0,0,35.4457-30.99458c2.59782-19.18621-11.15507-37.47884-30.32136-40.21863-.14068-.01992-.28073-.04176-.42141-.06038C204.80346,873.80362,185.9526,889.36675,184.64469,909.75422Zm9.684.31349a26.09745,26.09745,0,0,1,40.35482-19.97055,67.62345,67.62345,0,0,1-39.23514,29.88645A25.61869,25.61869,0,0,1,194.32868,910.06771Zm51.95507,5.43268a26.4095,26.4095,0,0,1-25.89915,22.65188,25.96818,25.96818,0,0,1-20.20567-9.533,77.22479,77.22479,0,0,0,41.57472-31.67358A25.96757,25.96757,0,0,1,246.28375,915.50039Z"/><path d="M111.62444,940.46871a35.47556,35.47556,0,0,0,21.66325,7.31938c20.31424,0,36.999-17.64448,35.74441-37.94971l-.0045-.07708a35.75719,35.75719,0,0,0-40.86681-33.18577,35.78816,35.78816,0,0,0-16.53635,63.89318Zm17.81535-54.34409c.05846-.00835.11691-.01735.176-.0257,15.75071-2.179,30.42414,11.04008,29.83315,26.9077-.00128.0257-.00193.05139-.00257.07709a25.94744,25.94744,0,0,1-1.22374,6.90053,67.62011,67.62011,0,0,1-39.2345-29.88645A26.11078,26.11078,0,0,1,129.43979,886.12462Zm-17.52114,10.82165a77.22823,77.22823,0,0,0,41.57408,31.67294,26.15093,26.15093,0,0,1-41.57408-31.67294Z"/><path d="M137.95207,813.5277a36.0934,36.0934,0,0,0-29.79716-16.04428,35.801,35.801,0,0,0-30.33228,54.76486,36.13871,36.13871,0,0,0,30.39009,16.83827,35.596,35.596,0,0,0,34.03308-24.79489A36.22686,36.22686,0,0,0,137.95207,813.5277Zm-3.6507,21.09731a26.35563,26.35563,0,0,1-25.05377,24.79745c-.10214-1.52631-.15289-3.059-.15289-4.58729a67.57626,67.57626,0,0,1,14.89441-42.38284c.11756.08929.23576.1773.35139.26788A26.60478,26.60478,0,0,1,134.30137,834.625ZM85.99572,847.14322a26.16494,26.16494,0,0,1,22.15854-40.02463,26.34173,26.34173,0,0,1,7.0258.96423,77.1964,77.1964,0,0,0-15.72117,46.75236c0,1.04388.02827,2.089.07,3.13421A25.96006,25.96006,0,0,1,85.99572,847.14322Z"/><path d="M141.73509,789.93086a35.72213,35.72213,0,1,0-.69441-6.93652A35.24583,35.24583,0,0,0,141.73509,789.93086Zm59.18835,3.26268c-6.46563,15.21175-26.2711,20.68618-39.60965,10.841a26.35847,26.35847,0,0,1-8.56753-10.84415l-.02248-.05268c-.03084-.07194-.57109-1.40426-.54411-1.41453a67.977,67.977,0,0,1,49.31164,0C201.49774,791.72569,200.93244,793.173,200.92344,793.19354Zm-24.08826-36.35916a26.18711,26.18711,0,0,1,26.13427,25.15591,77.61656,77.61656,0,0,0-52.2679,0A26.187,26.187,0,0,1,176.83518,756.83438Z"/><path d="M196,985c57-13,55-20,73-33,22.25617-23.46644,38.67167-62.34544,38.67167-97.16351a130.50185,130.50185,0,0,0-47.49977-100.865,4.81811,4.81811,0,1,0-6.18012,7.393,121.20873,121.20873,0,0,1-73.26241,214.60322c-1.29313.04111-2.59011.06873-3.89352.06873A121.20065,121.20065,0,1,1,238.48938,750.476a4.81885,4.81885,0,1,0,5.02827-8.22062A130.68831,130.68831,0,0,0,176.83646,724C104.69307,723.99936,46,782.69179,46,854.83518,46,926.97792,104.69307,985.671,176.83582,985.671q1.71133,0,3.413-.04432a4.82675,4.82675,0,0,0,.62055.04432" style="stroke:#000;stroke-miterlimit:10;stroke-width:3px"/><g id="ff4290ce-6032-43bb-ab23-f3065cb80290" data-name="bande_magnetique"><path d="M5364,893.612"/><path d="M5217,676c-303.18064-36.19848-1627.39733,68.35982-2402,120-30,2-271,17-271,17L330,943c-6.29679,0-44.17749,30.70741-53,30-1.043-.08363-4.76508-12.18924-3.95025-12.84564L308,932c0-7.05843,20.94157-20,28-20L2618,785c551-41,2323.40354-174,2672-174"/><path d="M4028,876"/></g></g></g><g id="f80dc992-cd67-4f44-bc78-19a6f67838eb" data-name="icones"><g id="bc4f7543-c413-448d-bd11-d3c90c2b9060" data-name="popcorn"><path d="M5573.18,762.95687a15.85,15.85,0,0,0-7.92423-11.12731,14.51186,14.51186,0,0,0-12.8697-1.15811c0-.33388.09912-.6521.09912-.99118a15.514,15.514,0,0,0-20.96609-14.659c0-.33387.09913-.65209.09913-.99118a15.65009,15.65009,0,0,0-15.65023-15.65022,15.65008,15.65008,0,0,0-15.65022-15.65022c-.33908,0-.65731.07825-.99117.09911a14.362,14.362,0,0,0-.25041-11.08036,16.12493,16.12493,0,0,0-13.04185-9.82834,22.82243,22.82243,0,0,1-32.78657-4.399c-6.219,2.2458-10.28367.86743-10.24781,7.479.01435-8.62914-7.03525-8.33977-15.66375-8.35476a15.62539,15.62539,0,0,0-13.25117,7.30409,15.19341,15.19341,0,0,0-11.29946-1.64328,15.85425,15.85425,0,0,0-11.75854,12.348,15.51961,15.51961,0,0,0,3.91256,13.38094,15.57093,15.57093,0,0,0-12.12893,7.19389,15.21717,15.21717,0,0,0-12.73928-1.22594,15.72839,15.72839,0,0,0-9.66662,9.54143,15.41207,15.41207,0,0,0,.20867,11.096,15.60806,15.60806,0,0,0-11.58117,15.04508c0,.33908.07826.65731.09912.99118a14.50893,14.50893,0,0,0-12.8384,1.14246,15.86356,15.86356,0,0,0-7.95032,11.143,15.58344,15.58344,0,0,0,7.366,15.7024l2.89007,2.32666h18.2586v20.42354h182.58595v-20.434h23.47534l-.73034-.73034A15.58751,15.58751,0,0,0,5573.18,762.95687Z" style="fill:#ffb932"/><path d="M5372.50765,978.7839l-45.297-178.90293a24.29882,24.29882,0,0,1,23.67879-29.76672h.22954a24.29918,24.29918,0,0,1,24.10656,21.21127l28.58252,187.45838Z" style="fill:#d30114"/><path d="M5403.80809,978.7839l-27.78958-181.27656a24.2987,24.2987,0,0,1,24.10657-27.3931h.866a24.29937,24.29937,0,0,1,24.29436,23.67879l9.82312,184.99085h-31.30045Z" style="fill:#fdf5e6"/><path d="M5425.31672,795.03983l9.79183,183.74407H5466.409l9.12408-183.10762a24.3,24.3,0,0,0-23.00452-25.52943q-.62406-.03228-1.24811-.0326h-1.6537a24.299,24.299,0,0,0-24.31784,24.28133q0,.32178.00782.64425Z" style="fill:#d30114"/><path d="M5475.65827,793.17224,5466.409,978.78392h31.30045l26.99142-180.67141a24.29893,24.29893,0,0,0-24.01788-27.99825h-.75643A24.29947,24.29947,0,0,0,5475.65827,793.17224Z" style="fill:#fdf5e6"/><path d="M5549.87685,770.11424a24.29925,24.29925,0,0,1,23.53795,30.33535l-44.40491,178.33433h-31.30045l28.12866-188.06353A24.29923,24.29923,0,0,1,5549.87685,770.11424Z" style="fill:#d30114"/><path d="M5382.94113,848.36536H5518.5764v62.6009H5382.94113Z" style="fill:#ffb932"/><path d="M5346.42394,691.86312a15.5981,15.5981,0,0,0-29.35461-7.41364,15.4444,15.4444,0,0,0-1.94584-.193,15.6577,15.6577,0,1,0,2.17016,31.08135,15.58754,15.58754,0,0,0,27.13292-15.35222q-.08509-.14966-.1728-.29736A15.49333,15.49333,0,0,0,5346.42394,691.86312Z" style="fill:#ffb932"/><path d="M5602.04427,702.2966a15.59809,15.59809,0,0,0-29.3546-7.413,15.44659,15.44659,0,0,0-1.94585-.193,15.6577,15.6577,0,1,0,2.17016,31.08135,15.58754,15.58754,0,1,0,27.13291-15.35222q-.08509-.14966-.17281-.298A15.49305,15.49305,0,0,0,5602.04427,702.2966Z" style="fill:#ffb932"/><path d="M5351.64068,707.51334a20.5271,20.5271,0,0,0-1.565-7.82511,20.52707,20.52707,0,0,0,1.565-7.82511,20.80947,20.80947,0,0,0-37.25275-12.8071,20.86772,20.86772,0,1,0,.35474,41.73393,20.80969,20.80969,0,0,0,36.898-13.27661Zm-29.83976,5.21675-2.13365-2.97876-3.47435.49037a7.43512,7.43512,0,0,1-1.06943.09912,10.43348,10.43348,0,0,1,0-20.867,11.05637,11.05637,0,0,1,1.29376.15129l3.53695.44864,1.70066-3.13005a10.38657,10.38657,0,0,1,19.55234,4.91939,10.22805,10.22805,0,0,1-1.46069,5.21674l-1.5285,2.60837,1.5285,2.60837a10.22811,10.22811,0,0,1,1.46069,5.21675,10.43311,10.43311,0,0,1-10.43348,10.43348A10.31941,10.31941,0,0,1,5321.80092,712.73009Z"/><path d="M5607.261,702.2966a20.80947,20.80947,0,0,0-37.25275-12.8071,20.86772,20.86772,0,0,0,.35475,41.73393,20.80969,20.80969,0,0,0,36.898-13.27661,20.5271,20.5271,0,0,0-1.565-7.82511A20.52952,20.52952,0,0,0,5607.261,702.2966Zm-11.89417,10.43349a10.228,10.228,0,0,1,1.46069,5.21674,10.43311,10.43311,0,0,1-10.43349,10.43348,10.31862,10.31862,0,0,1-8.9728-5.21674l-2.13365-2.97876-3.47435.49037a7.51854,7.51854,0,0,1-1.07466.11477,10.43348,10.43348,0,0,1,0-20.867,11.0561,11.0561,0,0,1,1.29376.15128l3.537.44864,1.70066-3.13a10.38656,10.38656,0,0,1,19.55757,4.90373,10.22818,10.22818,0,0,1-1.46069,5.21675l-1.5285,2.60837Z"/><path d="M5441.23783,676.80605c-7.72743-6.99769-11.23783-8.80605-27.66856-.198-.36452.32018,17.77243-.95236,17.43073-.60806-3.54869-1.12812-25.831.3544-29.44554,1.25038a21.13275,21.13275,0,0,0-15.65022,16.49012,20.76354,20.76354,0,0,0,1.04335,11.15339,20.89987,20.89987,0,0,0-5.67581,4.01689,20.198,20.198,0,0,0-12.87492.193,20.9242,20.9242,0,0,0-12.90622,12.74971,20.68892,20.68892,0,0,0-1.04334,9.72923,20.95544,20.95544,0,0,0-9.95355,12.90621,19.47216,19.47216,0,0,0-10.78822,2.81183A21.10812,21.10812,0,0,0,5323.1938,762.205a20.72492,20.72492,0,0,0,3.65171,15.19115,29.37546,29.37546,0,0,0-4.69506,23.77791L5368.449,984h164.64036L5578.475,801.7427a29.266,29.266,0,0,0-4.17339-23.83008,20.57319,20.57319,0,0,0,4.03775-15.71739h0a21.06137,21.06137,0,0,0-10.48043-14.88858,20.4414,20.4414,0,0,0-10.81431-2.8327,21.0809,21.0809,0,0,0-20.867-15.65022,20.94517,20.94517,0,0,0-15.525-15.12855,20.95131,20.95131,0,0,0-15.12856-15.525,19.3623,19.3623,0,0,0-1.66414-8.50329,21.44588,21.44588,0,0,0-17.403-12.93231,20.72436,20.72436,0,0,0-11.70637,2.45709C5467.55863,670.2495,5449.94215,669.80807,5441,677m-102.109,79.33161a9.30219,9.30219,0,0,1,8.46155-.76165,5.21737,5.21737,0,0,0,6.98521-5.21674c0-.13042-.073-.52167-.08868-.66774a10.433,10.433,0,0,1,7.726-10.01615,5.21628,5.21628,0,0,0,3.50439-6.90377,10.46085,10.46085,0,0,1-.82685-3.388,10.58944,10.58944,0,0,1,7.07255-10.41352,10.017,10.017,0,0,1,8.48242.82425,5.21716,5.21716,0,0,0,6.97479-1.74239,10.2989,10.2989,0,0,1,8.08594-4.78375,5.21646,5.21646,0,0,0,3.48478-8.73283,10.30357,10.30357,0,0,1-2.60837-8.94671,10.56384,10.56384,0,0,1,7.88249-8.20593,9.91239,9.91239,0,0,1,7.49125,1.11116,5.21713,5.21713,0,0,0,6.97478-1.74239,10.43342,10.43342,0,0,1,19.22369,5.55061c0,2.88095,2.40216,5.7039,5.2831,5.7039s5.15038-2.82295,5.15038-5.7039a10.40214,10.40214,0,0,1,20.17837-3.563,5.217,5.217,0,0,0,3.876,3.31263,5.15887,5.15887,0,0,0,4.84636-1.565,10.43467,10.43467,0,0,1,8.52415-3.33872,10.91377,10.91377,0,0,1,8.71718,6.71917,9.07761,9.07761,0,0,1,.13043,7.20953,5.21638,5.21638,0,0,0,4.90374,7.00087c.22953,0,.75643-.073.986-.09912a10.43311,10.43311,0,0,1,10.43349,10.43348,5.217,5.217,0,0,0,5.21674,5.21675,10.4331,10.4331,0,0,1,10.43348,10.28741c0,.13042-.07825.68339-.08867.81381a5.21718,5.21718,0,0,0,6.99043,5.21674,10.23635,10.23635,0,0,1,3.53172-.673,10.43311,10.43311,0,0,1,10.43349,10.28741c0,.13042-.07825.68339-.08868.81381a5.21619,5.21619,0,0,0,6.9852,5.21674,9.35415,9.35415,0,0,1,8.48242.76686,10.58,10.58,0,0,1,5.36281,7.37126,10.34647,10.34647,0,0,1-1.16333,6.55223l-.12519-.07825a29.09479,29.09479,0,0,0-3.38045-2.01887c-.58692-.30433-1.17385-.54072-1.80776-.898a9.88879,9.88879,0,0,0-2.44436-.8918c-.11915-.03045-.22239-.08471-.33859-.11958a29.22584,29.22584,0,0,0-3.88126-.90771c-.31822-.05217-.63121-.09911-.94944-.14607a29.99793,29.99793,0,0,0-4.03775-.31822,29.44833,29.44833,0,0,0-24.51869,13.1827l-.06782.10956-.05739-.10434a29.46373,29.46373,0,0,0-24.55-13.18792h-.75643a29.32632,29.32632,0,0,1-48.64611,0h-1.6537a29.41459,29.41459,0,0,1-48.6409,0h-.866a34.97717,34.97717,0,0,1-54.46278.52167c-.53571.09108-1.02742.22616-1.5429.34876a29.86232,29.86232,0,0,0-3.61115,1.091c-.48519.1826-.97559.35477-1.45034.56345a29.01454,29.01454,0,0,0-4.236,2.26406c-.10434.06782-.22432.12-.32866.1878l-.04695.02608a10.32112,10.32112,0,0,1-.94423-6.17141,10.5944,10.5944,0,0,1,5.39407-7.39733Zm180.65054,41.014-6.83915,45.803h-34.29487l2.478-49.71033a18.78028,18.78028,0,0,1,3.22916-9.55707,19.03641,19.03641,0,0,1,15.81716-8.55024h.75643a19.11149,19.11149,0,0,1,18.85332,22.01465Zm-88.98718-2.67619a19.06728,19.06728,0,0,1,18.794-19.3365c.08608-.0013.1715-.002.25758-.002h1.67457a19.21071,19.21071,0,0,1,19.062,20.06359l-2.3997,47.75405h-34.81653l-2.56141-48.19225Zm-46.309-10.79865a19.06265,19.06265,0,0,1,15.87977-8.5398h.866a19.20282,19.20282,0,0,1,19.08283,18.749l.03131.56862v.20345l2.551,48.29659h-34.24791l-7.30343-48.04619a18.81275,18.81275,0,0,1,3.16656-11.22643Zm-7.679,189.69636-44.27448-174.86a19.18192,19.18192,0,1,1,37.75878-6.59918l.61035,4.00124c.03652.6834.07825,1.36678.18259,2.18582l6.88088,44.85354V916.183h11.21077l1.11639,7.30344,7.679,50.08073h-21.16432Zm31.723,0-5.34716-35.06693L5399.5408,916.183h27.00707l3.057,57.38415Zm53.15337,0H5440.054l-3.04657-57.38415h27.31484Zm31.77,0H5471.8918l2.864-57.38415h27.03836Zm-17.93516-67.81763h-87.11958V853.5821h125.20179v52.16742Zm93.06667-106.55716-43.41371,174.37479h-21.16432l8.58154-57.38415h11.44554V843.14862l7.20432-51.64574a19.08286,19.08286,0,1,1,37.70137,5.93535q-.13889.88227-.36,1.74892Z" style="stroke:#000;stroke-miterlimit:10;stroke-width:4px"/></g><g id="ed982dbc-1e2c-4dd7-85ed-2bc7c9bf10cd" data-name="Ticket"><path d="M5207.925,876.19489a3.65324,3.65324,0,1,0-2.58228-1.07A3.67884,3.67884,0,0,0,5207.925,876.19489Z" style="stroke:#000;stroke-miterlimit:10;stroke-width:3px"/><path d="M5260.24409,871.35845a3.65785,3.65785,0,1,0,1.06716,2.58229A3.6855,3.6855,0,0,0,5260.24409,871.35845Z" style="stroke:#000;stroke-miterlimit:10;stroke-width:3px"/><path d="M5270.44484,864.81a3.65324,3.65324,0,1,0-2.58514-1.07A3.67884,3.67884,0,0,0,5270.44484,864.81Z" style="stroke:#000;stroke-miterlimit:10;stroke-width:3px"/><path d="M5336.04063,886.845h-10.19076l17.939-17.93905a10.95806,10.95806,0,0,0,0-15.49515l-16.27126-16.27126a3.65355,3.65355,0,0,0-5.16457,0,10.95673,10.95673,0,0,1-15.49515-15.49515,3.651,3.651,0,0,0,0-5.16457L5290.5881,800.21a10.95462,10.95462,0,0,0-15.49514,0l-60.3228,60.32137a3.65241,3.65241,0,0,0,5.166,5.16458l60.32137-60.32137a3.651,3.651,0,0,1,5.16457,0l13.94578,13.94435A18.26937,18.26937,0,0,0,5324.68,844.63107l13.94435,13.94435a3.65614,3.65614,0,0,1,0,5.16457L5315.5193,886.845h-16.01161l11.99979-11.99979a3.65355,3.65355,0,0,0,0-5.16457l-37.18921-37.18922a3.6527,3.6527,0,0,0-5.166,0L5214.7987,886.845h-43.84181A10.96887,10.96887,0,0,0,5160,897.80192v23.00946a3.65293,3.65293,0,0,0,3.6523,3.6523,10.95689,10.95689,0,0,1,0,21.91377,3.652,3.652,0,0,0-3.6523,3.6523v23.00946a10.96979,10.96979,0,0,0,10.95689,10.95688h165.08374a10.96978,10.96978,0,0,0,10.95689-10.95688V950.02975a3.652,3.652,0,0,0-3.65229-3.6523,10.95689,10.95689,0,1,1,0-21.91377,3.65293,3.65293,0,0,0,3.65229-3.6523V897.80192A10.96886,10.96886,0,0,0,5336.04063,886.845Zm-64.30607-46.60671,32.02463,32.02463L5289.17712,886.845h-14.46223l10.70721-10.70865a3.6519,3.6519,0,0,0-5.16457-5.16457l-15.87322,15.87179h-39.255Zm67.95837,77.28742a18.26429,18.26429,0,0,0,0,35.78964v19.72382a3.6566,3.6566,0,0,1-3.6523,3.65229H5170.95689a3.6566,3.6566,0,0,1-3.6523-3.65229V953.31539a18.26429,18.26429,0,0,0,0-35.78964V897.80192a3.65568,3.65568,0,0,1,3.6523-3.65229h165.08374a3.65568,3.65568,0,0,1,3.6523,3.65229Z" style="stroke:#000;stroke-miterlimit:10;stroke-width:3px"/><path d="M5238.00219,929.23734a3.651,3.651,0,1,0-2.58229,1.07A3.6839,3.6839,0,0,0,5238.00219,929.23734Z" style="stroke:#000;stroke-miterlimit:10;stroke-width:3px"/><path d="M5274.15991,929.23734a3.651,3.651,0,1,0-2.58229,1.07A3.68387,3.68387,0,0,0,5274.15991,929.23734Z" style="stroke:#000;stroke-miterlimit:10;stroke-width:3px"/><path d="M5256.08105,929.23734a3.651,3.651,0,1,0-2.58229,1.07A3.68387,3.68387,0,0,0,5256.08105,929.23734Z" style="stroke:#000;stroke-miterlimit:10;stroke-width:3px"/><path d="M5217.341,930.30735a3.65324,3.65324,0,1,0-2.58229-1.07A3.68135,3.68135,0,0,0,5217.341,930.30735Z" style="stroke:#000;stroke-miterlimit:10;stroke-width:3px"/><path d="M5292.23877,929.23734a3.651,3.651,0,1,0-2.58229,1.07A3.68387,3.68387,0,0,0,5292.23877,929.23734Z" style="stroke:#000;stroke-miterlimit:10;stroke-width:3px"/><path d="M5217.341,947.83837h72.31544a3.6523,3.6523,0,1,0,0-7.30459H5217.341a3.6523,3.6523,0,1,0,0,7.30459Z" style="stroke:#000;stroke-miterlimit:10;stroke-width:3px"/><path d="M5230.60629,958.0648a3.65324,3.65324,0,1,0,2.58228,1.07A3.68136,3.68136,0,0,0,5230.60629,958.0648Z" style="stroke:#000;stroke-miterlimit:10;stroke-width:3px"/><path d="M5309.01365,905.47174H5197.98387a3.652,3.652,0,0,0-3.65229,3.6523v52.593a3.65293,3.65293,0,0,0,3.65229,3.6523H5213.198a3.6523,3.6523,0,1,0,0-7.30459h-11.56179V912.77633h103.72518V958.0648h-59.29273a3.6523,3.6523,0,0,0,0,7.30459h62.945a3.65293,3.65293,0,0,0,3.65229-3.6523V909.124A3.652,3.652,0,0,0,5309.01365,905.47174Z" style="stroke:#000;stroke-miterlimit:10;stroke-width:3px"/></g><g id="f6425582-da91-4677-b63c-b20c50cb8941" data-name="Singe_roi_lion"><path d="M5442.3984,868.81665a1.11363,1.11363,0,0,1,.65044,1.029,2.22028,2.22028,0,1,0,4.43126-.18015,1.43561,1.43561,0,0,1,.4167-1.32985,1.08983,1.08983,0,0,0,.49916-.98747,1.12048,1.12048,0,0,0-2.093-.34994,1.74511,1.74511,0,0,1-2.56715.2246,1.08984,1.08984,0,0,0-.98747-.49916,1.11514,1.11514,0,0,0-1.013,1.20723A1.08984,1.08984,0,0,0,5442.3984,868.81665Z" style="fill:red;stroke:#000;stroke-miterlimit:10;stroke-width:0.75px"/><path d="M5437.56821,870.3568a7.75772,7.75772,0,0,0,15.35285-1.3432,3.32882,3.32882,0,1,0-2.62413-6.1172,7.59548,7.59548,0,0,0-11.2067.98046,3.30841,3.30841,0,0,0-1.07366-.095,3.33387,3.33387,0,0,0-.44836,6.575Zm4.98588-5.85336a3.25229,3.25229,0,0,0,4.44041-.38848,3.34671,3.34671,0,0,1,3.62166,3.03893,3.25549,3.25549,0,0,1-.90124,2.54656,4.45789,4.45789,0,0,1-8.87.776,3.25551,3.25551,0,0,1-1.32976-2.35136A3.34673,3.34673,0,0,1,5442.55409,864.50344Z" style="fill:red;stroke:#000;stroke-miterlimit:10;stroke-width:0.75px"/><path d="M5459.06194,897.81031l7.74932-.678a6.75726,6.75726,0,0,0,6.0714-7.31734l-.777-8.88081a2.22508,2.22508,0,0,1,1.01632-2.06831,2.08026,2.08026,0,0,0,.86842-1.96037,2.283,2.283,0,0,0-1.29711-1.85279,2.09186,2.09186,0,0,0-2.10132.1423,6.69829,6.69829,0,0,0-2.92671,6.12765l.777,8.88081a2.2316,2.2316,0,0,1-2.026,2.41445l-2.98477.26113A16.017,16.017,0,0,1,5459.06194,897.81031Z" style="fill:red;stroke:#000;stroke-miterlimit:10;stroke-width:0.75px"/><path d="M5438.84889,886.081l4.55519-.39853a7.74633,7.74633,0,0,1,4.03548-2.49629,1.11394,1.11394,0,1,1,.52588,2.16493,5.70965,5.70965,0,0,0-4.19144,4.88264,5.63023,5.63023,0,0,0,.25536,2.1056l-.06979.00611c.00706.0304.00747.06229.015.09265a5.66136,5.66136,0,0,0-4.05084,5.928,1.1137,1.1137,0,0,0,1.20722,1.013l10.74112-.93973c5.97523-.52276,12.07421-6.77821,11.39907-14.495a13.43076,13.43076,0,0,0-8.88809-11.41265,9.9743,9.9743,0,0,1-8.34615,6.20886,9.81188,9.81188,0,0,1-1.11841.0021l.10543,1.20512a1.11514,1.11514,0,0,1-1.013,1.20723l-5.5505.4856a2.22869,2.22869,0,0,0,.38848,4.44041Z" style="fill:red;stroke:#000;stroke-miterlimit:10;stroke-width:0.75px"/></g></g><g id="fbba54d3-da5a-4453-b791-0525669ae8fe" data-name="Ancrage"><rect x="5624" y="999" width="1" height="1" style="fill:none"/><rect x="5624" width="1" height="1" style="fill:none"/><rect y="999" width="1" height="1" style="fill:none"/><rect width="1" height="1" style="fill:none"/></g></svg>