<svg xmlns="http://www.w3.org/2000/svg" viewBox="0 0 500 500"><g id="freepik--Plants--inject-51"><path d="M75.74,245.83s0-4.61-6.46-11.08S58.66,224.6,58.66,224.6s-3.23,10.61,2.77,17.08a113.53,113.53,0,0,0,14.31,12.46Z" style="fill:#CD010D"></path><path d="M66.36,274.66s0-4.61-6.46-11.08-10.62-10.15-10.62-10.15-3.23,10.62,2.77,17.08A113.53,113.53,0,0,0,66.36,283Z" style="fill:#CD010D"></path><path d="M75.33,253.7s.49-4.6,7.6-10.34,11.63-9,11.63-9,2.1,10.9-4.56,16.7A113.82,113.82,0,0,1,74.46,262Z" style="fill:#CD010D"></path><path d="M64,287.74s1-4.51,8.64-9.48,12.52-7.7,12.52-7.7.93,11.06-6.29,16.12a113.62,113.62,0,0,1-16.61,9.19Z" style="fill:#CD010D"></path><path d="M66.13,324.87s0-4.62,6.47-11.08,10.61-10.16,10.61-10.16,3.24,10.62-2.77,17.08a113.11,113.11,0,0,1-14.31,12.47Z" style="fill:#CD010D"></path><path d="M66,333.93s.65-4.57-4.83-11.89-9.06-11.56-9.06-11.56-4.71,10,.31,17.3a113.14,113.14,0,0,0,12.4,14.37Z" style="fill:#CD010D"></path><path d="M59.65,360.78s0-4.61,6.47-11.08,10.61-10.15,10.61-10.15S80,350.17,74,356.63a113.53,113.53,0,0,1-14.31,12.46Z" style="fill:#CD010D"></path><path d="M64,385.13s-1.17-4.47,3.45-12.35,7.69-12.52,7.69-12.52,5.82,9.45,1.65,17.23a113.63,113.63,0,0,1-10.69,15.68Z" style="fill:#CD010D"></path><path d="M76.33,244.65A132.33,132.33,0,0,1,74.56,259c-2.56,13.2-9,21.72-11.5,33.64s4.78,27.28,2.82,42.6-7.93,23.83-6.23,34S70.3,407.16,70.3,407.16" style="fill:none;stroke:#263238;stroke-linecap:round;stroke-linejoin:round"></path><line x1="75.27" y1="256.76" x2="82.24" y2="251.42" style="fill:none;stroke:#263238;stroke-linecap:round;stroke-linejoin:round"></line><line x1="75.6" y1="250.61" x2="72.68" y2="245.43" style="fill:none;stroke:#263238;stroke-linecap:round;stroke-linejoin:round"></line><path d="M63.45,292.07s5.83-4.37,11.82-8.74" style="fill:none;stroke:#263238;stroke-linecap:round;stroke-linejoin:round"></path><path d="M66.36,283S61.5,273.45,56,267.13" style="fill:none;stroke:#263238;stroke-linecap:round;stroke-linejoin:round"></path><path d="M66.36,331.44a72.42,72.42,0,0,1,12.47-16.69" style="fill:none;stroke:#263238;stroke-linecap:round;stroke-linejoin:round"></path><path d="M65.23,337.91a81.89,81.89,0,0,0-6.32-12c-3.4-5-3.89-5.67-3.89-5.67" style="fill:none;stroke:#263238;stroke-linecap:round;stroke-linejoin:round"></path><path d="M59.65,369.27a77.68,77.68,0,0,1,5.25-10.62,68,68,0,0,1,6.81-8.91" style="fill:none;stroke:#263238;stroke-linecap:round;stroke-linejoin:round"></path><path d="M66.07,393.17a19.82,19.82,0,0,1,1.75-10.23c2.43-4.69,5.18-10.85,6.32-13.28" style="fill:none;stroke:#263238;stroke-linecap:round;stroke-linejoin:round"></path><path d="M33.42,307.51s-.5-2.9,2.85-7.65,5.55-7.52,5.55-7.52,3.18,6.3.12,11a72.5,72.5,0,0,1-7.62,9.37Z" style="fill:#CD010D"></path><path d="M42.43,324.57s-.5-2.9,2.85-7.65,5.56-7.52,5.56-7.52,3.18,6.3.11,11a72.5,72.5,0,0,1-7.62,9.37Z" style="fill:#CD010D"></path><path d="M34.53,312.39s-.81-2.82-5.89-5.65-8.27-4.37-8.27-4.37-.13,7.06,4.67,10A72.58,72.58,0,0,0,36,317.48Z" style="fill:#CD010D"></path><path d="M45.33,332.51s-1.1-2.72-6.45-5S30.2,324,30.2,324s.61,7,5.69,9.43a72.37,72.37,0,0,0,11.41,4Z" style="fill:#CD010D"></path><path d="M48,356s-.5-2.89-5.25-6.24S35,344.56,35,344.56s-.88,7,3.59,10.41a72.47,72.47,0,0,0,10.33,6.27Z" style="fill:#CD010D"></path><path d="M49.07,361.69s-.9-2.79,1.74-8,4.43-8.24,4.43-8.24,4,5.8,1.68,10.89a71.94,71.94,0,0,1-6.21,10.35Z" style="fill:#CD010D"></path><path d="M57.19,385.05s.33-2.92,4.89-6.54,7.45-5.65,7.45-5.65,1.27,6.95-3,10.6a72.51,72.51,0,0,1-10,6.84Z" style="fill:#CD010D"></path><path d="M56,377.84s-.5-2.89-5.26-6.24S43,366.38,43,366.38s-.87,7,3.59,10.41a72.52,72.52,0,0,0,10.33,6.26Z" style="fill:#CD010D"></path><path d="M55.92,393.58s.25-2.93-3.5-7.37-6.19-7-6.19-7-2.62,6.56.84,11a71.81,71.81,0,0,0,8.41,8.68Z" style="fill:#CD010D"></path><path d="M32.92,306.83a84.79,84.79,0,0,0,2.67,8.79c3,8,8,12.65,10.86,19.85s0,17.63,2.86,27,7.56,14.08,7.6,20.67-2.56,24.92-2.56,24.92" style="fill:none;stroke:#263238;stroke-linecap:round;stroke-linejoin:round"></path><line x1="34.9" y1="314.31" x2="29.95" y2="311.71" style="fill:none;stroke:#263238;stroke-linecap:round;stroke-linejoin:round"></line><line x1="34.03" y1="310.49" x2="35.29" y2="306.92" style="fill:none;stroke:#263238;stroke-linecap:round;stroke-linejoin:round"></line><path d="M46.15,335.17S42,333.06,37.78,331" style="fill:none;stroke:#263238;stroke-linecap:round;stroke-linejoin:round"></path><path d="M43.33,329.78a59.75,59.75,0,0,1,4.78-11.06" style="fill:none;stroke:#263238;stroke-linecap:round;stroke-linejoin:round"></path><path d="M48.59,360.17A45.77,45.77,0,0,0,39,351.06" style="fill:none;stroke:#263238;stroke-linecap:round;stroke-linejoin:round"></path><path d="M50,364.11a51.39,51.39,0,0,1,2.66-8.2c1.59-3.52,1.82-4,1.82-4" style="fill:none;stroke:#263238;stroke-linecap:round;stroke-linejoin:round"></path><path d="M56.68,388.16A43.14,43.14,0,0,1,62,382.64a28.59,28.59,0,0,0,3.46-3" style="fill:none;stroke:#263238;stroke-linecap:round;stroke-linejoin:round"></path><path d="M56.91,383.16a49.42,49.42,0,0,0-4.45-6.09,43,43,0,0,0-5.23-4.84" style="fill:none;stroke:#263238;stroke-linecap:round;stroke-linejoin:round"></path><path d="M55.48,398.85a12.65,12.65,0,0,0-2.21-6.22c-2-2.69-4.43-6.25-5.4-7.65" style="fill:none;stroke:#263238;stroke-linecap:round;stroke-linejoin:round"></path><path d="M74.49,452h-27a2.12,2.12,0,0,1-2.12-2.13L38.7,405.23H83.3L76.61,449.9A2.12,2.12,0,0,1,74.49,452Z" style="fill:#263238;stroke:#263238;stroke-linecap:round;stroke-linejoin:round"></path></g><g id="freepik--Fireplace--inject-51"><rect x="360" y="156.79" width="42" height="17" style="opacity:0.2"></rect><rect x="337" y="180.29" width="42" height="17" style="opacity:0.1"></rect><rect x="385" y="180.29" width="42" height="17" style="opacity:0.1"></rect><line x1="257" y1="261" x2="257" y2="47" style="fill:none;stroke:#263238;stroke-linecap:round;stroke-miterlimit:10"></line><line x1="444" y1="261" x2="444" y2="47" style="fill:none;stroke:#263238;stroke-linecap:round;stroke-miterlimit:10"></line><rect x="360" y="54.79" width="42" height="17" style="opacity:0.2"></rect><rect x="337" y="78.29" width="42" height="17" style="opacity:0.1"></rect><rect x="283" y="41.5" width="42" height="17" style="opacity:0.1"></rect><rect x="385" y="78.29" width="42" height="17" style="opacity:0.1"></rect><rect x="385" y="219.5" width="42" height="17" style="opacity:0.1"></rect><rect x="287" y="133.79" width="42" height="17" style="opacity:0.2"></rect><rect x="384" y="111.79" width="42" height="17" style="opacity:0.2"></rect><rect x="264" y="157.29" width="42" height="17" style="opacity:0.1"></rect><rect x="312" y="157.29" width="42" height="17" style="opacity:0.1"></rect><rect x="287" y="204.79" width="42" height="17" style="opacity:0.2"></rect><rect x="264" y="228.29" width="42" height="17" style="opacity:0.1"></rect><rect x="312" y="228.29" width="42" height="17" style="opacity:0.1"></rect><rect x="264" y="111.5" width="42" height="17" style="opacity:0.2"></rect><rect x="310" y="111.5" width="42" height="17" style="opacity:0.2"></rect><rect x="288" y="90.5" width="42" height="17" style="opacity:0.1"></rect><rect x="247.48" y="286.43" width="184.15" height="149.62" style="fill:#263238;stroke:#fff;stroke-miterlimit:10"></rect><path d="M282.18,245.47l-11.07-5.31,2.77,5a71.82,71.82,0,0,0-7.51-1.77h-5.53l3.16,3.89s-9.08-2.12-10.27-2.12h-6.32l4,2.83-14.62-1.06,3.2,3.64-7.54-.46-4,2.48,3.55,1.77s-9.09,1.77-10.27,2.47-5.14,2.48-5.14,2.48l9.09.35H467.47l-4.74-4.24-4.74-.71,5.13-1.06L454,250.07h-4.35l3.56-2.12s-8.3-2.13-9.88-2.13H431.91l2.37-2.47-9.48.7.4-2.47s-5.93,2.12-7.12,2.47-4.74,1.77-4.74,1.77l-2-4.24-3.16,2.12-2,2.12L405.05,243l-5.54,3.19-2,1.41-3.56-5-3.55,1.77-2.37,1.77L386.48,243s-5.14.36-6.32,1.42a11.6,11.6,0,0,1-3.56,1.77v-4.25l-6.32,2.48v-3.89L364,243.7l-4.74-3.54-2,3.19-5.13-1.77-.4,2.12L345,241.93l-1.18,1.77-3.16-2.48-6.32,3.19L332,241.93l-9.88,2.48-.79-2.83-7.9,2.47-9.48-5.3.79,4.24-4.75-.35-8.69-1.42.4,2.48H288.5l-.4,1.42-6.32-2.48Z" style="fill:#575757"></path><path d="M294.08,251.84a3.54,3.54,0,1,1-3.53-3.54A3.54,3.54,0,0,1,294.08,251.84Z" style="fill:#CD010D"></path><path d="M272.15,251.49a3.54,3.54,0,1,1-3.54-3.54A3.54,3.54,0,0,1,272.15,251.49Z" style="fill:#CD010D"></path><circle cx="331.24" cy="253.25" r="3.89" style="fill:#CD010D"></circle><circle cx="382.9" cy="248.3" r="3.89" style="fill:#CD010D"></circle><circle cx="358.84" cy="250.07" r="3.89" style="fill:#CD010D"></circle><circle cx="409.44" cy="251.49" r="3.89" style="fill:#CD010D"></circle><path d="M453,252.19a3.89,3.89,0,1,1-3.89-3.89A3.9,3.9,0,0,1,453,252.19Z" style="fill:#CD010D"></path><rect x="234.36" y="265.12" width="221.64" height="7.56" style="fill:#8f8f8f;stroke:#263238;stroke-miterlimit:10"></rect><rect x="229.67" y="272.74" width="231.01" height="4.04" style="fill:#8f8f8f;stroke:#263238;stroke-miterlimit:10"></rect><rect x="229.67" y="276.84" width="231.01" height="32.76" style="fill:#8f8f8f;stroke:#263238;stroke-miterlimit:10"></rect><rect x="274.72" y="283.23" width="140.91" height="19.99" style="fill:#8f8f8f;stroke:#263238;stroke-miterlimit:10"></rect><polygon points="455.81 265.12 234.54 265.12 222.24 258.43 468.11 258.43 455.81 265.12" style="fill:#8f8f8f;stroke:#263238;stroke-miterlimit:10"></polygon><rect x="424.99" y="282.06" width="26.96" height="21.1" style="fill:#8f8f8f;stroke:#263238;stroke-miterlimit:10"></rect><rect x="238.61" y="282.06" width="26.96" height="21.1" style="fill:#8f8f8f;stroke:#263238;stroke-miterlimit:10"></rect><rect x="424.99" y="326.02" width="26.96" height="89.09" style="fill:#8f8f8f;stroke:#263238;stroke-miterlimit:10"></rect><rect x="413.85" y="309.61" width="50.4" height="9.38" style="fill:#8f8f8f;stroke:#263238;stroke-miterlimit:10"></rect><rect x="413.85" y="427.41" width="50.4" height="24.62" style="fill:#8f8f8f;stroke:#263238;stroke-miterlimit:10"></rect><rect x="417.96" y="318.98" width="42.79" height="108.43" style="fill:#8f8f8f;stroke:#263238;stroke-miterlimit:10"></rect><rect x="237.44" y="326.02" width="26.96" height="89.09" style="fill:#8f8f8f;stroke:#263238;stroke-miterlimit:10"></rect><rect x="226.3" y="309.61" width="50.4" height="9.38" style="fill:#8f8f8f;stroke:#263238;stroke-miterlimit:10"></rect><rect x="226.3" y="427.41" width="50.4" height="24.62" style="fill:#8f8f8f;stroke:#263238;stroke-miterlimit:10"></rect><rect x="230.4" y="318.98" width="42.79" height="108.43" style="fill:#8f8f8f;stroke:#263238;stroke-miterlimit:10"></rect><rect x="276.71" y="427.41" width="137.15" height="24.62" style="fill:#8f8f8f;stroke:#263238;stroke-miterlimit:10"></rect><path d="M398.76,281.41c0,4.33-1,7.84-2.24,7.84s-2.24-3.51-2.24-7.84,1-7.84,2.24-7.84S398.76,277.08,398.76,281.41Z" style="fill:#575757"></path><path d="M394.28,289.25l24.64,10.64s-7.84,22.39-7.84,28,12.88,21.84,10.08,27.44-3.92,7.84-11.76,7.84-25.2-8.4-30.8-24.64S382.52,315,382.52,315Z" style="fill:#575757"></path><path d="M394,283.8l-6.73,14.64A3.39,3.39,0,0,0,389,303l25.76,11.3a3.38,3.38,0,0,0,4.41-1.65l7.16-15.1a3.39,3.39,0,0,0-1.77-4.57L398.4,282.09A3.38,3.38,0,0,0,394,283.8Z" style="fill:#fff"></path><ellipse cx="334.97" cy="281.41" rx="2.24" ry="7.84" style="fill:#575757"></ellipse><path d="M332.73,289.25l24.64,10.64s-7.84,22.39-7.84,28,12.88,21.84,10.08,27.44-3.92,7.84-11.76,7.84-25.2-8.4-30.8-24.64S321,315,321,315Z" style="fill:#575757"></path><path d="M332.49,283.8l-6.72,14.64a3.38,3.38,0,0,0,1.71,4.51l25.76,11.3a3.4,3.4,0,0,0,4.42-1.65l7.15-15.1a3.38,3.38,0,0,0-1.76-4.57l-26.19-10.84A3.39,3.39,0,0,0,332.49,283.8Z" style="fill:#fff"></path><line x1="491" y1="452.03" x2="27" y2="452.03" style="fill:none;stroke:#263238;stroke-linecap:round;stroke-miterlimit:10"></line></g><g id="freepik--Lights--inject-51"><path d="M24.54,61.18a122.14,122.14,0,0,0,19.29,8.64,207.15,207.15,0,0,0,20.26,6.12c3.41.92,6.87,1.6,10.31,2.4l5.2,1c1.73.34,3.46.69,5.2,1,3.49.56,7,1.19,10.47,1.61l5.24.71c1.75.24,3.51.38,5.27.58a420.39,420.39,0,0,0,42.28,2.23c14.12,0,28.23-.67,42.31-1.73a692,692,0,0,0,83.75-12.43c6.89-1.55,13.79-3,20.67-4.64s13.72-3.35,20.55-5.14,13.63-3.68,20.42-5.61l10.15-3L351,51.36l2.56-.76,1.28-.38.64-.2.32-.09c.1,0,.21-.1.31,0,5.09,2.64,10.22,5,15.43,7.22s10.49,4.3,15.82,6.22A277.91,277.91,0,0,0,420,73a217.52,217.52,0,0,0,33.57,5.08c5.66.43,11.33.47,17,.36A159.79,159.79,0,0,0,487.43,77" style="fill:none;stroke:#263238;stroke-linecap:round;stroke-miterlimit:10"></path><path d="M52.81,72.57l-2.71-.86.1-4.85c1.77.55,3.53,1.14,5.31,1.67Z" style="fill:#263238"></path><path d="M57.2,66.14c-.91,3.1-2.53,2.51-4.54,1.84S49,67,50,63.88c.73-2.15,3.56-4.79,5.1-6.16a.89.89,0,0,1,1.44.45C57,60.21,57.84,63.94,57.2,66.14Z" style="fill:#CD010D"></path><path d="M54.09,63.74a1.42,1.42,0,1,1-2.65-.85,1.42,1.42,0,1,1,2.65.85Z" style="fill:#fff"></path><path d="M83.17,80.52,86,81l.65,4.82c-1.9-.32-3.81-.59-5.71-1Z" style="fill:#263238"></path><path d="M79.46,87.37c.6-3.19,2.31-2.67,4.48-2.34s3.94.5,3.44,3.7C87,91,84.49,94,83,95.54a1.07,1.07,0,0,1-1.68-.27C80.42,93.34,79,89.61,79.46,87.37Z" style="fill:#CD010D"></path><path d="M83.09,89.43a1.51,1.51,0,1,1,1.19,1.93A1.59,1.59,0,0,1,83.09,89.43Z" style="fill:#fff"></path><polygon points="126.88 84.62 124.03 84.49 122.89 79.77 128.52 80.04 126.88 84.62" style="fill:#263238"></polygon><path d="M129.6,77.31c-.14,3.24-1.87,3-4,2.92s-3.88-.08-3.67-3.31c.16-2.28,2.26-5.5,3.47-7.24a.94.94,0,0,1,1.56.07C128,71.58,129.7,75,129.6,77.31Z" style="fill:#CD010D"></path><path d="M125.93,75.76a1.61,1.61,0,0,1-1.53,1.64,1.57,1.57,0,0,1-1.32-1.79A1.61,1.61,0,0,1,124.6,74,1.57,1.57,0,0,1,125.93,75.76Z" style="fill:#fff"></path><path d="M158.25,85.8c.95,0,1.9,0,2.85,0l1.56,4.6c-1.92.1-3.84.1-5.76.12Z" style="fill:#263238"></path><path d="M156,93.25c0-3.24,1.73-3.12,3.91-3.14s3.95-.28,4,3c.07,2.28-1.83,5.72-3,7.54a1.05,1.05,0,0,1-1.68,0C158,98.88,156,95.54,156,93.25Z" style="fill:#CD010D"></path><path d="M159.88,94.59a1.62,1.62,0,0,1,1.44-1.74,1.59,1.59,0,0,1,1.53,1.65,1.63,1.63,0,0,1-1.44,1.77A1.61,1.61,0,0,1,159.88,94.59Z" style="fill:#fff"></path><polygon points="202.03 82.4 199.19 82.66 197.34 78.16 202.97 77.64 202.03 82.4" style="fill:#263238"></polygon><path d="M203.63,74.79c.34,3.23-1.41,3.24-3.54,3.44s-3.86.5-4.16-2.73c-.2-2.28,1.4-5.8,2.34-7.67a1,1,0,0,1,1.57-.15C201.13,69.35,203.39,72.52,203.63,74.79Z" style="fill:#CD010D"></path><path d="M199.74,73.76a1.46,1.46,0,1,1-1.6-1.57A1.6,1.6,0,0,1,199.74,73.76Z" style="fill:#fff"></path><polygon points="233.26 79.13 236.08 78.72 238.22 83.11 232.53 83.94 233.26 79.13" style="fill:#263238"></polygon><path d="M232,86.81c-.48-3.2,1.29-3.31,3.45-3.62s3.88-.72,4.39,2.46c.36,2.28-1.08,5.9-2,7.82a1,1,0,0,1-1.65.24C234.77,92.12,232.31,89.08,232,86.81Z" style="fill:#CD010D"></path><path d="M236,87.63a1.59,1.59,0,0,1,1.2-1.91,1.64,1.64,0,0,1,1.72,1.48,1.58,1.58,0,0,1-1.2,1.9A1.61,1.61,0,0,1,236,87.63Z" style="fill:#fff"></path><path d="M276.33,70.55l-2.78.61-2.35-4.28c1.86-.35,3.7-.79,5.54-1.19Z" style="fill:#263238"></path><path d="M277.1,62.77c.68,3.17-1.05,3.41-3.15,3.87s-3.79.91-4.44-2.25c-.46-2.25.75-5.91,1.48-7.87a1,1,0,0,1,1.56-.35C274,57.66,276.61,60.54,277.1,62.77Z" style="fill:#CD010D"></path><path d="M273.11,62.24a1.46,1.46,0,1,1-2.82.58,1.57,1.57,0,0,1,1.06-2A1.59,1.59,0,0,1,273.11,62.24Z" style="fill:#fff"></path><polygon points="307.06 64.08 309.83 63.4 312.37 67.56 306.81 68.94 307.06 64.08" style="fill:#263238"></polygon><path d="M306.53,71.86c-.78-3.14,1-3.43,3.08-4s3.78-1.09,4.59,2c.58,2.21-.5,6-1.2,8a1,1,0,0,1-1.61.4C309.82,76.87,307.08,74.08,306.53,71.86Z" style="fill:#CD010D"></path><path d="M310.62,72.27a1.6,1.6,0,0,1,1-2,1.63,1.63,0,0,1,1.85,1.3,1.49,1.49,0,1,1-2.86.71Z" style="fill:#fff"></path><path d="M349.18,51.66l-2.73.81-2.69-4,5.63-1.68A35.74,35.74,0,0,0,349.18,51.66Z" style="fill:#263238"></path><path d="M350.09,43.65a2.93,2.93,0,0,1-.93,3.16,5.65,5.65,0,0,1-1.23.68c-.44.17-.94.31-1.45.46-2.07.61-3.7,1.25-4.62-1.86-.65-2.19.25-6,.82-8a1,1,0,0,1,1.54-.45c.4.34.88.77,1.38,1.25l.76.75c.3.25.75.46,1.08.72A5.82,5.82,0,0,1,350.09,43.65Z" style="fill:#CD010D"></path><path d="M345.28,43.63a1.47,1.47,0,1,1-1.88-1.23A1.61,1.61,0,0,1,345.28,43.63Z" style="fill:#fff"></path><path d="M378.09,60.36l2.66,1-.32,4.86c-1.82-.68-3.61-1.41-5.4-2.12Z" style="fill:#263238"></path><path d="M373.07,66.34c1.23-3,2.82-2.19,4.87-1.39s3.76,1.28,2.62,4.32c-.8,2.14-3.9,4.58-5.67,5.79a1.08,1.08,0,0,1-1.59-.63C372.82,72.34,372.2,68.46,373.07,66.34Z" style="fill:#CD010D"></path><path d="M376.21,69.08A1.52,1.52,0,1,1,379,70.17a1.52,1.52,0,1,1-2.81-1.09Z" style="fill:#fff"></path><path d="M420.17,72.79c-.92-.21-1.85-.4-2.77-.64l-.28-4.86c1.81.46,3.63.86,5.45,1.27Z" style="fill:#263238"></path><path d="M424.08,66.06c-.68,3.17-2.34,2.65-4.41,2.18s-3.77-.77-3-3.91c.57-2.22,3.19-5,4.64-6.51a.91.91,0,0,1,1.49.34C423.46,60.12,424.56,63.82,424.08,66.06Z" style="fill:#CD010D"></path><path d="M420.78,63.9a1.44,1.44,0,1,1-1-2A1.61,1.61,0,0,1,420.78,63.9Z" style="fill:#fff"></path><path d="M451.06,78.35c.94.1,1.9.14,2.85.2l1.15,4.73c-1.95-.11-3.9-.23-5.84-.43Z" style="fill:#263238"></path><path d="M448,85.52c.31-3.23,2.07-2.9,4.28-2.74s4,.1,3.85,3.34c-.1,2.28-2.36,5.52-3.74,7.22a1.12,1.12,0,0,1-1.75-.12C449.51,91.34,447.76,87.8,448,85.52Z" style="fill:#CD010D"></path><path d="M451.84,87.25a1.66,1.66,0,0,1,1.64-1.62,1.72,1.72,0,0,1-.22,3.42A1.61,1.61,0,0,1,451.84,87.25Z" style="fill:#fff"></path></g><g id="freepik--Picture--inject-51"><rect x="304" y="50" width="97" height="121" style="fill:#a8a8a8"></rect><rect x="310.41" y="58" width="84.17" height="105" style="fill:#fff"></rect><rect x="329.37" y="81.65" width="46.25" height="57.7" style="opacity:0.1"></rect></g><g id="freepik--Character--inject-51"><path d="M228,418.46s24.84,22.32,25.15,23.26,7.54,10.06,14.15,18.87,17,11.94,20.12,7.54,4.4-18.23,1.57-24.21-11-13.83-11-13.83l-4.08-30.49S261.05,423.18,228,418.46Z" style="fill:#263238;stroke:#263238;stroke-linecap:round;stroke-miterlimit:10"></path><path d="M276.45,429.46l-20.12,11,8.07,9.43,16.13-9.12Zm-14.77,12.26,13.22-7.82,2.5,5.94-12.75,6.81Z" style="fill:#fff;stroke:#263238;stroke-linecap:round;stroke-miterlimit:10"></path><path d="M208.23,398.34s-3.77,1.42-1.41,5.19,5.66,12.26,13.68,16,24.52,3.77,40.08-3.77,19.8-22.16,20.75-26.41-4.72-14.14-6.13-17.92-10.38-.94-10.38-.94-6.13,14.15-19.8,20.28S208.23,398.34,208.23,398.34Z" style="fill:#fff;stroke:#263238;stroke-linecap:round;stroke-miterlimit:10"></path><path d="M199.28,388.44s7.54,12.73,15.56,17,25.93,2.83,40.08-8,15.56-20.75,15.56-24.52-2.36-22.64-2.36-22.64-36.31,26.41-48.57,30.65Z" style="fill:#CD010D;stroke:#263238;stroke-linecap:round;stroke-miterlimit:10"></path><path d="M106.38,423.33l10.84,27.83s-7.07,5.18-13.2,7.07-14.62,4.71-12.26,8,13.68,7.07,25.46,7.07,17.45-2.83,20.75-6.13a35.67,35.67,0,0,1,8-5.66l.47,4.72s7.07-.95,10.85-3.31,8-8.48,8-8.48-1.41-9.43-2.83-12.26-2.83-6.61-2.83-6.61V421.92S134.67,434.65,106.38,423.33Z" style="fill:#263238;stroke:#263238;stroke-linecap:round;stroke-miterlimit:10"></path><path d="M118.64,444.08l-4.72,10.38,11.32,7.07,10.38-13.68Zm-1.84,9.42,2.86-6.32,10,2.34L124.34,458Z" style="fill:#fff;stroke:#263238;stroke-linecap:round;stroke-miterlimit:10"></path><path d="M93.18,391.27s-3.78,3.77-3.31,8.49,3.78,14.61,4.25,19.33,25.93,16.5,40.55,16,31.6-10.84,34.9-14.62,2.35-9,2.35-16-.47-8-3.3-8.49-7.54-.47-9,1.42-13.67,11.32-33.48,8A76.45,76.45,0,0,1,93.18,391.27Z" style="fill:#fff;stroke:#263238;stroke-linecap:round;stroke-miterlimit:10"></path><path d="M88,371.46S91.29,396,98.36,404s25,14.15,36.78,12.73,19.81-5.66,24.52-10.84a39.75,39.75,0,0,0,7.08-11.79S113.92,386.55,88,371.46Z" style="fill:#CD010D;stroke:#263238;stroke-linecap:round;stroke-miterlimit:10"></path><path d="M74.31,328.08s-3.77-2.36-4.71.47-9.43,23.58-8,33,36.44,34.38,62.25,41c31.12,8,70,7.15,105.62-9.44,47.63-22.16,62.25-67,63.19-80.16s0-20.75-5.18-26.41-20.28-14.62-24-11.31,1.41,11.78-18.87,36.78-35.83,41-78.75,42.91-71.2-10.85-79.69-17S74.31,328.08,74.31,328.08Z" style="fill:#fff;stroke:#263238;stroke-linecap:round;stroke-miterlimit:10"></path><path d="M85.33,293s-13.72,37.07-13.86,39.9,20.19,38.81,80.57,40,97.2-26.16,109.44-52.92,9.69-41.52,9.69-41.52l-38.86-15.7s39.87,14.33-27.17,32.6S85.33,293,85.33,293Z" style="fill:#CD010D;stroke:#263238;stroke-linecap:round;stroke-miterlimit:10"></path><path d="M246,269.25s-6.14,25.81-27.86,41-41.79,25.41-74.15,16.39S96,310.22,83.3,301.21c0,0-.68,16.69,22,30.21l-3.61-10.22,6,2.16,5.27,12.1c28.62,13.28,57.35,13.48,92.42,1,13.24-4.72,22.18-10.91,28.32-17.33l-5.49-12.6,3.88-4.32,6.79,10.58c6.09-8.78,7.87-17.24,9.11-22.22C250.46,280.73,246,269.25,246,269.25Z" style="fill:#263238;stroke:#263238;stroke-linecap:round;stroke-miterlimit:10"></path><path d="M141.82,335.46l6,9.69c15.4,1.48,31.49-.51,49.15-5.91l-5-12.85L183.12,328a66.15,66.15,0,0,1-8.72,1.58Z" style="fill:#fff;stroke:#263238;stroke-linecap:round;stroke-miterlimit:10"></path><path d="M98.36,213.49s-19.8,9-28.76,13.2-37.73,5.19-37.73,5.19-4.71,2.36-11.31,17.92S17.25,289.88,39.42,296,79.5,285.17,79.5,285.17,77,309.48,102.13,323.36c22.17,12.26,43.86,18.39,78.75,11.32s50.3-23.61,57.7-35.93c6.53-10.88,8.32-24.43,8.32-24.43s5.66-28.29,0-43.38-27.35-20.28-43.85-22.16S163.44,205,160.14,205,111.09,205.48,98.36,213.49Z" style="fill:#CD010D;stroke:#263238;stroke-linecap:round;stroke-miterlimit:10"></path><path d="M83.14,253.74a46.81,46.81,0,0,1,2.62-6.2" style="fill:none;stroke:#263238;stroke-linecap:round;stroke-miterlimit:10"></path><path d="M79.5,285.17a90.79,90.79,0,0,1,1.7-24.45" style="fill:none;stroke:#263238;stroke-linecap:round;stroke-miterlimit:10"></path><path d="M292.17,288s9.43,17,16.51,15.09,6.6-12.26,6.6-12.26a18.41,18.41,0,0,0,16-1.89c8-5.19,8-16.5,4.24-25s-28.29-14.62-28.29-14.62S303.49,279,292.17,288Z" style="fill:#fff;stroke:#263238;stroke-linecap:round;stroke-miterlimit:10"></path><path d="M280.38,233.3l3.78-1.89a144.82,144.82,0,0,0,15.08,6.13c6.14,1.89,11.32,11.32,11.79,23.11s-9,26.4-17.44,29.23-14.62,0-18.87-1.88-12.26-4.25-11.78-7.55,2.35-2.83,5.18-9,7.55-17.44,7.55-24.05S280.38,233.3,280.38,233.3Z" style="fill:#fff;stroke:#263238;stroke-linecap:round;stroke-miterlimit:10"></path><path d="M179.94,205a178.72,178.72,0,0,1,51.87.95c28.3,4.71,56.59,31.59,58,37.72S284.63,272,278.5,277.15s-10.85,5.19-12.26,4.25-36.31-14.62-50.46-16.51" style="fill:#CD010D;stroke:#263238;stroke-linecap:round;stroke-miterlimit:10"></path><path d="M52.15,214.91s-7.07-3.78-13.2.47S24.8,230,24.8,239s9.43,17.91,20.28,17.91,18.39-2.82,21.69-11.31S61.11,216.79,52.15,214.91Z" style="fill:#fff;stroke:#263238;stroke-linecap:round;stroke-miterlimit:10"></path><path d="M179.94,205a178.72,178.72,0,0,1,51.87.95c10.83,1.8,21.65,6.85,31,12.74,10.7-9.92,3.21-33.18-1.73-45.75-5.19-13.21-32.07-35.37-56.59-46.21s-54.7-12.27-67-8.49S94.59,136.16,80,145.59s-19.8,32.53-19.8,44.32.94,23.58.47,28.3-16.51,24-16.51,24S25.27,255,26.69,257.35s7.54,9.43,15.56,11.31,9.9,3.78,13.2,7.08,12.73-2.83,12.73-2.83A56.74,56.74,0,0,1,69.6,246.5c4.24-14.15,14.62-17.45,22.63-23.58s64.13-12.26,83.94-11.79a65.24,65.24,0,0,1,7.9.78Z" style="fill:#CD010D"></path><path d="M179.94,205a178.72,178.72,0,0,1,51.87.95c10.83,1.8,21.65,6.85,31,12.74,10.7-9.92,3.21-33.18-1.73-45.75-5.19-13.21-32.07-35.37-56.59-46.21s-54.7-12.27-67-8.49S94.59,136.16,80,145.59s-19.8,32.53-19.8,44.32.94,23.58.47,28.3-16.51,24-16.51,24S25.27,255,26.69,257.35s7.54,9.43,15.56,11.31,9.9,3.78,13.2,7.08,12.73-2.83,12.73-2.83A56.74,56.74,0,0,1,69.6,246.5c4.24-14.15,14.62-17.45,22.63-23.58s64.13-12.26,83.94-11.79a65.24,65.24,0,0,1,7.9.78Z" style="opacity:0.30000000000000004"></path><path d="M179.94,205a178.72,178.72,0,0,1,51.87.95c10.83,1.8,21.65,6.85,31,12.74,10.7-9.92,3.21-33.18-1.73-45.75-5.19-13.21-32.07-35.37-56.59-46.21s-54.7-12.27-67-8.49S94.59,136.16,80,145.59s-19.8,32.53-19.8,44.32.94,23.58.47,28.3-16.51,24-16.51,24S25.27,255,26.69,257.35s7.54,9.43,15.56,11.31,9.9,3.78,13.2,7.08,12.73-2.83,12.73-2.83A56.74,56.74,0,0,1,69.6,246.5c4.24-14.15,14.62-17.45,22.63-23.58s64.13-12.26,83.94-11.79a65.24,65.24,0,0,1,7.9.78Z" style="fill:none;stroke:#263238;stroke-linecap:round;stroke-miterlimit:10"></path><path d="M56.1,252.83c-.57,1.22-1.12,2.48-1.62,3.78" style="fill:none;stroke:#263238;stroke-linecap:round;stroke-miterlimit:10"></path><path d="M68.25,234.91a67.9,67.9,0,0,0-9.54,12.91" style="fill:none;stroke:#263238;stroke-linecap:round;stroke-miterlimit:10"></path><path d="M57.82,238.25S47,243.67,40.71,252.86" style="fill:none;stroke:#263238;stroke-linecap:round;stroke-miterlimit:10"></path><path d="M80.77,220.72a36.77,36.77,0,0,0,8.35-20.45" style="fill:none;stroke:#263238;stroke-linecap:round;stroke-miterlimit:10"></path><path d="M71.06,191.5c0-1.32,0-2.71.11-4.17" style="fill:none;stroke:#263238;stroke-linecap:round;stroke-miterlimit:10"></path><path d="M74.51,210.29a38.21,38.21,0,0,1-2.88-10.78" style="fill:none;stroke:#263238;stroke-linecap:round;stroke-miterlimit:10"></path><path d="M52.15,212.55s-.45.34-1.19,1c-3,2.58-10.69,9.93-11.07,17.89-.47,9.9,4.24,10.85,4.24,10.85l10.38-6.61s14.62.48,19.8-5.18,8.49-11.79,0-18.86S52.15,212.55,52.15,212.55Z" style="fill:#fff;stroke:#263238;stroke-linecap:round;stroke-miterlimit:10"></path><path d="M130,274.79s-6.89,42.08,22.66,62.83c0,0,11.67,2.59,32.67-3.72,0,0-17.61-35.84-17.61-63.51Z" style="fill:#fff;stroke:#263238;stroke-linecap:round;stroke-miterlimit:10"></path><path d="M96.45,189.82a149.63,149.63,0,0,1-4.1,23.55c-3.26,13-6.18,28-2.13,41.4,3,9.81,10.66,17.26,20,21.2,30.08,12.73,81.64,6.89,88.09-31.87,2.32-13.92-2.64-27.3-10-38.92-9.55-15-14-19.45-14-19.45s-15.7,5.8-38.91,5.8S96.45,189.82,96.45,189.82Z" style="fill:#fff;stroke:#263238;stroke-linecap:round;stroke-miterlimit:10"></path><path d="M141.25,225.43a6.41,6.41,0,1,1-6.41-6.41A6.41,6.41,0,0,1,141.25,225.43Z" style="fill:#263238"></path><path d="M134.16,218.15c6.44,1.4,20.67,5.38,29,7.74,6.64-6.19,5.92-16.13,2.26-24.12a129,129,0,0,0-6.49-12.63l-50.17,4.43s-4.09,14.34-3.75,24.24c.15,4.2,3.49,7.41,7.64,9.67C116.71,224.09,126.84,216.55,134.16,218.15Z" style="fill:#fff;stroke:#263238;stroke-linecap:round;stroke-miterlimit:10"></path><path d="M161.47,211.4c0,2.11-2.81,3.83-6.27,3.83s-6.26-1.72-6.26-3.83,2.8-3.83,6.26-3.83S161.47,209.28,161.47,211.4Z" style="fill:#CD010D"></path><path d="M161.47,211.4c0,2.11-2.81,3.83-6.27,3.83s-6.26-1.72-6.26-3.83,2.8-3.83,6.26-3.83S161.47,209.28,161.47,211.4Z" style="fill:#fff;opacity:0.6000000000000001"></path><path d="M122.47,213.14c0,2.11-2.8,3.83-6.26,3.83s-6.27-1.72-6.27-3.83,2.81-3.83,6.27-3.83S122.47,211,122.47,213.14Z" style="fill:#CD010D"></path><path d="M122.47,213.14c0,2.11-2.8,3.83-6.26,3.83s-6.27-1.72-6.27-3.83,2.81-3.83,6.27-3.83S122.47,211,122.47,213.14Z" style="fill:#fff;opacity:0.6000000000000001"></path><path d="M131.6,214.73A42.48,42.48,0,0,0,119,218.49c-12.37,6.42-12.39.21-13.76,1.92s8,12.75,16.15,11.73S134.67,224,134.67,224s8.46,7.89,18,7.89S168.62,219,168.62,219a55.44,55.44,0,0,1-17.91-2.58A48.11,48.11,0,0,0,131.6,214.73Z" style="fill:#fff;stroke:#263238;stroke-linecap:round;stroke-miterlimit:10"></path><path d="M139.11,213.37a5,5,0,1,1-5-4.78A4.87,4.87,0,0,1,139.11,213.37Z" style="fill:#CD010D;stroke:#263238;stroke-linecap:round;stroke-miterlimit:10"></path><path d="M127.16,206c0,1.6-.76,2.9-1.7,2.9s-1.71-1.3-1.71-2.9.76-2.9,1.71-2.9S127.16,204.43,127.16,206Z" style="fill:#263238"></path><path d="M144.57,205.69c0,1.6-.76,2.9-1.71,2.9s-1.7-1.3-1.7-2.9.76-2.9,1.7-2.9S144.57,204.09,144.57,205.69Z" style="fill:#263238"></path><path d="M147.3,208.93s4.78-2.73,9.56-2.73" style="fill:none;stroke:#263238;stroke-linecap:round;stroke-miterlimit:10"></path><path d="M114.54,206.89s5.46,1.7,7.16,3.07" style="fill:none;stroke:#263238;stroke-linecap:round;stroke-miterlimit:10"></path><path d="M93.29,170.24s6.16-10.14,14.09-15.86,12.78-7,18.07-12.78,11.45-3.52,24.67-1.76,29.51,4,32.6,9.25,5.28,14.1,11.45,32.16,10.57,33,12.34,38.33,0,6.17-1.77,6.17-14.09-22.47-19.82-32.6-9.69-14.54-9.69-14.54-7.93,1.32-26,3.08-31.72,3.09-42.74-.88S93.29,170.24,93.29,170.24Z" style="fill:#CD010D;stroke:#263238;stroke-linecap:round;stroke-miterlimit:10"></path><path d="M151.39,146.9c-1.54-1.55-2.6-2.65-2.6-2.65" style="fill:none;stroke:#263238;stroke-linecap:round;stroke-miterlimit:10"></path><path d="M171.26,163.19s-5.72-4.41-9.69-7.05a54.72,54.72,0,0,1-6-5.14" style="fill:none;stroke:#263238;stroke-linecap:round;stroke-miterlimit:10"></path><path d="M93.29,170.24s-.44,18.06.88,21.58,13.65,7.49,30,7.93,38.77-4.84,44.94-7.49,8.37-4.4,8.81-7.48-2.64-15.42-3.52-18.07a5.91,5.91,0,0,0-3.09-3.52s-25.11,10.57-49.78,10.57-24.67-5.28-24.67-5.28S92.85,166.71,93.29,170.24Z" style="fill:#fff;stroke:#263238;stroke-linecap:round;stroke-miterlimit:10"></path><path d="M119.42,198.34s4.48-4.17,9.29-1" style="fill:none;stroke:#263238;stroke-linecap:round;stroke-miterlimit:10"></path><path d="M137.68,197.37s4.48-4.16,9.29-1" style="fill:none;stroke:#263238;stroke-linecap:round;stroke-miterlimit:10"></path><path d="M204.74,225.75s-2.64,5.28-2.2,10.13,3.53,9.69,7.93,9.69,12.78-2.64,14.1-8.81S222.81,228,218,224.42,204.74,225.75,204.74,225.75Z" style="fill:#fff;stroke:#263238;stroke-linecap:round;stroke-miterlimit:10"></path></g></svg>