<?xml version="1.0" encoding="iso-8859-1"?>
<!-- Generator: Adobe Illustrator 18.1.1, SVG Export Plug-In . SVG Version: 6.00 Build 0)  -->
<svg version="1.1" id="Capa_1" xmlns="http://www.w3.org/2000/svg" xmlns:xlink="http://www.w3.org/1999/xlink" x="0px" y="0px"
	 viewBox="0 0 285.998 285.998" style="enable-background:new 0 0 285.998 285.998;" xml:space="preserve">
<g>
	<path style="fill:#030104;" d="M176.683,145.937l38.274-20.445l57.663,24.282l-6.409-9.844l-51.931-24.38l-37.991,20.168
		c1.7-4.885,1.907-4.732-5.534-9.192l36.602-30.008l47.006-23.456l-10.637-0.47l-39.591,19.753l-39.568,30.442
		c-4.619-2.573-10.458-3.134-16.386-1.939l-12-58.973L114.07,8.609L103.192,0l26.251,63.228l10.354,60.34L108.35,82.685
		L52.094,83.37l-9.721,6.196l61.338,1.726l28.542,37.315c-2.028,1.699-3.906,3.64-5.57,5.813l-32.858-20.787L13.378,152.64
		l1.281,5.757l77.255-35.167l30.281,19.013c-0.426,1.049-0.801,2.108-1.14,3.211l-36.803,3.35l-65.13,67.764l1.284,10.23v-0.001
		l68.317-71.604h30.17c-5.188,18.027-19.548,12.508-26.979,26.215c-8.056,14.864-2.512,45.336,15.967,51.148
		c18.471,5.812,44.838-10.779,49.163-28.137c3.542-14.278-1.12-24.861-0.579-34.654l25.771,18.302l14.224,97.931l6.968-7.582
		l-13.849-92.975l-30.15-25.84c1.692-3.133,3.864-5.777,6.055-8.227l0.188,2.931l38.39,2.42l42.175,73.669l4.388-3.928
		l-42.521-78.652L176.683,145.937z"/>
</g>
<g>
</g>
<g>
</g>
<g>
</g>
<g>
</g>
<g>
</g>
<g>
</g>
<g>
</g>
<g>
</g>
<g>
</g>
<g>
</g>
<g>
</g>
<g>
</g>
<g>
</g>
<g>
</g>
<g>
</g>
</svg>
