<svg xmlns="http://www.w3.org/2000/svg" xmlns:xlink="http://www.w3.org/1999/xlink" viewBox="0 0 5625 1000.17781"><defs><style>.cls-1{isolation:isolate;}.cls-2{fill:#099;}.cls-3{opacity:0.3;}.cls-4{mix-blend-mode:soft-light;fill:url(#radial-gradient);}.cls-5{opacity:0.31;mix-blend-mode:multiply;}.cls-6{fill:#063;}.cls-7{opacity:0.25;fill:url(#radial-gradient-2);}.cls-10,.cls-12,.cls-13,.cls-14,.cls-15,.cls-16,.cls-17,.cls-18,.cls-19,.cls-20,.cls-21,.cls-7,.cls-8,.cls-9{mix-blend-mode:screen;}.cls-8{fill:url(#radial-gradient-3);}.cls-9{fill:url(#radial-gradient-4);}.cls-10{opacity:0.2;fill:url(#radial-gradient-5);}.cls-11,.cls-15{fill:none;}.cls-12{opacity:0.15;fill:url(#radial-gradient-6);}.cls-13,.cls-16{opacity:0.5;}.cls-13{fill:url(#radial-gradient-7);}.cls-14{fill:url(#radial-gradient-8);}.cls-15{stroke:#fff;stroke-miterlimit:10;stroke-width:2px;opacity:0.03;}.cls-16{fill:url(#radial-gradient-9);}.cls-17{fill:url(#radial-gradient-10);}.cls-18{fill:url(#radial-gradient-11);}.cls-19{fill:url(#radial-gradient-12);}.cls-20{fill:url(#radial-gradient-13);}.cls-21{fill:url(#radial-gradient-14);}.cls-22{fill:url(#Cadre1);}.cls-23{fill:url(#Cadre1-2);}.cls-24{fill:url(#Cadre1-3);}.cls-25{fill:#0a8955;}.cls-26{fill:#0a7a4a;}.cls-27{fill:url(#Cadre1-4);}.cls-28{fill:#fdf5e6;}</style><radialGradient id="radial-gradient" cx="875.84442" cy="500" r="712.73635" gradientTransform="translate(-2.21371 0.0889) scale(3.21371 1)" gradientUnits="userSpaceOnUse"><stop offset="0.00403" stop-color="#fff"/><stop offset="1" stop-color="#231f20"/></radialGradient><radialGradient id="radial-gradient-2" cx="2686.99908" cy="573.87188" r="224.14276" gradientTransform="translate(-497.32154 -89.73322) scale(1.19979 1.12067)" gradientUnits="userSpaceOnUse"><stop offset="0.1"/><stop offset="0.11244" stop-color="#080602"/><stop offset="0.16172" stop-color="#231b08"/><stop offset="0.21838" stop-color="#392c0d"/><stop offset="0.28458" stop-color="#4a3910"/><stop offset="0.36644" stop-color="#554213"/><stop offset="0.48125" stop-color="#5c4815"/><stop offset="0.8" stop-color="#5e4915"/><stop offset="1"/></radialGradient><radialGradient id="radial-gradient-3" cx="2921.40258" cy="339.46845" r="7.47143" gradientTransform="translate(-497.32154 -89.73322) scale(1.19979 1.12067)" gradientUnits="userSpaceOnUse"><stop offset="0" stop-color="#d4e194"/><stop offset="0.05952" stop-color="#afba7a"/><stop offset="0.13651" stop-color="#868f5e"/><stop offset="0.21955" stop-color="#626845"/><stop offset="0.30759" stop-color="#44482f"/><stop offset="0.40211" stop-color="#2b2e1e"/><stop offset="0.50556" stop-color="#181911"/><stop offset="0.62249" stop-color="#0a0b07"/><stop offset="0.76429" stop-color="#020302"/><stop offset="1"/></radialGradient><radialGradient id="radial-gradient-4" cx="3017.19254" cy="243.67838" r="7.47143" xlink:href="#radial-gradient-3"/><radialGradient id="radial-gradient-5" cx="3003.98469" cy="256.88611" r="56.03569" gradientTransform="translate(-497.32154 -89.73322) scale(1.19979 1.12067)" gradientUnits="userSpaceOnUse"><stop offset="0.05"/><stop offset="0.09242" stop-color="#040a03"/><stop offset="0.29802" stop-color="#183411"/><stop offset="0.48337" stop-color="#25531c"/><stop offset="0.64031" stop-color="#2e6622"/><stop offset="0.75" stop-color="#316d24"/><stop offset="0.78593" stop-color="#4f6e16"/><stop offset="0.83397" stop-color="#716f06"/><stop offset="0.86" stop-color="#7e6f00"/><stop offset="0.88764" stop-color="#7a6c00"/><stop offset="0.91229" stop-color="#706200"/><stop offset="0.93581" stop-color="#5d5200"/><stop offset="0.95863" stop-color="#443c00"/><stop offset="0.98074" stop-color="#231f00"/><stop offset="1"/></radialGradient><radialGradient id="radial-gradient-6" cx="2753.03771" cy="507.83317" r="149.42851" gradientTransform="translate(-497.32154 -89.73322) scale(1.19979 1.12067)" gradientUnits="userSpaceOnUse"><stop offset="0" stop-color="#200"/><stop offset="0.73" stop-color="#984023"/><stop offset="1" stop-color="#200"/></radialGradient><radialGradient id="radial-gradient-7" cx="2753.03771" cy="507.83317" r="74.71425" gradientTransform="translate(-497.32154 -89.73322) scale(1.19979 1.12067)" gradientUnits="userSpaceOnUse"><stop offset="0.15" stop-color="#fff"/><stop offset="0.20939" stop-color="#e5d3d3"/><stop offset="0.29044" stop-color="#c49c9e"/><stop offset="0.36051" stop-color="#ad7477"/><stop offset="0.41599" stop-color="#9e5c5f"/><stop offset="0.45" stop-color="#995356"/><stop offset="0.57175" stop-color="#6b3335"/><stop offset="0.69355" stop-color="#431718"/><stop offset="0.79053" stop-color="#2b0606"/><stop offset="0.85" stop-color="#200"/><stop offset="0.85727" stop-color="#260201"/><stop offset="0.8648" stop-color="#330704"/><stop offset="0.87246" stop-color="#471009"/><stop offset="0.8802" stop-color="#641d0f"/><stop offset="0.88801" stop-color="#8a2e18"/><stop offset="0.89577" stop-color="#b74223"/><stop offset="0.9" stop-color="#d34e29"/><stop offset="0.90254" stop-color="#c84927"/><stop offset="0.91417" stop-color="#9c361c"/><stop offset="0.92635" stop-color="#772514"/><stop offset="0.93893" stop-color="#58180c"/><stop offset="0.95205" stop-color="#400d07"/><stop offset="0.96594" stop-color="#2f0603"/><stop offset="0.98111" stop-color="#250101"/><stop offset="1" stop-color="#200"/></radialGradient><radialGradient id="radial-gradient-8" cx="2753.03771" cy="507.83317" r="62.26188" gradientTransform="translate(-497.32154 -89.73322) scale(1.19979 1.12067)" gradientUnits="userSpaceOnUse"><stop offset="0.15" stop-color="#fff"/><stop offset="0.28237" stop-color="#c2c2c2"/><stop offset="0.42528" stop-color="#888"/><stop offset="0.5636" stop-color="#575757"/><stop offset="0.69361" stop-color="#313131"/><stop offset="0.81336" stop-color="#161616"/><stop offset="0.91921" stop-color="#060606"/><stop offset="1"/></radialGradient><radialGradient id="radial-gradient-9" cx="3017.19254" cy="243.67838" r="112.07138" gradientTransform="translate(-497.32154 -89.73322) scale(1.19979 1.12067)" gradientUnits="userSpaceOnUse"><stop offset="0.64"/><stop offset="0.71799" stop-color="#000200"/><stop offset="0.74608" stop-color="#020902"/><stop offset="0.76609" stop-color="#051405"/><stop offset="0.78228" stop-color="#082509"/><stop offset="0.79598" stop-color="#0d3b0e"/><stop offset="0.8" stop-color="#0f4310"/><stop offset="0.8131" stop-color="#1e2c0a"/><stop offset="0.82975" stop-color="#2d1605"/><stop offset="0.84569" stop-color="#360901"/><stop offset="0.86" stop-color="#390400"/><stop offset="0.8715" stop-color="#250300"/><stop offset="0.88602" stop-color="#140100"/><stop offset="0.90412" stop-color="#090100"/><stop offset="0.92951" stop-color="#020000"/><stop offset="1"/></radialGradient><radialGradient id="radial-gradient-10" cx="2843.69654" cy="417.17431" r="23.68632" gradientTransform="translate(-497.32154 -89.73322) scale(1.19979 1.12067)" gradientUnits="userSpaceOnUse"><stop offset="0.1"/><stop offset="0.12317" stop-color="#0b0809"/><stop offset="0.24121" stop-color="#3c2b32"/><stop offset="0.3623" stop-color="#664956"/><stop offset="0.48446" stop-color="#886273"/><stop offset="0.60809" stop-color="#a37589"/><stop offset="0.73376" stop-color="#b68399"/><stop offset="0.86272" stop-color="#c18ba3"/><stop offset="1" stop-color="#c58ea6"/></radialGradient><radialGradient id="radial-gradient-11" cx="2976.78373" cy="284.08723" r="12.13958" gradientTransform="translate(-497.32154 -89.73322) scale(1.19979 1.12067)" gradientUnits="userSpaceOnUse"><stop offset="0.1" stop-color="#176f55"/><stop offset="0.16505" stop-color="#145f49"/><stop offset="0.32376" stop-color="#0d3d2f"/><stop offset="0.48587" stop-color="#07221a"/><stop offset="0.65065" stop-color="#030f0c"/><stop offset="0.81983" stop-color="#010403"/><stop offset="1"/></radialGradient><radialGradient id="radial-gradient-12" cx="2691.7353" cy="569.13566" r="2.3509" gradientTransform="translate(-497.32154 -89.73322) scale(1.19979 1.12067)" gradientUnits="userSpaceOnUse"><stop offset="0.1" stop-color="#65430f"/><stop offset="0.1269" stop-color="#5f3f0e"/><stop offset="0.29291" stop-color="#3d2809"/><stop offset="0.46237" stop-color="#221705"/><stop offset="0.6347" stop-color="#0f0a02"/><stop offset="0.81159" stop-color="#040201"/><stop offset="1"/></radialGradient><radialGradient id="radial-gradient-13" cx="2691.24128" cy="569.62945" r="19.08841" gradientTransform="translate(-497.32154 -89.73322) scale(1.19979 1.12067)" gradientUnits="userSpaceOnUse"><stop offset="0.1"/><stop offset="0.21377" stop-color="#1f150a"/><stop offset="0.36319" stop-color="#412b14"/><stop offset="0.51586" stop-color="#5c3d1c"/><stop offset="0.67104" stop-color="#6f4922"/><stop offset="0.83032" stop-color="#7a5126"/><stop offset="1" stop-color="#7e5327"/></radialGradient><radialGradient id="radial-gradient-14" cx="3014.85468" cy="246.01628" r="28.35957" xlink:href="#radial-gradient-10"/><linearGradient id="Cadre1" x1="1298.84498" y1="1700.29729" x2="1423.69367" y2="1601.45982" gradientTransform="matrix(1, 0, 0, -1, 0, 1002)" gradientUnits="userSpaceOnUse"><stop offset="0" stop-color="#fdc830"/><stop offset="1" stop-color="#f37335"/></linearGradient><linearGradient id="Cadre1-2" x1="313.88146" y1="2105.96078" x2="467.83357" y2="1984.08342" xlink:href="#Cadre1"/><linearGradient id="Cadre1-3" x1="2721.38796" y1="1356.31786" x2="2913.04577" y2="-478.95642" xlink:href="#Cadre1"/><linearGradient id="Cadre1-4" x1="2810.5" y1="152.04319" x2="2810.5" y2="108.1117" xlink:href="#Cadre1"/></defs><title>logo_pop_news_4</title><g class="cls-1"><g id="Fond"><rect class="cls-2" width="5625" height="1000.17781"/><g class="cls-3"><polygon class="cls-2" points="2569.555 0 2179.405 0 2812.5 500.089 2569.555 0"/><polygon class="cls-2" points="3442.456 0 3052.667 0 2812.5 500.089 3442.456 0"/><polygon class="cls-2" points="1529.717 0 791.989 0 2812.5 500.089 1529.717 0"/><polygon class="cls-2" points="4826.012 0 4090.838 0 2812.5 500.089 4826.012 0"/><polygon class="cls-2" points="5625 367.793 5625 155.341 2812.5 500.089 5625 367.793"/><polygon class="cls-2" points="3055.449 1000.178 3445.601 1000.178 2812.5 500.089 3055.449 1000.178"/><polygon class="cls-2" points="4095.289 1000.178 4833.018 1000.178 2812.5 500.089 4095.289 1000.178"/><polygon class="cls-2" points="2812.5 500.089 5625 843.125 5625 630.868 2812.5 500.089"/><polygon class="cls-2" points="0 157.048 0 369.309 2812.5 500.089 0 157.048"/><polygon class="cls-2" points="0 632.381 0 844.836 2812.5 500.089 0 632.381"/><polygon class="cls-2" points="798.976 1000.178 1534.156 1000.178 2812.5 500.089 798.976 1000.178"/><polygon class="cls-2" points="2182.541 1000.178 2572.333 1000.178 2812.5 500.089 2182.541 1000.178"/></g><rect class="cls-4" width="5625" height="1000.17781"/><g class="cls-5"><polygon class="cls-6" points="419.508 0 332.314 0 1711.78 290.22 419.508 0"/><polygon class="cls-6" points="99.888 0 43.029 0 660.605 125.174 99.888 0"/><polygon class="cls-6" points="1255.223 0 1168.029 0 2300.054 341.234 1255.223 0"/><polygon class="cls-6" points="935.602 0 878.743 0 1419.616 155.342 935.602 0"/><polygon class="cls-6" points="2026.651 0 1939.457 0 2595.363 328.571 2026.651 0"/><polygon class="cls-6" points="1707.031 0 1650.171 0 2068.603 170.617 1707.031 0"/><polygon class="cls-6" points="2478.459 0 2421.6 0 2595.363 185.194 2478.459 0"/><polygon class="cls-6" points="5176.023 0 5263.217 0 3883.755 290.22 5176.023 0"/><polygon class="cls-6" points="5495.644 0 5552.503 0 4934.927 125.174 5495.644 0"/><polygon class="cls-6" points="4340.309 0 4427.503 0 3295.478 341.234 4340.309 0"/><polygon class="cls-6" points="4659.93 0 4716.788 0 4175.916 155.342 4659.93 0"/><polygon class="cls-6" points="3568.881 0 3656.074 0 3000.171 328.571 3568.881 0"/><polygon class="cls-6" points="3888.501 0 3945.36 0 3526.932 170.617 3888.501 0"/><polygon class="cls-6" points="3117.072 0 3173.931 0 3000.171 185.194 3117.072 0"/><polygon class="cls-6" points="0 504.319 0 534.578 1022.049 514.833 0 504.319"/><polygon class="cls-6" points="0 409.37 0 425.91 543.98 438.605 0 409.37"/><polygon class="cls-6" points="0 316.774 0 328.772 559.339 359.242 0 316.774"/><polygon class="cls-6" points="0 196.753 0 208.751 878.743 327.715 0 196.753"/><polygon class="cls-6" points="0 86.733 0 98.731 530.991 170.617 0 86.733"/><polygon class="cls-6" points="0 316.774 0 328.772 559.339 359.242 0 316.774"/><polygon class="cls-6" points="0 196.753 0 208.751 878.743 327.715 0 196.753"/><polygon class="cls-6" points="0 86.733 0 98.731 530.991 170.617 0 86.733"/><polygon class="cls-6" points="0 616.368 0 598.285 620.263 582.999 0 616.368"/><polygon class="cls-6" points="0 706.56 0 694.562 559.339 664.093 0 706.56"/><polygon class="cls-6" points="0 826.582 0 814.583 878.743 695.619 0 826.582"/><polygon class="cls-6" points="0 936.601 0 924.603 530.991 852.717 0 936.601"/><polygon class="cls-6" points="2507.927 1000.178 2451.069 1000.178 2624.832 814.984 2507.927 1000.178"/><polygon class="cls-6" points="5625 500.089 5625 469.83 4602.951 489.575 5625 500.089"/><polygon class="cls-6" points="5625 591.465 5625 574.078 5053.171 560.733 5625 591.465"/><polygon class="cls-6" points="5625 683.404 5625 671.405 5065.664 640.936 5625 683.404"/><polygon class="cls-6" points="5625 803.425 5625 791.427 4746.257 672.462 5625 803.425"/><polygon class="cls-6" points="5625 913.445 5625 901.446 5094.009 829.561 5625 913.445"/><polygon class="cls-6" points="5625 683.404 5625 671.405 5065.664 640.936 5625 683.404"/><polygon class="cls-6" points="5625 803.425 5625 791.427 4746.257 672.462 5625 803.425"/><polygon class="cls-6" points="5625 913.445 5625 901.446 5094.009 829.561 5625 913.445"/><polygon class="cls-6" points="5625 386.247 5625 402.748 5058.991 416.697 5625 386.247"/><polygon class="cls-6" points="5625 293.618 5625 305.616 5065.664 336.085 5625 293.618"/><polygon class="cls-6" points="5625 173.596 5625 185.594 4746.257 304.559 5625 173.596"/><polygon class="cls-6" points="5625 63.577 5625 75.575 5094.009 147.461 5625 63.577"/><polygon class="cls-6" points="3917.969 1000.178 3974.828 1000.178 3556.4 829.561 3917.969 1000.178"/><polygon class="cls-6" points="3146.541 1000.178 3203.4 1000.178 3029.64 814.984 3146.541 1000.178"/><polygon class="cls-6" points="448.977 1000.178 361.783 1000.178 1741.248 709.958 448.977 1000.178"/><polygon class="cls-6" points="129.356 1000.178 72.497 1000.178 690.073 875.004 129.356 1000.178"/><polygon class="cls-6" points="1284.691 1000.178 1197.497 1000.178 2329.522 658.944 1284.691 1000.178"/><polygon class="cls-6" points="965.07 1000.178 908.212 1000.178 1449.084 844.836 965.07 1000.178"/><polygon class="cls-6" points="2056.119 1000.178 1968.926 1000.178 2624.832 671.607 2056.119 1000.178"/><polygon class="cls-6" points="1736.499 1000.178 1679.64 1000.178 2098.072 829.561 1736.499 1000.178"/><polygon class="cls-6" points="5205.492 1000.178 5292.686 1000.178 3913.223 709.958 5205.492 1000.178"/><polygon class="cls-6" points="5525.112 1000.178 5581.971 1000.178 4964.395 875.004 5525.112 1000.178"/><polygon class="cls-6" points="4369.777 1000.178 4456.971 1000.178 3324.946 658.944 4369.777 1000.178"/><polygon class="cls-6" points="4689.398 1000.178 4746.257 1000.178 4205.384 844.836 4689.398 1000.178"/><polygon class="cls-6" points="3598.349 1000.178 3685.543 1000.178 3029.64 671.607 3598.349 1000.178"/></g><ellipse class="cls-7" cx="2726.51606" cy="553.38621" rx="268.92449" ry="251.18945"/><ellipse class="cls-8" cx="3007.75129" cy="290.69796" rx="8.96415" ry="8.37298"/><ellipse class="cls-9" cx="3122.67924" cy="183.34916" rx="8.96415" ry="8.37298"/><ellipse class="cls-10" cx="3106.83258" cy="198.15063" rx="67.23112" ry="62.79736"/><line class="cls-11" x1="2805.74862" y1="479.37879" x2="2958" y2="62.0889"/><ellipse class="cls-12" cx="2805.74862" cy="479.37879" rx="179.28299" ry="167.45964"/><ellipse class="cls-13" cx="2805.74862" cy="479.37879" rx="89.6415" ry="83.72982"/><ellipse class="cls-14" cx="2805.74862" cy="479.37879" rx="74.70125" ry="69.77485"/><polyline class="cls-15" points="2805.749 479.379 3052.772 592.394 2805.749 479.379 2558.726 366.364 2805.749 479.379 2684.754 710.111 2805.749 479.379 2926.743 248.647 2805.749 479.379 3243.639 510.457 2805.749 479.379 2367.859 448.3 2805.749 479.379 2772.476 888.391 2805.749 479.379 2839.021 70.367 2805.749 479.379 2908.497 612.663 2805.749 479.379 2703 346.094 2805.749 479.379 2663.054 575.352 2805.749 479.379 2948.444 383.406 2805.749 479.379 3005.464 533.836 2805.749 479.379 2606.033 424.921 2805.749 479.379 2747.446 665.924 2805.749 479.379 2864.051 292.834 2805.749 479.379 3036.795 509.333 2805.749 479.379 2574.702 449.424 2805.749 479.379 2773.679 695.188 2805.749 479.379 2837.818 263.569 2805.749 479.379 2998.754 681.055 2805.749 479.379 2612.744 277.703 2805.749 479.379 2589.833 659.655 2805.749 479.379 3021.664 299.102 2805.749 479.379 2937.925 550.458 2805.749 479.379 2673.573 408.299 2805.749 479.379 2729.651 602.838 2805.749 479.379 2881.847 355.92 2805.749 479.379 2878.953 605.257 2805.749 479.379 2732.545 353.5 2805.749 479.379 2670.983 547.755 2805.749 479.379 2940.515 411.003 2805.749 479.379 2935.75 567.088 2805.749 479.379 2675.747 391.669 2805.749 479.379 2711.846 600.807 2805.749 479.379 2899.651 357.951 2805.749 479.379 2928.178 566.416 2805.749 479.379 2683.319 392.342 2805.749 479.379 2712.566 593.735 2805.749 479.379 2898.931 365.023 2805.749 479.379 2916.697 545.703 2805.749 479.379 2694.8 413.054 2805.749 479.379 2734.741 583.01 2805.749 479.379 2876.756 375.747 2805.749 479.379 2893.474 490.768 2805.749 479.379 2718.023 467.989 2805.749 479.379 2793.555 561.319 2805.749 479.379 2817.942 397.438 2805.749 479.379 2812.819 551.11 2805.749 479.379 2798.679 407.648 2805.749 479.379 2728.953 485.982 2805.749 479.379 2882.544 472.775 2805.749 479.379 2880.538 572.638 2805.749 479.379 2730.959 386.119 2805.749 479.379 2705.905 549.236 2805.749 479.379 2905.593 409.521 2805.749 479.379 2819.654 513.943 2805.749 479.379 2791.844 444.814 2805.749 479.379 2768.744 492.367 2805.749 479.379 2842.753 466.391"/><ellipse class="cls-16" cx="3122.67924" cy="183.34916" rx="134.46224" ry="125.59473"/><ellipse class="cls-17" cx="2914.52027" cy="377.78037" rx="28.41857" ry="26.54455"/><ellipse class="cls-18" cx="3074.19711" cy="228.63403" rx="14.56492" ry="13.60448"/><ellipse class="cls-19" cx="2732.19853" cy="548.07848" rx="2.82063" ry="2.63453"/><ellipse class="cls-20" cx="2731.60581" cy="548.63186" rx="22.90206" ry="21.3918"/><ellipse class="cls-21" cx="3119.87429" cy="185.96917" rx="34.02554" ry="31.78167"/></g><g id="Tableau"><path class="cls-22" d="M661.5,106.77876h4302V893.22124H661.50009Z" transform="translate(0 0.0889)"/><path class="cls-23" d="M661.50013,855.29179H4960.5v35.22094H661.5Z" transform="translate(0 0.0889)"/><path class="cls-24" d="M661.5,106.77876h4298V891.22124H661.5Z" transform="translate(0 0.0889)"/><path class="cls-25" d="M705.60714,141.16669H4914.02678V876.91985H705.60714Z" transform="translate(0 0.0889)"/><path class="cls-26" d="M754.38553,155.61037H4913.90447V141.16669H705.60751V876.91985H754.3859Z" transform="translate(0 0.0889)"/><path class="cls-27" d="M661.5,890.77876h4298V864.94612H661.50008Z" transform="translate(0 0.0889)"/></g><g id="Texte"><path class="cls-28" d="M1071.79346,273.231l274.21972-15.49366,1.8003,60.78272q-32.40235,13.71533-75.00537,21.45264-10.801,1.78783-130.80957,14.89795L1150.999,459.1543l101.40723-1.1919,1.2002,94.74951-115.8086-2.97949,6.00049,138.84668,150.61133-7.15137,5.40039,63.167-230.417,2.97949Z" transform="translate(0 0.0889)"/><path class="cls-28" d="M1414.41309,279.78613q103.19751,0,174.01269,53.63184,77.40528,58.40772,77.40527,157.915,0,78.66065-13.80078,130.5039-16.80615,63.772-57.60449,97.7295-45.6079,38.14307-124.209,38.13769-16.80543,0-30.90235-1.1914a167.73792,167.73792,0,0,1-27.90185-4.76758Zm69.605,414.15625q61.79516-16.08984,88.80615-60.18652,23.99268-38.73046,24.002-106.07227,0-54.81883-17.40137-98.92041-23.4016-59.58178-68.40478-59.59082a175.04973,175.04973,0,0,0-47.40332,6.55518Z" transform="translate(0 0.0889)"/><path class="cls-28" d="M1809.83789,492.52539q0,58.99512,6.00049,125.14063,4.19091,47.68212,15.001,125.14062l-85.80616,1.78809q0-30.97853,2.40039-75.68067,5.40015-101.2998,5.40039-126.332,0-47.669-2.10009-86.10937-2.11011-38.436-7.50049-97.43067-3.01026-29.79126-9.60108-91.17431l87.60645-6.55469q-6.00513,67.93359-8.70068,118.88379Q1809.83838,431.147,1809.83789,492.52539Z" transform="translate(0 0.0889)"/><path class="cls-28" d="M2010.84424,366.19287l-84.00635-1.19189L1915.437,272.03906l424.231-7.74658-7.80029,47.67236-249.01807,28.00782,24.00146,396.875h-109.208Z" transform="translate(0 0.0889)"/><path class="cls-28" d="M2471.6748,492.52539q0,58.99512,6.00049,125.14063,4.19092,47.68212,15.001,125.14062l-85.80615,1.78809q0-30.97853,2.40039-75.68067,5.40015-101.2998,5.40039-126.332,0-47.669-2.1001-86.10937-2.11011-38.436-7.50049-97.43067-3.01025-29.79126-9.60107-91.17431l87.60644-6.55469q-6.00511,67.93359-8.70068,118.88379Q2471.6753,431.147,2471.6748,492.52539Z" transform="translate(0 0.0889)"/><path class="cls-28" d="M2921.69922,509.21094q0,70.92188-40.80274,146.59277Q2833.48829,744.00343,2768.688,743.999q-74.40967,0-135.60986-81.63964-56.40894-75.67091-56.4043-152.55274,0-89.9729,43.20361-157.31982,49.79883-77.45874,135.00977-77.46827,72.59546,0,123.00927,84.02344Q2921.68946,431.75172,2921.69922,509.21094Zm-231.6167,7.74707q0,38.74218,21.60156,109.64648,25.2019,82.23486,50.40332,82.23535,18.59253,0,37.20264-79.85156,15.59619-67.333,15.60156-99.5166,0-38.729-19.80176-119.18164-23.40161-94.14916-45.603-94.15381-22.2063,0-42.603,88.79053Q2690.07764,478.22315,2690.08252,516.958Z" transform="translate(0 0.0889)"/><path class="cls-28" d="M3069.90723,774.38965l-.60059,17.87793-71.40527,7.15039q0-41.11816,6.001-174.00488,2.9956-66.14649,3-105.47559,0-30.97851-6-134.07959-3.01025-51.2439-3.001-81.63965l58.80468-4.76709q34.20264,24.44166,67.80469,60.78272,27.00294,28.60326,58.2041,70.31689,27.00294,36.95582,54.00391,73.89258,5.40089-36.34131,8.40137-72.99854,2.9956-36.64818,3-73.59472a423.59955,423.59955,0,0,0-2.10059-44.99121q-2.10937-19.35792-7.5-51.5459,27.59179,0,59.4043,11.918,0,34.56738-1.80078,81.04345-4.20411,108.46509-4.2002,135.86719,0,44.69385,4.2002,90.57813,4.19091,45.89355,21.60156,169.23828l-88.20606-5.36328q-40.812-77.45948-81.00585-154.93653-49.81349-90.57274-94.80665-145.40136,0,45.89428,3.9004,106.36914,3.895,60.48925,8.10058,120.374Q3069.898,730.88867,3069.90723,774.38965Z" transform="translate(0 0.0889)"/><path class="cls-28" d="M3828.35938,434.72217,3842.75977,370.96l87.00683,3.57568a201.56731,201.56731,0,0,0,8.40039-28.00781,127.98344,127.98344,0,0,0,3-27.41162l-1.7998-36.94629,65.40429-5.36328a510.578,510.578,0,0,0-33.00195,97.729l56.4043-1.78808a271.74151,271.74151,0,0,0,14.70117-44.69287,360.963,360.963,0,0,0,7.5-49.46045l75.00586,3.57568a237.06867,237.06867,0,0,0-28.20215,44.69287,195.99768,195.99768,0,0,0-15.60156,47.67285h73.80566l-46.20312,54.82325h-56.4043L4041.375,491.333l67.80469-4.7666-1.79981,55.41894-80.40625,2.97949q-3.60058,16.69044-4.5,23.83692a173.06486,173.06486,0,0,0-.90039,20.26074,276.57853,276.57853,0,0,0,2.7002,39.92578,399.98653,399.98653,0,0,0,8.70019,41.71387L3955.56836,655.208l20.40137-113.22266-53.40332,2.97949v91.77051l-76.80567,10.12988a242.27406,242.27406,0,0,0,21.60156-50.05566,297.73171,297.73171,0,0,0,10.2002-53.63184H3801.957l12.60059-51.84472h75.60644l12-60.186Zm108.00781,60.187,58.80371-3.57617,12.60156-69.72071h-61.20508Z" transform="translate(0 0.0889)"/><path class="cls-28" d="M4248.98926,565.22656a862.11329,862.11329,0,0,0-7.20117-109.34961A808.43618,808.43618,0,0,0,4221.38672,350.103l85.80664,3.57568q-7.80615,44.69312-9.60059,67.03955-1.80029,22.34693-1.80078,42.01172,0,1.78785,1.2002,20.26074,1.19531,18.47827,1.20019,25.62451l75.60547-5.36328q6.59619-15.48926,6.60059-36.94677a387.66855,387.66855,0,0,0-9.001-83.7251,438.15492,438.15492,0,0,0-26.40137-80.74561l116.40821-23.24023q-11.40528,38.74365-16.80078,67.93359a344.06725,344.06725,0,0,0-5.40039,62.57031q0,20.26539,1.20019,40.81983,1.19532,20.55835,3,40.22363h57.60449l4.79981,67.33789-64.2041.59571a400.19234,400.19234,0,0,0-4.80079,60.18652,212.30154,212.30154,0,0,0,3,33.9668q2.9956,18.47754,6.60059,33.37109h-87.00586a339.402,339.402,0,0,0,13.2002-40.52148,153.50262,153.50262,0,0,0,4.80078-37.543q0-8.93849-.29981-16.68457-.31055-7.73877-2.70019-30.39161a364.2447,364.2447,0,0,0-57.00489-4.76757,217.72175,217.72175,0,0,0-34.20214,2.97949Q4264.585,561.66064,4248.98926,565.22656Z" transform="translate(0 0.0889)"/></g><g id="Ancrage"><rect class="cls-11" x="5624" y="999.0889" width="1" height="1"/><rect class="cls-11" x="5624" y="0.0889" width="1" height="1"/><rect class="cls-11" y="999.0889" width="1" height="1"/><rect class="cls-11" y="0.0889" width="1" height="1"/></g></g></svg>