<svg xmlns="http://www.w3.org/2000/svg" xmlns:xlink="http://www.w3.org/1999/xlink" viewBox="0 0 5625 1038.39074"><defs><style>.cls-1{isolation:isolate;}.cls-2{fill:#7ae820;}.cls-3{opacity:0.3;}.cls-4{fill:#59a818;}.cls-5{mix-blend-mode:multiply;}.cls-6{fill:#37690f;}.cls-7{mix-blend-mode:soft-light;fill:url(#radial-gradient);}.cls-8{opacity:0.25;fill:url(#radial-gradient-2);}.cls-10,.cls-11,.cls-13,.cls-14,.cls-15,.cls-16,.cls-17,.cls-18,.cls-19,.cls-20,.cls-21,.cls-22,.cls-8,.cls-9{mix-blend-mode:screen;}.cls-9{fill:url(#radial-gradient-3);}.cls-10{fill:url(#radial-gradient-4);}.cls-11{opacity:0.2;fill:url(#radial-gradient-5);}.cls-12,.cls-16{fill:none;}.cls-13{opacity:0.15;fill:url(#radial-gradient-6);}.cls-14,.cls-17{opacity:0.5;}.cls-14{fill:url(#radial-gradient-7);}.cls-15{fill:url(#radial-gradient-8);}.cls-16{stroke:#fff;stroke-width:2px;opacity:0.03;}.cls-16,.cls-23,.cls-28{stroke-miterlimit:10;}.cls-17{fill:url(#radial-gradient-9);}.cls-18{fill:url(#radial-gradient-10);}.cls-19{fill:url(#radial-gradient-11);}.cls-20{fill:url(#radial-gradient-12);}.cls-21{fill:url(#radial-gradient-13);}.cls-22{fill:url(#radial-gradient-14);}.cls-23,.cls-28{stroke:#000;}.cls-23{stroke-width:10px;}.cls-24{fill:#38b1e8;}.cls-25,.cls-28{fill:#e88715;}.cls-26{fill:#c3c7f4;}.cls-27{fill:#c8c8c8;opacity:0.4;}.cls-28{stroke-width:20px;}</style><radialGradient id="radial-gradient" cx="875.84442" cy="500" r="712.73635" gradientTransform="translate(-2.21371 38.30183) scale(3.21371 1)" gradientUnits="userSpaceOnUse"><stop offset="0.00403" stop-color="#fff"/><stop offset="1" stop-color="#231f20"/></radialGradient><radialGradient id="radial-gradient-2" cx="2686.99908" cy="573.87188" r="224.14276" gradientTransform="translate(-497.32154 -51.5203) scale(1.19979 1.12067)" gradientUnits="userSpaceOnUse"><stop offset="0.1"/><stop offset="0.11244" stop-color="#080602"/><stop offset="0.16172" stop-color="#231b08"/><stop offset="0.21838" stop-color="#392c0d"/><stop offset="0.28458" stop-color="#4a3910"/><stop offset="0.36644" stop-color="#554213"/><stop offset="0.48125" stop-color="#5c4815"/><stop offset="0.8" stop-color="#5e4915"/><stop offset="1"/></radialGradient><radialGradient id="radial-gradient-3" cx="2921.40258" cy="339.46845" r="7.47143" gradientTransform="translate(-497.32154 -51.5203) scale(1.19979 1.12067)" gradientUnits="userSpaceOnUse"><stop offset="0" stop-color="#d4e194"/><stop offset="0.05952" stop-color="#afba7a"/><stop offset="0.13651" stop-color="#868f5e"/><stop offset="0.21955" stop-color="#626845"/><stop offset="0.30759" stop-color="#44482f"/><stop offset="0.40211" stop-color="#2b2e1e"/><stop offset="0.50556" stop-color="#181911"/><stop offset="0.62249" stop-color="#0a0b07"/><stop offset="0.76429" stop-color="#020302"/><stop offset="1"/></radialGradient><radialGradient id="radial-gradient-4" cx="3017.19254" cy="243.67838" r="7.47143" xlink:href="#radial-gradient-3"/><radialGradient id="radial-gradient-5" cx="3003.98469" cy="256.88611" r="56.03569" gradientTransform="translate(-497.32154 -51.5203) scale(1.19979 1.12067)" gradientUnits="userSpaceOnUse"><stop offset="0.05"/><stop offset="0.09242" stop-color="#040a03"/><stop offset="0.29802" stop-color="#183411"/><stop offset="0.48337" stop-color="#25531c"/><stop offset="0.64031" stop-color="#2e6622"/><stop offset="0.75" stop-color="#316d24"/><stop offset="0.78593" stop-color="#4f6e16"/><stop offset="0.83397" stop-color="#716f06"/><stop offset="0.86" stop-color="#7e6f00"/><stop offset="0.88764" stop-color="#7a6c00"/><stop offset="0.91229" stop-color="#706200"/><stop offset="0.93581" stop-color="#5d5200"/><stop offset="0.95863" stop-color="#443c00"/><stop offset="0.98074" stop-color="#231f00"/><stop offset="1"/></radialGradient><radialGradient id="radial-gradient-6" cx="2753.03771" cy="507.83317" r="149.42851" gradientTransform="translate(-497.32154 -51.5203) scale(1.19979 1.12067)" gradientUnits="userSpaceOnUse"><stop offset="0" stop-color="#200"/><stop offset="0.73" stop-color="#984023"/><stop offset="1" stop-color="#200"/></radialGradient><radialGradient id="radial-gradient-7" cx="2753.03771" cy="507.83317" r="74.71425" gradientTransform="translate(-497.32154 -51.5203) scale(1.19979 1.12067)" gradientUnits="userSpaceOnUse"><stop offset="0.15" stop-color="#fff"/><stop offset="0.20939" stop-color="#e5d3d3"/><stop offset="0.29044" stop-color="#c49c9e"/><stop offset="0.36051" stop-color="#ad7477"/><stop offset="0.41599" stop-color="#9e5c5f"/><stop offset="0.45" stop-color="#995356"/><stop offset="0.57175" stop-color="#6b3335"/><stop offset="0.69355" stop-color="#431718"/><stop offset="0.79053" stop-color="#2b0606"/><stop offset="0.85" stop-color="#200"/><stop offset="0.85727" stop-color="#260201"/><stop offset="0.8648" stop-color="#330704"/><stop offset="0.87246" stop-color="#471009"/><stop offset="0.8802" stop-color="#641d0f"/><stop offset="0.88801" stop-color="#8a2e18"/><stop offset="0.89577" stop-color="#b74223"/><stop offset="0.9" stop-color="#d34e29"/><stop offset="0.90254" stop-color="#c84927"/><stop offset="0.91417" stop-color="#9c361c"/><stop offset="0.92635" stop-color="#772514"/><stop offset="0.93893" stop-color="#58180c"/><stop offset="0.95205" stop-color="#400d07"/><stop offset="0.96594" stop-color="#2f0603"/><stop offset="0.98111" stop-color="#250101"/><stop offset="1" stop-color="#200"/></radialGradient><radialGradient id="radial-gradient-8" cx="2753.03771" cy="507.83317" r="62.26188" gradientTransform="translate(-497.32154 -51.5203) scale(1.19979 1.12067)" gradientUnits="userSpaceOnUse"><stop offset="0.15" stop-color="#fff"/><stop offset="0.28237" stop-color="#c2c2c2"/><stop offset="0.42528" stop-color="#888"/><stop offset="0.5636" stop-color="#575757"/><stop offset="0.69361" stop-color="#313131"/><stop offset="0.81336" stop-color="#161616"/><stop offset="0.91921" stop-color="#060606"/><stop offset="1"/></radialGradient><radialGradient id="radial-gradient-9" cx="3017.19254" cy="243.67838" r="112.07138" gradientTransform="translate(-497.32154 -51.5203) scale(1.19979 1.12067)" gradientUnits="userSpaceOnUse"><stop offset="0.64"/><stop offset="0.71799" stop-color="#000200"/><stop offset="0.74608" stop-color="#020902"/><stop offset="0.76609" stop-color="#051405"/><stop offset="0.78228" stop-color="#082509"/><stop offset="0.79598" stop-color="#0d3b0e"/><stop offset="0.8" stop-color="#0f4310"/><stop offset="0.8131" stop-color="#1e2c0a"/><stop offset="0.82975" stop-color="#2d1605"/><stop offset="0.84569" stop-color="#360901"/><stop offset="0.86" stop-color="#390400"/><stop offset="0.8715" stop-color="#250300"/><stop offset="0.88602" stop-color="#140100"/><stop offset="0.90412" stop-color="#090100"/><stop offset="0.92951" stop-color="#020000"/><stop offset="1"/></radialGradient><radialGradient id="radial-gradient-10" cx="2843.69654" cy="417.17431" r="23.68632" gradientTransform="translate(-497.32154 -51.5203) scale(1.19979 1.12067)" gradientUnits="userSpaceOnUse"><stop offset="0.1"/><stop offset="0.12317" stop-color="#0b0809"/><stop offset="0.24121" stop-color="#3c2b32"/><stop offset="0.3623" stop-color="#664956"/><stop offset="0.48446" stop-color="#886273"/><stop offset="0.60809" stop-color="#a37589"/><stop offset="0.73376" stop-color="#b68399"/><stop offset="0.86272" stop-color="#c18ba3"/><stop offset="1" stop-color="#c58ea6"/></radialGradient><radialGradient id="radial-gradient-11" cx="2976.78373" cy="284.08723" r="12.13958" gradientTransform="translate(-497.32154 -51.5203) scale(1.19979 1.12067)" gradientUnits="userSpaceOnUse"><stop offset="0.1" stop-color="#176f55"/><stop offset="0.16505" stop-color="#145f49"/><stop offset="0.32376" stop-color="#0d3d2f"/><stop offset="0.48587" stop-color="#07221a"/><stop offset="0.65065" stop-color="#030f0c"/><stop offset="0.81983" stop-color="#010403"/><stop offset="1"/></radialGradient><radialGradient id="radial-gradient-12" cx="2691.7353" cy="569.13566" r="2.3509" gradientTransform="translate(-497.32154 -51.5203) scale(1.19979 1.12067)" gradientUnits="userSpaceOnUse"><stop offset="0.1" stop-color="#65430f"/><stop offset="0.1269" stop-color="#5f3f0e"/><stop offset="0.29291" stop-color="#3d2809"/><stop offset="0.46237" stop-color="#221705"/><stop offset="0.6347" stop-color="#0f0a02"/><stop offset="0.81159" stop-color="#040201"/><stop offset="1"/></radialGradient><radialGradient id="radial-gradient-13" cx="2691.24128" cy="569.62945" r="19.08841" gradientTransform="translate(-497.32154 -51.5203) scale(1.19979 1.12067)" gradientUnits="userSpaceOnUse"><stop offset="0.1"/><stop offset="0.21377" stop-color="#1f150a"/><stop offset="0.36319" stop-color="#412b14"/><stop offset="0.51586" stop-color="#5c3d1c"/><stop offset="0.67104" stop-color="#6f4922"/><stop offset="0.83032" stop-color="#7a5126"/><stop offset="1" stop-color="#7e5327"/></radialGradient><radialGradient id="radial-gradient-14" cx="3014.85468" cy="246.01628" r="28.35957" xlink:href="#radial-gradient-10"/></defs><title>logo_pop_news_2</title><g class="cls-1"><g id="Fond"><rect class="cls-2" y="38.21293" width="5625" height="1000.17781"/><g class="cls-3"><polygon class="cls-4" points="2569.555 38.213 2179.405 38.213 2812.5 538.302 2569.555 38.213"/><polygon class="cls-4" points="3442.456 38.213 3052.667 38.213 2812.5 538.302 3442.456 38.213"/><polygon class="cls-4" points="1529.717 38.213 791.989 38.213 2812.5 538.302 1529.717 38.213"/><polygon class="cls-4" points="4826.012 38.213 4090.838 38.213 2812.5 538.302 4826.012 38.213"/><polygon class="cls-4" points="5625 406.006 5625 193.554 2812.5 538.302 5625 406.006"/><polygon class="cls-4" points="3055.449 1038.391 3445.601 1038.391 2812.5 538.302 3055.449 1038.391"/><polygon class="cls-4" points="4095.289 1038.391 4833.018 1038.391 2812.5 538.302 4095.289 1038.391"/><polygon class="cls-4" points="2812.5 538.302 5625 881.338 5625 669.081 2812.5 538.302"/><polygon class="cls-4" points="0 195.261 0 407.522 2812.5 538.302 0 195.261"/><polygon class="cls-4" points="0 670.594 0 883.049 2812.5 538.302 0 670.594"/><polygon class="cls-4" points="798.976 1038.391 1534.156 1038.391 2812.5 538.302 798.976 1038.391"/><polygon class="cls-4" points="2182.541 1038.391 2572.333 1038.391 2812.5 538.302 2182.541 1038.391"/></g><g class="cls-5"><polygon class="cls-6" points="419.508 38.213 332.314 38.213 1711.78 328.433 419.508 38.213"/><polygon class="cls-6" points="99.888 38.213 43.029 38.213 660.605 163.387 99.888 38.213"/><polygon class="cls-6" points="1255.223 38.213 1168.029 38.213 2300.054 379.446 1255.223 38.213"/><polygon class="cls-6" points="935.602 38.213 878.743 38.213 1419.616 193.555 935.602 38.213"/><polygon class="cls-6" points="2026.651 38.213 1939.457 38.213 2595.363 366.784 2026.651 38.213"/><polygon class="cls-6" points="1707.031 38.213 1650.171 38.213 2068.603 208.83 1707.031 38.213"/><polygon class="cls-6" points="2478.459 38.213 2421.6 38.213 2595.363 223.407 2478.459 38.213"/><polygon class="cls-6" points="5176.023 38.213 5263.217 38.213 3883.755 328.433 5176.023 38.213"/><polygon class="cls-6" points="5495.644 38.213 5552.503 38.213 4934.927 163.387 5495.644 38.213"/><polygon class="cls-6" points="4340.309 38.213 4427.503 38.213 3295.478 379.446 4340.309 38.213"/><polygon class="cls-6" points="4659.93 38.213 4716.788 38.213 4175.916 193.555 4659.93 38.213"/><polygon class="cls-6" points="3568.881 38.213 3656.074 38.213 3000.171 366.784 3568.881 38.213"/><polygon class="cls-6" points="3888.501 38.213 3945.36 38.213 3526.932 208.83 3888.501 38.213"/><polygon class="cls-6" points="3117.072 38.213 3173.931 38.213 3000.171 223.407 3117.072 38.213"/><polygon class="cls-6" points="0 542.532 0 572.791 1022.049 553.046 0 542.532"/><polygon class="cls-6" points="0 447.583 0 464.123 543.98 476.818 0 447.583"/><polygon class="cls-6" points="0 354.987 0 366.985 559.339 397.454 0 354.987"/><polygon class="cls-6" points="0 234.966 0 246.964 878.743 365.928 0 234.966"/><polygon class="cls-6" points="0 124.946 0 136.944 530.991 208.83 0 124.946"/><polygon class="cls-6" points="0 354.987 0 366.985 559.339 397.454 0 354.987"/><polygon class="cls-6" points="0 234.966 0 246.964 878.743 365.928 0 234.966"/><polygon class="cls-6" points="0 124.946 0 136.944 530.991 208.83 0 124.946"/><polygon class="cls-6" points="0 654.581 0 636.498 620.263 621.212 0 654.581"/><polygon class="cls-6" points="0 744.773 0 732.775 559.339 702.306 0 744.773"/><polygon class="cls-6" points="0 864.794 0 852.796 878.743 733.832 0 864.794"/><polygon class="cls-6" points="0 974.814 0 962.816 530.991 890.93 0 974.814"/><polygon class="cls-6" points="2507.927 1038.391 2451.069 1038.391 2624.832 853.197 2507.927 1038.391"/><polygon class="cls-6" points="5625 538.302 5625 508.043 4602.951 527.788 5625 538.302"/><polygon class="cls-6" points="5625 629.677 5625 612.291 5053.171 598.946 5625 629.677"/><polygon class="cls-6" points="5625 721.617 5625 709.618 5065.664 679.149 5625 721.617"/><polygon class="cls-6" points="5625 841.638 5625 829.64 4746.257 710.675 5625 841.638"/><polygon class="cls-6" points="5625 951.658 5625 939.659 5094.009 867.774 5625 951.658"/><polygon class="cls-6" points="5625 721.617 5625 709.618 5065.664 679.149 5625 721.617"/><polygon class="cls-6" points="5625 841.638 5625 829.64 4746.257 710.675 5625 841.638"/><polygon class="cls-6" points="5625 951.658 5625 939.659 5094.009 867.774 5625 951.658"/><polygon class="cls-6" points="5625 424.46 5625 440.961 5058.991 454.91 5625 424.46"/><polygon class="cls-6" points="5625 331.831 5625 343.829 5065.664 374.298 5625 331.831"/><polygon class="cls-6" points="5625 211.809 5625 223.807 4746.257 342.772 5625 211.809"/><polygon class="cls-6" points="5625 101.79 5625 113.788 5094.009 185.674 5625 101.79"/><polygon class="cls-6" points="3917.969 1038.391 3974.828 1038.391 3556.4 867.774 3917.969 1038.391"/><polygon class="cls-6" points="3146.541 1038.391 3203.4 1038.391 3029.64 853.197 3146.541 1038.391"/><polygon class="cls-6" points="448.977 1038.391 361.783 1038.391 1741.248 748.171 448.977 1038.391"/><polygon class="cls-6" points="129.356 1038.391 72.497 1038.391 690.073 913.217 129.356 1038.391"/><polygon class="cls-6" points="1284.691 1038.391 1197.497 1038.391 2329.522 697.157 1284.691 1038.391"/><polygon class="cls-6" points="965.07 1038.391 908.212 1038.391 1449.084 883.049 965.07 1038.391"/><polygon class="cls-6" points="2056.119 1038.391 1968.926 1038.391 2624.832 709.82 2056.119 1038.391"/><polygon class="cls-6" points="1736.499 1038.391 1679.64 1038.391 2098.072 867.774 1736.499 1038.391"/><polygon class="cls-6" points="5205.492 1038.391 5292.686 1038.391 3913.223 748.171 5205.492 1038.391"/><polygon class="cls-6" points="5525.112 1038.391 5581.971 1038.391 4964.395 913.217 5525.112 1038.391"/><polygon class="cls-6" points="4369.777 1038.391 4456.971 1038.391 3324.946 697.157 4369.777 1038.391"/><polygon class="cls-6" points="4689.398 1038.391 4746.257 1038.391 4205.384 883.049 4689.398 1038.391"/><polygon class="cls-6" points="3598.349 1038.391 3685.543 1038.391 3029.64 709.82 3598.349 1038.391"/></g><rect class="cls-7" y="38.21293" width="5625" height="1000.17781"/><ellipse class="cls-8" cx="2726.51606" cy="591.59914" rx="268.92449" ry="251.18945"/><ellipse class="cls-9" cx="3007.75129" cy="328.91089" rx="8.96415" ry="8.37298"/><ellipse class="cls-10" cx="3122.67924" cy="221.56209" rx="8.96415" ry="8.37298"/><ellipse class="cls-11" cx="3106.83258" cy="236.36356" rx="67.23112" ry="62.79736"/><line class="cls-12" x1="2805.74862" y1="517.59172" x2="2995.32474"/><ellipse class="cls-13" cx="2805.74862" cy="517.59172" rx="179.28299" ry="167.45964"/><ellipse class="cls-14" cx="2805.74862" cy="517.59172" rx="89.6415" ry="83.72982"/><ellipse class="cls-15" cx="2805.74862" cy="517.59172" rx="74.70125" ry="69.77485"/><polyline class="cls-16" points="2805.749 517.592 3052.772 630.607 2805.749 517.592 2558.726 404.577 2805.749 517.592 2684.754 748.324 2805.749 517.592 2926.743 286.86 2805.749 517.592 3243.639 548.67 2805.749 517.592 2367.859 486.513 2805.749 517.592 2772.476 926.604 2805.749 517.592 2839.021 108.58 2805.749 517.592 2908.497 650.876 2805.749 517.592 2703 384.307 2805.749 517.592 2663.054 613.565 2805.749 517.592 2948.444 421.619 2805.749 517.592 3005.464 572.049 2805.749 517.592 2606.033 463.134 2805.749 517.592 2747.446 704.137 2805.749 517.592 2864.051 331.047 2805.749 517.592 3036.795 547.546 2805.749 517.592 2574.702 487.637 2805.749 517.592 2773.679 733.401 2805.749 517.592 2837.818 301.782 2805.749 517.592 2998.754 719.268 2805.749 517.592 2612.744 315.916 2805.749 517.592 2589.833 697.868 2805.749 517.592 3021.664 337.315 2805.749 517.592 2937.925 588.671 2805.749 517.592 2673.573 446.512 2805.749 517.592 2729.651 641.051 2805.749 517.592 2881.847 394.133 2805.749 517.592 2878.953 643.47 2805.749 517.592 2732.545 391.713 2805.749 517.592 2670.983 585.968 2805.749 517.592 2940.515 449.216 2805.749 517.592 2935.75 605.301 2805.749 517.592 2675.747 429.882 2805.749 517.592 2711.846 639.02 2805.749 517.592 2899.651 396.164 2805.749 517.592 2928.178 604.629 2805.749 517.592 2683.319 430.555 2805.749 517.592 2712.566 631.948 2805.749 517.592 2898.931 403.236 2805.749 517.592 2916.697 583.916 2805.749 517.592 2694.8 451.267 2805.749 517.592 2734.741 621.223 2805.749 517.592 2876.756 413.96 2805.749 517.592 2893.474 528.981 2805.749 517.592 2718.023 506.202 2805.749 517.592 2793.555 599.532 2805.749 517.592 2817.942 435.651 2805.749 517.592 2812.819 589.323 2805.749 517.592 2798.679 445.861 2805.749 517.592 2728.953 524.195 2805.749 517.592 2882.544 510.988 2805.749 517.592 2880.538 610.851 2805.749 517.592 2730.959 424.332 2805.749 517.592 2705.905 587.449 2805.749 517.592 2905.593 447.734 2805.749 517.592 2819.654 552.156 2805.749 517.592 2791.844 483.027 2805.749 517.592 2768.744 530.58 2805.749 517.592 2842.753 504.604"/><ellipse class="cls-17" cx="3122.67924" cy="221.56209" rx="134.46224" ry="125.59473"/><ellipse class="cls-18" cx="2914.52027" cy="415.9933" rx="28.41857" ry="26.54455"/><ellipse class="cls-19" cx="3074.19711" cy="266.84696" rx="14.56492" ry="13.60448"/><ellipse class="cls-20" cx="2732.19853" cy="586.29141" rx="2.82063" ry="2.63453"/><ellipse class="cls-21" cx="2731.60581" cy="586.84479" rx="22.90206" ry="21.3918"/><ellipse class="cls-22" cx="3119.87429" cy="224.1821" rx="34.02554" ry="31.78167"/></g><g id="Texte"><path class="cls-23" d="M1064.30078,223.72949l274.21875-15.60693,1.80029,61.22607q-32.40234,13.81567-75.00537,21.60938-10.80029,1.801-130.80908,15.00635l9.00049,105.04541,101.40723-1.20069,1.20019,95.44092-115.8081-3.001,6.00048,139.86036,150.61036-7.20313,5.40039,63.62695-230.416,3.001Z" transform="translate(0 38.30183)"/><path class="cls-23" d="M1406.91943,230.332q103.19751,0,174.01172,54.02344,77.40528,58.83471,77.40576,159.06836,0,79.23339-13.80127,131.456-16.80542,64.2378-57.604,98.44239-45.60791,38.42138-124.2085,38.417-16.80615,0-30.90234-1.20117a166.61107,166.61107,0,0,1-27.90185-4.80176Zm69.6045,417.17969q61.79516-16.207,88.80615-60.62695,23.99268-39.01173,24.002-106.84522,0-55.21949-17.40137-99.64307-23.40161-60.01611-68.40478-60.02587a173.8699,173.8699,0,0,0-47.40332,6.603Z" transform="translate(0 38.30183)"/><path class="cls-23" d="M1802.34277,444.624q0,59.42579,6.00049,126.05469,4.19092,48.0293,15.001,126.05371l-85.80615,1.80078q0-31.20409,2.40039-76.23242,5.40013-102.03956,5.40039-127.25488,0-48.01611-2.1001-86.73731-2.11011-38.71654-7.501-98.14209-3.00951-30.00805-9.60058-91.83935l87.60644-6.603q-6.00513,68.42945-8.70068,119.75147Q1802.34254,382.79785,1802.34277,444.624Z" transform="translate(0 38.30183)"/><path class="cls-23" d="M2003.34814,317.36963l-84.00585-1.20068-11.40088-93.64014,424.22949-7.80322-7.80029,48.0205L2075.353,290.958,2099.355,690.72949H1990.14746Z" transform="translate(0 38.30183)"/><path class="cls-23" d="M2464.17773,444.624q0,59.42579,6.00049,126.05469,4.19093,48.0293,15.001,126.05371l-85.80615,1.80078q0-31.20409,2.40039-76.23242,5.40015-102.03956,5.40039-127.25488,0-48.01611-2.1001-86.73731-2.11011-38.71654-7.501-98.14209-3.00951-30.00805-9.60058-91.83935l87.60644-6.603q-6.00511,68.42945-8.70068,119.75147Q2464.1775,382.79785,2464.17773,444.624Z" transform="translate(0 38.30183)"/><path class="cls-23" d="M2914.2002,461.43115q0,71.43971-40.80274,147.66358-47.4082,88.84277-112.208,88.83789-74.40966,0-135.60937-82.23535-56.40894-76.22315-56.4043-153.66553,0-90.62988,43.20313-158.46826,49.79883-78.02418,135.00927-78.03321,72.59619,0,123.0083,84.63623Q2914.19092,383.40723,2914.2002,461.43115ZM2682.584,469.23486q0,39.02563,21.60157,110.44776,25.20117,82.83544,50.40332,82.835,18.59179,0,37.20263-80.43457,15.59619-67.82373,15.60108-100.24268,0-39.01245-19.80127-120.05176-23.40162-94.83618-45.60352-94.84082-22.20557,0-42.60254,89.43848Q2682.5791,430.218,2682.584,469.23486Z" transform="translate(0 38.30183)"/><path class="cls-23" d="M3062.40625,728.5459l-.59961,18.00781-71.40527,7.20313q0-41.417,6.001-175.27539,2.9956-66.62842,3-106.24561,0-31.20409-6.001-135.05811-3.00879-51.61743-3-82.23486l58.80468-4.80224q34.20264,24.61962,67.80469,61.22607,27.00147,28.81275,58.2041,70.83057,27.00147,37.22533,54.00391,74.43212,5.39942-36.60643,8.40039-73.53173,2.99561-36.91554,3-74.13184a429.77366,429.77366,0,0,0-2.10059-45.31934q-2.10937-19.49926-7.5-51.92236,27.59181,0,59.4043,12.00537,0,34.81934-1.80078,81.63477-4.20409,109.2561-4.20019,136.85888,0,45.019,4.20019,91.23877,4.19093,46.23048,21.60156,170.47364l-88.206-5.40235q-40.812-78.02343-81.00586-156.06738-49.812-91.23412-94.80664-146.4624,0,46.229,3.90039,107.146,3.89649,60.93018,8.10058,121.252Q3062.397,684.72656,3062.40625,728.5459Z" transform="translate(0 38.30183)"/><path class="cls-23" d="M3820.85742,386.39893l14.40039-64.22754,87.00586,3.60156A204.29543,204.29543,0,0,0,3930.665,297.561a129.81829,129.81829,0,0,0,3-27.61182l-1.80078-37.21631,65.40527-5.40234A516.90921,516.90921,0,0,0,3964.2666,325.773l56.4043-1.80078a275.123,275.123,0,0,0,14.70117-45.019,366.0752,366.0752,0,0,0,7.5-49.82178l75.00586,3.60156a239.06052,239.06052,0,0,0-28.20215,45.01953,198.445,198.445,0,0,0-15.60156,48.02051h73.80566l-46.20312,55.22363h-56.4043l-11.40039,62.42725,67.80469-4.80225-1.80078,55.82373-80.40528,3.00147q-3.60058,16.81128-4.5,24.01025a175.59665,175.59665,0,0,0-.90039,20.40918,280.58054,280.58054,0,0,0,2.7002,40.2168,405.265,405.265,0,0,0,8.70117,42.01855l-77.40625-15.60742,20.40137-114.04883-53.40332,3.00147v92.43994l-76.80567,10.2041a244.9198,244.9198,0,0,0,21.60157-50.42187,301.82077,301.82077,0,0,0,10.20117-54.02295h-75.60547l12.60058-52.22217h75.60547l12.001-60.62647Zm108.00684,60.62646,58.80469-3.60156,12.60058-70.23047h-61.2041Z" transform="translate(0 38.30183)"/><path class="cls-23" d="M4381.89453,688.3291q-43.20264,0-81.00586,2.70117-37.80176,2.70117-90.00586,8.10352,9.59179-38.4082,19.80176-77.43359,17.39649-66.02345,25.80176-79.834,6.59472-10.1997,79.20508-66.02881a192.59914,192.59914,0,0,0,52.2041-60.02588q25.20117-46.82007,28.20117-54.02295,7.20117-18.59838,7.20117-34.81494,0-24.60572-15.001-50.42187-17.41115-30.00806-39.00293-30.0127-24.61085,0-32.40235,61.22608-3.01025,23.4104-3,79.83447l-94.207-22.20947q0-60.01684,44.10352-102.94434,44.102-42.90894,105.90722-42.91846,50.40381,0,76.80567,52.82276,20.39208,40.82666,20.40136,96.6416,0,58.22973-28.20214,106.8457-30.60206,52.82739-82.80567,72.63135l-12.001,3.60156q-25.80615,0-42.30273,14.10645-16.51026,14.11083-16.501,40.5166a93.81383,93.81383,0,0,0,3,22.81055q52.79444,0,94.50586-7.20313,41.69824-7.2041,84.90625-25.21094l14.40137,98.44239q-58.20849-5.40236-60.00488-5.40235Q4414.292,688.32813,4381.89453,688.3291Z" transform="translate(0 38.30183)"/></g><g id="icons"><g id="door1"><path class="cls-24" d="M4884.86939,234.95611h364.836V811.0328H4884.86937Z" transform="translate(0 38.30183)"/><path class="cls-25" d="M4826.00255,176.08191v647.837h58.86684V234.95611h333.62538V823.91889h58.8742v-647.837Z" transform="translate(0 38.30183)"/><path class="cls-25" d="M4985.44861,862.1209l338.52665-38.202v-647.837l-338.52665-38.202Z" transform="translate(0 38.30183)"/><circle class="cls-26" cx="5053.83099" cy="538.30223" r="25.44837"/><path class="cls-27" d="M4985.412,874.99968,4972.412,811h-75" transform="translate(0 38.30183)"/><path d="M5437.1094,811.04015H5336.854V176.08191a12.87134,12.87134,0,0,0-11.43632-12.79043l-140.40021-15.85187a12.87881,12.87881,0,0,0-2.88483,25.59556h0l128.964,14.55665V812.3943l-312.76919,35.32455V152.26735l65.39453,7.35927a12.8788,12.8788,0,0,0,2.88483-25.59555l-79.71568-8.94888A12.87865,12.87865,0,0,0,4972.56993,137.88v25.32326H4826.0026a12.87874,12.87874,0,0,0-12.87873,12.87873V582.7923a12.87874,12.87874,0,0,0,25.75747,0V188.96069h133.68859V862.121a12.87872,12.87872,0,0,0,12.87873,12.87873,11.85021,11.85021,0,0,0,1.47186-.081l337.79077-38.121h112.42029a12.87873,12.87873,0,0,0,0-25.75746Z" transform="translate(0 38.30183)"/><path d="M4931.483,811.04015h-33.73492V247.83484h30.05528a12.87873,12.87873,0,1,0,0-25.75746h-42.934a12.87873,12.87873,0,0,0-12.87873,12.87873v576.084h-33.11674V672.94336a12.87873,12.87873,0,0,0-25.75746,0V811.04015h-100.248a12.87874,12.87874,0,0,0,0,25.75747H4931.483a12.87873,12.87873,0,0,0,0-25.75747Z" transform="translate(0 38.30183)"/><path d="M4826.00255,640.43744a12.87873,12.87873,0,0,0,12.87873-12.87873V624.799a12.87873,12.87873,0,1,0-25.75746,0v2.75973A12.87873,12.87873,0,0,0,4826.00255,640.43744Z" transform="translate(0 38.30183)"/><path d="M5117.51815,165.74212l8.48524.9567a12.09818,12.09818,0,0,0,1.47184.0883,12.87873,12.87873,0,0,0,1.4277-25.67651l-8.47789-.95671a12.87873,12.87873,0,1,0-3.45966,25.52406q.283.03835.56748.06415Z" transform="translate(0 38.30183)"/><path d="M5015.50388,500.0004a38.32711,38.32711,0,1,0,38.32711-38.32711h0A38.37128,38.37128,0,0,0,5015.50388,500.0004Zm50.89675,0a12.56965,12.56965,0,1,1-12.56964-12.56965A12.56963,12.56963,0,0,1,5066.40063,500.0004Z" transform="translate(0 38.30183)"/></g><g id="door2"><rect class="cls-28" x="332.6087" y="163.30183" width="434.78261" height="750" rx="12"/><circle class="cls-26" cx="414.13171" cy="538.30183" r="28.20724"/><path d="M371.64956,500a42.48215,42.48215,0,1,0,42.48215-42.48215h0A42.53111,42.53111,0,0,0,371.64956,500Zm56.41447,0a13.93232,13.93232,0,1,1-13.93232-13.93232A13.9323,13.9323,0,0,1,428.064,500Z" transform="translate(0 38.30183)"/></g></g><g id="Ancrage"><rect class="cls-12" x="5624" y="1037.30183" width="1" height="1"/><rect class="cls-12" x="5624" y="38.30183" width="1" height="1"/><rect class="cls-12" y="1037.30183" width="1" height="1"/><rect class="cls-12" y="38.30183" width="1" height="1"/></g></g></svg>