<svg xmlns="http://www.w3.org/2000/svg" xmlns:xlink="http://www.w3.org/1999/xlink" viewBox="0 0 5625 1000.17781"><defs><style>.cls-1{isolation:isolate;}.cls-2{fill:#7ae820;}.cls-3{opacity:0.3;}.cls-4{fill:#59a818;}.cls-5{mix-blend-mode:multiply;}.cls-6{fill:#37690f;}.cls-7{mix-blend-mode:soft-light;fill:url(#radial-gradient);}.cls-8{opacity:0.25;fill:url(#radial-gradient-2);}.cls-10,.cls-11,.cls-13,.cls-14,.cls-15,.cls-16,.cls-17,.cls-18,.cls-19,.cls-20,.cls-21,.cls-22,.cls-8,.cls-9{mix-blend-mode:screen;}.cls-9{fill:url(#radial-gradient-3);}.cls-10{fill:url(#radial-gradient-4);}.cls-11{opacity:0.2;fill:url(#radial-gradient-5);}.cls-12,.cls-16{fill:none;}.cls-13{opacity:0.15;fill:url(#radial-gradient-6);}.cls-14,.cls-17{opacity:0.5;}.cls-14{fill:url(#radial-gradient-7);}.cls-15{fill:url(#radial-gradient-8);}.cls-16{stroke:#fff;stroke-width:2px;opacity:0.03;}.cls-16,.cls-23{stroke-miterlimit:10;}.cls-17{fill:url(#radial-gradient-9);}.cls-18{fill:url(#radial-gradient-10);}.cls-19{fill:url(#radial-gradient-11);}.cls-20{fill:url(#radial-gradient-12);}.cls-21{fill:url(#radial-gradient-13);}.cls-22{fill:url(#radial-gradient-14);}.cls-23{stroke:#000;stroke-width:10px;}</style><radialGradient id="radial-gradient" cx="875.84442" cy="500" r="712.73635" gradientTransform="translate(-2.21371 0.0889) scale(3.21371 1)" gradientUnits="userSpaceOnUse"><stop offset="0.00403" stop-color="#fff"/><stop offset="1" stop-color="#231f20"/></radialGradient><radialGradient id="radial-gradient-2" cx="2686.99908" cy="640.79629" r="224.14276" gradientTransform="translate(-497.32154 -89.73322) scale(1.19979 1.12067)" gradientUnits="userSpaceOnUse"><stop offset="0.1"/><stop offset="0.11244" stop-color="#080602"/><stop offset="0.16172" stop-color="#231b08"/><stop offset="0.21838" stop-color="#392c0d"/><stop offset="0.28458" stop-color="#4a3910"/><stop offset="0.36644" stop-color="#554213"/><stop offset="0.48125" stop-color="#5c4815"/><stop offset="0.8" stop-color="#5e4915"/><stop offset="1"/></radialGradient><radialGradient id="radial-gradient-3" cx="2921.40258" cy="406.39287" r="7.47143" gradientTransform="translate(-497.32154 -89.73322) scale(1.19979 1.12067)" gradientUnits="userSpaceOnUse"><stop offset="0" stop-color="#d4e194"/><stop offset="0.05952" stop-color="#afba7a"/><stop offset="0.13651" stop-color="#868f5e"/><stop offset="0.21955" stop-color="#626845"/><stop offset="0.30759" stop-color="#44482f"/><stop offset="0.40211" stop-color="#2b2e1e"/><stop offset="0.50556" stop-color="#181911"/><stop offset="0.62249" stop-color="#0a0b07"/><stop offset="0.76429" stop-color="#020302"/><stop offset="1"/></radialGradient><radialGradient id="radial-gradient-4" cx="3017.19254" cy="310.60279" r="7.47143" xlink:href="#radial-gradient-3"/><radialGradient id="radial-gradient-5" cx="3003.98469" cy="323.81053" r="56.03569" gradientTransform="translate(-497.32154 -89.73322) scale(1.19979 1.12067)" gradientUnits="userSpaceOnUse"><stop offset="0.05"/><stop offset="0.09242" stop-color="#040a03"/><stop offset="0.29802" stop-color="#183411"/><stop offset="0.48337" stop-color="#25531c"/><stop offset="0.64031" stop-color="#2e6622"/><stop offset="0.75" stop-color="#316d24"/><stop offset="0.78593" stop-color="#4f6e16"/><stop offset="0.83397" stop-color="#716f06"/><stop offset="0.86" stop-color="#7e6f00"/><stop offset="0.88764" stop-color="#7a6c00"/><stop offset="0.91229" stop-color="#706200"/><stop offset="0.93581" stop-color="#5d5200"/><stop offset="0.95863" stop-color="#443c00"/><stop offset="0.98074" stop-color="#231f00"/><stop offset="1"/></radialGradient><radialGradient id="radial-gradient-6" cx="2753.03771" cy="574.75758" r="149.42851" gradientTransform="translate(-497.32154 -89.73322) scale(1.19979 1.12067)" gradientUnits="userSpaceOnUse"><stop offset="0" stop-color="#200"/><stop offset="0.73" stop-color="#984023"/><stop offset="1" stop-color="#200"/></radialGradient><radialGradient id="radial-gradient-7" cx="2753.03771" cy="574.75758" r="74.71425" gradientTransform="translate(-497.32154 -89.73322) scale(1.19979 1.12067)" gradientUnits="userSpaceOnUse"><stop offset="0.15" stop-color="#fff"/><stop offset="0.20939" stop-color="#e5d3d3"/><stop offset="0.29044" stop-color="#c49c9e"/><stop offset="0.36051" stop-color="#ad7477"/><stop offset="0.41599" stop-color="#9e5c5f"/><stop offset="0.45" stop-color="#995356"/><stop offset="0.57175" stop-color="#6b3335"/><stop offset="0.69355" stop-color="#431718"/><stop offset="0.79053" stop-color="#2b0606"/><stop offset="0.85" stop-color="#200"/><stop offset="0.85727" stop-color="#260201"/><stop offset="0.8648" stop-color="#330704"/><stop offset="0.87246" stop-color="#471009"/><stop offset="0.8802" stop-color="#641d0f"/><stop offset="0.88801" stop-color="#8a2e18"/><stop offset="0.89577" stop-color="#b74223"/><stop offset="0.9" stop-color="#d34e29"/><stop offset="0.90254" stop-color="#c84927"/><stop offset="0.91417" stop-color="#9c361c"/><stop offset="0.92635" stop-color="#772514"/><stop offset="0.93893" stop-color="#58180c"/><stop offset="0.95205" stop-color="#400d07"/><stop offset="0.96594" stop-color="#2f0603"/><stop offset="0.98111" stop-color="#250101"/><stop offset="1" stop-color="#200"/></radialGradient><radialGradient id="radial-gradient-8" cx="2753.03771" cy="574.75758" r="62.26188" gradientTransform="translate(-497.32154 -89.73322) scale(1.19979 1.12067)" gradientUnits="userSpaceOnUse"><stop offset="0.15" stop-color="#fff"/><stop offset="0.28237" stop-color="#c2c2c2"/><stop offset="0.42528" stop-color="#888"/><stop offset="0.5636" stop-color="#575757"/><stop offset="0.69361" stop-color="#313131"/><stop offset="0.81336" stop-color="#161616"/><stop offset="0.91921" stop-color="#060606"/><stop offset="1"/></radialGradient><radialGradient id="radial-gradient-9" cx="3017.19254" cy="310.60279" r="112.07138" gradientTransform="translate(-497.32154 -89.73322) scale(1.19979 1.12067)" gradientUnits="userSpaceOnUse"><stop offset="0.64"/><stop offset="0.71799" stop-color="#000200"/><stop offset="0.74608" stop-color="#020902"/><stop offset="0.76609" stop-color="#051405"/><stop offset="0.78228" stop-color="#082509"/><stop offset="0.79598" stop-color="#0d3b0e"/><stop offset="0.8" stop-color="#0f4310"/><stop offset="0.8131" stop-color="#1e2c0a"/><stop offset="0.82975" stop-color="#2d1605"/><stop offset="0.84569" stop-color="#360901"/><stop offset="0.86" stop-color="#390400"/><stop offset="0.8715" stop-color="#250300"/><stop offset="0.88602" stop-color="#140100"/><stop offset="0.90412" stop-color="#090100"/><stop offset="0.92951" stop-color="#020000"/><stop offset="1"/></radialGradient><radialGradient id="radial-gradient-10" cx="2843.69654" cy="484.09872" r="23.68632" gradientTransform="translate(-497.32154 -89.73322) scale(1.19979 1.12067)" gradientUnits="userSpaceOnUse"><stop offset="0.1"/><stop offset="0.12317" stop-color="#0b0809"/><stop offset="0.24121" stop-color="#3c2b32"/><stop offset="0.3623" stop-color="#664956"/><stop offset="0.48446" stop-color="#886273"/><stop offset="0.60809" stop-color="#a37589"/><stop offset="0.73376" stop-color="#b68399"/><stop offset="0.86272" stop-color="#c18ba3"/><stop offset="1" stop-color="#c58ea6"/></radialGradient><radialGradient id="radial-gradient-11" cx="2976.78373" cy="351.01164" r="12.13958" gradientTransform="translate(-497.32154 -89.73322) scale(1.19979 1.12067)" gradientUnits="userSpaceOnUse"><stop offset="0.1" stop-color="#176f55"/><stop offset="0.16505" stop-color="#145f49"/><stop offset="0.32376" stop-color="#0d3d2f"/><stop offset="0.48587" stop-color="#07221a"/><stop offset="0.65065" stop-color="#030f0c"/><stop offset="0.81983" stop-color="#010403"/><stop offset="1"/></radialGradient><radialGradient id="radial-gradient-12" cx="2691.7353" cy="636.06007" r="2.3509" gradientTransform="translate(-497.32154 -89.73322) scale(1.19979 1.12067)" gradientUnits="userSpaceOnUse"><stop offset="0.1" stop-color="#65430f"/><stop offset="0.1269" stop-color="#5f3f0e"/><stop offset="0.29291" stop-color="#3d2809"/><stop offset="0.46237" stop-color="#221705"/><stop offset="0.6347" stop-color="#0f0a02"/><stop offset="0.81159" stop-color="#040201"/><stop offset="1"/></radialGradient><radialGradient id="radial-gradient-13" cx="2691.24128" cy="636.55387" r="19.08841" gradientTransform="translate(-497.32154 -89.73322) scale(1.19979 1.12067)" gradientUnits="userSpaceOnUse"><stop offset="0.1"/><stop offset="0.21377" stop-color="#1f150a"/><stop offset="0.36319" stop-color="#412b14"/><stop offset="0.51586" stop-color="#5c3d1c"/><stop offset="0.67104" stop-color="#6f4922"/><stop offset="0.83032" stop-color="#7a5126"/><stop offset="1" stop-color="#7e5327"/></radialGradient><radialGradient id="radial-gradient-14" cx="3014.85468" cy="312.94069" r="28.35957" xlink:href="#radial-gradient-10"/></defs><title>logo_pop_news_2</title><g class="cls-1"><g id="Fond"><rect class="cls-2" width="5625" height="1000.17781"/><g class="cls-3"><polygon class="cls-4" points="2569.555 0 2179.405 0 2812.5 500.089 2569.555 0"/><polygon class="cls-4" points="3442.456 0 3052.667 0 2812.5 500.089 3442.456 0"/><polygon class="cls-4" points="1529.717 0 791.989 0 2812.5 500.089 1529.717 0"/><polygon class="cls-4" points="4826.012 0 4090.838 0 2812.5 500.089 4826.012 0"/><polygon class="cls-4" points="5625 367.793 5625 155.341 2812.5 500.089 5625 367.793"/><polygon class="cls-4" points="3055.449 1000.178 3445.601 1000.178 2812.5 500.089 3055.449 1000.178"/><polygon class="cls-4" points="4095.289 1000.178 4833.018 1000.178 2812.5 500.089 4095.289 1000.178"/><polygon class="cls-4" points="2812.5 500.089 5625 843.125 5625 630.868 2812.5 500.089"/><polygon class="cls-4" points="0 157.048 0 369.309 2812.5 500.089 0 157.048"/><polygon class="cls-4" points="0 632.381 0 844.836 2812.5 500.089 0 632.381"/><polygon class="cls-4" points="798.976 1000.178 1534.156 1000.178 2812.5 500.089 798.976 1000.178"/><polygon class="cls-4" points="2182.541 1000.178 2572.333 1000.178 2812.5 500.089 2182.541 1000.178"/></g><g class="cls-5"><polygon class="cls-6" points="419.508 0 332.314 0 1711.78 290.22 419.508 0"/><polygon class="cls-6" points="99.888 0 43.029 0 660.605 125.174 99.888 0"/><polygon class="cls-6" points="1255.223 0 1168.029 0 2300.054 341.234 1255.223 0"/><polygon class="cls-6" points="935.602 0 878.743 0 1419.616 155.342 935.602 0"/><polygon class="cls-6" points="2026.651 0 1939.457 0 2595.363 328.571 2026.651 0"/><polygon class="cls-6" points="1707.031 0 1650.171 0 2068.603 170.617 1707.031 0"/><polygon class="cls-6" points="2478.459 0 2421.6 0 2595.363 185.194 2478.459 0"/><polygon class="cls-6" points="5176.023 0 5263.217 0 3883.755 290.22 5176.023 0"/><polygon class="cls-6" points="5495.644 0 5552.503 0 4934.927 125.174 5495.644 0"/><polygon class="cls-6" points="4340.309 0 4427.503 0 3295.478 341.234 4340.309 0"/><polygon class="cls-6" points="4659.93 0 4716.788 0 4175.916 155.342 4659.93 0"/><polygon class="cls-6" points="3568.881 0 3656.074 0 3000.171 328.571 3568.881 0"/><polygon class="cls-6" points="3888.501 0 3945.36 0 3526.932 170.617 3888.501 0"/><polygon class="cls-6" points="3117.072 0 3173.931 0 3000.171 185.194 3117.072 0"/><polygon class="cls-6" points="0 504.319 0 534.578 1022.049 514.833 0 504.319"/><polygon class="cls-6" points="0 409.37 0 425.91 543.98 438.605 0 409.37"/><polygon class="cls-6" points="0 316.774 0 328.772 559.339 359.242 0 316.774"/><polygon class="cls-6" points="0 196.753 0 208.751 878.743 327.715 0 196.753"/><polygon class="cls-6" points="0 86.733 0 98.731 530.991 170.617 0 86.733"/><polygon class="cls-6" points="0 316.774 0 328.772 559.339 359.242 0 316.774"/><polygon class="cls-6" points="0 196.753 0 208.751 878.743 327.715 0 196.753"/><polygon class="cls-6" points="0 86.733 0 98.731 530.991 170.617 0 86.733"/><polygon class="cls-6" points="0 616.368 0 598.285 620.263 582.999 0 616.368"/><polygon class="cls-6" points="0 706.56 0 694.562 559.339 664.093 0 706.56"/><polygon class="cls-6" points="0 826.582 0 814.583 878.743 695.619 0 826.582"/><polygon class="cls-6" points="0 936.601 0 924.603 530.991 852.717 0 936.601"/><polygon class="cls-6" points="2507.927 1000.178 2451.069 1000.178 2624.832 814.984 2507.927 1000.178"/><polygon class="cls-6" points="5625 500.089 5625 469.83 4602.951 489.575 5625 500.089"/><polygon class="cls-6" points="5625 591.465 5625 574.078 5053.171 560.733 5625 591.465"/><polygon class="cls-6" points="5625 683.404 5625 671.405 5065.664 640.936 5625 683.404"/><polygon class="cls-6" points="5625 803.425 5625 791.427 4746.257 672.462 5625 803.425"/><polygon class="cls-6" points="5625 913.445 5625 901.446 5094.009 829.561 5625 913.445"/><polygon class="cls-6" points="5625 683.404 5625 671.405 5065.664 640.936 5625 683.404"/><polygon class="cls-6" points="5625 803.425 5625 791.427 4746.257 672.462 5625 803.425"/><polygon class="cls-6" points="5625 913.445 5625 901.446 5094.009 829.561 5625 913.445"/><polygon class="cls-6" points="5625 386.247 5625 402.748 5058.991 416.697 5625 386.247"/><polygon class="cls-6" points="5625 293.618 5625 305.616 5065.664 336.085 5625 293.618"/><polygon class="cls-6" points="5625 173.596 5625 185.594 4746.257 304.559 5625 173.596"/><polygon class="cls-6" points="5625 63.577 5625 75.575 5094.009 147.461 5625 63.577"/><polygon class="cls-6" points="3917.969 1000.178 3974.828 1000.178 3556.4 829.561 3917.969 1000.178"/><polygon class="cls-6" points="3146.541 1000.178 3203.4 1000.178 3029.64 814.984 3146.541 1000.178"/><polygon class="cls-6" points="448.977 1000.178 361.783 1000.178 1741.248 709.958 448.977 1000.178"/><polygon class="cls-6" points="129.356 1000.178 72.497 1000.178 690.073 875.004 129.356 1000.178"/><polygon class="cls-6" points="1284.691 1000.178 1197.497 1000.178 2329.522 658.944 1284.691 1000.178"/><polygon class="cls-6" points="965.07 1000.178 908.212 1000.178 1449.084 844.836 965.07 1000.178"/><polygon class="cls-6" points="2056.119 1000.178 1968.926 1000.178 2624.832 671.607 2056.119 1000.178"/><polygon class="cls-6" points="1736.499 1000.178 1679.64 1000.178 2098.072 829.561 1736.499 1000.178"/><polygon class="cls-6" points="5205.492 1000.178 5292.686 1000.178 3913.223 709.958 5205.492 1000.178"/><polygon class="cls-6" points="5525.112 1000.178 5581.971 1000.178 4964.395 875.004 5525.112 1000.178"/><polygon class="cls-6" points="4369.777 1000.178 4456.971 1000.178 3324.946 658.944 4369.777 1000.178"/><polygon class="cls-6" points="4689.398 1000.178 4746.257 1000.178 4205.384 844.836 4689.398 1000.178"/><polygon class="cls-6" points="3598.349 1000.178 3685.543 1000.178 3029.64 671.607 3598.349 1000.178"/></g><rect class="cls-7" width="5625" height="1000.17781"/><ellipse class="cls-8" cx="2726.51606" cy="628.38621" rx="268.92449" ry="251.18945"/><ellipse class="cls-9" cx="3007.75129" cy="365.69796" rx="8.96415" ry="8.37298"/><ellipse class="cls-10" cx="3122.67924" cy="258.34916" rx="8.96415" ry="8.37298"/><ellipse class="cls-11" cx="3106.83258" cy="273.15063" rx="67.23112" ry="62.79736"/><line class="cls-12" x1="2805.74862" y1="554.37879" x2="2995.32474" y2="36.78707"/><ellipse class="cls-13" cx="2805.74862" cy="554.37879" rx="179.28299" ry="167.45964"/><ellipse class="cls-14" cx="2805.74862" cy="554.37879" rx="89.6415" ry="83.72982"/><ellipse class="cls-15" cx="2805.74862" cy="554.37879" rx="74.70125" ry="69.77485"/><polyline class="cls-16" points="2805.749 554.379 3052.772 667.394 2805.749 554.379 2558.726 441.364 2805.749 554.379 2684.754 785.111 2805.749 554.379 2926.743 323.647 2805.749 554.379 3243.639 585.457 2805.749 554.379 2367.859 523.3 2805.749 554.379 2772.476 963.391 2805.749 554.379 2839.021 145.367 2805.749 554.379 2908.497 687.663 2805.749 554.379 2703 421.094 2805.749 554.379 2663.054 650.352 2805.749 554.379 2948.444 458.406 2805.749 554.379 3005.464 608.836 2805.749 554.379 2606.033 499.921 2805.749 554.379 2747.446 740.924 2805.749 554.379 2864.051 367.834 2805.749 554.379 3036.795 584.333 2805.749 554.379 2574.702 524.424 2805.749 554.379 2773.679 770.188 2805.749 554.379 2837.818 338.569 2805.749 554.379 2998.754 756.055 2805.749 554.379 2612.744 352.703 2805.749 554.379 2589.833 734.655 2805.749 554.379 3021.664 374.102 2805.749 554.379 2937.925 625.458 2805.749 554.379 2673.573 483.299 2805.749 554.379 2729.651 677.838 2805.749 554.379 2881.847 430.92 2805.749 554.379 2878.953 680.257 2805.749 554.379 2732.545 428.5 2805.749 554.379 2670.983 622.755 2805.749 554.379 2940.515 486.003 2805.749 554.379 2935.75 642.088 2805.749 554.379 2675.747 466.669 2805.749 554.379 2711.846 675.807 2805.749 554.379 2899.651 432.951 2805.749 554.379 2928.178 641.416 2805.749 554.379 2683.319 467.342 2805.749 554.379 2712.566 668.735 2805.749 554.379 2898.931 440.023 2805.749 554.379 2916.697 620.703 2805.749 554.379 2694.8 488.054 2805.749 554.379 2734.741 658.01 2805.749 554.379 2876.756 450.747 2805.749 554.379 2893.474 565.768 2805.749 554.379 2718.023 542.989 2805.749 554.379 2793.555 636.319 2805.749 554.379 2817.942 472.438 2805.749 554.379 2812.819 626.11 2805.749 554.379 2798.679 482.648 2805.749 554.379 2728.953 560.982 2805.749 554.379 2882.544 547.775 2805.749 554.379 2880.538 647.638 2805.749 554.379 2730.959 461.119 2805.749 554.379 2705.905 624.236 2805.749 554.379 2905.593 484.521 2805.749 554.379 2819.654 588.943 2805.749 554.379 2791.844 519.814 2805.749 554.379 2768.744 567.367 2805.749 554.379 2842.753 541.391"/><ellipse class="cls-17" cx="3122.67924" cy="258.34916" rx="134.46224" ry="125.59473"/><ellipse class="cls-18" cx="2914.52027" cy="452.78037" rx="28.41857" ry="26.54455"/><ellipse class="cls-19" cx="3074.19711" cy="303.63403" rx="14.56492" ry="13.60448"/><ellipse class="cls-20" cx="2732.19853" cy="623.07848" rx="2.82063" ry="2.63453"/><ellipse class="cls-21" cx="2731.60581" cy="623.63186" rx="22.90206" ry="21.3918"/><ellipse class="cls-22" cx="3119.87429" cy="260.96917" rx="34.02554" ry="31.78167"/></g><g id="Texte"><path class="cls-23" d="M1064.30078,223.72949l274.21875-15.60693,1.80029,61.22607q-32.40234,13.81567-75.00537,21.60938-10.80029,1.801-130.80908,15.00635l9.00049,105.04541,101.40723-1.20069,1.20019,95.44092-115.8081-3.001,6.00048,139.86036,150.61036-7.20313,5.40039,63.62695-230.416,3.001Z" transform="translate(0 0.0889)"/><path class="cls-23" d="M1406.91943,230.332q103.19751,0,174.01172,54.02344,77.40528,58.83471,77.40576,159.06836,0,79.23339-13.80127,131.456-16.80542,64.2378-57.604,98.44239-45.60791,38.42138-124.2085,38.417-16.80615,0-30.90234-1.20117a166.61107,166.61107,0,0,1-27.90185-4.80176Zm69.6045,417.17969q61.79516-16.207,88.80615-60.62695,23.99268-39.01173,24.002-106.84522,0-55.21949-17.40137-99.64307-23.40161-60.01611-68.40478-60.02587a173.8699,173.8699,0,0,0-47.40332,6.603Z" transform="translate(0 0.0889)"/><path class="cls-23" d="M1802.34277,444.624q0,59.42579,6.00049,126.05469,4.19092,48.0293,15.001,126.05371l-85.80615,1.80078q0-31.20409,2.40039-76.23242,5.40013-102.03956,5.40039-127.25488,0-48.01611-2.1001-86.73731-2.11011-38.71654-7.501-98.14209-3.00951-30.00805-9.60058-91.83935l87.60644-6.603q-6.00513,68.42945-8.70068,119.75147Q1802.34254,382.79785,1802.34277,444.624Z" transform="translate(0 0.0889)"/><path class="cls-23" d="M2003.34814,317.36963l-84.00585-1.20068-11.40088-93.64014,424.22949-7.80322-7.80029,48.0205L2075.353,290.958,2099.355,690.72949H1990.14746Z" transform="translate(0 0.0889)"/><path class="cls-23" d="M2464.17773,444.624q0,59.42579,6.00049,126.05469,4.19093,48.0293,15.001,126.05371l-85.80615,1.80078q0-31.20409,2.40039-76.23242,5.40015-102.03956,5.40039-127.25488,0-48.01611-2.1001-86.73731-2.11011-38.71654-7.501-98.14209-3.00951-30.00805-9.60058-91.83935l87.60644-6.603q-6.00511,68.42945-8.70068,119.75147Q2464.1775,382.79785,2464.17773,444.624Z" transform="translate(0 0.0889)"/><path class="cls-23" d="M2914.2002,461.43115q0,71.43971-40.80274,147.66358-47.4082,88.84277-112.208,88.83789-74.40966,0-135.60937-82.23535-56.40894-76.22315-56.4043-153.66553,0-90.62988,43.20313-158.46826,49.79883-78.02418,135.00927-78.03321,72.59619,0,123.0083,84.63623Q2914.19092,383.40723,2914.2002,461.43115ZM2682.584,469.23486q0,39.02563,21.60157,110.44776,25.20117,82.83544,50.40332,82.835,18.59179,0,37.20263-80.43457,15.59619-67.82373,15.60108-100.24268,0-39.01245-19.80127-120.05176-23.40162-94.83618-45.60352-94.84082-22.20557,0-42.60254,89.43848Q2682.5791,430.218,2682.584,469.23486Z" transform="translate(0 0.0889)"/><path class="cls-23" d="M3062.40625,728.5459l-.59961,18.00781-71.40527,7.20313q0-41.417,6.001-175.27539,2.9956-66.62842,3-106.24561,0-31.20409-6.001-135.05811-3.00879-51.61743-3-82.23486l58.80468-4.80224q34.20264,24.61962,67.80469,61.22607,27.00147,28.81275,58.2041,70.83057,27.00147,37.22533,54.00391,74.43212,5.39942-36.60643,8.40039-73.53173,2.99561-36.91554,3-74.13184a429.77366,429.77366,0,0,0-2.10059-45.31934q-2.10937-19.49926-7.5-51.92236,27.59181,0,59.4043,12.00537,0,34.81934-1.80078,81.63477-4.20409,109.2561-4.20019,136.85888,0,45.019,4.20019,91.23877,4.19093,46.23048,21.60156,170.47364l-88.206-5.40235q-40.812-78.02343-81.00586-156.06738-49.812-91.23412-94.80664-146.4624,0,46.229,3.90039,107.146,3.89649,60.93018,8.10058,121.252Q3062.397,684.72656,3062.40625,728.5459Z" transform="translate(0 0.0889)"/><path class="cls-23" d="M3820.85742,386.39893l14.40039-64.22754,87.00586,3.60156A204.29543,204.29543,0,0,0,3930.665,297.561a129.81829,129.81829,0,0,0,3-27.61182l-1.80078-37.21631,65.40527-5.40234A516.90921,516.90921,0,0,0,3964.2666,325.773l56.4043-1.80078a275.123,275.123,0,0,0,14.70117-45.019,366.0752,366.0752,0,0,0,7.5-49.82178l75.00586,3.60156a239.06052,239.06052,0,0,0-28.20215,45.01953,198.445,198.445,0,0,0-15.60156,48.02051h73.80566l-46.20312,55.22363h-56.4043l-11.40039,62.42725,67.80469-4.80225-1.80078,55.82373-80.40528,3.00147q-3.60058,16.81128-4.5,24.01025a175.59665,175.59665,0,0,0-.90039,20.40918,280.58054,280.58054,0,0,0,2.7002,40.2168,405.265,405.265,0,0,0,8.70117,42.01855l-77.40625-15.60742,20.40137-114.04883-53.40332,3.00147v92.43994l-76.80567,10.2041a244.9198,244.9198,0,0,0,21.60157-50.42187,301.82077,301.82077,0,0,0,10.20117-54.02295h-75.60547l12.60058-52.22217h75.60547l12.001-60.62647Zm108.00684,60.62646,58.80469-3.60156,12.60058-70.23047h-61.2041Z" transform="translate(0 0.0889)"/><path class="cls-23" d="M4381.89453,688.3291q-43.20264,0-81.00586,2.70117-37.80176,2.70117-90.00586,8.10352,9.59179-38.4082,19.80176-77.43359,17.39649-66.02345,25.80176-79.834,6.59472-10.1997,79.20508-66.02881a192.59914,192.59914,0,0,0,52.2041-60.02588q25.20117-46.82007,28.20117-54.02295,7.20117-18.59838,7.20117-34.81494,0-24.60572-15.001-50.42187-17.41115-30.00806-39.00293-30.0127-24.61085,0-32.40235,61.22608-3.01025,23.4104-3,79.83447l-94.207-22.20947q0-60.01684,44.10352-102.94434,44.102-42.90894,105.90722-42.91846,50.40381,0,76.80567,52.82276,20.39208,40.82666,20.40136,96.6416,0,58.22973-28.20214,106.8457-30.60206,52.82739-82.80567,72.63135l-12.001,3.60156q-25.80615,0-42.30273,14.10645-16.51026,14.11083-16.501,40.5166a93.81383,93.81383,0,0,0,3,22.81055q52.79444,0,94.50586-7.20313,41.69824-7.2041,84.90625-25.21094l14.40137,98.44239q-58.20849-5.40236-60.00488-5.40235Q4414.292,688.32813,4381.89453,688.3291Z" transform="translate(0 0.0889)"/></g><g id="Ancrage"><rect class="cls-12" x="5624" y="999.0889" width="1" height="1"/><rect class="cls-12" x="5624" y="0.0889" width="1" height="1"/><rect class="cls-12" y="999.0889" width="1" height="1"/><rect class="cls-12" y="0.0889" width="1" height="1"/></g></g></svg>