<svg id="a196bbe9-c782-49fd-872c-f9ee78248f28" data-name="Calque 1" xmlns="http://www.w3.org/2000/svg" viewBox="0 0 340.2635 458.75"><title>logo-alligator-news-v-vintage</title><path d="M291.56249,153.125a38.63072,38.63072,0,0,1,2.30784,15.27113c-.55814,9.48049-4.51675,11.69689-2.55784,17.85387,1.31556,4.13486,3.46562,6.78113,2.81251,11.6875a16.68657,16.68657,0,0,1-1.625,4.9375c-4.41553,8.44237-80.90839,117.409-90.83333,131.54166Q200.521,345.70832,199.37527,357L177.5,463.79962,256.375,511.75A62.26677,62.26677,0,0,0,277,518.25a60.76577,60.76577,0,0,0,7.625.5,23.59855,23.59855,0,0,1,5.64664,10.87744c1.94961,9.6734-4.63031,13.15235-2.89664,20.24756,2.08447,8.53088,12.48688,7.1449,24.93749,21,5.16825,5.75122,3.62882,6.27155,9.375,12.375,6.8397,7.26495,10.95445,8.58154,17.875,15.6875A75.16425,75.16425,0,0,1,349.625,611.875,57.3557,57.3557,0,0,0,343.5,601.25c-6.84912-9.385-12.54034-11.08643-20.75-20.625-6.246-7.257-3.74106-7.18921-9.29218-13.33527C302.53635,555.19781,293.81738,556.01727,292.125,548.5c-1.43152-6.35852,4.4357-8.59271,3.45834-18.33331-.44055-4.39069-1.99258-7.52356-4.41668-12.41669A70.84787,70.84787,0,0,0,281,502.57523L317,493.75a179.65539,179.65539,0,0,0,49.125-21c3.95169-2.44958,7.65665-4.96393,11.125-7.5q11.93751-76.5,23.875-153a130.45694,130.45694,0,0,1-51.95834-28.08334c-5.4693-4.88529-27.14478-24.24628-36-52.16666-4.1204-12.99158-3.47147-21.55058-11.63541-32.71875-3.2692-4.47221-7.97626-9.33966-8.15625-16.84375-.12-5.00429,1.86047-7.42361,2.125-13.25A31.08151,31.08151,0,0,0,291.56249,153.125Z" transform="translate(-132.41591 -153.125)" style="fill:#1d1d1b"/><ellipse cx="66.95936" cy="115.9633" rx="14.08783" ry="14.39859" style="fill:#003d33;stroke:#1d1d1b;stroke-miterlimit:10;stroke-width:2px"/><path d="M199.37527,270.5a7.87838,7.87838,0,0,1,8.78132,9.84552,12.81508,12.81508,0,0,0,2.58363-19.76389Z" transform="translate(-132.41591 -153.125)" style="fill:#017a66;stroke:#1d1d1b;stroke-miterlimit:10;stroke-width:2px"/><path d="M201.25,336A170.15091,170.15091,0,0,0,229,312.25c9.4386-10.03195,9.75272-12.84216,23.25-30.75,31.51529-41.81361,38.49994-50.24992,38.49994-50.24992,6.74237-8.14371,13.60367-16.06443,12.00006-25.50008-1.02652-6.04005-5.12787-10.38362-8.25-13a20.2419,20.2419,0,0,1-3.25,11.75c-1.13345,1.676-2.59076,3.831-5.06293,4.4682-3.54654.91417-6.38192-2.01678-8.93707-3.2182-8.2439-3.87625-17.55664,8.377-37.25,18.5-15.12918,7.77682-17.69673,5.04546-29.25,12.75a78.24823,78.24823,0,0,0-20.625,20.375,18.78917,18.78917,0,0,1,9.125-2.25c1.94815.0303,6.48546.10088,9.875,3.25.565.52487,3.208,3.09561,3.875,9.25,1.06387,9.81647-4.05769,18.06494-8.25,24.625A82.629,82.629,0,0,1,187,312a39.4026,39.4026,0,0,1,14.25,24Z" transform="translate(-132.41591 -153.125)" style="fill:#11ae92;stroke:#1d1d1b;stroke-miterlimit:10;stroke-width:2px"/><ellipse cx="27.56408" cy="339.80981" rx="9.41462" ry="9.64042" style="fill:#003d33;stroke:#1d1d1b;stroke-miterlimit:10;stroke-width:2px"/><path d="M168.3125,494.4375a10.71976,10.71976,0,0,0-.6875-1.625c-.65312-1.24606-1.6051-3.06229-3.45833-3.64584a3.53208,3.53208,0,0,0-3.08334.33334,2.65293,2.65293,0,0,0-.91666,1.33334c-.21826.79236.12255,1.26508-.08334,1.41666-.0808.05948-.48317.24426-3.33333-2.58334-2.27687-2.25888-2.34737-2.70151-2.33333-3,.08016-1.70432,3.1052-2.73111,3.41666-2.83332a8.41489,8.41489,0,0,1,7.08334.91666,8.56077,8.56077,0,0,1,3.77083,8.4375A6.5117,6.5117,0,0,1,168.3125,494.4375Z" transform="translate(-132.41591 -153.125)" style="fill:#017a66;stroke:#1d1d1b;stroke-miterlimit:10;stroke-width:2px"/><path d="M214,343.66666a41.01,41.01,0,0,0-12.33333-7A42.75236,42.75236,0,0,0,176,336a40.59654,40.59654,0,0,0-15.83333,29.33334,18.47124,18.47124,0,0,0,1,6c1.394,4.01587,3.67961,5.88886,4.83333,7.5,4.43138,6.18839-.56764,18.66462-5.38885,25.771-4.30375,6.34369-6.01207,4.83975-17.77782,17.39563-6.14762,6.56046-8.366,9.741-9.16666,14-.83911,4.46344.53739,6.60834,2.5,14.16666,4.36745,16.81967,1.098,20.35278,5.66666,31.83334a52.95253,52.95253,0,0,0,9.5,15.33334c-.00606-2.92721.43024-8.97049,4.75-13.08334a14.08722,14.08722,0,0,1,4.5-2.83334c9.4024-3.91187,25.82229-5.63749,30.41667-6.08332a141.69163,141.69163,0,0,1-1.66667-17,145.58967,145.58967,0,0,1,2-29.66668C195.71367,403.13763,203.95308,397.50323,210,372A154.99047,154.99047,0,0,0,214,343.66666Z" transform="translate(-132.41591 -153.125)" style="fill:#11ae92;stroke:#1d1d1b;stroke-miterlimit:10;stroke-width:2px"/><path d="M421.07813,265.01563a58.05324,58.05324,0,0,0-15.57813-9.974,11.16534,11.16534,0,0,1,7.16666-1.58334c.73816.09689,5.71307.8343,7.83334,5.25A9.52652,9.52652,0,0,1,421.07813,265.01563Z" transform="translate(-132.41591 -153.125)" style="fill:#003d33;stroke:#1d1d1b;stroke-miterlimit:10;stroke-width:2px"/><path d="M401.125,312.25a88.75271,88.75271,0,0,1-24.75-4.75c-42.88583-14.91721-63.36166-60.10094-66.375-75.125a176.9859,176.9859,0,0,0-4.5-18.125c-1.99924-6.57152-3.99078-11.7581-5.25-14.875,3.92847,3.85605,8.68719,8.50015,14.125,13.75,9.43845,9.11218,11.778,11.2206,15.625,13.25,4.28314,2.25949,8.19611,3.24,17.5,4.5,20.29724,2.74873,22.30005.87527,34.5,3a90.99821,90.99821,0,0,1,29.875,11.875c7.63919,4.76736,11.47888,8.88467,11.5,13.5a9.5683,9.5683,0,0,1-1.25,4.625c-.095-.575-1.29041-7.16031-6.91666-9.5a11.42069,11.42069,0,0,0-8.45834.125c-7.31168,2.91953-9.56042,12.6832-10.75,17.75C392.11847,288.78259,397.35056,303.926,401.125,312.25Z" transform="translate(-132.41591 -153.125)" style="fill:#11ae92;stroke:#1d1d1b;stroke-miterlimit:10;stroke-width:2px"/><path d="M377.33334,467.16666c-.55829-7.237-1.30352-19.18967-1.33334-34-.051-25.33048,1.99545-39.53659,4-71.5.67-10.68409,1.51236-26.39246,2-45.66666a83.83236,83.83236,0,0,1,89.33334,24.16666A74.56184,74.56184,0,0,0,452.625,404.125a28.583,28.583,0,0,0-19.5-.375,26.79637,26.79637,0,0,0-8.75,5.25,32.12952,32.12952,0,0,1,18.875,1.25,30.86237,30.86237,0,0,1,8.875,5.375c.832,2.10587,5.73178,15.10776-1.125,27.125a28.16954,28.16954,0,0,1-8.25,9c.369-1.10266,2.22681-6.9689-.91666-10.91666A9.4295,9.4295,0,0,0,436.5,437.75c-12.547-3.12115-26.99991,3-26.99991,3C393.17694,447.666,382.74533,459.71115,377.33334,467.16666Z" transform="translate(-132.41591 -153.125)" style="fill:#11ae92;stroke:#1d1d1b;stroke-miterlimit:10;stroke-width:2px"/><path d="M250.56249,557.875A9.45491,9.45491,0,0,0,256.25,542.1875a43.27339,43.27339,0,0,1-18.31251-3.5625,14.74633,14.74633,0,0,0,.875,12.125C242.56944,557.34039,250.04628,557.84894,250.56249,557.875Z" transform="translate(-132.41591 -153.125)" style="fill:#003d33;stroke:#1d1d1b;stroke-miterlimit:10;stroke-width:2px"/><path d="M284.625,518.75A241.92933,241.92933,0,0,1,247.25,499.5c-9.93272-6.29138-16.32593-11.43411-29.25-18.5a234.49872,234.49872,0,0,0-23-11,30.31532,30.31532,0,0,0-16,7.75c-10.03934,9.48129-9.45509,22.59048-9.33333,24.58334a49.48986,49.48986,0,0,0,8.41666,5.5c3.74658,1.937,4.9037,1.9281,6.75,3.5C187.93645,513.97528,188.416,517.19153,190,522a111.23467,111.23467,0,0,0,6.14673,13.67883C201.8084,546.79645,212.85544,552.40381,216,554a50.89166,50.89166,0,0,0,32.75,4.25,16.06229,16.06229,0,0,1-11.125-12.5c-1.48079-8.4743,4.72873-14.268,5.125-14.625a18.68435,18.68435,0,0,1,7.5-1.125,19.00784,19.00784,0,0,1,10.08334,3.66669A43.457,43.457,0,0,0,264,515a46.38265,46.38265,0,0,0,20.625,3.75Z" transform="translate(-132.41591 -153.125)" style="fill:#11ae92;stroke:#1d1d1b;stroke-miterlimit:10;stroke-width:2px"/><path d="M329.66666,522a53.16632,53.16632,0,0,0,22.66668-1.5c9.51035-2.80927,15.87552-7.77362,24.5-14.5,10.70411-8.34836,8.59476-9.11334,17-15.16666C407.67639,480.8638,416.94147,480.38675,418,473.5c.74023-4.81586-3.03787-9.4791-4-10.66666a17.73265,17.73265,0,0,0-9.993-6.20568c-3.491-.7089-6.17944-.04-9.67371.87234-2.13458.55734-7.35858,2.11255-19.5,10.16666-3.847,2.552-4.27569,3.02807-6.5,4.5C358.77774,478.49,350.88815,479.875,340,483.58334c-5.93405,2.02106-14.46164,5.07984-24.81251,9.35147A23.37625,23.37625,0,0,1,331,497.5c1.7493,1.36331,9.6069,7.487,7.83334,15.16669C337.38223,518.95013,330.54834,521.66486,329.66666,522Z" transform="translate(-132.41591 -153.125)" style="fill:#11ae92;stroke:#1d1d1b;stroke-miterlimit:10;stroke-width:2px"/><path id="a0614204-cbe7-439e-9e5d-4d4cff91d7a5" data-name="peau" d="M349,315.16666a42.56608,42.56608,0,0,0,14.91666-7.5A37.638,37.638,0,0,0,388,302.58334a36.72525,36.72525,0,0,0,12.29166-12.54168c.91909.00854,2.2756.00824,3.91668-.04166,5.17755-.15741,7.76633-.23611,9.32856-1.18195a8.90017,8.90017,0,0,0,4.0881-7.85971c-.24692-3.0158-2.31308-2.81823-4.625-7.58334-2.09174-4.31128-1.53873-6.81927-4.46875-9.8125-1.65463-1.69034-2.64114-1.71817-3.03125-1.6875-1.66754.1311-3.18735,2.17673-3.84375,5.1875-.58258-.5369-1.44946-1.31683-2.53125-2.21875-1.31415-1.09564-6.45853-5.38464-10.56251-7.21875-1.7651-.78885-7.51262-2.98941-16.77083-.125a28.81469,28.81469,0,0,0-12.91666-4.625,28.39169,28.39169,0,0,0-9,.54167,21.77283,21.77283,0,0,0-14.95834-8.125,22.49367,22.49367,0,0,0-6.70832-12c-2.00549-1.80881-4.66272-4.20546-8.25-4.08334-4.06106.13824-7.86642,3.45529-9.86459,8.35417a20.72148,20.72148,0,0,0-12.1875,1.46875c-1.453-1.48164-6.1489-5.887-12.84376-5.90625a17.05108,17.05108,0,0,0-6.5,1.375c-7.82506,2.9946-12.08477,9.41893-14.625,13.25A47.33442,47.33442,0,0,0,257.75,261.4375c-2.649,2.85776-7.707,8.84195-10.31251,16.25a29.367,29.367,0,0,0-1.25,15.8125,175.89,175.89,0,0,0-23.60416,44.08334A59.66631,59.66631,0,0,0,196.5,360.66666a51.29083,51.29083,0,0,0-8.08333,27.41668A49.04492,49.04492,0,0,0,192,406c-.69475,1.69275-1.36761,3.51382-1.98866,5.4595-.8743,2.73911-1.37627,4.88336-1.678,6.20716-1.75611,7.7044-2.63416,11.55661-2.83333,14.20834-.32164,4.282.63823,2.97516,2.83333,17.45834,1.52193,10.0416,1.52508,13.73511,1.47917,15.60416-.02589,1.0542-.10794,3.17737-.14583,6.5625-.06265,5.59808.119,3.60934.08333,8.25a15.73407,15.73407,0,0,0,.25,4.3125,11.86,11.86,0,0,0,2.33333,4.60416,31.52759,31.52759,0,0,0,7.10416,4.14584s1.41358.59293,2.93751,1.0625c8.11916,2.50177,19.00575,1.81607,19.06227,1.8125h.00022A50.10906,50.10906,0,0,0,236.75,493.5c4.22166,3.01331,5.96765,4.24573,6.25392,4.42941.02146.01377.18231.12912.41176.2706.2691.16593.41713.28723.5255.36469,2.243,1.60324,9.17637,5.67053,9.17637,5.67053,1.97048,1.15594,2.95566,1.73386,3.31775,1.94125,3.88968,2.22779,6.92163,3.79242,8.4397,4.57352,6.1073,3.14233,11.84985,5.70575,14.91666,7.04169A16.14184,16.14184,0,0,0,285.875,518c.889-.14508,2.58115-.43719,2.75-1.25.07355-.354-.18655-.592-.875-1.8125-.49176-.87177-.631-1.23242-.875-1.6875-.65463-1.22083-3.25742-5.348-7.125-10.75q18.625-4.58331,37.25-9.16666A122.61993,122.61993,0,0,1,337.5,484.5c2.18472-.6799,6.8642-2.03128,8-5.5a12.03583,12.03583,0,0,0,.16666-4.33334,44.018,44.018,0,0,0-.91666-6.83332A64.21848,64.21848,0,0,1,351.81249,476c1.31748,1.81177,2.455,3.57611,3.43751,5.25a26.5646,26.5646,0,0,0-.58334,5.83334c.04107,3.18265.66027,5.1055-.16666,7.91666a11.66959,11.66959,0,0,1-1.16666,2.66666q9.36457,1.04168,18.72915,2.08334l6.77085-2.83334q2.80207-1.55209,5.60415-3.10416A21.1276,21.1276,0,0,0,395.5,487.33334c4.364-1.39084,7.54144-4.4581,7.75-7.70834.07007-1.09177-.06021-4.303-2.125-6.375-.7865-.78928-1.70993-1.269-1.81251-2.3125-.09911-1.00848.6717-1.49249,1-2.875a5.512,5.512,0,0,0-.18749-3,21.22432,21.22432,0,0,1-9.79166,3.10416A23.46332,23.46332,0,0,1,382.25,467.0625a30.20857,30.20857,0,0,1-7.25-3.125,60.10861,60.10861,0,0,1-5.79166-8.77084A61.6395,61.6395,0,0,1,364.625,444.25c-2.3624-7.27368-5.74142-17.031-10.125-29.54166A51.93467,51.93467,0,0,0,360.91666,402c1.00293-2.96689,1.33819-4.912,2.91668-9.25,1.61985-4.45157,2.95926-7.05441,3.66666-8.66666,5.68149-12.94909-.05945-28.89056-.45834-29.95834-1.33384-3.57028-3.6323-9.72266-7.72917-12.625a14.37364,14.37364,0,0,1-2.97915-2.66666,15.45489,15.45489,0,0,1-3.02085-6.14584C351.13177,324.77582,349.367,316.82947,349,315.16666Z" transform="translate(-132.41591 -153.125)" style="fill:#e8917b"/><path id="a44bdcc8-a1e3-4d3c-9e5e-adc3f2112708" data-name="ventre" d="M268.625,320.5a278.12849,278.12849,0,0,0,75.875-3.625,101.1698,101.1698,0,0,1-16.25,40.375,62.82918,62.82918,0,0,1,12.25-.5,51.10971,51.10971,0,0,1,10.375,1.5c7.98529,2.63361,12.60983,16.54767,13.125,33.125A115.87087,115.87087,0,0,1,359.125,406c-1.85886,4.53268-3.15747,6.85175-5.5,8.875a16.95934,16.95934,0,0,1-6.25,3.375,6.25714,6.25714,0,0,1,.875,1.29166,7.72329,7.72329,0,0,1-.66666,7.58334,7.95279,7.95279,0,0,1-3.125,2.66666q.47914,1.22918.95832,2.45834a14.21505,14.21505,0,0,1,.04168,5.79166,14.06761,14.06761,0,0,1-1.25,3.58334l-1.04168,3.95834c-6.77021.22034-12.50049.5011-16.91666.75-3.5813.20185-6.99866.4679-13.83334,1-6.14524.47843-6.90949.58356-8.16666.91666-4.26147,1.12909-5.61044,2.60495-11.16666,4.58334a62.47717,62.47717,0,0,1-6.66668,1.91666,99.29931,99.29931,0,0,1-19.95832,2.70834,5.5651,5.5651,0,0,1-1.4375-3.39584,5.19368,5.19368,0,0,1,.22916-1.77084,12.13769,12.13769,0,0,1-5.16666-7.54166,11.9114,11.9114,0,0,1,.97915-7.5c-.44307-.21683-5.23893-2.66492-6-8a10.6,10.6,0,0,1,1.625-7.125c-6.70684.61371-12.55259-2.7684-14.25-7.625a12.11474,12.11474,0,0,1,.64584-8.875A13.48029,13.48029,0,0,1,246.5,401.41666c3.83875-3.67594,5.16364-8.29853,6.75-13.83332a44.89833,44.89833,0,0,0,.18749-22.95834A63,63,0,0,1,275,360.125a62.26767,62.26767,0,0,1,12.31249.875A69.52343,69.52343,0,0,1,268.625,320.5Z" transform="translate(-132.41591 -153.125)" style="fill:#fff;opacity:0.5"/><path id="f5e4a069-8dc9-46e4-bbac-89b257833104" data-name="bas ventre" d="M270.75,484.78125a9.59314,9.59314,0,0,0,.43749,4.9375,9.844,9.844,0,0,0,4.45314,5.10938c-1.48829,3.27221-1.06861,6.71072.92186,8.526a5.62293,5.62293,0,0,0,3.10417,1.35418,5.12781,5.12781,0,0,0-1.08332,3.70832,5.37414,5.37414,0,0,0,4.33332,4.33334A3.8298,3.8298,0,0,0,282,516.08331a3.00155,3.00155,0,0,0,1.58334,2.08338c.20954.07409.23783.04046,1.76041-.10419a9.08146,9.08146,0,0,0,2.82095-.686.95769.95769,0,0,0,.34119-.3529.94545.94545,0,0,0,.10587-.48236,1.78238,1.78238,0,0,0-.51764-.98828,18.235,18.235,0,0,1-.90663-1.64667c-.25371-.48462-.41781-.83295-.48162-.96509a52.61048,52.61048,0,0,0-3.36212-5.31616s-1.63425-2.42734-3.13589-4.5191c-.03461-.04822-.14093-.19345-.2118-.29023-.09674-.13214-.1033-.14047-.11764-.15686-.083-.09485-.13455-.12552-.12549-.15686.01138-.0394.107-.04.18823-.04705a2.63123,2.63123,0,0,0,.45493-.11765c.34573-.0914.69571-.15384,1.12939-.25882.47934-.116.47-.141,1.30786-.37009,0,0,.32917-.09.79166-.20834,1.16083-.297,30.81659-7.58795,34.18749-8.41666,2.39811-1.356,5.02326-2.71463,7.875-4.02084a104.035,104.035,0,0,1,12.66767-4.8299q.11408-2.6163.22818-5.2326a5.62735,5.62735,0,0,0,2.33332-4.33334A5.09859,5.09859,0,0,0,340,471.83334l-4.16666.41666A10.74855,10.74855,0,0,1,336,479.83334q-12.83331,2.20834-25.66666,4.41666a29.63364,29.63364,0,0,1-16.41668.83334,28.73854,28.73854,0,0,1-8.75-3.75Q277.95834,483.05729,270.75,484.78125Z" transform="translate(-132.41591 -153.125)" style="fill:#fff;opacity:0.5"/><g id="a7e6b662-19db-4315-9f16-5b2463bd9c6b" data-name="ombres" style="opacity:0.30000000000000004"><path d="M228.16667,327.41666a37.5473,37.5473,0,0,1,9-11.58332c2.202-1.87118,3.79151-2.72024,5.58333-2.66668,2.167.06479,3.72673,1.42276,5.83333,3.41668,4.41076,4.17487,6.61613,6.2623,8.75,9,4.19519,5.38233,6.45728,9.698,9.41666,15.41666,3.718,7.18457,4.0101,9.20306,3.75,11.16666a13.45126,13.45126,0,0,1-4.5,7.91668,72.34608,72.34608,0,0,1,19.41666-.33334A70.583,70.583,0,0,1,267.375,320.125,36.54412,36.54412,0,0,1,245.66667,295.5a148.47868,148.47868,0,0,0-17.5,31.91666Z" transform="translate(-132.41591 -153.125)" style="fill:#1d1d1b;opacity:0.7000000000000001"/><path d="M359.16666,364.75a24.80345,24.80345,0,0,0-6.60417-7.75c-5.54778-4.22955-9.9547-3.596-11.31249-7.125-.44293-1.15125.47556-4.12167,2.31249-10.0625,1.4105-4.56168,2.27409-6.56644,3.26356-6.552.52695.00766.63586.58139,2.04895,2.052a24.88822,24.88822,0,0,0,3.25,2.75,41.93013,41.93013,0,0,0,3.81249,2.5625,25.60013,25.60013,0,0,1,6.81251,6.5,21.21427,21.21427,0,0,0-3.40625-5.09375c-2.28391-2.51163-4.02383-3.14587-5.15626-5.78125a27.87416,27.87416,0,0,1-.875-3.4375c-.46932-1.93991-.96331-3.87378-1.43749-5.8125-.54727-2.23755-1.52386-5.76-3.40625-11.3125L344.75,316.84375A119.58992,119.58992,0,0,1,329,357.3125a66.39356,66.39356,0,0,1,10-.9375,35.545,35.545,0,0,1,7.625.375C348.90134,357.20038,353.98218,358.67316,359.16666,364.75Z" transform="translate(-132.41591 -153.125)" style="fill:#1d1d1b;opacity:0.7000000000000001"/><path d="M280.16666,351a38.318,38.318,0,0,1,5.75-12.5c2.42416-3.4364,4.48889-6.36328,8.41668-7.83334a18.18638,18.18638,0,0,1,8.5-.75,20.95359,20.95359,0,0,1,4.91666,1.25c1.63266.60632,5.77219,2.14358,8.25,5.08334,2.94321,3.49191,2.74521,8.0174,2.5,12.25a44.82827,44.82827,0,0,1-7.43751,21.6875,24.78916,24.78916,0,0,1,8.375-9.0625A24.47951,24.47951,0,0,1,327.5,357.8125a86.10018,86.10018,0,0,0,14.43749-31.5,82.55688,82.55688,0,0,0,1.56251-9.375c-2.06116.39917-4.95035.93137-8.41666,1.47916A251.1138,251.1138,0,0,1,306.625,321.25c-4.4057.18787-9.98187.31021-16.45834.16666A62.89246,62.89246,0,0,1,268.58334,320.25,69.25315,69.25315,0,0,0,280.16666,351Z" transform="translate(-132.41591 -153.125)" style="fill:#1d1d1b;opacity:0.7000000000000001"/><path d="M201.41667,428.58334a18.38091,18.38091,0,0,0-4.16667-6.41668c-1.46539-1.45026-3.42033-3.385-5.25-2.91666-1.24216.318-1.92046,1.614-2.83333,3.83334A68.73524,68.73524,0,0,0,185.75,433.91666a63.40008,63.40008,0,0,1,.75-8.25A64.17207,64.17207,0,0,1,192,408a53.05813,53.05813,0,0,0,4.66667,7.66666c1.803,2.45642,2.85987,3.43222,3.75,5.5A14.67029,14.67029,0,0,1,201.41667,428.58334Z" transform="translate(-132.41591 -153.125)" style="fill:#1d1d1b;opacity:0.7000000000000001"/><path d="M235.18749,448.4375c.03355-4.88492-.15543-14.4678-2.31249-21.875-.25848-.8876-.67363-2.18491-1.75-2.625-3.2216-1.3172-9.16277,6.35468-11.625,9.72656a37.762,37.762,0,0,1,3.81249-7.28906,43.46758,43.46758,0,0,1,4.06251-5.0625,89.56007,89.56007,0,0,1,9.125-8.75,62.65006,62.65006,0,0,1-1.31251,35.875Z" transform="translate(-132.41591 -153.125)" style="fill:#1d1d1b;opacity:0.7000000000000001"/><path d="M359.66666,476.58334c.56137.6572,1.42013,1.637,2.52083,2.79166.77336.81128,1.17762,1.19641,1.34376,1.375.93134,1.00125,1.55643,3.22824.09375,8.65625q21.66678-9.43048,21.15625-10.84375-.1155-.31952-1.36459-.22916c-2.17295,1.044-9.2706,4.10886-17.29166,1.58332A21.57191,21.57191,0,0,1,359.66666,476.58334Z" transform="translate(-132.41591 -153.125)" style="fill:#1d1d1b;opacity:0.7000000000000001"/><path d="M371.83334,461c-8.87231-10.15057-13.4573-18.65793-16.02085-24.75-.48665-1.15656-1.9497-4.86642-3.18749-4.6875-1.17566.16992-1.47556,3.74863-2,7.625a132.44856,132.44856,0,0,1-3.29166,16.34375L339.5,454.6875c1.91577-5.447,3.51834-10.00916,4.91666-13.89584.92266-2.56458,1.26162-3.45984,1.33334-4.95832.15024-3.13934-1.05972-5.01565.16666-7.08334.51053-.86078.82116-.70581,1.5-1.83334a8.98279,8.98279,0,0,0,1.16668-4.25,12.57887,12.57887,0,0,0-.75-5.16666Q350.91667,416.25,354,415c2.63718,8.42053,5.75015,17.3111,9.43749,26.5625C366.16858,448.41464,368.98788,454.8956,371.83334,461Z" transform="translate(-132.41591 -153.125)" style="fill:#1d1d1b;opacity:0.7000000000000001"/><path d="M279.79166,517.875c-4.22962-1.95081-7.7558-3.62109-10.375-4.875-5.41239-2.59119-7.09442-3.47278-8.08332-4-3.54718-1.89114-2.51278-1.53452-8-4.58334-2.96915-1.64972-5.77866-3.57282-8.70833-5.29166-.04588-.02692-.32225-.22629-.875-.625a3.3074,3.3074,0,0,1-.79167-.83334,44.00567,44.00567,0,0,0-4.875-4.33332q17.45745-4.91666,34.9149-9.83334a2.96427,2.96427,0,0,0-.944.71176c-1.0448,1.19769-.73746,2.9422-.53336,4.10074.24643,1.39868.621,3.52481,2.5,4.77084a5.35768,5.35768,0,0,0,2.72916.85416,6.47944,6.47944,0,0,0-2,3.22916,6.12365,6.12365,0,0,0,2.125,6.39584,5.92715,5.92715,0,0,0,4.20834.9375c1.772,2.24329,3.14951,4.21152,4.16666,5.75,1.9711,2.98138.76443,1.58948,2.75,4.75.73981,1.17755.94745,1.53809.83334,1.91669C288.57813,517.76355,286.69672,518.44995,279.79166,517.875Z" transform="translate(-132.41591 -153.125)" style="fill:#1d1d1b;opacity:0.6000000000000001"/><path d="M309.54166,237.20833a12.02554,12.02554,0,0,1,6.66668-7.16666,10.8035,10.8035,0,0,1,6.91666-.375c3.2793.97824,5.01663,3.39421,7.25,6.5a31.77166,31.77166,0,0,1,4.5,9.04166q-3.52085.58332-7.04166,1.16667a28.7878,28.7878,0,0,0-18.29168-9.16667Z" transform="translate(-132.41591 -153.125)" style="fill:#1d1d1b;opacity:0.7000000000000001"/><path d="M304.625,373.0625a41.65884,41.65884,0,0,0-16.75-8.3125q2.94282,2.4375,5.88568,4.875a16.81324,16.81324,0,0,0-6.69819,1.5625q6.26043,3.9896,12.52085,7.97916-1.875-.16668-3.75-.33332c-1.59564.01819-4.86071.09784-5.75.52082-.12478.05935-.618.29394-.58334.4375.01117.04617.07346.06826.21765.11422.346.11029.519.16547.59484.17746.12977.02054,1.56568.4234,4.43751,1.22916,0,0,1.17639.33005,7,3.61737l14.442-1.59521a33.64286,33.64286,0,0,1,4.40173-6.05341c.68188-.74573,1.36359-1.42313,2.03125-2.03748a8.4294,8.4294,0,0,0-1.96875.00623,8.71475,8.71475,0,0,0-3.89413,1.5,25.71353,25.71353,0,0,1,5.86288-5.16666,12.95225,12.95225,0,0,0-3.81251,1.57291,22.91715,22.91715,0,0,1,1.75-1.875,23.188,23.188,0,0,1,5.03126-3.65625,11.77515,11.77515,0,0,0-10.0625,5,6.72669,6.72669,0,0,1,2.211-4.29166,23.92291,23.92291,0,0,0-9.92973,4.29166Z" transform="translate(-132.41591 -153.125)" style="fill:#1d1d1b;opacity:0.6000000000000001"/><g style="opacity:0.7000000000000001"><path d="M265.83334,436.5c-.67675-.2178-4.137-1.40149-5.20834-4.54166a3.96029,3.96029,0,0,1-.04166-3.08334,4.26035,4.26035,0,0,1,4.10415-2c8.14634-.56934,14.72621-.626,19.375-.5625,8.28181.11313,14.53388.66357,20.375-3.375a19.24837,19.24837,0,0,0,2.81251-2.375,14.41092,14.41092,0,0,0,2.93749,1.9375,16.935,16.935,0,0,0,8.875,1.4375c14.76753-.80609,17.11585-.89157,21.81251-1.0625.97272-.0354,2.72559-.07666,3.5,1,1.17847,1.6384-.6947,4.773-1.18751,5.5625a7.77026,7.77026,0,0,0,3.93751-11.375c-5.87976.459-10.79782.65765-14.43751.75-5.63271.14291-2.53936-.11255-11-.0625-5.11391.03027-7.47915.13092-10.31249-1.1875a14.566,14.566,0,0,1-4.875-3.75,21.88358,21.88358,0,0,1-5.31251,4.125,23.56934,23.56934,0,0,1-10.25,2.75c-7.0418.476-18.62975,1.3-33.39583,2.02084A9.15943,9.15943,0,0,0,255.5,428.625a8.703,8.703,0,0,0,5.95834,8A7.78535,7.78535,0,0,0,265.83334,436.5Z" transform="translate(-132.41591 -153.125)" style="fill:#1d1d1b;opacity:0.7000000000000001"/><path d="M274.5,450.79166c-4.52325.222-7.65326-2.46765-7.70834-4.91666-.04636-2.06061,2.09164-3.62119,2.45834-3.88126,18.55975-1.36831,32.06976-2.949,34.453-3.877a7.96487,7.96487,0,0,0,2.79694-1.8667,6.86493,6.86493,0,0,0,1.43755-2.62506,6.69082,6.69082,0,0,0,1.56251,2.25,7.69494,7.69494,0,0,0,2.625,1.5c4.70975,1.51474,25.17505-5.24,28.93749-.8125a3.01174,3.01174,0,0,1,.75,2c-.122,2.24124-3.55135,3.59375-4.125,3.8125a6.63023,6.63023,0,0,0,4.71876-.90625,6.29952,6.29952,0,0,0,2.03124-2.1875,11.3751,11.3751,0,0,0,.46876-5.34375,11.23662,11.23662,0,0,0-1.15625-3.5,147.45762,147.45762,0,0,0-17.03125.65625c-5.28525.5188-10.26923,1.31625-15.9375-1.09375a21.50768,21.50768,0,0,1-3.09376-1.625,15.117,15.117,0,0,1-3.35415,3.04166A16.77954,16.77954,0,0,1,296.25,434c-5.27969.46844-17.86826,2.02347-34.91666,3.95834a8.98625,8.98625,0,0,0-1.25,4.58332,8.87652,8.87652,0,0,0,.70832,3.41668A8.39676,8.39676,0,0,0,263.25,450C266.00568,452.432,270.43173,452.72537,274.5,450.79166Z" transform="translate(-132.41591 -153.125)" style="fill:#1d1d1b;opacity:0.7000000000000001"/><path d="M266.25,457.125a5.60619,5.60619,0,0,1-1.125-5.1875c1.2803-.04172,3.29071-.11658,5.75-.25,3.39978-.18445,7.03522-.44711,26.68749-3.75,2.81715-.47348,6.484-1.1424,8.875-4.125a9.6363,9.6363,0,0,0,1.68751-3.25,7.07381,7.07381,0,0,0,2.06249,3.0625c2.81459,2.35431,6.98329,1.54065,8.93751,1.1875,5.82385-1.05246,13.92029-1.98013,24.625-3a10.98742,10.98742,0,0,1-1.42187,3.96875A161.51291,161.51291,0,0,0,321.5,447c-3.4231.44388-5.057.80252-9.16666,1.16666-5.71865.50671-7.23944.22732-10.66668,1.16668-2.84665.78025-2.96781,1.29377-7.25,2.83332a74.72016,74.72016,0,0,1-8.72917,2.52084A98.5768,98.5768,0,0,1,266.25,457.125Z" transform="translate(-132.41591 -153.125)" style="fill:#1d1d1b;opacity:0.7000000000000001"/><path d="M283.32813,493.26563a5.48545,5.48545,0,0,1-1.125-.03125,3.2957,3.2957,0,0,1-2.57813-1.17188,2.28629,2.28629,0,0,1,.24893-2.6171,2.41954,2.41954,0,0,1,1.79273-.5704c2.22989.051,3.34481.07654,14.58334.375,5.48035.14554,12.22192-.8862,14.56249-2.1875a7.48044,7.48044,0,0,1,2.75-.9375,7.31188,7.31188,0,0,1,2.56251.125c1.53809.331,6.21179-.29575,17.91666-3.375a2.89,2.89,0,0,1,0,1.125,3.77979,3.77979,0,0,1-2.25,2.45834c4.96588-.8125,6.327-2.17328,6.625-3.29168.25933-.97321-.28516-1.76715.20834-3.41666.38806-1.297.96988-1.6257,1.5-2.75a7.5102,7.5102,0,0,0,.43749-4.6875c-1.42461-.40207-3.26854-.71585-4.06249.1875-1.16626,1.32693,1.05023,4.00912,0,6.0625-.78815,1.541-2.922,1.72809-6.375,2.1875-3.952.52582-7.87225,1.26761-11.81251,1.875-7.04091,1.08539-6.48305,1.80615-12.18749,2.5-5.70343.69373-8.59009,1.15036-11.625.125-3.54971-1.19928-5.46045-3.29251-9.68751-3.3125a26.07581,26.07581,0,0,0-5.22915.85416c-3.49.7561-6.3233,1.55389-8.27085,2.14584-.41427,3.59848.62663,6.92612,2.93751,8.3125a8.95,8.95,0,0,0,4.75.875A12.823,12.823,0,0,0,283.32813,493.26563Z" transform="translate(-132.41591 -153.125)" style="fill:#1d1d1b;opacity:0.7000000000000001"/><path d="M282.53125,503.125A3.357,3.357,0,0,1,279.70834,501a2.2563,2.2563,0,0,1,.20832-1.91666c.663-.84219,2.13372-.7019,2.58334-.66668,4.80084.37606,21.49362-1.17563,32.18749-4.51041.76521-.23862,2.0868-.66946,3.71876-1.3125a2.69653,2.69653,0,0,0-.48959-1.80209c-.56-.70862-1.33106-.70456-2.5-1.27082a7.94218,7.94218,0,0,1-2.16666-1.5625A11.87384,11.87384,0,0,1,308.43749,492.5c-2.27517,1.10962-4.15081.97452-9.14583,1.08334-2.8386.06186-5.6724.27051-8.51041.35416-3.38287.0997-8.22.339-14.21876.96875a5.56735,5.56735,0,0,0-1.59374,3.6875,5.27879,5.27879,0,0,0,3.625,5.125A5.22225,5.22225,0,0,0,282.53125,503.125Z" transform="translate(-132.41591 -153.125)" style="fill:#1d1d1b;opacity:0.7000000000000001"/></g></g><path d="M220.16667,339.66666a37.60435,37.60435,0,0,1,12.41666,2.25A42.64567,42.64567,0,0,1,237.25,344c5.79063,3.05634,25.00018,19.21863,49.91666,42.16666l7.41668-.83332c-29.49527-26.86874-52.04071-45.32855-56.83334-47.5a51.44425,51.44425,0,0,0-5.49991-2.08331,44.40461,44.40461,0,0,0-8.16676-1.66669,11.02988,11.02988,0,0,0-3.91666,5.58332Z" transform="translate(-132.41591 -153.125)" style="fill:#1d1d1b"/><path d="M354.83334,336.5,314.5,384l5.83334-.33334,38.83332-43.25A17.28536,17.28536,0,0,0,354.83334,336.5Z" transform="translate(-132.41591 -153.125)" style="fill:#1d1d1b"/><path d="M246.125,293A185.5759,185.5759,0,0,0,223,338" transform="translate(-132.41591 -153.125)" style="fill:none;stroke:#1d1d1b;stroke-miterlimit:10;stroke-width:2px"/><path d="M268.11288,319.4465A70.539,70.539,0,0,0,287.875,361.25" transform="translate(-132.41591 -153.125)" style="fill:none;stroke:#1d1d1b;stroke-miterlimit:10;stroke-width:2px"/><path d="M344.16666,316.22665A92.47241,92.47241,0,0,1,327.83334,357.5" transform="translate(-132.41591 -153.125)" style="fill:none;stroke:#1d1d1b;stroke-miterlimit:10;stroke-width:2px"/><path d="M363.125,393.5a47.74861,47.74861,0,0,0,6.375-19.83334,45.72858,45.72858,0,0,0-1.33334-16A44.74286,44.74286,0,0,0,354.83334,336.5l-5.7966-21.54376" transform="translate(-132.41591 -153.125)" style="fill:none;stroke:#1d1d1b;stroke-miterlimit:10;stroke-width:2px"/><path d="M200.75,420.945a57.03345,57.03345,0,0,1-6.41667-9.61167,48.449,48.449,0,0,1-5.16666-14,48.98535,48.98535,0,0,1-.5-14.33334,52.89976,52.89976,0,0,1,6.20833-19.5A56.706,56.706,0,0,1,208.83333,347,68.33448,68.33448,0,0,1,224.75,336.86334" transform="translate(-132.41591 -153.125)" style="fill:none;stroke:#1d1d1b;stroke-miterlimit:10;stroke-width:2px"/><path d="M223,425.84921A215.76282,215.76282,0,0,1,239.125,408.875c3.9079-3.6803,6.72339-6.03809,9.5-10.625a39.18147,39.18147,0,0,0,5-13.75A43.73526,43.73526,0,0,0,252,362.25a40.50021,40.50021,0,0,0-4.66667-9.08334" transform="translate(-132.41591 -153.125)" style="fill:none;stroke:#1d1d1b;stroke-miterlimit:10;stroke-width:2px"/><path d="M335.75,472.25a8.93144,8.93144,0,0,1,1,5.20834,8.41364,8.41364,0,0,1-.625,2.29166,254.87141,254.87141,0,0,0-26.60626,4.62769c-3.74063.87338-8.76224,2.15805-15.01874.789a27.92044,27.92044,0,0,1-9.25-3.91666c-6.37955,1.32135-16.10358,3.46091-27.91666,6.58334-12.97747,3.43021-17.68209,5.19355-27.83334,6.83332,0,0-19.67509,3.17816-31.6875-2.22916a16.82517,16.82517,0,0,1-6.80032-5.4754,12.98828,12.98828,0,0,1-1.17885-2.29544s.40368-25.16184-1.46366-35.5c-.53735-2.97492-1.203-5.99991-1.203-5.99991-.77892-3.5398-1.32979-5.482-1.56839-6.50443-.97869-4.19369-.143-7.90695,1.56837-15.16232a116.76756,116.76756,0,0,1,4.72084-15.23752" transform="translate(-132.41591 -153.125)" style="fill:none;stroke:#1d1d1b;stroke-miterlimit:10;stroke-width:2px"/><path d="M202.83333,434q-.04165,4.79169-.08333,9.58334a32.30042,32.30042,0,0,0-2.66667,4.5,33.15118,33.15118,0,0,0-3.25,12.41666" transform="translate(-132.41591 -153.125)" style="fill:none;stroke:#1d1d1b;stroke-miterlimit:10;stroke-width:2px"/><path d="M317.81249,472.6875q6.86971-.03351,14.18751-.375,4.20434-.20187,8.25-.5a6.73611,6.73611,0,0,0,1.25-3.22916,7.13564,7.13564,0,0,0-1.68751-5.20834" transform="translate(-132.41591 -153.125)" style="fill:none;stroke:#1d1d1b;stroke-miterlimit:10;stroke-width:2px"/><path d="M318.66666,462.25l28.66668,1.16666A7.59734,7.59734,0,0,0,349.75,458.0625a7.47,7.47,0,0,0-1.66666-4.72916c-5.1459-.355-9.519-.77777-12.89585-1.14584-5.07329-.553-7.60994-.82953-10.375-1.3125-2.07375-.36224-5.6878-1.056-11.75-2.125a26.28511,26.28511,0,0,0-4.75-.5625A23.27463,23.27463,0,0,0,300.75,449.375c-1.29321.44128-2.65381,1.065-5.375,2.3125-1.05035.48151-1.82324.85284-2,.9375-1.97495.94595-6.35464,2.90387-16.04166,7.04166" transform="translate(-132.41591 -153.125)" style="fill:none;stroke:#1d1d1b;stroke-miterlimit:10;stroke-width:2px"/><path d="M205.16667,463.375A86.50867,86.50867,0,0,1,231,456.625c13.2775-1.2887,19.87517,1.34372,35,.75a120.12821,120.12821,0,0,0,24.96167-3.63556" transform="translate(-132.41591 -153.125)" style="fill:none;stroke:#1d1d1b;stroke-miterlimit:10;stroke-width:2px"/><path d="M236.83333,410.83334a60.55456,60.55456,0,0,1-4.33373,45.66144" transform="translate(-132.41591 -153.125)" style="fill:none;stroke:#1d1d1b;stroke-miterlimit:10;stroke-width:2px"/><path d="M310.5,448.18625a87.28612,87.28612,0,0,1,16.75-1.87375c1.86758-.018,4.45392.02686,8.375-.1875,3.98355-.21777,7.24207-.58813,9.41666-.875a10.02246,10.02246,0,0,1-2.22917,3.6875,11.34412,11.34412,0,0,1-8.56249,3.14777Q322.375,450.13573,310.5,448.18625Z" transform="translate(-132.41591 -153.125)" style="fill:none;stroke:#1d1d1b;stroke-miterlimit:10;stroke-width:2px"/><path d="M310.5,371a25.80653,25.80653,0,0,1,6.89209-8.27048c5.99777-4.66751,12.34875-5.18164,17.10791-5.56286,6.102-.4888,14.86249-1.19059,20.93749,4.45834,2.49156,2.3168,3.44792,4.69437,5.06251,8.70834a44.63213,44.63213,0,0,1,2.16666,25.64188A43.99265,43.99265,0,0,1,358.25,407.91666c-1.96655,3.58819-3.58514,6.54156-6.83334,8.5-.87912.53-2.39667,1.19455-10.33332,1.83334-5.63229.45331-9.7499.5-9.7499.5-4.671.053-10.93622.045-18.52095-.1875a7.82384,7.82384,0,0,1-5-5.8125" transform="translate(-132.41591 -153.125)" style="fill:none;stroke:#1d1d1b;stroke-miterlimit:10;stroke-width:2px"/><path d="M304.5,412.91666a6.54349,6.54349,0,0,1-1.5,4.25,5.95991,5.95991,0,0,1-2.75,1.66668c-7.29153,2.27039-23.08325,2.83332-23.08325,2.83332-6.52313.23251-5.29489.51538-10.00009.58334A109.85337,109.85337,0,0,1,249.5,421.08334,11.73336,11.73336,0,0,1,244.125,417.5c-3.84375-4.61133-2.39125-10.54694-2.21027-11.23752" transform="translate(-132.41591 -153.125)" style="fill:none;stroke:#1d1d1b;stroke-miterlimit:10;stroke-width:2px"/><path d="M301.75,371.375a21.155,21.155,0,0,0-5-6.125c-1.83386-1.52518-6.11215-4.52936-16.5-5.125a65.68814,65.68814,0,0,0-27.46387,4.59512" transform="translate(-132.41591 -153.125)" style="fill:none;stroke:#1d1d1b;stroke-miterlimit:10;stroke-width:2px"/><path d="M257.25,422.125A10.17807,10.17807,0,0,0,255.125,429a9.99452,9.99452,0,0,0,3.04166,6.33334c3.10315,2.93894,7.08285,1.908,17.58334,1.08332,0,0,20.73822-1.62867,27.375-4.41666a8.38523,8.38523,0,0,0,3.29166-2.33334,7.898,7.898,0,0,0,1.39583-2.47916,5.02561,5.02561,0,0,0,1.52085,2.39584A5.19054,5.19054,0,0,0,311.5,430.625a18.46393,18.46393,0,0,0,5.24991.6875c9.72851-.54559,14.59274-.81839,16.12509-.9375,9.58545-.745,12.39322-.01141,14.18749-2.4375,1.60438-2.16931,1.44822-5.58,1.43751-5.77084a10.16034,10.16034,0,0,0-1.38721-4.56122" transform="translate(-132.41591 -153.125)" style="fill:none;stroke:#1d1d1b;stroke-miterlimit:10;stroke-width:2px"/><path d="M261.65793,437.1636a10.74608,10.74608,0,0,0-1.76279,6.92707,10.32293,10.32293,0,0,0,2.97608,6.25247c2.93762,2.85779,6.57061,1.72467,16.20944.6297,0,0,19.03644-2.16251,25.06515-5.12048a7.7312,7.7312,0,0,0,2.96344-2.41727,8.1214,8.1214,0,0,0,1.215-2.51416,5.11188,5.11188,0,0,0,1.46646,2.35571,4.62523,4.62523,0,0,0,2.0228.98541,15.70951,15.70951,0,0,0,4.84988.55191c8.93631-.79611,13.40445-1.19415,14.81107-1.35272,8.7991-.99179,11.40316-.33081,12.98623-2.80221a9.10007,9.10007,0,0,0,1.16114-5.80561,12.77648,12.77648,0,0,0-1.34055-4.72842" transform="translate(-132.41591 -153.125)" style="fill:none;stroke:#1d1d1b;stroke-miterlimit:10;stroke-width:2px"/><path d="M307.16666,451.25a4.6505,4.6505,0,0,0-2.75,3.83334,4.739,4.739,0,0,0,3.39583,4.72916,4.2992,4.2992,0,0,1-.64583-8.5625Z" transform="translate(-132.41591 -153.125)" style="fill:#1d1d1b"/><path d="M305.25,464.16666a3.51574,3.51574,0,0,0-.95834,1.91668c-.20154,1.47266.61273,3.35382,2.16668,3.70832A2.64631,2.64631,0,0,0,309,468.95834a3.03623,3.03623,0,0,0,.45834-2.79168,3.37077,3.37077,0,0,1,.95832,2.54168C310.21,470.43518,308.24817,471.631,306.5,471.5a4.026,4.026,0,0,1-3-2,3.85211,3.85211,0,0,1,1.75-5.33334Z" transform="translate(-132.41591 -153.125)" style="fill:#1d1d1b"/><path d="M305.29356,475.08333a3.04461,3.04461,0,0,0-.47405,3.62019,2.50458,2.50458,0,0,0,4.69286-.9654,3.30058,3.30058,0,0,1-.14221,2.75134c-.91612,1.4018-3.17186,1.31532-4.55065.531a3.37711,3.37711,0,0,1-1.75388-2.31692A3.60918,3.60918,0,0,1,305.29356,475.08333Z" transform="translate(-132.41591 -153.125)" style="fill:#1d1d1b"/><path d="M269.25,326.41666c3.56509.79019,7.3468,1.49945,11.33334,2.08334a159.06236,159.06236,0,0,0,24.75,1.66666l4.19123,2.66668,4.14209-3.25q5.50511-.73974,11.41668-1.83334c6.23462-1.166,12.07614-2.53088,17.5-4" transform="translate(-132.41591 -153.125)" style="fill:none;stroke:#1d1d1b;stroke-miterlimit:10;stroke-width:2px"/><path d="M273.75426,339.16666c3.17192.79019,6.53656,1.49945,10.08344,2.08334a126.17815,126.17815,0,0,0,22.02044,1.66666l3.729,2.66668,3.68528-3.25c3.26531-.49316,6.65578-1.09726,10.15759-1.83334,5.547-1.166,10.74431-2.53088,15.57-4" transform="translate(-132.41591 -153.125)" style="fill:none;stroke:#1d1d1b;stroke-miterlimit:10;stroke-width:2px"/><path d="M279.75,351.08331c2.613.79019,5.38487,1.49945,8.30682,2.08335a86.04148,86.04148,0,0,0,18.14063,1.66665l3.072,2.66669,3.036-3.25c2.69-.49316,5.48308-1.09726,8.36791-1.83334a129.0463,129.0463,0,0,0,12.8267-4" transform="translate(-132.41591 -153.125)" style="fill:none;stroke:#1d1d1b;stroke-miterlimit:10;stroke-width:2px"/><path d="M323.78125,508.66666l80.71875-39.75c15.93866-11.28028,20.80136-13.97892,21.25-13.41666a1.223,1.223,0,0,1,.08334.66666c-.08233.80014-.79858,1.27057-1.66668,2-1.01609.85379-.86856.90988-1.75,1.66668-1.40381,1.2053-7.17563,5.69733-15.08332,11.67646l-80.5,40.82351Q325.3073,510.5,323.78125,508.66666Z" transform="translate(-132.41591 -153.125)" style="fill:#1d1d1b"/><path d="M405.54166,468.125A43.26926,43.26926,0,0,1,415,502.25a97.03989,97.03989,0,0,0-18,15,18.97641,18.97641,0,0,0-3.5,10.5c-.14609,10.68781,9.5733,16.954,10.25,17.375a66.58137,66.58137,0,0,1,28.5-23.375c-.51181-1.12988-6.37473-14.65588,1.25-26.375a25.75213,25.75213,0,0,1,11.66666-9.54166c-1.84958-8.55886-6.97715-27.43664-19.04166-30.33334a13.526,13.526,0,0,0-1.33334-.25q-4.20025,2.648-8.5,5.5Q410.7284,464.4436,405.54166,468.125Z" transform="translate(-132.41591 -153.125)" style="fill:#f6f6f6"/><path d="M419.875,483.75" transform="translate(-132.41591 -153.125)" style="fill:none"/><path d="M445.14117,485.82941c.00092.00216-.08834.04077-.23529.10589-.2976.1319-1.01165.44937-1.73529.81763,0,0-.35162.17895-.753.4a28.59354,28.59354,0,0,0-6.00091,4.55533,23.43573,23.43573,0,0,0-6.15109,11.3386c-.03937.23074-.12217.45382-.148.68646-.01246.11221-.0571.56646-.2.651-.05832.03448-.13714.07055-.13714.07055-.0257.01175-.0629.028-.10861.04514-1.38529.52-2.07795.78-2.50522.91666-.51664.16528-8.197,3.454-15.22917,15.20834A61.91514,61.91514,0,0,0,403.75,545.16669a20.81971,20.81971,0,0,1-9.21875-11.26044,18.18919,18.18919,0,0,1,6.29358-20.49854,81.78718,81.78718,0,0,1,6.42517-5.689A88.34494,88.34494,0,0,1,415,502.25s17.11887-11.02716,27.43749-15.3125C442.54663,486.89218,445.13632,485.81769,445.14117,485.82941Z" transform="translate(-132.41591 -153.125)" style="fill:#ededed"/><path d="M424.82813,455.26563a33.47227,33.47227,0,0,1,9.83853,9.151c4.31662,6.10205,5.49783,12.30206,6.25,16.25a50.96855,50.96855,0,0,1,.83334,6.91668l3.39117-1.75393A49.49064,49.49064,0,0,0,439.125,467.5625c-2.47241-4.34091-5.51962-9.52121-11.43751-11.59375A15.48247,15.48247,0,0,0,424.82813,455.26563Z" transform="translate(-132.41591 -153.125)" style="fill:#ededed"/><path d="M405.5098,468.36078a4.044,4.044,0,0,1,2.709-4.17328,3.60918,3.60918,0,1,1,1.625,6.96875" transform="translate(-132.41591 -153.125)" style="fill:none;stroke:#1d1d1b;stroke-miterlimit:10"/><path d="M409.70771,465.25661a4.044,4.044,0,0,1,2.709-4.17328,3.60918,3.60918,0,1,1,1.625,6.96875" transform="translate(-132.41591 -153.125)" style="fill:none;stroke:#1d1d1b;stroke-miterlimit:10"/><path d="M414.29105,462.03907A4.044,4.044,0,0,1,417,457.86579a3.60918,3.60918,0,1,1,1.625,6.96875" transform="translate(-132.41591 -153.125)" style="fill:none;stroke:#1d1d1b;stroke-miterlimit:10"/><path d="M419.18586,458.90634a4.044,4.044,0,0,1,2.709-4.17328,3.60918,3.60918,0,1,1,1.625,6.96875" transform="translate(-132.41591 -153.125)" style="fill:none;stroke:#1d1d1b;stroke-miterlimit:10"/><path d="M423.95014,455.83428a4.044,4.044,0,0,1,2.709-4.17327,3.60918,3.60918,0,1,1,1.625,6.96875" transform="translate(-132.41591 -153.125)" style="fill:none;stroke:#1d1d1b;stroke-miterlimit:10"/><path d="M354.08,414.262c3.59909,10.04319,6.2362,18.10651,7.92,23.40467.35791,1.12616,7.21881,22.52789,14,26.41668,2.21262,1.26886,4.81241,2.41663,4.81241,2.41663a54.22838,54.22838,0,0,0,5.25008,2" transform="translate(-132.41591 -153.125)" style="fill:none;stroke:#1d1d1b;stroke-miterlimit:10;stroke-width:2px"/><path d="M401.33334,473.08334A14.92008,14.92008,0,0,1,403.16666,481.5a9.1752,9.1752,0,0,1-1.58332,2.5,10.1719,10.1719,0,0,1-6.41668,3.16666q-9.16668-.125-18.33332-.25a21.17746,21.17746,0,0,1,8.37015-5.58332,29.6324,29.6324,0,0,1,9.46317.16666" transform="translate(-132.41591 -153.125)" style="fill:none;stroke:#1d1d1b;stroke-miterlimit:10;stroke-width:2px"/><path d="M396.375,487.25a28.05857,28.05857,0,0,1-11.25,7q-10.09863-.61761-20.1973-1.23526a39.81147,39.81147,0,0,1,11.9473-6.20224" transform="translate(-132.41591 -153.125)" style="fill:none;stroke:#1d1d1b;stroke-miterlimit:10;stroke-width:2px"/><path d="M383.375,494.16666c-1.19839.78042-2.531,1.57071-4,2.33334a47.17994,47.17994,0,0,1-7.04166,2.95834l-18.16668-1.29168a50.23428,50.23428,0,0,1,5.875-3.375c1.36151-.66425,2.67392-1.22812,3.91668-1.70832" transform="translate(-132.41591 -153.125)" style="fill:none;stroke:#1d1d1b;stroke-miterlimit:10;stroke-width:2px"/><path d="M355.66666,494.41666a37.3235,37.3235,0,0,1,.16668-16.58332" transform="translate(-132.41591 -153.125)" style="fill:none;stroke:#1d1d1b;stroke-miterlimit:10;stroke-width:2px"/><line x1="225.58409" y1="294.125" x2="230.08409" y2="311.04166" style="fill:none;stroke:#1d1d1b;stroke-miterlimit:10"/><line x1="228.95909" y1="316.6875" x2="217.33458" y2="307.81433" style="fill:none;stroke:#1d1d1b;stroke-miterlimit:10"/><path d="M379.18749,474.9375a10.54236,10.54236,0,0,0,8.56251,2.89584l11.375-5.14584a14.77044,14.77044,0,0,0,1.375-5.125,14.58216,14.58216,0,0,0-.06251-2.9375,25.28971,25.28971,0,0,1-3.5,1.8125,26.35348,26.35348,0,0,1-11.31249,2" transform="translate(-132.41591 -153.125)" style="fill:none;stroke:#1d1d1b;stroke-miterlimit:10;stroke-width:2px"/><path d="M359.125,475.8125A20.61222,20.61222,0,0,0,370.25,481a20.85548,20.85548,0,0,0,14.04114-3.33334" transform="translate(-132.41591 -153.125)" style="fill:none;stroke:#1d1d1b;stroke-miterlimit:10"/><path d="M364.25,481.25a15.18317,15.18317,0,0,1-1.125,8.375" transform="translate(-132.41591 -153.125)" style="fill:none;stroke:#1d1d1b;stroke-miterlimit:10"/><path d="M293.66666,319.33334c-1.49735.55323-18.75754,6.59839-33.66666-4.16668-1.74124-1.25727-12.26859-9.12632-14-23.5-.25009-2.07624-1.907-18.1175,10.33334-28.5A31.64024,31.64024,0,0,1,277,256" transform="translate(-132.41591 -153.125)" style="fill:none;stroke:#1d1d1b;stroke-miterlimit:10;stroke-width:2px"/><path d="M323.875,260c-2.20685-1.87277-5.57309-4.62805-9.875-7.75-4.61853-3.35172-4.59125-2.97189-7.375-5.125-7.2226-5.58633-7.67941-8.3544-13-11.25A19.4667,19.4667,0,0,0,284.83334,233c-10.12884-.38708-17.65936,9.93839-20.5,13.83333a43.46128,43.46128,0,0,0-7.12582,15.6219" transform="translate(-132.41591 -153.125)" style="fill:none;stroke:#1d1d1b;stroke-miterlimit:10;stroke-width:2px"/><path d="M261.16666,278.83334A33.2108,33.2108,0,0,0,276.75,277a32.63732,32.63732,0,0,0,8.5-4.75" transform="translate(-132.41591 -153.125)" style="fill:none;stroke:#1d1d1b;stroke-miterlimit:10;stroke-width:2px"/><path d="M292.875,264.5a52.74292,52.74292,0,0,1,20.5,1.125" transform="translate(-132.41591 -153.125)" style="fill:none;stroke:#1d1d1b;stroke-miterlimit:10;stroke-width:2px"/><path d="M278.56249,247.9375a12.9096,12.9096,0,0,1,2.375-1.5,13.60033,13.60033,0,0,1,5.18751-1.125c5.29059-.08688,14.86188,4.35008,20.31249,13.4375.45646.761.7935,1.40372,1,1.8125A57.37159,57.37159,0,0,0,282.875,258.625a10.41812,10.41812,0,0,1-1.125-4.60417c.00241-4.06539,2.643-6.81558,1.75-7.64583-.6304-.58607-2.52133.24966-3.22916.5625A9.09421,9.09421,0,0,0,278.56249,247.9375Z" transform="translate(-132.41591 -153.125)" style="fill:#fecb2c;stroke:#1d1d1b;stroke-miterlimit:10;stroke-width:2px"/><path d="M290.375,246.25a5.98415,5.98415,0,0,0-1.33334,3.16667,6.50087,6.50087,0,0,0,2.04168,5.125A7.19137,7.19137,0,0,1,292.5,249.75a6.69408,6.69408,0,0,1,1.91666-1.66667Z" transform="translate(-132.41591 -153.125)" style="fill:#1d1d1b;stroke:#1d1d1b;stroke-miterlimit:10"/><path d="M310,237.1875c.322-.6577,3.42712-6.78156,9.06249-7.625a9.16717,9.16717,0,0,1,4.93751.5,9.36856,9.36856,0,0,1,3.625,2.8125c3.59439,4.22011,6.45978,10.39459,7.375,12.43625" transform="translate(-132.41591 -153.125)" style="fill:none;stroke:#1d1d1b;stroke-miterlimit:10;stroke-width:2px"/><path d="M279.5,275.9375a22.49449,22.49449,0,0,1-13.75,3.25A49.94385,49.94385,0,0,0,277.625,291.75a51.962,51.962,0,0,0,29.29166,9.91666A45.54534,45.54534,0,0,1,286.375,287.625,44.01746,44.01746,0,0,1,279.5,275.9375Z" transform="translate(-132.41591 -153.125)" style="fill:#fff"/><path d="M394.66666,269.19852A37.05746,37.05746,0,0,1,402.93749,269a15.45387,15.45387,0,0,1,5.43751,1.1875,13.71977,13.71977,0,0,1,4.56249,3.875c2.50218,2.87357,4.34724,4.99246,4.31251,7.9375a8.61269,8.61269,0,0,1-2.33334,5.5c-1.47144,1.53745-3.72693,2.57715-13.83332,2.41666-8.55075-.13581-10.54876-.93744-16.33334-.33332a68.24758,68.24758,0,0,0-8.33334,1.58332c-22.226,4.902-22.77753,5.16885-25.47917,5.14584-9.06045-.07721-9.37151-3.18524-16.27083-1.8125-5.53778,1.10184-7.60654,3.53989-14.5,5.5a44.64874,44.64874,0,0,1-13.25,1.66666A50.46649,50.46649,0,0,1,287.06249,287.75,49.3697,49.3697,0,0,1,279.5,275.9375a28.40954,28.40954,0,0,1-13.75,3.25A48.96977,48.96977,0,0,0,279.66666,293.5a49.8299,49.8299,0,0,0,27,8.33334" transform="translate(-132.41591 -153.125)" style="fill:none;stroke:#1d1d1b;stroke-miterlimit:10;stroke-width:2px"/><path d="M298.13046,239.1949a27.94254,27.94254,0,0,1,13.70288-1.36157,28.42588,28.42588,0,0,1,16,8.41667" transform="translate(-132.41591 -153.125)" style="fill:none;stroke:#1d1d1b;stroke-miterlimit:10;stroke-width:2px"/><path d="M322.58331,249a20.68,20.68,0,0,1,12.25-3.33333c8.87937.48046,14.13489,6.76378,15,7.83333" transform="translate(-132.41591 -153.125)" style="fill:none;stroke:#1d1d1b;stroke-miterlimit:10;stroke-width:2px"/><path d="M344.16666,255.5a30.84861,30.84861,0,0,1,27,1.47839" transform="translate(-132.41591 -153.125)" style="fill:none;stroke:#1d1d1b;stroke-miterlimit:10;stroke-width:2px"/><path d="M366.625,259.75a26.55837,26.55837,0,0,1,35.37891,9.18" transform="translate(-132.41591 -153.125)" style="fill:none;stroke:#1d1d1b;stroke-miterlimit:10;stroke-width:2px"/><path d="M352.25,304.25c2.58932,1.11426,16.604,6.8436,31.75.25a39.34566,39.34566,0,0,0,17.08334-14.58334" transform="translate(-132.41591 -153.125)" style="fill:none;stroke:#1d1d1b;stroke-miterlimit:10;stroke-width:2px"/><path d="M313.375,313c5.36322,2.14078,16.06445,5.59891,28,3.75a65.69923,65.69923,0,0,0,13.875-4,66.56385,66.56385,0,0,0,10-5.129" transform="translate(-132.41591 -153.125)" style="fill:none;stroke:#1d1d1b;stroke-miterlimit:10;stroke-width:2px"/><path d="M401.95834,268.625a5.681,5.681,0,0,1,.85415-4.5A4.52878,4.52878,0,0,1,405.75,262.25c2.53589-.13687,5.4317,4.6701,7.18749,11.8125" transform="translate(-132.41591 -153.125)" style="fill:none;stroke:#1d1d1b;stroke-miterlimit:10;stroke-width:2px"/><path d="M388,272.8125a17.464,17.464,0,0,0-5.875-4.4375c-3.62637-1.66083-9.85272-2.92926-11.68751-.25-1.285,1.8765.05943,4.99542.25,5.4375a8.13025,8.13025,0,0,0,2.75,3.375" transform="translate(-132.41591 -153.125)" style="fill:none;stroke:#1d1d1b;stroke-miterlimit:10;stroke-width:2px"/><path d="M298.33334,300.41666l-5.375-2.83332L292.06249,295.5H288.75q-.29169-1.29166-.58334-2.58334l-3.08332-.20832-.29168-2.625q-1.5-.20832-3-.41668l.14583-2.54166L277.91666,287q.125-1.3125.25-2.625-1.73959-.43749-3.47917-.875l1.72917-3.20834" transform="translate(-132.41591 -153.125)" style="fill:#fff;stroke:#1d1d1b;stroke-miterlimit:10;stroke-width:0.5px"/><path d="M385.83334,276.25a13.75376,13.75376,0,0,0-4.66668-4.375c-2.49231-1.40033-6.33371-2.47229-7.16666-1.29166-.52542.74475.14233,2.39136,1.20834,3.20832,1.18756.91012,2.513.51751,4.375.58334A13.56182,13.56182,0,0,1,385.83334,276.25Z" transform="translate(-132.41591 -153.125)" style="fill:#1d1d1b"/><path d="M307.56249,301.1875a24.32543,24.32543,0,0,1-.125-8.1875,23.68734,23.68734,0,0,1,.5-2.375A46.31186,46.31186,0,0,0,314,301a23.72117,23.72117,0,0,1-6.43751.1875Z" transform="translate(-132.41591 -153.125)" style="fill:#fff;stroke:#1d1d1b;stroke-miterlimit:10"/><path d="M382.96838,289.32721q-1.81251-3.125-3.625-6.25a12.25034,12.25034,0,0,0-.3125,7.0625Q380.99963,289.73344,382.96838,289.32721Z" transform="translate(-132.41591 -153.125)" style="fill:#fff;stroke:#1d1d1b;stroke-miterlimit:10"/><path d="M338.87106,293.59873a11.37455,11.37455,0,0,1,1.31644-8.05706,28.23369,28.23369,0,0,0,1.5,4.6875c.207.48739.36649.86291.625,1.375a23.48331,23.48331,0,0,0,1.54687,2.85937c.05195.06427.228.27622.17325.35233-.0437.06079-.2142.0065-.29611-.0188-.6795-.21-1.39148-.29694-2.08026-.47415-.1521-.03913-.02173-.0047-.39032-.09842C340.70459,294.08174,339.89954,293.874,338.87106,293.59873Z" transform="translate(-132.41591 -153.125)" style="fill:#fff;stroke:#1d1d1b;stroke-miterlimit:10"/><path d="M412.875,289.3125q.43749,2.32814.875,4.65625a10.57783,10.57783,0,0,0,2.09375-6.71875,19.637,19.637,0,0,1-1.65626,1.25C413.73456,288.80566,413.29459,289.075,412.875,289.3125Z" transform="translate(-132.41591 -153.125)" style="fill:#fff;stroke:#1d1d1b;stroke-miterlimit:10"/><path d="M389.65625,289.78125a12.06953,12.06953,0,0,0,.5,2.03125A12.23394,12.23394,0,0,0,392.125,295.427q.59376-2.71348,1.18749-5.427Z" transform="translate(-132.41591 -153.125)" style="fill:#fff;stroke:#1d1d1b;stroke-miterlimit:10"/><path d="M411.21875,290.125q-.625,1.95314-1.25,3.90625-.60939-1.81251-1.21875-3.625Z" transform="translate(-132.41591 -153.125)" style="fill:#fff;stroke:#1d1d1b;stroke-miterlimit:10;stroke-width:0.5px"/><path d="M407.1116,290.45459l-1.33035,4.07666-1.25391-3.97818Z" transform="translate(-132.41591 -153.125)" style="fill:#fff;stroke:#1d1d1b;stroke-miterlimit:10;stroke-width:0.5px"/><path d="M402.875,290.59375q-.71874,1.96875-1.43751,3.9375-.625-1.96875-1.25-3.9375Z" transform="translate(-132.41591 -153.125)" style="fill:#fff;stroke:#1d1d1b;stroke-miterlimit:10;stroke-width:0.5px"/><path d="M398.43749,290.53125q-.7656,2.14064-1.53124,4.28125-.67186-2.20312-1.34376-4.40625Z" transform="translate(-132.41591 -153.125)" style="fill:#fff;stroke:#1d1d1b;stroke-miterlimit:10;stroke-width:0.5px"/><path d="M337.31607,293.6754q-1.26219-2.28561-2.52441-4.57122a8.43987,8.43987,0,0,0-.95832,3.20831,8.30273,8.30273,0,0,0,.04166,1.83334Q335.59554,293.91063,337.31607,293.6754Z" transform="translate(-132.41591 -153.125)" style="fill:#fff;stroke:#1d1d1b;stroke-miterlimit:10"/><path d="M333.73666,294.2358q-1.6-2.06323-3.20014-4.12648a8.43971,8.43971,0,0,0-.45129,3.31782,8.30269,8.30269,0,0,0,.32431,1.80491Q332.07312,294.73395,333.73666,294.2358Z" transform="translate(-132.41591 -153.125)" style="fill:#fff;stroke:#1d1d1b;stroke-miterlimit:10"/><path d="M276.81249,494.625a4.49112,4.49112,0,0,0-2.06249,2.41666c-.43607,1.37835.07819,2.61642.68749,4.08334.52824,1.2717.75645,1.93518,1.43751,2.3125a4.74508,4.74508,0,0,0,2.70834.22916,11.16687,11.16687,0,0,0,1.625-.25" transform="translate(-132.41591 -153.125)" style="fill:none;stroke:#1d1d1b;stroke-miterlimit:10;stroke-width:2px"/><path d="M264.91666,452.33334a7.51537,7.51537,0,0,0,.95834,4.70832" transform="translate(-132.41591 -153.125)" style="fill:none;stroke:#1d1d1b;stroke-miterlimit:10"/><path d="M261.06249,250.6875c-8.20118,2.0643-12.44027,6.09329-14.39582,8.376-1.01423,1.1839-3.83,4.56106-3,6.24356,1.02835,2.08444,7.39046.12372,10.45833-.93418a33.19957,33.19957,0,0,0,2.46875-3.90222c.71088-1.31759,1.08765-2.22854,1.90625-4.09564C259.08279,255.04573,259.94986,253.09422,261.06249,250.6875Z" transform="translate(-132.41591 -153.125)" style="fill:#c46453;stroke:#1d1d1b;stroke-miterlimit:10;stroke-width:2px"/><path d="M343.68558,441.99374a6.65081,6.65081,0,0,1-1.0625,3.14953" transform="translate(-132.41591 -153.125)" style="fill:none;stroke:#1d1d1b;stroke-miterlimit:10"/><path d="M336.54166,479a4.155,4.155,0,0,0,3.25-1.125c.98236-1.10583.87533-2.70706.79168-3.95834a8.83535,8.83535,0,0,0-.27353-1.66666" transform="translate(-132.41591 -153.125)" style="fill:none;stroke:#1d1d1b;stroke-miterlimit:10;stroke-width:2px"/><path d="M338.31249,479.34375a20.96937,20.96937,0,0,1-.06249,5.44791" transform="translate(-132.41591 -153.125)" style="fill:none;stroke:#1d1d1b;stroke-miterlimit:10;stroke-width:2px"/><path d="M217.16667,484.33334a165.62386,165.62386,0,0,0,43.68315-7.40414" transform="translate(-132.41591 -153.125)" style="fill:none;stroke:#1d1d1b;stroke-miterlimit:10"/><path d="M245.125,287.4375a30.17962,30.17962,0,0,0-14.5786,9.72672c-1.65082,2.01-4.26433,5.3132-3.48341,6.829,1.227,2.38162,10.53976-.28186,11.90576-.68076,1.05194-1.6557,1.93256-2.98389,2.53125-3.875,1.97687-2.94244,2.38188-3.355,2.78125-4.59375a19.57844,19.57844,0,0,0,.65624-4.25C245.062,289.28305,245.10716,288.19223,245.125,287.4375Z" transform="translate(-132.41591 -153.125)" style="fill:#c46453;stroke:#1d1d1b;stroke-miterlimit:10;stroke-width:2px"/><path d="M230.03125,319.5625c-8.68637,1.973-13.49361,6.08853-15.83054,8.552-1.42,1.49686-4.324,4.5582-3.48341,6.1846,1.07224,2.07453,7.71831.811,13.689-.76785q.84257-2.19228,1.71875-4.40625Q228.05415,324.25138,230.03125,319.5625Z" transform="translate(-132.41591 -153.125)" style="fill:#c46453;stroke:#1d1d1b;stroke-miterlimit:10;stroke-width:2px"/><path d="M232.4996,360.02783A65.64276,65.64276,0,0,1,220.25,400.75" transform="translate(-132.41591 -153.125)" style="fill:none;stroke:#1d1d1b;stroke-miterlimit:10;stroke-width:2px"/><path d="M219.5,349.25a67.26944,67.26944,0,0,0-15.25,48.25" transform="translate(-132.41591 -153.125)" style="fill:none;stroke:#1d1d1b;stroke-miterlimit:10;stroke-width:2px"/><path d="M312.9819,381.33334a17.78125,17.78125,0,0,1,5.43476-2.91668" transform="translate(-132.41591 -153.125)" style="fill:none;stroke:#1d1d1b;stroke-miterlimit:10"/><path d="M291,379.66666c1.24411.12759,2.58316.3146,4,.58334,1.63754.31058,3.14136.68524,4.5,1.08334" transform="translate(-132.41591 -153.125)" style="fill:none;stroke:#1d1d1b;stroke-miterlimit:10"/><path d="M289.58334,371.58334A35.9591,35.9591,0,0,1,300.5,378.90417" transform="translate(-132.41591 -153.125)" style="fill:none;stroke:#1d1d1b;stroke-miterlimit:10"/><path d="M323.50186,368.33334a27.55263,27.55263,0,0,0-7.3352,6,27.27832,27.27832,0,0,0-3.18476,4.57083" transform="translate(-132.41591 -153.125)" style="fill:none;stroke:#1d1d1b;stroke-miterlimit:10"/><path d="M270.83334,484.75a12.61281,12.61281,0,0,0,.41666,4.08334,8.53133,8.53133,0,0,0,2.5,4.58332c1.39508,1.10742,2.98969,1.105,5.91666,1,5.47284-.1962,9.84253-.5441,11.58334-.66666,3.65659-.25745,2.90118-.03552,9.125-.375,6.9277-.37787,9.15189-.73157,10.875-2.4375a8.06245,8.06245,0,0,0,2.125-4.1875,5.70228,5.70228,0,0,0,2.29166,2.91666c1.93948,1.1792,4.35229.70318,7.91668,0,1.05176-.20749,1.90375-.42893,2.45832-.58332" transform="translate(-132.41591 -153.125)" style="fill:none;stroke:#1d1d1b;stroke-miterlimit:10;stroke-width:2px"/><path d="M279.58334,503.70834A297.114,297.114,0,0,0,317.31249,492.375c4.29689-1.631,14.45109-5.62589,29.06251-10.5625,3.41577-1.154,6.2403-2.07751,8.125-2.6875" transform="translate(-132.41591 -153.125)" style="fill:#9d9d9c;stroke:#1d1d1b;stroke-miterlimit:10;stroke-width:2px"/><path d="M229,468.33334q14.25-.66668,28.5-1.33334" transform="translate(-132.41591 -153.125)" style="fill:none;stroke:#1d1d1b;stroke-miterlimit:10"/><line x1="154.64658" y1="312.25092" x2="164.27321" y2="306.6875" style="fill:none;stroke:#1d1d1b;stroke-miterlimit:10"/><line x1="150.08409" y1="316.875" x2="165.01289" y2="321.95833" style="fill:none;stroke:#1d1d1b;stroke-miterlimit:10"/><path d="M282.83334,518.83331c-5.85168-2.48675-11.99038-5.34759-18.33334-8.64581A261.28563,261.28563,0,0,1,237,493.66666" transform="translate(-132.41591 -153.125)" style="fill:none;stroke:#1d1d1b;stroke-miterlimit:10;stroke-width:2px"/><g id="af529622-3001-4dde-80ed-10065b3afcbf" data-name="lunettes"><path d="M390.24451,251.84857a6.03761,6.03761,0,0,0-4.13379.93945,6.285,6.285,0,0,0-2.517,3.30573,28.01527,28.01527,0,0,1,10.85974,4.32043,5.87647,5.87647,0,0,0,.47791-1.559A5.96536,5.96536,0,0,0,390.24451,251.84857Z" transform="translate(-132.41591 -153.125)" style="fill:#b3b3b3;opacity:0.7000000000000001"/><path d="M394.3388,260.38859a6.44648,6.44648,0,0,0,.46692-1.53351,5.78167,5.78167,0,0,0-11.2611-2.6264,26.5895,26.5895,0,0,1,10.79418,4.15991Z" transform="translate(-132.41591 -153.125)" style="fill:none;stroke:#1d1d1b;stroke-miterlimit:10"/><path d="M371.41778,266.67907a7.66786,7.66786,0,0,1,2.6875-.5625,7.51657,7.51657,0,0,1,1.90247.19654,7.14216,7.14216,0,0,0,.69446-2.079,6.83531,6.83531,0,1,0-7.9068,5.75989c.09588.01624.19092.02143.2865.03345a4.67309,4.67309,0,0,1,.36712-1.19208A5.15479,5.15479,0,0,1,371.41778,266.67907Z" transform="translate(-132.41591 -153.125)" style="fill:#b3b3b3;opacity:0.7000000000000001"/><path d="M376.16894,265.96771a6.866,6.866,0,0,1-7.02179,4.06732,5.06937,5.06937,0,0,0,.21857,1.67529l10.70831-.1875q.11463-2.2813.22919-4.5625A16.796,16.796,0,0,0,376.16894,265.96771Z" transform="translate(-132.41591 -153.125)" style="fill:none"/><path d="M370.73608,266.99414a6.26653,6.26653,0,0,1,1.70978-.80787,7.95739,7.95739,0,0,1,2.22748-.27447,13.19583,13.19583,0,0,1,1.44238.04852c.01819.00165.035.00568.05322.00739a7.1481,7.1481,0,0,0,.53327-1.73365,6.83531,6.83531,0,1,0-7.9068,5.75989c.11774.02.2345.02747.35174.04108a3.872,3.872,0,0,1,1.58893-3.04089Z" transform="translate(-132.41591 -153.125)" style="fill:none;stroke:#1d1d1b;stroke-miterlimit:10"/><path d="M376.16894,265.96771c-.01818-.00171-.035-.00574-.05322-.00739a13.19583,13.19583,0,0,0-1.44238-.04852,7.95739,7.95739,0,0,0-2.22748.27447,6.26653,6.26653,0,0,0-1.70978.80787,3.872,3.872,0,0,0-1.58893,3.04089A6.866,6.866,0,0,0,376.16894,265.96771Z" transform="translate(-132.41591 -153.125)" style="fill:none"/><path d="M385.14935,253.313a8.23147,8.23147,0,0,0-11.27274,4.17526" transform="translate(-132.41591 -153.125)" style="fill:none;stroke:#1d1d1b;stroke-miterlimit:10"/></g><path d="M334.25,412.75l-43.98929,5.52365-1.97244-26.5936,44.52978-3.30279Q333.534,400.56362,334.25,412.75Z" transform="translate(-132.41591 -153.125)" style="fill:#9d9d9c;stroke:#1d1d1b;stroke-miterlimit:10;stroke-width:2px"/><path d="M288.56709,417.60545q-3.91318-2.906-7.82634-5.812-.63831-11.98562-1.27658-23.97124,3.84,1.6371,7.67988,3.27422Q287.85559,404.35092,288.56709,417.60545Z" transform="translate(-132.41591 -153.125)" style="fill:#9d9d9c;stroke:#1d1d1b;stroke-miterlimit:10;stroke-width:2px"/><path d="M331.82719,386.98841q-21.63906,1.66763-43.2781,3.33529l-8.29245-3.64662q22.01823-1.69575,44.03643-3.39154Q328.06014,385.137,331.82719,386.98841Z" transform="translate(-132.41591 -153.125)" style="fill:#9d9d9c;stroke:#1d1d1b;stroke-miterlimit:10"/><ellipse cx="165.00215" cy="232.77175" rx="2.79167" ry="0.90373" style="fill:#1d1d1b;stroke:#1d1d1b;stroke-miterlimit:10;stroke-width:0.25px"/><path d="M300.22781,387.76892a5.09049,5.09049,0,0,1-5.57647.03137l-.02155-1.90491a4.9553,4.9553,0,0,0,5.57645-.02649Z" transform="translate(-132.41591 -153.125)" style="fill:#1d1d1b;stroke:#1d1d1b;stroke-miterlimit:10;stroke-width:0.25px"/><ellipse cx="158.53501" cy="233.20969" rx="2.79167" ry="0.90373" style="fill:#1d1d1b;stroke:#1d1d1b;stroke-miterlimit:10;stroke-width:0.25px"/><path d="M293.76068,388.20685a5.09046,5.09046,0,0,1-5.57648.03137l-.02154-1.9049a4.95534,4.95534,0,0,0,5.57645-.02649Z" transform="translate(-132.41591 -153.125)" style="fill:#1d1d1b;stroke:#1d1d1b;stroke-miterlimit:10;stroke-width:0.25px"/><path d="M312.9819,390.63916l18.84528-1.26953L333.5,412.11752l-33.625,4.92414c1.19113-.55991,2.938-1.35746,5.08334-2.25a48.57042,48.57042,0,0,1,6.58332-2.45832c4.539-1.12872,5.13809.17731,8.20834-1.01788a10.528,10.528,0,0,0,5.91666-5.25c.09073-.20077,1.83749-4.22681-.16666-7.66666a8.73232,8.73232,0,0,0-3.16666-2.91668A52.32578,52.32578,0,0,0,312.9819,390.63916Z" transform="translate(-132.41591 -153.125)" style="fill:#1d1d1b;opacity:0.5"/><path d="M327.17005,402.54919c.10489,5.57559-4.5367,8.65775-4.79718,8.82426a9.43184,9.43184,0,0,1-3.16859,1.242c-1.65244.36985-3.14184.18382-6.05314-.20332a14.57214,14.57214,0,0,1-4.684-1.0497,9.35984,9.35984,0,0,1-3.09235-2.38973,10.50448,10.50448,0,0,1-2.47173-6.17694,10.2628,10.2628,0,0,1,3.46114-8.43,8.96149,8.96149,0,0,1,4.36272-1.75255,25.67742,25.67742,0,0,1,3.45551-.06266c.60485.009,1.0732.032,1.43343.05606,0,0,.48929.02882.98685.07167a25.82823,25.82823,0,0,1,3.431.442,8.51336,8.51336,0,0,1,3.47191,1.86794A10.42091,10.42091,0,0,1,327.17005,402.54919Z" transform="translate(-132.41591 -153.125)" style="fill:#878787;stroke:#1d1d1b;stroke-miterlimit:10;stroke-width:0.5px"/><path d="M303.66087,399.39756a4.05521,4.05521,0,0,1,2.76172-2.17189,2.58776,2.58776,0,0,1,.69181.0231,17.07069,17.07069,0,0,0-.05352,4.74688,16.83776,16.83776,0,0,0,1.79691,5.67783,11.21171,11.21171,0,0,1,1.46553-11.37286,9.98785,9.98785,0,0,1,5.86868-3.282,18.61352,18.61352,0,0,0-4.07464-.22483,10.67358,10.67358,0,0,0-4.495.88411C304.90683,395.08676,303.94638,398.26577,303.66087,399.39756Z" transform="translate(-132.41591 -153.125)" style="fill:#706f6f"/><path d="M304.04583,406.26249a5.99707,5.99707,0,0,0,3.18538,2.97276,4.85446,4.85446,0,0,0,1.054.24067,5.78992,5.78992,0,0,1,.30108-2.16609,11.28587,11.28587,0,0,0,2.05962,2.98411,10.53712,10.53712,0,0,0,1.14664.99474,9.72193,9.72193,0,0,0,1.354.84,11.391,11.391,0,0,1-2.2788-.23188,9.84816,9.84816,0,0,1-1.75522-.51041,9.10272,9.10272,0,0,1-3.024-2.01442A9.39543,9.39543,0,0,1,304.04583,406.26249Z" transform="translate(-132.41591 -153.125)" style="fill:#706f6f"/><path d="M314.06249,394.5625a8.64238,8.64238,0,1,1,1.55976,17.09915,10.18055,10.18055,0,0,0,7.62665-1.75839,9.58628,9.58628,0,0,0,3.92291-7.30164,9.315,9.315,0,0,0-7.23083-8.87411A9.16283,9.16283,0,0,0,314.06249,394.5625Z" transform="translate(-132.41591 -153.125)" style="fill:#575756"/><ellipse cx="184.34619" cy="249.82696" rx="8.4879" ry="8.85011" style="fill:#1d1d1b"/><ellipse cx="317.74221" cy="402.70247" rx="9.46884" ry="9.41667" transform="translate(-137.72327 -148.88001) rotate(-0.75911)" style="fill:none;stroke:#1d1d1b;stroke-miterlimit:10"/><path d="M318.26009,410.01542a9.20924,9.20924,0,0,1-7.90853-8.98323,6.58839,6.58839,0,0,0,1.34139,8.13148A6.48427,6.48427,0,0,0,318.26009,410.01542Z" transform="translate(-132.41591 -153.125)" style="fill:#fff"/><path d="M315.53125,396.66973a8.36163,8.36163,0,0,1,7.80749,6.04408,5.499,5.499,0,0,0-2.59695-6.042A5.22663,5.22663,0,0,0,315.53125,396.66973Z" transform="translate(-132.41591 -153.125)" style="fill:#fff"/><path d="M303.51785,381.42868q1.46113,1.16717,2.92227,2.33435l.33381,4.555q4.37863-.34652,8.75732-.69308-.25-2.35936-.5-4.71875-1.67189-1.04686-3.34376-2.09375Q307.60269,381.12057,303.51785,381.42868Z" transform="translate(-132.41591 -153.125)" style="fill:#9d9d9c;stroke:#1d1d1b;stroke-miterlimit:10;stroke-width:0.5px"/><path d="M303.73438,386.375q1.272.85955,2.54406,1.71912-.13054-2.14674-.26114-4.29349-1.40707-1.01753-2.81417-2.035Q303.46877,384.07032,303.73438,386.375Z" transform="translate(-132.41591 -153.125)" style="fill:#9d9d9c;stroke:#1d1d1b;stroke-miterlimit:10;stroke-width:0.5px"/><line x1="174.02421" y1="230.63803" x2="182.61534" y2="229.78125" style="fill:none;stroke:#1d1d1b;stroke-miterlimit:10;stroke-width:0.5px"/><path d="M314.39584,386.8125l-6.70835.60416L307.5,384.6875l6.60416-.60416Z" transform="translate(-132.41591 -153.125)" style="fill:#9d9d9c"/><path d="M314.39584,386.8125l-6.70835.60416L307.5,384.6875l6.60416-.60416Z" transform="translate(-132.41591 -153.125)" style="fill:#ffed00;opacity:0.30000000000000004"/><path d="M315.76563,387.85938c1.34191-.1525,2.37957-.20215,3.09375-.21875.3999-.00928.68692-.00794.76562-.17188.18643-.38828-.93576-1.41162-2.03125-1.95312a5.59007,5.59007,0,0,0-2.20312-.5625Z" transform="translate(-132.41591 -153.125)" style="fill:#1d1d1b;opacity:0.5"/><g id="a7da43e0-b28f-4135-a461-f577f11e476c" data-name="stylo"><path d="M357.90625,478.71875a37.18759,37.18759,0,0,0-2.69788-3.42712q-1.04167-.89585-2.08337-1.79163l-7.76117-9.54517q-2.52695-.07754-5.054-.15521,4.97013,5.62107,9.94019,11.242.25031,1.16665.50049,2.33337a13.11961,13.11961,0,0,0,3.0412,3.8125,6.56509,6.56509,0,0,1,2.79168.25,7.67419,7.67419,0,0,1,1.79163.89581,14.64719,14.64719,0,0,1,3,2.54169A37.27756,37.27756,0,0,0,357.90625,478.71875Z" transform="translate(-132.41591 -153.125)"/><path d="M335.82733,452.22638,321.61719,434.75a12.57508,12.57508,0,0,0-3.7005.91663c-.18756.07843-.35321.16339-.5271.24609-.07337.05457-.14551.109-.23334.16541a4.59448,4.59448,0,0,1-.94788.4635q6.65479,7.52635,13.30951,15.05261c1.40546.13122,2.80847.26062,4.23212.40576C334.45074,452.07141,335.13159,452.15247,335.82733,452.22638Z" transform="translate(-132.41591 -153.125)"/><path d="M317.38959,435.91272a6.57435,6.57435,0,0,0,.70416-.63147,5.0665,5.0665,0,0,1,2.59374-1.0625A9.134,9.134,0,0,1,323,434a43.45687,43.45687,0,0,1,2.84375,3.71875c.658.96545.98895,1.53741,2.1875,3.40625.84558,1.31842,1.5481,2.38605,2.01044,3.08331a3.24281,3.24281,0,0,0,2.33331.83332q-4.57809-6.19272-9.15625-12.38538a16.93784,16.93784,0,0,0-8.03126,2.75q.51042.56772,1.02088,1.13538a4.59448,4.59448,0,0,0,.94788-.4635C317.24408,436.02173,317.31622,435.96729,317.38959,435.91272Z" transform="translate(-132.41591 -153.125)" style="fill:#333"/><path d="M350.31249,475.04166a4.52807,4.52807,0,0,0,.06251,1.19272,3.36211,3.36211,0,0,0,.37549,1.14062,13.99694,13.99694,0,0,0,3.0412,3.8125,6.47792,6.47792,0,0,1,1.82007.0419,7.777,7.777,0,0,1,2.67648,1.08826A13.204,13.204,0,0,1,361.375,484.875c-1.26328-2.46381-2.44058-4.48706-3.39062-6.03125a13.66383,13.66383,0,0,0-2.923-3.65472,11.77988,11.77988,0,0,0-2.3114-1.52237Z" transform="translate(-132.41591 -153.125)" style="fill:#9d9d9c;stroke:#1d1d1b;stroke-miterlimit:10"/><path d="M353.89584,476.08334c.38446.32053,1.0036.85639,1.7157,1.57157a41.923,41.923,0,0,1,3.95316,4.86273,25.25165,25.25165,0,0,0,1.83114,2.4407,22.17768,22.17768,0,0,0-3.41937-5.82891,24.69354,24.69354,0,0,0-2.8826-3.26276c-.01584.01349.30646.39007.77649,1.12155q.16813.26166.32157.51767c-.20551-.15939-.42493-.31964-.65882-.47842A12.91206,12.91206,0,0,0,353.89584,476.08334Z" transform="translate(-132.41591 -153.125)" style="fill:#1d1d1b"/></g><path d="M241.58333,456.41666a105.62823,105.62823,0,0,0-2.16062-35.47165,64.22041,64.22041,0,0,1-6.29771,35.54977,43.58773,43.58773,0,0,1,5.04167-.24478C239.37538,456.26141,240.51688,456.32257,241.58333,456.41666Z" transform="translate(-132.41591 -153.125)" style="fill:#1d1d1b"/><path d="M279.54166,504a6.29836,6.29836,0,0,0-.91666,2.79166,5.28536,5.28536,0,0,0,1.25,4.16668,5.03806,5.03806,0,0,0,3.54166,1.45835,4.00035,4.00035,0,0,0-1.625,3.04162c.10437,1.82776,2.10885,3.59687,4.79168,3.5" transform="translate(-132.41591 -153.125)" style="fill:none;stroke:#1d1d1b;stroke-miterlimit:10;stroke-width:2px"/></svg>