<svg xmlns="http://www.w3.org/2000/svg" xmlns:xlink="http://www.w3.org/1999/xlink" viewBox="0 0 5636.00381 1046.30882"><defs><radialGradient id="b674c249-6175-4228-be4b-de8c0d79515d" cx="876.77792" cy="502" r="712.73635" gradientTransform="translate(5.79009 38.30183) scale(3.21371 1)" gradientUnits="userSpaceOnUse"><stop offset="0.00403" stop-color="#fff" stop-opacity="0"/><stop offset="1" stop-color="#231f20" stop-opacity="0.3"/></radialGradient><radialGradient id="fdafb6b3-a6aa-44c9-bff2-62625c47b6cf" cx="2686.99908" cy="573.87188" r="224.14276" gradientTransform="translate(-489.31774 -51.5203) scale(1.19979 1.12067)" gradientUnits="userSpaceOnUse"><stop offset="0.1"/><stop offset="0.11244" stop-color="#080602"/><stop offset="0.16172" stop-color="#231b08"/><stop offset="0.21838" stop-color="#392c0d"/><stop offset="0.28458" stop-color="#4a3910"/><stop offset="0.36644" stop-color="#554213"/><stop offset="0.48125" stop-color="#5c4815"/><stop offset="0.8" stop-color="#5e4915"/><stop offset="1"/></radialGradient><radialGradient id="be6e95a8-9dbb-4af9-a67f-10f950ac8bf2" cx="2921.40258" cy="339.46845" r="7.47143" gradientTransform="translate(-489.31774 -51.5203) scale(1.19979 1.12067)" gradientUnits="userSpaceOnUse"><stop offset="0" stop-color="#d4e194"/><stop offset="0.05952" stop-color="#afba7a"/><stop offset="0.13651" stop-color="#868f5e"/><stop offset="0.21955" stop-color="#626845"/><stop offset="0.30759" stop-color="#44482f"/><stop offset="0.40211" stop-color="#2b2e1e"/><stop offset="0.50556" stop-color="#181911"/><stop offset="0.62249" stop-color="#0a0b07"/><stop offset="0.76429" stop-color="#020302"/><stop offset="1"/></radialGradient><radialGradient id="e13b98d2-a28d-40a2-8b84-e28ca7f6aa06" cx="3017.19254" cy="243.67838" r="7.47143" xlink:href="#be6e95a8-9dbb-4af9-a67f-10f950ac8bf2"/><radialGradient id="b4827f24-06ad-40ea-adc1-733d3b8db2c3" cx="3003.98469" cy="256.88611" r="56.03569" gradientTransform="translate(-489.31774 -51.5203) scale(1.19979 1.12067)" gradientUnits="userSpaceOnUse"><stop offset="0.05"/><stop offset="0.09242" stop-color="#040a03"/><stop offset="0.29802" stop-color="#183411"/><stop offset="0.48337" stop-color="#25531c"/><stop offset="0.64031" stop-color="#2e6622"/><stop offset="0.75" stop-color="#316d24"/><stop offset="0.78593" stop-color="#4f6e16"/><stop offset="0.83397" stop-color="#716f06"/><stop offset="0.86" stop-color="#7e6f00"/><stop offset="0.88764" stop-color="#7a6c00"/><stop offset="0.91229" stop-color="#706200"/><stop offset="0.93581" stop-color="#5d5200"/><stop offset="0.95863" stop-color="#443c00"/><stop offset="0.98074" stop-color="#231f00"/><stop offset="1"/></radialGradient><radialGradient id="e9dcdb81-cef6-47a0-9ab9-02e1e9902995" cx="2753.03771" cy="507.83317" r="149.42851" gradientTransform="translate(-489.31774 -51.5203) scale(1.19979 1.12067)" gradientUnits="userSpaceOnUse"><stop offset="0" stop-color="#200"/><stop offset="0.73" stop-color="#984023"/><stop offset="1" stop-color="#200"/></radialGradient><radialGradient id="baba4d42-b824-4701-a138-b559e45c0bd9" cx="2753.03771" cy="507.83317" r="74.71425" gradientTransform="translate(-489.31774 -51.5203) scale(1.19979 1.12067)" gradientUnits="userSpaceOnUse"><stop offset="0.15" stop-color="#fff"/><stop offset="0.20939" stop-color="#e5d3d3"/><stop offset="0.29044" stop-color="#c49c9e"/><stop offset="0.36051" stop-color="#ad7477"/><stop offset="0.41599" stop-color="#9e5c5f"/><stop offset="0.45" stop-color="#995356"/><stop offset="0.57175" stop-color="#6b3335"/><stop offset="0.69355" stop-color="#431718"/><stop offset="0.79053" stop-color="#2b0606"/><stop offset="0.85" stop-color="#200"/><stop offset="0.85727" stop-color="#260201"/><stop offset="0.8648" stop-color="#330704"/><stop offset="0.87246" stop-color="#471009"/><stop offset="0.8802" stop-color="#641d0f"/><stop offset="0.88801" stop-color="#8a2e18"/><stop offset="0.89577" stop-color="#b74223"/><stop offset="0.9" stop-color="#d34e29"/><stop offset="0.90254" stop-color="#c84927"/><stop offset="0.91417" stop-color="#9c361c"/><stop offset="0.92635" stop-color="#772514"/><stop offset="0.93893" stop-color="#58180c"/><stop offset="0.95205" stop-color="#400d07"/><stop offset="0.96594" stop-color="#2f0603"/><stop offset="0.98111" stop-color="#250101"/><stop offset="1" stop-color="#200"/></radialGradient><radialGradient id="a220d972-9ce2-4e70-94b8-cd1fdb7fb5ff" cx="2753.03771" cy="507.83317" r="62.26188" gradientTransform="translate(-489.31774 -51.5203) scale(1.19979 1.12067)" gradientUnits="userSpaceOnUse"><stop offset="0.15" stop-color="#fff"/><stop offset="0.28237" stop-color="#c2c2c2"/><stop offset="0.42528" stop-color="#888"/><stop offset="0.5636" stop-color="#575757"/><stop offset="0.69361" stop-color="#313131"/><stop offset="0.81336" stop-color="#161616"/><stop offset="0.91921" stop-color="#060606"/><stop offset="1"/></radialGradient><radialGradient id="f9aa2120-44a4-4e34-83c9-256decc73754" cx="3017.19254" cy="243.67838" r="112.07138" gradientTransform="translate(-489.31774 -51.5203) scale(1.19979 1.12067)" gradientUnits="userSpaceOnUse"><stop offset="0.64"/><stop offset="0.71799" stop-color="#000200"/><stop offset="0.74608" stop-color="#020902"/><stop offset="0.76609" stop-color="#051405"/><stop offset="0.78228" stop-color="#082509"/><stop offset="0.79598" stop-color="#0d3b0e"/><stop offset="0.8" stop-color="#0f4310"/><stop offset="0.8131" stop-color="#1e2c0a"/><stop offset="0.82975" stop-color="#2d1605"/><stop offset="0.84569" stop-color="#360901"/><stop offset="0.86" stop-color="#390400"/><stop offset="0.8715" stop-color="#250300"/><stop offset="0.88602" stop-color="#140100"/><stop offset="0.90412" stop-color="#090100"/><stop offset="0.92951" stop-color="#020000"/><stop offset="1"/></radialGradient><radialGradient id="fd5e6fb8-5ca6-491c-8a8c-73ee8166310b" cx="2843.69654" cy="417.17431" r="23.68632" gradientTransform="translate(-489.31774 -51.5203) scale(1.19979 1.12067)" gradientUnits="userSpaceOnUse"><stop offset="0.1"/><stop offset="0.12317" stop-color="#0b0809"/><stop offset="0.24121" stop-color="#3c2b32"/><stop offset="0.3623" stop-color="#664956"/><stop offset="0.48446" stop-color="#886273"/><stop offset="0.60809" stop-color="#a37589"/><stop offset="0.73376" stop-color="#b68399"/><stop offset="0.86272" stop-color="#c18ba3"/><stop offset="1" stop-color="#c58ea6"/></radialGradient><radialGradient id="e8d00925-e0a4-4f11-b5d6-ab6dcf875f12" cx="2976.78373" cy="284.08723" r="12.13958" gradientTransform="translate(-489.31774 -51.5203) scale(1.19979 1.12067)" gradientUnits="userSpaceOnUse"><stop offset="0.1" stop-color="#176f55"/><stop offset="0.16505" stop-color="#145f49"/><stop offset="0.32376" stop-color="#0d3d2f"/><stop offset="0.48587" stop-color="#07221a"/><stop offset="0.65065" stop-color="#030f0c"/><stop offset="0.81983" stop-color="#010403"/><stop offset="1"/></radialGradient><radialGradient id="f37d098f-d16b-488c-b582-dafd7cc1c7a7" cx="2691.7353" cy="569.13566" r="2.3509" gradientTransform="translate(-489.31774 -51.5203) scale(1.19979 1.12067)" gradientUnits="userSpaceOnUse"><stop offset="0.1" stop-color="#65430f"/><stop offset="0.1269" stop-color="#5f3f0e"/><stop offset="0.29291" stop-color="#3d2809"/><stop offset="0.46237" stop-color="#221705"/><stop offset="0.6347" stop-color="#0f0a02"/><stop offset="0.81159" stop-color="#040201"/><stop offset="1"/></radialGradient><radialGradient id="e3d2f680-33ec-4ebf-9691-e6bbf71cacab" cx="2691.24128" cy="569.62945" r="19.08841" gradientTransform="translate(-489.31774 -51.5203) scale(1.19979 1.12067)" gradientUnits="userSpaceOnUse"><stop offset="0.1"/><stop offset="0.21377" stop-color="#1f150a"/><stop offset="0.36319" stop-color="#412b14"/><stop offset="0.51586" stop-color="#5c3d1c"/><stop offset="0.67104" stop-color="#6f4922"/><stop offset="0.83032" stop-color="#7a5126"/><stop offset="1" stop-color="#7e5327"/></radialGradient><radialGradient id="aebb1d08-9995-4294-a73c-6d9ab4c8add5" cx="3014.85468" cy="246.01628" r="28.35957" xlink:href="#fd5e6fb8-5ca6-491c-8a8c-73ee8166310b"/><linearGradient id="a509333d-46fb-4261-9714-1aa21e517037" x1="328.97397" y1="958.75201" x2="496.49799" y2="958.75201" gradientUnits="userSpaceOnUse"><stop offset="0" stop-color="#b5dbff"/><stop offset="1" stop-color="#48b2e3"/></linearGradient><linearGradient id="f9ac7d77-8f26-4c21-a821-cf7ee3ff8b2b" x1="460.99197" y1="918.68301" x2="460.992" y2="918.68301" xlink:href="#a509333d-46fb-4261-9714-1aa21e517037"/></defs><title>logo_pop_news_3</title><g style="isolation:isolate"><g id="e6e3ada5-40d8-4090-b10c-ad6a2343a01a" data-name="Fond"><rect x="8.00381" y="38.21293" width="5625" height="1000.17781" style="fill:#ff3"/><g style="opacity:0.30000000000000004"><polygon points="2577.558 38.213 2187.409 38.213 2820.504 538.302 2577.558 38.213" style="fill:#ff6"/><polygon points="3450.46 38.213 3060.671 38.213 2820.504 538.302 3450.46 38.213" style="fill:#ff6"/><polygon points="1537.721 38.213 799.993 38.213 2820.504 538.302 1537.721 38.213" style="fill:#ff6"/><polygon points="4834.015 38.213 4098.842 38.213 2820.504 538.302 4834.015 38.213" style="fill:#ff6"/><polygon points="5633.004 406.006 5633.004 193.554 2820.504 538.302 5633.004 406.006" style="fill:#ff6"/><polygon points="3063.452 1038.391 3453.605 1038.391 2820.504 538.302 3063.452 1038.391" style="fill:#ff6"/><polygon points="4103.292 1038.391 4841.021 1038.391 2820.504 538.302 4103.292 1038.391" style="fill:#ff6"/><polygon points="2820.504 538.302 5633.004 881.338 5633.004 669.081 2820.504 538.302" style="fill:#ff6"/><polygon points="8.004 195.261 8.004 407.522 2820.504 538.302 8.004 195.261" style="fill:#ff6"/><polygon points="8.004 670.594 8.004 883.049 2820.504 538.302 8.004 670.594" style="fill:#ff6"/><polygon points="806.98 1038.391 1542.16 1038.391 2820.504 538.302 806.98 1038.391" style="fill:#ff6"/><polygon points="2190.545 1038.391 2580.336 1038.391 2820.504 538.302 2190.545 1038.391" style="fill:#ff6"/></g><rect x="11.00381" y="40.21293" width="5625" height="1000.17781" style="opacity:0.5;mix-blend-mode:soft-light;fill:url(#b674c249-6175-4228-be4b-de8c0d79515d)"/><g style="mix-blend-mode:multiply"><polygon points="427.512 38.213 340.318 38.213 1719.784 328.433 427.512 38.213" style="fill:#cc3"/><polygon points="107.892 38.213 51.032 38.213 668.609 163.387 107.892 38.213" style="fill:#cc3"/><polygon points="1263.226 38.213 1176.032 38.213 2308.058 379.446 1263.226 38.213" style="fill:#cc3"/><polygon points="943.606 38.213 886.747 38.213 1427.619 193.555 943.606 38.213" style="fill:#cc3"/><polygon points="2034.655 38.213 1947.461 38.213 2603.367 366.784 2034.655 38.213" style="fill:#cc3"/><polygon points="1715.034 38.213 1658.175 38.213 2076.607 208.83 1715.034 38.213" style="fill:#cc3"/><polygon points="2486.463 38.213 2429.604 38.213 2603.367 223.407 2486.463 38.213" style="fill:#cc3"/><polygon points="5184.027 38.213 5271.221 38.213 3891.759 328.433 5184.027 38.213" style="fill:#cc3"/><polygon points="5503.648 38.213 5560.507 38.213 4942.93 163.387 5503.648 38.213" style="fill:#cc3"/><polygon points="4348.313 38.213 4435.507 38.213 3303.482 379.446 4348.313 38.213" style="fill:#cc3"/><polygon points="4667.933 38.213 4724.792 38.213 4183.92 193.555 4667.933 38.213" style="fill:#cc3"/><polygon points="3576.884 38.213 3664.078 38.213 3008.175 366.784 3576.884 38.213" style="fill:#cc3"/><polygon points="3896.505 38.213 3953.364 38.213 3534.935 208.83 3896.505 38.213" style="fill:#cc3"/><polygon points="3125.076 38.213 3181.935 38.213 3008.175 223.407 3125.076 38.213" style="fill:#cc3"/><polygon points="8.004 542.532 8.004 572.791 1030.052 553.046 8.004 542.532" style="fill:#cc3"/><polygon points="8.004 447.583 8.004 464.123 551.984 476.818 8.004 447.583" style="fill:#cc3"/><polygon points="8.004 354.987 8.004 366.985 567.343 397.454 8.004 354.987" style="fill:#cc3"/><polygon points="8.004 234.966 8.004 246.964 886.747 365.928 8.004 234.966" style="fill:#cc3"/><polygon points="8.004 124.946 8.004 136.944 538.995 208.83 8.004 124.946" style="fill:#cc3"/><polygon points="8.004 354.987 8.004 366.985 567.343 397.454 8.004 354.987" style="fill:#cc3"/><polygon points="8.004 234.966 8.004 246.964 886.747 365.928 8.004 234.966" style="fill:#cc3"/><polygon points="8.004 124.946 8.004 136.944 538.995 208.83 8.004 124.946" style="fill:#cc3"/><polygon points="8.004 654.581 8.004 636.498 628.267 621.212 8.004 654.581" style="fill:#cc3"/><polygon points="8.004 744.773 8.004 732.775 567.343 702.306 8.004 744.773" style="fill:#cc3"/><polygon points="8.004 864.794 8.004 852.796 886.747 733.832 8.004 864.794" style="fill:#cc3"/><polygon points="8.004 974.814 8.004 962.816 538.995 890.93 8.004 974.814" style="fill:#cc3"/><polygon points="2515.931 1038.391 2459.072 1038.391 2632.835 853.197 2515.931 1038.391" style="fill:#cc3"/><polygon points="5633.004 538.302 5633.004 508.043 4610.955 527.788 5633.004 538.302" style="fill:#cc3"/><polygon points="5633.004 629.677 5633.004 612.291 5061.175 598.946 5633.004 629.677" style="fill:#cc3"/><polygon points="5633.004 721.617 5633.004 709.618 5073.668 679.149 5633.004 721.617" style="fill:#cc3"/><polygon points="5633.004 841.638 5633.004 829.64 4754.261 710.675 5633.004 841.638" style="fill:#cc3"/><polygon points="5633.004 951.658 5633.004 939.659 5102.012 867.774 5633.004 951.658" style="fill:#cc3"/><polygon points="5633.004 721.617 5633.004 709.618 5073.668 679.149 5633.004 721.617" style="fill:#cc3"/><polygon points="5633.004 841.638 5633.004 829.64 4754.261 710.675 5633.004 841.638" style="fill:#cc3"/><polygon points="5633.004 951.658 5633.004 939.659 5102.012 867.774 5633.004 951.658" style="fill:#cc3"/><polygon points="5633.004 424.46 5633.004 440.961 5066.994 454.91 5633.004 424.46" style="fill:#cc3"/><polygon points="5633.004 331.831 5633.004 343.829 5073.668 374.298 5633.004 331.831" style="fill:#cc3"/><polygon points="5633.004 211.809 5633.004 223.807 4754.261 342.772 5633.004 211.809" style="fill:#cc3"/><polygon points="5633.004 101.79 5633.004 113.788 5102.012 185.674 5633.004 101.79" style="fill:#cc3"/><polygon points="3925.973 1038.391 3982.832 1038.391 3564.404 867.774 3925.973 1038.391" style="fill:#cc3"/><polygon points="3154.545 1038.391 3211.404 1038.391 3037.644 853.197 3154.545 1038.391" style="fill:#cc3"/><polygon points="456.98 1038.391 369.787 1038.391 1749.252 748.171 456.98 1038.391" style="fill:#cc3"/><polygon points="137.36 1038.391 80.501 1038.391 698.077 913.217 137.36 1038.391" style="fill:#cc3"/><polygon points="1292.695 1038.391 1205.501 1038.391 2337.526 697.157 1292.695 1038.391" style="fill:#cc3"/><polygon points="973.074 1038.391 916.215 1038.391 1457.088 883.049 973.074 1038.391" style="fill:#cc3"/><polygon points="2064.123 1038.391 1976.93 1038.391 2632.835 709.82 2064.123 1038.391" style="fill:#cc3"/><polygon points="1744.503 1038.391 1687.644 1038.391 2106.075 867.774 1744.503 1038.391" style="fill:#cc3"/><polygon points="5213.495 1038.391 5300.689 1038.391 3921.227 748.171 5213.495 1038.391" style="fill:#cc3"/><polygon points="5533.116 1038.391 5589.975 1038.391 4972.399 913.217 5533.116 1038.391" style="fill:#cc3"/><polygon points="4377.781 1038.391 4464.975 1038.391 3332.95 697.157 4377.781 1038.391" style="fill:#cc3"/><polygon points="4697.402 1038.391 4754.261 1038.391 4213.388 883.049 4697.402 1038.391" style="fill:#cc3"/><polygon points="3606.353 1038.391 3693.547 1038.391 3037.644 709.82 3606.353 1038.391" style="fill:#cc3"/></g><ellipse cx="2734.51986" cy="591.59914" rx="268.92449" ry="251.18945" style="opacity:0.25;mix-blend-mode:screen;fill:url(#fdafb6b3-a6aa-44c9-bff2-62625c47b6cf)"/><ellipse cx="3015.7551" cy="328.91089" rx="8.96415" ry="8.37298" style="mix-blend-mode:screen;fill:url(#be6e95a8-9dbb-4af9-a67f-10f950ac8bf2)"/><ellipse cx="3130.68304" cy="221.56209" rx="8.96415" ry="8.37298" style="mix-blend-mode:screen;fill:url(#e13b98d2-a28d-40a2-8b84-e28ca7f6aa06)"/><ellipse cx="3114.83638" cy="236.36356" rx="67.23112" ry="62.79736" style="opacity:0.200000002980232;mix-blend-mode:screen;fill:url(#b4827f24-06ad-40ea-adc1-733d3b8db2c3)"/><line x1="2813.75243" y1="517.59172" x2="3003.32854" style="fill:none"/><ellipse cx="2813.75243" cy="517.59172" rx="179.28299" ry="167.45964" style="opacity:0.150000005960464;mix-blend-mode:screen;fill:url(#e9dcdb81-cef6-47a0-9ab9-02e1e9902995)"/><ellipse cx="2813.75243" cy="517.59172" rx="89.6415" ry="83.72982" style="opacity:0.5;mix-blend-mode:screen;fill:url(#baba4d42-b824-4701-a138-b559e45c0bd9)"/><ellipse cx="2813.75243" cy="517.59172" rx="74.70125" ry="69.77485" style="mix-blend-mode:screen;fill:url(#a220d972-9ce2-4e70-94b8-cd1fdb7fb5ff)"/><polyline points="2813.752 517.592 3060.775 630.607 2813.752 517.592 2566.729 404.577 2813.752 517.592 2692.758 748.324 2813.752 517.592 2934.747 286.86 2813.752 517.592 3251.643 548.67 2813.752 517.592 2375.862 486.513 2813.752 517.592 2780.48 926.604 2813.752 517.592 2847.025 108.58 2813.752 517.592 2916.501 650.876 2813.752 517.592 2711.004 384.307 2813.752 517.592 2671.057 613.565 2813.752 517.592 2956.447 421.619 2813.752 517.592 3013.468 572.049 2813.752 517.592 2614.037 463.134 2813.752 517.592 2755.45 704.137 2813.752 517.592 2872.055 331.047 2813.752 517.592 3044.799 547.546 2813.752 517.592 2582.706 487.637 2813.752 517.592 2781.683 733.401 2813.752 517.592 2845.822 301.782 2813.752 517.592 3006.757 719.268 2813.752 517.592 2620.747 315.916 2813.752 517.592 2597.837 697.868 2813.752 517.592 3029.668 337.315 2813.752 517.592 2945.928 588.671 2813.752 517.592 2681.576 446.512 2813.752 517.592 2737.655 641.051 2813.752 517.592 2889.85 394.133 2813.752 517.592 2886.956 643.47 2813.752 517.592 2740.548 391.713 2813.752 517.592 2678.986 585.968 2813.752 517.592 2948.519 449.216 2813.752 517.592 2943.754 605.301 2813.752 517.592 2683.751 429.882 2813.752 517.592 2719.85 639.02 2813.752 517.592 2907.655 396.164 2813.752 517.592 2936.182 604.629 2813.752 517.592 2691.323 430.555 2813.752 517.592 2720.57 631.948 2813.752 517.592 2906.935 403.236 2813.752 517.592 2924.701 583.916 2813.752 517.592 2702.804 451.267 2813.752 517.592 2742.745 621.223 2813.752 517.592 2884.76 413.96 2813.752 517.592 2901.478 528.981 2813.752 517.592 2726.027 506.202 2813.752 517.592 2801.559 599.532 2813.752 517.592 2825.946 435.651 2813.752 517.592 2820.822 589.323 2813.752 517.592 2806.682 445.861 2813.752 517.592 2736.957 524.195 2813.752 517.592 2890.548 510.988 2813.752 517.592 2888.542 610.851 2813.752 517.592 2738.963 424.332 2813.752 517.592 2713.908 587.449 2813.752 517.592 2913.596 447.734 2813.752 517.592 2827.658 552.156 2813.752 517.592 2799.847 483.027 2813.752 517.592 2776.748 530.58 2813.752 517.592 2850.757 504.604" style="fill:none;stroke:#fff;stroke-miterlimit:10;stroke-width:2px;opacity:0.029999999329448;mix-blend-mode:screen"/><ellipse cx="3130.68304" cy="221.56209" rx="134.46224" ry="125.59473" style="opacity:0.5;mix-blend-mode:screen;fill:url(#f9aa2120-44a4-4e34-83c9-256decc73754)"/><ellipse cx="2922.52408" cy="415.9933" rx="28.41857" ry="26.54455" style="mix-blend-mode:screen;fill:url(#fd5e6fb8-5ca6-491c-8a8c-73ee8166310b)"/><ellipse cx="3082.20091" cy="266.84696" rx="14.56492" ry="13.60448" style="mix-blend-mode:screen;fill:url(#e8d00925-e0a4-4f11-b5d6-ab6dcf875f12)"/><ellipse cx="2740.20234" cy="586.29141" rx="2.82063" ry="2.63453" style="mix-blend-mode:screen;fill:url(#f37d098f-d16b-488c-b582-dafd7cc1c7a7)"/><ellipse cx="2739.60962" cy="586.84479" rx="22.90206" ry="21.3918" style="mix-blend-mode:screen;fill:url(#e3d2f680-33ec-4ebf-9691-e6bbf71cacab)"/><ellipse cx="3127.8781" cy="224.1821" rx="34.02554" ry="31.78167" style="mix-blend-mode:screen;fill:url(#aebb1d08-9995-4294-a73c-6d9ab4c8add5)"/></g><g id="f07ffe68-0389-40e1-930d-9253c8915b69" data-name="Texte"><path d="M1105.40186,223.72949l274.21875-15.60693,1.80029,61.22607q-32.40234,13.81567-75.00537,21.60938-10.8003,1.801-130.80908,15.00635l9.00048,105.04541,101.40723-1.20069,1.2002,95.44092-115.80811-3.001,6.00049,139.86036,150.61035-7.20313,5.40039,63.62695-230.416,3.001Z" transform="translate(8.00381 38.30183)" style="stroke:#000;stroke-miterlimit:10;stroke-width:10px"/><path d="M1448.02051,230.332q103.19751,0,174.01172,54.02344,77.40526,58.83471,77.40576,159.06836,0,79.23339-13.80127,131.456-16.80542,64.2378-57.604,98.44239-45.6079,38.42138-124.20849,38.417-16.80615,0-30.90234-1.20117a166.61119,166.61119,0,0,1-27.90186-4.80176ZM1517.625,647.51172q61.79517-16.207,88.80615-60.62695,23.99268-39.01173,24.002-106.84522,0-55.21949-17.40137-99.64307-23.40162-60.01611-68.40479-60.02587a173.87,173.87,0,0,0-47.40332,6.603Z" transform="translate(8.00381 38.30183)" style="stroke:#000;stroke-miterlimit:10;stroke-width:10px"/><path d="M1843.44385,444.624q0,59.42579,6.00049,126.05469,4.19091,48.0293,15.001,126.05371l-85.80615,1.80078q0-31.20409,2.40039-76.23242,5.40015-102.03956,5.40039-127.25488,0-48.01611-2.1001-86.73731-2.1101-38.71654-7.501-98.14209-3.00953-30.00805-9.60059-91.83935l87.60645-6.603q-6.00513,68.42945-8.70069,119.75147Q1843.44361,382.79785,1843.44385,444.624Z" transform="translate(8.00381 38.30183)" style="stroke:#000;stroke-miterlimit:10;stroke-width:10px"/><path d="M2044.44922,317.36963l-84.00586-1.20068-11.40088-93.64014,424.22949-7.80322-7.80029,48.0205L2116.4541,290.958,2140.456,690.72949H2031.24854Z" transform="translate(8.00381 38.30183)" style="stroke:#000;stroke-miterlimit:10;stroke-width:10px"/><path d="M2505.27832,444.624q0,59.42579,6.00049,126.05469,4.19091,48.0293,15.001,126.05371l-85.80616,1.80078q0-31.20409,2.40039-76.23242,5.40015-102.03956,5.40039-127.25488,0-48.01611-2.10009-86.73731-2.11011-38.71654-7.501-98.14209-3.00952-30.00805-9.60059-91.83935l87.60645-6.603q-6.00513,68.42945-8.70068,119.75147Q2505.27807,382.79785,2505.27832,444.624Z" transform="translate(8.00381 38.30183)" style="stroke:#000;stroke-miterlimit:10;stroke-width:10px"/><path d="M2955.30176,461.43115q0,71.43971-40.80274,147.66358-47.40821,88.84277-112.208,88.83789-74.40968,0-135.60938-82.23535-56.40894-76.22315-56.4043-153.66553,0-90.62988,43.20313-158.46826,49.79883-78.02418,135.00928-78.03321,72.59545,0,123.0083,84.63623Q2955.29249,383.40723,2955.30176,461.43115Zm-231.61621,7.80371q0,39.02563,21.60156,110.44776,25.20117,82.83544,50.40332,82.835,18.59179,0,37.20215-80.43457,15.59766-67.82373,15.60156-100.24268,0-39.01245-19.80176-120.05176-23.40087-94.83618-45.603-94.84082-22.20558,0-42.60254,89.43848Q2723.68066,430.218,2723.68555,469.23486Z" transform="translate(8.00381 38.30183)" style="stroke:#000;stroke-miterlimit:10;stroke-width:10px"/><path d="M3103.50781,728.5459l-.59961,18.00781-71.40527,7.20313q0-41.417,6.001-175.27539,2.9956-66.62842,3-106.24561,0-31.20409-6.001-135.05811-3.00879-51.61743-3-82.23486l58.80469-4.80224q34.20264,24.61962,67.80468,61.22607,27.00147,28.81275,58.20411,70.83057,27.00146,37.22533,54.0039,74.43212,5.39941-36.60643,8.40039-73.53173,2.99561-36.91554,3-74.13184a429.7766,429.7766,0,0,0-2.10058-45.31934q-2.10937-19.49926-7.5-51.92236,27.59179,0,59.40429,12.00537,0,34.81934-1.80078,81.63477-4.20409,109.2561-4.20019,136.85888,0,45.019,4.20019,91.23877,4.19093,46.23048,21.60157,170.47364l-88.20606-5.40235q-40.812-78.02343-81.00586-156.06738-49.812-91.23412-94.80664-146.4624,0,46.229,3.90039,107.146,3.89649,60.93018,8.10059,121.252Q3103.49853,684.72656,3103.50781,728.5459Z" transform="translate(8.00381 38.30183)" style="stroke:#000;stroke-miterlimit:10;stroke-width:10px"/><path d="M3861.958,386.39893l14.40039-64.22754,87.00586,3.60156a204.29681,204.29681,0,0,0,8.40137-28.21191,129.81829,129.81829,0,0,0,3-27.61182l-1.80079-37.21631,65.40528-5.40234a516.90781,516.90781,0,0,0-33.00293,98.44238l56.40429-1.80078a275.12215,275.12215,0,0,0,14.70118-45.019,366.07676,366.07676,0,0,0,7.5-49.82178l75.00586,3.60156a239.0595,239.0595,0,0,0-28.20215,45.01953A198.445,198.445,0,0,0,4115.1748,325.773h73.80567l-46.20313,55.22363h-56.40429l-11.40039,62.42725,67.80468-4.80225-1.80078,55.82373-80.40527,3.00147q-3.60058,16.81128-4.5,24.01025a175.5944,175.5944,0,0,0-.90039,20.40918,280.582,280.582,0,0,0,2.70019,40.2168,405.26789,405.26789,0,0,0,8.70118,42.01855L3989.166,608.49414l20.40136-114.04883-53.40332,3.00147v92.43994l-76.80566,10.2041A244.91974,244.91974,0,0,0,3900.96,549.669a301.81989,301.81989,0,0,0,10.20117-54.02295h-75.60547l12.60059-52.22217h75.60547l12.001-60.62647Zm108.00683,60.62646,58.80469-3.60156,12.60059-70.23047H3980.166Z" transform="translate(8.00381 38.30183)" style="stroke:#000;stroke-miterlimit:10;stroke-width:10px"/><path d="M4400.79492,581.4834q0-32.41407-28.20215-49.22168-18.00146-10.8047-58.2041-18.00781l-6.60058-66.02832q43.79443,0,68.40527-31.81348,22.7959-29.40307,22.80078-74.43213,0-19.20337-14.40039-34.21484-14.40089-14.99707-33.60254-15.00635a262.8219,262.8219,0,0,0-49.20312,4.80225q-9.60645,1.801-47.40332,12.00488,4.79589-30.613,7.5-44.71924a309.48353,309.48353,0,0,1,8.70117-33.314,386.37054,386.37054,0,0,1,65.40429-6.00244q62.39941,0,98.40723,28.812,39.60205,31.823,39.60254,93.04,0,52.82741-16.80176,84.03614-19.21,36.01538-65.40429,55.82422c2.79394-.79737,5.40039-1.501,7.80078-2.10108a25.61615,25.61615,0,0,1,6-.90039q29.39355,0,47.40332,44.41895,14.40087,36.01611,14.40136,70.83007,0,46.23048-43.80273,72.63184-37.80323,22.81934-87.00684,22.80957a336.32549,336.32549,0,0,1-73.80468-7.80371l4.20019-88.83789q9.5918,13.81494,37.20313,22.80957,27.5918,9.00439,48.60254,9.00391,18.00146,0,33.00293-15.00586Q4400.78516,600.10058,4400.79492,581.4834Z" transform="translate(8.00381 38.30183)" style="stroke:#000;stroke-miterlimit:10;stroke-width:10px"/></g><g id="b0018e00-eb0d-463c-be75-f8ed4c6bca13" data-name="icons"><path d="M5396.006,707.1043A339.14567,339.14567,0,0,0,5478,485.5C5478,297.4469,5325.55311,145,5137.5,145c-168.20167,0-307.89845,121.96683-335.52152,282.27982C4802.25647,428.13505,4893.15,707.1043,5396.006,707.1043Z" transform="translate(8.00381 38.30183)" style="fill:#246580"/><path d="M5191.4985,415.12291a309.13264,309.13264,0,0,1,52.832-173.33579S4900.375,276.09648,4799.25182,524.62958c.00266.02793.00665.05451.01064.08114.12768.19419.70494,1.06937,1.75437,2.54577,17.57565,24.7408,187.0715,302.73375,556.03252,218.48526A342.74319,342.74319,0,0,0,5396.006,707.1043c-119.29471-43.3446-204.50747-157.70867-204.50747-291.98141Z" transform="translate(8.00381 38.30183)" style="fill:#64b6ec"/><path d="M5195.17351,367.24009a308.76708,308.76708,0,0,1,49.15838-125.45163s-343.95554,34.30936-445.07873,282.84242c.00266.02793.00665.05451.01064.08114.12768.19419.70494,1.06936,1.75437,2.54577,6.47748,9.11636,33.59245,52.6312,83.71645,99.73325,34.47828-142.96345,159.1505-250.73967,310.43893-259.75095Z" transform="translate(8.00381 38.30183)" style="fill:#4b9fdb"/><path d="M5163.02818,772.19967c-107.33066-105.69332-137.417-273.226-62.8994-412.89481a347.39123,347.39123,0,0,1,144.07671-143.91179s-329.64524,58.04328-444.95238,309.24183a338.85129,338.85129,0,0,0,69.25052,169.61556c.73154.53471,107.35194,78.08222,294.52451,77.94925Z" transform="translate(8.00381 38.30183)" style="fill:#4b9fdb"/><path d="M5084.42723,392.85741a352.9,352.9,0,0,1,15.70159-33.55255,347.39123,347.39123,0,0,1,144.07671-143.91179s-329.64524,58.04328-444.95237,309.24183a338.85118,338.85118,0,0,0,69.25051,169.61556c.10507.07717,2.41542,1.75572,6.83128,4.56082C4878.63089,560.86487,4963.97,443.24741,5084.42723,392.85741Z" transform="translate(8.00381 38.30183)" style="fill:#3188ca"/><path d="M5137.59575,633.88218a254.43336,254.43336,0,0,1-44.21046-142.44472s-187.03824,33.33975-194.05041,237.3764l200.065,95.05139A343.87356,343.87356,0,0,0,5137.5,826a339.103,339.103,0,0,0,219.55065-80.25825,255.42706,255.42706,0,0,1-219.45494-111.85957Z" transform="translate(8.00381 38.30183)" style="fill:#94e1ff"/><path d="M4899.35617,728.82316a340.077,340.077,0,0,1,220.761-124.78262,254.146,254.146,0,0,1-26.7319-112.60442s-187.03824,33.33975-194.05041,237.37636Z" transform="translate(8.00381 38.30183)" style="fill:#7dcfff"/><path d="M5022.31923,623.15643a254.44978,254.44978,0,0,1,52.997-139.4148s-184.93007,49.90186-175.98131,245.07089a339.37629,339.37629,0,0,0,200.069,95.054A255.049,255.049,0,0,1,5022.31923,623.15643Z" transform="translate(8.00381 38.30183)" style="fill:#7dcfff"/><path d="M4899.35218,728.82982a341.70366,341.70366,0,0,1,122.52146-96.19126c.09709-3.15228.23143-6.30988.44559-9.48213a254.44978,254.44978,0,0,1,52.997-139.4148s-184.93007,49.90186-175.98131,245.07089A.10525.10525,0,0,0,4899.35218,728.82982Z" transform="translate(8.00381 38.30183)" style="fill:#64b6ec"/><path d="M5412.82617,216.82422c-5.32031,18.17818-139.6582,11.97071-139.6582,38.57227s99.75586,53.20312,74.48437,81.13476-111.72656-75.81445-348.48046,14.63086c-109.33242,41.77776-173.50869,129.66931-199.93736,173.50871a343.76384,343.76384,0,0,1,2.74-97.40163c29.06221-49.2794,99.37014-143.542,239.75988-210.445,74.36467-35.43328,146.66772-50.46316,207.42568-53.08341C5350.32577,159.37815,5420.75339,189.73984,5412.82617,216.82422Z" transform="translate(8.00381 38.30183)" style="fill:#94e1ff"/><path d="M4974.78756,475.30228c-82.14295,61.439-102.92011,168.61665-106.29585,218.94019a342.57132,342.57132,0,0,0,30.84319,34.57139c8.36087-29.99726,32.21183-103.33775,75.45266-146.5786,77.31345-77.31347,196.13865-10.71511,212.81248-35.99459,16.84679-25.54413-50.1-49.65711-50.1-49.65711s108.62348-5.32032,112.16949-39.90235c3.54731-34.582-165.50161-63.19068-274.88193,18.6211Z" transform="translate(8.00381 38.30183)" style="fill:#94e1ff"/><path d="M5120.11721,252.16307c-49.30467-13.87405-50.45119-64.60057,129.04287-88.42226-60.758,2.62025-133.061,17.65014-207.42568,53.08342-140.38975,66.90293-210.69768,161.16556-239.75988,210.445a343.76384,343.76384,0,0,0-2.74,97.40163c26.42866-43.83936,90.60493-131.731,199.93736-173.50869,0,0,170.25-85.125,120.94533-98.999Z" transform="translate(8.00381 38.30183)" style="fill:#7dcfff"/><path d="M5071.36586,431.25676c-33.4967,8.06427-67.19156,22.06467-96.57964,44.04555-82.14163,61.439-102.91878,168.61666-106.29452,218.94016a342.57244,342.57244,0,0,0,30.84318,34.57139c8.36087-29.99726,32.21183-103.33775,75.45266-146.5786a130.63947,130.63947,0,0,1,12.383-10.90532l-.00134-.01863s66.53715-61.87124,30.625-69.62428c-35.90279-7.7517-2.01507-56.06146,53.57157-70.43029Z" transform="translate(8.00381 38.30183)" style="fill:#7dcfff"/><path d="M328.974,916.998l167.524,83.508" transform="translate(8.00381 38.30183)" style="fill:url(#a509333d-46fb-4261-9714-1aa21e517037)"/><path d="M460.992,918.683h0" transform="translate(8.00381 38.30183)" style="fill:url(#f9ac7d77-8f26-4c21-a821-cf7ee3ff8b2b)"/><path d="M298.488,901.801A332.89884,332.89884,0,0,0,25.033,891.172L-.498,901.51v98.995H496.498Z" transform="translate(8.00381 38.30183)" style="fill:#f1d59d"/><path d="M151.557,1000.505H496.498l-198.01-98.704a332.94315,332.94315,0,0,0-32.977-14.271c-14.118,52.174-57.4,94.468-113.954,112.975Z" transform="translate(8.00381 38.30183)" style="fill:#ecc373"/><path d="M360.437,743.287c-7.584-70.535-74.956-143.321-151.459-162.177S38.996,595.395-.498,654.326Z" transform="translate(8.00381 38.30183)" style="fill:#e28086"/><path d="M266.715,629.673c-8.523,34.578-39.575,59.605-81.061,70.534l174.783,43.079c-5.5-51.15-42.445-103.478-91.509-135.571A78.87024,78.87024,0,0,1,266.715,629.673Z" transform="translate(8.00381 38.30183)" style="fill:#dd636e"/><path d="M208.979,581.11c21.62,5.329,31.295,63.894,21.993,130.267l76.502,18.856c-.676-68.832-44.444-135.801-98.495-149.123S85.051,606.746,52.466,667.38l76.503,18.856C151.576,623.143,187.359,575.781,208.979,581.11Z" transform="translate(8.00381 38.30183)" style="fill:#f9f6f9"/><path d="M268.295,621.333a78.4328,78.4328,0,0,1-1.58,8.341c-4.693,19.042-16.224,35.183-32.561,47.674-.501,10.938-1.547,22.363-3.182,34.03l76.502,18.856c-.397-40.449-15.679-80.248-39.179-108.901Z" transform="translate(8.00381 38.30183)" style="fill:#dfdde2"/><path d="M5618.88534,1000.126l-5121.58191.87374a6.1159,6.1159,0,0,1-2.49368-.531L332.97888,928.23812a6.1157,6.1157,0,0,1,2.47-11.70034l5283.41279-19.51511A6.1157,6.1157,0,0,1,5625,903.13834v90.872A6.1157,6.1157,0,0,1,5618.88534,1000.126Z" transform="translate(8.00381 38.30183)" style="fill:#9dd2f9"/><path d="M329.042,908.651l-27.207-13.562A341.69872,341.69872,0,0,0,148.11,859.413l37.348-151.529,63.939,15.759a7.49823,7.49823,0,0,0,9.12885-5.71191,7.70851,7.70851,0,0,0-5.84427-8.92737L239.278,705.7c3.738-30.537,3.648-59.994-.309-83.588a127.65342,127.65342,0,0,0-5.631-22.343c35.694,22.556,62.676,70.314,66.241,120.793l-12.10278-2.983a7.70739,7.70739,0,0,0-9.32275,5.18912A7.50066,7.50066,0,0,0,283.582,732.068l75.061,18.501a7.4996,7.4996,0,0,0,9.252-8.084c-3.849-35.797-22.264-73.007-51.854-104.778-27.703-29.745-62.265-51.534-98.022-61.932l3.077-12.486a7.5,7.5,0,1,0-14.564-3.59l-3.078,12.486c-36.494-7.41-77.223-4.178-115.576,9.286-40.893,14.35608-74.44656,38.68751-94.50175,68.52461a7.71626,7.71626,0,0,0-1.3668,4.7511A7.51194,7.51194,0,0,0-2.293,661.609l173.186,42.685L132.555,859.84a338.0399,338.0399,0,0,0-52.71953,6.7995,7.69317,7.69317,0,0,0-6.10132,8.73354,7.49968,7.49968,0,0,0,8.93085,6,322.8967,322.8967,0,0,1,46.136-6.304l-7.497,30.419a27.7315,27.7315,0,0,0-18.134,11.348,27.64687,27.64687,0,0,0-33.38095,26.56788,7.7324,7.7324,0,0,0,6.71507,7.99368A7.50185,7.50185,0,0,0,84.784,943.937a12.71712,12.71712,0,0,1,13.31131-12.68866l.01969.02161c-.02289.40656-.03831.815-.04379,1.22574a7.66479,7.66479,0,0,0,6.81467,7.799,7.5014,7.5014,0,0,0,8.18312-7.4697,12.703,12.703,0,0,1,25.4027-.29116,7.75727,7.75727,0,0,0,6.74021,7.75339,7.50178,7.50178,0,0,0,8.2631-7.46223c0-.522-.018-1.04-.046-1.555l.01976-.02166a12.71764,12.71764,0,0,1,13.30886,12.44133,7.72592,7.72592,0,0,0,6.73932,7.7096A7.50176,7.50176,0,0,0,181.76,943.937a27.64777,27.64777,0,0,0-33.386-27.101,27.86222,27.86222,0,0,0-12.045-9.619l8.079-32.778a326.67914,326.67914,0,0,1,150.737,34.075l118.803,59.222a7.50021,7.50021,0,0,0,6.692-13.425l-75.979-37.874M138.922,680.965c23.782-62.145,55.293-95.783,68.262-92.572,12.969,3.196,25.245,47.613,17.424,113.692Zm-74.97-18.478c26.615-43.041,72.702-72.79,114.789-76.174a127.52728,127.52728,0,0,0-15.37,17.167c-14.468,19.052-28.236,45.093-39.118,73.87Zm287.392,70.834-36.53-9.004a186.702,186.702,0,0,0-30.307-93.586c-1.124-1.707-2.277-3.371-3.443-5.015C316.753,654.091,343.557,693.56,351.344,733.321ZM124.422,587.109c-1.796.914-3.591,1.851-5.379,2.84a186.69888,186.69888,0,0,0-70.32,68.784l-36.537-9.005C37.557,618.14,79.633,595.648,124.422,587.109Z" transform="translate(8.00381 38.30183)"/><path d="M499.844,993.793l-47.698-23.777a7.50044,7.50044,0,0,0-6.693,13.425l47.698,23.777a7.50044,7.50044,0,0,0,6.693-13.425Z" transform="translate(8.00381 38.30183)"/><path d="M44.996,875.928c-7.654,2.482-15.317,5.272-22.778,8.293L-3.313,894.559a7.5012,7.5012,0,0,0-4.137,9.767,7.502,7.502,0,0,0,6.954,4.687,7.48519,7.48519,0,0,0,2.812-.55l25.532-10.338c7.132-2.888,14.458-5.555,21.775-7.928a7.50023,7.50023,0,0,0-4.627-14.269Z" transform="translate(8.00381 38.30183)"/><path d="M244.388,921.713a7.50017,7.50017,0,0,0-7.5-7.5H226.787a7.5,7.5,0,1,0,0,15h10.101A7.50017,7.50017,0,0,0,244.388,921.713Z" transform="translate(8.00381 38.30183)"/><path d="M259.112,966.742H249.01a7.5,7.5,0,1,0,0,15h10.101a7.5,7.5,0,0,0,.001-15Z" transform="translate(8.00381 38.30183)"/><path d="M360.127,964.721H350.026a7.5,7.5,0,0,0,0,15h10.101a7.5,7.5,0,0,0,0-15Z" transform="translate(8.00381 38.30183)"/><path d="M36.878,957.65H26.776a7.5,7.5,0,1,0,0,15H36.877a7.5,7.5,0,0,0,.001-15Z" transform="translate(8.00381 38.30183)"/><path d="M149.005,968.762H138.904a7.5,7.5,0,1,0,0,15h10.101a7.5,7.5,0,1,0,0-15Z" transform="translate(8.00381 38.30183)"/><g id="a1072838-47cb-40ad-9fd1-c8314b9dbdad" data-name="sun"><path d="M299.93452,352.52411h-42.9104a8.02411,8.02411,0,1,1,0-16.04822h42.91143a8.02411,8.02411,0,1,1-.001,16.04822Z" transform="translate(8.00381 38.30183)"/><path d="M291.52667,481.26256a8.0245,8.0245,0,0,1-4.0188-14.97377l37.16171-21.45469a8.02417,8.02417,0,1,1,8.02411,13.8983L295.532,480.18709A7.99691,7.99691,0,0,1,291.52667,481.26256Z" transform="translate(8.00381 38.30183)"/><path d="M385.75532,575.50573A8.02653,8.02653,0,0,1,378.814,563.468l21.45468-37.1617a8.02417,8.02417,0,1,1,13.8983,8.02411l-21.45468,37.1617A8.02311,8.02311,0,0,1,385.75532,575.50573Z" transform="translate(8.00381 38.30183)"/><path d="M514.5,610a8.02349,8.02349,0,0,1-8.02411-8.02411V559.06548a8.02411,8.02411,0,0,1,16.04822,0v42.91041A8.02348,8.02348,0,0,1,514.5,610Z" transform="translate(8.00381 38.30183)"/><path d="M643.24468,575.50573a8.01918,8.01918,0,0,1-6.95589-4.01256L614.8341,534.33146a8.02417,8.02417,0,0,1,13.8983-8.02411l21.45469,37.1617a8.02489,8.02489,0,0,1-6.94241,12.03668Z" transform="translate(8.00381 38.30183)"/><path d="M737.47333,481.26256a7.98134,7.98134,0,0,1-4.00428-1.07651l-37.1617-21.45469a8.02417,8.02417,0,0,1,8.02411-13.89831l37.16171,21.4547a8.02526,8.02526,0,0,1-4.01984,14.97481Z" transform="translate(8.00381 38.30183)"/><path d="M771.97589,352.52411H729.06444a8.02411,8.02411,0,1,1,0-16.04822h42.91145a8.02411,8.02411,0,0,1,0,16.04822Z" transform="translate(8.00381 38.30183)"/><path d="M700.32615,245.24242a8.02452,8.02452,0,0,1-4.0188-14.97379l37.1617-21.45468a8.02417,8.02417,0,1,1,8.02412,13.8983l-37.16171,21.45468A7.99694,7.99694,0,0,1,700.32615,245.24242Z" transform="translate(8.00381 38.30183)"/><path d="M621.77549,166.70627a8.02656,8.02656,0,0,1-6.94136-12.03773l21.45469-37.16067a8.02417,8.02417,0,1,1,13.89831,8.02411l-21.4547,37.16067A8.02438,8.02438,0,0,1,621.77549,166.70627Z" transform="translate(8.00381 38.30183)"/><circle cx="522.50069" cy="382.79871" r="150.19832" style="fill:#ffc721"/><path d="M514.5,194.30582a152.15876,152.15876,0,0,0-16.0918.85873,150.20018,150.20018,0,0,1,0,298.66986A150.19643,150.19643,0,1,0,514.5,194.30582Z" transform="translate(8.00381 38.30183)" style="fill:#ff9114"/><path d="M514.5,502.7183c-87.24164,0-158.2183-70.97666-158.2183-158.2183a158.6462,158.6462,0,0,1,34.69545-98.878,8.0238,8.0238,0,1,1,12.52206,10.03611A140.61871,140.61871,0,0,0,372.3289,344.5c0,78.393,63.77808,142.17109,142.1711,142.17109S656.67112,422.89405,656.67112,344.5,592.893,202.3289,514.5,202.3289a140.70971,140.70971,0,0,0-87.90746,30.42776,8.02474,8.02474,0,0,1-9.93343-12.60607A156.61054,156.61054,0,0,1,514.499,186.28067c87.24163,0,158.2183,70.97665,158.2183,158.2183S601.74164,502.7183,514.5,502.7183Z" transform="translate(8.00381 38.30183)"/><path d="M514.5,137.95759a8.02349,8.02349,0,0,1-8.02411-8.02411V87.02412a8.02411,8.02411,0,1,1,16.04822,0v42.9104A8.02325,8.02325,0,0,1,514.5,137.95759Z" transform="translate(8.00381 38.30183)"/><path d="M407.22452,166.70627a8.01919,8.01919,0,0,1-6.95589-4.01258L378.814,125.533a8.02417,8.02417,0,1,1,13.8983-8.02412l21.45468,37.16067a8.02492,8.02492,0,0,1-6.94241,12.0367Z" transform="translate(8.00381 38.30183)"/><path d="M328.67385,245.24242a7.98123,7.98123,0,0,1-4.00428-1.07652l-37.1617-21.45469a8.02417,8.02417,0,0,1,8.02412-13.8983l37.1617,21.45467a8.02528,8.02528,0,0,1-4.01984,14.97484Z" transform="translate(8.00381 38.30183)"/></g></g><g id="adc3480f-af41-4d92-a182-78c357ca61bb" data-name="Ancrage"><rect x="5632.00381" y="1037.30183" width="1" height="1" style="fill:none"/><rect x="5632.00381" y="38.30183" width="1" height="1" style="fill:none"/><rect x="8.00381" y="1037.30183" width="1" height="1" style="fill:none"/><rect x="8.00381" y="38.30183" width="1" height="1" style="fill:none"/></g></g></svg>