<svg id="ea8e6a7f-ea95-417f-91cf-8fde5a5a89b0" data-name="Logo" xmlns="http://www.w3.org/2000/svg" viewBox="0 0 1946.12841 1432.20339"><title>logo_polytech-noir</title><g id="a523f1fb-f3a4-44bd-8404-b98dfad38fb0" data-name="P"><path d="M995.65885,283.89831c-213.75185,0-391.88237,151.985-432.28687,353.85172h180.4119a267.807,267.807,0,0,1,63.47531-101.37632c48.48638-48.39065,114.56119-78.02148,188.39966-78.08476,73.8694.06328,139.94411,29.69411,188.46132,78.08476a265.02306,265.02306,0,0,1,78.02158,188.398c-.03256,73.90185-29.66177,139.91329-78.02158,188.43049-48.51721,48.35982-114.59192,78.02148-188.46132,78.05393-73.83847-.03245-139.91328-29.69411-188.39966-78.05393A267.65579,267.65579,0,0,1,744.13264,812.84l-180.381-.03245v224.77864c0,189.477,163.99656,178.35268,163.99656,178.35268l.09573-140.958a438.81051,438.81051,0,0,0,267.8149,90.69838c243.571-.03245,440.906-197.33661,440.96917-440.90751C1436.56485,481.23329,1239.22985,283.92913,995.65885,283.89831Z" transform="translate(-26.93579 -283.89831)"/></g><g id="b9ceb5d8-278b-4afa-a060-605536d3b50d" data-name="Textes"><path d="M668.03678,1688.72132h-61.8752l-9.111,26.14445H575.61218l46.17269-129.77154h29.66207l46.93325,129.77154H677.43294ZM662.88711,1673.51l-25.986-72.82418L611.31124,1673.51Z" transform="translate(-26.93579 -283.89831)"/><path d="M853.44055,1585.09423v129.77154H819.59537l-46.442-79.47913q-3.11358-5.32395-13.29418-24.90853l-4.35729-8.36622h-.58627l.19014,6.75q.309,9.412.30106,20.34514v85.65872H735.331V1585.09423h33.75011l41.21316,71.39812q5.324,9.31692,17.25534,31.08813l5.625,10.3627h.58627l-.19015-6.65495q-.309-9.412-.301-19.96485v-86.22915Z" transform="translate(-26.93579 -283.89831)"/><path d="M948.46374,1648.03105h57.597q.28521,6.55989.28521,21.29585a166.7311,166.7311,0,0,1-.72887,18.44372,34.76369,34.76369,0,0,1-2.85213,10.55285q-6.01321,13.21483-21.9138,16.162-8.5326,1.6162-31.51595,1.6162-18.63386,0-27.7448-1.99648a34.6885,34.6885,0,0,1-15.51238-7.51059q-10.17256-8.7465-11.8363-26.04938-.66551-6.65494-.6655-16.162,0-26.81.28521-34.51068.97448-27.09516,13.38913-37.26772,8.62767-7.13031,22.38916-8.081,8.81781-.66549,23.56169-.66549,15.045,0,21.7712.52289a50.40633,50.40633,0,0,1,11.6937,2.13909q16.58985,5.419,18.80816,24.148c.3169,2.72537.52289,6.97186.58627,12.73948H985.79485q-.40405-11.6937-3.01057-16.06695c-1.86973-3.169-6.08453-5.13382-12.61272-5.89439q-6.20337-.66549-21.42261-.66549-15.14,0-22.21486,2.09155-8.5326,2.56692-11.044,13.405-1.16462,5.22888-1.45775,32.70433.19014,22.43669.38029,26.33459.49911,9.69721,3.24825,14.736a14.18108,14.18108,0,0,0,8.588,6.8451q7.65319,2.28169,27.34868,2.28169,12.40672,0,18.76063-1.23592,6.346-1.23591,9.0634-4.27818,4.65847-5.13381,4.65847-23.48247,0-2.18663-.09507-6.55988H948.46374Z" transform="translate(-26.93579 -283.89831)"/><path d="M1065.40074,1601.92175v38.50364h64.39457v15.40146h-64.39457v42.21141h67.78543v16.82751h-88.14641V1585.09423h87.8612v16.82752Z" transform="translate(-26.93579 -283.89831)"/><path d="M1176.53842,1714.86577V1585.09423h64.09352q18.13475,0,27.25361,5.22889a25.04994,25.04994,0,0,1,11.83631,15.49653q1.8301,6.27467,1.838,17.11273,0,13.405-2.13909,20.155a20.10251,20.10251,0,0,1-12.5018,13.21484,42.56757,42.56757,0,0,1-8.73066,2.18662v.6655q10.9569.76056,16.33632,6.9877,5.39526,6.22713,5.38734,18.111v30.61277h-20.45606v-26.42966q.09509-12.074-5.52994-16.92259-5.91816-4.56339-16.87506-4.27818H1196.8994v47.63043Zm20.361-64.64809h39.185q12.88209,0,18.523-3.8979a14.68807,14.68807,0,0,0,5.81516-9.50707,51.84449,51.84449,0,0,0,.58627-9.31694q0-12.074-1.45775-16.25709-2.42432-7.03524-11.83631-8.4613a52.9254,52.9254,0,0,0-8.23946-.57042H1196.8994Z" transform="translate(-26.93579 -283.89831)"/><path d="M1421.47231,1621.60139h-19.88562q.09507-11.02821-2.61445-15.11625-2.70951-4.27818-9.98243-5.60917a91.82013,91.82013,0,0,0-13.95955-.76057,159.895,159.895,0,0,0-18.1902.713,22.35146,22.35146,0,0,0-8.87327,2.80459q-6.20335,3.80283-6.21128,16.35217,0,8.46129,2.4243,12.83454,2.82835,5.324,13.29406,6.46481,3.08979.38029,19.67964,1.23592,17.75445.85564,24.54409,2.18663,14.14178,2.85213,19.28352,13.02469,3.39878,6.65494,3.4067,20.91556,0,11.59863-1.75881,18.53879a23.595,23.595,0,0,1-5.72009,11.02821q-7.368,7.60566-21.23246,8.93665-9.79228.9507-24.0529.9507-22.7932,0-31.02475-2.47183-16.78-5.13382-19.10921-25.09868-.47537-4.27818-.68134-14.26061h19.88562v2.9472q0,8.55636,1.55283,13.02469a12.0906,12.0906,0,0,0,5.13382,6.655q3.58892,2.28169,10.77468,2.56691c4.8486.12676,10.26764.19014,16.28878.19014q12.50181,0,17.93668-1.14085a14.96985,14.96985,0,0,0,8.33453-4.37325q3.49386-3.8979,3.50178-17.77823,0-7.32045-1.85388-11.12328-2.70953-5.32395-12.31166-6.46481-2.61446-.38028-20.07577-1.331-16.97013-.9507-21.42261-1.6162-15.04494-2.18663-21.53352-11.0282-5.51409-7.60566-5.52994-23.76769,0-22.15148,10.18841-29.567,7.84333-5.70425,20.55112-6.8451,9.22187-.76056,20.4719-.76056,19.18052,0,27.23776,1.90141,14.26062,3.42255,18.824,14.6409,2.70951,6.55988,2.70951,18.25358Z" transform="translate(-26.93579 -283.89831)"/><g id="b2965492-155c-45b7-a4bb-c5306326c49b" data-name="polytechC"><path d="M26.93579,1499.02809V1322.57682h98.936c18.72887-.12656,32.48326,6.05208,40.27945,17.01721h0c7.858,10.86939,9.823,24.59122,9.85543,39.20057h0c-.03245,7.35151.12656,20.97945-6.40092,33.68719h0c-6.3701,12.86674-20.94874,23.64041-44.65243,23.324H61.57379v63.22228Zm34.638-93.61409,45.76039.03245c.37968,0,.69619-.03245,1.10831-.03245h0c9.92021.06328,17.62079-.12656,22.46894-1.457h0c4.81721-1.553,6.37-2.69342,8.429-7.28845h0c1.23649-3.20127,2.02817-8.27171,2.02817-15.49689h0c.15912-15.30726-2.02817-22.40566-4.30935-24.40138h0c-1.77517-2.28129-7.60659-3.89734-20.092-3.77079H61.57379V1405.414Z" transform="translate(-26.93579 -283.89831)"/><path d="M356.38765,1321.308c23.00612.28556,39.54942,3.55011,50.95762,14.07067h0c11.314,10.712,14.70334,26.621,14.70334,47.50473h0V1440.654c0,19.90186-3.99132,35.49307-15.46431,45.88706h0c-11.47136,10.20416-28.01316,13.75428-50.25993,13.75428H332.01709c-22.27748,0-38.8209-3.55012-50.29226-13.75428h0c-11.44042-10.394-15.46432-25.9852-15.43349-45.88706h0V1382.8834c0-20.88371,3.42356-36.79272,14.67263-47.50473h0c11.40971-10.52056,27.95151-13.78511,51.05312-14.07067h24.30728m-24.30728,30.39158c-14.79907-.09551-22.40392,2.02817-25.50946,5.293h0c-3.36028,3.00981-5.67414,10.45727-5.60912,25.89087h0V1440.654c0,15.46443,2.94653,21.867,6.55819,24.62345h0c3.55023,3.13821,11.59966,4.59525,24.56039,4.59525h24.21155c13.02425,0,21.10612-1.457,24.65462-4.59525h0c3.6134-2.75648,6.5291-9.159,6.5291-24.62345h0V1382.8834c.09411-15.4336-2.25058-22.88106-5.60924-25.89087h0c-3.07459-3.26478-10.71189-5.38846-25.47875-5.293H332.01709" transform="translate(-26.93579 -283.89831)"/><path d="M530.87415,1499.02809V1322.57682h34.63624V1468.573H657.382v30.45508Z" transform="translate(-26.93579 -283.89831)"/><path d="M789.05441,1498.96481v-72.50808l-72.63465-103.87991h41.10219l49.65948,70.66813,49.6903-70.66813H898.7349l-75.0425,103.91236v72.47563Z" transform="translate(-26.93579 -283.89831)"/><path d="M1031.80106,1498.96481V1352.99945H973.33268v-30.42263h151.5112v30.42263h-58.4681v145.96536Z" transform="translate(-26.93579 -283.89831)"/><path d="M1221.53121,1499.02809V1322.57682h130.05635v30.42263H1256.1692v40.94319h91.33118v29.34527l-91.33118-.03083V1468.573h95.41836v30.45508Z" transform="translate(-26.93579 -283.89831)"/><path d="M1517.23272,1500.2953h-.03245c-17.74573,0-32.83064-5.07044-43.41432-15.37033h0c-10.61628-10.26743-16.068-25.19318-16.00474-42.78152h0V1379.4288c-.28394-24.40117,9.19007-40.97542,24.97252-48.994h0c15.591-8.04781,35.20751-9.03106,57.3276-9.12679h16.85982c19.67979,0,34.09769,3.73995,43.79546,13.43788h0c9.66562,9.792,12.58118,23.67286,12.58118,40.37367h0v12.26316H1578.7124v-11.63037c.06328-10.96513-1.61783-16.82737-4.089-19.23522h0c-2.21786-2.56686-7.85943-4.8806-20.56717-4.81754h-11.53464c-15.68672-.03245-27.254.69769-34.85866,2.75692h0c-7.66975,2.18718-10.61628,4.69054-12.86674,9.41213h0c-1.45867,3.2015-2.377,8.08025-2.377,14.926h0v44.52576c0,13.75265.31639,24.46466,2.0913,31.5h0c1.9975,7.12944,4.15208,9.98187,9.44334,12.42217h0c3.64407,1.61605,9.19006,2.63013,17.17621,2.63013h24.30728c12.00989.03245,20.6306-.66524,25.85842-2.218h0c5.26013-1.77506,6.65567-3.16882,8.23927-6.55993h0c.9508-2.34457,1.6159-6.0537,1.55262-11.345h0v-20.12415h34.638v22.24665c.28572,20.12437-8.0801,34.35221-21.64454,40.94481h0c-13.21412,6.654-29.69426,7.38256-47.94784,7.47829h-28.90054" transform="translate(-26.93579 -283.89831)"/><path d="M1845.70143,1499.02809l-.03083-74.66282h-91.33118v74.66282h-34.57471V1322.57682h34.57471v71.36582h91.33118v-71.36582h34.63621v176.45127Z" transform="translate(-26.93579 -283.89831)"/><path d="M1949.13838,1299.66471c12.61347,0,23.92583,9.09456,23.92583,23.261,0,14.13395-11.31236,23.26074-23.92583,23.26074-12.64445,0-23.8627-9.12679-23.8627-23.26074C1925.27568,1308.75927,1936.49393,1299.66471,1949.13838,1299.66471Zm0,41.54537c9.66548,0,17.5249-7.70058,17.5249-18.28441,0-10.64873-7.85942-18.31686-17.5249-18.31686-9.72875,0-17.556,7.66813-17.556,18.31686C1931.58234,1333.5095,1939.40963,1341.21008,1949.13838,1341.21008Zm12.23234-14.41952a11.22651,11.22651,0,0,1-11.34481,9.82448c-8.04942,0-13.37313-6.02125-13.37313-13.81755,0-8.017,4.944-13.94249,13.24658-13.94249,5.70469,0,10.394,3.35866,11.25053,9.66547h-4.84977c-.56935-2.94815-3.16866-4.691-6.40076-4.691-4.7216,0-7.25779,3.771-7.25779,8.84145,0,4.84977,2.85259,8.9694,7.38434,8.9694,3.42356,0,5.92714-1.83834,6.27421-4.84977Z" transform="translate(-26.93579 -283.89831)"/></g></g></svg>