<svg xmlns="http://www.w3.org/2000/svg" xmlns:xlink="http://www.w3.org/1999/xlink" viewBox="0 0 5625 1000.17781"><defs><radialGradient id="be5440ef-5653-456d-b8b5-4f55fac2697e" cx="875.84442" cy="500" r="712.73635" gradientTransform="translate(-2.21371 0.0889) scale(3.21371 1)" gradientUnits="userSpaceOnUse"><stop offset="0.00403" stop-color="#fff" stop-opacity="0"/><stop offset="1" stop-color="#231f20" stop-opacity="0.2"/></radialGradient></defs><title>logo_pop_news_X</title><g style="isolation:isolate"><g id="b344e6a2-0f9c-4b29-9617-c11946fc9a6c" data-name="Size : 5625 * 1000"><g id="b18bccb5-334d-4fdc-9f2e-4d70b185c771" data-name="Ancrage"><rect x="5624" y="999.0889" width="1" height="1" style="fill:none"/><rect x="5624" y="0.0889" width="1" height="1" style="fill:none"/><rect y="999.0889" width="1" height="1" style="fill:none"/><rect y="0.0889" width="1" height="1" style="fill:none"/></g></g><g id="ec13831f-5ed1-4f8f-b95f-a3f20a4a17ae" data-name="Fond"><rect id="ed04fce3-2b68-486e-b306-8ada6f74e513" data-name="Fond" width="5625" height="1000.17781" style="fill:#ca6ded"/><g id="ed40a868-8d44-4a02-b463-62803e407117" data-name="Bandes centre -&gt; ext" style="opacity:0.33"><polygon points="2569.555 0 2179.405 0 2812.5 500.089 2569.555 0" style="fill:#9f56ba"/><polygon points="3442.456 0 3052.667 0 2812.5 500.089 3442.456 0" style="fill:#9f56ba"/><polygon points="1529.717 0 791.989 0 2812.5 500.089 1529.717 0" style="fill:#9f56ba"/><polygon points="4826.012 0 4090.838 0 2812.5 500.089 4826.012 0" style="fill:#9f56ba"/><polygon points="5625 367.793 5625 155.341 2812.5 500.089 5625 367.793" style="fill:#9f56ba"/><polygon points="3055.449 1000.178 3445.601 1000.178 2812.5 500.089 3055.449 1000.178" style="fill:#9f56ba"/><polygon points="4095.289 1000.178 4833.018 1000.178 2812.5 500.089 4095.289 1000.178" style="fill:#9f56ba"/><polygon points="2812.5 500.089 5625 843.125 5625 630.868 2812.5 500.089" style="fill:#9f56ba"/><polygon points="0 157.048 0 369.309 2812.5 500.089 0 157.048" style="fill:#9f56ba"/><polygon points="0 632.381 0 844.836 2812.5 500.089 0 632.381" style="fill:#9f56ba"/><polygon points="798.976 1000.178 1534.156 1000.178 2812.5 500.089 798.976 1000.178" style="fill:#9f56ba"/><polygon points="2182.541 1000.178 2572.333 1000.178 2812.5 500.089 2182.541 1000.178" style="fill:#9f56ba"/></g><g id="be4f5e97-bdaa-4d5a-afb5-d6d1f7f7dfa2" data-name="Bandes bords -&gt; centre" style="opacity:0.85;mix-blend-mode:multiply"><polygon points="419.508 0 332.314 0 1711.78 290.22 419.508 0" style="fill:#67536e"/><polygon points="99.888 0 43.029 0 660.605 125.174 99.888 0" style="fill:#67536e"/><polygon points="1255.223 0 1168.029 0 2300.054 341.234 1255.223 0" style="fill:#67536e"/><polygon points="935.602 0 878.743 0 1419.616 155.342 935.602 0" style="fill:#67536e"/><polygon points="2026.651 0 1939.457 0 2595.363 328.571 2026.651 0" style="fill:#67536e"/><polygon points="1707.031 0 1650.171 0 2068.603 170.617 1707.031 0" style="fill:#67536e"/><polygon points="2478.459 0 2421.6 0 2595.363 185.194 2478.459 0" style="fill:#67536e"/><polygon points="5176.023 0 5263.217 0 3883.755 290.22 5176.023 0" style="fill:#67536e"/><polygon points="5495.644 0 5552.503 0 4934.927 125.174 5495.644 0" style="fill:#67536e"/><polygon points="4340.309 0 4427.503 0 3295.478 341.234 4340.309 0" style="fill:#67536e"/><polygon points="4659.93 0 4716.788 0 4175.916 155.342 4659.93 0" style="fill:#67536e"/><polygon points="3568.881 0 3656.074 0 3000.171 328.571 3568.881 0" style="fill:#67536e"/><polygon points="3888.501 0 3945.36 0 3526.932 170.617 3888.501 0" style="fill:#67536e"/><polygon points="3117.072 0 3173.931 0 3000.171 185.194 3117.072 0" style="fill:#67536e"/><polygon points="0 504.319 0 534.578 1022.049 514.833 0 504.319" style="fill:#67536e"/><polygon points="0 409.37 0 425.91 543.98 438.605 0 409.37" style="fill:#67536e"/><polygon points="0 316.774 0 328.772 559.339 359.242 0 316.774" style="fill:#67536e"/><polygon points="0 196.753 0 208.751 878.743 327.715 0 196.753" style="fill:#67536e"/><polygon points="0 86.733 0 98.731 530.991 170.617 0 86.733" style="fill:#67536e"/><polygon points="0 316.774 0 328.772 559.339 359.242 0 316.774" style="fill:#67536e"/><polygon points="0 196.753 0 208.751 878.743 327.715 0 196.753" style="fill:#67536e"/><polygon points="0 86.733 0 98.731 530.991 170.617 0 86.733" style="fill:#67536e"/><polygon points="0 616.368 0 598.285 620.263 582.999 0 616.368" style="fill:#67536e"/><polygon points="0 706.56 0 694.562 559.339 664.093 0 706.56" style="fill:#67536e"/><polygon points="0 826.582 0 814.583 878.743 695.619 0 826.582" style="fill:#67536e"/><polygon points="0 936.601 0 924.603 530.991 852.717 0 936.601" style="fill:#67536e"/><polygon points="2507.927 1000.178 2451.069 1000.178 2624.832 814.984 2507.927 1000.178" style="fill:#67536e"/><polygon points="5625 500.089 5625 469.83 4602.951 489.575 5625 500.089" style="fill:#67536e"/><polygon points="5625 591.465 5625 574.078 5053.171 560.733 5625 591.465" style="fill:#67536e"/><polygon points="5625 683.404 5625 671.405 5065.664 640.936 5625 683.404" style="fill:#67536e"/><polygon points="5625 803.425 5625 791.427 4746.257 672.462 5625 803.425" style="fill:#67536e"/><polygon points="5625 913.445 5625 901.446 5094.009 829.561 5625 913.445" style="fill:#67536e"/><polygon points="5625 683.404 5625 671.405 5065.664 640.936 5625 683.404" style="fill:#67536e"/><polygon points="5625 803.425 5625 791.427 4746.257 672.462 5625 803.425" style="fill:#67536e"/><polygon points="5625 913.445 5625 901.446 5094.009 829.561 5625 913.445" style="fill:#67536e"/><polygon points="5625 386.247 5625 402.748 5058.991 416.697 5625 386.247" style="fill:#67536e"/><polygon points="5625 293.618 5625 305.616 5065.664 336.085 5625 293.618" style="fill:#67536e"/><polygon points="5625 173.596 5625 185.594 4746.257 304.559 5625 173.596" style="fill:#67536e"/><polygon points="5625 63.577 5625 75.575 5094.009 147.461 5625 63.577" style="fill:#67536e"/><polygon points="3917.969 1000.178 3974.828 1000.178 3556.4 829.561 3917.969 1000.178" style="fill:#67536e"/><polygon points="3146.541 1000.178 3203.4 1000.178 3029.64 814.984 3146.541 1000.178" style="fill:#67536e"/><polygon points="448.977 1000.178 361.783 1000.178 1741.248 709.958 448.977 1000.178" style="fill:#67536e"/><polygon points="129.356 1000.178 72.497 1000.178 690.073 875.004 129.356 1000.178" style="fill:#67536e"/><polygon points="1284.691 1000.178 1197.497 1000.178 2329.522 658.944 1284.691 1000.178" style="fill:#67536e"/><polygon points="965.07 1000.178 908.212 1000.178 1449.084 844.836 965.07 1000.178" style="fill:#67536e"/><polygon points="2056.119 1000.178 1968.926 1000.178 2624.832 671.607 2056.119 1000.178" style="fill:#67536e"/><polygon points="1736.499 1000.178 1679.64 1000.178 2098.072 829.561 1736.499 1000.178" style="fill:#67536e"/><polygon points="5205.492 1000.178 5292.686 1000.178 3913.223 709.958 5205.492 1000.178" style="fill:#67536e"/><polygon points="5525.112 1000.178 5581.971 1000.178 4964.395 875.004 5525.112 1000.178" style="fill:#67536e"/><polygon points="4369.777 1000.178 4456.971 1000.178 3324.946 658.944 4369.777 1000.178" style="fill:#67536e"/><polygon points="4689.398 1000.178 4746.257 1000.178 4205.384 844.836 4689.398 1000.178" style="fill:#67536e"/><polygon points="3598.349 1000.178 3685.543 1000.178 3029.64 671.607 3598.349 1000.178" style="fill:#67536e"/></g><rect id="b88e9c5b-1403-4251-a8ea-51952822f7b7" data-name="Ombrage" width="5625" height="1000.17781" style="mix-blend-mode:soft-light;fill:url(#be5440ef-5653-456d-b8b5-4f55fac2697e)"/></g><g id="b97ba87e-c5c4-49fb-8ab0-2bbeddb25bfd" data-name="Texte"><path d="M1022.20313,233.64648l278.66992-15.85986,1.8291,62.21973q-32.92823,14.03979-76.22266,21.96-10.97607,1.83031-132.93164,15.25l9.14649,106.75,103.05273-1.21973,1.21973,96.98975-117.6875-3.04981,6.09765,142.12989,153.05469-7.32032,5.48828,64.66016-234.15625,3.0498Z" transform="translate(0 0.0889)" style="stroke:#000;stroke-miterlimit:10;stroke-width:10px"/><path d="M1370.38281,240.35645q104.87256,0,176.83594,54.8999,78.66211,59.78979,78.66211,161.6499,0,80.51954-14.02539,133.58984-17.07861,65.27931-58.53906,100.04-46.34766,39.04542-126.22461,39.04-17.07862,0-31.40332-1.21972a169.35377,169.35377,0,0,1-28.3545-4.87989Zm70.73438,423.95019q62.79785-16.4707,90.24707-61.61035,24.38232-39.64453,24.3916-108.58008,0-56.11524-17.68359-101.25976-23.78175-60.99024-69.51563-61a176.68792,176.68792,0,0,0-48.17187,6.71Z" transform="translate(0 0.0889)" style="stroke:#000;stroke-miterlimit:10;stroke-width:10px"/><path d="M1772.22363,458.12646q0,60.38966,6.09864,128.1001,4.25829,48.80861,15.24414,128.09961l-87.19825,1.83008q0-31.71093,2.43848-77.46973,5.48877-103.69482,5.48828-129.32031,0-48.79467-2.13379-88.145-2.14452-39.345-7.623-99.73486-3.05861-30.49512-9.75586-93.33008l89.02734-6.71q-6.10254,69.54053-8.8418,121.69531Q1772.22412,395.29663,1772.22363,458.12646Z" transform="translate(0 0.0889)" style="stroke:#000;stroke-miterlimit:10;stroke-width:10px"/><path d="M1976.49121,328.80664l-85.36914-1.22021-11.58594-95.16016,431.11524-7.92969-7.92774,48.79981L2049.665,301.96631l24.3916,406.26025H1963.07617Z" transform="translate(0 0.0889)" style="stroke:#000;stroke-miterlimit:10;stroke-width:10px"/><path d="M2444.7998,458.12646q0,60.38966,6.09864,128.1001,4.25829,48.80861,15.24414,128.09961l-87.19824,1.83008q0-31.71093,2.43847-77.46973,5.48877-103.69482,5.48828-129.32031,0-48.79467-2.13379-88.145-2.14452-39.345-7.623-99.73486-3.05859-30.49512-9.75586-93.33008l89.02734-6.71q-6.10254,69.54053-8.84179,121.69531Q2444.80029,395.29663,2444.7998,458.12646Z" transform="translate(0 0.0889)" style="stroke:#000;stroke-miterlimit:10;stroke-width:10px"/><path d="M2902.127,475.20654q0,72.59987-41.46484,150.06006-48.17871,90.28417-114.0293,90.28028-75.61817,0-137.81054-83.57032-57.32373-77.46093-57.31934-156.16015,0-92.10059,43.9043-161.04,50.606-79.29052,137.20019-79.29981,73.77393,0,125.00488,86.00977Q2902.1172,395.91577,2902.127,475.20654Zm-235.376,7.92969q0,39.65991,21.95215,112.23975,25.61132,84.18016,51.22167,84.18066,18.89357,0,37.80665-81.74023,15.8496-68.9253,15.85449-101.87012,0-39.64527-20.12305-122-23.78173-96.375-46.34375-96.37988-22.56591,0-43.29394,90.89013Q2666.74657,443.48657,2666.751,483.13623Z" transform="translate(0 0.0889)" style="stroke:#000;stroke-miterlimit:10;stroke-width:10px"/><path d="M3052.73926,746.65625l-.60938,18.2998-72.56445,7.32032q0-42.08936,6.09863-178.12012,3.044-67.70947,3.04883-107.96973,0-31.71093-6.09766-137.25-3.05859-52.45531-3.0498-83.57031l59.75879-4.87988q34.75781,25.01953,68.90527,62.22021,27.43946,29.28,59.14844,71.98,27.44092,37.8296,54.88086,75.63965,5.4873-37.20044,8.53613-74.72461,3.04542-37.51538,3.04981-75.335a436.81066,436.81066,0,0,0-2.13477-46.05517q-2.14307-19.81567-7.62207-52.76514,28.04,0,60.36816,12.20019,0,35.38477-1.8291,82.96-4.27294,111.0293-4.26855,139.08007,0,45.75,4.26855,92.71973,4.25831,46.98046,21.95215,173.24023l-89.63769-5.49023q-41.47558-79.29053-82.32032-158.59961-50.62206-92.71583-96.3457-148.84033,0,46.97973,3.96387,108.88525,3.958,61.919,8.23144,123.21973Q3052.73048,702.12647,3052.73926,746.65625Z" transform="translate(0 0.0889)" style="stroke:#000;stroke-miterlimit:10;stroke-width:10px"/><path d="M3823.499,398.95654l14.63477-65.27,88.418,3.65967a207.51793,207.51793,0,0,0,8.53711-28.66992,131.93644,131.93644,0,0,0,3.04883-28.06006l-1.82911-37.81982,66.46582-5.48975a525.27016,525.27016,0,0,0-33.53808,100.03955l57.31933-1.82959a279.5758,279.5758,0,0,0,14.93946-45.75,371.979,371.979,0,0,0,7.62207-50.63037l76.22265,3.66016a242.99809,242.99809,0,0,0-28.65918,45.75,201.6447,201.6447,0,0,0-15.85449,48.7998h75.00293L4108.876,393.46631h-57.31934l-11.58594,63.43994,68.90528-4.87988-1.8291,56.72949-81.71094,3.05078q-3.65772,17.08447-4.57324,24.39941a178.702,178.702,0,0,0-.91407,20.74024,285.15,285.15,0,0,0,2.74317,40.87012,412.2352,412.2352,0,0,0,8.84179,42.70019l-78.66113-15.86035,20.73242-115.90039-54.2705,3.05078v93.93945l-78.05176,10.37012a248.9047,248.9047,0,0,0,21.95215-51.24023,306.768,306.768,0,0,0,10.36621-54.89942h-76.832l12.80468-53.07031h76.833l12.19531-61.60986Zm109.76075,61.60987,59.75781-3.66016,12.80566-71.36963H3943.626Z" transform="translate(0 0.0889)" style="stroke:#000;stroke-miterlimit:10;stroke-width:10px"/><path d="M4336.32324,482.52637a1167.07978,1167.07978,0,0,1-64.332-118.33985q-27.7544-59.16064-52.13574-126.87988l100.00391-6.71045q9.14647,59.78979,20.73242,104.92041,14.02,57.34423,33.53808,100.6499,28.04-37.81567,39.02637-96.37988,7.91748-42.69068,7.92676-104.92041l125.00488,2.44043q-43.90429,58.55932-70.73437,116.50977-24.39552,51.85473-45.124,127.49023,56.71,43.91895,88.418,111.01953,24.38232,51.85546,42.0752,137.25L4456.4502,717.376q0-71.36865-11.89063-102.4795-11.89014-31.11034-58.23437-79.91015-34.15723,16.47071-58.53907,83.57031-14.63379,39.65918-26.21972,104.30957l-81.71094-3.0498q15.23438-70.14112,43.29394-126.26953Q4289.36133,541.70605,4336.32324,482.52637Z" transform="translate(0 0.0889)" style="stroke:#000;stroke-miterlimit:10;stroke-width:10px"/></g><g id="aa7ee87f-be78-43ca-860d-e5c0340ceb61" data-name="icons"><g id="b599e428-efbc-4663-8fe4-f5785a84e6b8" data-name="Alligator 2"><path d="M5388.71392,716.19139,5342.7967,574.08567c-2.14523-6.6959-8.39589-11.81323-15.59485-10.92854L4895.484,578.94859a15.75184,15.75184,0,0,0-14.84316,12.4088l-27.63359,126.32005a15.78814,15.78814,0,0,0,9.03194,17.80948c7.835,3.47516,17.27172,8.02,27.76081,13.07377C4934.954,770.25587,4996.81877,800,5042.10572,800c34.70534,0,48.81993-12.84826,59.11242-22.26184,7.04283-6.37787,10.23466-9.31528,19.83327-9.31528s12.79044,2.93741,19.83328,9.31528C5151.17718,787.117,5165.29177,800,5199.99711,800c45.28695,0,107.15174-29.74413,152.30569-51.43931,10.518-5.05373,19.92579-9.59861,27.76081-13.07377A15.74973,15.74973,0,0,0,5388.71392,716.19139Z" transform="translate(0 0.0889)" style="fill:#3aa03a"/><path d="M5263.15713,200c-12.75574,0-27.18835,5.05373-44.84171,15.79145l-44.90531-14.97036a15.83856,15.83856,0,0,0-9.98024,0l-42.37846,14.11458L5078.673,200.82109a15.83856,15.83856,0,0,0-9.98024,0l-44.33865,14.77954-.94252-.09251C5010.01976,207.5459,4994.60994,200,4978.94569,200,4938.81077,200,4836.84,267.79743,4836.84,310.5286c0,22.67238,20.903,58.29133,40.424,83.99942,10.4197,13.89486,37.45193,47.21245,63.50118,56.55664a15.686,15.686,0,0,0,15.79145-3.02992c28.57611-25.32646,37.45194-26.905,38.18051-27.00333,12.536,0,40.86349,18.41084,61.51207,31.86624,29.81352,19.42273,48.91823,31.29379,64.80219,31.29379s34.98868-11.87106,64.8022-31.29379c20.64858-13.4554,48.97605-31.86624,61.327-31.86624.9136.0983,9.78943,1.67687,38.33662,26.96864a15.799,15.799,0,0,0,15.78567,3.0357c26.055-9.35,53.08727-42.66757,63.44336-56.49882,19.61355-25.737,40.51655-61.356,40.51655-84.02833C5405.26285,267.79743,5303.29205,200,5263.15713,200Z" transform="translate(0 0.0889)" style="fill:#3aa03a"/><path d="M4890.08336,643.24194l-78.95148-31.57712a15.79026,15.79026,0,0,0-21.66048,14.65234c0,36.82166,44.08423,123.72958,49.10326,133.54792a15.80113,15.80113,0,0,0,14.05677,8.5578c.41054,0,.78639,0,1.19693-.02891a15.71137,15.71137,0,0,0,13.76765-10.73773l31.5829-94.73714A15.78134,15.78134,0,0,0,4890.08336,643.24194Z" transform="translate(0 0.0889)" style="fill:#cfd8dc"/><path d="M5069.86074,626.79131l-63.15424,15.79145a15.7932,15.7932,0,0,0-10.29827,22.389l31.57712,63.15424a15.76174,15.76174,0,0,0,14.12037,8.71971h.65918a15.78722,15.78722,0,0,0,13.99316-9.91664l31.57712-78.95148a15.80927,15.80927,0,0,0-18.47444-21.18633Z" transform="translate(0 0.0889)" style="fill:#cfd8dc"/><path d="M5445.68689,613.24339a15.7643,15.7643,0,0,0-14.71595-1.57857l-78.95147,31.57712a15.806,15.806,0,0,0-9.12447,19.67716l31.57712,94.73714a15.718,15.718,0,0,0,13.76765,10.73773c.44524.02891.82109.02891,1.23163.02891a15.8011,15.8011,0,0,0,14.05676-8.5578c5.019-9.81834,49.10327-96.72626,49.10327-133.54792A15.82114,15.82114,0,0,0,5445.68689,613.24339Z" transform="translate(0 0.0889)" style="fill:#cfd8dc"/><path d="M5235.39633,642.58276l-63.15424-15.79145a15.79114,15.79114,0,0,0-18.50914,21.15742l31.58291,78.94569a15.76073,15.76073,0,0,0,13.98737,9.91664h.665a15.75821,15.75821,0,0,0,14.11458-8.71392l31.57712-63.16a15.83532,15.83532,0,0,0,.22551-13.67513A15.61477,15.61477,0,0,0,5235.39633,642.58276Z" transform="translate(0 0.0889)" style="fill:#cfd8dc"/><path d="M5057.89139,342.10572a47.36857,47.36857,0,1,1-47.36857-47.36857A47.36721,47.36721,0,0,1,5057.89139,342.10572Z" transform="translate(0 0.0889)" style="fill:#fafafa"/><path d="M5278.94859,342.10572A47.36858,47.36858,0,1,1,5231.58,294.73715,47.37092,47.37092,0,0,1,5278.94859,342.10572Z" transform="translate(0 0.0889)" style="fill:#fafafa"/><path d="M5402.70708,422.53746c-12.18908-13.16628-27.41387-29.5591-29.02135-33.06317a15.81907,15.81907,0,0,0-6.09454-12.47241l-5.684-4.42346a15.77929,15.77929,0,0,0-22.33123,3.001c-14.2071,18.94859-29.4608,34.29481-41.21042,41.81179-23.08293-19.48634-38.58527-27.91693-50.99986-27.91693-21.9149,0-49.5138,17.9656-78.75488,36.97779-15.98226,10.39079-40.1407,26.14754-47.55939,26.18224-7.41868-.0347-31.57712-15.79145-47.55938-26.18224-29.24108-19.01219-56.84-36.97779-78.75488-36.97779-12.41459,0-27.91693,8.43059-50.99986,27.91693-11.74963-7.517-27.00332-22.8632-41.21043-41.81179a15.86024,15.86024,0,0,0-10.518-6.187,15.58147,15.58147,0,0,0-11.81324,3.186l-5.684,4.42346c-3.851,3.001-5.869,5.71291-5.869,10.57582-1.833,5.40066-17.05778,21.79348-29.24686,34.95976-38.74717,41.74819-97.29292,104.80991-97.29292,172.20258,0,23.27374,17.717,47.36857,47.36857,47.36857,54.50393,0,83.08582,21.66048,106.04154,39.05941,16.35811,12.3799,31.83154,24.09483,51.85563,24.09483,18.47444,0,32.3693-10.51221,47.08524-21.59687,23.17545-17.56084,54.94339-41.55737,126.5976-41.55737s103.42216,23.99653,126.5976,41.55737c14.687,11.11357,28.5819,21.59687,47.08525,21.59687,20.02409,0,35.49751-11.71493,51.85563-24.09483,22.95572-17.39893,51.53761-39.05941,106.04154-39.05941C5482.283,642.10861,5500,618.01378,5500,594.74,5500,527.34737,5441.45425,464.28565,5402.70708,422.53746Z" transform="translate(0 0.0889)" style="fill:#388e3c"/><path d="M4947.36857,452.63432a15.5524,15.5524,0,0,1-4.8976-.79218C4900,437.94728,4836.84,347.28666,4836.84,310.5286,4836.84,267.79743,4938.81077,200,4978.94569,200c41.68458,0,95.93987,56.87467,106.38848,68.27158a15.8016,15.8016,0,0,1-23.30266,21.34823c-22.10572-24.09483-62.52975-58.04269-83.08582-58.04269-30.5363,0-109.6439,60.31514-110.52859,78.98039,0,21.97851,52.93114,101.17862,83.8433,111.28608a15.78541,15.78541,0,0,1-4.89183,30.79073Z" transform="translate(0 0.0889)"/><path d="M4852.63143,768.42288a15.80113,15.80113,0,0,1-14.05677-8.5578c-5.019-9.81834-49.10326-96.72626-49.10326-133.54792a15.78856,15.78856,0,1,1,31.57712,0c0,15.75676,14.3054,52.29509,28.92883,84.41l19.26083-57.823a15.78015,15.78015,0,0,1,29.94073,9.98024l-31.5829,94.73715a15.71136,15.71136,0,0,1-13.76765,10.73772A7.55113,7.55113,0,0,1,4852.63143,768.42288Z" transform="translate(0 0.0889)"/><path d="M5042.10572,736.84576a15.76174,15.76174,0,0,1-14.12037-8.71971l-31.57712-63.15424a15.7974,15.7974,0,0,1,28.26387-14.12037l15.85505,31.71012,18.50335-46.29885a15.79587,15.79587,0,0,1,29.33937,11.71493l-31.5829,78.95148a15.77923,15.77923,0,0,1-13.98737,9.91664Z" transform="translate(0 0.0889)"/><path d="M5057.89139,515.78856a15.76087,15.76087,0,0,1-7.04284-1.67108l-52.989-26.49449-23.52239,23.52817a15.79056,15.79056,0,0,1-22.33122-22.33123l31.5829-31.57712a15.745,15.745,0,0,1,18.22-2.96632l63.16,31.57712a15.80128,15.80128,0,0,1-7.07753,29.93495Z" transform="translate(0 0.0889)"/><path d="M5010.52282,389.47429a47.36857,47.36857,0,1,1,47.36857-47.36857A47.42656,47.42656,0,0,1,5010.52282,389.47429Zm0-63.16a15.79145,15.79145,0,1,0,15.79145,15.79145A15.79607,15.79607,0,0,0,5010.52282,326.31427Z" transform="translate(0 0.0889)"/><path d="M5215.78856,247.36857a15.50047,15.50047,0,0,1-4.99012-.82108L5168.42,232.4329l-42.37845,14.11459a15.83873,15.83873,0,0,1-9.98025,0l-42.37845-14.11459-42.37845,14.11459a15.77741,15.77741,0,1,1-9.98024-29.935l47.36857-15.79145a15.83856,15.83856,0,0,1,9.98024,0l42.37845,14.11458,42.37846-14.11458a15.83856,15.83856,0,0,1,9.98024,0l47.36857,15.79145a15.78388,15.78388,0,0,1-4.99012,30.756Z" transform="translate(0 0.0889)"/><path d="M5294.73426,452.63432a15.78541,15.78541,0,0,1-4.89183-30.79073c30.91216-10.10746,83.8433-89.30757,83.8433-111.315-.88469-18.63634-79.99229-78.95148-110.5286-78.95148-20.61967,0-61.009,33.94786-83.08582,58.04269a15.80159,15.80159,0,1,1-23.30265-21.34823C5167.21727,256.87467,5221.47256,200,5263.15713,200c40.13492,0,142.10572,67.79743,142.10572,110.5286,0,36.75806-63.16,127.41868-105.631,141.31354A15.5524,15.5524,0,0,1,5294.73426,452.63432Z" transform="translate(0 0.0889)"/><path d="M5357.89428,515.78856a15.71411,15.71411,0,0,1-11.87105-5.40066c-41.11792-46.98695-86.40486-87.914-98.87728-89.3654-12.3452,0-40.60906,18.41083-61.22873,31.86046-29.84244,19.42273-48.91823,31.32848-64.86581,31.32848s-35.02337-11.90575-64.8658-31.32848c-20.61967-13.42071-48.88353-31.83155-61.44846-31.83155-12.25269,1.42245-57.50494,42.34954-98.65755,89.33649a15.79883,15.79883,0,1,1-23.7768-20.81049c26.36727-30.09107,91.01335-100.10312,122.43435-100.10312,21.94381,0,49.5138,17.93669,78.69127,36.94888,16.01118,10.4197,40.20431,26.17645,47.623,26.21115,7.41869-.0347,31.61182-15.79145,47.623-26.21115,29.17747-19.01219,56.74746-36.94888,78.69127-36.94888,31.421,0,96.06708,70.012,122.39966,100.13781a15.765,15.765,0,0,1-11.87106,26.17646Z" transform="translate(0 0.0889)"/><path d="M5294.73426,705.26285c-18.43975,0-32.3057-10.4833-46.987-21.568-23.21013-17.555-54.97807-41.58628-126.6959-41.58628s-103.48576,24.03123-126.6959,41.58628c-14.68125,11.08466-28.54719,21.568-46.98694,21.568-19.9894,0-35.43391-11.71493-51.792-24.09483-22.95571-17.39893-51.53761-39.05941-106.10514-39.05941-29.65161,0-47.36857-24.09483-47.36857-47.36857,0-67.29437,58.51684-130.39079,97.264-172.17366,12.218-13.16629,27.44278-29.588,29.27577-34.98868,0-8.71392,6.94453-14.84316,15.69315-14.84316,8.71392,0,15.66424,8.02583,15.66424,16.73975,0,13.57684-11.49521,26.55809-37.51554,54.60223C4827.14306,482.18764,4773.68,539.81979,4773.68,594.74c0,4.38876,2.84489,15.78567,15.79145,15.78567,65.178,0,99.88339,26.30945,125.20985,45.47776,13.01017,9.88194,23.30844,17.68226,32.68732,17.68226,7.48229,0,15.0918-5.49318,27.91115-15.19009,25.29755-19.10471,63.478-47.96993,145.77169-47.96993s120.47415,28.86522,145.7717,47.96993c12.81935,9.69691,20.42885,15.19009,27.91115,15.19009,9.37888,0,19.67715-7.80032,32.68732-17.68226,25.32646-19.203,59.99711-45.47776,125.20985-45.47776,12.94656,0,15.79145-11.39691,15.79145-15.78567,0-54.92025-53.46312-112.5524-88.83342-150.66352-25.99143-28.04414-37.48663-41.02539-37.48663-54.60223a15.79314,15.79314,0,0,1,31.5193-1.45135c2.46326,5.8112,17.20811,21.72408,29.11386,34.54344C5441.48316,464.34925,5500,527.44567,5500,594.74c0,23.27374-17.717,47.36857-47.36857,47.36857-54.56754,0-83.14943,21.66048-106.10514,39.05941C5330.16817,693.54792,5314.72365,705.26285,5294.73426,705.26285Zm78.95147-315.81747Z" transform="translate(0 0.0889)"/><path d="M5389.4714,768.42288c-.41054,0-.78639,0-1.19693-.02891a15.71136,15.71136,0,0,1-13.76765-10.73773l-31.58291-94.73714a15.78016,15.78016,0,0,1,29.94074-9.98025l19.26083,57.823c14.62342-32.17848,28.92883-68.71681,28.92883-84.44466a15.78856,15.78856,0,1,1,31.57712,0c0,36.82166-44.08423,123.72958-49.10327,133.54792A15.8011,15.8011,0,0,1,5389.4714,768.42288Z" transform="translate(0 0.0889)"/><path d="M5199.99711,736.84576h-.65918a15.78722,15.78722,0,0,1-13.99316-9.91664l-31.57712-78.95148a15.79587,15.79587,0,0,1,29.33937-11.71493l18.50335,46.29885,15.84927-31.71012a15.7974,15.7974,0,1,1,28.26387,14.12037l-31.57712,63.15424A15.8374,15.8374,0,0,1,5199.99711,736.84576Z" transform="translate(0 0.0889)"/><path d="M5184.21144,515.78856a15.78134,15.78134,0,0,1-7.07753-29.906l63.16-31.57712a15.80931,15.80931,0,0,1,18.22,2.96632l31.5829,31.5829a15.78852,15.78852,0,0,1-22.33123,22.32545l-23.52238-23.52816-52.989,26.49448A15.89749,15.89749,0,0,1,5184.21144,515.78856Z" transform="translate(0 0.0889)"/><path d="M5231.58,389.47429a47.36857,47.36857,0,1,1,47.36858-47.36857A47.42285,47.42285,0,0,1,5231.58,389.47429Zm0-63.16a15.79145,15.79145,0,1,0,15.78567,15.79145A15.7973,15.7973,0,0,0,5231.58,326.31427Z" transform="translate(0 0.0889)"/><path d="M5199.99711,800c-34.70534,0-48.81993-12.84826-59.11242-22.26184-7.04284-6.37787-10.23466-9.31528-19.83328-9.31528s-12.79044,2.93741-19.83327,9.31528C5090.92565,787.15174,5076.81106,800,5042.10572,800c-45.28695,0-107.15174-29.74413-152.30569-51.43931-10.518-5.05373-19.92579-9.59861-27.76081-13.07377a15.78019,15.78019,0,0,1,12.76153-28.86523c8.08365,3.56768,17.83839,8.24556,28.66863,13.45541,40.0424,19.26083,100.54835,48.34578,138.63634,48.34578,22.45266,0,29.27-6.18706,37.86248-14.02207,8.58671-7.82923,19.29552-17.555,41.08321-17.555s32.49651,9.72582,41.08322,17.555c8.59249,7.835,15.40982,14.02207,37.86248,14.02207,38.088,0,98.59394-29.08495,138.63634-48.34578,10.83024-5.20985,20.585-9.88773,28.66863-13.45541a15.78019,15.78019,0,0,1,12.76153,28.86523c-7.835,3.47516-17.27172,8.02-27.76081,13.07377C5307.14885,770.25587,5245.28406,800,5199.99711,800Z" transform="translate(0 0.0889)"/></g><g id="be601a6d-7dbf-43d3-b563-b59415620621" data-name="Alligator 1"><path d="M189.78946,511.355a10.40666,10.40666,0,0,0-6.61567-4.02844c-3.17777-.37263-6.32391,1.29713-8.48227,3.65936a27.526,27.526,0,0,0-4.71042,8.29949c-1.68379,4.08117-3.16371,8.23969-4.55222,12.42985a150.80743,150.80743,0,0,0,33.33145-2.081q-2.55734-5.67883-5.11115-11.35773a30.99841,30.99841,0,0,0-3.85972-6.92147Z" transform="translate(0 0.0889)" style="fill:#e3e4e5"/><path d="M134.05191,500.82338c1.53967,3.02659,3.47656,6.14464,6.59809,7.48747,3.63476,1.56076,8.0288.19685,10.94644-2.47122s4.612-6.41181,5.88451-10.15554a65.67873,65.67873,0,0,0,2.61885-10.48943c.0246-.14767.0457-.29528.0703-.44295-6.359.37611-13.41413,1.11079-21.32692,2.28842a77.05007,77.05007,0,0,1-10.02193.76633A79.85019,79.85019,0,0,0,134.05191,500.82338Z" transform="translate(0 0.0889)" style="fill:#e3e4e5"/><path d="M404.50346,388.38864a20.38039,20.38039,0,0,1-9.86023-10.66874,52.66641,52.66641,0,0,0-101.991,14.78154,8.41088,8.41088,0,0,1-6.58053,7.56127c-18.51122,4.28507-30.58254,23.4009-30.58254,23.4009-23.654-11.6776-50.651,3.03013-50.651,3.03013-14.04687-14.80616-34.69888-13.31571-45.77889-11.11869a28.53875,28.53875,0,0,0-49.71244-2.56259c-18.121-5.96184-38.759,1.40258-47.44161,19.07367-10.46485,21.29879,9.0447,33.71813,9.0447,33.71813s27.59459,27.43992,67.88972,21.43941c83.9684-12.5072,71.46471,25.01091,153.64736,7.14649,0,0-26.80014,5.36071-48.23955,19.65369s-82.18266,28.58589-117.915,7.14648c-19.37949-11.62839-32.15736,7.14649-25.01089,21.43941s37.0822,50.89355,107.19707,28.5859c78.61119-25.01091,164.36531,28.5859,185.80472-25.01091a72.00913,72.00913,0,0,0,22.40259-12.01861C476.50247,485.93288,452.81682,414.07446,404.50346,388.38864Z" transform="translate(0 0.0889)" style="fill:#3aa03a"/><path d="M344.30156,481.683c-17.86442,17.86442-51.811,12.5072-51.811,12.5072s-26.80014,5.36071-48.23955,19.65369-82.18266,28.58589-117.915,7.14648c-19.37949-11.62839-32.15736,7.14649-25.01089,21.43941s37.0822,50.89355,107.19707,28.5859c78.61119-25.01091,164.36531,28.5859,185.80472-25.01091S362.166,463.81505,344.30156,481.683Z" transform="translate(0 0.0889)" style="fill:#f9bd55"/><path d="M816.46081,424.58854c1.24087,3.2516,2.95981,5.07249,13.161,15.18581,9.75475-10.46836,14.73232-24.445,14.61984-39.14214-8.76,2.04587-18.2054,4.967-22.842,8.84433-4.42918,3.70154-7.03047,9.63173-4.9389,15.112Z" transform="translate(0 0.0889)" style="fill:#7ccc4e"/><path d="M805.72528,454.60862c-3.71911-7.50855-8.20809-15.06277-12.61619-18.462-4.56627-3.52226-10.91833-4.78423-15.81855-1.56076-3.25863,2.14429-4.60495,4.43974-15.06628,20.98946C779.28368,459.12922,793.82972,458.40156,805.72528,454.60862Z" transform="translate(0 0.0889)" style="fill:#7ccc4e"/><path d="M720.10469,414.89c-4.02142.84013-6.1552,2.63643-24.37111,15.93455,14.70776,5.61734,29.0253,12.51422,43.81389,18.01557-.54486-9.64581-1.88415-20.96133-5.301-26.68767-2.95632-4.95649-8.39792-8.46116-14.14177-7.26248Z" transform="translate(0 0.0889)" style="fill:#7ccc4e"/><path d="M665.26707,400.80093c-4.387-3.74373-10.67224-5.31855-15.72367-2.33763-3.4801,2.04938-4.94946,4.40809-17.31956,21.98778a148.85132,148.85132,0,0,1,39.21243,2.84381c2.62586.573,5.20607,1.28657,7.78623,2.01071-3.64177-9.17125-8.70725-20.02979-13.95548-24.5047Z" transform="translate(0 0.0889)" style="fill:#7ccc4e"/><path d="M608.98465,422.845c-5.76149-7.91982-13.23839-17.0067-19.35487-20.01575-5.17442-2.545-11.653-2.52043-15.815,1.61-2.99146,2.97038-3.76835,5.69118-12.39821,28.28005,15.81153-3.75076,31.69686-7.46636,47.56814-9.87428Z" transform="translate(0 0.0889)" style="fill:#7ccc4e"/><path d="M535.44242,438.69869c.47454-.10194.94913-.21091,1.42366-.31636-5.06543-8.20807-11.61079-17.48126-17.32659-20.8805-4.95649-2.94927-11.41394-3.4414-15.89236.348-3.2059,2.71377-4.19719,5.34668-14.50034,26.98646A272.06651,272.06651,0,0,0,535.44242,438.69869Z" transform="translate(0 0.0889)" style="fill:#7ccc4e"/><path d="M879.07763,563.138c74.90963-75.73572,72.75123-164.94535,41.95083-220.95706C888.55824,283.1285,838.547,282.51684,773.473,291.64239c-74.51593,10.45079-104.84539,16.258-129.92657,13.7516a6.45882,6.45882,0,0,0-6.58752,3.99683,6.54543,6.54543,0,0,0,3.71209,8.59474c29.22564,11.26633,49.71243,5.89506,78.09091,3.34652,165.64489-14.85537,158.67064,171.90546,29.66156,130.60149-26.11114-8.35922-50.19754-22.81737-76.98361-28.64565-44.97392-9.78289-90.98833,5.758-135.99036,15.40728-28.22384,6.05324-59.27739,9.07985-86.96689,2.92819,9.24506,29.88652,2.306,64.97908-31.74958,92.35222a72.01016,72.01016,0,0,1-22.40259,12.01861c-3.91245,9.77937-9.98325,15.95914-17.74489,19.731a376.73656,376.73656,0,0,0,101.063,56.26134c1.74,4.41163,3.20941,8.85138,2.879,13.53013-.5097,7.18865-5.18146,13.31569-9.70557,18.919-2.73134,3.38168-5.74039,6.92851-9.92,8.12373-3.19887.91748-6.60511.30933-9.8989-.15116-15.94863-2.22512-33.24006-.348-46.59091,8.28893a2.47037,2.47037,0,0,0,1.044,4.48893c.04218.00354.08086.01057.123.014A2.48239,2.48239,0,0,1,406.69,679.647l-5.13575,3.83513a6.98727,6.98727,0,0,0,4.12336,12.58455l15.79042.13356a2.50112,2.50112,0,0,1,1.68732,4.32024q-2.30421,2.146-4.80882,4.07065a2.50136,2.50136,0,0,0,1.45882,4.51709q20.18976-.04215,40.37247-.83665c9.1396-.35857,19.34784-1.3358,25.31319-8.27133,2.80868-3.26566,4.22883-7.389,5.21661-11.639a5.76271,5.76271,0,0,1,5.75093-4.40461,35.1795,35.1795,0,0,0,25.46434-10.602c6.75627-7.05508,10.19067-16.59191,12.93957-25.96352.87527-2.981,1.6873-6.004,2.436-9.04823,40.18264,7.52614,84.095,9.09393,132.09547,3.41681,18.70108,16.05756,41.64144,24.36762,41.64144,24.36762-3.19887.91748-6.60511.30933-9.89888-.15115-15.94862-2.22513-33.24-.348-46.5909,8.28893a2.47037,2.47037,0,0,0,1.044,4.48893c.04216.00354.08084.01056.12305.014a2.48238,2.48238,0,0,1,1.11079,4.44677L651.68775,687.05a6.98727,6.98727,0,0,0,4.12338,12.58455l15.79045.13356a2.50109,2.50109,0,0,1,1.6873,4.32023q-2.30422,2.15134-4.80883,4.07066a2.50137,2.50137,0,0,0,1.4588,4.51709q20.18971-.04216,40.37247-.83665c9.13963-.35857,19.34784-1.33581,25.31321-8.27134,2.80866-3.26565,4.22884-7.389,5.21659-11.639a5.76266,5.76266,0,0,1,5.75092-4.40461s33.47208-22.33227,8.999-62.82076c2.72079-.74171,5.424-1.44474,8.16588-2.22867C804.75861,610.78,841.29241,601.34156,879.07769,563.138Z" transform="translate(0 0.0889)" style="fill:#3aa03a"/><path d="M646.6855,607.16978c-39.78893,2.70321-74.74088,1.32175-105.32346-2.74188.37262,11.28039-1.34632,22.78225-4.08117,33.93256v-.00354c40.18264,7.52614,84.095,9.09393,132.09548,3.41681C658.80254,632.69036,649.62777,621.12173,646.6855,607.16978Z" transform="translate(0 0.0889)" style="fill:#f9bd55"/><path d="M474.15783,612.82582a41.936,41.936,0,0,1-.40775-23.32355c-35.71128-11.45965-62.22315-26.39939-81.00505-39.97877a34.46768,34.46768,0,0,1-16.163,16.20878,376.769,376.769,0,0,0,101.05947,56.26133c-1.19871-3.04772-2.52043-6.08134-3.48359-9.16773Z" transform="translate(0 0.0889)" style="fill:#f9bd55"/><path d="M777.91977,581.46286l.52726.27066c-7.09725,26.0936-32.92721,29.24677-32.92721,29.24677a102.83058,102.83058,0,0,1,10.05357,13.74458v-.00354c2.7208-.74171,5.424-1.44474,8.16588-2.22867,41.02278-11.71624,77.56011-21.15115,115.34539-59.3547,44.04942-44.53453,61.42874-93.72319,62.02632-138.08542C930.30513,478.108,876.70484,563.86561,777.91977,581.46286Z" transform="translate(0 0.0889)" style="fill:#f9bd55"/><path d="M669.9212,721.48167a11.26367,11.26367,0,0,1-11.1222-13.02041l-3.07937-.02811A15.77475,15.77475,0,0,1,645.55,680.712a11.46278,11.46278,0,0,1-.61164-1.92282,11.1035,11.1035,0,0,1,4.81939-11.89556,66.4823,66.4823,0,0,1,25.66825-9.50872c-2.92468-1.97909-5.874-4.13389-8.77049-6.4575-42.87179,4.75261-84.16877,3.9054-122.94882-2.52041-.14059.49213-.28123.98078-.42535,1.46937-3.04773,10.384-6.97421,21.15818-15.02412,29.56313A44.25575,44.25575,0,0,1,498.666,692.713a32.85077,32.85077,0,0,1-6.52077,13.024c-8.96737,10.42968-23.71026,11.00972-31.63008,11.32254-13.46687.52726-27.15869.812-40.69939.84368h-.01757a11.26128,11.26128,0,0,1-11.1222-13.02047l-3.07935-.0281a15.77655,15.77655,0,0,1-10.17308-27.72114,11.4669,11.4669,0,0,1-.61166-1.92283,11.10371,11.10371,0,0,1,4.81939-11.892c13.89222-8.98848,32.55811-12.39472,52.57736-9.61765l.85419.123c2.10562.29882,4.28157.60461,5.417.28826,1.69786-.48865,3.98628-3.32193,5.50135-5.19905,3.916-4.85453,7.46285-9.579,7.77569-14.02226a16.30148,16.30148,0,0,0-.98075-6.09191,387.515,387.515,0,0,1-99.57253-56.12773,8.78239,8.78239,0,0,1,1.53614-14.84834c6.25711-3.04418,10.52462-7.839,13.42468-15.09444a8.77763,8.77763,0,0,1,5.38182-5.07246,62.985,62.985,0,0,0,19.67828-10.53165c27.73871-22.2936,38.2563-52.51058,28.85655-82.90679a8.7868,8.7868,0,0,1,10.29964-11.17493c22.64163,5.03381,50.644,4.039,83.21613-2.94225,8.1905-1.7541,16.6095-3.75427,24.75076-5.68763,37.51108-8.90759,76.30873-18.114,114.95168-9.71611,16.47943,3.58907,31.85858,10.21878,46.735,16.63058,10.1344,4.36945,20.61332,8.88651,31.0606,12.233,31.99214,10.23637,58.78877,6.08488,73.52812-11.39638,12.915-15.32291,14.44059-38.32659,3.88786-58.60246C811.926,341.70293,771.1915,325.445,719.53865,330.08157c-4.86858.43589-9.50518.95616-13.98713,1.46234-22.47994,2.531-41.8981,4.71394-68.04791-5.36074a15.30993,15.30993,0,0,1,6.92153-29.53848c19.29162,1.91931,42.98781-1.50453,90.2044-8.33112,11.15386-1.61349,23.60833-3.41681,37.627-5.3783,61.75212-8.66153,120.19289-10.971,156.47362,55.00288,30.56852,55.58289,37.54267,149.531-43.4026,231.36922-38.12272,38.54453-75.46854,49.17814-115.01144,60.44094l-1.97554.55891c17.57617,40.88567-16.51811,64.28309-16.89422,64.53267a8.87853,8.87853,0,0,1-2.5837,1.17055,33.04461,33.04461,0,0,1-6.5946,13.29112c-8.96735,10.42968-23.71024,11.00972-31.63008,11.32254-13.46684.52727-27.16223.812-40.69939.84368-.007.014-.01406.014-.0176.014Zm-246.19294-9.93755c-.007.00354-.01406.01056-.02462.01759A.10688.10688,0,0,1,423.72826,711.54412ZM661.214,690.90268l10.44374.08786a11.32556,11.32556,0,0,1,11.09758,12.80951c9.08691-.12654,18.19135-.36909,27.19034-.72412,7.26245-.28471,15.32288-.95261,18.99281-5.21658,1.40607-1.63812,2.429-4.07066,3.32192-7.90225a14.42439,14.42439,0,0,1,10.89725-10.82693c5.61029-4.54171,22.16707-21.27421,4.88971-49.8601a8.785,8.785,0,0,1,5.20956-13.024l2.67859-.72412c1.78926-.48156,3.57852-.95615,5.38533-1.47639l4.17959-1.19168c38.87849-11.06948,72.45252-20.63092,107.33066-55.8922,74.13279-74.95184,68.14982-160.263,40.499-210.54142-28.27656-51.41733-68.87045-55.86058-138.63381-46.07067-13.98713,1.965-26.42053,3.75779-37.54976,5.36776-35.525,5.13927-58.12441,8.40844-76.08023,8.96386,14.3773,2.56965,27.29225,1.12136,42.52379-.59407,4.612-.51675,9.37515-1.05458,14.38432-1.50452,58.98916-5.29745,106.146,14.47574,126.13364,52.87263,13.85706,26.61735,11.48781,57.25263-6.03918,78.0417-19.55874,23.21108-53.21007,29.33815-92.32408,16.80984-11.26633-3.60312-22.14244-8.296-32.66353-12.83061-14.75694-6.36607-28.69483-12.37361-43.51158-15.60062-34.74459-7.55424-71.55612,1.18814-107.15489,9.63876-8.23266,1.958-16.75009,3.97926-25.12688,5.77553-29.03233,6.22549-54.94661,7.976-77.26837,5.21309,5.17443,32.90611-8.15534,64.51511-37.78174,88.32377a79.32553,79.32553,0,0,1-21.4113,12.17679,45.61749,45.61749,0,0,1-9.31538,12.936A367.18763,367.18763,0,0,0,480.675,613.74325a8.78274,8.78274,0,0,1,5.14629,5.0303c2.06695,5.25177,3.91948,10.98865,3.466,17.37229-.73468,10.31721-7.2941,18.44093-11.63542,23.81569-2.90711,3.59607-7.29761,9.03418-14.33513,11.05543-4.73853,1.36037-9.17828.72063-12.74272.21444l-.79444-.11247c-12.58806-1.74706-24.28674-.54486-33.76032,3.3887.02813.09488.05272.18982.07734.28471A11.24165,11.24165,0,0,1,411.931,686.702l-.84716.63272,10.44376.08786a11.32556,11.32556,0,0,1,11.09759,12.8095c9.08687-.12653,18.19134-.36908,27.19034-.72411,7.26248-.28472,15.3229-.95262,18.9928-5.21659,1.4061-1.63811,2.429-4.07066,3.3219-7.90225a14.324,14.324,0,0,1,14.40894-11.19955,26.71648,26.71648,0,0,0,19.01743-7.89522c5.4416-5.68415,8.433-14.10664,10.85155-22.35336q1.2602-4.28683,2.33412-8.67206a8.78273,8.78273,0,0,1,10.15554-6.54182c40.46386,7.57886,84.01407,8.70022,129.445,3.3254a8.78523,8.78523,0,0,1,6.75627,2.05993c17.18949,14.75694,38.7027,22.69786,38.91715,22.77521a8.79086,8.79086,0,0,1-.58,16.70793c-4.74205,1.36037-9.17825.72063-12.74626.21445l-.79095-.11248c-12.59157-1.75059-24.28674-.54486-33.75679,3.3887.02811.0914.05273.18982.07735.28471a11.2417,11.2417,0,0,1-4.16554,11.90961Zm-244.0627,3.19888-.01054.01057Zm79.20524-1.34283h0Zm158.18556-5.26583h0Zm-250.12647-3.575h0ZM656.7004,670.0468c.03514.007.07032.01057.102.01406C656.77072,670.05732,656.73559,670.05383,656.7004,670.0468Zm-250.11945-3.575c.007,0,.01405.00354.02108.00354C406.595,666.47536,406.588,666.47182,406.58095,666.47182Z" transform="translate(0 0.0889)"/><path d="M394.31984,554.78927a8.79863,8.79863,0,0,1-8.15885-12.05722c10.35588-25.88269.46048-44.06348-12.25059-52.44729-8.7178-5.75093-18.99984-6.79848-23.40091-2.39387-20.79261,20.79612-57.82913,15.21394-59.39338,14.97842a8.78682,8.78682,0,0,1,2.7208-17.36173c.29176.04924,29.81271,4.3905,44.24273-10.03952,10.59491-10.59491,29.3065-10.52813,45.5047.14767,17.65,11.64244,33.18733,37.91181,18.89439,73.64768a8.77866,8.77866,0,0,1-8.15886,5.526Z" transform="translate(0 0.0889)"/><path d="M215.66158,454.7422a8.79737,8.79737,0,0,1-8.39789-6.2079A40.00559,40.00559,0,0,0,198.46153,432.54a8.78731,8.78731,0,1,1,12.74976-12.0959,57.30548,57.30548,0,0,1,12.85521,22.92285,8.79235,8.79235,0,0,1-8.40492,11.3753Z" transform="translate(0 0.0889)"/><path d="M272.84389,447.59223a8.77624,8.77624,0,0,1-7.20623-3.74725A37.64638,37.64638,0,0,0,251.5943,431.3413a8.78793,8.78793,0,1,1,7.78274-15.7588,54.88568,54.88568,0,0,1,20.65551,18.18078,8.79109,8.79109,0,0,1-7.18866,13.82895Z" transform="translate(0 0.0889)"/><path d="M138.83965,442.235a8.7896,8.7896,0,0,1-8.33462-6.01456,3.52826,3.52826,0,0,0-1.58888-1.58535,8.78843,8.78843,0,0,1,5.55407-16.67629c.97372.32693,9.62119,3.4414,12.70757,12.70757a8.79415,8.79415,0,0,1-8.33814,11.56863Z" transform="translate(0 0.0889)"/><path d="M166.97911,586.91851c-51.40679,0-71.01827-35.56712-73.51409-40.55875-5.38183-10.76717-3.24457-23.74891,5.199-31.5633,6.54888-6.06026,18.44443-9.59657,32.196-1.34283,31.67928,19.00686,87.1989,6.72816,107.82277-6.47156-10.32425-1.31821-18.48661-3.90894-26.533-6.46453-16.34936-5.18848-33.2506-10.54924-72.01309-4.78072-41.01223,6.106-69.80551-18.68348-74.68817-23.23219-9.04822-6.20087-22.14246-22.69436-11.428-44.4888,9.36458-19.05607,30.89188-29.15534,51.90594-25.14447a37.3283,37.3283,0,0,1,57.52681,2.91063c12.02913-1.46234,29.14832-.82608,43.03,10.30666,9.13258-3.70857,27.58053-9.25562,46.01793-3.29025,5.72984-6.9215,16.71494-17.78356,31.40861-21.25309A61.4533,61.4533,0,0,1,402.89,374.68974a11.71216,11.71216,0,0,0,5.73685,5.94075v.00352c29.04989,15.44593,48.97424,44.93876,51.99734,76.9766,2.96335,31.3805-10.67226,60.93656-38.39338,83.21964A79.27791,79.27791,0,0,1,400.83356,553c-15.63224,32.305-52.72148,28.034-91.9093,23.5099-30.51574-3.51523-65.10565-7.498-97.74459,2.879C194.35576,584.73908,179.69371,586.91851,166.97911,586.91851Zm-52.254-60.77135a5.85948,5.85948,0,0,0-4.11985,1.53969c-2.2603,2.095-3.52579,6.59106-1.42016,10.80585,2.422,4.8475,25.735,46.71395,96.669,24.13913,36.235-11.52648,72.81457-7.3117,105.08794-3.589,41.93674,4.84047,66.11452,6.46453,75.2225-16.31423a8.77763,8.77763,0,0,1,5.38182-5.07246,62.98508,62.98508,0,0,0,19.67828-10.53165c22.965-18.45852,34.29461-42.55892,31.90776-67.86862-2.43957-25.82642-19.22131-50.60178-42.7558-63.11252a29.17649,29.17649,0,0,1-13.98359-15.3932,43.87879,43.87879,0,0,0-84.97374,12.28572,17.28439,17.28439,0,0,1-13.36844,15.583c-14.66556,3.39573-25.046,19.39354-25.1515,19.55172a8.80347,8.80347,0,0,1-11.3085,3.16372c-19.16154-9.45248-42.34452,2.75593-42.57652,2.879a8.82511,8.82511,0,0,1-10.55624-1.68378c-11.13626-11.73736-28.39606-10.391-37.69385-8.54553a8.80421,8.80421,0,0,1-9.579-4.70338A19.747,19.747,0,0,0,116.764,417.5054a8.79343,8.79343,0,0,1-10.16957,3.64179c-14.546-4.78774-30.36811,1.49047-36.808,14.60228-6.53482,13.29812,3.807,21.04922,5.94426,22.47289a9.56333,9.56333,0,0,1,1.40961,1.13892c.22849.21794,25.15852,24.20588,60.40226,18.97525,42.77688-6.3696,62.51142-.109,79.91885,5.41343,17.61134,5.59275,32.84987,10.42266,71.90412,2.10917.78039-.17578,1.262-.2742,1.39556-.29882a8.78762,8.78762,0,0,1,3.59258,17.20354c-.30933.06678-.6222.13356-.928.20039-4.41866.98781-26.59274,6.3696-44.30249,18.17376-23.07751,15.38269-87.13914,31.48241-127.31124,7.37145a14.9456,14.9456,0,0,0-7.08671-2.36223Z" transform="translate(0 0.0889)"/><path d="M327.2773,413.27651a8.78757,8.78757,0,0,1-8.78808-8.75995,26.272,26.272,0,0,1,26.185-26.35372h.08437a26.3,26.3,0,0,1,26.26934,26.185,8.7891,8.7891,0,0,1-8.76,8.81622h-.02813a8.78759,8.78759,0,0,1-8.78809-8.76,8.70439,8.70439,0,0,0-8.69317-8.665h-.02813a8.69535,8.69535,0,0,0-8.66507,8.7213,8.7891,8.7891,0,0,1-8.76,8.81622h-.02813Z" transform="translate(0 0.0889)"/><path d="M172.75814,540.70726q-3.95991,0-7.82139-.21793a8.78733,8.78733,0,0,1-7.853-11.53351c1.65919-5.0127,3.17426-9.15014,4.76666-13.01692a35.739,35.739,0,0,1,6.352-10.88668,17.99585,17.99585,0,0,1,28.41715.76982,38.37832,38.37832,0,0,1,5.04436,8.84435l5.11468,11.35773a8.78721,8.78721,0,0,1-6.53834,12.27167A163.783,163.783,0,0,1,172.75814,540.70726Zm9.41732-24.57151a3.47871,3.47871,0,0,0-1.00536.78038,20.98084,20.98084,0,0,0-3.07231,5.72283l-.15818.39016q3.93354-.15294,7.96551-.53783l-.27418-.60815a24.44308,24.44308,0,0,0-2.67157-4.99163l-.00352-.007A3.69042,3.69042,0,0,0,182.17546,516.13575Z" transform="translate(0 0.0889)"/><path d="M143.986,517.76684a17.18427,17.18427,0,0,1-6.8055-1.38151c-5.75092-2.47471-8.87948-7.48392-10.9605-11.57566v-.00354a89.11167,89.11167,0,0,1-5.80716-14.44762,8.7904,8.7904,0,0,1,8.25376-11.33665,67.96949,67.96949,0,0,0,8.89-.6679c7.846-1.16706,15.28072-1.96852,22.09676-2.37279a8.79089,8.79089,0,0,1,9.19233,10.18364l-.07031.44643a74.28414,74.28414,0,0,1-2.97038,11.899c-1.43422,4.2253-3.6699,9.61417-8.27486,13.82192a20.27615,20.27615,0,0,1-13.5442,5.43457Zm-2.10211-20.92266c1.392,2.73485,2.09508,3.30433,2.27436,3.41681a6.01335,6.01335,0,0,0,1.51155-.90692,13.19238,13.19238,0,0,0,2.84733-4.735q-3.54862.4113-7.26247.95262C141.462,495.997,141.66942,496.41883,141.88385,496.84418Z" transform="translate(0 0.0889)"/><path d="M419.79826,717.90668a11.2613,11.2613,0,0,1-11.1222-13.02046l-3.07934-.02811A15.77654,15.77654,0,0,1,395.42364,677.137a11.4656,11.4656,0,0,1-.61167-1.92282,11.10373,11.10373,0,0,1,4.8194-11.892c13.89222-8.98848,32.5581-12.39472,52.57736-9.61771l.85419.123c2.10562.29881,4.28156.60461,5.417.28825,1.69787-.48865,3.98629-3.32192,5.50135-5.19905,3.916-4.85452,7.46285-9.579,7.77569-14.02226.24607-3.47656-1.34986-7.41012-3.19887-11.96588-.9667-2.38685-1.96852-4.85453-2.79109-7.49095a50.976,50.976,0,0,1-.334-28.88821,8.78867,8.78867,0,0,1,16.89772,4.84048,33.21766,33.21766,0,0,0,.21793,18.817c.60461,1.94042,1.42718,3.9687,2.299,6.113,2.33412,5.75442,4.97757,12.27167,4.44325,19.82243-.73468,10.31721-7.2941,18.44093-11.63541,23.81569-2.90712,3.59607-7.29762,9.03418-14.33514,11.05543-4.73853,1.36037-9.17828.72063-12.74272.21444l-.79444-.11247c-12.58806-1.74706-24.28674-.54486-33.76029,3.3887.02813.09488.05272.18982.07734.28471a11.24764,11.24764,0,0,1-4.16554,11.90961l-.84716.63272,10.44376.08786a11.32554,11.32554,0,0,1,11.09758,12.8095c9.08688-.12653,18.19135-.36908,27.19034-.72411,7.26248-.28472,15.32291-.95262,18.99281-5.21659,1.4061-1.63811,2.429-4.07066,3.3219-7.89871a14.32338,14.32338,0,0,1,14.40894-11.203c.08437,0,.16872.00354.2566.00354a26.37355,26.37355,0,0,0,18.76083-7.89871c5.4416-5.68415,8.433-14.10663,10.85155-22.35335,7.59291-25.88269,8.25379-45.47657,2.088-61.65718-2.15834-5.65953-4.87212-9.67043-8.06745-11.91316a8.78638,8.78638,0,1,1,10.09927-14.38078c6.11653,4.29562,10.96049,11.0343,14.39135,20.03334,7.607,19.956,7.08319,43.1108-1.64514,72.8673-3.04772,10.384-6.9742,21.15819-15.02412,29.56313a44.25573,44.25573,0,0,1-29.59124,13.27353,32.85051,32.85051,0,0,1-6.52077,13.024c-8.96737,10.42968-23.71026,11.00973-31.63008,11.32254-13.46686.52727-27.15869.812-40.69939.84368a.014.014,0,0,0-.014-.007Zm3.93-6.36256c-.007.007-.01756.01056-.02462.01759C423.71069,711.55468,423.72123,711.55114,423.72828,711.54412Zm-6.577-17.44261-.01054.01056Zm79.20525-1.34284h0Z" transform="translate(0 0.0889)"/><path d="M745.51987,619.76838a8.76613,8.76613,0,0,1-6.6719-3.06526A160.62191,160.62191,0,0,0,720.94139,599.148a8.78822,8.78822,0,0,1,11.38235-13.393,178.79773,178.79773,0,0,1,19.86459,19.506,8.78619,8.78619,0,0,1-6.66841,14.50737Z" transform="translate(0 0.0889)"/><path d="M669.9212,721.48167a11.26367,11.26367,0,0,1-11.1222-13.02041l-3.07937-.02811A15.77475,15.77475,0,0,1,645.55,680.712a11.46278,11.46278,0,0,1-.61164-1.92282,11.1035,11.1035,0,0,1,4.81939-11.89556,66.49828,66.49828,0,0,1,25.6366-9.50518c-14.23317-9.65284-29.09208-23.429-35.39489-41.3778-6.00753-17.10866-3.42737-34.99417,7.67375-53.15735,9.6036-15.7131,22.24087-27.468,37.56027-34.94492a8.78825,8.78825,0,1,1,7.7054,15.79747c-12.25762,5.97943-22.44127,15.50568-30.26971,28.31518-8.33109,13.62856-10.32074,26.11468-6.08488,38.16842,10.71091,30.49467,56.96083,47.51542,57.42486,47.68062a8.78925,8.78925,0,0,1-.56594,16.715c-4.74205,1.36037-9.17825.72063-12.74626.21444l-.791-.11248c-12.59157-1.75059-24.28674-.54485-33.75678,3.3887.0281.0914.05272.18983.07734.28472A11.2417,11.2417,0,0,1,662.06106,690.27l-.84716.63272,10.44373.08786a11.32555,11.32555,0,0,1,11.09759,12.8095c9.0869-.12653,18.19135-.36908,27.19034-.72412,7.26245-.28471,15.32288-.95261,18.99281-5.21658,1.40607-1.63811,2.429-4.07066,3.32192-7.89871a14.41425,14.41425,0,0,1,10.80933-10.80933c3.18483-2.68213,10.90776-10.261,12.41232-21.77691,1.60292-12.25059-3.9968-25.93187-16.63407-40.6642a8.788,8.788,0,0,1,5.60326-14.44407c.7593-.10546,20.11063-2.97038,25.51355-22.83143a8.78672,8.78672,0,0,1,16.95746,4.612,47.37449,47.37449,0,0,1-26.779,31.53514c10.41214,15.21743,14.69016,30.11148,12.72164,44.40445-3.08988,22.42019-20.67662,34.3755-21.42182,34.87466a8.6964,8.6964,0,0,1-2.58369,1.17055,33.04477,33.04477,0,0,1-6.59461,13.29112c-8.96734,10.42968-23.71024,11.00972-31.63008,11.32254-13.46684.52727-27.16223.812-40.69939.84368a.01406.01406,0,0,0-.014-.007Zm-13.2208-51.43492c.03514.007.07032.01057.10546.014C656.77421,670.05726,656.73908,670.05378,656.7004,670.04675Z" transform="translate(0 0.0889)"/><path d="M612.94632,653.95754a419.68943,419.68943,0,0,1-77.28243-6.96369,8.78925,8.78925,0,0,1-6.918-10.7285c2.88955-11.79011,4.14093-22.1108,3.83159-31.54571a8.78486,8.78486,0,0,1,9.93761-9.006c32.14329,4.271,66.9863,5.1674,103.57287,2.68567a8.83547,8.83547,0,0,1,9.19585,6.95666c2.17594,10.31372,8.84081,20.32159,19.81889,29.74942a8.788,8.788,0,0,1-4.6964,15.39326,489.36741,489.36741,0,0,1-57.46,3.459Zm-65.13026-22.68028c32.54756,5.27988,66.98984,6.46453,102.70812,3.55037a66.65152,66.65152,0,0,1-10.34183-18.44795,543.44039,543.44039,0,0,1-90.19389-2.04587A134.70837,134.70837,0,0,1,547.81606,631.27726Z" transform="translate(0 0.0889)"/><path d="M477.64142,630.77811a8.78314,8.78314,0,0,1-3.02661-.53783,386.82513,386.82513,0,0,1-103.41116-57.562,8.78531,8.78531,0,0,1,1.53615-14.85184,25.5481,25.5481,0,0,0,12.14514-12.233,8.79211,8.79211,0,0,1,13.00986-3.19534c22.32525,16.14548,48.74928,29.17645,78.54089,38.73435a8.78669,8.78669,0,0,1,5.79311,10.67578,33.26728,33.26728,0,0,0,.31636,18.39871c.61166,1.97206,1.44477,4.025,2.32358,6.19736l.9491,2.36925a8.784,8.784,0,0,1-8.17645,12.00451Zm-86.12675-64.835a370.07455,370.07455,0,0,0,72.41382,41.16341,50.29005,50.29005,0,0,1-.1828-11.67763,297.94979,297.94979,0,0,1-68.55058-33.50371A43.45274,43.45274,0,0,1,391.51467,565.94313Z" transform="translate(0 0.0889)"/><path d="M755.56636,633.50942a8.79,8.79,0,0,1-7.5226-4.24289,94.69915,94.69915,0,0,0-9.19938-12.56347,8.788,8.788,0,0,1,5.60326-14.44407c.72766-.09843,18.39523-2.71377,24.6945-20.23368a8.79254,8.79254,0,0,1,7.23081-9.21343c95.00272-16.92232,146.17749-100.69036,156.11858-149.51347a8.78741,8.78741,0,0,1,17.39686,1.87361c-.49213,36.47758-12.09241,91.09729-64.5678,144.14919-38.12272,38.54453-75.46855,49.17814-115.01144,60.44093l-4.16909,1.18814c-1.8982.53783-3.77184,1.044-5.649,1.54672l-2.61883.70657a8.77114,8.77114,0,0,1-2.306.30585ZM785.32281,588.982a46.60093,46.60093,0,0,1-20.1669,23.96685l.34452-.09843c38.87848-11.06948,72.45246-20.63092,107.33066-55.8922a225.32425,225.32425,0,0,0,33.36662-42.573c-27.37663,33.68652-67.366,63.51677-120.87485,74.59681Z" transform="translate(0 0.0889)"/><path d="M829.61832,448.56244a8.77671,8.77671,0,0,1-6.1868-2.54854c-10.398-10.31369-13.19618-13.08371-15.18229-18.2968-3.28674-8.61232-.341-18.41982,7.50854-24.98278,5.0022-4.17611,13.6637-7.66673,26.48028-10.65818a8.78966,8.78966,0,0,1,10.78825,8.48929c.13356,17.25276-5.895,33.30684-16.97858,45.19889a8.77744,8.77744,0,0,1-6.25363,2.7946C829.73782,448.56244,829.67807,448.56244,829.61832,448.56244Zm4.56279-35.90459c-4.44329,1.624-6.37662,2.91413-7.15,3.56093-1.6416,1.37445-2.98094,3.61366-2.36223,5.23418v.00351c.348.91046,1.1565,1.97555,4.046,4.96A46.99461,46.99461,0,0,0,834.18111,412.65785Z" transform="translate(0 0.0889)"/><path d="M783.42814,466.67644a112.77006,112.77006,0,0,1-22.99663-2.50284,8.79188,8.79188,0,0,1-5.63845-13.30164l1.5643-2.47824c9.67747-15.3194,11.42452-18.08236,16.09624-21.15819,7.7054-5.07248,17.91715-4.30615,26.01974,1.94744,4.85807,3.74374,9.80748,10.78475,15.12255,21.52027a8.78474,8.78474,0,0,1-5.20259,12.27168,81.63511,81.63511,0,0,1-24.96521,3.70154Zm-6.52428-17.83278a76.9511,76.9511,0,0,0,15.36858-.27068,23.00459,23.00459,0,0,0-4.53114-5.46971c-1.69786-1.3147-4.17611-2.13727-5.62788-1.18111C781.13264,442.57247,779.95856,444.11567,776.90386,448.84366Z" transform="translate(0 0.0889)"/><path d="M739.54747,457.62469a8.835,8.835,0,0,1-3.06526-.55188c-7.97257-2.96335-15.83615-6.33446-23.44312-9.59306-6.70006-2.872-13.62507-5.84233-20.4411-8.44711a8.7887,8.7887,0,0,1-2.04587-15.30883l5.01974-3.66639c14.62338-10.69685,17.25981-12.62321,22.733-13.76917,9.03418-1.89471,18.24407,2.56965,23.48882,11.35773,3.61366,6.06026,5.69117,15.81153,6.52777,30.695a8.79385,8.79385,0,0,1-8.774,9.28373Zm-25.88972-28.99717q3.17952,1.34983,6.30635,2.69618c3.07229,1.3147,6.18331,2.65048,9.31535,3.96167-.94559-5.315-2.01073-7.68078-2.58016-8.62991-1.09674-1.83847-3.07583-3.54688-4.79477-3.1602-1.22681.25309-3.01608,1.36742-8.24671,5.13224ZM720.10469,414.89h0Z" transform="translate(0 0.0889)"/><path d="M679.22255,434.0902a8.72537,8.72537,0,0,1-2.37628-.32692c-2.58718-.72766-4.9213-1.37446-7.28358-1.88769a138.94845,138.94845,0,0,0-36.90294-2.65048,8.90343,8.90343,0,0,1-8.13074-4.53817,8.788,8.788,0,0,1,.50972-9.29778l2.90708-4.13744c10.43671-14.85186,12.31738-17.52344,17.14031-20.36726,7.93738-4.67878,18.09995-3.42032,25.88618,3.22347,5.417,4.619,10.78825,13.76214,16.41968,27.9461a8.79061,8.79061,0,0,1-8.16943,12.03617Zm-29.98848-22.48342c4.967.232,9.78291.68547,14.47926,1.36391a22.43276,22.43276,0,0,0-4.148-5.48727c-1.63108-1.38851-4.06363-2.33412-5.5611-1.45531-.93154.55188-2.05992,1.8455-4.77016,5.57867Z" transform="translate(0 0.0889)"/><path d="M561.42,441.50735a8.79064,8.79064,0,0,1-8.2081-11.92718l2.81569-7.396c6.461-16.97859,7.62456-20.03683,11.59674-23.98093,6.5489-6.50317,16.71141-7.77569,25.88972-3.26214,6.33794,3.118,13.7235,10.55273,22.57836,22.73654a8.78694,8.78694,0,0,1-5.79309,13.85706c-14.93272,2.2638-29.44008,5.60329-46.851,9.73719a8.85148,8.85148,0,0,1-2.02827.23552Zm20.95082-31.63008a3.27312,3.27312,0,0,0-2.36223.80146c-.93154.928-1.87364,2.98443-4.47842,9.73016,5.57167-1.25846,11.38584-2.51338,17.27387-3.65585-3.79292-4.08822-6.02861-5.533-7.04806-6.03566a7.98114,7.98114,0,0,0-3.38516-.84014Z" transform="translate(0 0.0889)"/><path d="M489.14328,453.62435a8.78753,8.78753,0,0,1-7.93387-12.567l3.2973-6.94258c7.78272-16.39857,9.1853-19.35487,13.45633-22.97207,7.041-5.9548,17.27032-6.42585,26.069-1.19165,6.04969,3.59609,12.50371,11.16791,20.311,23.81923a8.791,8.791,0,0,1-5.61383,13.20323l-1.44829.31636a281.00656,281.00656,0,0,1-47.80718,6.32743c-.10545.00352-.21793.007-.33043.007Zm22.18114-29.69317a3.05328,3.05328,0,0,0-2.00016.62571c-1.05807.89638-2.22165,3.04067-5.7615,10.42266q9.0113-.94911,18.58505-2.63643c-3.79292-4.92484-6.08134-6.67895-7.10079-7.28707a7.69351,7.69351,0,0,0-3.72265-1.12487Z" transform="translate(0 0.0889)"/></g></g></g></svg>