<svg xmlns="http://www.w3.org/2000/svg" xmlns:xlink="http://www.w3.org/1999/xlink" viewBox="0 0 5625 1000"><defs><radialGradient id="f7ee9022-9ada-4f49-b0de-0bd97c373ebf" cx="875.84442" cy="500" r="712.73635" gradientTransform="translate(-2.21371) scale(3.21371 1)" gradientUnits="userSpaceOnUse"><stop offset="0.00403" stop-color="#fff" stop-opacity="0"/><stop offset="1" stop-color="#231f20" stop-opacity="0.2"/></radialGradient></defs><title>logo_pop_news_9_Plan de travail 1_Plan de travail 1</title><g style="isolation:isolate"><g id="a05a309f-deab-4eeb-af55-eb4add8826f5" data-name="Fond"><rect y="-0.0889" width="5625" height="1000.17781" style="fill:#87d6ff"/><g style="opacity:0.38"><polygon points="2569.555 -0.089 2179.405 -0.089 2812.5 500 2569.555 -0.089" style="fill:#4d91b3"/><polygon points="3442.456 -0.089 3052.667 -0.089 2812.5 500 3442.456 -0.089" style="fill:#4d91b3"/><polygon points="1529.717 -0.089 791.989 -0.089 2812.5 500 1529.717 -0.089" style="fill:#4d91b3"/><polygon points="4826.012 -0.089 4090.838 -0.089 2812.5 500 4826.012 -0.089" style="fill:#4d91b3"/><polygon points="5625 367.704 5625 155.252 2812.5 500 5625 367.704" style="fill:#4d91b3"/><polygon points="3055.449 1000.089 3445.601 1000.089 2812.5 500 3055.449 1000.089" style="fill:#4d91b3"/><polygon points="4095.289 1000.089 4833.018 1000.089 2812.5 500 4095.289 1000.089" style="fill:#4d91b3"/><polygon points="2812.5 500 5625 843.037 5625 630.779 2812.5 500" style="fill:#4d91b3"/><polygon points="0 156.96 0 369.22 2812.5 500 0 156.96" style="fill:#4d91b3"/><polygon points="0 632.292 0 844.747 2812.5 500 0 632.292" style="fill:#4d91b3"/><polygon points="798.976 1000.089 1534.156 1000.089 2812.5 500 798.976 1000.089" style="fill:#4d91b3"/><polygon points="2182.541 1000.089 2572.333 1000.089 2812.5 500 2182.541 1000.089" style="fill:#4d91b3"/></g><g style="opacity:0.63;mix-blend-mode:multiply"><polygon points="419.508 -0.089 332.314 -0.089 1711.78 290.131 419.508 -0.089" style="fill:#4d91b3"/><polygon points="99.888 -0.089 43.029 -0.089 660.605 125.085 99.888 -0.089" style="fill:#4d91b3"/><polygon points="1255.223 -0.089 1168.029 -0.089 2300.054 341.145 1255.223 -0.089" style="fill:#4d91b3"/><polygon points="935.602 -0.089 878.743 -0.089 1419.616 155.253 935.602 -0.089" style="fill:#4d91b3"/><polygon points="2026.651 -0.089 1939.457 -0.089 2595.363 328.482 2026.651 -0.089" style="fill:#4d91b3"/><polygon points="1707.031 -0.089 1650.171 -0.089 2068.603 170.528 1707.031 -0.089" style="fill:#4d91b3"/><polygon points="2478.459 -0.089 2421.6 -0.089 2595.363 185.105 2478.459 -0.089" style="fill:#4d91b3"/><polygon points="5176.023 -0.089 5263.217 -0.089 3883.755 290.131 5176.023 -0.089" style="fill:#4d91b3"/><polygon points="5495.644 -0.089 5552.503 -0.089 4934.927 125.085 5495.644 -0.089" style="fill:#4d91b3"/><polygon points="4340.309 -0.089 4427.503 -0.089 3295.478 341.145 4340.309 -0.089" style="fill:#4d91b3"/><polygon points="4659.93 -0.089 4716.788 -0.089 4175.916 155.253 4659.93 -0.089" style="fill:#4d91b3"/><polygon points="3568.881 -0.089 3656.074 -0.089 3000.171 328.482 3568.881 -0.089" style="fill:#4d91b3"/><polygon points="3888.501 -0.089 3945.36 -0.089 3526.932 170.528 3888.501 -0.089" style="fill:#4d91b3"/><polygon points="3117.072 -0.089 3173.931 -0.089 3000.171 185.105 3117.072 -0.089" style="fill:#4d91b3"/><polygon points="0 504.23 0 534.49 1022.049 514.744 0 504.23" style="fill:#4d91b3"/><polygon points="0 409.281 0 425.821 543.98 438.516 0 409.281" style="fill:#4d91b3"/><polygon points="0 316.685 0 328.683 559.339 359.153 0 316.685" style="fill:#4d91b3"/><polygon points="0 196.664 0 208.662 878.743 327.627 0 196.664" style="fill:#4d91b3"/><polygon points="0 86.644 0 98.643 530.991 170.528 0 86.644" style="fill:#4d91b3"/><polygon points="0 316.685 0 328.683 559.339 359.153 0 316.685" style="fill:#4d91b3"/><polygon points="0 196.664 0 208.662 878.743 327.627 0 196.664" style="fill:#4d91b3"/><polygon points="0 86.644 0 98.643 530.991 170.528 0 86.644" style="fill:#4d91b3"/><polygon points="0 616.279 0 598.196 620.263 582.91 0 616.279" style="fill:#4d91b3"/><polygon points="0 706.471 0 694.473 559.339 664.004 0 706.471" style="fill:#4d91b3"/><polygon points="0 826.493 0 814.494 878.743 695.53 0 826.493" style="fill:#4d91b3"/><polygon points="0 936.512 0 924.514 530.991 852.628 0 936.512" style="fill:#4d91b3"/><polygon points="2507.927 1000.089 2451.069 1000.089 2624.832 814.895 2507.927 1000.089" style="fill:#4d91b3"/><polygon points="5625 500 5625 469.741 4602.951 489.486 5625 500" style="fill:#4d91b3"/><polygon points="5625 591.376 5625 573.989 5053.171 560.645 5625 591.376" style="fill:#4d91b3"/><polygon points="5625 683.315 5625 671.317 5065.664 640.847 5625 683.315" style="fill:#4d91b3"/><polygon points="5625 803.336 5625 791.338 4746.257 672.373 5625 803.336" style="fill:#4d91b3"/><polygon points="5625 913.356 5625 901.357 5094.009 829.472 5625 913.356" style="fill:#4d91b3"/><polygon points="5625 683.315 5625 671.317 5065.664 640.847 5625 683.315" style="fill:#4d91b3"/><polygon points="5625 803.336 5625 791.338 4746.257 672.373 5625 803.336" style="fill:#4d91b3"/><polygon points="5625 913.356 5625 901.357 5094.009 829.472 5625 913.356" style="fill:#4d91b3"/><polygon points="5625 386.158 5625 402.659 5058.991 416.608 5625 386.158" style="fill:#4d91b3"/><polygon points="5625 293.529 5625 305.527 5065.664 335.996 5625 293.529" style="fill:#4d91b3"/><polygon points="5625 173.507 5625 185.506 4746.257 304.47 5625 173.507" style="fill:#4d91b3"/><polygon points="5625 63.488 5625 75.486 5094.009 147.372 5625 63.488" style="fill:#4d91b3"/><polygon points="3917.969 1000.089 3974.828 1000.089 3556.4 829.472 3917.969 1000.089" style="fill:#4d91b3"/><polygon points="3146.541 1000.089 3203.4 1000.089 3029.64 814.895 3146.541 1000.089" style="fill:#4d91b3"/><polygon points="448.977 1000.089 361.783 1000.089 1741.248 709.869 448.977 1000.089" style="fill:#4d91b3"/><polygon points="129.356 1000.089 72.497 1000.089 690.073 874.915 129.356 1000.089" style="fill:#4d91b3"/><polygon points="1284.691 1000.089 1197.497 1000.089 2329.522 658.855 1284.691 1000.089" style="fill:#4d91b3"/><polygon points="965.07 1000.089 908.212 1000.089 1449.084 844.747 965.07 1000.089" style="fill:#4d91b3"/><polygon points="2056.119 1000.089 1968.926 1000.089 2624.832 671.518 2056.119 1000.089" style="fill:#4d91b3"/><polygon points="1736.499 1000.089 1679.64 1000.089 2098.072 829.472 1736.499 1000.089" style="fill:#4d91b3"/><polygon points="5205.492 1000.089 5292.686 1000.089 3913.223 709.869 5205.492 1000.089" style="fill:#4d91b3"/><polygon points="5525.112 1000.089 5581.971 1000.089 4964.395 874.915 5525.112 1000.089" style="fill:#4d91b3"/><polygon points="4369.777 1000.089 4456.971 1000.089 3324.946 658.855 4369.777 1000.089" style="fill:#4d91b3"/><polygon points="4689.398 1000.089 4746.257 1000.089 4205.384 844.747 4689.398 1000.089" style="fill:#4d91b3"/><polygon points="3598.349 1000.089 3685.543 1000.089 3029.64 671.518 3598.349 1000.089" style="fill:#4d91b3"/></g><rect y="-0.0889" width="5625" height="1000.17781" style="mix-blend-mode:soft-light;fill:url(#f7ee9022-9ada-4f49-b0de-0bd97c373ebf)"/></g><g id="bb54bc04-2e1b-4f86-b234-30ad60f63e7e" data-name="Texte"><path d="M1037.44873,239.24561l278.66943-15.85987,1.82959,62.21973q-32.92821,14.03979-76.22265,21.96-10.97609,1.83032-132.93213,15.25l9.14648,106.75,103.05323-1.21973,1.21923,96.99024-117.6875-3.05078,6.09766,142.13086,153.05518-7.32032,5.48779,64.66016-234.15576,3.04883Z" style="stroke:#000;stroke-miterlimit:10;stroke-width:10px"/><path d="M1385.62793,245.95557q104.87256,0,176.83643,54.8999,78.66136,59.78979,78.66162,161.6499,0,80.52027-14.02491,133.59033-17.07861,65.2793-58.53906,100.03907-46.34838,39.04688-126.22461,39.041-17.07861,0-31.40381-1.2207a169.26025,169.26025,0,0,1-28.35449-4.87891Zm70.73437,423.95068q62.79786-16.4707,90.24756-61.61133,24.3816-39.64454,24.39112-108.57959,0-56.11523-17.6836-101.25976-23.781-60.99024-69.51513-61a176.69412,176.69412,0,0,0-48.17237,6.71Z" style="stroke:#000;stroke-miterlimit:10;stroke-width:10px"/><path d="M1787.46924,463.72559q0,60.38964,6.09814,128.10058,4.259,48.80859,15.24414,128.09961l-87.19824,1.83008q0-31.71095,2.439-77.4707,5.488-103.69336,5.48828-129.32032,0-48.79394-2.13428-88.14453-2.1438-39.345-7.62256-99.73486-3.05859-30.49512-9.75635-93.33008l89.02784-6.71q-6.10254,69.54052-8.8418,121.69531Q1787.46973,400.89575,1787.46924,463.72559Z" style="stroke:#000;stroke-miterlimit:10;stroke-width:10px"/><path d="M1991.73682,334.40576l-85.36914-1.22021-11.58594-95.16016,431.11474-7.92969-7.92724,48.79981-253.0586,28.66992,24.39112,406.26074h-110.98Z" style="stroke:#000;stroke-miterlimit:10;stroke-width:10px"/><path d="M2460.04541,463.72559q0,60.38964,6.09814,128.10058,4.259,48.80859,15.24415,128.09961l-87.19825,1.83008q0-31.71095,2.439-77.4707,5.488-103.69336,5.48828-129.32032,0-48.79394-2.13428-88.14453-2.1438-39.345-7.62256-99.73486-3.05859-30.49512-9.75634-93.33008l89.02783-6.71q-6.10254,69.54052-8.8418,121.69531Q2460.0459,400.89575,2460.04541,463.72559Z" style="stroke:#000;stroke-miterlimit:10;stroke-width:10px"/><path d="M2917.37207,480.80566q0,72.59913-41.46484,150.05957-48.17871,90.28419-114.0293,90.28125-75.61743,0-137.81055-83.57031-57.32373-77.46093-57.31933-156.16064,0-92.10059,43.90429-161.04Q2661.259,241.085,2747.853,241.07568q73.77391,0,125.00439,86.00977Q2917.3623,401.5149,2917.37207,480.80566Zm-235.37549,7.92969q0,39.66065,21.95215,112.23926,25.6106,84.18163,51.22168,84.18164,18.89355,0,37.80615-81.74023,15.84962-68.92677,15.85449-101.8711,0-39.64453-20.123-121.99951-23.781-96.375-46.34326-96.37988-22.56666,0-43.29444,90.89013Q2681.9917,449.08569,2681.99658,488.73535Z" style="stroke:#000;stroke-miterlimit:10;stroke-width:10px"/><path d="M3067.98438,752.25586l-.60938,18.29883-72.56445,7.32031q0-42.08788,6.09863-178.11914,3.04395-67.71095,3.04883-107.97022,0-31.71093-6.09766-137.25-3.05859-52.45531-3.0498-83.57031l59.75879-4.87988q34.75781,25.01953,68.90527,62.22021,27.43945,29.28,59.14844,71.98,27.44091,37.8296,54.88086,75.63965,5.4873-37.20044,8.53613-74.72461,3.04541-37.51538,3.0498-75.335a436.8109,436.8109,0,0,0-2.13476-46.05517q-2.14307-19.81567-7.62207-52.76514,28.04,0,60.36816,12.2002,0,35.38476-1.8291,82.96-4.27295,111.02929-4.26855,139.08007,0,45.75,4.26855,92.72022,4.2583,46.98047,21.95215,173.24023l-89.6377-5.49023q-41.47559-79.292-82.32031-158.59961-50.62208-92.71582-96.3457-148.84082,0,46.97973,3.96387,108.88574,3.958,61.91895,8.23144,123.21875Q3067.97558,707.72657,3067.98438,752.25586Z" style="stroke:#000;stroke-miterlimit:10;stroke-width:10px"/><path d="M3838.74414,404.55566l14.63477-65.27,88.418,3.65967a207.51786,207.51786,0,0,0,8.5371-28.66992,131.93572,131.93572,0,0,0,3.04883-28.06006l-1.8291-37.81982,66.46582-5.48975a525.27016,525.27016,0,0,0-33.53808,100.03955l57.31933-1.82959a279.57478,279.57478,0,0,0,14.93945-45.75,371.97715,371.97715,0,0,0,7.62207-50.63037l76.22266,3.66016a242.99758,242.99758,0,0,0-28.65918,45.75,201.64426,201.64426,0,0,0-15.85449,48.7998h75.00293l-46.95313,56.12012h-57.31933l-11.58594,63.43994,68.90527-4.87988-1.8291,56.73-81.71094,3.05078q-3.6577,17.083-4.57324,24.39844a178.72772,178.72772,0,0,0-.91406,20.74023,285.16409,285.16409,0,0,0,2.74316,40.8711,412.16918,412.16918,0,0,0,8.8418,42.69921l-78.66113-15.85937L3988.75,514.35547l-54.27051,3.05078V611.3457l-78.05176,10.36914a248.90369,248.90369,0,0,0,21.95215-51.24023,306.7556,306.7556,0,0,0,10.36621-54.89844h-76.832l12.80469-53.0708h76.833l12.19531-61.60986Zm109.76074,61.60987,59.75782-3.66016,12.80566-71.36963h-62.19727Z" style="stroke:#000;stroke-miterlimit:10;stroke-width:10px"/><path d="M4366.20313,228.26563q81.706,0,129.27343,61.60986,43.90429,56.72973,43.9043,139.68994,0,89.67041-46.95313,172.62988-55.49414,97.60548-139.02929,97.59961-25.01074,0-53.05176-20.1289a199.23714,199.23714,0,0,1-42.07422-40.8711l91.4668-54.28906q7.91748,21.96093,15.24414,32.93945,12.80567,18.91407,29.26953,18.91016,21.95216,0,38.416-38.73438,16.46484-38.73046,24.3916-107.66552-12.20508,18.301-33.84278,30.19482-21.65186,11.89453-44.209,11.89453-62.8125,0-103.05274-57.94922-35.98682-51.24023-35.97753-116.51025,0-59.77515,32.92871-94.54981Q4305.83546,228.26538,4366.20313,228.26563Zm1.21972,250.10009q24.38232,0,46.34375-32.02539,21.95215-32.02441,21.95215-57.645,0-37.20044-14.02539-74.41992-18.293-48.18018-48.78223-48.18994-27.44091,0-42.07519,42.08984a196.55292,196.55292,0,0,0-10.97559,65.88037q0,43.91968,5.48731,64.65967Q4335.71,478.37524,4367.42285,478.36572Z" style="stroke:#000;stroke-miterlimit:10;stroke-width:10px"/></g><g id="efb476b1-fc20-4008-87ee-6c71d3f2d2c3" data-name="icons"><g id="fa98d605-8fcf-4b2d-a063-21d300661035" data-name="Capa 1"><path d="M3738.233,98.53128c-67.10453,4.95082-147.03162,95.419-147.03162,95.419l-5.78038,17.79018s.11042.04857.31683.13729c-.203-.08762-.31683-.13729-.31683-.13729s-36.12268,54.98735-.467,118.74543c35.65588,63.75739,111.06271,32.07335,124.55365-33.77508,7.49446-36.582-13.36651-54.77068-13.36763-54.7718l-.00068-.00022c20.48469,1.22689,38.40182-1.94928,47.87463-13.49157C3775.79218,189.72423,3805.33752,93.58046,3738.233,98.53128Z" style="fill:#fc5e71"/><path d="M3585.42078,211.74116a496.8344,496.8344,0,0,0,49.80864,17.991c19.69873,6.0062,42.08074,11.396,60.90811,12.20758l.00224,0c.00068.00022,20.8621,18.18985,13.36763,54.7718-13.49094,65.84843-88.89777,97.53249-124.55365,33.77508S3585.42078,211.74116,3585.42078,211.74116Z" style="fill:#fd747f"/><path d="M3709.50672,296.71129c3.9598-19.32788.00316-33.51685-4.609-42.60631-.26358,2.37868-.63618,4.83771-1.15981,7.39625-13.49094,65.84843-88.89777,97.53249-124.55366,33.77508a127.0526,127.0526,0,0,1-9.95032-22.60493c.12584,17.28671,4.1273,37.08577,15.71913,57.815C3620.609,394.24376,3696.01647,362.55992,3709.50672,296.71129Z" style="fill:#fc5e71"/><path d="M3738.233,98.53128c-.70305.0516-1.40757.11692-2.11361.187,20.1398,26.05982-2.773,88.89246-26.98558,118.3965-9.473,11.543-27.38992,14.71846-47.8746,13.49157l.00068.00022-.00224,0c-16.33376-.70409-35.34169-4.85566-52.954-9.86433,7.72169,2.81734,16.936,5.97776,26.92487,8.99038,19.69873,6.0062,42.08073,11.396,60.90811,12.20758l.00224,0-.00068-.00022c20.48468,1.22689,38.40181-1.94928,47.87462-13.49158C3775.79218,189.72423,3805.33752,93.58046,3738.233,98.53128Z" style="fill:#ef506b"/><path d="M3709.50672,296.71129c.00214-.01125.00364-.02273.00647-.03375-8.9958-7.9606-43.21242-36.44655-79.884-43.764-7.379-13.68121-13.516-22.5134-18.52655-26.6879l-9.64-8.03253c-9.90617-3.77058-16.04207-6.45126-16.04207-6.45126s-1.07795,1.64212-2.67712,4.68386l21.55795,17.96266c15.77145,13.14026,48.37095,93.6933,59.60139,123.62249a5.21753,5.21753,0,0,0,.29778.64636,72.95477,72.95477,0,0,0,9.251-5.43113c-1.99984-5.27-11.40041-29.83357-22.67511-55.77225q-7.96758-18.3303-14.70246-31.999c35.60317,10.57124,67.98261,40.59973,68.40832,40.99719a5.28524,5.28524,0,0,0,1.98945,1.17887c.03984.01294.08076.018.12083.0303A98.66228,98.66228,0,0,0,3709.50672,296.71129Z" style="fill:#fc5e71"/><path d="M3661.13251,322.053a68.15182,68.15182,0,0,1-9.68078,4.35206c5.14915,12.57809,9.52578,23.81041,12.45037,31.60554a5.217,5.217,0,0,0,.29778.64637q2.35254-1.15554,4.6479-2.50069c.01767-.01069.03556-.0198.05323-.03049.72245-.4239,1.43917-.86462,2.15109-1.31584.05275-.03364.1062-.06481.15874-.09779q1.12482-.71772,2.23136-1.48019l.00849-.00545C3672.11267,349.69568,3667.45072,337.50739,3661.13251,322.053Z" style="fill:#ef506b"/><path d="M3704.48232,306.452a5.28524,5.28524,0,0,0,1.98945,1.17887c.03984.01294.08076.018.12083.0303l.00065-.002q.43232-1.3202.83237-2.6606c.00393-.0144.00808-.02948.01269-.04367q.38664-1.30034.73969-2.62127c.05526-.20681.1051-.41765.159-.62491.18355-.70281.36463-1.40717.53305-2.11863q.33648-1.42862.63691-2.8772l.00023-.00068.00625-.03307c-2.65528-2.34956-7.50947-6.48818-13.97428-11.34207a92.51678,92.51678,0,0,1-5.349,9.34477C3698.9124,301.28476,3704.31064,306.29093,3704.48232,306.452Z" style="fill:#ef506b"/><path d="M3580.30469,227.24551l-1.87094-1.54359c-1.26515,3.07782-2.56616,6.60848-3.7783,10.54364,40.37927,25.66495,25.24052,95.07025,21.4596,109.88529a65.11737,65.11737,0,0,0,8.41193,7.735,5.28159,5.28159,0,0,0,1.013-1.88577,200.73584,200.73584,0,0,0,7.15023-49.117C3613.23545,267.17678,3602.03688,241.02911,3580.30469,227.24551Z" style="fill:#fc5e71"/><path d="M3605.54018,351.97941a190.19092,190.19092,0,0,0,5.358-26.20755,55.333,55.333,0,0,1-10.05945-5.59021,201.771,201.771,0,0,1-4.7237,25.94916q1.00625,1.09872,2.03552,2.12877c.01471.01449.03032.02852.04481.04368q1.012,1.01209,2.04321,1.96026l.00474.00378q2.10274,1.93,4.28319,3.59765A5.29208,5.29208,0,0,0,3605.54018,351.97941Z" style="fill:#ef506b"/><path d="M3751.35273,218.4302c2.63725-3.99112,5.20392-8.31209,7.64219-12.863-5.42606-14.3804-17.44264-27.63136-35.47929-38.92754a168.61081,168.61081,0,0,0-24.9816-12.7395c40.26024-17.49874,75.81321-31.319,78.15919-32.228a35.61348,35.61348,0,0,0-4.33771-9.71345c-11.25714,4.36336-134.94171,52.62059-181.96509,84.48515l-4.38412,13.49292c.01419.0046.02659.01237.04079.017a5.30862,5.30862,0,0,0,4.86725-.82687c18.27343-13.9348,56.54265-32.58006,93.6358-49.07888C3687.11258,160.84925,3746.42388,180.10871,3751.35273,218.4302Z" style="fill:#fd747f"/><path d="M3733.59052,173.64184c-1.33812,3.43571-2.777,6.82974-4.297,10.14959,11.03141,8.97671,20.24253,20.51036,22.06009,34.6383h0q.96156-1.45628,1.91076-2.9711c.03063-.0483.06127-.09659.0912-.1451q.93064-1.48873,1.84612-3.02721c.03281-.055.065-.11031.09756-.1647q.92373-1.55707,1.83006-3.16161c.01218-.02143.02438-.04285.03588-.06451q.92514-1.64062,1.829-3.32624l.00043-.00135C3754.653,194.06019,3746.07985,183.27971,3733.59052,173.64184Z" style="fill:#fc5e71"/><path d="M3743.77255,123.33683a85.11709,85.11709,0,0,1-.3757,11.6619c18.82069-7.70146,31.90393-12.78728,33.29617-13.32587l-.00093-.004c-.11743-.41079-.24247-.81658-.37086-1.219-.0276-.08514-.05542-.1696-.083-.25473q-.16416-.5014-.33881-.99351c-.02846-.08019-.05692-.16038-.0856-.23989q-.44592-1.227-.964-2.39745l-.00617-.0132c-.16819-.37875-.344-.75249-.5242-1.1217-.02531-.05079-.05-.10136-.07526-.15216q-.25557-.51654-.5268-1.02173c-.01664-.03154-.03326-.06308-.05058-.09485q-.61436-1.1327-1.30881-2.19808l-.002-.0029C3769.408,113.10094,3758.74249,117.257,3743.77255,123.33683Z" style="fill:#fc5e71"/><path d="M3692.84252,200.32042c-.0544-.03485-.10832-.0688-.16338-.10162a42.21383,42.21383,0,0,0-43.913.3154l-36.58428,21.607c4.10033,1.46,8.54522,2.98561,13.24462,4.51627l28.78576-17.00108c.0304-.01775.06036-.03639.09031-.055a31.62979,31.62979,0,0,1,32.85463-.30533l43.93776,28.41328a34.56146,34.56146,0,0,0,9.98572-6.19383Z" style="fill:#fd747f"/><path d="M3741.08153,231.515l-28.70446-18.56265q-1.61373,2.1741-3.24258,4.16259a28.971,28.971,0,0,1-3.87174,3.888l25.83259,16.705.0421-.01694q.6495-.27174,1.28133-.56268c.03425-.01576.06895-.03062.1032-.04637q.65766-.30384,1.29677-.62861l.04542-.02259A33.00245,33.00245,0,0,0,3741.08153,231.515Z" style="fill:#fc5e71"/><path d="M3508.58853,23.91527c51.37868,43.44835,62.86518,163.61862,62.86518,163.61862l-5.78038,17.79018s-.11789-.02561-.337-.07516c.21575.04845.337.07516.337.07516s-3.0969,65.71808-69.419,96.34159c-66.32187,30.6228-108.70386-39.33315-80.91352-100.53542,15.43919-34.00057,43.00711-36.45378,43.00869-36.454l.00067.00022c-17.29361-11.048-29.922-24.149-30.80123-39.05491C3424.60063,75.61518,3457.20984-19.53308,3508.58853,23.91527Z" style="fill:#fc5e71"/><path d="M3565.67312,205.32475a496.83311,496.83311,0,0,1-50.87087-14.72176c-19.467-6.7195-40.74241-15.51491-56.45114-25.92475l-.00181-.00134c-.00067-.00022-27.5695,2.45347-43.00869,36.454-27.79034,61.20227,14.59165,131.15824,80.91353,100.53542S3565.67312,205.32475,3565.67312,205.32475Z" style="fill:#fd747f"/><path d="M3415.34128,201.13114c8.15709-17.9641,19.69814-27.11756,28.7721-31.76014-1.18491,2.07932-2.32886,4.28772-3.40909,6.66541-27.79035,61.20228,14.59165,131.15825,80.91351,100.53542a127.0526,127.0526,0,0,0,21.33684-12.43912c-10.26269,13.91127-25.13753,27.57705-46.69983,37.53383C3429.93293,332.28936,3387.55026,262.33317,3415.34128,201.13114Z" style="fill:#fc5e71"/><path d="M3508.58853,23.91527c51.37868,43.44835,62.86518,163.61862,62.86518,163.61862l-5.78038,17.79018-.335-.0745a500.74379,500.74379,0,0,1-50.53543-14.64639c-19.467-6.7195-40.74241-15.51491-56.45113-25.92474l-.00181-.00134.00068.00022c-17.29361-11.048-29.922-24.149-30.80123-39.05491C3424.60063,75.61518,3457.20984-19.53308,3508.58853,23.91527Z" style="fill:#fc5e71"/><path d="M3508.58853,23.91527c.53844.455,1.07.92193,1.60005,1.3936-31.611,9.245-50.0063,73.54542-47.75993,111.6465.879,14.90656,13.50763,28.00688,30.80123,39.0549l-.00068-.00022.00135.00044c13.62882,9.03134,31.44657,16.84591,48.63946,23.14537-7.903-2.25942-17.21513-5.1186-27.06709-8.55267-19.467-6.71951-40.74241-15.51491-56.45113-25.92475l-.00181-.00134.00068.00022c-17.29361-11.048-29.922-24.149-30.80123-39.05491C3424.60063,75.61518,3457.20984-19.53308,3508.58853,23.91527Z" style="fill:#ef506b"/><path d="M3415.34128,201.13114c.00486-.01036.01041-.02052.01459-.03111,11.95687-1.15266,56.38232-4.08625,90.35136,11.54879,14.01136-6.73107,24.16773-10.26921,30.67506-10.70133l12.52036-.83218c10.23055,2.77224,16.77027,4.21011,16.77027,4.21011s-.09314,1.96211-.58727,5.36289l-27.99894,1.86066c-20.483,1.36046-94.20445,47.36774-120.882,64.97987a5.21684,5.21684,0,0,1-.62084.3479,72.95621,72.95621,0,0,1-4.29189-9.83149c4.71556-3.08808,26.75885-17.43488,51.12665-31.79261q17.22019-10.1463,30.70309-17.24585c-35.01721-12.3747-78.863-7.11329-79.44106-7.042a5.2852,5.2852,0,0,1-2.30242-.21564c-.03985-.01295-.07594-.03288-.11557-.04651A98.6647,98.6647,0,0,1,3415.34128,201.13114Z" style="fill:#fc5e71"/><path d="M3439.58136,250.06667a68.154,68.154,0,0,0,5.27383,9.21111c-11.559,7.1493-21.70192,13.66391-28.64982,18.25128a5.21675,5.21675,0,0,1-.62084.34789q-1.224-2.31764-2.29037-4.75507c-.008-.019-.01713-.03693-.02513-.056q-.503-1.15139-.96683-2.32891c-.0229-.05822-.04781-.11485-.07093-.17241q-.48816-1.2418-.93518-2.50906l-.00367-.0094C3414.45026,265.97609,3425.386,258.85578,3439.58136,250.06667Z" style="fill:#ef506b"/><path d="M3413.68066,211.96481a5.2852,5.2852,0,0,1-2.30242-.21564c-.03985-.01295-.07594-.03288-.11557-.04651l.00066-.002q.42624-1.32216.89046-2.64172c.00528-.014.01078-.02861.01539-.04279q.4515-1.27926.94233-2.55543c.07686-.1998.16047-.39966.23869-.599.26528-.67625.53213-1.35274.814-2.02733.37833-.90237.76813-1.80327,1.17592-2.70207h0c.00486-.01036.01018-.01984.01437-.03043,3.5292-.3401,9.889-.8351,17.97212-.96205a92.5141,92.5141,0,0,0-1.16525,10.70415C3421.22405,211.05835,3413.91424,211.93542,3413.68066,211.96481Z" style="fill:#ef506b"/><path d="M3560.69888,220.8752l2.42092-.14909c-.78557,3.23365-1.8083,6.85473-3.14068,10.75082-47.753-2.971-76.30088,62.07744-81.95012,76.28544a65.11763,65.11763,0,0,1-11.35193,1.31337,5.28157,5.28157,0,0,1,.2889-2.121,200.73526,200.73526,0,0,1,23.08561-43.9393C3510.58631,233.82405,3535.01537,219.2525,3560.69888,220.8752Z" style="fill:#fc5e71"/><path d="M3466.96619,306.954a190.18884,190.18884,0,0,1,11.06968-24.35172,55.33383,55.33383,0,0,0,11.42412,1.39022,201.76722,201.76722,0,0,0-11.431,23.76983q-1.45986.29745-2.898.52577c-.02042.00308-.04128.00525-.06192.009q-1.4136.224-2.80521.38491l-.00606.00027q-2.83554.32541-5.57982.393A5.29181,5.29181,0,0,1,3466.96619,306.954Z" style="fill:#ef506b"/><path d="M3427.49962,113.20394c.21235-4.779.67566-9.78341,1.378-14.89831C3441.72,89.861,3459.2303,86.20391,3480.462,87.66679a168.60958,168.60958,0,0,1,27.69862,4.37734c-22.2857-37.82115-42.92531-69.89951-44.289-72.01385a35.613,35.613,0,0,1,9.21871-5.3087c6.5425,10.1468,78.24052,121.88769,97.55373,175.30631L3566.26,203.52081c-.01419-.00461-.0288-.00562-.043-.01022a5.30863,5.30863,0,0,1-3.45167-3.52985c-6.59284-22.01434-26.5939-59.59277-46.90512-94.7434C3513.31622,104.37939,3454.01193,85.09831,3427.49962,113.20394Z" style="fill:#fd747f"/><path d="M3468.19548,87.40977c-.9369,3.56607-1.76782,7.15762-2.48945,10.73688-14.201.77823-28.43224,4.695-38.20687,15.05639h0q.07808-1.74335.20052-3.52679c.00361-.05708.00722-.11416.0115-.171q.12215-1.75145.28581-3.53418c.00581-.06383.01229-.12744.01787-.19059q.16791-1.80267.37782-3.63348c.00273-.0245.00546-.049.00887-.07329q.2159-1.87107.47541-3.76605l.00044-.00135C3439.154,91.54832,3452.4264,87.86592,3468.19548,87.40977Z" style="fill:#fc5e71"/><path d="M3489.52659,40.72731a85.11646,85.11646,0,0,0-6.55073,9.65551c-10.69924-17.29381-18.29533-29.098-19.10419-30.35253l.00312-.00272c.33647-.26331.67614-.51811,1.01653-.7682.07237-.05265.14452-.10464.21689-.15729q.42753-.30915.85809-.60462c.07016-.04814.14031-.09629.21025-.14376q1.08195-.73052,2.18906-1.373l.01274-.00706q.538-.31133,1.0834-.59936c.05034-.02621.1-.05264.15033-.07885q.51039-.26766,1.02675-.517c.032-.01574.064-.03148.09667-.047q1.16279-.55527,2.35083-1.009l.00336-.00115C3474.80355,17.37814,3480.98929,27.00951,3489.52659,40.72731Z" style="fill:#fc5e71"/><path d="M3485.48,132.94426c.06449.00378.12809.008.19192.01382a42.21383,42.21383,0,0,1,35.341,26.0666l16.897,38.98414c-4.17538-1.229-8.66812-2.60735-13.36972-4.13126l-13.29519-30.674c-.01417-.03224-.02744-.06492-.04072-.09762a31.6298,31.6298,0,0,0-26.40048-19.55849l-52.24728-2.83913a34.56108,34.56108,0,0,1-4.438-10.88038Z" style="fill:#fd747f"/><path d="M3428.11813,129.82705l34.13326,1.85456c.01842,1.80494.07626,3.56669.17659,5.27354a28.9715,28.9715,0,0,0,.847,5.42119l-30.718-1.66937-.0241-.03845q-.36571-.60161-.70587-1.20836c-.01844-.03287-.03778-.0653-.05622-.09817q-.35349-.63237-.67962-1.27078l-.02347-.045A33.00174,33.00174,0,0,1,3428.11813,129.82705Z" style="fill:#fc5e71"/><path d="M3588.717,205.23471c9.11653-28.0578,11.70711-52.42691,5.91936-55.0139l.00988-.03039c-.04323-.014-.09-.015-.13384-.02706-.04257-.01607-.081-.04273-.12418-.05677l-.00987.03039c-6.203-1.309-18.431,19.92869-27.54749,47.98649-9.11675,28.05848-25.72306,95.56361-20.32927,99.363l-.01427.04391a.40436.40436,0,0,1,.258.08383l.01426-.0439C3553.35649,297.66691,3579.60021,233.29319,3588.717,205.23471Z" style="fill:#ffc855"/><circle cx="3590.68637" cy="161.93859" r="14.52607" style="fill:#ffaf41"/><ellipse cx="3592.04049" cy="157.77103" rx="5.89409" ry="10.27117" transform="translate(2331.98977 3525.25062) rotate(-72)" style="fill:#ffc855"/><path d="M3609.55389,168.06679a19.71624,19.71624,0,0,0,.34662-11.0254l45.22658-49.76812a33.37666,33.37666,0,0,0,8.861-16.24183,5.31214,5.31214,0,0,0-10.37294-2.29726,22.76935,22.76935,0,0,1-6.10983,11.137c-.05639.05636-.111.114-.16444.17285l-43.09276,47.4206a19.78518,19.78518,0,0,0-16.01894-5.20785l-6.98984-63.69045c-.00869-.079-.01893-.15775-.03144-.23649a22.76681,22.76681,0,0,1,1.60319-12.60127,5.31214,5.31214,0,0,0-9.74218-4.23853,33.37554,33.37554,0,0,0-2.378,18.3483l7.33493,66.83893a19.77389,19.77389,0,0,0-5.64709,22.86371,225.47389,225.47389,0,0,0-10.60106,26.9407c-4.841,14.89923-11.314,39.27265-15.74056,59.27179-2.53282,11.44267-4.278,20.81959-5.18593,27.87052-1.29149,10.02165-.909,14.758,1.59433,17.35462a5.29083,5.29083,0,0,0,2.39985,1.60269l.258.08383a5.2325,5.2325,0,0,0,2.71487.14132c3.6231-.54407,6.7367-4.12353,11.65932-13.13041,3.40919-6.23823,7.50964-14.84986,12.18637-25.59593,8.174-18.78153,17.26365-42.30473,22.10471-57.204a225.47325,225.47325,0,0,0,7.2589-28.02662A19.7425,19.7425,0,0,0,3609.55389,168.06679ZM3552.02512,280.9257c3.1145-19.58312,11.36443-55.022,19.85744-81.16082a225.18813,225.18813,0,0,1,8.02581-21.17527,19.81168,19.81168,0,0,0,9.71036,3.15508,225.19086,225.19086,0,0,1-5.95351,21.84861C3575.1722,229.73212,3561.0161,263.252,3552.02512,280.9257ZM3594.216,170.43661c-.22457.09356-.45327.17458-.68291.24931-.03852.01287-.07683.02732-.11581.03929-.21287.06675-.428.12229-.64463.17289-.05828.01392-.11612.02873-.17465.04107-.2054.04378-.41176.07905-.61929.10869-.07291.01066-.14493.02086-.21786.02928-.19746.024-.39543.04028-.59368.05055-.08823.00493-.17648.00763-.26451.00965-.18526.00477-.37122.00484-.55656-.00162-.11076-.00387-.22155-.01224-.33167-.02038-.16561-.012-.3319-.02421-.4967-.04565-.14974-.01952-.29928-.04646-.44885-.0734-.12864-.02238-.25817-.04206-.38639-.07028-.2819-.06322-.56343-.13677-.84375-.22785s-.55131-.19706-.81653-.31161c-.12034-.05254-.236-.11253-.35391-.17026-.13684-.06612-.27388-.13156-.40561-.20422-.14569-.0802-.28762-.16739-.42867-.255-.09454-.05835-.18909-.11671-.2803-.17845-.15374-.10373-.30347-.21286-.45122-.32584-.07-.05337-.13962-.10809-.20832-.16328q-.23119-.18825-.45058-.38985c-.054-.04967-.1061-.10094-.159-.15175-.15047-.146-.29737-.296-.43781-.45215-.04009-.0444-.0775-.09016-.11669-.135-.14547-.16824-.28692-.33966-.41989-.51877-.0245-.03261-.04632-.06658-.07061-.09986-.14163-.19612-.27926-.39542-.40593-.6031a9.21442,9.21442,0,1,1,11.38237,3.69762Z"/></g><g id="a5248726-16fb-414d-b234-a376d024cedf" data-name="Layer 1"><path d="M5556.60594,290.41672c65.78721-104.80652-7.63849-250.19746-139.27327-250.19746a163.61215,163.61215,0,0,0-141.7477,81.95541,197.02194,197.02194,0,0,0-150.28947-5.59661c-55.69645-72.90066-153.7798-95.46007-234.838-59.29943C4758.62559-2.16967,4607.86739,99.402,4615.21015,245.54934c-60.86656,69.90318-31.46529,178.99066,54.55579,210.28895a195.676,195.676,0,0,0,215.64418,99.12141A195.67958,195.67958,0,0,0,5023.68763,623.33a35.96146,35.96146,0,0,0,37.13631-28.9788c6.03313-30.737,14.86055-41.26034,32.07082-104.99363,13.26928,19.10328,29.178,35.8951,48.249,48.35166a403.62728,403.62728,0,0,0-12.63156,65.70876,35.96867,35.96867,0,0,0,22.0203,37.12225,196.08018,196.08018,0,0,0,198.792-29.07335c125.5755,46.98168,263.60955-45.69017,263.60955-183.64779a196.198,196.198,0,0,0-56.32812-137.4024Z" style="fill:#fea0a8"/><path d="M5556.64413,290.33626c52.96453-84.59276,15.66326-197.33552-73.11795-236.40711a35.9052,35.9052,0,0,0-42.71887,10.71642c-46.63967,59.47646-55.92778,98.888-60.13835,170.22963-3.34547,57.13885-7.50772,128.24707,105.96726,216.0264,22.44673,17.36517,49.85444,35.75427,82.94514,40.45567a35.93351,35.93351,0,0,0,40.45165-29.47772c11.04032-63.90426-9.16337-126.93138-53.389-171.54327Z" style="fill:#ffb9c3"/><path d="M5508.90406,339.19486c-17.333-15.99518-16.54438-12.90516-3.13024-55.40072,40.95457-129.49434-56.34218-201.84579-127.7763-172.57931-30.95633,12.704-47.57511,39.659-60.93092,61.31518-24.31965,39.43571-27.05961,40.61861-73.4076,21.20954-26.40178-11.05842-59.25717-24.82258-94.9109-14.11823-17.76345,5.317-31.6222,15.91873-39.58257,18.194-5.18216,1.4766-12.63561-1.23318-15.65319-5.70322-5.4216-8.02675-9.06683-28.659-22.56142-46.57129-20.936-27.76373-59.71587-40.683-101.19347-33.72244-49.56675,8.31242-80.48284,37.20674-140.3214,15.102-6.84588-2.52873-15.36752-5.67707-25.84053-6.66683-47.5872-4.47406-82.01173,39.53027-86.63467,82.86268-3.20668,30.27838,4.35739,57.09458,2.81038,78.30815-1.77635,24.29551-17.72324,47.65559-39.66707,58.12257-14.95713,7.12751-36.63541,11.19721-57.35611,24.374a35.99568,35.99568,0,0,0-9.39272,52.04316c10.97795,14.53667,32.92781,31.46932,56.45889,39.94266a195.729,195.729,0,0,0,111.77512,94.03376,35.90731,35.90731,0,0,0,40.12574-12.84884c49.81821-67.72047,86.26048-40.62464,160.29778-50.31912,37.15442-4.89251,69.63565-19.25618,101.19749-30.59825a35.93263,35.93263,0,0,0,10.03244-5.54429,35.7203,35.7203,0,0,0,10.99806-1.42428c23.92335-6.96256,57.23741-12.22521,80.13078,2.24308,14.61314,9.21969,5.92851,10.8834,28.71328,68.666,8.24806,20.92186,23.02812,56.493,7.041,73.68321-22.75658,24.47055-2.575,64.42326,30.82759,60.18058,44.28795-5.63683,84.16023-26.63114,111.56388-54.31842q1.46956-.94152,2.86066-2.03788c37.43609-29.524,44.58571-13.84462,100.44712-23.5351,34.60963-5.96879,62.18223-22.57953,77.64228-46.77851,14.72377-23.04826,16.3392-49.36354,16.27683-67.14513-.25552-74.29076-30.69682-102.38038-50.84016-120.96867Z" style="fill:#ea8692"/><path d="M5195.6372,487.69994c-50.76569-16.5323-76.64244-93.26125-87.548-137.5271a32.188,32.188,0,0,0-63.44155,7.68276c-.01608,32.90969-7.19391,91.92948-41.29253,186.19662-52.28458,144.536,27.70336,486.681,31.13335,501.17549a32.19482,32.19482,0,0,0,31.32447,24.77235h96.56252a32.18763,32.18763,0,0,0,32.1875-32.1875V714.42879c0-69.5431-3.41589-119.33516,21.22969-184.78036a32.19522,32.19522,0,0,0-20.15544-41.94836Z" style="fill:#c79a83"/><circle cx="5355.50044" cy="715.93746" r="32.1875" style="fill:#ea8692"/><circle cx="4840.50047" cy="651.56246" r="32.1875" style="fill:#ea8692"/><circle cx="5484.25043" cy="780.31246" r="32.1875" style="fill:#ea8692"/><circle cx="5291.12545" cy="844.68745" r="32.1875" style="fill:#ea8692"/><path d="M5473.77744,401.28255c-12.6638-11.61567-32.17141-10.5374-44.71249,1.21306-16.824,15.76382-41.56813,23.75437-73.56451,23.75437-97.44563,0-152.66125,23.509-171.87719,33.6138q-.88719.46773-1.73208.97971c-9.11713,5.5302-20.944,4.02546-27.54847-4.34532-24.44845-30.98853-38.82418-76.17975-46.25142-106.32536a32.19107,32.19107,0,0,0-40.4094-23.15487c-48.8204,14.66944-111.924-9.28007-153.77578-38.452,14.26913-21.94382,42.52371-53.45136,87.98052-55.4329,17.83991-.77854,32.34844-15.48018,31.72079-33.32614a32.13809,32.13809,0,0,0-33.34223-31.03479c-68.81084,2.51264-111.94409,44.60784-135.33836,77.602-22.46687-21.57568-29.05325-30.0088-29.89213-31.1937a32.79974,32.79974,0,0,0-26.72165-14.243c-25.32956,0-40.52609,27.86431-27.34128,49.1141-3.02964,1.889,54.98631,59.9452,81.78642,80.76045a752.41436,752.41436,0,0,0-70.66765,35.4505,32.188,32.188,0,0,0,32.43494,55.60792c.57536-.336,54.46125-31.5538,108.28077-49.17648,36.92508,16.01931,74.65687,23.47878,109.21017,23.26151-4.35941,34.505-15.05974,82.85263-38.65919,148.09667-23.688,65.48547-23.88916,177.45774-.59747,332.80867a32.18781,32.18781,0,0,0,63.32487,1.88095c8.9783-42.4412,13.89294-71.81433,33.93167-109.347,13.24113-24.8548,15.49627-25.71178,60.30729-22.84106a32.17829,32.17829,0,0,0,24.07623-8.6484c12.21919-11.46074,10.21348-23.11665,10.07873-45.61569-.346-58.32376-.61964-104.39413,21.31618-162.63943q.38328-1.01992.69607-2.06c2.68164-8.95214,9.05679-16.3613,17.8882-19.41307,22.51918-7.77933,62.48195-17.55226,121.12157-17.55226,49.64116,0,89.63813-14.26108,118.8765-42.3829a32.19061,32.19061,0,0,0-.5995-46.95956ZM4835.65425,216.1984c-.19715-.31986-.37619-.65179-.5834-.9616a10.16564,10.16564,0,0,1,.61156.94552Z" style="fill:#a07765"/></g><g id="bcfd25ea-2e53-4d78-8e05-8c6ef6ab921e" data-name="Layer 1"><path d="M800.588,227.04559a30.96408,30.96408,0,0,0-41.86986-.17807c-71.149,64.721-106.23476,37.47038-111.37176,32.71279-10.02231-11.96946-26.37-13.3437-39.51044-4.80212-107.23933,69.69928-176.83408,33.6496-328.5505,57.304C120.40357,336.84566,47.32481,550.94108,38.45417,578.82462,4.31875,649.48779,4.24907,919.182,5.33879,993.484A30.96941,30.96941,0,0,0,36.30377,1024H284.05459a30.979,30.979,0,0,0,30.67658-35.21546c-.751-5.43311-9.15516-54.71423-71.79354-111.58464-58.69371-53.29931-82.141-430.23866,189.14615-408.60693q1.08582.08709,2.17168.09678C545.844,469.74463,675.406,435.23952,743.162,347.11183l60.8538-78.32991A30.97934,30.97934,0,0,0,800.588,227.04559Z" style="fill:#c79a83"/><path d="M973.94775,395.16584c49.46506-82.31521,13.92438-188.02739-71.1548-225.552C892.42616,92.57692,826.36376,32.99671,746.67511,32.99671a34.59887,34.59887,0,0,0-8.75258,1.12649c-97.40674,25.528-239.87311,44.06868-323.70582,30.12689C278.6796,41.72412,109.96129,33.38,102.84425,33.03542,63.78672,31.185,21.32455,58.5073,8.76087,102.91858-8.67653,164.384,37.42642,225.412,101.1758,225.412c139.8689,0,264.6695,48.84756,333.84037,130.67306a34.59906,34.59906,0,0,0,28.172,12.20755c63.1668-3.26527,110.94782-16.20831,159.26506-43.81319a110.79349,110.79349,0,0,0,40.12593,11.96947c-74.45495,62.83774-182.49752,68.63666-227.27849,68.085a34.63763,34.63763,0,0,0-3.14527,69.16313c81.08036,6.36217,154.32553,43.9061,174.83857,55.26a273.00014,273.00014,0,0,0,76.53758,28.7565c18.06259,103.68761,140.438,167.06924,238.52984,105.62316a157.86709,157.86709,0,0,0,52.45156-214.21155c-10.08616-17.058-10.29716-37.73942-.56517-53.95937Z" style="fill:#fea0a8"/><path d="M941.4866,630.18843c-2.57426-25.739-21.42659-49.134-51.72183-64.181-39.53365-19.63811-41.30665-6.61961-65.64815-80.51321-19.44845-59.04406-31.96758-89.06643-70.6845-125.95613-16.61287-15.82507-15.46505-15.50377-19.493-25.528a34.85278,34.85278,0,0,0-56.913-11.69268C615.70783,383.3938,521.53153,402.85965,434.42,402.85965a34.841,34.841,0,0,0-2.71366,69.57539c81.68812,6.40089,155.48493,44.16545,176.15083,55.58715a275.28733,275.28733,0,0,0,77.11244,28.92686c18.44387,105.70249,142.569,167.39825,240.32605,106.24444a34.84194,34.84194,0,0,0,16.19089-33.00506Z" style="fill:#ea8692"/><path d="M585.96606,311.30605c-9.7223-47.032-1.47878-92.9143-79.21061-135.48874-113.3247-62.05384-244.42746-67.86824-369.2397-64.88168-46.881,1.15552-32.33149.089-77.18794-27.93391A34.57837,34.57837,0,0,0,8.7608,102.9205C-8.68628,164.4169,37.46506,225.412,101.17573,225.412c139.8689,0,264.66951,48.84949,333.84038,130.67306a34.56364,34.56364,0,0,0,28.172,12.20755c26.62159-1.37812,62.02093-4.56017,99.7836-17.0832A34.64025,34.64025,0,0,0,585.96606,311.30605Z" style="fill:#ea8692"/><path d="M974.51292,449.12713c-10.08038-17.058-10.29521-37.74329-.56517-53.96129,49.45727-82.30361,13.93406-188.02159-71.1548-225.552C892.43968,92.58079,826.3754,32.99671,746.67511,32.99671a34.59887,34.59887,0,0,0-8.75258,1.12649c-65.56108,17.18-173.78561,35.51741-256.36985,35.16127-32.556-.06775-47.04169,40.69888-22.20854,61.30478,44.301,36.7639,81.97265,40.77436,138.36112,40.335,61.40928-.4084,67.55658,5.97505,90.13678,27.1984,29.45718,27.68615,44.57774,37.362,101.32428,48.42173,22.84341,4.45371,42.57054,8.29772,52.258,19.74071,11.78946,13.90694,8.9732,40.395,4.53309,60.16665-7.057,31.414-19.762,66.645-13.7347,105.67541,9.46488,61.55639,66.80949,110.15043,128.73556,107.431A34.63482,34.63482,0,0,0,993.313,498.09084a156.77286,156.77286,0,0,0-18.80006-48.96368Z" style="fill:#ffb9c3"/><path d="M798.55566,225.323a30.95224,30.95224,0,0,0-39.81819,1.56586l-.01937-.01936c-77.995,70.94771-112.62986,31.16628-111.35628,32.72635a28.63144,28.63144,0,0,0-37.664-5.99828A331.94972,331.94972,0,0,1,576.838,272.63368c-11.41006-28.89007-5.78923-48.46239,8.18742-63.25,11.623-12.30045,11.42554-32.10309-.76069-43.84222a30.96889,30.96889,0,0,0-43.91576.94261c-39.07882,41.03179-35.60259,90.50455-21.99175,126.96649-79.90933,17.61355-210.88435-2.82979-292.08081,34.869-15.1186-24.69765-34.60189-69.65863-35.109-137.78818a30.96815,30.96815,0,0,0-32.51924-30.69981c-16.75608.82068-29.57139,15.37023-29.4088,32.14567.79358,81.68036,24.60475,137.19975,44.86613,169.79641C87.53592,433.784,45.28085,557.41551,38.50642,578.66206,3.44193,648.60135,5.18974,915.9903,3.5,1021.49148c71.29417-143.32,69.50572-133.45642,90.70584-206.68417,2.73687-9.4552,5.32277-18.38581,6.95831-22.7776,24.71509-66.23659,52.72834-141.30892,113.8357-179.39871l8.91323-5.555,3.695-9.83453C262.69383,503.851,331.495,460.54877,432.07988,468.58715l2.17168.09679c102.54951.96972,215.52-26.81709,288.74392-99.29969,16.46573-16.28961,16.98447-18.18453,81.01644-100.61A30.96288,30.96288,0,0,0,798.5556,225.323Z" style="fill:#a07765"/><circle cx="841.49395" cy="528.49645" r="30.96885" style="fill:#ea8692"/><circle cx="438.89886" cy="621.40301" r="30.96885" style="fill:#ea8692"/><circle cx="655.68083" cy="745.27843" r="30.96885" style="fill:#ea8692"/><circle cx="872.46281" cy="807.21613" r="30.96885" style="fill:#ea8692"/><circle cx="500.83656" cy="776.24728" r="30.96885" style="fill:#ea8692"/><circle cx="872.46281" cy="311.71444" r="30.96885" style="fill:#ea8692"/><circle cx="686.64969" cy="187.83903" r="30.96885" style="fill:#ea8692"/></g><g id="bb91a931-57b6-470c-8608-a3064e015f52" data-name="Capa 1"><ellipse cx="115.80615" cy="804.85253" rx="19.98193" ry="21.88829" transform="translate(-666.56582 583.2837) rotate(-66)" style="fill:gray"/><path d="M108.12606,822.10229l15.80781-35.50493c-11.04392-4.91707-23.636-.72992-28.12469,9.35194-3.55691,7.989-.95424,17.27882,5.77294,23.23943Z" style="fill:#666"/><ellipse cx="110.3194" cy="817.17597" rx="20.96721" ry="29.90451" transform="translate(-681.07893 585.58232) rotate(-66)" style="fill:#4d4d4d"/><path d="M123.27936,818.1169a51.55269,51.55269,0,0,0-22.33085-9.94234l-13.91517-2.519A13.5981,13.5981,0,0,0,76.238,808.20024a53.43836,53.43836,0,0,0-15.81881,20.45722c-10.71477,24.06577-2.6655,51.02569,17.9781,60.21681s46.06486-2.86706,56.77952-26.93257a53.43766,53.43766,0,0,0,4.61782-25.44423,13.5981,13.5981,0,0,0-5.33246-9.72523Z" style="fill:#fc5759"/><path d="M60.41916,828.65746c-10.71477,24.06577-2.66577,51.02557,17.9781,60.21681l34.31426-77.0711a51.47673,51.47673,0,0,0-11.76338-3.62847l-13.91506-2.51924a13.59809,13.59809,0,0,0-10.79536,2.54467A53.4373,53.4373,0,0,0,60.41916,828.65746Z" style="fill:#ef4246"/><path d="M60.41927,828.65721C49.7045,852.723,57.7535,879.68278,78.39737,888.874l.05211-.117c-11.0813-13.31014-13.27951-35.57517-4.95289-54.27707A53.43755,53.43755,0,0,1,89.3154,814.02269a13.59815,13.59815,0,0,1,10.79537-2.54467l11.79483,2.13529.80592-1.81014a51.47673,51.47673,0,0,0-11.76338-3.62847l-13.91506-2.51924a13.59809,13.59809,0,0,0-10.79536,2.54467A53.437,53.437,0,0,0,60.41927,828.65721Z" style="fill:#dd3c44"/><path d="M123.279,818.117c-.02407-.01866-.04872-.036-.07279-.05472A9.52639,9.52639,0,1,0,137.40382,829.854a14.19668,14.19668,0,0,0-2.94168-3.0818Z" style="fill:#666"/><path d="M64.07386,877.31835A12.63919,12.63919,0,1,0,55.77517,853.724,44.15173,44.15173,0,0,0,64.07386,877.31835Z" style="fill:#666"/><path d="M55.77489,853.72388c.0315.49951.07264.9966.119,1.49232.00889.09532.01779.19062.02731.28591q.14811,1.49446.38618,2.96113c.01532.0939.03079.18817.04648.28193q.24582,1.46233.5795,2.892.03243.13817.06523.27621.3414,1.4247.76881,2.81129c.02751.08985.05554.17994.08379.26951q.43544,1.38132.95487,2.71937.05046.13062.10228.26093.52731,1.3324,1.1373,2.61636.06.1257.12045.251.61785,1.27829,1.31676,2.50286.06855.11988.13778.23885.707,1.219,1.49341,2.37924.07607.11223.15334.22379c.263.38231.53051.76079.80655,1.1324a12.68276,12.68276,0,0,0,6.56922-3.52037,55.25822,55.25822,0,0,1-2.05631-19.45177,12.62973,12.62973,0,0,0-12.81191-.62295Z" style="fill:#4d4d4d"/><circle cx="90.75117" cy="824.6262" r="6.19917" style="fill:#666"/><path d="M62.50829,824.45652a7.83429,7.83429,0,0,0,9.44381-12.496A53.641,53.641,0,0,0,62.50829,824.45652Z" style="fill:#4d4d4d"/><path d="M105.323,889.94762a45.97964,45.97964,0,0,0,13.09527-6.83538,7.42435,7.42435,0,1,0-13.09527,6.83538Z" style="fill:#666"/><circle cx="109.97741" cy="857.32015" r="6.86989" style="fill:#666"/><path d="M31.30727,819.14425a2.09126,2.09126,0,0,0,1.74353,2.39251l16.52038,2.59182a2.09273,2.09273,0,0,0,1.43258-.29221l13.3747-8.34618,1.09522.62267c-.0267.03456-.052.07005-.0784.10472-.2968.38665-.59072.77641-.87814,1.17151-.02863.03889-.05583.07872-.0842.11773q-.40031.55322-.78694,1.11831c-.06791.099-.13636.19716-.20351.2965q-.38517.56867-.7576,1.1485c-.08516.13226-.169.26571-.253.3988q-.30275.48025-.59694.96674c-.11935.19739-.23665.39632-.35368.59536q-.22845.38958-.45171.7833c-.11324.20012-.22659.4005-.33776.60214l-.01793.03205-.00766.01583q-1.16336,2.11679-2.15906,4.34151a55.695,55.695,0,0,0-4.88153,24.24341l-7.07865,1.5395a2.094,2.094,0,0,0-1.34275.95578L36.09266,869.49l-11.05283,5.24822a2.0933,2.0933,0,1,0,1.79552,3.782l11.61725-5.51605a2.09642,2.09642,0,0,0,.8896-.8013l8.97011-14.7136,5.58952-1.21563a45.56822,45.56822,0,0,0,8.49156,22.2931,2.08174,2.08174,0,0,0,.18262.2136,38.00433,38.00433,0,0,0,14.96992,12.006,39.20753,39.20753,0,0,0,28.10258,1.2273,2.0682,2.0682,0,0,0,.32409-.076,47.80163,47.80163,0,0,0,13.16043-6.76421l2.72652,5.03154-4.93985,16.5376a2.0941,2.0941,0,0,0-.00022,1.19728l3.67423,12.32426a2.09329,2.09329,0,0,0,4.012-1.19633l-3.49559-11.72563L126.12,890.57056a2.09377,2.09377,0,0,0-.16547-1.59644l-3.48863-6.43807a55.71232,55.71232,0,0,0,14.62357-19.74281,57.30985,57.30985,0,0,0,4.02819-13.00155l1.19557.39726,2.747,15.524a2.09365,2.09365,0,0,0,.74143,1.26014l12.9804,10.54278a2.09336,2.09336,0,0,0,2.63966-3.24974l-12.375-10.05111-2.82835-15.98431a2.09071,2.09071,0,0,0-1.40112-1.62168l-3.10181-1.03057a53.07254,53.07254,0,0,0,.16747-9.22855,14.88223,14.88223,0,0,0-.38368-2.45619l10.41551-4.42751a2.09242,2.09242,0,0,0,1.2325-1.509l3.44538-16.93261,11.81685-2.92641a2.09338,2.09338,0,0,0-1.00636-4.064L154.302,807.27854a2.09283,2.09283,0,0,0-1.548,1.61447l-3.48959,17.15062-9.30266,3.95445c-.06139-.10983-.12534-.218-.18955-.32637,2.09216-5.14307,1.6022-11.04011-1.373-16.83132a22.01031,22.01031,0,0,0-4.37638-21.24245l6.328-4.069a10.233,10.233,0,0,0,3.82348-4.45656l1.13084-2.53991a2.09337,2.09337,0,0,0-3.82478-1.7029l-1.13084,2.5399a6.05564,6.05564,0,0,1-2.263,2.63774l-7.09359,4.56157a26.19924,26.19924,0,0,0-13.24725-5.89806l-1.35674-8.32359a6.05786,6.05786,0,0,1,.44609-3.447l1.13084-2.53991a2.09337,2.09337,0,0,0-3.82478-1.70291l-1.13084,2.53991a10.23371,10.23371,0,0,0-.75347,5.82343l1.21028,7.4249A22.01012,22.01012,0,0,0,94.75245,793.4073c-6.29441,1.6638-11.00473,5.24584-13.42673,10.24175-.12321.02488-.24654.05-.36912.07763l-3.28608-9.559,10.4104-14.06927a2.09322,2.09322,0,0,0,.164-2.2307l-6.35532-11.90689A2.09338,2.09338,0,0,0,78.196,767.9323l5.73226,10.73978-10.278,13.89053a2.09269,2.09269,0,0,0-.2967,1.92565l3.679,10.70282a14.86951,14.86951,0,0,0-2.0824,1.35853,52.48174,52.48174,0,0,0-4.42105,3.87795c-.014.013-.0289.02441-.04254.03789-.05686.05565-.11253.11274-.16924.16876-.18138.17956-.3629.35875-.5419.5412q-.39579.40306-.78317.81477-.21632.22954-.42986.46245-.181.19667-.3604.395l-2.8392-1.61423a2.09014,2.09014,0,0,0-2.14267.04389L49.449,819.871l-15.7499-2.47089A2.09264,2.09264,0,0,0,31.30727,819.14425Zm41.00256,1.27563a5.74777,5.74777,0,0,1-6.88322,3.16608c.07283-.12034.148-.239.22146-.35878q.41122-.66936.84124-1.32329c.13766-.20971.27341-.42059.41369-.62792.12915-.19059.26259-.37774.39395-.56643.15-.2155.29955-.43125.4527-.64415.13644-.18979.276-.377.4149-.56474.151-.20406.30259-.4079.4565-.60947q.2211-.28972.44653-.5754.21952-.279.44258-.55486.244-.302.49164-.60055c.13151-.15745.26487-.31287.39772-.46851.18794-.21971.37539-.43965.56663-.65576.08122-.09185.16454-.18155.24642-.27281.2304-.25672.4612-.513.69658-.76441A5.74139,5.74139,0,0,1,72.30983,820.41988ZM135.224,807.90181c-.33337-.42676-.683-.84518-1.04016-1.25963l-.01186-.01384a39.72989,39.72989,0,0,0-10.22353-8.35108c-.07185-.04176-.14451-.08236-.21684-.12373q-.51009-.29127-1.03128-.57068c-.11394-.06111-.22789-.12223-.34254-.18244q-.48407-.254-.97751-.49725c-.1182-.05842-.23509-.11841-.354-.17593-.43768-.21168-.87917-.41893-1.32667-.61817s-.89693-.38865-1.3471-.57228c-.12232-.04987-.24511-.0966-.36762-.14534q-.51084-.20315-1.02361-.39372c-.12146-.04491-.24312-.08869-.36479-.13247q-.55662-.20016-1.11441-.38465c-.07915-.02607-.15806-.05265-.237-.07835a39.72051,39.72051,0,0,0-13.04706-2.00934l-.01847.00032c-.54711.01215-1.092.03231-1.63209.06987a18.60363,18.60363,0,0,1,15.078-5.80078,2.0715,2.0715,0,0,0,.35953.0235,22.00413,22.00413,0,0,1,13.208,5.88332,2.09393,2.09393,0,0,0,.2472.24083A18.60494,18.60494,0,0,1,135.224,807.90181Zm-.33751,22.13147a7.43264,7.43264,0,1,1-11.59184-9.25727l9.88632,7.6516c.14794.11445.29169.23284.43314.353.03547.03015.07033.06095.10557.09161.03849.03363.0759.06832.11417.10247.06911.06162.13807.12288.20548.18559.03065.02861.06166.05708.09193.08584.06906.06588.13606.1336.20355.20092.06.06.12142.11914.18013.18011.09266.09655.18246.19612.2719.29582C134.81986,829.95993,134.85384,829.99614,134.88649,830.03328Zm-28.23526,53.66058a5.33349,5.33349,0,0,1,9.006-1.19926,43.99382,43.99382,0,0,1-9.25874,4.84263A5.30787,5.30787,0,0,1,106.65123,883.69386Zm-25.46288,4.05828,32.56241-73.137q2.04321,1.01464,3.98726,2.21429,1.11722.68989,2.197,1.43708A11.611,11.611,0,0,0,137.1279,833.8583a10.7972,10.7972,0,0,1,.5784,2.78671,52.44989,52.44989,0,0,1-18.69743,43.336,9.51785,9.51785,0,0,0-16.597,8.63072,34.97431,34.97431,0,0,1-21.22349-.85961Zm32.27137-77.90122a53.9549,53.9549,0,0,0-5.90366-2.21265,53.24107,53.24107,0,0,0-6.2345-1.5231l-13.91517-2.519-.01423-.00236c-.24236-.04374-.485-.08-.728-.1127q-.09165-.01239-.18312-.02378c-.05214-.00641-.10411-.01458-.15622-.02037a17.11954,17.11954,0,0,1,10.01454-6.13735,2.07512,2.07512,0,0,0,.28838-.04178,33.86345,33.86345,0,0,1,18.5883,1.56231c.03836.014.07667.0268.115.04083.3823.13843.763.28531,1.14284.4361.07366.02944.14747.0565.22128.0863q.65336.26387,1.30092.5511.64714.28814,1.28.598c.07153.03491.141.07165.21219.1067.36624.18139.73011.366,1.0888.55748.0361.01912.07134.03878.10732.05816a33.85867,33.85867,0,0,1,13.599,12.76841,2.11888,2.11888,0,0,0,.16985.25741,17.113,17.113,0,0,1,2.13228,11.53355c-.04033-.03568-.082-.0698-.12253-.105q-.06453-.05577-.12981-.11126c-.04546-.03858-.09-.07794-.13564-.116q-.22386-.18584-.4538-.3649l-11.18315-8.6552c-.02045-.01583-.04136-.03063-.06181-.04646l-.01178-.00922-.00283-.00187a53.5939,53.5939,0,0,0-10.822-6.46352c-.03312-.01689-.065-.03507-.09921-.05029S113.494,809.86375,113.45972,809.85092ZM57.99028,855.02371a10.54519,10.54519,0,1,1,6.96384,19.90377A42.15725,42.15725,0,0,1,57.99028,855.02371Zm4.34147-25.51532c.33252-.74685.68635-1.48116,1.05071-2.20895A9.92575,9.92575,0,0,0,74.934,812.02938c.841-.75726,1.70358-1.48625,2.59156-2.17889a11.12918,11.12918,0,0,1,5.48775-2.24079l.02193-.00123q.22069-.02732.44228-.04568l.01-.00107c.10569-.00885.21188-.01474.31782-.02073.0759-.0044.15231-.00857.2284-.01136.09443-.00348.18888-.00634.28329-.00769.10576-.0015.21187-.001.31814.00049.06963.00075.1392.00026.20864.00215.17241.00527.3454.01476.51852.02737.05917.00435.11854.01031.178.01539.13285.0118.2659.0252.39895.04136.05653.00684.11292.01331.16912.02091.18416.02487.36807.05236.55212.08573l13.91517,2.519a49.01407,49.01407,0,0,1,5.03721,1.19626q2.18975.6413,4.31354,1.48147L77.36368,886.049a33.737,33.737,0,0,1-9.73762-7.67675,14.72856,14.72856,0,0,0-9.84417-27.67382A51.77356,51.77356,0,0,1,62.33175,829.50839Z"/><path d="M83.17337,821.25205a8.29407,8.29407,0,1,0,10.95034-4.20345A8.30328,8.30328,0,0,0,83.17337,821.25205Zm3.82489,1.70264a4.10734,4.10734,0,1,1,2.08156,5.42266A4.1118,4.1118,0,0,1,86.99826,822.95469Z"/><path d="M101.78745,853.67466a8.96326,8.96326,0,1,0,11.834-4.54266A8.97347,8.97347,0,0,0,101.78745,853.67466Zm3.82467,1.70315a4.77652,4.77652,0,1,1,2.42078,6.30635A4.782,4.782,0,0,1,105.61212,855.37781Z"/></g></g><g id="ba92a18c-693a-4ca4-9214-345092ffef4f" data-name="Ancrage"><rect x="5624" y="999" width="1" height="1" style="fill:none"/><rect x="5624" width="1" height="1" style="fill:none"/><rect y="999" width="1" height="1" style="fill:none"/><rect width="1" height="1" style="fill:none"/></g></g></svg>