<svg enable-background="new 0 0 512 512" height="512" viewBox="0 0 512 512" width="512" xmlns="http://www.w3.org/2000/svg" xmlns:xlink="http://www.w3.org/1999/xlink"><linearGradient id="lg1"><stop offset="0" stop-color="#fdc830"/><stop offset="1" stop-color="#f37335"/></linearGradient><linearGradient id="SVGID_1_" gradientUnits="userSpaceOnUse" x1="145.617" x2="146.064" xlink:href="#lg1" y1="20.147" y2="26.845"/><linearGradient id="SVGID_2_" gradientTransform="matrix(-1 0 0 1 346.311 0)" gradientUnits="userSpaceOnUse" x1="-21.425" x2="-20.979" xlink:href="#lg1" y1="34.591" y2="41.289"/><linearGradient id="SVGID_3_" gradientUnits="userSpaceOnUse" x1="162.652" x2="155.954" xlink:href="#lg1" y1="-119.455" y2="467.281"/><linearGradient id="SVGID_4_" gradientTransform="matrix(-1 0 0 1 346.311 0)" gradientUnits="userSpaceOnUse" x1=".624" x2="-6.074" xlink:href="#lg1" y1="-121.871" y2="464.865"/><linearGradient id="SVGID_5_" gradientUnits="userSpaceOnUse" x1="84.58" x2="98.869" xlink:href="#lg1" y1="58.293" y2="69.605"/><linearGradient id="SVGID_6_" gradientUnits="userSpaceOnUse" x1="26.052" x2="40.341" xlink:href="#lg1" y1="132.532" y2="143.844"/><linearGradient id="SVGID_7_" gradientUnits="userSpaceOnUse" x1="233.629" x2="277.835" xlink:href="#lg1" y1="-1.383" y2="421.924"/><linearGradient id="SVGID_8_" gradientUnits="userSpaceOnUse" x1="254.183" x2="254.183" xlink:href="#lg1" y1="303.819" y2="323.019"/><linearGradient id="SVGID_9_" gradientUnits="userSpaceOnUse" x1="258.334" x2="259.823" xlink:href="#lg1" y1="361.216" y2="366.575"/><linearGradient id="SVGID_10_" gradientUnits="userSpaceOnUse" x1="249.115" x2="267.869" xlink:href="#lg1" y1="264.397" y2="601.078"/><linearGradient id="SVGID_11_" gradientUnits="userSpaceOnUse" x1="334.125" x2="336.693" xlink:href="#lg1" y1="282.091" y2="285.113"/><linearGradient id="lg2"><stop offset="0" stop-color="#f3f7ff"/><stop offset="1" stop-color="#cdd9ff"/></linearGradient><linearGradient id="SVGID_12_" gradientUnits="userSpaceOnUse" x1="334.739" x2="337.716" xlink:href="#lg2" y1="292.483" y2="295.609"/><linearGradient id="SVGID_13_" gradientUnits="userSpaceOnUse" x1="347.815" x2="347.815" xlink:href="#lg1" y1="271.669" y2="301.749"/><linearGradient id="SVGID_14_" gradientUnits="userSpaceOnUse" x1="347.643" x2="347.931" xlink:href="#lg2" y1="302.966" y2="312.169"/><path d="m203.08 46-101.72 420h11.58l108.39-420z" fill="url(#SVGID_1_)"/><path d="m311.23 46 101.73 420h-11.59l-108.38-420z" fill="url(#SVGID_2_)"/><path d="m200.11 46-101.73 420h11.59l108.38-420z" fill="url(#SVGID_3_)"/><path d="m308.26 46 101.73 420h-11.59l-108.39-420z" fill="url(#SVGID_4_)"/><path d="m73.35 72.47h368.93v245.93h-368.93z" fill="url(#SVGID_5_)"/><path d="m61.49 310.37h392.66v11.29h-392.66z" fill="url(#SVGID_6_)"/><path d="m69.72 72.47h368.93v245.93h-368.93z" fill="url(#SVGID_7_)"/><path d="m82.5 85.25h343.38v227.19h-343.38z" fill="#0a8955"/><path d="m86.48 89.71h339.39v-4.46h-343.37v227.19h3.98z" fill="#0a7a4a"/><path d="m57.85 310.37h392.66v11.29h-392.66z" fill="url(#SVGID_8_)"/><path d="m97.94 350.02h317.56v10.72h-317.56z" fill="url(#SVGID_9_)"/><path d="m95.4 350.02h317.56v10.72h-317.56z" fill="url(#SVGID_10_)"/><path d="m370.29 306.54h-40.68v-9.96c0-2.56 2.07-4.63 4.63-4.63h31.42c2.56 0 4.63 2.07 4.63 4.63z" fill="url(#SVGID_11_)"/><path d="m329.61 306.54h40.68v3.83h-40.68z" fill="url(#SVGID_12_)"/><path d="m366.02 306.54h-36.41v-9.96c0-2.56 2.07-4.63 4.63-4.63h27.15c2.56 0 4.63 2.07 4.63 4.63z" fill="url(#SVGID_13_)"/><path d="m329.61 306.54h36.41v3.83h-36.41z" fill="url(#SVGID_14_)"/></svg>