<svg height="512" viewBox="0 0 64 64" width="512" xmlns="http://www.w3.org/2000/svg"><g id="Board"><path d="m61 50v4h-58v-4h2 40 10 4z" fill="#ff7956"/><path d="m5 14h54v36h-54z" fill="#5eac24"/><path d="m45 46h10v4h-10z" fill="#fee9ab"/><g fill="#5eac24"><path d="m34.83 25.17a4 4 0 0 1 -2.83 6.83h-4v-8h4a4.025 4.025 0 0 1 2.83 1.17z"/><path d="m34.83 33.17a4 4 0 0 1 -2.83 6.83h-4v-8h4a4.025 4.025 0 0 1 2.83 1.17z"/><path d="m22 28v4h-8v-4a4 4 0 1 1 8 0z"/></g><path d="m61 49h-1v-35a1 1 0 0 0 -1-1h-54a1 1 0 0 0 -1 1v35h-1a1 1 0 0 0 -1 1v4a1 1 0 0 0 1 1h58a1 1 0 0 0 1-1v-4a1 1 0 0 0 -1-1zm-55-34h52v34h-2v-3a1 1 0 0 0 -1-1h-10a1 1 0 0 0 -1 1v3h-38zm48 34h-8v-2h8zm6 4h-56v-2h56z"/><path d="m18 23a5.006 5.006 0 0 0 -5 5v13h2v-8h6v8h2v-13a5.006 5.006 0 0 0 -5-5zm-3 8v-3a3 3 0 0 1 6 0v3z"/><path d="m46 41h4v-2h-4a3 3 0 0 1 -3-3v-8a3 3 0 0 1 3-3h4v-2h-4a5.006 5.006 0 0 0 -5 5v8a5.006 5.006 0 0 0 5 5z"/><path d="m37 28a5.006 5.006 0 0 0 -5-5h-4a1 1 0 0 0 -1 1v16a1 1 0 0 0 1 1h4a5 5 0 0 0 3-9 5 5 0 0 0 2-4zm-2 8a3 3 0 0 1 -3 3h-3v-6h3a3 3 0 0 1 3 3zm-3-5h-3v-6h3a3 3 0 0 1 0 6z"/><path d="m54 22h2v-4a1 1 0 0 0 -1-1h-4v2h3z"/><path d="m47 17h2v2h-2z"/><path d="m10 42h-2v4a1 1 0 0 0 1 1h4v-2h-3z"/><path d="m15 45h2v2h-2z"/></g></svg>