<?xml version="1.0" standalone="no"?>
<!DOCTYPE svg PUBLIC "-//W3C//DTD SVG 20010904//EN"
 "http://www.w3.org/TR/2001/REC-SVG-20010904/DTD/svg10.dtd">
<svg version="1.0" xmlns="http://www.w3.org/2000/svg"
 width="1280.000000pt" height="1253.000000pt" viewBox="0 0 1280.000000 1253.000000"
 preserveAspectRatio="xMidYMid meet">
<metadata>
Created by potrace 1.15, written by Peter Selinger 2001-2017
</metadata>
<g transform="translate(0.000000,1253.000000) scale(0.100000,-0.100000)"
fill="#000000" stroke="none">
<path d="M6515 12517 c-16 -5 -42 -16 -57 -24 -15 -7 -47 -13 -70 -12 -26 1
-76 -11 -129 -29 -47 -17 -112 -36 -145 -41 -64 -12 -104 -21 -204 -48 -57
-14 -72 -24 -121 -75 -30 -32 -62 -58 -71 -58 -33 0 -39 -24 -26 -98 11 -67
11 -74 -11 -120 -19 -39 -21 -53 -12 -70 6 -11 11 -52 11 -89 0 -40 5 -74 12
-81 9 -9 9 -15 0 -24 -7 -7 -12 -28 -12 -47 0 -19 -5 -61 -12 -94 -11 -55 -11
-60 7 -73 18 -14 18 -14 0 -28 -13 -9 -20 -30 -23 -70 -4 -50 -2 -59 19 -79
28 -27 69 -75 69 -81 0 -2 -9 -2 -20 1 -11 3 -20 11 -20 19 0 19 -15 26 -43
19 -26 -7 -57 -58 -72 -119 -7 -30 -19 -46 -43 -61 -19 -11 -66 -48 -104 -83
-120 -107 -227 -168 -276 -157 -13 3 -33 -1 -45 -10 -12 -8 -29 -15 -38 -15
-9 0 -45 -9 -80 -20 -35 -11 -70 -18 -78 -15 -22 9 -122 -24 -154 -51 -16 -13
-32 -24 -37 -24 -4 0 -27 -16 -50 -35 -23 -19 -48 -35 -55 -35 -7 0 -24 -9
-38 -20 -14 -11 -31 -20 -37 -20 -7 0 -34 -10 -61 -22 -53 -25 -55 -27 -112
-173 -43 -111 -45 -122 -25 -161 20 -36 79 -54 191 -55 85 -1 65 -17 -23 -19
-31 0 -63 -7 -74 -15 -11 -8 -29 -15 -41 -15 -12 0 -40 -21 -68 -50 -54 -57
-128 -95 -210 -108 -55 -9 -60 -8 -132 29 -42 22 -89 39 -106 39 -17 0 -39 5
-50 11 -13 7 -35 7 -62 1 -73 -15 -212 4 -284 40 -56 27 -69 30 -120 24 -36
-4 -65 -14 -78 -26 -12 -11 -29 -20 -39 -20 -15 0 -17 6 -13 29 5 22 0 38 -18
63 -55 76 -105 154 -105 166 0 7 11 17 25 22 14 5 25 16 25 24 0 7 7 16 15 20
20 7 19 24 -5 71 -11 22 -20 44 -20 50 0 6 -26 16 -57 23 -67 14 -125 1 -158
-34 -22 -24 -102 -47 -111 -33 -3 5 -14 9 -24 9 -10 0 -20 4 -22 10 -1 5 -28
14 -57 20 -30 6 -65 19 -77 31 -12 11 -28 19 -35 18 -8 -2 -24 2 -35 9 -34 18
-55 -4 -48 -49 5 -32 11 -38 46 -48 41 -13 43 -15 52 -72 5 -30 2 -42 -19 -67
-30 -36 -32 -58 -6 -71 18 -10 23 -25 40 -128 10 -59 18 -76 32 -67 6 3 17 -2
25 -12 43 -56 84 -124 90 -150 4 -16 16 -39 28 -52 19 -21 21 -34 18 -124 -2
-98 11 -168 31 -168 15 0 -2 -172 -19 -191 -13 -14 -13 -18 1 -29 10 -8 15
-30 15 -64 0 -56 6 -69 33 -79 9 -3 17 -16 17 -27 0 -13 12 -28 30 -38 16 -9
30 -23 30 -29 0 -17 -43 -27 -83 -19 -22 4 -45 0 -68 -11 -49 -25 -142 -30
-174 -9 -28 19 -32 43 -9 60 23 17 2 71 -23 58 -10 -5 -39 -12 -64 -16 -35 -5
-51 -14 -67 -36 -12 -16 -22 -33 -22 -38 0 -5 -22 -7 -49 -4 -42 4 -51 1 -60
-16 -21 -39 -71 -32 -71 10 0 11 -7 18 -20 18 -11 0 -20 4 -20 10 0 5 -8 19
-17 30 -17 20 -17 20 -45 -7 -21 -20 -37 -26 -68 -25 -31 1 -42 -2 -47 -16 -9
-26 -34 -52 -51 -52 -8 0 -32 -20 -54 -45 -22 -25 -47 -45 -57 -45 -9 0 -23
-6 -30 -12 -10 -11 -12 -9 -11 7 4 36 0 45 -20 45 -10 0 -23 6 -27 13 -4 8
-16 16 -25 20 -13 4 -18 17 -18 42 0 34 -27 75 -50 75 -5 0 -10 7 -10 15 0 9
-11 20 -25 25 -21 8 -24 14 -19 35 8 33 -11 57 -40 49 -14 -3 -28 1 -35 10 -9
11 -10 16 -2 16 6 0 11 11 11 25 0 22 -4 25 -33 25 -33 0 -33 1 -30 40 2 22 1
40 -1 40 -3 0 -26 -11 -53 -24 -42 -22 -50 -23 -64 -10 -21 19 -36 18 -47 -3
-6 -10 -22 -16 -40 -16 -17 0 -33 -6 -36 -14 -3 -7 -13 -13 -22 -13 -9 0 -23
-8 -30 -17 -8 -12 -13 -13 -14 -5 0 27 -104 52 -114 27 -3 -8 -22 -22 -43 -30
-32 -14 -36 -18 -23 -28 9 -7 14 -20 12 -29 -2 -11 3 -18 12 -18 23 0 30 -20
11 -34 -12 -9 -16 -21 -13 -39 6 -32 5 -32 -27 -11 -14 9 -31 14 -39 11 -7 -3
-24 1 -36 10 -12 8 -32 13 -46 10 -13 -2 -27 0 -30 4 -16 26 -74 -26 -75 -68
0 -28 0 -28 -12 -5 -7 16 -17 22 -29 19 -15 -4 -19 3 -24 34 -6 39 -8 40 -38
34 -17 -4 -42 -14 -55 -22 -13 -8 -47 -17 -75 -19 -40 -2 -55 -8 -71 -29 -20
-24 -65 -35 -65 -15 0 6 -12 15 -26 21 -20 7 -32 6 -50 -6 -13 -8 -29 -15 -36
-15 -8 0 -22 -9 -31 -21 -14 -15 -25 -19 -47 -14 -33 7 -70 -9 -70 -31 0 -8
-5 -12 -11 -9 -6 4 -13 -2 -16 -14 -4 -15 -16 -23 -45 -27 -59 -10 -109 -65
-108 -118 1 -23 -2 -53 -6 -68 -3 -15 -1 -41 4 -58 6 -17 7 -28 2 -25 -17 11
-19 -13 -4 -44 12 -25 22 -31 46 -31 17 0 36 7 42 15 9 13 16 13 46 3 19 -7
36 -13 37 -13 1 0 4 -12 8 -28 6 -22 4 -26 -9 -21 -11 4 -19 -2 -26 -21 -15
-39 -13 -46 12 -40 18 5 26 0 36 -24 7 -16 12 -42 10 -57 -5 -43 17 -38 48 11
28 45 30 46 69 40 22 -3 43 -13 48 -20 4 -8 19 -15 32 -15 25 0 45 -39 45 -90
0 -37 -8 -42 -40 -25 -25 13 -41 11 -175 -20 -81 -19 -152 -33 -158 -32 -6 1
-11 -3 -12 -10 0 -6 -3 -15 -7 -19 -16 -15 -7 -23 35 -34 23 -6 56 -17 73 -25
18 -7 41 -11 53 -8 48 12 138 -80 161 -168 9 -32 9 -44 0 -49 -7 -4 -10 -18
-8 -31 2 -20 11 -25 53 -32 98 -15 145 2 145 52 0 17 37 41 64 41 8 0 19 -6
25 -14 8 -9 22 -11 44 -7 25 5 33 12 35 34 3 24 22 40 22 19 0 -5 17 -35 38
-68 38 -58 39 -59 89 -62 30 -2 54 2 58 8 5 8 14 5 30 -10 12 -11 26 -20 31
-19 25 6 134 -25 139 -40 3 -9 16 -28 28 -43 20 -24 26 -26 60 -19 21 5 37 5
37 0 0 -5 13 -9 29 -9 31 0 70 -28 128 -90 30 -33 32 -39 30 -105 -1 -38 2
-76 6 -82 8 -13 77 -18 77 -6 0 4 -9 16 -20 28 -11 11 -23 35 -26 52 -6 31 -5
32 37 37 56 6 89 4 89 -6 0 -4 5 -8 12 -8 25 0 88 -35 94 -52 9 -31 42 -42 85
-29 21 6 50 9 64 5 16 -4 25 -2 25 5 0 7 9 9 24 5 13 -3 27 -1 31 5 3 6 17 8
30 5 12 -3 26 -1 29 5 12 19 29 12 23 -9 -3 -11 -1 -23 4 -26 5 -3 6 -16 3
-30 -5 -19 -1 -26 16 -32 21 -8 20 -10 -19 -35 -22 -15 -45 -27 -51 -27 -5 0
-10 -7 -10 -15 0 -8 4 -15 9 -15 16 0 41 -30 41 -50 0 -10 -9 -20 -20 -23 -34
-9 -22 -25 38 -53 31 -15 60 -29 65 -31 4 -2 11 5 15 17 8 21 9 20 50 -10 51
-36 64 -37 106 -5 42 32 50 31 42 -1 -4 -14 -2 -32 4 -39 16 -19 2 -65 -20
-65 -9 0 -25 -9 -36 -21 -18 -20 -18 -21 -1 -34 10 -7 36 -15 60 -19 69 -11
100 -26 131 -63 l30 -35 -22 -17 c-12 -9 -24 -30 -28 -47 -3 -18 -27 -52 -54
-81 -46 -48 -48 -52 -43 -97 5 -43 11 -51 57 -85 62 -46 81 -68 95 -104 6 -15
17 -27 25 -27 9 0 23 -15 32 -32 9 -18 20 -35 23 -38 13 -11 34 -61 50 -121
12 -46 22 -65 35 -67 16 -3 79 -46 125 -84 7 -6 43 -16 80 -22 63 -11 66 -12
77 -46 11 -34 13 -35 70 -40 55 -5 60 -7 73 -37 14 -32 36 -43 43 -22 2 5 17
-1 33 -15 36 -31 45 -32 45 -6 0 29 42 44 54 20 6 -14 0 -25 -24 -49 -18 -17
-37 -31 -41 -31 -5 0 -9 -11 -9 -24 0 -14 -4 -28 -10 -31 -16 -10 -11 -45 8
-51 42 -14 62 -29 57 -42 -3 -8 3 -16 15 -19 11 -3 20 -11 20 -18 0 -7 9 -24
20 -38 23 -29 26 -57 6 -57 -22 0 -28 -17 -15 -42 11 -20 11 -22 -3 -10 -13
10 -18 10 -24 1 -4 -7 2 -19 14 -30 12 -9 22 -22 22 -29 0 -21 -31 -71 -43
-69 -40 5 -50 -19 -21 -49 18 -18 18 -18 -51 -38 -25 -8 -31 -15 -33 -44 -2
-18 -1 -49 3 -68 5 -27 10 -33 25 -29 11 3 25 -2 32 -11 18 -22 114 -82 131
-82 8 0 22 -15 31 -34 17 -36 39 -58 52 -54 10 3 29 -12 102 -80 53 -51 65
-79 97 -227 9 -44 21 -98 27 -120 5 -22 13 -60 17 -85 10 -58 19 -80 44 -108
11 -12 16 -22 11 -22 -32 0 -89 126 -110 242 -7 43 -23 97 -35 120 -19 37
-118 144 -154 166 -6 4 -32 24 -56 45 -34 30 -41 40 -29 47 12 7 12 12 0 35
-19 35 -37 29 -77 -29 -32 -47 -33 -51 -33 -150 0 -55 -6 -159 -14 -231 -8
-71 -22 -213 -31 -315 -9 -102 -23 -242 -31 -311 -14 -120 -12 -159 7 -159 5
0 9 1 10 3 0 1 3 22 5 46 3 28 16 58 33 80 16 20 30 42 33 50 6 19 108 -78
108 -102 0 -13 -9 -17 -45 -17 -25 0 -45 5 -45 10 0 6 -13 10 -29 10 -30 0
-41 -14 -41 -52 0 -12 -11 -41 -25 -64 -17 -30 -24 -51 -19 -68 3 -13 -1 -73
-9 -133 -9 -59 -18 -135 -22 -168 -10 -101 -54 -349 -86 -488 -16 -73 -35
-157 -40 -187 -6 -30 -15 -78 -20 -106 -9 -49 -99 -214 -141 -261 -12 -12 -40
-31 -64 -43 l-44 -20 20 -39 c19 -39 20 -39 57 -28 29 9 37 9 41 -1 6 -20 44
-52 60 -52 8 0 16 9 19 20 6 22 20 25 55 11 13 -5 35 -12 51 -15 26 -6 27 -9
27 -69 0 -52 -5 -69 -30 -107 -36 -54 -37 -64 -8 -84 40 -29 68 -21 85 24 19
48 52 57 45 12 -5 -34 8 -45 73 -62 28 -7 55 -17 62 -22 7 -6 16 -7 22 -4 5 3
22 -1 37 -9 16 -8 34 -15 39 -15 6 0 28 -12 49 -26 37 -25 43 -26 121 -20 l82
7 7 -41 c5 -32 12 -43 33 -51 14 -5 51 -37 83 -70 49 -53 58 -59 69 -45 9 11
24 13 59 9 42 -4 51 -2 86 26 21 17 42 31 45 31 4 0 30 -8 59 -18 40 -14 58
-28 80 -61 15 -23 43 -57 61 -76 39 -42 73 -45 158 -15 81 28 138 27 167 -5
28 -30 45 -31 79 -4 19 14 31 17 44 11 10 -6 72 -11 138 -13 l120 -4 3 28 c2
16 -4 39 -13 53 -12 18 -13 29 -5 43 5 11 10 29 10 40 0 29 33 35 72 11 18
-11 42 -20 53 -20 12 0 38 -9 60 -20 22 -11 51 -20 65 -20 45 0 153 -45 156
-65 5 -34 55 -47 93 -24 35 22 85 3 126 -49 20 -26 39 -59 42 -74 8 -41 44
-35 57 9 4 13 10 22 14 21 4 -1 17 2 30 6 16 5 29 3 41 -8 10 -9 42 -19 70
-23 59 -7 81 -30 63 -67 -23 -47 -23 -74 0 -90 12 -9 30 -16 39 -16 10 0 43
-10 74 -22 52 -20 60 -26 78 -70 10 -26 28 -50 38 -53 30 -10 74 4 119 36 29
21 47 28 64 23 13 -3 27 -1 31 6 4 6 14 9 23 6 10 -2 33 -7 53 -10 20 -4 56
-22 80 -41 24 -19 59 -40 78 -46 29 -10 36 -9 47 6 12 16 14 16 36 1 12 -9 33
-16 45 -16 19 0 23 6 23 28 0 41 40 76 79 69 23 -5 37 -1 59 18 15 13 42 27
58 31 16 4 31 10 34 14 3 4 29 5 58 2 44 -4 56 -9 64 -28 12 -27 20 -29 49
-13 18 9 19 12 6 27 -8 9 -18 27 -21 38 -4 12 -20 27 -37 34 -49 21 -51 32
-40 254 5 111 7 213 4 224 -7 26 11 100 38 159 47 103 172 232 251 259 24 8
41 7 72 -4 40 -13 41 -13 65 15 54 64 113 123 123 123 18 0 118 71 161 114 53
52 134 88 189 84 42 -3 43 -4 43 -37 0 -52 32 -70 145 -82 52 -5 120 -7 150
-4 59 6 94 -6 114 -38 8 -13 8 -20 -3 -26 -20 -13 -6 -39 26 -52 16 -6 60 -12
98 -13 39 -2 81 -6 93 -11 22 -7 24 -5 21 21 -4 37 8 55 50 77 l34 18 28 -33
c16 -18 28 -41 29 -50 0 -35 25 -45 120 -47 78 -1 95 1 117 19 33 26 39 25 59
-4 11 -18 13 -30 6 -42 -7 -12 -6 -23 1 -35 8 -13 6 -23 -7 -43 -9 -15 -15
-30 -12 -34 2 -4 33 -7 68 -7 35 1 69 -3 76 -8 8 -6 17 -6 25 1 9 8 21 2 46
-24 38 -38 46 -41 55 -19 7 19 36 20 36 1 0 -20 23 -36 55 -38 15 -2 30 -8 32
-15 3 -7 11 -13 18 -13 9 0 13 -10 12 -27 -2 -21 5 -30 26 -41 25 -12 31 -12
45 1 10 9 28 13 43 10 31 -6 46 11 29 32 -10 12 -9 15 10 15 12 0 30 -10 40
-22 15 -19 21 -21 31 -11 21 21 59 16 59 -7 0 -12 -7 -20 -16 -20 -28 0 -9
-24 24 -31 36 -7 46 1 37 32 -4 12 0 30 9 44 20 30 70 34 122 9 42 -20 62 -13
66 23 3 27 7 29 72 38 39 6 71 16 74 23 5 15 27 16 52 0 16 -10 22 -8 42 17
13 16 23 37 24 45 0 8 6 25 13 38 16 30 7 56 -18 49 -10 -2 -25 -1 -32 4 -9 6
-10 9 -2 9 21 0 81 73 87 105 6 31 7 32 63 30 52 -2 59 0 85 29 15 17 28 38
28 47 0 9 7 20 16 23 10 4 13 13 10 24 -8 25 29 61 46 44 16 -16 38 -15 38 2
0 21 32 30 42 11 10 -16 34 -20 42 -6 3 4 0 21 -6 38 -9 24 -8 34 7 56 9 15
24 27 32 27 8 0 27 14 42 31 18 19 31 27 35 20 10 -16 36 -13 36 4 0 20 36 37
62 29 24 -7 38 9 38 48 0 15 5 30 10 33 6 3 10 -3 10 -13 0 -11 6 -25 14 -31
12 -10 18 -7 31 13 11 16 27 26 41 26 l24 0 -25 56 c-31 69 -31 72 -1 95 14
11 28 30 32 42 3 12 26 42 50 65 24 24 44 52 44 61 0 9 9 24 20 34 27 23 27
73 0 87 -15 8 -19 17 -14 34 6 27 -10 66 -28 66 -7 0 -21 -9 -32 -19 -12 -10
-43 -24 -71 -31 -159 -37 -145 -36 -164 -11 -10 13 -25 21 -37 20 -11 -2 -33
6 -48 19 -16 12 -34 22 -41 22 -7 0 -18 7 -25 15 -7 8 -22 15 -35 15 -12 0
-30 9 -41 21 -13 15 -26 19 -46 15 -24 -5 -30 -1 -44 27 -9 17 -30 48 -45 67
-16 19 -29 40 -29 46 0 7 -6 14 -14 17 -21 8 -8 47 20 58 32 11 30 19 -11 69
-19 23 -35 46 -35 51 0 4 12 23 28 41 51 61 74 99 68 114 -9 24 32 57 65 52
39 -6 45 6 20 41 -12 16 -21 37 -21 46 0 9 -5 25 -10 36 -7 13 -7 25 -1 37 8
15 4 25 -23 51 -29 28 -37 31 -77 26 -37 -5 -52 -1 -95 24 l-52 30 1 60 c0 69
-13 91 -54 91 -24 0 -29 4 -29 24 0 13 -7 29 -16 36 -13 12 -12 16 13 36 15
13 37 24 48 24 11 0 29 7 39 15 17 13 23 12 51 -5 18 -11 38 -20 46 -20 7 0
37 26 66 57 49 53 57 57 97 58 36 0 48 5 67 28 19 25 20 33 11 64 -10 32 -8
39 14 68 14 18 28 49 31 68 4 29 2 36 -16 42 -12 3 -51 36 -87 71 l-66 66 -7
71 c-5 64 -9 72 -27 75 -12 2 -30 12 -40 23 -9 10 -22 19 -29 19 -25 0 -54 46
-60 95 -3 28 -2 55 2 60 12 15 61 35 86 35 34 0 63 25 86 73 27 56 26 76 -5
134 -37 68 -70 101 -86 85 -7 -7 -15 -12 -18 -12 -7 0 -5 40 5 62 10 25 1 34
-48 48 l-44 12 9 51 c5 29 16 59 24 68 19 21 18 73 -2 89 -27 23 -35 48 -22
69 9 15 8 22 -6 36 -15 16 -31 17 -126 12 -103 -5 -111 -7 -178 -45 -60 -34
-73 -38 -83 -26 -17 21 -55 17 -72 -8 -8 -13 -24 -33 -35 -46 -18 -20 -19 -26
-7 -50 27 -56 27 -70 3 -83 -13 -6 -36 -23 -51 -37 -23 -22 -37 -26 -92 -27
-57 -1 -65 1 -65 17 0 11 -5 28 -10 38 -9 17 -5 21 39 34 81 24 92 32 79 61
-9 19 -7 31 11 65 28 54 27 80 -5 105 -45 36 -35 114 23 177 13 15 15 23 6 37
-10 16 -2 28 55 83 37 36 96 85 132 109 78 53 82 57 76 89 -2 14 1 47 7 73 8
34 8 57 0 76 -15 41 8 65 96 95 89 30 131 66 131 112 0 22 5 33 18 36 26 7
190 190 198 222 3 15 16 31 29 36 13 5 27 15 32 23 4 7 16 16 26 20 23 8 22
22 -4 48 -18 18 -28 20 -81 14 l-61 -7 22 31 c12 17 38 43 56 57 29 22 33 29
25 50 -7 18 -6 26 8 33 10 6 24 6 32 1 8 -5 36 -6 63 -3 l49 6 -4 -33 c-3 -29
1 -35 32 -52 30 -17 39 -18 71 -8 28 10 41 10 59 0 19 -10 26 -8 51 16 16 15
29 34 29 41 0 7 9 13 20 13 22 0 60 53 60 82 0 10 12 25 26 34 22 15 25 22 19
53 -4 20 -18 48 -32 63 -22 23 -25 32 -18 65 4 21 9 59 11 84 2 25 8 58 14 73
5 15 10 44 10 64 0 21 11 58 25 84 30 57 31 87 5 121 -38 48 -15 168 50 267
10 14 20 37 24 52 3 16 20 48 37 72 29 41 30 45 15 68 -14 22 -14 28 11 88 19
46 28 85 29 131 2 79 10 97 85 175 32 34 63 74 69 88 6 16 17 26 30 26 11 0
25 9 32 20 7 11 18 20 25 20 20 0 53 42 53 68 0 33 45 120 82 158 16 18 26 34
21 37 -5 3 -34 9 -64 12 -30 4 -65 15 -79 24 -40 28 -123 65 -150 67 -14 1
-31 -3 -37 -8 -9 -7 -20 -6 -35 4 -17 11 -41 14 -86 10 -58 -4 -64 -2 -87 22
-18 20 -31 25 -48 21 -19 -5 -28 0 -42 22 -10 15 -21 41 -25 58 -4 22 -12 31
-30 33 -14 2 -29 8 -35 13 -17 16 -53 10 -60 -11 -3 -11 -16 -25 -28 -31 -12
-7 -26 -18 -30 -25 -10 -18 -110 -11 -142 10 -30 20 -51 20 -59 1 -10 -26 -21
-16 -33 28 -10 37 -18 45 -60 63 -26 11 -64 20 -83 20 -33 -1 -35 -3 -33 -33
2 -18 -4 -36 -12 -43 -10 -9 -15 -9 -15 -1 0 6 -16 11 -36 11 -34 0 -35 1 -29
29 5 24 2 30 -13 35 -11 4 -23 18 -26 32 -4 14 -25 45 -47 69 -25 27 -42 57
-46 79 -3 20 -9 39 -14 42 -5 3 -17 24 -27 48 -23 52 -89 90 -138 80 -21 -4
-44 2 -79 21 -60 32 -108 28 -168 -11 -22 -14 -54 -28 -72 -31 -27 -4 -35 -1
-54 26 -17 23 -30 31 -53 31 -23 0 -39 9 -58 31 -24 30 -30 32 -103 35 -67 3
-79 0 -89 -16 -9 -13 -20 -17 -38 -13 -17 3 -31 -1 -39 -11 -16 -19 -50 -21
-55 -3 -31 115 -37 125 -71 142 -21 9 -45 13 -58 9 -18 -5 -20 -4 -9 7 18 19
15 31 -19 67 -25 26 -33 30 -49 22 -28 -15 -70 9 -115 65 -21 25 -44 45 -52
45 -7 0 -26 9 -42 21 -27 19 -30 20 -66 5 -26 -11 -42 -13 -50 -6 -12 10 -12
77 0 136 8 36 -15 79 -47 90 -14 4 -17 11 -12 22 4 10 15 48 25 85 9 37 22 73
27 80 6 7 13 29 17 49 7 36 6 37 -30 47 -32 9 -42 7 -63 -10 -51 -40 -92 -96
-92 -127 0 -48 -20 -92 -41 -92 -23 0 -73 -24 -108 -51 -31 -24 -63 -24 -139
2 -51 17 -68 19 -94 10 -42 -15 -74 6 -80 51 -5 28 0 38 28 63 l34 30 -17 48
c-14 37 -23 47 -40 47 -20 0 -21 3 -13 26 6 14 10 34 10 45 0 11 11 35 25 53
30 40 31 48 5 71 -16 14 -23 16 -32 7 -17 -17 -26 -15 -33 7 -3 11 -25 35 -49
55 l-44 36 -53 -16 c-48 -15 -55 -15 -80 0 -15 9 -45 16 -67 16 -32 0 -45 -6
-61 -27 -21 -28 -21 -28 -37 -8 -10 13 -14 32 -11 55 7 51 -12 121 -41 153
-20 21 -35 27 -69 27 -39 0 -43 2 -43 25 0 28 -29 35 -49 11 -6 -7 -26 -16
-44 -20 -39 -8 -96 20 -101 49 -2 11 -9 47 -16 80 -7 33 -12 76 -11 96 1 25
-7 46 -26 72 -16 19 -36 49 -45 66 -21 37 -44 48 -69 33 -10 -7 -29 -12 -40
-12 -34 0 -109 -48 -109 -69 0 -32 -26 -45 -52 -27 -12 9 -33 16 -45 16 -13 0
-23 6 -23 14 0 7 -7 20 -16 27 -9 8 -27 30 -40 50 -15 24 -33 39 -53 44 -47
10 -52 21 -52 120 0 17 3 45 7 63 5 28 2 38 -21 62 -16 17 -29 43 -32 69 -7
50 -19 60 -58 48z m3905 -3287 c0 -5 -2 -10 -4 -10 -3 0 -8 5 -11 10 -3 6 -1
10 4 10 6 0 11 -4 11 -10z m-10090 -449 c0 -6 -4 -13 -10 -16 -5 -3 -10 -17
-10 -29 0 -21 5 -24 41 -24 26 -1 42 4 46 14 3 8 10 14 15 14 6 0 7 -8 4 -17
-4 -9 -1 -20 6 -24 23 -14 -43 -32 -68 -18 -13 6 -34 9 -48 7 -14 -3 -23 -2
-21 3 10 15 -16 21 -32 8 -14 -12 -15 -10 -8 21 4 19 14 43 23 53 16 18 62 24
62 8z m7840 -111 c0 -11 -40 -34 -47 -26 -3 3 -3 12 0 21 7 16 47 21 47 5z
m-6349 -905 c25 -13 28 -20 23 -43 -9 -36 -9 -36 -44 -22 -24 10 -33 10 -45 0
-12 -10 -16 -8 -24 11 -10 29 5 56 34 62 11 2 21 5 23 6 2 0 16 -6 33 -14z
m-121 -45 c-19 -13 -30 -13 -30 0 0 6 10 10 23 10 18 0 19 -2 7 -10z m815
-359 c3 -6 -4 -8 -16 -6 -30 6 -37 15 -11 15 11 0 23 -4 27 -9z m-88 -7 c-10
-10 -77 -22 -77 -14 0 5 8 11 18 13 26 7 66 8 59 1z m7099 -2031 c4 -32 2 -59
-3 -64 -7 -7 -12 12 -16 53 -3 35 -8 72 -12 83 -6 19 -6 19 9 1 8 -10 18 -43
22 -73z m391 -1560 c-11 -10 -26 8 -20 23 5 15 7 14 15 -1 6 -9 7 -19 5 -22z
m-1887 -1163 c0 -5 -2 -10 -4 -10 -3 0 -8 5 -11 10 -3 6 -1 10 4 10 6 0 11 -4
11 -10z m80 -55 c-7 -8 -19 -15 -27 -15 -13 0 -13 3 -3 15 7 8 19 15 27 15 13
0 13 -3 3 -15z m-602 -100 c-21 -19 -43 -35 -50 -35 -7 0 0 9 16 19 16 11 33
27 38 35 5 9 14 16 21 16 7 0 -5 -16 -25 -35z m-498 -426 c0 -6 -4 -7 -10 -4
-5 3 -10 11 -10 16 0 6 5 7 10 4 6 -3 10 -11 10 -16z m-40 -234 c-7 -8 -10
-27 -7 -41 5 -28 -19 -46 -33 -24 -8 13 28 79 44 80 5 0 3 -7 -4 -15z m-885
-473 c-8 -8 -25 10 -19 20 4 6 9 5 15 -3 4 -7 6 -15 4 -17z"/>
<path d="M10110 6350 c0 -5 7 -10 16 -10 8 0 12 5 9 10 -3 6 -10 10 -16 10 -5
0 -9 -4 -9 -10z"/>
<path d="M10019 6314 c-29 -30 -39 -34 -65 -29 -27 5 -36 0 -65 -32 -19 -21
-45 -60 -59 -87 -14 -27 -33 -57 -42 -67 -17 -18 -43 -97 -35 -105 2 -3 24 33
47 80 56 111 121 186 161 186 22 0 43 12 77 45 29 27 41 45 31 45 -8 0 -31
-16 -50 -36z"/>
<path d="M10266 6303 c-11 -12 6 -23 35 -23 36 0 132 -47 124 -60 -3 -6 -12
-10 -20 -10 -31 0 -21 -16 11 -17 19 -1 37 3 40 8 8 13 -23 59 -40 59 -7 0
-24 8 -37 19 -23 18 -102 34 -113 24z"/>
<path d="M9740 5945 c0 -9 5 -15 11 -13 6 2 11 8 11 13 0 5 -5 11 -11 13 -6 2
-11 -4 -11 -13z"/>
<path d="M12630 1965 c-7 -9 -13 -34 -12 -57 1 -23 -2 -46 -7 -52 -14 -18 -24
-123 -12 -131 25 -15 2 -131 -28 -150 -7 -3 -27 7 -47 24 -26 23 -44 31 -74
31 -34 0 -44 -6 -76 -44 -37 -45 -63 -60 -119 -69 -57 -10 -125 -46 -134 -70
-8 -19 -15 -23 -34 -20 -19 4 -28 -1 -38 -19 -6 -12 -23 -36 -35 -51 -16 -19
-22 -36 -18 -51 7 -29 -12 -76 -31 -76 -18 0 -74 -59 -75 -78 0 -8 8 -10 24
-6 19 4 27 -1 44 -30 12 -20 26 -36 32 -36 17 0 11 -30 -7 -36 -81 -26 -87
-34 -72 -89 15 -55 55 -88 96 -80 30 5 34 3 49 -28 l17 -34 -56 -56 c-44 -45
-54 -60 -50 -81 5 -23 10 -26 44 -26 22 0 48 5 58 12 25 15 51 -4 51 -39 0
-31 -26 -93 -40 -93 -6 0 -15 -10 -20 -22 -6 -13 -15 -31 -22 -40 -19 -27 3
-45 37 -30 21 10 27 9 31 -3 3 -8 30 -22 60 -32 30 -9 54 -19 54 -23 0 -12
-55 -58 -77 -65 -17 -5 -23 -14 -23 -35 0 -57 153 -157 227 -148 21 3 33 0 33
-8 0 -6 6 -17 14 -24 8 -6 16 -21 18 -33 4 -25 63 -68 84 -60 17 6 19 34 3 50
-7 7 -2 21 20 46 17 19 31 46 31 59 0 14 14 38 35 58 39 38 37 54 -6 45 -16
-4 -29 -2 -29 3 0 12 34 42 48 42 6 0 19 11 30 25 17 22 21 48 27 192 7 164 8
169 37 211 16 24 27 50 24 60 -3 11 5 23 27 37 54 35 57 48 46 275 -12 283
-15 301 -56 378 l-36 67 18 93 c15 79 16 104 6 175 -19 132 -28 157 -55 157
-13 0 -29 -7 -36 -15z"/>
</g>
</svg>
