<svg id="Capa_1" enable-background="new 0 0 512 512" height="512" viewBox="0 0 512 512" width="512" xmlns="http://www.w3.org/2000/svg"><g><path d="m510.981 74.33h-509.962c-.563 0-1.019.456-1.019 1.019v357.741c0 .563.456 1.019 1.019 1.019h509.963c.563 0 1.019-.456 1.019-1.019v-357.741c-.001-.563-.457-1.019-1.02-1.019z" fill="#a2847d"/><path d="m480.076 105.236h-448.152c-.563 0-1.019.456-1.019 1.019v295.93c0 .563.456 1.019 1.019 1.019h277.37v-16.574c0-.608.493-1.102 1.102-1.102h143.843c.608 0 1.102.493 1.102 1.102v16.573h24.736c.563 0 1.019-.456 1.019-1.019v-295.93c-.001-.562-.457-1.018-1.02-1.018z" fill="#665e66"/><path d="m480.076 105.236h-40.189v137.706c0 77.131-62.527 139.657-139.657 139.657h-269.325v19.585c0 .563.456 1.019 1.019 1.019h448.152c.563 0 1.019-.456 1.019-1.019v-295.93c0-.562-.456-1.018-1.019-1.018z" fill="#544f57"/><g fill="#f9f6f6"><path d="m146.151 199.804c4.268 0 7.726-3.459 7.726-7.726s-3.459-7.726-7.726-7.726h-48.741c-6.542 0-11.864 5.322-11.864 11.864v80.23c0 6.542 5.322 11.864 11.864 11.864h48.74c4.268 0 7.726-3.459 7.726-7.726s-3.459-7.726-7.726-7.726h-45.152v-28.8h45.152c4.268 0 7.726-3.459 7.726-7.726s-3.459-7.726-7.726-7.726h-45.152v-28.8h45.153z"/><path d="m263.75 252.98v27.603c0 4.267 3.459 7.726 7.726 7.726s7.726-3.459 7.726-7.726v-27.603c0-6.691 5.444-12.134 12.134-12.134s12.134 5.443 12.134 12.134v27.603c0 4.267 3.459 7.726 7.726 7.726s7.726-3.459 7.726-7.726v-27.603c0-15.211-12.375-27.587-27.587-27.587-7.792 0-14.839 3.247-19.86 8.459-5.022-5.212-12.069-8.459-19.861-8.459-4.862 0-9.433 1.264-13.404 3.481-1.382-2.097-3.757-3.481-6.456-3.481-4.268 0-7.726 3.459-7.726 7.726v19.86 27.603c0 4.267 3.459 7.726 7.726 7.726 4.268 0 7.726-3.459 7.726-7.726v-27.602c0-6.691 5.444-12.134 12.134-12.134 6.693 0 12.136 5.443 12.136 12.134z"/><path d="m360.111 288.309c8.625 0 16.87-4.119 22.058-11.018 2.564-3.41 1.879-8.255-1.531-10.819-3.41-2.566-8.255-1.878-10.819 1.531-2.319 3.084-5.857 4.853-9.708 4.853-6.69 0-12.134-5.444-12.134-12.134v-7.742c0-6.691 5.444-12.134 12.134-12.134 3.851 0 7.389 1.769 9.708 4.852 2.564 3.41 7.408 4.096 10.819 1.531 3.41-2.565 4.096-7.408 1.531-10.819-5.188-6.898-13.435-11.017-22.058-11.017-15.211 0-27.587 12.375-27.587 27.587v7.742c0 15.212 12.375 27.587 27.587 27.587z"/><path d="m418.727 205.93h-18.028v-5.151c0-2.84 2.311-5.151 5.151-5.151 11.361 0 20.604-9.243 20.604-20.604s-9.242-20.604-20.604-20.604h-12.877c-4.268 0-7.726 3.459-7.726 7.726s3.459 7.726 7.726 7.726h12.877c2.84 0 5.151 2.311 5.151 5.151s-2.311 5.151-5.151 5.151c-11.361 0-20.604 9.243-20.604 20.604v12.877c0 4.267 3.459 7.726 7.726 7.726h25.755c4.268 0 7.726-3.459 7.726-7.726s-3.458-7.725-7.726-7.725z"/><path d="m206.001 235.324h-30.355c-4.268 0-7.726 3.459-7.726 7.726s3.459 7.726 7.726 7.726h30.355c4.268 0 7.726-3.459 7.726-7.726s-3.458-7.726-7.726-7.726z"/><path d="m206.001 261.078h-30.355c-4.268 0-7.726 3.459-7.726 7.726s3.459 7.726 7.726 7.726h30.355c4.268 0 7.726-3.459 7.726-7.726s-3.458-7.726-7.726-7.726z"/><path d="m413.487 298.201c-54.937 0-108.843 9.861-160.222 29.31-3.991 1.511-6.001 5.97-4.491 9.961 1.17 3.09 4.109 4.993 7.227 4.993.909 0 1.834-.161 2.734-.503 49.625-18.784 101.691-28.309 154.751-28.309 4.268 0 7.726-3.459 7.726-7.726.001-4.266-3.457-7.726-7.725-7.726z"/></g><path d="m454.238 385.529h-143.842c-.608 0-1.102.493-1.102 1.102v49.938c0 .608.493 1.102 1.102 1.102h143.843c.608 0 1.102-.493 1.102-1.102v-49.939c-.001-.608-.494-1.101-1.103-1.101z" fill="#cba59d"/></g></svg>