<?xml version="1.0" encoding="iso-8859-1"?>
<!-- Generator: Adobe Illustrator 17.1.0, SVG Export Plug-In . SVG Version: 6.00 Build 0)  -->
<!DOCTYPE svg PUBLIC "-//W3C//DTD SVG 1.1//EN" "http://www.w3.org/Graphics/SVG/1.1/DTD/svg11.dtd">
<svg version="1.1" id="Capa_1" xmlns="http://www.w3.org/2000/svg" xmlns:xlink="http://www.w3.org/1999/xlink" x="0px" y="0px"
	 viewBox="0 0 205.633 205.633" style="enable-background:new 0 0 205.633 205.633;" xml:space="preserve">
<path d="M131.625,205.633c-1.995,0-3.927-0.789-5.436-2.298l-28.712-28.711c-11.433,1.549-23.021-2.328-31.184-10.492
	c-8.164-8.164-12.044-19.752-10.491-31.183l-28.712-28.712c-2.297-2.297-2.926-5.578-1.641-8.562s4.132-4.777,7.348-4.689
	l44.748,1.247l37.499-37.498c3.665-3.665,8.669-5.482,13.763-5.087V2c0-1.104,0.896-2,2-2h13.148c1.104,0,2,0.896,2,2v58.789
	l12.706,12.706l8.047-8.047c10.612-10.613,10.612-27.881,0-38.494c-5.288-5.288-8.2-12.318-8.2-19.797V2c0-1.104,0.896-2,2-2
	s2,0.896,2,2v5.158c0,6.41,2.496,12.436,7.028,16.969c12.172,12.172,12.172,31.978,0,44.15l-8.047,8.047l14.202,14.202
	c3.32,3.32,5.148,7.733,5.148,12.428s-1.829,9.108-5.148,12.428l-37.498,37.499l1.247,44.749c0.091,3.247-1.706,6.063-4.69,7.348
	C133.727,205.417,132.667,205.633,131.625,205.633z M32.566,94.982c-1.813,0-2.964,1.166-3.442,2.275
	c-0.488,1.134-0.536,2.82,0.795,4.151l99.099,99.099c1.331,1.332,3.018,1.284,4.151,0.795c1.134-0.488,2.326-1.68,2.274-3.563
	l-0.174-6.229c-0.012-0.011-0.023-0.023-0.035-0.035L38.914,95.158l-6.228-0.174C32.646,94.983,32.605,94.982,32.566,94.982z
	 M44.733,95.32l90.373,90.373l-0.913-32.766L77.5,96.233L44.733,95.32z M59.491,136.638c-0.358,9.144,3.099,18.134,9.631,24.667
	c6.531,6.531,15.525,9.989,24.667,9.631L59.491,136.638z M81.18,94.256l54.991,54.991l7.027-7.026L88.207,87.229L81.18,94.256z
	 M91.035,84.401l54.991,54.991l26.838-26.838c5.293-5.293,5.293-13.907,0-19.2l-15.599-15.598c-0.006-0.006-0.012-0.012-0.018-0.018
	s-0.012-0.012-0.018-0.018l-11.274-11.274v25.558c0,4.094-3.331,7.425-7.425,7.425h-2.297c-4.094,0-7.425-3.331-7.425-7.425v-38.34
	c-4.032-0.405-8.033,0.998-10.935,3.899L91.035,84.401z M137.382,95.429c2.522,0,4.574-2.052,4.574-4.574V4h-9.148v86.855
	C132.808,93.377,134.859,95.429,137.382,95.429z M137.382,91.598c-1.104,0-2-0.896-2-2v-0.849c0-1.104,0.896-2,2-2s2,0.896,2,2
	v0.849C139.382,90.702,138.486,91.598,137.382,91.598z"/>
<g>
</g>
<g>
</g>
<g>
</g>
<g>
</g>
<g>
</g>
<g>
</g>
<g>
</g>
<g>
</g>
<g>
</g>
<g>
</g>
<g>
</g>
<g>
</g>
<g>
</g>
<g>
</g>
<g>
</g>
</svg>
