<?xml version="1.0"?>
<svg xmlns="http://www.w3.org/2000/svg" height="512px" viewBox="0 0 512 512" width="512px" class=""><g><g id="Flat"><path d="m270.225 315.681-14.225-3.681v16h-16v16h-16v16h-16v56l24 24 24-32v-32l16-16c9.373-9.373 16-32-1.775-44.319z" fill="#5f9548" data-original="#5F9548" class="active-path" style="fill:#0B3641" data-old_color="#5f9548"/><path d="m297.941 49.941-25.941-25.941-8 8-16-8-8 8-16-8-8 8-16-8v16a24 24 0 0 0 24 24h24l16 16v16l48 8v-20.118a48 48 0 0 0 -14.059-33.941z" fill="#5f9548" data-original="#5F9548" class="active-path" style="fill:#0B3641" data-old_color="#5f9548"/><path d="m488 292c0 108.25-87.75 196-196 196h-268a49.246 49.246 0 0 1 38.47-48.09c.22-.05.44-.1.67-.15l205.25-43.21a75.081 75.081 0 0 0 -15.47-148.55h-61.81a63.874 63.874 0 0 1 -28.62-6.76l-66.49-33.24h-48a24.006 24.006 0 0 1 -24-24v-8h128l7.8-15.6a29.666 29.666 0 0 1 25.56-16.37c-.45-.01-.9-.03-1.36-.03h-40l-16 8-16-8h-8l-16 8-16-8h-8l-16 8-16-8h-8v-22.11a25.9 25.9 0 0 1 37.47-23.16l5.06 2.54a26.007 26.007 0 0 0 11.58 2.73h49.89l6.06-6.06a61.249 61.249 0 0 1 43.31-17.94 54.636 54.636 0 0 1 38.63 16h76a195.046 195.046 0 0 1 102.22 28.74v.01a196.152 196.152 0 0 1 93.78 167.25z" fill="#7eb457" data-original="#7EB457" class="" style="fill:#166D83" data-old_color="#7eb457"/><path d="m488 292c0 108.25-87.75 196-196 196h-68.75c120.49-39.99 293.41-139.2 170.97-363.25a196.152 196.152 0 0 1 93.78 167.25z" fill="#79ad54" data-original="#79AD54" class="" style="fill:#10677D" data-old_color="#79ad54"/><path d="m168 104h16v16h-16z" fill="#5f9548" data-original="#5F9548" class="active-path" style="fill:#0B3641" data-old_color="#5f9548"/><path d="m232 240v16l-16 16h-24a24 24 0 0 0 -24 24v16l16-8 8 8 16-8 8 8 16-8 8 8 25.941-25.941a48 48 0 0 0 14.059-33.941v-28.118z" fill="#7eb457" data-original="#7EB457" class="" style="fill:#166D83" data-old_color="#7eb457"/><path d="m492.319 425.775c-12.319-17.775-34.946-11.148-44.319-1.775l-16 16h-16l-48 24 9.941 9.941a48 48 0 0 0 33.941 14.059h36.118v-16h16v-16h16v-16h16z" fill="#79ad54" data-original="#79AD54" class="" style="fill:#10677D" data-old_color="#79ad54"/><path d="m38.811 487.893-.223-16c9.994-.14 20.711-.416 31.854-.821l.582 15.989c-11.262.412-22.1.691-32.213.832zm64.36-2.295-.867-15.976c10.52-.572 21.232-1.243 31.839-2l1.133 15.96c-10.695.763-21.496 1.44-32.105 2.018zm64.173-4.556-1.4-15.939c10.775-.948 21.459-1.986 31.757-3.086l1.7 15.909c-10.401 1.111-21.185 2.159-32.057 3.116zm64.024-6.875-2.049-15.867c10.972-1.417 21.567-2.929 31.489-4.5l2.494 15.805c-10.07 1.595-20.814 3.126-31.934 4.562zm63.791-10.188-3.116-15.694c11.271-2.237 21.609-4.6 30.729-7.03l4.116 15.462c-9.45 2.515-20.125 4.958-31.729 7.262zm63.191-17.658-6.234-14.736a88.163 88.163 0 0 0 11.777-5.92 161.362 161.362 0 0 0 13.778-9.524l9.771 12.671a177.618 177.618 0 0 1 -15.151 10.472 104.109 104.109 0 0 1 -13.941 7.037zm53.55-40.321-11.957-10.632a163.031 163.031 0 0 0 18.024-24.548l13.729 8.217a179.094 179.094 0 0 1 -19.796 26.963zm34.17-57.208-15.047-5.438a151.522 151.522 0 0 0 7.421-29.417l15.83 2.325a167.581 167.581 0 0 1 -8.202 32.53zm-6.344-65.123a148.889 148.889 0 0 0 -4.888-29.9l15.444-4.183a164.929 164.929 0 0 1 5.415 33.125zm-15.765-58.179a149.215 149.215 0 0 0 -16.406-25.481l12.5-9.984a165.235 165.235 0 0 1 18.169 28.22zm-37.626-47.134a149.386 149.386 0 0 0 -25.149-16.923l7.534-14.115a165.393 165.393 0 0 1 27.849 18.739zm-53.2-28.378a148.636 148.636 0 0 0 -29.8-5.494l1.283-15.948a164.6 164.6 0 0 1 33.011 6.087zm-61.135-5.978h-32v-16h32z" fill="#88c25e" data-original="#88C25E" class="" style="fill:#0B3641" data-old_color="#88c25e"/><path d="m105.089 454.639-.771-15.982c10.728-.518 21.406-1.191 31.737-2l1.251 15.951c-10.49.821-21.329 1.505-32.217 2.031zm64.378-5.093-1.793-15.9c10.756-1.212 21.334-2.611 31.441-4.157l2.42 15.816c-10.314 1.578-21.103 3.005-32.068 4.241zm63.982-9.879-3.17-15.683c10.673-2.158 21.013-4.555 30.732-7.127l4.092 15.468c-10.023 2.652-20.673 5.122-31.654 7.342zm62.87-16.833-5.262-15.11a304.694 304.694 0 0 0 28.912-11.675l6.788 14.489a320.433 320.433 0 0 1 -30.438 12.296zm59.414-28.371-8.812-13.355a145.137 145.137 0 0 0 23.491-19.05l11.4 11.226a161.091 161.091 0 0 1 -26.079 21.179zm46.455-48.512-14.063-7.631a99.474 99.474 0 0 0 10.08-27.73l15.681 3.175a115.455 115.455 0 0 1 -11.698 32.186zm-2.391-64.9a108.482 108.482 0 0 0 -6.7-28.941l14.952-5.694a124.5 124.5 0 0 1 7.685 33.209zm-20.933-55.051a105.611 105.611 0 0 0 -20.729-21.193l9.737-12.7a121.583 121.583 0 0 1 23.874 24.4zm-46.531-35.54a101.821 101.821 0 0 0 -28.888-6.211l1.086-15.963a117.78 117.78 0 0 1 33.424 7.194zm-60.333-6.46h-32v-16h32z" fill="#88c25e" data-original="#88C25E" class="" style="fill:#0B3641" data-old_color="#88c25e"/><path d="m186.334 144a29.666 29.666 0 0 0 -26.534 16.4l-7.8 15.6h-128v8a24 24 0 0 0 24 24h138.334a29.666 29.666 0 0 0 29.666-29.666v-4.668a29.666 29.666 0 0 0 -29.666-29.666z" fill="#d0d24b" data-original="#D0D24B" class="" style="fill:#408596" data-old_color="#d0d24b"/><path d="m72.84 455.74c-8.23.17-16.59.26-24.84.26v-10.32a49.148 49.148 0 0 1 14.47-5.77q5.04-.06 10.04-.16z" fill="#88c25e" data-original="#88C25E" class="" style="fill:#0B3641" data-old_color="#88c25e"/></g></g> </svg>
