<?xml version="1.0"?>
<svg xmlns="http://www.w3.org/2000/svg" enable-background="new 0 0 256 256" height="512px" viewBox="0 0 256 256" width="512px" class=""><g><path d="m39.758 138.857c-.474-.585-1.134-1.058-1.882-1.146-.904-.106-1.799.369-2.413 1.041-.614.671-.993 1.52-1.34 2.361-.479 1.161-.9 2.344-1.295 3.536 3.169.177 6.422-.071 9.482-.592-.485-1.077-.969-2.154-1.454-3.231-.31-.688-.624-1.383-1.098-1.969z" fill="#e3e4e5" data-original="#E3E4E5" class=""/><path d="m23.902 135.861c.438.861.989 1.748 1.877 2.13 1.034.444 2.284.056 3.114-.703s1.312-1.824 1.674-2.889c.33-.972.579-1.971.745-2.984.007-.042.013-.084.02-.126-1.809.107-3.816.316-6.067.651-.981.146-1.925.201-2.851.218.387 1.275.884 2.516 1.488 3.703z" fill="#e3e4e5" data-original="#E3E4E5" class=""/><path d="m100.839 103.876c-1.257-.669-2.314-1.699-2.805-3.035-2.108-5.728-7.608-9.814-14.067-9.814-7.884 0-14.458 6.117-14.947 14.019-.065 1.049-.848 1.914-1.872 2.151-5.266 1.219-8.7 6.657-8.7 6.657-6.729-3.322-14.409.862-14.409.862-3.996-4.212-9.871-3.788-13.023-3.163-1.332-2.674-4.085-4.516-7.276-4.516-2.891 0-5.424 1.514-6.866 3.787-5.155-1.696-11.026.399-13.496 5.426-2.977 6.059 2.573 9.592 2.573 9.592s7.85 7.806 19.313 6.099c23.887-3.558 20.33 7.115 43.709 2.033 0 0-7.624 1.525-13.723 5.591s-23.379 8.132-33.544 2.033c-5.513-3.308-9.148 2.033-7.115 6.099s10.549 14.478 30.495 8.132c22.363-7.115 46.758 8.132 52.857-7.115 2.303-.768 4.481-1.898 6.373-3.419 17.005-13.67 10.267-34.112-3.477-41.419z" fill="#3aa03a" data-original="#3AA03A" class="" style="fill:#0B3641" data-old_color="#3aa03a"/><path d="m83.713 130.416c-5.082 5.082-14.739 3.558-14.739 3.558s-7.624 1.525-13.723 5.591-23.379 8.132-33.544 2.033c-5.513-3.308-9.148 2.033-7.115 6.099s10.549 14.478 30.495 8.132c22.363-7.115 46.758 8.132 52.857-7.115s-9.149-23.381-14.231-18.298z" fill="#f9bd55" data-original="#F9BD55" class="" style="fill:#166D83" data-old_color="#f9bd55"/><g fill="#7ccc4e"><path d="m218.031 114.174c.353.925.842 1.443 3.744 4.32 2.775-2.978 4.191-6.954 4.159-11.135-2.492.582-5.179 1.413-6.498 2.516-1.26 1.053-2 2.74-1.405 4.299z" data-original="#7CCC4E" class="active-path" style="fill:#408596" data-old_color="#7CCC4E"/><path d="m214.977 122.714c-1.058-2.136-2.335-4.285-3.589-5.252-1.299-1.002-3.106-1.361-4.5-.444-.927.61-1.31 1.263-4.286 5.971 4.853 1.011 8.991.804 12.375-.275z" data-original="#7CCC4E" class="active-path" style="fill:#408596" data-old_color="#7CCC4E"/><path d="m190.62 111.415c-1.144.239-1.751.75-6.933 4.533 4.184 1.598 8.257 3.56 12.464 5.125-.155-2.744-.536-5.963-1.508-7.592-.841-1.41-2.389-2.407-4.023-2.066z" data-original="#7CCC4E" class="active-path" style="fill:#408596" data-old_color="#7CCC4E"/><path d="m175.02 107.407c-1.248-1.065-3.036-1.513-4.473-.665-.99.583-1.408 1.254-4.927 6.255 3.734-.185 7.457.005 11.155.809.747.163 1.481.366 2.215.572-1.036-2.609-2.477-5.698-3.97-6.971z" data-original="#7CCC4E" class="active-path" style="fill:#408596" data-old_color="#7CCC4E"/><path d="m159.009 113.678c-1.639-2.253-3.766-4.838-5.506-5.694-1.472-.724-3.315-.717-4.499.458-.851.845-1.072 1.619-3.527 8.045 4.498-1.067 9.017-2.124 13.532-2.809z" data-original="#7CCC4E" class="active-path" style="fill:#408596" data-old_color="#7CCC4E"/><path d="m138.088 118.188c.135-.029.27-.06.405-.09-1.441-2.335-3.303-4.973-4.929-5.94-1.41-.839-3.247-.979-4.521.099-.912.772-1.194 1.521-4.125 7.677 4.441-.169 8.919-.834 13.17-1.746z" data-original="#7CCC4E" class="active-path" style="fill:#408596" data-old_color="#7CCC4E"/></g><path d="m235.844 153.588c21.31-21.545 20.696-46.923 11.934-62.857-9.237-16.799-23.464-16.973-41.976-14.377-21.198 2.973-29.826 4.625-36.961 3.912-.807-.08-1.565.388-1.874 1.137-.398.966.081 2.07 1.056 2.445 8.314 3.205 14.142 1.677 22.215.952 47.122-4.226 45.138 48.903 8.438 37.153-7.428-2.378-14.28-6.491-21.9-8.149-12.794-2.783-25.884 1.638-38.686 4.383-8.029 1.722-16.863 2.583-24.74.833 2.63 8.502.656 18.485-9.032 26.272-1.892 1.521-4.07 2.651-6.373 3.419-1.113 2.782-2.84 4.54-5.048 5.613 8.595 6.652 18.147 12.112 28.75 16.005.495 1.255.913 2.518.819 3.849-.145 2.045-1.474 3.788-2.761 5.382-.777.962-1.633 1.971-2.822 2.311-.91.261-1.879.088-2.816-.043-4.537-.633-9.456-.099-13.254 2.358-.536.347-.336 1.195.297 1.277.012.001.023.003.035.004.621.082.817.891.316 1.265l-1.461 1.091c-1.525 1.139-.731 3.563 1.173 3.58l4.492.038c.639.005.947.794.48 1.229-.437.407-.894.794-1.368 1.158-.543.417-.271 1.287.415 1.285 3.829-.008 7.659-.087 11.485-.238 2.6-.102 5.504-.38 7.201-2.353.799-.929 1.203-2.102 1.484-3.311.176-.756.86-1.261 1.636-1.253 2.686.028 5.382-1.073 7.244-3.016 1.922-2.007 2.899-4.72 3.681-7.386.249-.848.48-1.708.693-2.574 11.431 2.141 23.923 2.587 37.578.972 5.32 4.568 11.846 6.932 11.846 6.932-.91.261-1.879.088-2.816-.043-4.537-.633-9.456-.099-13.254 2.358-.536.347-.336 1.195.297 1.277.012.001.023.003.035.004.621.082.817.891.316 1.265l-1.461 1.091c-1.525 1.139-.731 3.563 1.173 3.58l4.492.038c.639.005.947.794.48 1.229-.437.408-.894.794-1.368 1.158-.543.417-.271 1.287.415 1.285 3.829-.008 7.659-.087 11.485-.238 2.6-.102 5.504-.38 7.201-2.353.799-.929 1.203-2.102 1.484-3.311.176-.756.86-1.261 1.636-1.253 0 0 9.522-6.353 2.56-17.871.774-.211 1.543-.411 2.323-.634 11.664-3.327 22.057-6.012 32.806-16.88z" fill="#3aa03a" data-original="#3AA03A" class="" style="fill:#0B3641" data-old_color="#3aa03a"/><path d="m169.734 166.114c-11.319.769-21.262.376-29.962-.78.106 3.209-.383 6.481-1.161 9.653v-.001c11.431 2.141 23.923 2.587 37.578.972-3.008-2.584-5.618-5.875-6.455-9.844z" fill="#f9bd55" data-original="#F9BD55" class="" style="fill:#166D83" data-old_color="#f9bd55"/><path d="m120.654 167.723c-.667-2.141-.704-4.472-.116-6.635-10.159-3.26-17.701-7.51-23.044-11.373-1.106 2.211-2.669 3.673-4.598 4.611 8.595 6.652 18.147 12.112 28.749 16.005-.341-.867-.717-1.73-.991-2.608z" fill="#f9bd55" data-original="#F9BD55" class="" style="fill:#166D83" data-old_color="#f9bd55"/><path d="m207.067 158.801.15.077c-2.019 7.423-9.367 8.32-9.367 8.32 1.17 1.363 2.108 2.666 2.86 3.91 0 0 0 0 0-.001.774-.211 1.543-.411 2.323-.634 11.67-3.333 22.064-6.017 32.813-16.885 12.531-12.669 17.475-26.662 17.645-39.282-3.074 15.093-18.322 39.489-46.424 44.495z" fill="#f9bd55" data-original="#F9BD55" class="" style="fill:#166D83" data-old_color="#f9bd55"/><path d="m176.344 198.633c-1.372 0-2.588-.869-3.03-2.165-.173-.507-.213-1.034-.134-1.539l-.876-.008c-1.958-.017-3.617-1.229-4.227-3.09-.577-1.761-.053-3.609 1.334-4.796-.073-.174-.131-.356-.174-.547-.3-1.322.238-2.651 1.371-3.384 2.1-1.358 4.583-2.269 7.302-2.705-.832-.563-1.671-1.176-2.495-1.837-12.196 1.352-23.944 1.111-34.976-.717-.04.14-.08.279-.121.418-.867 2.954-1.984 6.019-4.274 8.41-2.155 2.251-5.262 3.635-8.418 3.776-.318 1.165-.836 2.52-1.855 3.705-2.551 2.967-6.745 3.132-8.998 3.221-3.831.15-7.726.231-11.578.24-.001 0-.003 0-.005 0-1.373 0-2.59-.87-3.031-2.167-.172-.507-.212-1.033-.133-1.537l-.876-.008c-1.958-.017-3.617-1.229-4.227-3.09-.577-1.761-.053-3.609 1.333-4.796-.073-.174-.131-.356-.174-.547-.299-1.322.238-2.65 1.371-3.383 3.952-2.557 9.262-3.526 14.957-2.736l.243.035c.599.085 1.218.172 1.541.082.483-.139 1.134-.945 1.565-1.479 1.114-1.381 2.123-2.725 2.212-3.989.037-.523-.07-1.081-.279-1.733-10.028-3.808-19.552-9.176-28.326-15.967-.684-.528-1.045-1.374-.957-2.233.089-.86.616-1.613 1.394-1.991 1.78-.866 2.994-2.23 3.819-4.294.273-.683.833-1.211 1.531-1.443 2.12-.706 4.003-1.714 5.598-2.996 7.891-6.342 10.883-14.938 8.209-23.585-.264-.851-.054-1.777.55-2.433.604-.655 1.509-.939 2.38-.746 6.441 1.432 14.407 1.149 23.673-.837 2.33-.499 4.725-1.068 7.041-1.618 10.671-2.534 21.708-5.153 32.701-2.764 4.688 1.021 9.063 2.907 13.295 4.731 2.883 1.243 5.864 2.528 8.836 3.48 9.101 2.912 16.724 1.731 20.917-3.242 3.674-4.359 4.108-10.903 1.106-16.671-4.718-9.063-16.306-13.688-31-12.369-1.385.124-2.704.272-3.979.416-6.395.72-11.919 1.341-19.358-1.525-1.106-.428-1.974-1.263-2.441-2.352-.467-1.087-.476-2.286-.026-3.379.726-1.762 2.546-2.866 4.436-2.672 5.488.546 12.229-.428 25.661-2.37 3.173-.459 6.716-.972 10.704-1.53 17.567-2.464 34.192-3.121 44.513 15.647 8.696 15.812 10.68 42.538-12.347 65.819-10.845 10.965-21.469 13.99-32.718 17.194l-.562.159c5 11.631-4.699 18.287-4.806 18.358-.227.15-.475.263-.735.333-.316 1.183-.834 2.569-1.876 3.781-2.551 2.967-6.745 3.132-8.998 3.221-3.831.15-7.727.231-11.578.24-.002.004-.004.004-.005.004zm-70.036-2.827c-.002.001-.004.003-.007.005.002-.002.005-.004.007-.005zm67.559-5.872 2.971.025c1.323.013 2.486.817 2.965 2.052.202.521.262 1.066.192 1.592 2.585-.036 5.175-.105 7.735-.206 2.066-.081 4.359-.271 5.403-1.484.4-.466.691-1.158.945-2.248.365-1.566 1.578-2.733 3.1-3.08 1.596-1.292 6.306-6.052 1.391-14.184-.406-.671-.473-1.493-.182-2.222.292-.728.907-1.277 1.664-1.483l.762-.206c.509-.137 1.018-.272 1.532-.42l1.189-.339c11.06-3.149 20.611-5.869 30.533-15.9 21.089-21.322 19.387-45.591 11.521-59.894-8.044-14.627-19.592-15.891-39.438-13.106-3.979.559-7.516 1.069-10.682 1.527-10.106 1.462-16.535 2.392-21.643 2.55 4.09.731 7.764.319 12.097-.169 1.312-.147 2.667-.3 4.092-.428 16.781-1.507 30.196 4.118 35.882 15.041 3.942 7.572 3.268 16.287-1.718 22.201-5.564 6.603-15.137 8.346-26.264 4.782-3.205-1.025-6.299-2.36-9.292-3.65-4.198-1.811-8.163-3.52-12.378-4.438-9.884-2.149-20.356.338-30.483 2.742-2.342.557-4.765 1.132-7.148 1.643-8.259 1.771-15.631 2.269-21.981 1.483 1.472 9.361-2.32 18.353-10.748 25.126-1.785 1.435-3.829 2.597-6.091 3.464-.699 1.426-1.584 2.655-2.65 3.68 7.927 5.756 16.445 10.324 25.365 13.599.67.246 1.203.767 1.464 1.431.588 1.494 1.115 3.126.986 4.942-.209 2.935-2.075 5.246-3.31 6.775-.827 1.023-2.076 2.57-4.078 3.145-1.348.387-2.611.205-3.625.061l-.226-.032c-3.581-.497-6.909-.155-9.604.964.008.027.015.054.022.081.333 1.273-.132 2.603-1.185 3.388l-.241.18 2.971.025c1.323.013 2.486.817 2.965 2.052.202.521.262 1.066.192 1.592 2.585-.036 5.175-.105 7.735-.206 2.066-.081 4.359-.271 5.403-1.484.4-.466.691-1.158.945-2.248.441-1.898 2.099-3.23 4.099-3.186 2.036-.01 4.043-.819 5.41-2.246 1.548-1.617 2.399-4.013 3.087-6.359.239-.813.46-1.637.664-2.467.316-1.288 1.583-2.107 2.889-1.861 11.511 2.156 23.9 2.475 36.824.946.691-.083 1.391.13 1.922.586 4.89 4.198 11.01 6.457 11.071 6.479 1.017.371 1.682 1.355 1.643 2.438-.038 1.082-.767 2.017-1.808 2.315-1.349.387-2.611.205-3.626.061l-.225-.032c-3.582-.498-6.909-.155-9.603.964.008.026.015.054.022.081.333 1.273-.132 2.603-1.185 3.388zm-69.43.91c-.001.001-.002.002-.003.003zm22.532-.382h.002s-.001 0-.002 0zm45-1.498h.004c-.001 0-.003 0-.004 0zm-71.155-1.017h.002c-.001 0-.002 0-.002 0zm71.769-3.946c.01.002.02.003.029.004-.009-.001-.019-.002-.029-.004zm-71.153-1.017c.002 0 .004.001.006.001-.002 0-.004-.001-.006-.001z" data-original="#000000" class="" style="fill:#000000"/><path d="m97.942 151.213c-.309 0-.623-.058-.928-.18-1.282-.513-1.905-1.968-1.393-3.25 2.946-7.363.131-12.535-3.485-14.92-2.48-1.636-5.405-1.934-6.657-.681-5.915 5.916-16.451 4.328-16.896 4.261-1.364-.216-2.295-1.496-2.08-2.859.214-1.362 1.486-2.295 2.854-2.08.083.014 8.481 1.249 12.586-2.856 3.014-3.014 8.337-2.995 12.945.042 5.021 3.312 9.441 10.785 5.375 20.951-.389.977-1.328 1.572-2.321 1.572z" data-original="#000000" class="" style="fill:#000000"/><path d="m47.118 122.752c-1.068 0-2.058-.691-2.389-1.766-.577-1.876-1.419-3.406-2.504-4.55-.95-1.001-.909-2.584.092-3.534 1.002-.951 2.584-.91 3.535.093 1.62 1.707 2.851 3.901 3.657 6.521.406 1.32-.335 2.719-1.654 3.125-.246.075-.493.111-.737.111z" data-original="#000000" class="" style="fill:#000000"/><path d="m63.385 120.718c-.788 0-1.563-.371-2.05-1.066-1.125-1.606-2.468-2.803-3.995-3.557-1.238-.611-1.746-2.11-1.135-3.348.612-1.239 2.111-1.747 3.349-1.135 2.288 1.129 4.265 2.869 5.876 5.172.792 1.131.517 2.689-.614 3.481-.436.306-.936.453-1.431.453z" data-original="#000000" class="" style="fill:#000000"/><path d="m25.264 119.194c-1.047 0-2.022-.663-2.371-1.711-.089-.266-.448-.45-.452-.451-1.31-.437-2.018-1.852-1.582-3.162.437-1.311 1.853-2.017 3.162-1.582.277.093 2.737.979 3.615 3.615.437 1.31-.271 2.726-1.581 3.162-.262.087-.529.129-.791.129z" data-original="#000000" class="" style="fill:#000000"/><path d="m33.269 160.353c-14.624 0-20.203-10.118-20.913-11.538-1.531-3.063-.923-6.756 1.479-8.979 1.863-1.724 5.247-2.73 9.159-.382 9.012 5.407 24.806 1.914 30.673-1.841-2.937-.375-5.259-1.112-7.548-1.839-4.651-1.476-9.459-3.001-20.486-1.36-11.667 1.737-19.858-5.315-21.247-6.609-2.574-1.764-6.299-6.456-3.251-12.656 2.664-5.421 8.788-8.294 14.766-7.153 1.996-2.192 4.815-3.458 7.84-3.458 3.417 0 6.542 1.604 8.525 4.286 3.422-.416 8.292-.235 12.241 2.932 2.598-1.055 7.846-2.633 13.091-.936 1.63-1.969 4.755-5.059 8.935-6.046.626-9.12 8.261-16.246 17.434-16.246 7.296 0 13.892 4.602 16.413 11.451.243.66.823 1.261 1.632 1.69v.001c8.264 4.394 13.932 12.784 14.792 21.898.843 8.927-3.036 17.335-10.922 23.674-1.784 1.434-3.827 2.596-6.087 3.462-4.447 9.19-14.998 7.975-26.146 6.688-8.681-1-18.521-2.133-27.806.819-4.786 1.522-8.957 2.142-12.574 2.142zm-14.865-17.288c-.418 0-.828.119-1.172.438-.643.596-1.003 1.875-.404 3.074.689 1.379 7.321 13.289 27.5 6.867 10.308-3.279 20.714-2.08 29.895-1.021 11.93 1.377 18.808 1.839 21.399-4.641.273-.683.833-1.211 1.531-1.443 2.12-.706 4.003-1.714 5.598-2.996 6.533-5.251 9.756-12.107 9.077-19.307-.694-7.347-5.468-14.395-12.163-17.954-1.896-1.008-3.309-2.562-3.978-4.379-1.801-4.892-6.511-8.178-11.721-8.178-6.577 0-12.046 5.127-12.452 11.673-.131 2.121-1.695 3.944-3.803 4.433-4.172.966-7.125 5.517-7.155 5.562-.687 1.073-2.074 1.467-3.217.9-5.451-2.689-12.046.784-12.112.819-.994.531-2.227.34-3.003-.479-3.168-3.339-8.078-2.956-10.723-2.431-1.104.218-2.222-.329-2.725-1.338-.961-1.932-2.892-3.131-5.038-3.131-1.934 0-3.711.981-4.754 2.626-.614.967-1.807 1.394-2.893 1.036-4.138-1.362-8.639.424-10.471 4.154-1.859 3.783 1.083 5.988 1.691 6.393.137.091.285.208.401.324.065.062 7.157 6.886 17.183 5.398 12.169-1.812 17.783-.031 22.735 1.54 5.01 1.591 9.345 2.965 20.455.6.222-.05.359-.078.397-.085 1.352-.271 2.657.597 2.938 1.94s-.575 2.662-1.916 2.954c-.088.019-.177.038-.264.057-1.257.281-7.565 1.812-12.603 5.17-6.565 4.376-24.789 8.956-36.217 2.097-.499-.297-1.273-.672-2.016-.672z" data-original="#000000" class="" style="fill:#000000"/><path d="m78.87 110.956c-1.377 0-2.496-1.114-2.5-2.492-.006-1.996.765-3.875 2.172-5.291s3.281-2.199 5.277-2.206h.024c4.11 0 7.46 3.337 7.473 7.449.004 1.381-1.111 2.503-2.492 2.508-.002 0-.005 0-.008 0-1.377 0-2.496-1.114-2.5-2.492-.004-1.36-1.113-2.465-2.473-2.465-.003 0-.005 0-.008 0-.66.002-1.28.262-1.746.73s-.721 1.09-.719 1.751c.004 1.381-1.111 2.503-2.492 2.508-.003 0-.005 0-.008 0z" data-original="#000000" class="" style="fill:#000000"/><path d="m34.913 147.207c-.751 0-1.493-.021-2.225-.062-.777-.043-1.489-.446-1.927-1.089-.438-.644-.551-1.454-.307-2.192.472-1.426.903-2.603 1.356-3.703.408-.988.917-2.124 1.807-3.097 1.225-1.339 2.931-2.021 4.548-1.837 1.334.157 2.589.887 3.536 2.056.679.839 1.081 1.729 1.435 2.516l1.455 3.231c.317.706.291 1.519-.073 2.202s-1.024 1.159-1.787 1.289c-2.679.457-5.299.686-7.818.686zm2.679-6.99c-.069.033-.178.104-.286.222-.34.372-.618 1.009-.874 1.628-.015.037-.03.074-.045.111.746-.029 1.501-.08 2.266-.153l-.078-.173c-.251-.559-.489-1.086-.76-1.42 0-.001 0-.001-.001-.002-.088-.11-.169-.177-.222-.213z" data-original="#000000" class="" style="fill:#000000"/><path d="m26.728 140.681c-.665 0-1.322-.129-1.936-.393-1.636-.704-2.526-2.129-3.118-3.293v-.001c-.667-1.313-1.223-2.696-1.652-4.11-.227-.75-.09-1.563.372-2.197.461-.633 1.192-1.014 1.976-1.028.962-.017 1.766-.077 2.529-.19 2.232-.332 4.347-.56 6.286-.675.757-.051 1.495.258 2.003.821.509.563.734 1.327.612 2.076l-.02.127c-.187 1.146-.471 2.284-.845 3.385-.408 1.202-1.044 2.735-2.354 3.932-1.107 1.009-2.495 1.546-3.853 1.546zm-.598-5.952c.396.778.596.94.647.972.009-.016.236-.081.43-.258.349-.319.615-.854.81-1.347-.673.078-1.362.169-2.066.271.059.121.118.241.179.362z" data-original="#000000" class="" style="fill:#000000"/><path d="m105.19 197.616c-1.373 0-2.59-.87-3.031-2.167-.172-.507-.212-1.033-.133-1.537l-.876-.008c-1.958-.017-3.617-1.229-4.227-3.09-.577-1.761-.053-3.609 1.333-4.796-.073-.174-.131-.356-.174-.547-.299-1.322.238-2.65 1.371-3.383 3.952-2.557 9.262-3.526 14.957-2.736l.243.035c.599.085 1.218.172 1.541.082.483-.139 1.134-.945 1.565-1.479 1.114-1.381 2.123-2.725 2.212-3.989.07-.989-.384-2.108-.91-3.404-.275-.679-.56-1.381-.794-2.131-.823-2.642-.857-5.56-.095-8.218.38-1.328 1.767-2.092 3.092-1.715 1.328.38 2.095 1.765 1.715 3.092-.496 1.731-.474 3.633.062 5.353.172.552.406 1.129.654 1.739.664 1.637 1.416 3.491 1.264 5.639-.209 2.935-2.075 5.246-3.31 6.775-.827 1.023-2.076 2.57-4.078 3.145-1.348.387-2.611.205-3.625.061l-.226-.032c-3.581-.497-6.909-.155-9.604.964.008.027.015.054.022.081.333 1.273-.133 2.603-1.185 3.388l-.241.18 2.971.025c1.323.013 2.486.817 2.965 2.052.202.521.262 1.066.192 1.592 2.585-.036 5.175-.105 7.735-.206 2.066-.081 4.359-.271 5.403-1.484.4-.466.691-1.158.945-2.247.441-1.899 2.099-3.231 4.099-3.187.024 0 .048.001.073.001 1.995 0 3.987-.837 5.337-2.247 1.548-1.617 2.399-4.013 3.087-6.359 2.16-7.363 2.348-12.937.594-17.54-.614-1.61-1.386-2.751-2.295-3.389-1.13-.793-1.403-2.353-.61-3.482.795-1.13 2.354-1.401 3.483-.609 1.74 1.222 3.118 3.139 4.094 5.699 2.164 5.677 2.015 12.264-.468 20.729-.867 2.954-1.984 6.019-4.274 8.41-2.155 2.251-5.262 3.635-8.418 3.776-.318 1.165-.836 2.52-1.855 3.705-2.551 2.967-6.745 3.132-8.998 3.221-3.831.15-7.726.231-11.578.24-.001-.002-.003-.002-.004-.002zm1.118-1.81c-.002.002-.005.003-.007.005.002-.002.005-.003.007-.005zm-1.871-4.962c-.001.001-.002.002-.003.003zm22.532-.382h.001s0 0-.001 0z" data-original="#000000" class="" style="fill:#000000"/><path d="m197.85 169.698c-.704 0-1.404-.296-1.898-.872-1.397-1.629-3.111-3.31-5.094-4.994-1.052-.895-1.18-2.473-.286-3.524.894-1.053 2.472-1.18 3.524-.286 2.182 1.854 4.083 3.722 5.651 5.549.899 1.048.778 2.626-.27 3.525-.472.404-1.051.602-1.627.602z" data-original="#000000" class="" style="fill:#000000"/><path d="m176.344 198.633c-1.372 0-2.588-.869-3.03-2.165-.173-.507-.213-1.034-.134-1.539l-.876-.008c-1.958-.017-3.617-1.229-4.227-3.09-.577-1.761-.053-3.609 1.334-4.796-.073-.174-.131-.356-.174-.547-.3-1.322.238-2.651 1.371-3.384 2.097-1.356 4.577-2.267 7.293-2.704-4.049-2.746-8.276-6.665-10.069-11.771-1.709-4.867-.975-9.955 2.183-15.122 2.732-4.47 6.327-7.814 10.685-9.941 1.241-.605 2.737-.091 3.343 1.151.605 1.24.09 2.737-1.151 3.343-3.487 1.701-6.384 4.411-8.611 8.055-2.37 3.877-2.936 7.429-1.731 10.858 3.047 8.675 16.204 13.517 16.336 13.564 1.02.369 1.686 1.353 1.649 2.436-.037 1.084-.768 2.021-1.81 2.319-1.349.387-2.611.205-3.626.061l-.225-.032c-3.582-.498-6.909-.155-9.603.964.008.026.015.054.022.081.333 1.273-.132 2.603-1.185 3.388l-.241.18 2.971.025c1.323.013 2.486.817 2.965 2.052.202.521.262 1.066.192 1.592 2.585-.036 5.175-.105 7.735-.206 2.066-.081 4.359-.271 5.403-1.484.4-.466.691-1.158.945-2.247.363-1.559 1.565-2.722 3.075-3.075.906-.763 3.103-2.919 3.531-6.195.456-3.485-1.137-7.377-4.732-11.568-.6-.699-.767-1.673-.433-2.532.333-.859 1.112-1.466 2.027-1.577.216-.03 5.721-.845 7.258-6.495.361-1.332 1.736-2.118 3.068-1.756s2.119 1.736 1.756 3.068c-1.397 5.139-4.858 7.707-7.618 8.971 2.962 4.329 4.179 8.566 3.619 12.632-.879 6.378-5.882 9.779-6.094 9.921-.227.151-.475.264-.735.333-.316 1.183-.834 2.569-1.876 3.781-2.551 2.967-6.745 3.132-8.998 3.221-3.831.15-7.727.231-11.578.24-.001-.002-.003-.002-.004-.002zm-3.761-14.632c.01.002.02.003.03.004-.009-.001-.019-.002-.03-.004z" data-original="#000000" class="" style="fill:#000000"/><path d="m160.136 179.424c-7.586 0-14.938-.661-21.985-1.981-.675-.126-1.269-.525-1.641-1.103s-.491-1.282-.327-1.949c.822-3.354 1.178-6.29 1.09-8.974-.024-.735.276-1.442.82-1.937.544-.492 1.278-.721 2.007-.625 9.144 1.215 19.056 1.47 29.464.764 1.235-.076 2.359.759 2.616 1.979.619 2.934 2.515 5.781 5.638 8.463.752.646 1.052 1.677.762 2.626-.289.948-1.112 1.637-2.098 1.753-5.546.656-11.004.984-16.346.984zm-18.528-6.452c9.259 1.502 19.057 1.839 29.218 1.01-1.311-1.685-2.294-3.437-2.942-5.248-8.969.508-17.577.312-25.658-.582-.093 1.536-.299 3.137-.618 4.82z" data-original="#000000" class="" style="fill:#000000"/><path d="m121.645 172.83c-.289 0-.58-.05-.861-.153-10.429-3.829-20.327-9.338-29.418-16.375-.684-.529-1.045-1.374-.957-2.234.089-.859.616-1.613 1.394-1.991 1.545-.75 2.643-1.856 3.455-3.48.328-.656.928-1.135 1.64-1.31.712-.177 1.467-.027 2.061.401 6.351 4.593 13.868 8.3 22.343 11.019 1.273.409 2 1.747 1.648 3.037-.463 1.703-.431 3.562.09 5.234.174.561.411 1.145.661 1.763l.27.674c.361.916.15 1.958-.538 2.663-.478.489-1.126.752-1.788.752zm-24.501-18.444c6.503 4.723 13.405 8.645 20.6 11.71-.146-1.101-.164-2.215-.052-3.322-7.213-2.49-13.754-5.688-19.501-9.531-.327.405-.676.786-1.047 1.143z" data-original="#000000" class="" style="fill:#000000"/><path d="m200.708 173.607c-.859 0-1.679-.444-2.14-1.207-.711-1.176-1.591-2.379-2.617-3.574-.6-.7-.767-1.673-.433-2.532s1.112-1.466 2.027-1.577c.207-.028 5.233-.772 7.025-5.756-.011-.176-.004-.354.023-.532.16-1.061.978-1.901 2.034-2.089 27.026-4.814 41.584-28.644 44.412-42.533.257-1.264 1.433-2.133 2.717-1.986 1.283.138 2.25 1.229 2.232 2.519-.14 10.377-3.44 25.915-18.368 41.007-10.845 10.965-21.469 13.99-32.718 17.194l-1.186.338c-.54.153-1.073.297-1.607.44l-.745.201c-.217.059-.437.087-.656.087zm8.465-12.667c-1.304 3.437-3.585 5.54-5.737 6.818l.098-.028c11.06-3.149 20.611-5.869 30.533-15.9 4.01-4.055 7.109-8.134 9.492-12.111-7.788 9.583-19.164 18.069-34.386 21.221z" data-original="#000000" class="" style="fill:#000000"/><path d="m221.774 120.994c-.659 0-1.292-.26-1.76-.725-2.958-2.934-3.754-3.722-4.319-5.205-.935-2.45-.097-5.24 2.136-7.107 1.423-1.188 3.887-2.181 7.533-3.032.74-.172 1.518.001 2.115.47.597.47.948 1.186.954 1.945.038 4.908-1.677 9.475-4.83 12.858-.461.495-1.103.782-1.779.795-.016.001-.033.001-.05.001zm1.298-10.214c-1.264.462-1.814.829-2.034 1.013-.467.391-.848 1.028-.672 1.489v.001c.099.259.329.562 1.151 1.411.713-1.192 1.237-2.511 1.555-3.914z" data-original="#000000" class="" style="fill:#000000"/><path d="m208.634 126.147c-2.08 0-4.264-.237-6.542-.712-.802-.167-1.472-.717-1.792-1.472s-.25-1.618.188-2.312l.445-.705c2.753-4.358 3.25-5.144 4.579-6.019 2.192-1.443 5.097-1.225 7.402.554 1.382 1.065 2.79 3.068 4.302 6.122.323.652.346 1.414.062 2.085-.285.672-.848 1.185-1.542 1.406-2.198.703-4.573 1.053-7.102 1.053zm-1.856-5.073c1.534.118 2.993.094 4.372-.077-.651-.987-1.083-1.396-1.289-1.556-.483-.374-1.188-.608-1.601-.336-.279.185-.613.624-1.482 1.969z" data-original="#000000" class="" style="fill:#000000"/><path d="m196.151 123.572c-.293 0-.588-.052-.872-.157-2.268-.843-4.505-1.802-6.669-2.729-1.906-.817-3.876-1.662-5.815-2.403-.856-.326-1.464-1.096-1.586-2.004-.121-.908.264-1.811 1.004-2.351l1.428-1.043c4.16-3.043 4.91-3.591 6.467-3.917 2.57-.539 5.19.731 6.682 3.231 1.028 1.724 1.619 4.498 1.857 8.732.047.842-.333 1.651-1.012 2.152-.436.323-.957.489-1.484.489zm-7.365-8.249c.603.256 1.202.513 1.794.767.874.374 1.759.754 2.65 1.127-.269-1.512-.572-2.185-.734-2.455-.312-.523-.875-1.009-1.364-.899-.349.072-.858.389-2.346 1.46zm1.834-3.908h.01z" data-original="#000000" class="" style="fill:#000000"/><path d="m178.99 116.877c-.226 0-.453-.03-.676-.093-.736-.207-1.4-.391-2.072-.537-3.211-.699-6.644-.948-10.498-.754-.947.033-1.853-.454-2.313-1.291-.461-.837-.405-1.863.145-2.645l.827-1.177c2.969-4.225 3.504-4.985 4.876-5.794 2.258-1.331 5.149-.973 7.364.917 1.541 1.314 3.069 3.915 4.671 7.95.351.884.17 1.89-.466 2.597-.482.534-1.161.827-1.858.827zm-8.531-6.396c1.413.066 2.783.195 4.119.388-.574-.961-.972-1.383-1.18-1.561-.464-.395-1.156-.664-1.582-.414-.265.157-.586.525-1.357 1.587z" data-original="#000000" class="" style="fill:#000000"/><path d="m145.478 118.987c-.711 0-1.399-.304-1.88-.853-.61-.697-.786-1.674-.455-2.54l.801-2.104c1.838-4.83 2.169-5.7 3.299-6.822 1.863-1.85 4.754-2.212 7.365-.928 1.803.887 3.904 3.002 6.423 6.468.514.706.621 1.629.285 2.434-.337.806-1.069 1.377-1.933 1.508-4.248.644-8.375 1.594-13.328 2.77-.191.045-.385.067-.577.067zm5.96-8.998c-.268 0-.511.067-.672.228-.265.264-.533.849-1.274 2.768 1.585-.358 3.239-.715 4.914-1.04-1.079-1.163-1.715-1.574-2.005-1.717-.297-.146-.647-.239-.963-.239z" data-original="#000000" class="" style="fill:#000000"/><path d="m124.917 122.434c-.838 0-1.624-.421-2.088-1.125-.481-.731-.545-1.66-.169-2.45l.938-1.975c2.214-4.665 2.613-5.506 3.828-6.535 2.003-1.694 4.913-1.828 7.416-.339 1.721 1.023 3.557 3.177 5.778 6.776.426.689.491 1.544.173 2.29-.317.747-.977 1.293-1.77 1.466l-.412.09c-4.823 1.034-9.398 1.64-13.6 1.8-.03.001-.062.002-.094.002zm6.31-8.447c-.221 0-.422.054-.569.178-.301.255-.632.865-1.639 2.965 1.709-.18 3.474-.431 5.287-.75-1.079-1.401-1.73-1.9-2.02-2.073-.319-.19-.714-.32-1.059-.32z" data-original="#000000" class="" style="fill:#000000"/></g> </svg>
