<svg id="Capa_1" enable-background="new 0 0 508.001 508.001" height="512" viewBox="0 0 508.001 508.001" width="512" xmlns="http://www.w3.org/2000/svg"><g><path d="m496.267 99.241-71.61 107.84c-6.68 10.05-18.26 15.73-30.3 14.85-2.65 20.51-13.47 39.07-30 51.49l-14.7 11.05c-6.95 5.22-9.73 14.33-6.89 22.54l5.1 14.72c2 5.76 4.86 11.18 8.49 16.08l16.32 22.03c3.66 4.94 8.75 8.64 14.58 10.59l22.39 7.51c10.75 3.6 8.16 19.48-3.17 19.48h-42.92c-9.42 0-18.29-4.43-23.96-11.95l-35.21-46.72c-3.38-4.48-5.79-9.55-7.15-14.89l-38.35 28.82c-14.78 11.1-30.45 20.87-46.85 29.23h-.01c-1.45 3.87-3.48 7.59-6.11 11.03l-23.61 30.87 114.64 13.79c30.3 3.65 59.38 14.13 85.03 30.68l24.56 15.83c6.69 4.32 2.13 14.68-5.58 12.66l-31.36-8.26c-22.98-6.04-46.99-6.79-70.36-2.5-43.38 7.97-87.43 11.99-131.59 11.99h-61.24c-27.13 0-53.39-9.59-74.13-27.09-14.15-11.93-22.27-29.53-22.27-48.04v-32.17c0-22.81 12.02-43.94 31.64-55.58l14.01-8.31 22.04-24.47c24.9-27.62 56.39-48.49 91.54-60.64l84.82-29.33c17.94-6.21 34.22-16.45 47.58-29.93l16.85-17.02c-.59-9.03 2.4-17.92 8.31-24.76l21.89-25.33c3.61-4.18 9.92-4.64 14.1-1.03l35.17-61.04c3.72-6.46 4.62-14.05 3.04-21.34-2.21-10.28 5.08-21.45 17.04-21.9 8.04-.3 15.75 3.27 20.72 9.63 2.74 3.5 3.39 8.21 1.85 12.38l-41.67 113.51 83.35-59.79c8.92-6.4 20.06 4.35 13.98 13.49z" fill="#e0ef9b"/><path d="m298.464 427.791c5.523 0 10 4.477 10 10s-4.477 10-10 10-10-4.477-10-10 4.478-10 10-10zm206.138-323.018-71.618 107.84c-6.952 10.468-18.042 17.297-30.222 18.995-4.595 19.742-16.107 37.57-32.396 49.811l-14.706 11.05c-3.485 2.619-4.869 7.147-3.441 11.268l5.099 14.719c1.664 4.806 4.044 9.314 7.072 13.401l16.328 22.036c2.45 3.308 5.81 5.748 9.714 7.057l22.397 7.506c9.492 3.182 14.996 12.304 13.384 22.184-1.611 9.88-9.729 16.78-19.739 16.78h-42.919c-12.487 0-24.429-5.954-31.943-15.926 0 0-36.491-47.557-38.651-51.923-20.111 14.625-37.254 30.733-73.106 49.531-1.617 3.482-3.619 6.806-5.992 9.909l-12.974 16.967 54.09 6.503c13.191 1.587 10.802 21.448-2.39 19.86l-51.901-6.245-141.333-10.519c-14.793-1.102-28.421-6.839-39.348-16.38v13.663c0 15.65 6.819 30.381 18.72 40.41 18.91 15.95 42.94 24.73 67.68 24.73h61.24c43.42 0 87.08-3.98 129.79-11.82 10.41-1.92 39.925-6.631 74.7 2.66l13.13 3.46s-23.744-16.848-46.61-24.49c-5.229-1.748-7.85-7.649-5.96-12.83 1.44-3.92 6.503-8.048 12.83-5.95 27.545 9.132 50.239 26.697 66.42 36.681 15.408 9.507 6.544 35.355-13.529 30.729l-31.37-8.26c-30.072-8.115-56.76-4.03-66-2.33-43.891 8.061-88.771 12.15-133.4 12.15h-61.24c-29.449 0-57.88-10.676-80.58-29.44-8.755-7.237-25.819-25.947-25.819-55.7v-32.159c0-23.894 11.774-49.184 36.53-64.181l12.699-7.54 21.03-23.33c21.966-25.166 56.805-50.133 95.7-63.399l84.83-29.34c16.39-5.67 31.52-15.181 43.73-27.511l13.931-14.063c.396-10.01 4.132-19.533 10.771-27.215l21.888-25.33c4.438-5.136 10.943-7.453 17.227-6.807l30.946-53.716c2.35-4.078 2.845-9.098 1.937-14.239-3.509-19.868 11.007-33.416 26.437-34.005 11.245-.429 22.056 4.612 28.973 13.462 4.801 6.143 6.089 14.568 3.364 21.991l-30.468 82.981 56.927-40.834c7.929-5.686 18.367-4.926 25.386 1.847 7.018 6.772 8.152 17.176 2.755 25.301zm-17.033-10.503-82.803 59.396c-3.568 2.559-8.388 2.49-11.883-.166-3.494-2.658-4.847-7.285-3.334-11.406l41.675-113.508c.36-.981.228-2.048-.346-2.782-2.977-3.807-7.663-6.018-12.468-5.792-5.613.263-8.565 5.667-7.634 9.802 2.237 9.937.671 20.057-4.157 28.439l-35.166 61.042c-4.237 6.658-11.349 5.787-15.203 2.574l-21.889 25.329c-4.222 4.886-6.314 11.124-5.892 17.566.195 2.973-.938 5.721-2.882 7.685.002.002.009.012.009.012l-16.86 17.01c-20.31 20.433-41.76 29.01-51.41 32.35l-84.829 29.33c-33.46 11.57-63.671 31.591-87.37 57.891l-22.051 24.46c-.68.76-1.439 1.38-2.319 1.899l-14.01 8.32c-9.98 5.925-17.668 14.859-22.188 25.242-7.537 19.055 17.633 35.539 36.28 36.669l43.065 3.205c-6.152-6.817-9.673-15.752-9.657-25.086-.011-4.94.76-16.492 11.489-26.96 4.063-3.964 10.238-3.596 14.141.279 3.61 3.585 3.969 9.995-.28 14.141-7.116 6.943-7.622 19.726 1.9 26.7 3.826 2.803 7.954 5.154 12.28 7.053l12.512-16.362c3.354-4.386 9.631-5.226 14.018-1.869 4.388 3.354 5.225 9.631 1.869 14.018l-7.404 9.682 23.058 2.772 20.145-26.343c10.471-13.692 8.775-32.792-3.942-44.428-9.296-8.503-22.854-10.963-34.545-6.26-5.122 2.06-10.947-.423-13.009-5.548-2.061-5.124.424-10.948 5.548-13.009 18.779-7.549 40.569-3.604 55.506 10.061 9.638 8.818 16.358 21.997 17.124 35.867 17.245-9.776 56.255-39.798 61.638-43.958-.42-3.561-.486-7.18-.157-10.81l1.492-16.448c.499-5.501 5.361-9.557 10.862-9.056 5.5.499 9.555 5.362 9.056 10.862l-1.492 16.448c-.719 7.928 1.524 15.795 6.314 22.151l35.214 46.721c3.757 4.986 9.728 7.963 15.971 7.963h42.919v-.001l-22.397-7.506c-7.809-2.617-14.526-7.497-19.429-14.113l-16.327-22.035c-4.24-5.722-7.571-12.035-9.901-18.763l-5.099-14.718c-4.281-12.361-.132-25.945 10.325-33.804l14.706-11.05c14.287-10.735 23.798-27.058 26.094-44.78.682-5.261 5.341-9.061 10.644-8.688 8.416.613 16.562-3.377 21.235-10.413z"/></g></svg>