<?xml version="1.0"?>
<svg xmlns="http://www.w3.org/2000/svg" viewBox="0 0 512 512" width="512px" height="512px"><g><g id="Solid"><path d="M224,56h24a8,8,0,0,1,5.657,2.343l16,16A8,8,0,0,1,272,80v8h20c4.03,0,8.028.131,12,.362v-4.48A39.738,39.738,0,0,0,292.284,55.6L272,35.314l-2.343,2.343a8,8,0,0,1-9.235,1.5L249.58,33.734l-3.923,3.923a8,8,0,0,1-9.235,1.5L225.58,33.734l-3.923,3.923a8,8,0,0,1-9.235,1.5L208,36.944V40A16.019,16.019,0,0,0,224,56Z" data-original="#000000" class="active-path" data-old_color="#000000" fill="#166D83"/><path d="M465.047,422.708a26.391,26.391,0,0,0-19.39,6.949l-16,16A8,8,0,0,1,424,448H408V432h9.452A187.991,187.991,0,0,0,480,292c0-103.663-84.336-188-188-188H216a8,8,0,0,1-5.657-2.343A46.32,46.32,0,0,0,177.373,88a52.912,52.912,0,0,0-37.658,15.6l-6.058,6.059A8,8,0,0,1,128,112H78.111a34.052,34.052,0,0,1-15.155-3.578l-5.067-2.533a17.888,17.888,0,0,0-25.889,16V136a7.994,7.994,0,0,1,3.578.845L48,143.056l12.422-6.211A7.994,7.994,0,0,1,64,136h8a7.994,7.994,0,0,1,3.578.845L88,143.056l12.422-6.211A7.994,7.994,0,0,1,104,136h8a7.994,7.994,0,0,1,3.578.845L128,143.056l12.422-6.211A7.994,7.994,0,0,1,144,136h32.539c9.171,0,18.07-.215,26.538,4.085A38.181,38.181,0,0,1,224,173.666v4.668A37.708,37.708,0,0,1,186.334,216H129.888l36.176,18.088A56.285,56.285,0,0,0,191.108,240H240v16a8,8,0,0,1-2.343,5.657l-16,16A8,8,0,0,1,216,280H192a16.019,16.019,0,0,0-16,16v3.056l4.422-2.211a8,8,0,0,1,9.235,1.5l3.923,3.923,10.842-5.421a8,8,0,0,1,9.235,1.5l3.923,3.923,10.842-5.421a8,8,0,0,1,9.235,1.5L240,300.686,260.284,280.4A39.738,39.738,0,0,0,272,252.118V224h16v23.757a83.088,83.088,0,0,1-17.965,156.622L108.162,438.458c9.43-.489,18.8-1.089,27.893-1.8l1.251,15.951c-10.49.823-21.329,1.507-32.217,2.033l-.742-15.378-31.71,6.675.2,9.809c-8.23.169-16.587.255-24.839.255v-.577A41.637,41.637,0,0,0,32.791,480H38.7l-.113-8.105c9.994-.14,20.711-.416,31.854-.821L70.767,480h32.1l-.564-10.378c10.52-.572,21.232-1.243,31.839-2L135.021,480h32.231l-1.311-14.9c10.775-.948,21.459-1.986,31.757-3.086l1.7,15.909c-6.753.722-13.68,1.413-20.679,2.074H292a187.037,187.037,0,0,0,62.727-10.727l10.93-10.93,9.941,9.941A39.738,39.738,0,0,0,403.882,480H432v-8a8,8,0,0,1,8-8h8v-8a8,8,0,0,1,8-8h8v-8a8,8,0,0,1,8-8h5.667l-.707-2.73A16.559,16.559,0,0,0,465.047,422.708ZM184,120H168V104h16Zm88,64H240V168h32Zm0-40H240V128h32ZM169.467,449.546l-1.793-15.9c10.756-1.212,21.334-2.611,31.441-4.157l2.42,15.816C191.221,446.883,180.432,448.31,169.467,449.546Zm61.9,24.621L229.319,458.3c10.972-1.417,21.567-2.929,31.489-4.5l2.494,15.805C253.232,471.2,242.488,472.731,231.368,474.167Zm2.081-34.5-3.17-15.683c10.673-2.158,21.013-4.555,30.732-7.127l4.092,15.468C255.08,434.977,244.43,437.447,233.449,439.667Zm57.608-31.943a304.694,304.694,0,0,0,28.912-11.675l6.788,14.489a320.433,320.433,0,0,1-30.438,12.3Zm4.1,56.255-3.116-15.694c11.271-2.237,21.609-4.6,30.729-7.03l4.116,15.462C317.438,459.232,306.763,461.675,295.159,463.979ZM446.072,348.792l-15.047-5.438a151.522,151.522,0,0,0,7.421-29.417l15.83,2.325A167.581,167.581,0,0,1,446.072,348.792Zm9.627-66.085-15.971.962a148.889,148.889,0,0,0-4.888-29.9l15.444-4.183A164.929,164.929,0,0,1,455.7,282.707Zm-35.641-92.682a165.235,165.235,0,0,1,18.169,28.22l-14.266,7.245a149.215,149.215,0,0,0-16.406-25.481Zm-4.324,89.6L399.8,281.052a108.482,108.482,0,0,0-6.7-28.941l14.952-5.694A124.5,124.5,0,0,1,415.734,279.626ZM368.72,147.318a165.393,165.393,0,0,1,27.849,18.739l-10.234,12.3a149.386,149.386,0,0,0-25.149-16.923Zm-.848,44.793a121.583,121.583,0,0,1,23.874,24.4L378.864,226a105.611,105.611,0,0,0-20.729-21.193Zm-63.25-63.575a164.6,164.6,0,0,1,33.011,6.087l-4.5,15.355a148.636,148.636,0,0,0-29.8-5.494Zm27.711,61.924a101.821,101.821,0,0,0-28.888-6.211l1.086-15.963a117.78,117.78,0,0,1,33.424,7.194Zm38.079,171.6,11.4,11.226a161.091,161.091,0,0,1-26.079,21.179l-8.812-13.355A145.137,145.137,0,0,0,370.412,362.058Zm1.879,77.226a104.109,104.109,0,0,1-13.941,7.037l-6.234-14.736a88.163,88.163,0,0,0,11.777-5.92,161.362,161.362,0,0,0,13.778-9.524l9.771,12.671A177.618,177.618,0,0,1,372.291,439.284ZM398.205,310.59l15.681,3.175a115.455,115.455,0,0,1-11.7,32.186l-14.063-7.631A99.474,99.474,0,0,0,398.205,310.59Zm1.74,84.778a163.031,163.031,0,0,0,18.024-24.548l13.729,8.217A179.094,179.094,0,0,1,411.9,406Z" data-original="#000000" class="active-path" data-old_color="#000000" fill="#166D83"/><path d="M48,200H186.334A21.69,21.69,0,0,0,208,178.334v-4.668A21.69,21.69,0,0,0,186.334,152c-.2,0-.4.015-.6.021-.036,0-.071.008-.107.009a21.641,21.641,0,0,0-17.952,10.634q-.376.641-.714,1.313l-7.8,15.6A8,8,0,0,1,152,184H32A16.019,16.019,0,0,0,48,200Z" data-original="#000000" class="active-path" data-old_color="#000000" fill="#166D83"/><path d="M248,336v8a8,8,0,0,1-8,8h-8v8a8,8,0,0,1-8,8h-8v31.4l32-6.737V376a8,8,0,0,1,2.343-5.657l16-16a26.4,26.4,0,0,0,6.949-19.39,16.559,16.559,0,0,0-6.562-11.913l-2.73-.707V328a8,8,0,0,1-8,8Z" data-original="#000000" class="active-path" data-old_color="#000000" fill="#166D83"/></g></g> </svg>
