<?xml version="1.0"?>
<svg xmlns="http://www.w3.org/2000/svg" id="Capa_1" enable-background="new 0 0 64 64" height="512px" viewBox="0 0 64 64" width="512px" class=""><g><path d="m55 13v32c0 2.209-1.791 4-4 4h-30l-12 12v-12h-2c-2.209 0-4-1.791-4-4v-32c0-2.209 1.791-4 4-4h44c2.209 0 4 1.791 4 4z" fill="#00eed1" data-original="#00EED1" class="active-path" style="fill:#0A8955" data-old_color="#00eed1"/><path d="m55 13v32c0 2.209-1.791 4-4 4h-4c2.209 0 4-1.791 4-4v-32c0-2.209-1.791-4-4-4h4c2.209 0 4 1.791 4 4z" fill="#00ddc2" data-original="#00DDC2" class="" style="fill:#0A7A4A" data-old_color="#00ddc2"/><path d="m59.46 7.63-5 8.66-6.92-4 5-8.66c.549-.958 1.772-1.29 2.73-.74l3.46 2c.957.551 1.286 1.774.735 2.731-.002.003-.003.006-.005.009z" fill="#c6c5ca" data-original="#C6C5CA" class="" style="fill:#69E781" data-old_color="#c6c5ca"/><path d="m34.499 19.817h21.998v7.993h-21.998z" fill="#ffeb99" transform="matrix(.5 -.866 .866 .5 2.126 51.309)" data-original="#FFEB99" class="" style="fill:#69E781" data-old_color="#ffeb99"/><path d="m43.46 35.34-8.46 6.66 1.54-10.66z" fill="#c6c5ca" data-original="#C6C5CA" class="" style="fill:#69E781" data-old_color="#c6c5ca"/><path d="m59.46 7.63-4.46 7.72-.54.94-3-1.73 4-6.93c.556-.954.233-2.179-.721-2.735-.003-.002-.006-.003-.009-.005l-2.19-1.26c.549-.958 1.772-1.29 2.73-.74l3.46 2c.957.551 1.286 1.774.735 2.731-.002.003-.003.006-.005.009z" fill="#acabb1" data-original="#ACABB1" class="" style="fill:#69E781" data-old_color="#acabb1"/><path d="m36.46 23.218h21.998v3.463h-21.998z" fill="#ffde55" transform="matrix(.5 -.866 .866 .5 2.121 53.574)" data-original="#FFDE55" class="" style="fill:#69E781" data-old_color="#ffde55"/><path d="m43.46 35.34-8.46 6.66.51-3.55 3.95-3.11 1-1.73z" fill="#acabb1" data-original="#ACABB1" class="" style="fill:#69E781" data-old_color="#acabb1"/><g id="Feedback_1_"><path d="m62.59 10.45c-.198-.77-.699-1.426-1.39-1.82l-.87-.5c.829-1.435.338-3.27-1.097-4.098-.001-.001-.002-.001-.003-.002l-3.46-2c-1.435-.829-3.27-.338-4.098 1.097-.001.001-.001.002-.002.003l-2.81 4.87h-41.86c-2.761 0-5 2.239-5 5v32c0 2.761 2.239 5 5 5h1v11c-.002.405.244.769.62.92.119.056.249.083.38.08.266.001.521-.103.71-.29l11.7-11.71h29.59c2.761 0 5-2.239 5-5v-29.37l3.33-5.77.87.5c.229.133.395.353.46.61.071.241.042.5-.08.72l-3.5 5.53 1.69 1.07 3.52-5.56c.4-.689.508-1.51.3-2.28zm-9.49 6.2-10 17.32-5.2-3 10-17.32zm-11.42 18.82-5.33 4.2.97-6.73zm12.32 9.53c-.005 1.655-1.345 2.995-3 3h-30c-.265.002-.519.106-.71.29l-10.29 10.3v-9.59c0-.552-.448-1-1-1h-2c-1.655-.005-2.995-1.345-3-3v-32c.005-1.655 1.345-2.995 3-3h40.7l-12.03 20.84c-.064.111-.104.233-.12.36l-1.54 10.66c-.081.546.297 1.055.843 1.135.273.04.55-.034.767-.205l8.45-6.66s.199-.179.26-.29l9.67-16.75zm4.6-37.87-4.5 7.79-5.2-3 4.5-7.79c.135-.23.353-.398.61-.47.257-.068.53-.032.76.1l3.46 2c.48.274.647.884.373 1.364-.001.002-.002.004-.003.006z" data-original="#000000" class="" style="fill:#000000" data-old_color="#000000"/><path d="m8 28h24v2h-24z" data-original="#000000" class="" style="fill:#000000" data-old_color="#000000"/><path d="m8 14h34v2h-34z" data-original="#000000" class="" style="fill:#000000" data-old_color="#000000"/><path d="m8 32h24v2h-24z" data-original="#000000" class="" style="fill:#000000" data-old_color="#000000"/><path d="m8 36h24v2h-24z" data-original="#000000" class="" style="fill:#000000" data-old_color="#000000"/><path d="m8 40h24v2h-24z" data-original="#000000" class="" style="fill:#000000" data-old_color="#000000"/><path d="m8 44h22v2h-22z" data-original="#000000" class="" style="fill:#000000" data-old_color="#000000"/><path d="m32 44h2v2h-2z" data-original="#000000" class="" style="fill:#000000" data-old_color="#000000"/></g></g> </svg>
