<svg id="Capa_1" enable-background="new 0 0 512 512" height="512" viewBox="0 0 512 512" width="512" xmlns="http://www.w3.org/2000/svg"><g><path d="m97.852 103.656c5.171 2.93 8.115 8.643 7.515 14.561-.367 19.321 13.095 32.783 29.633 32.783s30-13.462 30-30c-.601-5.918 1.978-14.414 7.148-17.344 4.922-2.798 7.852-7.529 7.852-12.656 0-13.403-20.332-20.039-27.656-7.148-5.726 10.076-28.819 10.318-34.688 0-2.798-4.922-7.529-7.852-12.656-7.852-8.276 0-15 6.724-15 15 0 5.127 2.93 9.858 7.852 12.656z"/><path d="m31.274 118.642c6.31 51.956 50.067 92.358 103.726 92.358s97.416-40.402 103.726-92.358c18.096-5.83 31.274-22.608 31.274-42.642 0-24.853-20.147-45-45-45-5.026 0-9.772 1.014-14.286 2.534-19.114-19.967-45.89-33.534-75.714-33.534s-56.6 13.567-75.714 33.534c-4.514-1.52-9.26-2.534-14.286-2.534-24.853 0-45 20.147-45 45 0 20.034 13.178 36.812 31.274 42.642zm73.726-72.642c11.338 0 21.885 4.292 30 11.895 8.115-7.603 18.662-11.895 30-11.895 24.814 0 45 20.186 45 45 0 12.832-5.508 24.668-15.073 33.091-1.612 31.655-27.876 56.909-59.927 56.909s-58.315-25.254-59.927-56.909c-9.565-8.423-15.073-20.259-15.073-33.091 0-24.814 20.186-45 45-45z"/><path d="m287.289 512h104.711c49.629 0 90-41.371 90-91v-120c0-11.147 6.152-21.328 16.055-26.543 8.599-4.556 13.945-14.224 13.945-25.269 0-10.752-5.815-20.845-15.22-26.367-8.824-5.22-19.341-5.544-28.345-.557-28.637 15.909-46.435 46.07-46.435 78.736v120c0 16.538-13.462 30-30 30h-40.331c-17.005 24.183-38.892 45.713-64.38 61z"/><path d="m30 331h61.551c15.344-15.011 35.208-25.422 57.043-28.74 8.247-1.274 15.835 4.38 17.08 12.568s-4.38 15.835-12.568 17.08c-30.35 4.618-56.741 30.692-61.934 60.557-1.692 9.752-.958 19.243.954 28.535h-.943c.059.416.027.844.092 1.26-34.82 6.46-61.275 38.075-61.275 74.74 0 8.291 6.709 15 15 15h145.137c80.739 0 169.863-76.728 169.863-181 0-70.415-42.246-134.507-105.797-163.467-22.512 43.804-67.651 73.467-119.203 73.467-5.103 0-10.032-.721-15-1.284v16.284c0 8.276-6.724 15-15 15h-75c-16.569 0-30 13.431-30 30s13.431 30 30 30z"/></g></svg>