<?xml version="1.0" encoding="iso-8859-1"?>
<!-- Generator: Adobe Illustrator 19.0.0, SVG Export Plug-In . SVG Version: 6.00 Build 0)  -->
<svg version="1.1" id="Capa_1" xmlns="http://www.w3.org/2000/svg" xmlns:xlink="http://www.w3.org/1999/xlink" x="0px" y="0px"
	 viewBox="0 0 512.001 512.001" style="enable-background:new 0 0 512.001 512.001;" xml:space="preserve">
<path style="fill:#455058;" d="M209.95,405.082h126.347c21.942,0,42.572-8.545,58.088-24.06
	c23.367-23.368,42.962-37.853,78.825-37.853h31.29v47.089h-31.29c-18.277,0-26.866,5.397-45.529,24.06
	c-24.411,24.41-56.865,37.853-91.384,37.853H209.95V405.082z"/>
<path style="fill:#3C464D;" d="M388.639,386.247c-14.696,12.193-33.007,18.835-52.342,18.835H209.95v47.088h106.451
	c17.044-9.831,32.911-21.958,47.197-36.244C372.864,406.661,381.224,396.731,388.639,386.247z"/>
<circle style="fill:#BAB8B9;" cx="203.67" cy="256" r="196.17"/>
<path style="fill:#9E9C9D;" d="M233.671,442.171C125.329,442.171,37.5,354.342,37.5,246c0-81.039,49.142-150.594,119.249-180.508
	C71.069,86.524,7.501,163.832,7.501,256c0,108.342,87.829,196.171,196.171,196.171c27.304,0,53.301-5.584,76.921-15.663
	C265.557,440.199,249.846,442.171,233.671,442.171z"/>
<g>
	<circle style="fill:#EFEDEE;" cx="310.54" cy="222.45" r="48.22"/>
	<circle style="fill:#EFEDEE;" cx="271.43" cy="344.97" r="48.22"/>
	<circle style="fill:#EFEDEE;" cx="135.92" cy="344.97" r="48.22"/>
	<circle style="fill:#EFEDEE;" cx="96.8" cy="222.45" r="48.22"/>
	<circle style="fill:#EFEDEE;" cx="203.67" cy="144.16" r="48.22"/>
	<circle style="fill:#EFEDEE;" cx="203.67" cy="256" r="28.19"/>
</g>
<g>
	<path style="fill:#455058;" d="M263.559,233.308c5.557,24.051,28.211,39.692,52.156,37.079c0.599-4.711,0.908-9.513,0.908-14.387
		c0-29.189-11.073-55.791-29.246-75.837C268.891,190.277,258.583,211.769,263.559,233.308z"/>
	<path style="fill:#455058;" d="M303.467,308.936c-16.887-15.046-42.588-16.542-61.255-2.327
		c-18.668,14.216-24.059,39.391-14.044,59.67C260.833,359.056,288.181,337.693,303.467,308.936z"/>
	<path style="fill:#455058;" d="M165.131,306.61c-18.667-14.216-44.369-12.719-61.255,2.327c15.286,28.757,42.634,50.12,75.3,57.344
		C189.19,346,183.799,320.826,165.131,306.61z"/>
	<path style="fill:#455058;" d="M119.966,180.163C101.793,200.209,90.72,226.811,90.72,256c0,4.874,0.309,9.676,0.908,14.387
		c23.945,2.613,46.599-13.028,52.156-37.079C148.76,211.769,138.451,190.277,119.966,180.163z"/>
	<path style="fill:#455058;" d="M203.671,143.048c-16.9,0-32.929,3.718-47.325,10.371c4.317,22.203,23.859,38.967,47.325,38.967
		s43.008-16.764,47.325-38.967C236.601,146.766,220.571,143.048,203.671,143.048z"/>
</g>
<path d="M239.357,256c0-19.677-16.009-35.686-35.687-35.686c-19.677,0-35.686,16.009-35.686,35.686s16.009,35.686,35.686,35.686
	C223.348,291.686,239.357,275.677,239.357,256z M182.985,256c0-11.406,9.279-20.686,20.686-20.686s20.687,9.28,20.687,20.686
	c0,11.407-9.28,20.686-20.687,20.686S182.985,267.407,182.985,256z"/>
<path d="M364.834,209.909c-5.875-25.429-28.183-43.188-54.249-43.188c-19.102,0-37.188,10.02-47.303,26.212
	c-8.638,13.829-10.741,31.232-5.74,46.739c8.729,27.067,37.87,43.466,65.544,37.073
	C353.023,269.828,371.751,239.846,364.834,209.909z M308.884,263.14c-8.023-0.311-15.503-2.927-21.739-7.29
	c-22.241-15.56-22.765-49.457-1.215-65.835c15,18.675,23.193,41.87,23.193,65.985C309.123,258.378,309.043,260.765,308.884,263.14z
	 M324.013,260.877c0.065-1.626,0.11-3.253,0.11-4.877c0-26.441-8.629-51.911-24.476-72.78c0.572-0.158,1.147-0.31,1.729-0.444
	c3.032-0.701,6.131-1.056,9.21-1.056c19.042,0,35.34,12.98,39.634,31.565C354.933,233.69,343.343,254.117,324.013,260.877z"/>
<path d="M215.827,341.492c-0.003,0.048-0.006,0.095-0.009,0.143c-0.821,13.33,3.104,26.366,11.277,37.099
	c10.629,13.958,26.8,21.964,44.371,21.966c27.548,0.003,51.489-21.001,55.178-48.249c4.044-29.867-17.365-58.343-47.201-62.608
	c-0.219-0.031-0.437-0.065-0.656-0.094C247.208,285.528,217.863,309.755,215.827,341.492z M230.902,341.98
	c0.926-11.394,6.569-22.341,15.853-29.404c13.54-10.301,32.74-10.998,46.967-1.684c-13.84,22.693-35.609,39.275-61.077,46.524
	C231.03,352.392,230.483,347.14,230.902,341.98z M311.78,350.437c-2.697,19.915-20.21,35.262-40.317,35.262
	c-12.321-0.001-23.69-5.397-31.454-14.84c26.628-8.399,49.478-25.806,64.719-49.306C310.664,329.976,313.17,340.17,311.78,350.437z"
	/>
<path d="M102.157,389.305c9.788,7.454,21.449,11.394,33.723,11.394c31.623,0,57.596-27.467,55.643-59.076
	c-0.002-0.04-0.005-0.08-0.007-0.12c-1.164-18.312-11.695-35.397-27.535-44.678c-10.822-6.34-23.685-8.755-36.082-6.982
	c-14.391,2.057-27.333,9.579-36.314,21.373C72.969,335.66,77.712,370.69,102.157,389.305z M129.89,304.708
	c0.091-0.013,0.182-0.027,0.274-0.04c24.519-3.392,47.361,17.186,46.441,41.887c-0.002,0.04-0.003,0.08-0.004,0.12
	c-0.146,3.607-0.772,7.22-1.905,10.742c-25.468-7.249-47.237-23.831-61.076-46.524C118.523,307.683,124.071,305.577,129.89,304.708z
	 M102.615,321.554c15.241,23.499,38.09,40.905,64.718,49.305c-7.764,9.444-19.133,14.84-31.453,14.84
	c-8.963,0-17.482-2.88-24.635-8.327C93.792,364.081,90.091,339.344,102.615,321.554z"/>
<path d="M143.141,191.697c-10.113-15.354-27.905-24.976-46.385-24.976c-26.066,0-48.374,17.76-54.249,43.188
	c-3.351,14.502-0.854,29.44,7.031,42.064c10.091,16.155,28.263,26.21,47.308,26.212c24.462,0,45.616-15.649,52.979-38.598
	C154.965,223.567,152.386,205.732,143.141,191.697z M137.458,224.539c-1.049,20.766-18.226,37.798-39.001,38.602
	c-0.159-2.376-0.238-4.762-0.238-7.141c0-24.113,8.191-47.303,23.186-65.977c0.183,0.139,0.367,0.276,0.547,0.417
	C132.164,198.466,138.113,211.569,137.458,224.539z M62.261,244.026c-5.763-9.225-7.588-20.142-5.139-30.741
	c4.293-18.585,20.592-31.565,39.633-31.565c3.693,0,7.379,0.515,10.937,1.501C91.848,204.09,83.219,229.559,83.219,256
	c0,1.625,0.044,3.252,0.109,4.879C74.604,257.839,67.226,251.974,62.261,244.026z"/>
<path d="M149.03,154.964c1.981,9.867,6.624,19.19,13.414,26.65c10.456,11.487,25.682,18.273,41.227,18.273
	c14.655,0,29.019-5.996,39.388-16.343c10.361-10.34,16.334-24.741,16.334-39.378c0-30.725-24.997-55.722-55.722-55.722
	s-55.722,24.997-55.722,55.722C147.949,147.794,148.317,151.414,149.03,154.964z M241.168,160.043
	c-10.065,23.68-40.896,32.202-61.66,16.876c-5.844-4.314-10.497-10.196-13.337-16.881c-0.011-0.027-0.023-0.055-0.035-0.082
	c-0.048-0.112-0.889-2.186-0.847-2.202c12.206-4.784,25.088-7.206,38.381-7.206s26.176,2.421,38.382,7.206
	C242.062,157.758,241.182,160.011,241.168,160.043z M203.67,103.443c21.931,0,39.858,17.428,40.683,39.16
	c-13.005-4.681-26.644-7.055-40.683-7.055c-14.038,0-27.677,2.374-40.682,7.055C163.813,120.871,181.74,103.443,203.67,103.443z"/>
<path d="M203.671,459.671c1.776,0,3.547-0.024,5.313-0.069c0.317,0.041,0.638,0.069,0.966,0.069h126.347
	c36.523,0,70.861-14.223,96.688-40.05c18.184-18.185,24.951-21.863,40.226-21.863h31.29c4.142,0,7.5-3.358,7.5-7.5V343.17
	c0-4.142-3.358-7.5-7.5-7.5h-31.29c-13.571,0-25.497,1.974-36.46,6.034c-3.884,1.438-5.867,5.754-4.428,9.638
	c1.439,3.885,5.753,5.867,9.638,4.429c9.267-3.432,19.489-5.101,31.25-5.101H497v32.088h-23.79c-10.714,0-18.552,1.778-26.206,5.944
	c-7.884,4.291-15.268,10.954-24.627,20.313c-22.994,22.994-53.565,35.657-86.081,35.657h-55.942
	c5.701-2.325,11.301-4.909,16.767-7.742c13.056-6.734,25.41-14.88,36.785-24.346h2.39c23.945,0,46.458-9.325,63.391-26.257
	c6.824-6.824,12.412-11.933,17.587-16.08c3.232-2.591,3.753-7.311,1.163-10.543s-7.311-3.753-10.543-1.163
	c-5.614,4.499-11.592,9.957-18.813,17.179c-10.467,10.467-23.497,17.433-37.672,20.333c34.646-36.53,55.933-85.85,55.933-140.051
	c0-60.951-26.975-118.201-74.007-157.069c-3.193-2.639-7.92-2.189-10.559,1.003s-2.189,7.92,1.003,10.559
	c43.573,36.009,68.563,89.044,68.563,145.507c0,73.021-41.699,136.482-102.533,167.832c-24.704,12.662-52.109,19.85-80.077,20.732
	c-2.013,0.064-4.032,0.107-6.061,0.107C99.637,444.671,15,360.034,15,256S99.637,67.329,203.671,67.329
	c33.892,0,67.139,9.1,96.146,26.317c3.563,2.115,8.164,0.941,10.278-2.621c2.114-3.562,0.941-8.164-2.621-10.277
	C276.151,62.156,240.257,52.33,203.672,52.33C91.367,52.329,0,143.695,0,256C0,368.304,91.367,459.671,203.671,459.671z"/>
<g>
</g>
<g>
</g>
<g>
</g>
<g>
</g>
<g>
</g>
<g>
</g>
<g>
</g>
<g>
</g>
<g>
</g>
<g>
</g>
<g>
</g>
<g>
</g>
<g>
</g>
<g>
</g>
<g>
</g>
</svg>
