<?xml version="1.0" encoding="iso-8859-1"?>
<!-- Generator: Adobe Illustrator 19.0.0, SVG Export Plug-In . SVG Version: 6.00 Build 0)  -->
<svg version="1.1" id="Capa_1" xmlns="http://www.w3.org/2000/svg" xmlns:xlink="http://www.w3.org/1999/xlink" x="0px" y="0px"
	 viewBox="0 0 512 512" style="enable-background:new 0 0 512 512;" xml:space="preserve">
<path style="fill:#995231;" d="M444.581,0H67.419c-8.284,0-15,6.716-15,15v482c0,8.284,6.716,15,15,15h377.162
	c8.284,0,15-6.716,15-15V15C459.581,6.716,452.865,0,444.581,0z"/>
<path style="fill:#C77D3C;" d="M248.529,0H67.419c-8.284,0-15,6.716-15,15v482c0,8.284,6.716,15,15,15h181.11L248.529,0L248.529,0z"
	/>
<path style="fill:#F0B400;" d="M391.834,56.169H120.166c-5.522,0-10,4.477-10,10v379.662c0,5.523,4.478,10,10,10h271.668
	c5.522,0,10-4.477,10-10V66.169C401.834,60.646,397.356,56.169,391.834,56.169z"/>
<path style="fill:#FFD23D;" d="M248.529,56.169H120.166c-5.522,0-10,4.477-10,10v379.662c0,5.523,4.478,10,10,10h128.363V56.169z"/>
<path style="fill:#AEE3E8;" d="M401.834,233.447V66.169c0-5.523-4.478-10-10-10H120.166c-5.522,0-10,4.477-10,10v167.278
	L401.834,233.447L401.834,233.447z"/>
<path style="fill:#DBF9FF;" d="M248.529,56.169H120.166c-5.522,0-10,4.477-10,10v167.278h138.363V56.169z"/>
<path style="fill:#141F24;" d="M328.376,245.73L328.376,245.73L328.376,245.73c-4.464-23.275-8.929-46.551-13.393-69.826
	c-2.714-14.148-5.313-28.476-10.122-41.355l0,0l0,0c-6.685-17.902-17.648-33-39.199-40.877c-23.605-8.629-52.382-2.06-68.863,16.915
	c-8.607,9.909-13.673,22.386-17.549,34.926c-10.432,33.755-17.519,125.401-17.519,125.401c-9.609,0.687-19.018,2.177-27.925,8.042
	c-14.623,9.628-23.64,26.285-23.64,43.797c0,2.215,0,123.079,0,123.079c0,5.523,4.478,10,10,10h271.668c5.522,0,10-4.477,10-10
	V315.408L328.376,245.73z"/>
<path style="fill:#295561;" d="M248.529,90.079c-19.223-1.299-39.092,5.956-51.73,20.507c-8.607,9.909-13.673,22.386-17.549,34.926
	c-10.432,33.755-17.519,125.401-17.519,125.401c-9.609,0.687-19.018,2.177-27.925,8.042c-14.623,9.628-23.64,26.285-23.64,43.797
	c0,2.215,0,123.079,0,123.079c0,5.523,4.478,10,10,10h128.363L248.529,90.079z"/>
<path style="fill:#FF9B30;" d="M400.958,308.018c-2.257-5.04-8.171-7.298-13.214-5.039c-34.12,15.282-63.904,39.25-86.133,69.314
	l-17.346,23.461c-3.283,4.441-2.345,10.703,2.096,13.986c1.789,1.322,3.872,1.959,5.938,1.959c3.063,0,6.088-1.403,8.049-4.056
	l17.346-23.46c7.527-10.181,16.011-19.589,25.295-28.109l0.686-0.618c15.453-14.049,33.094-25.647,52.246-34.225
	C400.96,318.975,403.216,313.058,400.958,308.018z"/>
<path style="fill:#FFD23D;" d="M289.829,258.822c0,0-1.39-41.275-1.5-44.311c-0.913-25.297-1.351-52.272-13.338-75.227
	c-7.133-13.659-18.838-25.454-33.54-30.069c-21.799-6.843-43.355,5.395-52.482,25.51c-6.152,13.56-7.603,29.981-4.088,46.239
	s11.623,30.613,22.828,40.419c5.143,4.501,10.675,7.826,16.387,9.935c-1.277,6.303-5.034,11.941-10.585,15.524
	c-0.07,0.045-0.14,0.09-0.21,0.135c-15.968,10.233-28.662,24.833-36.079,42.288l-3.184,7.495l28.19,31.628l62.569,10.314
	l28.811-18.376L289.829,258.822z"/>
<path style="fill:#FFE280;" d="M248.529,112.087c-2.271-1.14-4.633-2.106-7.077-2.873c-21.799-6.843-43.355,5.395-52.482,25.51
	c-6.152,13.56-7.603,29.981-4.088,46.239s11.623,30.613,22.828,40.419c5.143,4.501,10.675,7.826,16.387,9.935
	c-1.277,6.303-5.034,11.941-10.585,15.524c-0.07,0.045-0.14,0.09-0.21,0.135c-15.968,10.233-28.662,24.833-36.079,42.288
	l-3.184,7.495l28.19,31.628l42.298,6.972l4.001,0.66L248.529,112.087L248.529,112.087z"/>
<path style="fill:#C77D3C;" d="M266.013,329.377c-47.004,1.96-69.165-17.135-79.017-31.094l-1.092-1.918
	c-2.178-3.824-7.825-3.378-9.376,0.74l-1.462,3.881c-2.424,6.436-0.952,13.7,3.816,18.657c0.63,0.655,1.281,1.311,1.953,1.964
	c13.309,12.956,37.576,27.907,78.678,27.907c2.26,0,4.572-0.045,6.935-0.139c5.358-0.212,9.877-4.429,9.98-9.791
	C276.54,333.766,271.792,329.135,266.013,329.377z"/>
<g>
	<path style="fill:#FF9B30;" d="M192.33,276.323c-3.847-4.325-10.467-4.715-14.793-0.87c-15.205,13.515-22.82,33.641-20.371,53.836
		l0.777,6.404c0.697,5.745,5.919,9.837,11.663,9.141c5.744-0.697,9.837-5.918,9.141-11.663l-0.777-6.404
		c-1.622-13.373,3.421-26.7,13.489-35.651C195.785,287.271,196.175,280.648,192.33,276.323z"/>
	<path style="fill:#FF9B30;" d="M185.028,367.229c-1.92-5.46-7.906-8.332-13.359-6.413c-5.459,1.918-8.331,7.898-6.414,13.359
		l2.62,7.458c1.66,4.725,6.364,7.512,11.138,6.933c0.743-0.09,1.487-0.261,2.221-0.519c5.459-1.918,8.331-7.898,6.414-13.359
		L185.028,367.229z"/>
</g>
<path style="fill:#FFD23D;" d="M312.724,421.409c-8.549-15.551-24.875-25.699-42.602-26.489l-48.895-2.176
	c-5.517-0.245-10.189,4.028-10.435,9.546s4.029,10.189,9.546,10.435l48.895,2.176c10.804,0.48,20.755,6.667,25.966,16.145
	c1.364,2.48,3.625,4.153,6.157,4.837c2.41,0.651,5.064,0.406,7.424-0.892C313.619,432.329,315.385,426.249,312.724,421.409z"/>
<path style="fill:#FFE280;" d="M248.534,393.96l-27.306-1.215c-5.517-0.245-10.189,4.028-10.435,9.546
	c-0.246,5.518,4.029,10.189,9.546,10.435l28.194,1.255L248.534,393.96z"/>
<path style="fill:#FF9B30;" d="M363.18,271.179c-2.257-5.04-8.171-7.298-13.214-5.039c-34.12,15.282-63.904,39.25-86.133,69.314
	l-17.346,23.461c-3.283,4.441-2.345,10.703,2.096,13.986c1.789,1.322,3.872,1.959,5.938,1.959c3.063,0,6.088-1.403,8.049-4.056
	l17.346-23.46c7.527-10.181,16.011-19.589,25.295-28.109l0.686-0.618c15.453-14.049,33.094-25.647,52.246-34.225
	C363.182,282.136,365.438,276.219,363.18,271.179z"/>
<g>
</g>
<g>
</g>
<g>
</g>
<g>
</g>
<g>
</g>
<g>
</g>
<g>
</g>
<g>
</g>
<g>
</g>
<g>
</g>
<g>
</g>
<g>
</g>
<g>
</g>
<g>
</g>
<g>
</g>
</svg>
