<svg id="Capa_1" enable-background="new 0 0 512.004 512.004" height="512" viewBox="0 0 512.004 512.004" width="512" xmlns="http://www.w3.org/2000/svg"><g><path d="m512.002 270.004v227c0 8.28-6.72 15-15 15h-482c-8.28 0-15-6.72-15-15v-227z" fill="#474f54"/><path d="m512.002 270.004v227c0 8.28-6.72 15-15 15h-241v-242z" fill="#32393f"/><path d="m315.222 358.614-31.63-4.59-14.14-28.66c-2.75-5.56-8.1-8.35-13.45-8.35s-10.7 2.79-13.45 8.35l-14.14 28.66-31.63 4.59c-12.29 1.79-17.2 16.93-8.31 25.59l22.88 22.31-5.4 31.49c-2.1 12.24 10.78 21.59 21.76 15.82l28.29-14.87 28.29 14.87c10.93 5.74 23.87-3.54 21.76-15.82l-5.4-31.49 22.88-22.31c8.89-8.67 3.97-23.8-8.31-25.59z" fill="#fed843"/><path d="m323.532 384.204-22.88 22.31 5.4 31.49c2.11 12.28-10.83 21.56-21.76 15.82l-28.29-14.87v-121.94c5.35 0 10.7 2.79 13.45 8.35l14.14 28.66 31.63 4.59c12.28 1.79 17.2 16.92 8.31 25.59z" fill="#ffb64c"/><path d="m312.574 41.144-45.595 54.252-16.901 56.627 115.584-32.255 44.285-53.368 18.211-57.512z" fill="#32393f"/><g><path d="m15.002 124.185v93.439c23.083-6.442 68.696-19.17 113.651-31.716 6.048-8.942 9.928-14.678 9.928-14.678l34.217-50.59 9.744-43.209z" fill="#474f54"/></g><path d="m182.542 77.431-62.496 110.879 130.032-36.287 62.496-110.879z" fill="#efe2dd"/><path d="m225.886 65.335 24.192 86.688 62.496-110.879z" fill="#e1d3ce"/><path d="m476.497 10.972c-2.227-7.979-10.5-12.643-18.48-10.416l-29.859 8.333-62.496 110.879 116.547-32.524c7.979-2.227 12.643-10.5 10.416-18.48z" fill="#e1d3ce"/><path d="m45.5 180.004 19.362 23.36 78.584 55.17 46.556-39.53 21-39z" fill="#575f64"/><path d="m346.002 180.004-58.5 40-31.5 50h120l57-39.5 33-50.5z" fill="#474f54"/><path d="m211.002 180.004-90 90h135l90-90z" fill="#fff5f5"/><path d="m256.002 180.004v90l90-90z" fill="#efe2dd"/><path d="m512.002 195.004c0-8.284-6.716-15-15-15h-31l-90 90h136c0-42.41 0-74.005 0-75z" fill="#efe2dd"/><path d="m25.272 128.184c-9.401-8.824-25.27-2.556-25.27 11.29v130.53h174.2z" fill="#32393f"/></g></svg>