<svg id="Capa_1" enable-background="new 0 0 512 512" height="512" viewBox="0 0 512 512" width="512" xmlns="http://www.w3.org/2000/svg"><g><g><g><g fill="#ffcebf"><path d="m372.907 257.305v-32.271c0-7.893-6.398-14.291-14.291-14.291-7.893 0-14.291 6.398-14.291 14.291v86.058 26.822c0 15.748 12.767 28.515 28.515 28.515h50.627c8.43 0 16.428-3.73 21.846-10.188l56.134-66.913c4.6-5.483 3.928-13.648-1.506-18.306-5.081-4.355-12.633-4.164-17.486.443l-18.055 17.137c-1.903 1.807-5.045.471-5.065-2.153l-.678-89.93c0-7.893-6.398-14.291-14.291-14.291-7.893 0-14.291 6.398-14.291 14.291v44.95z"/><path d="m430.073 257.305v-76.055c0-7.893-6.398-14.291-14.291-14.291-7.893 0-14.291 6.398-14.291 14.291v75.646z"/><path d="m401.49 257.305v-60.785c0-7.893-6.398-14.291-14.291-14.291-7.893 0-14.291 6.398-14.291 14.291v68.948z"/></g><path d="m387.199 182.228c-2.313 0-4.491.562-6.424 1.538 4.663 2.354 7.867 7.174 7.867 12.753v60.432c0 2.869 1.902 5.39 4.66 6.177 4.104 1.172 8.188-1.909 8.188-6.177v-60.431c0-7.893-6.399-14.292-14.291-14.292z" fill="#ffb09e"/><path d="m415.781 166.959c-2.313 0-4.491.562-6.424 1.538 4.663 2.354 7.867 7.174 7.867 12.753v70.432c0 2.869 1.902 5.39 4.66 6.177 4.104 1.172 8.188-1.91 8.188-6.177v-70.432c.001-7.893-6.398-14.291-14.291-14.291z" fill="#ffb09e"/><path d="m444.386 182.228c-2.313 0-4.491.562-6.424 1.538 4.663 2.354 7.867 7.174 7.867 12.753v60.432c0 2.869 1.902 5.39 4.66 6.177 4.104 1.172 8.188-1.909 8.188-6.177v-60.431c0-7.893-6.399-14.292-14.291-14.292z" fill="#ffb09e"/></g><g><g><path d="m228.878 102.552v-33.951c0-8.304-6.732-15.036-15.036-15.036-8.304 0-15.036 6.732-15.036 15.036v90.54 28.219c0 16.569 13.431 30 30 30h53.264c8.869 0 17.283-3.924 22.983-10.719l59.058-70.398c4.84-5.769 4.133-14.359-1.584-19.259-5.346-4.582-13.29-4.381-18.397.466l-19.256 18.277c-1.903 1.807-5.045.471-5.065-2.153l-.716-94.974c0-8.304-6.732-15.036-15.036-15.036-8.304 0-15.036 6.732-15.036 15.036v47.291z" fill="#ffcebf"/><path d="m289.021 102.552v-80.016c0-8.304-6.732-15.036-15.036-15.036-8.304 0-15.036 6.732-15.036 15.036v78.023z" fill="#ffcebf"/><path d="m275.195 7.548c-3.197-.254-6.192.511-8.727 1.98 4.49 2.601 7.518 7.446 7.518 13.008v71.984c0 3.959 3.07 7.24 7.021 7.501 4.338.288 8.015-3.154 8.015-7.501v-71.566c-.001-7.912-5.941-14.779-13.827-15.406z" fill="#ffb09e"/><path d="m258.949 102.552v-63.951c0-8.304-6.732-15.036-15.036-15.036-8.304 0-15.036 6.732-15.036 15.036v71.497z" fill="#ffcebf"/><path d="m245.123 23.613c-3.197-.254-6.192.511-8.727 1.98 4.49 2.601 7.518 7.446 7.518 13.008v61.984c0 3.959 3.07 7.24 7.021 7.501 4.338.288 8.015-3.154 8.015-7.501v-61.566c-.001-7.912-5.94-14.779-13.827-15.406z" fill="#ffb09e"/><path d="m215.052 53.6c-3.197-.254-6.192.511-8.727 1.98 4.49 2.601 7.518 7.446 7.518 13.008v31.984c0 3.959 3.07 7.24 7.021 7.501 4.338.288 8.015-3.154 8.015-7.501v-31.566c-.001-7.912-5.941-14.779-13.827-15.406z" fill="#ffb09e"/><path d="m198.806 502v-264.64c0-11.046 8.954-20 20-20h74.815c11.046 0 20 8.954 20 20v264.64c0 5.523-4.477 10-10 10h-94.815c-5.523 0-10-4.477-10-10z" fill="#fe646f"/></g><g><path d="m344.324 502v-116.561c0-10.499 8.511-19.01 19.01-19.01h71.112c10.499 0 19.01 8.511 19.01 19.01v116.561c0 5.523-4.477 10-10 10h-89.132c-5.523 0-10-4.477-10-10z" fill="#8ac9fe"/></g><g><g fill="#ffcebf"><path d="m139.093 257.305v-32.271c0-7.893 6.398-14.291 14.291-14.291 7.893 0 14.291 6.398 14.291 14.291v86.058 26.822c0 15.748-12.767 28.515-28.515 28.515h-50.626c-8.43 0-16.428-3.73-21.846-10.188l-56.134-66.913c-4.6-5.483-3.928-13.648 1.506-18.306 5.081-4.355 12.633-4.164 17.486.443l18.055 17.137c1.903 1.807 5.045.471 5.065-2.153l.678-89.93c0-7.893 6.398-14.291 14.291-14.291 7.893 0 14.291 6.398 14.291 14.291v44.95z"/><path d="m81.927 257.305v-76.055c0-7.893 6.398-14.291 14.291-14.291 7.893 0 14.291 6.398 14.291 14.291v75.646z"/><path d="m110.51 257.305v-60.785c0-7.893 6.398-14.291 14.291-14.291 7.893 0 14.291 6.398 14.291 14.291v68.948z"/></g><path d="m124.802 182.228c-2.313 0-4.491.562-6.424 1.538 4.663 2.354 7.867 7.174 7.867 12.753v60.432c0 2.869 1.902 5.39 4.66 6.177 4.104 1.172 8.188-1.909 8.188-6.177v-60.431c0-7.893-6.399-14.292-14.291-14.292z" fill="#ffb09e"/><path d="m96.219 166.959c-2.313 0-4.491.562-6.424 1.538 4.663 2.354 7.867 7.174 7.867 12.753v70.432c0 2.869 1.902 5.39 4.66 6.177 4.104 1.172 8.188-1.909 8.188-6.177v-70.432c0-7.893-6.398-14.291-14.291-14.291z" fill="#ffb09e"/><path d="m67.636 182.228c-2.313 0-4.491.562-6.424 1.538 4.663 2.354 7.867 7.174 7.867 12.753v60.432c0 2.869 1.902 5.39 4.66 6.177 4.104 1.172 8.188-1.909 8.188-6.177v-60.431c0-7.893-6.398-14.292-14.291-14.292z" fill="#ffb09e"/><path d="m167.676 502v-116.561c0-10.499-8.511-19.01-19.01-19.01h-71.112c-10.499 0-19.01 8.511-19.01 19.01v116.561c0 5.523 4.477 10 10 10h89.132c5.523 0 10-4.477 10-10z" fill="#fee45a"/></g></g></g><path d="m153.384 203.243c-2.371 0-4.653.386-6.792 1.089v-7.813c0-12.016-9.775-21.792-21.791-21.792-2.607 0-5.108.461-7.427 1.305-2.344-9.504-10.938-16.575-21.156-16.575s-18.812 7.07-21.156 16.575c-2.319-.844-4.82-1.305-7.427-1.305-12.016 0-21.792 9.775-21.792 21.735l-.6 79.562-10.536-10c-7.668-7.276-19.502-7.577-27.53-.697-8.517 7.3-9.58 20.229-2.371 28.82 1.927 2.296 56.24 67.236 58.193 69.149-7.196 4.745-11.957 12.897-11.957 22.142v119.062c0 4.143 3.358 7.5 7.5 7.5s7.5-3.357 7.5-7.5v-88.61h94.131v88.61c0 4.143 3.358 7.5 7.5 7.5s7.5-3.357 7.5-7.5v-119.061c0-8.874-4.388-16.739-11.103-21.553 6.835-6.559 11.103-15.773 11.103-25.972v-112.88c.003-12.015-9.773-21.791-21.789-21.791zm6.792 197.647h-94.132v-15.45c0-6.347 5.163-11.51 11.51-11.51h71.112c6.347 0 11.51 5.163 11.51 11.51zm0-62.975c0 11.588-9.427 21.015-21.015 21.015h-50.627c-6.228 0-12.097-2.737-16.1-7.509l-56.134-66.913c-1.949-2.323-1.661-5.817.641-7.791 2.17-1.859 5.371-1.777 7.443.188l18.055 17.138c3.035 2.88 7.484 3.686 11.336 2.047 3.851-1.637 6.359-5.398 6.392-9.584l.678-89.986c0-3.745 3.047-6.792 6.792-6.792s6.792 3.047 6.792 6.792v60.786c0 4.143 3.358 7.5 7.5 7.5s7.5-3.357 7.5-7.5v-76.056c0-3.745 3.047-6.792 6.792-6.792s6.792 3.047 6.792 6.792v76.056c0 4.143 3.358 7.5 7.5 7.5s7.5-3.357 7.5-7.5v-60.786c0-3.745 3.047-6.792 6.792-6.792s6.791 3.047 6.791 6.792v60.786c0 4.143 3.358 7.5 7.5 7.5s7.5-3.357 7.5-7.5v-32.271c0-3.745 3.047-6.792 6.792-6.792s6.792 3.047 6.792 6.792v112.88zm148.14-123.783c2.387-2.281 59.256-70.345 61.541-73.068 7.448-8.877 6.349-22.233-2.448-29.774-8.292-7.108-20.52-6.798-28.441.721l-11.737 11.14-.637-84.55c0-12.426-10.109-22.536-22.536-22.536-2.852 0-5.58.538-8.093 1.509-2.269-10.046-11.259-17.574-21.98-17.574s-19.711 7.528-21.978 17.574c-2.514-.971-5.241-1.509-8.093-1.509-12.426 0-22.536 10.109-22.536 22.536v8.765c-2.358-.839-4.893-1.3-7.536-1.3-12.426 0-22.536 10.109-22.536 22.536v118.758c0 10.788 4.586 20.521 11.902 27.369-7.184 4.966-11.902 13.256-11.902 22.631v267.14c0 4.143 3.358 7.5 7.5 7.5s7.5-3.357 7.5-7.5v-235.494h99.815v235.494c0 4.143 3.358 7.5 7.5 7.5s7.5-3.357 7.5-7.5v-267.14c.001-9.762-5.117-18.346-12.805-23.228zm-102.01-145.531c0-4.155 3.38-7.536 7.536-7.536s7.536 3.38 7.536 7.536v33.952c0 4.142 3.358 7.5 7.5 7.5s7.5-3.358 7.5-7.5v-63.952c0-4.155 3.381-7.536 7.536-7.536s7.536 3.38 7.536 7.536v63.952c0 4.142 3.358 7.5 7.5 7.5s7.5-3.358 7.5-7.5v-63.952-16.065c0-4.155 3.38-7.536 7.536-7.536s7.536 3.38 7.536 7.536v16.065 63.952c0 4.142 3.358 7.5 7.5 7.5s7.5-3.358 7.5-7.5v-63.952c0-4.155 3.381-7.536 7.536-7.536s7.536 3.38 7.536 7.592l.716 94.974c.032 4.185 2.541 7.946 6.392 9.583 3.851 1.638 8.301.834 11.336-2.047l19.257-18.277c2.327-2.207 5.917-2.298 8.353-.211 2.583 2.215 2.906 6.137.719 8.744l-59.057 70.398c-4.286 5.109-10.569 8.039-17.238 8.039h-53.264c-12.407 0-22.5-10.093-22.5-22.5v-118.759zm99.816 185.405h-99.815v-16.646c0-6.893 5.607-12.5 12.5-12.5h74.815c6.893 0 12.5 5.607 12.5 12.5zm201.069 40.142c7.209-8.592 6.146-21.521-2.371-28.82-8.025-6.879-19.861-6.579-27.53.698l-10.536 9.999-.599-79.505c0-12.016-9.775-21.792-21.792-21.792-2.607 0-5.108.461-7.427 1.305-2.344-9.505-10.938-16.575-21.156-16.575s-18.812 7.071-21.156 16.575c-2.319-.843-4.82-1.305-7.427-1.305-12.016 0-21.791 9.775-21.791 21.792v7.813c-2.139-.703-4.42-1.089-6.792-1.089-12.016 0-21.792 9.776-21.792 21.792v112.88c0 10.198 4.268 19.413 11.103 25.972-6.715 4.814-11.103 12.678-11.103 21.553v119.059c0 4.143 3.358 7.5 7.5 7.5s7.5-3.357 7.5-7.5v-88.61h71.631c4.142 0 7.5-3.357 7.5-7.5s-3.358-7.5-7.5-7.5h-71.631v-15.45c0-6.347 5.163-11.51 11.51-11.51h71.112c6.347 0 11.51 5.163 11.51 11.51v119.06c0 4.143 3.358 7.5 7.5 7.5s7.5-3.357 7.5-7.5v-119.061c0-9.246-4.761-17.397-11.957-22.142 1.97-1.932 56.283-66.87 58.194-69.149zm-67.625 57.273c-4.003 4.771-9.872 7.509-16.1 7.509h-50.627c-11.587 0-21.015-9.427-21.015-21.015v-112.88c0-3.745 3.047-6.792 6.792-6.792s6.792 3.047 6.792 6.792v32.271c0 4.143 3.358 7.5 7.5 7.5s7.5-3.357 7.5-7.5v-60.786c0-3.745 3.047-6.792 6.792-6.792s6.791 3.047 6.791 6.792v60.786c0 4.143 3.358 7.5 7.5 7.5s7.5-3.357 7.5-7.5v-60.786-15.27c0-3.745 3.047-6.792 6.792-6.792s6.792 3.047 6.792 6.792v76.056c0 4.143 3.358 7.5 7.5 7.5s7.5-3.357 7.5-7.5v-60.786c0-3.745 3.047-6.792 6.792-6.792s6.792 3.047 6.792 6.848l.678 89.93c.032 4.185 2.541 7.946 6.392 9.583 3.851 1.636 8.3.833 11.337-2.048l18.054-17.136c2.073-1.967 5.273-2.049 7.443-.189 2.302 1.974 2.59 5.468.641 7.791z"/></g></svg>