<?xml version="1.0" encoding="iso-8859-1"?>
<!-- Generator: Adobe Illustrator 16.0.0, SVG Export Plug-In . SVG Version: 6.00 Build 0)  -->
<!DOCTYPE svg PUBLIC "-//W3C//DTD SVG 1.1//EN" "http://www.w3.org/Graphics/SVG/1.1/DTD/svg11.dtd">
<svg version="1.1" id="Capa_1" xmlns="http://www.w3.org/2000/svg" xmlns:xlink="http://www.w3.org/1999/xlink" x="0px" y="0px"
	 width="473.711px" height="473.711px" viewBox="0 0 473.711 473.711" style="enable-background:new 0 0 473.711 473.711;"
	 xml:space="preserve">
<g>
	<path d="M48.985,286.772l35.758-29.555c-32.091,0-51.882-5.245-64.121-11.697c-13.417,2.673-18.174,7.938-19.775,10.792v26.449
		c0,37.028,83.896,37.028,83.896,37.028L48.985,286.772z"/>
	<path d="M455.827,229.415c11.594-5.215,16.146-11.537,17.549-18.939v-19.518c0-37.037-83.892-37.037-83.892-37.037l35.754,33.019
		l-35.754,29.555C423.567,216.495,443.821,222.397,455.827,229.415z"/>
	<path d="M463.208,234.673c-13.309,7.148-34.637,11.705-66.84,14.955c-51.396,5.229-98.391-10.535-184.663-39.79
		c-14.24-4.829-29.603-10.042-46.3-15.607c-45.366-15.126-82.872-22.796-111.428-22.796C5.32,171.435,0.046,194.027,0,194.253
		l0.054,51.435c0.241-0.192,0.539-0.368,0.802-0.553c2.705-1.964,6.308-3.835,10.997-5.382c6.712-2.208,15.639-3.735,27.737-3.735
		c41.755,0,106.607,17.18,192.739,51.107c50.192,19.756,95.717,29.774,135.326,29.774c0.009,0,0.017,0,0.024,0
		c70.739-0.008,101.075-32.376,106.032-38.311v-51.692c-0.1,0.102-0.236,0.187-0.328,0.291
		C470.706,229.952,467.356,232.44,463.208,234.673z"/>
</g>
<g>
</g>
<g>
</g>
<g>
</g>
<g>
</g>
<g>
</g>
<g>
</g>
<g>
</g>
<g>
</g>
<g>
</g>
<g>
</g>
<g>
</g>
<g>
</g>
<g>
</g>
<g>
</g>
<g>
</g>
</svg>
