<?xml version="1.0"?>
<svg xmlns="http://www.w3.org/2000/svg" viewBox="0 0 128 128" width="512px" height="512px" class=""><g><path d="M66,44.851a16.018,16.018,0,0,0-16,16C50,72.4,64.685,86.525,65.31,87.121a1,1,0,0,0,1.383,0C67.318,86.518,82,72.278,82,60.851A16.018,16.018,0,0,0,66,44.851Z" fill="#e6e7e8" data-original="#E6E7E8" class="active-path" style="fill:#E6E7E8"/><path d="M121,62.341h-1.461a53.741,53.741,0,0,0-49.58-49.857V11a3.5,3.5,0,0,0-3.5-3.5h-.618a3.5,3.5,0,0,0-3.5,3.5v1.461a53.74,53.74,0,0,0-49.857,49.58H11a3.5,3.5,0,0,0-3.5,3.5v.618a3.5,3.5,0,0,0,3.5,3.5h1.461a53.74,53.74,0,0,0,49.58,49.857V121a3.5,3.5,0,0,0,3.5,3.5h.618a3.5,3.5,0,0,0,3.5-3.5v-1.461a53.741,53.741,0,0,0,49.857-49.58H121a3.5,3.5,0,0,0,3.5-3.5v-.618A3.5,3.5,0,0,0,121,62.341Zm-26.138,0a3.5,3.5,0,0,0-3.5,3.5v.618a3.5,3.5,0,0,0,3.5,3.5H98.7a33,33,0,0,1-29.042,28.78V94.862a3.5,3.5,0,0,0-3.5-3.5h-.618a3.5,3.5,0,0,0-3.5,3.5V98.7a33,33,0,0,1-28.78-29.042h3.877a3.5,3.5,0,0,0,3.5-3.5v-.618a3.5,3.5,0,0,0-3.5-3.5H33.3a33,33,0,0,1,29.042-28.78v3.877a3.5,3.5,0,0,0,3.5,3.5h.618a3.5,3.5,0,0,0,3.5-3.5V33.3a33,33,0,0,1,28.78,29.042Zm-24.9-36.712V20.123A46.116,46.116,0,0,1,111.9,62.341h-5.508A40.63,40.63,0,0,0,69.959,25.629Zm-7.618-.022A40.629,40.629,0,0,0,25.63,62.041H20.122A46.119,46.119,0,0,1,62.341,20.1ZM25.607,69.659a40.631,40.631,0,0,0,36.434,36.712v5.507A46.117,46.117,0,0,1,20.1,69.659Zm44.052,36.734A40.628,40.628,0,0,0,106.37,69.959h5.508A46.117,46.117,0,0,1,69.659,111.9Z" fill="#e6e7e8" data-original="#E6E7E8" class="active-path" style="fill:#E6E7E8"/><path d="M77,56.85C77,67.983,62,82.4,62,82.4S47,68.1,47,56.85a15,15,0,1,1,30,0Z" fill="#0089ef" data-original="#0089EF" class=""/><path d="M62,47A10,10,0,1,0,72,57,10.011,10.011,0,0,0,62,47Z" fill="#6dc9f7" data-original="#6DC9F7" class=""/><path d="M62,50a10.007,10.007,0,0,1,9.875,8.5,10,10,0,1,0-19.75,0A10.007,10.007,0,0,1,62,50Z" fill="#fff" data-original="#FFF" class=""/><path d="M62,9.322A52.678,52.678,0,1,0,114.678,62,52.739,52.739,0,0,0,62,9.322Zm0,99.737A47.059,47.059,0,1,1,109.059,62,47.059,47.059,0,0,1,62,109.059Z" fill="#ffd7e5" data-original="#FFD7E5" class="" style="fill:#FFFFFF" data-old_color="#ffd7e5"/><path d="M62,22.434A39.566,39.566,0,1,0,101.566,62,39.566,39.566,0,0,0,62,22.434Zm0,73.513A33.947,33.947,0,1,1,95.948,62,33.985,33.985,0,0,1,62,95.947Z" fill="#ffd7e5" data-original="#FFD7E5" class="" style="fill:#FFFFFF" data-old_color="#ffd7e5"/><rect x="59.341" y="4.5" width="5.619" height="31.138" rx="2.5" ry="2.5" fill="#fa759e" data-original="#FA759E" class="" style="fill:#FF0000" data-old_color="#fa759e"/><rect x="17.26" y="46.281" width="5.619" height="31.138" rx="2.5" ry="2.5" transform="translate(-41.781 81.919) rotate(-90)" fill="#fa759e" data-original="#FA759E" class="" style="fill:#FF0000" data-old_color="#fa759e"/><rect x="59.041" y="88.362" width="5.619" height="31.138" rx="2.5" ry="2.5" transform="translate(123.7 207.862) rotate(180)" fill="#fa759e" data-original="#FA759E" class="" style="fill:#FF0000" data-old_color="#fa759e"/><rect x="101.122" y="46.581" width="5.619" height="31.138" rx="2.5" ry="2.5" transform="translate(166.081 -41.781) rotate(90)" fill="#fa759e" data-original="#FA759E" class="" style="fill:#FF0000" data-old_color="#fa759e"/><path d="M62,40.851a16.018,16.018,0,0,0-16,16C46,68.4,60.685,82.525,61.31,83.121a1,1,0,0,0,1.383,0C63.318,82.518,78,68.278,78,56.851A16.018,16.018,0,0,0,62,40.851Zm0,40.134c-2.913-2.951-14-14.8-14-24.134a14,14,0,0,1,28,0C76,66.087,64.907,78.017,62,80.985Z" fill="#3a2c60" data-original="#3A2C60" class="" style="fill:#000000" data-old_color="#3a2c60"/><path d="M62,46A11,11,0,1,0,73,57,11.013,11.013,0,0,0,62,46Zm0,20a9,9,0,1,1,9-9A9.01,9.01,0,0,1,62,66Z" fill="#3a2c60" data-original="#3A2C60" class="" style="fill:#000000" data-old_color="#3a2c60"/><path d="M83.578,89.189a1,1,0,0,0,.636-.228,35.288,35.288,0,0,0,6.317-6.8A1,1,0,0,0,88.9,81.005a33.242,33.242,0,0,1-5.96,6.413,1,1,0,0,0,.638,1.771Z" fill="#3a2c60" data-original="#3A2C60" class="" style="fill:#000000" data-old_color="#3a2c60"/><path d="M117,58.341h-1.463A53.735,53.735,0,0,0,65.959,8.488V7a3.5,3.5,0,0,0-3.5-3.5h-.618a3.5,3.5,0,0,0-3.5,3.5V8.46A53.741,53.741,0,0,0,8.486,58.041H7a3.5,3.5,0,0,0-3.5,3.5v.618a3.5,3.5,0,0,0,3.5,3.5H8.463a53.736,53.736,0,0,0,49.578,49.853V117a3.5,3.5,0,0,0,3.5,3.5h.618a3.5,3.5,0,0,0,3.5-3.5v-1.46a53.741,53.741,0,0,0,49.855-49.581H117a3.5,3.5,0,0,0,3.5-3.5v-.618A3.5,3.5,0,0,0,117,58.341Zm-3.465,0H109.9A48.11,48.11,0,0,0,65.959,14.127V10.5A51.734,51.734,0,0,1,113.535,58.341Zm-16.8,0A34.99,34.99,0,0,0,65.959,27.292V23.657a38.608,38.608,0,0,1,34.414,34.684Zm5.644,0A40.608,40.608,0,0,0,65.959,21.648V16.134A46.107,46.107,0,0,1,107.9,58.341ZM60.341,7a1.5,1.5,0,0,1,1.5-1.5h.618a1.5,1.5,0,0,1,1.5,1.5V33.138a1.5,1.5,0,0,1-1.5,1.5h-.618a1.5,1.5,0,0,1-1.5-1.5Zm-2,20.262A34.989,34.989,0,0,0,27.3,58.041H23.658A38.608,38.608,0,0,1,58.341,23.627Zm0-5.643A40.609,40.609,0,0,0,21.649,58.041H16.133A46.107,46.107,0,0,1,58.341,16.106Zm0-11.152V14.1A48.109,48.109,0,0,0,14.126,58.041H10.493A51.735,51.735,0,0,1,58.341,10.467ZM5.5,62.159v-.618a1.5,1.5,0,0,1,1.5-1.5H33.138a1.5,1.5,0,0,1,1.5,1.5v.618a1.5,1.5,0,0,1-1.5,1.5H7A1.5,1.5,0,0,1,5.5,62.159Zm16.119,3.5a40.61,40.61,0,0,0,36.422,36.693v5.514A46.107,46.107,0,0,1,16.1,65.659Zm2.009,0h3.635A34.992,34.992,0,0,0,58.041,96.708v3.635A38.607,38.607,0,0,1,23.628,65.659Zm-13.163,0H14.1a48.111,48.111,0,0,0,43.945,44.215v3.631A51.735,51.735,0,0,1,10.465,65.659ZM63.659,117a1.5,1.5,0,0,1-1.5,1.5h-.618a1.5,1.5,0,0,1-1.5-1.5V90.862a1.5,1.5,0,0,1,1.5-1.5h.618a1.5,1.5,0,0,1,1.5,1.5Zm-1.5-29.638h-.618a3.5,3.5,0,0,0-3.5,3.5V94.7A32.993,32.993,0,0,1,29.273,65.659h3.865a3.5,3.5,0,0,0,3.5-3.5v-.618a3.5,3.5,0,0,0-3.5-3.5H29.305a32.992,32.992,0,0,1,29.036-28.77v3.867a3.5,3.5,0,0,0,3.5,3.5h.618a3.5,3.5,0,0,0,3.5-3.5V29.3A32.993,32.993,0,0,1,94.727,58.341H90.862a3.5,3.5,0,0,0-3.5,3.5v.618a3.5,3.5,0,0,0,3.5,3.5h3.82A32.818,32.818,0,0,1,91.067,77.5a1,1,0,0,0,1.764.943A34.837,34.837,0,0,0,96.7,65.959h3.647a38.608,38.608,0,0,1-34.683,34.414v-3.64A34.769,34.769,0,0,0,80.3,91.761a1,1,0,0,0-1.051-1.7,32.758,32.758,0,0,1-13.594,4.659V90.862A3.5,3.5,0,0,0,62.159,87.362Zm3.5,15.019a40.609,40.609,0,0,0,36.692-36.422h5.516A46.107,46.107,0,0,1,65.659,107.9Zm0,11.152V109.9a48.111,48.111,0,0,0,44.216-43.944h3.632A51.736,51.736,0,0,1,65.659,113.533ZM118.5,62.459a1.5,1.5,0,0,1-1.5,1.5H90.862a1.5,1.5,0,0,1-1.5-1.5v-.618a1.5,1.5,0,0,1,1.5-1.5H117a1.5,1.5,0,0,1,1.5,1.5Z" fill="#3a2c60" data-original="#3A2C60" class="" style="fill:#000000" data-old_color="#3a2c60"/></g> </svg>
