<?xml version="1.0" encoding="iso-8859-1"?>
<!-- Generator: Adobe Illustrator 19.0.0, SVG Export Plug-In . SVG Version: 6.00 Build 0)  -->
<svg version="1.1" id="Capa_1" xmlns="http://www.w3.org/2000/svg" xmlns:xlink="http://www.w3.org/1999/xlink" x="0px" y="0px"
	 viewBox="0 0 512 512" style="enable-background:new 0 0 512 512;" xml:space="preserve">
<g>
	<g>
		<path d="M446.708,8.025c-3.853-7.339-12.891-10.152-20.244-6.299c-7.339,3.853-10.166,12.92-6.299,20.244
			C440.336,60.363,451,103.679,451,147.229s-10.664,86.865-30.835,125.259c-3.867,7.324-1.04,16.392,6.299,20.244
			c7.321,3.853,16.386,1.058,20.244-6.299C469.149,243.762,481,195.627,481,147.229S469.149,50.695,446.708,8.025z"/>
	</g>
</g>
<g>
	<g>
		<path d="M393.563,35.872c-3.838-7.339-12.876-10.151-20.244-6.299c-7.339,3.853-10.166,12.92-6.299,20.244
			C382.709,79.685,391,113.361,391,147.229s-8.291,67.544-23.979,97.412c-3.868,7.324-1.041,16.391,6.298,20.244
			c7.321,3.853,16.386,1.058,20.244-6.299C411.508,224.455,421,185.944,421,147.229C421,108.514,411.508,70.002,393.563,35.872z"/>
	</g>
</g>
<g>
	<g>
		<path d="M340.419,63.689c-3.853-7.339-12.949-10.137-20.259-6.284c-7.324,3.853-10.151,12.92-6.284,20.259
			C325.082,98.962,331,123.015,331,147.229s-5.918,48.267-17.124,69.565c-3.867,7.339-1.04,16.406,6.284,20.259
			c7.365,3.876,16.432,0.992,20.259-6.284C353.881,205.163,361,176.277,361,147.229S353.881,89.294,340.419,63.689z"/>
	</g>
</g>
<g>
	<g>
		<path d="M181,27.229c-66.167,0-120,53.833-120,120s53.833,120,120,120s120-53.833,120-120S247.167,27.229,181,27.229z"/>
	</g>
</g>
<g>
	<g>
		<path d="M270.072,267.229c-24.981,18.6-55.605,30-89.072,30s-64.091-11.4-89.072-30C55.172,294.596,31,337.99,31,387.229V467
			c0,24.814,20.186,45,45,45h210c24.814,0,45-20.186,45-45v-79.771C331,337.99,306.828,294.596,270.072,267.229z"/>
	</g>
</g>
<g>
</g>
<g>
</g>
<g>
</g>
<g>
</g>
<g>
</g>
<g>
</g>
<g>
</g>
<g>
</g>
<g>
</g>
<g>
</g>
<g>
</g>
<g>
</g>
<g>
</g>
<g>
</g>
<g>
</g>
</svg>
