<?xml version="1.0" encoding="iso-8859-1"?>
<!-- Generator: Adobe Illustrator 16.0.0, SVG Export Plug-In . SVG Version: 6.00 Build 0)  -->
<!DOCTYPE svg PUBLIC "-//W3C//DTD SVG 1.1//EN" "http://www.w3.org/Graphics/SVG/1.1/DTD/svg11.dtd">
<svg version="1.1" id="Capa_1" xmlns="http://www.w3.org/2000/svg" xmlns:xlink="http://www.w3.org/1999/xlink" x="0px" y="0px"
	 width="31.872px" height="31.872px" viewBox="0 0 31.872 31.872" style="enable-background:new 0 0 31.872 31.872;"
	 xml:space="preserve">
<g>
	<g>
		<circle cx="4.943" cy="4.339" r="3.421"/>
		<circle cx="16.443" cy="4.177" r="3.421"/>
		<circle cx="27.631" cy="4.177" r="3.421"/>
		<path d="M31.531,14.28V8.666l-2.58-0.553l-1.264,1.512l-1.301-1.512l-3.021,0.553v5.615h-3.023V8.666l-2.579-0.553L16.5,9.625
			l-1.3-1.512l-3.021,0.553v5.615H8.843V8.827l-2.58-0.553L5,9.787L3.7,8.275L0.679,8.827v5.453H0v16.835h0.509v-4.414l3.021-0.553
			l1.301,1.513l1.263-1.513l2.58,0.553v4.414h3.336v-4.575l3.021-0.554l1.301,1.513l1.264-1.513l2.579,0.554v4.575h3.023v-4.575
			l3.021-0.554L27.52,27.5l1.264-1.513l2.58,0.554v4.575h0.509V14.28H31.531z M4.773,25.635c-1.89,0-3.421-1.531-3.421-3.421
			s1.532-3.421,3.421-3.421s3.422,1.531,3.422,3.421S6.663,25.635,4.773,25.635z M16.273,25.473c-1.891,0-3.421-1.531-3.421-3.421
			s1.532-3.421,3.421-3.421c1.889,0,3.422,1.531,3.422,3.421S18.163,25.473,16.273,25.473z M27.461,25.473
			c-1.891,0-3.421-1.531-3.421-3.421s1.532-3.421,3.421-3.421s3.422,1.531,3.422,3.421S29.35,25.473,27.461,25.473z"/>
	</g>
</g>
<g>
</g>
<g>
</g>
<g>
</g>
<g>
</g>
<g>
</g>
<g>
</g>
<g>
</g>
<g>
</g>
<g>
</g>
<g>
</g>
<g>
</g>
<g>
</g>
<g>
</g>
<g>
</g>
<g>
</g>
</svg>
