<svg xmlns="http://www.w3.org/2000/svg" xmlns:xlink="http://www.w3.org/1999/xlink" viewBox="0 0 5469.7205 896.51053"><defs><style>.cls-1,.cls-10,.cls-11,.cls-12,.cls-13,.cls-14,.cls-15,.cls-16,.cls-17,.cls-18,.cls-19,.cls-2,.cls-20,.cls-21,.cls-22,.cls-23,.cls-24,.cls-25,.cls-26,.cls-27,.cls-28,.cls-29,.cls-3,.cls-30,.cls-31,.cls-32,.cls-33,.cls-34,.cls-35,.cls-36,.cls-4,.cls-5,.cls-6,.cls-7,.cls-8,.cls-9{stroke:#18b9e8;stroke-miterlimit:10;}.cls-1,.cls-10,.cls-11,.cls-2,.cls-3,.cls-4,.cls-5,.cls-6,.cls-7,.cls-8,.cls-9{stroke-width:15px;}.cls-1{fill:url(#Back_To_the_Future);}.cls-2{fill:url(#Back_To_the_Future-2);}.cls-3{fill:url(#Back_To_the_Future-3);}.cls-4{fill:url(#Back_To_the_Future-4);}.cls-5{fill:url(#Back_To_the_Future-5);}.cls-6{fill:url(#Back_To_the_Future-6);}.cls-7{fill:url(#Back_To_the_Future-7);}.cls-8{fill:url(#Back_To_the_Future-8);}.cls-9{fill:url(#Back_To_the_Future-9);}.cls-10{fill:url(#Back_To_the_Future-10);}.cls-11{fill:url(#Back_To_the_Future-11);}.cls-12,.cls-13,.cls-14,.cls-15,.cls-16,.cls-17,.cls-18,.cls-19,.cls-20,.cls-21,.cls-22,.cls-23,.cls-24,.cls-25,.cls-26,.cls-27,.cls-28,.cls-29,.cls-30,.cls-31,.cls-32,.cls-33,.cls-34,.cls-35,.cls-36{stroke-width:3px;}.cls-12{fill:url(#Back_To_the_Future-12);}.cls-13{fill:url(#Back_To_the_Future-13);}.cls-14{fill:url(#Back_To_the_Future-14);}.cls-15{fill:url(#Back_To_the_Future-15);}.cls-16{fill:url(#Back_To_the_Future-16);}.cls-17{fill:url(#Back_To_the_Future-17);}.cls-18{fill:url(#Back_To_the_Future-18);}.cls-19{fill:url(#Back_To_the_Future-19);}.cls-20{fill:url(#Back_To_the_Future-20);}.cls-21{fill:url(#Back_To_the_Future-21);}.cls-22{fill:url(#Back_To_the_Future-22);}.cls-23{fill:url(#Back_To_the_Future-23);}.cls-24{fill:url(#Back_To_the_Future-24);}.cls-25{fill:url(#Back_To_the_Future-25);}.cls-26{fill:url(#Back_To_the_Future-26);}.cls-27{fill:url(#Back_To_the_Future-27);}.cls-28{fill:url(#Back_To_the_Future-28);}.cls-29{fill:url(#Back_To_the_Future-29);}.cls-30{fill:url(#Back_To_the_Future-30);}.cls-31{fill:url(#Back_To_the_Future-31);}.cls-32{fill:url(#Back_To_the_Future-32);}.cls-33{fill:url(#Back_To_the_Future-33);}.cls-34{fill:url(#Back_To_the_Future-34);}.cls-35{fill:url(#Back_To_the_Future-35);}.cls-36{fill:url(#Back_To_the_Future-36);}</style><linearGradient id="Back_To_the_Future" x1="904.92203" y1="732.80576" x2="1028.91589" y2="270.05435" gradientUnits="userSpaceOnUse"><stop offset="0" stop-color="#f8e924"/><stop offset="0.15452" stop-color="#f5c31d"/><stop offset="0.45106" stop-color="#ef8011"/><stop offset="0.69999" stop-color="#eb4f08"/><stop offset="0.8884" stop-color="#e83002"/><stop offset="0.99438" stop-color="#e72500"/></linearGradient><linearGradient id="Back_To_the_Future-2" x1="1340.36219" y1="762.21509" x2="1482.52516" y2="231.65565" xlink:href="#Back_To_the_Future"/><linearGradient id="Back_To_the_Future-3" x1="1667.97199" y1="744.67264" x2="1797.77685" y2="260.2343" xlink:href="#Back_To_the_Future"/><linearGradient id="Back_To_the_Future-4" x1="1991.61042" y1="753.43549" x2="2129.88876" y2="237.37368" xlink:href="#Back_To_the_Future"/><linearGradient id="Back_To_the_Future-5" x1="2409.30712" y1="777.40819" x2="2559.02977" y2="218.63563" xlink:href="#Back_To_the_Future"/><linearGradient id="Back_To_the_Future-6" x1="3077.52607" y1="746.83209" x2="3209.55889" y2="254.07889" xlink:href="#Back_To_the_Future"/><linearGradient id="Back_To_the_Future-7" x1="3516.20406" y1="775.67552" x2="3661.38095" y2="233.86797" xlink:href="#Back_To_the_Future"/><linearGradient id="Back_To_the_Future-8" x1="4009.88608" y1="784.85325" x2="4161.35891" y2="219.54894" xlink:href="#Back_To_the_Future"/><linearGradient id="Back_To_the_Future-9" x1="4510.17307" y1="755.3001" x2="4646.28735" y2="247.31472" xlink:href="#Back_To_the_Future"/><linearGradient id="Back_To_the_Future-10" x1="5202.42105" y1="659.32405" x2="5283.49487" y2="356.75243" gradientTransform="matrix(-1, 0, 0, 1, 10503.80882, 0)" xlink:href="#Back_To_the_Future"/><linearGradient id="Back_To_the_Future-11" x1="351.23782" y1="699.19575" x2="435.2791" y2="385.54944" gradientTransform="matrix(-1, 0, 0, 1, 774.20312, 0)" xlink:href="#Back_To_the_Future"/><linearGradient id="Back_To_the_Future-12" x1="5128.18831" y1="877.25111" x2="5453" y2="877.25111" xlink:href="#Back_To_the_Future"/><linearGradient id="Back_To_the_Future-13" x1="3972.08957" y1="912.49922" x2="4119.75126" y2="912.49922" xlink:href="#Back_To_the_Future"/><linearGradient id="Back_To_the_Future-14" x1="4663.0397" y1="830.11625" x2="4663.0397" y2="830.11625" xlink:href="#Back_To_the_Future"/><linearGradient id="Back_To_the_Future-15" x1="4218.75778" y1="900.29078" x2="5035.20372" y2="900.29078" xlink:href="#Back_To_the_Future"/><linearGradient id="Back_To_the_Future-16" x1="2979.80139" y1="924.29078" x2="3796.24732" y2="924.29078" xlink:href="#Back_To_the_Future"/><linearGradient id="Back_To_the_Future-17" x1="2715.17935" y1="872.7482" x2="2910.32391" y2="872.7482" xlink:href="#Back_To_the_Future"/><linearGradient id="Back_To_the_Future-18" x1="344.35847" y1="837.2518" x2="539.50303" y2="837.2518" xlink:href="#Back_To_the_Future"/><linearGradient id="Back_To_the_Future-19" x1="1728.4996" y1="870.15706" x2="2303.83169" y2="870.15706" xlink:href="#Back_To_the_Future"/><linearGradient id="Back_To_the_Future-20" x1="515.79628" y1="933.70922" x2="1332.24222" y2="933.70922" xlink:href="#Back_To_the_Future"/><linearGradient id="Back_To_the_Future-21" x1="2379.49697" y1="908.7482" x2="2574.64153" y2="908.7482" xlink:href="#Back_To_the_Future"/><linearGradient id="Back_To_the_Future-22" x1="5272.49697" y1="133.7482" x2="5467.64153" y2="133.7482" xlink:href="#Back_To_the_Future"/><linearGradient id="Back_To_the_Future-23" x1="3758.16831" y1="112.84294" x2="4333.5004" y2="112.84294" xlink:href="#Back_To_the_Future"/><linearGradient id="Back_To_the_Future-24" x1="193" y1="91.74889" x2="517.81169" y2="91.74889" xlink:href="#Back_To_the_Future"/><linearGradient id="Back_To_the_Future-25" x1="1425.24874" y1="80.50078" x2="1572.91043" y2="80.50078" xlink:href="#Back_To_the_Future"/><linearGradient id="Back_To_the_Future-26" x1="982.9603" y1="138.88375" x2="982.9603" y2="138.88375" xlink:href="#Back_To_the_Future"/><linearGradient id="Back_To_the_Future-27" x1="2649.67609" y1="91.2518" x2="2844.82065" y2="91.2518" xlink:href="#Back_To_the_Future"/><linearGradient id="Back_To_the_Future-28" x1="2793.79628" y1="154.70922" x2="3610.24222" y2="154.70922" xlink:href="#Back_To_the_Future"/><linearGradient id="Back_To_the_Future-29" x1="4660.49697" y1="121.7482" x2="4855.64153" y2="121.7482" xlink:href="#Back_To_the_Future"/><linearGradient id="Back_To_the_Future-30" x1="2152" y1="138.74889" x2="2476.81169" y2="138.74889" xlink:href="#Back_To_the_Future"/><linearGradient id="Back_To_the_Future-31" x1="734.4996" y1="150.15706" x2="1309.83169" y2="150.15706" xlink:href="#Back_To_the_Future"/><linearGradient id="Back_To_the_Future-32" x1="1499.49697" y1="933.7482" x2="1694.64153" y2="933.7482" xlink:href="#Back_To_the_Future"/><linearGradient id="Back_To_the_Future-33" x1="3660.49697" y1="861.7482" x2="3855.64153" y2="861.7482" xlink:href="#Back_To_the_Future"/><linearGradient id="Back_To_the_Future-34" x1="4966.18831" y1="75.25111" x2="5291" y2="75.25111" xlink:href="#Back_To_the_Future"/><linearGradient id="Back_To_the_Future-35" x1="2016.24874" y1="63.50078" x2="2163.91043" y2="63.50078" xlink:href="#Back_To_the_Future"/><linearGradient id="Back_To_the_Future-36" x1="1677" y1="133.74889" x2="2001.81169" y2="133.74889" xlink:href="#Back_To_the_Future"/></defs><title>car</title><g id="Texte"><path class="cls-1" d="M1151.8016,660.63726l21.39075,30.57331,18.5897,41.78352h-86.073l-6.11215-16.81532q-68.24918,16.81533-145.66228,16.81532-77.41738,0-99.69759-18.47087-22.28649-18.47087-27.75766-62.93107-5.47872-44.45667-11.20468-81.273-5.72948-36.81484-19.73569-85.09671-14.008-48.27834-29.28532-88.91738-15.2791-40.635-27.24811-70.70027-11.97253-30.05973,5.093-42.54786,17.05776-12.48006,57.67943-12.4841H924.52188q82.12574,0,104.28106.89122,22.15507.89576,47.366,20.25532,25.21089,19.3651,39.72616,56.178,14.51553,36.81939,34.50575,97.70771a459.9634,459.9634,0,0,1,22.53674,126.1149Q1175.48057,636.945,1151.8016,660.63726Zm-94.47716-35.66886-25.46567-63.94917,32.85069-12.22932q-11.4597-33.63064-23.17368-72.73951-11.7165-39.10633-24.31968-75.03149-12.60545-35.92363-22.66412-46.62429a34.54035,34.54035,0,0,0-24.44707-11.33811q-14.39015-.63291-43.16415-.63644-28.77956,0-38.70757.63644-9.931.639-12.98711,7.13377-3.05581,6.49683-.38216,17.0701,2.67364,10.57528,16.17082,50.95551,13.4944,40.38426,20.7543,65.60573,7.25739,25.223,11.96851,45.35041,4.7091,20.12945,10.9504,50.31908,6.237,30.18963,6.36641,31.46452.12539,1.27792,3.438,10.06322a56.84906,56.84906,0,0,0,9.67651,16.43365q6.3624,7.64333,18.208,7.64333,11.84112,0,37.94373-7.64333Q1036.44048,629.80918,1057.32444,624.9684Z" transform="translate(-79.64889 -50.36923)"/><path class="cls-2" d="M1274.8486,272.10146h129.1103q-3.05583,56.56062-11.96851,102.93014-8.91746,46.37355-19.09925,92.86592a855.27385,855.27385,0,0,1-28.01194,97.70771q-17.82813,51.21029-11.969,62.67528,5.85486,11.465,22.79152,10.57277,16.93239-.88971,36.28868-.89122,19.34925,0,32.34115-3.82167,12.98685-3.82165,20.37213-17.32487,7.38352-13.5012,19.7357-52.10151,12.34941-38.60031,24.0649-89.93749,11.71046-51.33567,19.22664-98.8537,7.50813-47.514,8.02147-103.56658h118.66945a484.61564,484.61564,0,0,1-1.146,84.20348q-4.20158,39.61993-12.86023,85.09571-8.65992,45.47779-25.33778,103.56759-16.6824,58.08928-38.70756,105.35-22.0297,47.26326-53.85978,63.82229-31.83612,16.56458-99.5702,16.56054-67.74239,0-132.03873,1.01911-64.3044,1.01508-83.52676-14.52232-19.23067-15.53741-1.01861-59.1084,18.20351-43.567,36.67035-102.29269A986.23705,986.23705,0,0,0,1252.694,435.15911Q1263.89693,372.9974,1274.8486,272.10146Z" transform="translate(-79.64889 -50.36923)"/><path class="cls-3" d="M1618.682,731.46543l25.46517-56.05107q22.40583-75.41214,31.19566-114.01347,8.78529-38.5973,17.06153-83.05749,8.27247-44.45667,12.47806-85.09571,4.20232-40.635,5.73-69.68116,1.52792-29.04465,1.01861-56.05107l127.58213,3.82167q-4.58373,81.27606-8.65841,128.66267-4.07618,47.38863-16.42509,106.36914a1053.64772,1053.64772,0,0,1-28.64888,109.17269q-16.29948,50.1952-43.03627,115.9238Z" transform="translate(-79.64889 -50.36923)"/><path class="cls-4" d="M1921.77066,731.46543q-29.28785,0-46.47476-15.66933-17.18917-15.66731-16.55248-32.99319.63291-17.32286,11.45945-57.19807,10.82074-39.87067,22.02769-95.15892,11.2029-55.28271,16.80726-93.24859,5.59806-37.95986,8.65841-62.16573a300.83671,300.83671,0,0,1,9.54912-46.49741q6.49382-22.291,27.3755-40.76441,20.87791-18.46937,50.67657-19.49,29.79462-1.01508,95.49577,0,65.7009,1.02112,155.84885,3.05734l-1.78243,69.80905-2.292,16.051-2.292,11.71977-85.05493-2.03822q-97.78776,0-105.0449,3.94855-7.25814,3.95307-12.60544,13.50321-5.34807,9.55416-10.314,33.63064-4.96515,24.07647-11.58684,61.911-6.62448,37.83447-12.22329,63.56751-5.60409,25.73657-7.00285,37.834-1.40255,12.104-.76383,17.32488.63216,5.225,8.91268,16.052,8.27247,10.83057,56.15127,10.82755h132.67567l-8.65841,35.1593-23.93751,70.82817H1921.77066Z" transform="translate(-79.64889 -50.36923)"/><path class="cls-5" d="M2237.08258,729.42721q33.614-85.09168,51.56728-138.34423a703.12629,703.12629,0,0,0,27.12123-107.38925q9.16746-54.1362,17.57109-112.229,8.40312-58.08929,9.93129-104.4588l120.70667,3.82166q-1.7847,71.59653-5.22043,108.28047-3.438,36.688-9.04007,75.41416l161.70572-185.47807h135.73149l-209.327,256.30624q48.8939,67.51808,58.95282,95.66848a449.45321,449.45321,0,0,1,15.53388,52.61207q5.47342,24.45864,12.09639,57.83451h-125.7997q-3.05581-52.22538-17.18943-83.18438-14.13336-30.957-24.19229-47.38863-10.06245-16.43466-9.04007-14.65021L2428.838,563.05745q-15.53665,56.05308-26.35689,86.11482-10.82679,30.06578-32.21426,82.29316H2237.84641Z" transform="translate(-79.64889 -50.36923)"/><path class="cls-6" d="M3017.18886,729.17243q-6.876-87.13393-16.4256-142.29378a892.667,892.667,0,0,0-26.86645-111.20991q-17.31984-56.047-33.105-102.42058-15.79269-46.3675-29.79488-75.41417-14.00722-29.04463-11.9685-29.04464h106.95522l218.49443,239.7457q-28.016-96.55668-48.63936-147.771-20.62791-51.21028-40.999-91.9747h129.61935q39.72565,90.95559,52.459,123.8219,12.73083,32.8663,26.48378,78.4715,13.75194,45.60921,27.375,120.89145,13.62054,75.28828,17.69848,139.23645l-100.84257-.25478L3123.125,557.9619q9.41822,86.3696,13.1145,109.55436,3.68874,23.18678,5.22042,63.69439H3019.22607Z" transform="translate(-79.64889 -50.36923)"/><path class="cls-7" d="M3350.58093,728.91765q32.08686-76.17648,50.2949-127.77146,18.20351-51.59094,29.667-97.45192,11.45895-45.86,20.5-93.50337,9.036-47.63937,23.30056-137.57989H3596.833l210.08979.25478q-3.05581,61.40342-11.459,95.54159l-214.16522-1.78344q-6.36843,45.60921-12.73284,76.43327l214.16523,1.78344q-8.40465,40.25889-25.97523,93.50338H3541.57247q-24.70335,76.18251-33.86931,95.28681l219.51254,1.78344q-19.61133,47.64543-42.78149,95.54159H3349.308Z" transform="translate(-79.64889 -50.36923)"/><path class="cls-8" d="M4347.85991,272.86579q-7.6403,83.06153-21.77291,145.60488-14.13411,62.54991-25.72045,99.87281-11.59036,37.32693-32.97808,91.46515-21.39075,54.14225-53.98667,121.402l-123.25293.25478L4027.249,650.95571l-106.44567,80.7645-115.86841-1.78345q31.06575-62.4185,47.74814-104.33192,16.67484-41.90688,29.5401-82.16526,12.8562-40.25285,25.59256-88.53571,12.73081-48.27834,21.39124-86.24171,8.65389-37.95984,18.5897-99.87281h124.271q-17.5706,78.72627-26.86544,123.56712-9.29887,44.84489-50.80345,175.0322l102.87979-93.75815,58.06209,99.36326q32.33611-110.57146,42.01816-157.07088,9.675-46.49289,23.42745-145.09533h126.30926l-1.0181-1.78344Z" transform="translate(-79.64889 -50.36923)"/><path class="cls-9" d="M4693.47627,270.57279q63.91543,0,85.564,16.30577,21.64149,16.30777,19.73569,45.22251a584.47473,584.47473,0,0,1-8.022,63.31273H4673.3579q13.49515-45.60316-23.937-45.60518h-66.08306q-28.64889,0-32.21376,14.52232-3.5694,14.52233-8.91318,37.70708-5.34732,23.18678-1.27389,32.73842,4.0709,9.55416,17.062,15.41454,12.98762,5.86392,58.57064,3.18422,45.582-2.67516,78.56112,8.15288,32.97659,10.83208,47.875,45.73308,14.89843,34.90855-3.437,97.07026-18.33644,62.16774-38.19851,86.49648-19.8636,24.33327-88.36553,40.63753H4465.81388q-144.6462,5.35032-105.68134-102.93014l18.84448-43.05741h115.8674L4483.895,618.08941q1.01357,17.83644,5.34731,22.54832,4.32768,4.71589,83.78154,2.92943,43.03222-5.09353,53.47811-46.75118,10.43782-41.65764-9.54963-52.74-19.995-11.08132-66.33783-8.53455-46.3509,2.54979-85.94665-2.03822-39.60029-4.586-53.73189-22.03876-14.1326-17.44824-2.80154-64.58561,11.329-47.13184,17.95326-78.08984,6.61917-30.95547,11.58684-48.27984,4.96665-17.32287,21.646-30.82809,16.67636-13.5012,43.8006-17.198,27.12021-3.69024,98.67847-3.69377Q4673.3569,268.78935,4693.47627,270.57279Z" transform="translate(-79.64889 -50.36923)"/><path class="cls-10" d="M5457.79289,612.4843a187.251,187.251,0,0,1,10.69562-60.89184q10.18858-28.28031,17.57059-52.99374,7.38955-24.7094,32.8512-64.7135l18.5897.50955q-32.33761,65.98941-39.08973,88.6626-6.74456,22.67924-12.98761,43.94863a229.81814,229.81814,0,0,0-8.27574,45.22352Zm-58.57065,0q6.62523-62.16169,17.4437-90.06438,10.82756-27.89814,13.1145-34.52185,2.293-6.62222,9.80441-26.11521,7.51492-19.49049,13.36928-30.19064l33.61452,1.01911q-20.36961,52.48821-28.3941,72.86639a444.65966,444.65966,0,0,0-14.77005,44.96874q-6.74456,24.58856-8.7853,61.78306Zm-78.43423,2.293q-1.52716-32.35272,11.96951-74.14028,13.49968-41.78151,17.57059-54.90507,4.07694-13.119,23.17368-53.88495l46.60214.25478q-35.65023,90.19125-42.145,117.45246-6.49381,27.26523-8.78631,64.20395Zm21.13646-182.67552q-3.30656,9.42877-28.90265,78.08882-25.59306,68.66457-24.31968,105.86059l-64.68228.25477q2.04074-52.22537,16.29771-97.07025,14.264-44.83884,31.57731-87.38871Zm-256.18237-.76434,154.57547.76434q-23.17017,56.56062-31.8321,86.11482-8.65387,29.55822-20.11735,99.36325h-154.3217L5019.0226,660.892l-52.71379-145.98755L5096.94627,389.8087Z" transform="translate(-79.64889 -50.36923)"/><path class="cls-11" d="M686.70312,517.19749q-82.50791,83.569-154.06591,152.61176l15.02432-54.26762-174.18377.50956q7.132-43.05339,30.17654-92.61216,23.05007-49.55021,42.90938-92.61114l173.16517.76433L649.7785,388.28Zm-268.91571-86.3696q-8.65389,14.77911-40.49,82.9296-31.83008,68.157-32.8507,102.2937H274.67139a519.84525,519.84525,0,0,1,28.52149-95.032q18.33492-44.58205,41.50861-88.91737ZM197.00149,615.03208q1.7847-28.78787,19.09925-70.31862,17.3206-41.52471,22.79152-54.65029,5.47949-13.119,30.6861-57.96139l48.38457-.50956q-48.1303,96.30593-57.043,123.56713a575.25563,575.25563,0,0,0-15.78866,59.87273Zm-66.97428-.25478Q154.73056,528.157,161.8593,514.52182q7.132-13.62657,9.93129-20.12743,2.80507-6.49683,13.24239-27.13331,10.44464-20.637,20.37214-33.12108H238.5106q-30.04538,58.34607-39.981,78.59838a466.47332,466.47332,0,0,0-18.97187,44.96874q-9.036,24.71544-15.15221,57.325ZM87.5,613.50341A186.07514,186.07514,0,0,1,99.34162,556.8149q10.57-28.40569,18.5897-52.86585,8.02172-24.45864,36.79774-69.04472l20.88169.76433q-38.44926,70.5754-45.71093,93.24859-7.25737,22.67924-11.71372,34.90453A148.82783,148.82783,0,0,0,112.074,584.204q-1.65328,8.15691-5.4747,29.04464Z" transform="translate(-79.64889 -50.36923)"/></g><g id="tracé"><path class="cls-12" d="M5432.064,888.88266H5149.12432c-11.55672,0-20.936-5.21093-20.936-11.63155s9.37929-11.63155,20.936-11.63155H5432.064c11.55672,0,20.936,5.21093,20.936,11.63155S5443.62071,888.88266,5432.064,888.88266Z" transform="translate(-79.64889 -50.36923)"/><path class="cls-13" d="M4098.81525,924.13077H3993.02559c-11.55668,0-20.936-5.21093-20.936-11.63155s9.37934-11.63155,20.936-11.63155h105.78966c11.55668,0,20.936,5.21094,20.936,11.63155S4110.38239,924.13077,4098.81525,924.13077Z" transform="translate(-79.64889 -50.36923)"/><path class="cls-14" d="M4663.0397,830.11625" transform="translate(-79.64889 -50.36923)"/><path class="cls-15" d="M5005.4937,911.95548H4248.46779c-16.39992,0-29.71-5.22581-29.71-11.6647s13.31009-11.6647,29.71-11.6647H5005.4937c16.39988,0,29.71,5.22581,29.71,11.6647S5021.89369,911.95548,5005.4937,911.95548Z" transform="translate(-79.64889 -50.36923)"/><path class="cls-16" d="M3766.53731,935.95548H3009.5114c-16.39993,0-29.71-5.22581-29.71-11.6647s13.31008-11.6647,29.71-11.6647h757.02591c16.39987,0,29.71,5.22581,29.71,11.6647S3782.93729,935.95548,3766.53731,935.95548Z" transform="translate(-79.64889 -50.36923)"/><path class="cls-17" d="M2889.38789,884.37975H2736.11536c-11.55664,0-20.936-5.21095-20.936-11.63155s9.37937-11.63155,20.936-11.63155h153.27253c11.55665,0,20.936,5.211,20.936,11.63155S2900.955,884.37975,2889.38789,884.37975Z" transform="translate(-79.64889 -50.36923)"/><path class="cls-18" d="M365.29449,825.62025H518.567c11.55664,0,20.936,5.21095,20.936,11.63155s-9.37937,11.63155-20.936,11.63155H365.29449c-11.55664,0-20.936-5.211-20.936-11.63155S353.72738,825.62025,365.29449,825.62025Z" transform="translate(-79.64889 -50.36923)"/><path class="cls-19" d="M1749.43561,858.52551h533.46007c11.55668,0,20.936,5.21095,20.936,11.63155s-9.37933,11.63155-20.936,11.63155H1749.43561c-11.55664,0-20.936-5.211-20.936-11.63155S1737.87889,858.52551,1749.43561,858.52551Z" transform="translate(-79.64889 -50.36923)"/><path class="cls-20" d="M545.5063,922.04452h757.02591c16.39992,0,29.71,5.22581,29.71,11.6647s-13.31009,11.6647-29.71,11.6647H545.5063c-16.39988,0-29.71-5.22581-29.71-11.6647S529.10631,922.04452,545.5063,922.04452Z" transform="translate(-79.64889 -50.36923)"/><path class="cls-21" d="M2553.70551,920.37975H2400.433c-11.55664,0-20.936-5.21095-20.936-11.63155s9.37937-11.63155,20.936-11.63155h153.27253c11.55664,0,20.936,5.211,20.936,11.63155S2565.27262,920.37975,2553.70551,920.37975Z" transform="translate(-79.64889 -50.36923)"/><path class="cls-22" d="M5446.70551,145.37975H5293.433c-11.55664,0-20.936-5.21095-20.936-11.63155s9.37937-11.63155,20.936-11.63155h153.27253c11.55664,0,20.936,5.211,20.936,11.63155S5458.27262,145.37975,5446.70551,145.37975Z" transform="translate(-79.64889 -50.36923)"/><path class="cls-23" d="M4312.56439,124.47449H3779.10432c-11.55668,0-20.936-5.21095-20.936-11.63155s9.37933-11.63155,20.936-11.63155h533.46007c11.55664,0,20.936,5.211,20.936,11.63155S4324.12111,124.47449,4312.56439,124.47449Z" transform="translate(-79.64889 -50.36923)"/><path class="cls-24" d="M213.936,80.11734H496.87568c11.55672,0,20.936,5.21093,20.936,11.63155s-9.37929,11.63155-20.936,11.63155H213.936c-11.55672,0-20.936-5.21093-20.936-11.63155S202.37929,80.11734,213.936,80.11734Z" transform="translate(-79.64889 -50.36923)"/><path class="cls-25" d="M1446.18475,68.86923h105.78966c11.55668,0,20.936,5.21093,20.936,11.63155s-9.37934,11.63155-20.936,11.63155H1446.18475c-11.55668,0-20.936-5.21094-20.936-11.63155S1434.61761,68.86923,1446.18475,68.86923Z" transform="translate(-79.64889 -50.36923)"/><path class="cls-26" d="M982.9603,138.88375" transform="translate(-79.64889 -50.36923)"/><path class="cls-27" d="M2670.61211,79.62025h153.27253c11.55664,0,20.936,5.21095,20.936,11.63155s-9.37937,11.63155-20.936,11.63155H2670.61211c-11.55665,0-20.936-5.211-20.936-11.63155S2659.045,79.62025,2670.61211,79.62025Z" transform="translate(-79.64889 -50.36923)"/><path class="cls-28" d="M2823.5063,143.04452h757.02591c16.39992,0,29.71,5.22581,29.71,11.6647s-13.31009,11.6647-29.71,11.6647H2823.5063c-16.39988,0-29.71-5.22581-29.71-11.6647S2807.10631,143.04452,2823.5063,143.04452Z" transform="translate(-79.64889 -50.36923)"/><path class="cls-29" d="M4834.70551,133.37975H4681.433c-11.55664,0-20.936-5.21095-20.936-11.63155s9.37937-11.63155,20.936-11.63155h153.27253c11.55664,0,20.936,5.211,20.936,11.63155S4846.27262,133.37975,4834.70551,133.37975Z" transform="translate(-79.64889 -50.36923)"/><path class="cls-30" d="M2172.936,127.11734h282.93967c11.55672,0,20.936,5.21093,20.936,11.63155s-9.37929,11.63155-20.936,11.63155H2172.936c-11.55672,0-20.936-5.21093-20.936-11.63155S2161.37929,127.11734,2172.936,127.11734Z" transform="translate(-79.64889 -50.36923)"/><path class="cls-31" d="M755.43561,138.52551h533.46007c11.55668,0,20.936,5.21095,20.936,11.63155s-9.37933,11.63155-20.936,11.63155H755.43561c-11.55664,0-20.936-5.211-20.936-11.63155S743.87889,138.52551,755.43561,138.52551Z" transform="translate(-79.64889 -50.36923)"/><path class="cls-32" d="M1673.70551,945.37975H1520.433c-11.55664,0-20.936-5.21095-20.936-11.63155s9.37937-11.63155,20.936-11.63155h153.27253c11.55664,0,20.936,5.211,20.936,11.63155S1685.27262,945.37975,1673.70551,945.37975Z" transform="translate(-79.64889 -50.36923)"/><path class="cls-33" d="M3834.70551,873.37975H3681.433c-11.55664,0-20.936-5.21095-20.936-11.63155s9.37937-11.63155,20.936-11.63155h153.27253c11.55664,0,20.936,5.211,20.936,11.63155S3846.27262,873.37975,3834.70551,873.37975Z" transform="translate(-79.64889 -50.36923)"/><path class="cls-34" d="M5270.064,86.88266H4987.12432c-11.55672,0-20.936-5.21093-20.936-11.63155s9.37929-11.63155,20.936-11.63155H5270.064c11.55672,0,20.936,5.21093,20.936,11.63155S5281.62071,86.88266,5270.064,86.88266Z" transform="translate(-79.64889 -50.36923)"/><path class="cls-35" d="M2037.18475,51.86923h105.78966c11.55668,0,20.936,5.21093,20.936,11.63155s-9.37934,11.63155-20.936,11.63155H2037.18475c-11.55668,0-20.936-5.21094-20.936-11.63155S2025.61761,51.86923,2037.18475,51.86923Z" transform="translate(-79.64889 -50.36923)"/><path class="cls-36" d="M1697.936,122.11734h282.93967c11.55672,0,20.936,5.21093,20.936,11.63155s-9.37929,11.63155-20.936,11.63155H1697.936c-11.55672,0-20.936-5.21093-20.936-11.63155S1686.37929,122.11734,1697.936,122.11734Z" transform="translate(-79.64889 -50.36923)"/></g></svg>