<svg xmlns="http://www.w3.org/2000/svg" viewBox="0 0 5625 1000"><defs><style>.cls-1,.cls-3{fill:#485864;}.cls-1,.cls-2{stroke:#000;stroke-miterlimit:10;stroke-width:10px;}.cls-2,.cls-7{fill:#428ecc;}.cls-4{fill:#eceff1;}.cls-5{fill:#455a64;}.cls-6{fill:#64b5f6;}.cls-8{fill:none;}</style></defs><title>logo_marque_pages</title><g id="Texte"><path class="cls-1" d="M1410.88818,209.59668l21.10987,14.08008a71.07993,71.07993,0,0,1,5.11718,18.24023,153.83488,153.83488,0,0,1,1.2793,20.79981q0,33.28418-15.67187,75.20019-15.68262,41.92383-31.665,84.47949-15.99756,42.56984-15.99219,74.55957l3.19824,8.32032,8.31592,3.20019q8.95094-1.92041,19.19092-12.16015,10.2246-10.23048,16.63183-12.16016l8.95606,5.75977,1.91894,7.68066q0,35.84911-44.13867,58.23926a166.92006,166.92006,0,0,1-76.76318,18.56054q-11.5144,0-17.272-16.64062-5.75683-16.63476-5.75684-30.71973,0-30.0747,45.418-151.67968,15.98217-43.51466,32.624-87.04-11.51367,13.43994-67.4873,89.28027Q1243.918,453.436,1212.583,489.27637q-49.89551,56.3247-76.12305,62.08008-11.51514-1.92042-22.38965-10.56055-10.88453-8.63966-12.79345-18.87988,10.22534-64.63477,30.06543-139.51954,16.62671-62.06982,41.58007-136.32031-53.73412,55.68018-115.78466,131.2002-71.64991,87.04541-120.90137,159.36035-59.49169,87.67383-82.52051,145.91992-5.75757,3.83936-17.91162,7.67969-30.06079,6.38964-38.38135,8.32031L787.1875,683.19629q0-24.95947,102.99023-161.28027Q985.48779,396.48584,1091.042,274.877q111.936-128.64111,134.335-134.40039l16.63233,14.08008q6.38672,25.60547,13.4331,50.55957,0,12.81006-30.70508,112.64063-20.48,65.27929-40.30078,129.91992,31.98048-40.32129,64.60938-80.64063,52.44434-64.63476,87.63769-101.11914Q1385.93531,214.7207,1410.88818,209.59668Z"/><path class="cls-1" d="M1513.23145,578.23633q-13.43262,0-20.46973-15.04a72.33237,72.33237,0,0,1-7.03711-31.04q0-51.83936,87.958-125.75977,87.94774-73.9204,143.61133-73.91992a104.03356,104.03356,0,0,1,37.102,7.04q24.94775,9.60059,24.94824,24.32031,0,21.76466-21.11035,83.83985-21.10987,62.08448-21.10987,96.63965,0,5.75976,3.51856,15.67968c2.33887,6.62012,3.728,11.62012,4.1582,15.04a30.91441,30.91441,0,0,1-7.67676,13.12012q-5.75683,6.0747-12.79345,6.08008a170.61528,170.61528,0,0,1-18.55127-1.59961,170.73121,170.73121,0,0,0-17.27149-1.60059q-12.80419,0-17.272-19.83984-4.48242-19.8296-4.478-47.36035V509.75586a93.01954,93.01954,0,0,1,.64014-11.51953q-26.23755,35.20458-68.76709,57.59961Q1556.08081,578.24659,1513.23145,578.23633Zm62.69043-58.24024q0,7.0503,5.75683,7.04,24.304,0,81.88086-64,57.572-63.99022,57.57227-88.32031c0-2.97949-2.34864-4.47949-7.03663-4.47949q-27.512,0-82.84033,59.83984Q1575.91675,489.92676,1575.92188,519.99609Z"/><path class="cls-1" d="M1858.01758,407.99609a31.21573,31.21573,0,0,1-14.07324-2.87988q-5.75684-2.87988-5.75684-10.55957,0-15.36034,21.10986-24.32031,14.06323-5.75978,33.90332-8.96,3.83864,0,12.1543-5.12012,8.3064-5.11524,14.07324-5.12012,10.86987,0,14.07324,11.2002a92.26188,92.26188,0,0,1,3.19874,25.28027q0,16.00488-4.79786,39.35938-4.79736,23.3701-5.4375,26.56054l2.55909,3.83985q1.91893-1.27441,10.23486-14.08008,21.10986-31.99512,23.02881-34.55957a85.53025,85.53025,0,0,1-3.83789-14.08008,89.3609,89.3609,0,0,1-1.2793-16q0-24.31494,6.39648-36.16016,6.38746-11.83446,26.86719-24,8.95094-5.75976,14.07324-8.96,10.86988-6.38964,14.07325-6.40039,8.30638,0,16.95214,15.36035,8.636,15.36036,8.63575,24.96,0,3.20946-8.31592,19.20019-8.321,16.00488-8.31592,26.87988,0,7.68018,7.35645,16.31934,7.34619,8.64111,7.35644,27.20019,0,8.32471-15.67285,15.68067-15.68189,7.36377-25.26758,7.35937-5.75757,0-11.19482-5.43945a63.55612,63.55612,0,0,1-9.915-13.12012q-30.07543,52.48536-47.977,82.55957-34.54322,56.9707-67.168,56.96-10.24,0-24.94775-16-14.72315-15.99023-14.7129-25.5996,10.86988-11.51954,15.99219-17.91993,17.272-20.47558,20.79-30.40039a122.10368,122.10368,0,0,0,5.4375-24,194.93025,194.93025,0,0,0,1.91895-26.24023l-.63965-28.79981Z"/><path class="cls-1" d="M2096.6167,577.59668q-18.561,0-29.106-13.44043-10.55493-13.43994-10.55517-32.63965,0-63.36035,95.31445-140.80078,92.116-74.87841,155.44531-74.87891,11.5144,0,27.82666,23.67969,16.31176,23.68506,16.312,35.83985,0,5.12988-19.19043,49.28027-8.9663,20.48877-37.74218,85.11914-23.02881,51.84082-27.50684,63.36035,26.22289-33.26954,42.53955-51.20019,16.3125-17.90919,24.62842-20.4795l9.59521,5.12012,2.55909,7.67969q-3.20874,14.08448-30.70557,52.47949-44.7832,62.07129-52.45459,74.24023-30.70531,47.35548-40.30078,81.91993-3.20874,10.23046-5.75733,20.48047-6.40209,16.63476-27.50683,16.63964-12.80347,0-21.74951-4.47949-8.96558-4.48534-8.95557-16.64062,0-46.72413,27.50684-122.23926,0-.646,47.97705-118.40039a516.27221,516.27221,0,0,1-64.60938,49.91992Q2124.75343,577.60107,2096.6167,577.59668Zm170.79785-209.91992q-39.02637,19.84423-78.68213,62.0791-43.50879,46.72559-49.25635,84.48047l4.478,3.83984q30.06006,0,86.3584-63.36035,53.73412-60.14941,62.68994-94.0791l-3.19873-2.56055a48.3731,48.3731,0,0,0-10.87451,3.84082Q2271.88258,365.12647,2267.41455,367.67676Z"/><path class="cls-1" d="M2483.62939,548.7959q-15.99755,9.60059-31.98486,19.20019-7.67578,6.38966-12.47363,8.32032a26.46157,26.46157,0,0,1-9.91553,1.91992q-10.24,0-23.34863-14.40039-13.11841-14.39942-13.11377-24.63965,0-22.39453,24.62842-100.16016,24.61817-77.75976,38.06152-91.83984,4.46778-4.46924,25.58789-16.31934,21.10986-11.83593,26.8667-11.84082,7.67652,0,15.353,15.36035,2.54883,5.1299,8.95556,23.04-28.15648,66.56984-55.65332,132.4795,0,9.60059,7.67627,9.60058,12.14428,0,37.102-40.96,23.02954-38.40089,46.69776-76.80078,28.78638-40.94971,51.17529-40.959,8.3064,0,14.07324,13.43945,5.75757,13.43994,5.75733,23.67969,0,18.56982-5.75733,46.7207-12.80346,62.729-12.79394,78.0791,0,6.40576,2.8789,17.60059,2.87842,11.20458,3.51807,15.67968-5.127,12.16554-23.66846,27.83985-18.561,15.67528-30.70507,15.68066-6.40211,0-15.67286-10.56055-9.28052-10.56-9.27539-17.5996a302.69566,302.69566,0,0,1,3.19873-42.87989q3.19336-22.396,6.39649-44.16015-16.64136,21.76464-33.26367,43.51953Q2500.2561,536.63623,2483.62939,548.7959Z"/><path class="cls-1" d="M2827.13672,544.95605a56.64435,56.64435,0,0,0,17.91211-3.20019q28.14111-9.59911,29.42578-9.59961l9.5957,3.2002,3.19727,8.32031q0,16.00488-37.10156,28.7998-30.07619,10.229-51.1753,10.23926-9.59545,0-13.75342-.96-4.1682-.95947-27.82666-8.63965-27.512-7.68018-55.01367-15.36035-21.10986-10.875-21.10986-49.91992,0-56.95459,63.32959-120.31934,63.32959-63.36034,120.90185-63.36035,16.62746,0,25.90723,11.83984,9.26661,11.85059,9.27539,29.76075,0,17.27929-2.23828,25.91992a46.65131,46.65131,0,0,1-7.99609,16.31933q-11.51367,23.68506-22.38867,47.36036a212.03893,212.03893,0,0,1-42.22071,40.96,138.9172,138.9172,0,0,1-51.17529,23.04Q2797.06641,544.96191,2827.13672,544.95605Zm-55.01318-75.51953q0,10.88966,7.67626,10.87989,14.70777,0,45.419-36.48047,30.70459-36.479,30.70508-56.31934,0-12.7954-9.5957-12.80078-21.75587,0-47.97706,36.16016Q2772.11353,447.04151,2772.12354,469.43652Z"/><path class="cls-1" d="M3372.13867,700.47656q-4.48242,8.31006-34.543,20.47949-24.94922,9.6006-39.66113,13.44043l-8.956-3.20019-5.11719-10.87988q2.54883-24.95948,19.19043-65.91993,13.43408-32.00976,26.86719-64-5.75685-7.05029-11.51465-15.04-5.75684-7.99512-7.03711-15.04,2.54883-6.38966,18.55176-16,7.67724-4.4707,22.38964-11.52051,16.626-45.43506,33.90332-90.87988,34.54248-90.24024,54.374-132.4795,32.625-69.1201,51.81445-77.44043L3503.916,246.7168q-4.48389,44.80516-19.19141,94.71972-5.127,17.2793-30.70508,87.04-20.48,56.32471-30.0664,93.43946l5.11816,4.48046q59.49169-17.91064,106.8291-72.32031,50.52538-57.59911,50.53516-117.12012,0-77.42871-67.80664-115.19921-53.73487-30.07619-137.53516-30.08008-67.81055,0-106.18848,21.75976-30.70458,28.8003-61.41015,57.59961l-15.99317-6.39941c-.85937-1.7002-1.918-3.83984-3.19726-6.40039a20.21864,20.21864,0,0,1-1.91992-4.47949q0-10.23048.64062-17.91993a75.301,75.301,0,0,1,3.19727-16q42.8496-40.32129,111.30664-66.24023,68.44335-25.92041,129.21875-25.91992,95.95313,0,159.92285,49.27929,69.71631,53.76124,69.72656,146.56055,0,86.39942-40.94043,136.31934-30.706,37.771-99.792,67.20019-62.05518,25.60548-123.46094,51.2002-10.88524,27.50976-20.79,55.04-9.92577,27.50976-9.915,53.12011A119.41888,119.41888,0,0,0,3372.13867,700.47656Z"/><path class="cls-1" d="M3738.03906,578.23633q-13.43262,0-20.46972-15.04a72.33109,72.33109,0,0,1-7.03614-31.04q0-51.83936,87.957-125.75977,87.94776-73.9204,143.61133-73.91992a104.029,104.029,0,0,1,37.10157,7.04q24.94922,9.60059,24.94921,24.32031,0,21.76466-21.11132,83.83985-21.10841,62.08448-21.10938,96.63965,0,5.75976,3.51856,15.67968c2.33886,6.62012,3.72753,11.62012,4.1582,15.04a30.9245,30.9245,0,0,1-7.67676,13.12012q-5.75683,6.0747-12.793,6.08008a170.62175,170.62175,0,0,1-18.55176-1.59961,170.74293,170.74293,0,0,0-17.27148-1.60059q-12.8042,0-17.27246-19.83984-4.48242-19.8296-4.47754-47.36035V509.75586a93.12132,93.12132,0,0,1,.63965-11.51953q-26.23682,35.20458-68.7666,57.59961Q3780.88917,578.24659,3738.03906,578.23633Zm62.69043-58.24024q0,7.0503,5.75684,7.04,24.30468,0,81.88086-64,57.57129-63.99022,57.57226-88.32031c0-2.97949-2.34863-4.47949-7.03711-4.47949q-27.51123,0-82.83984,59.83984Q3800.72363,489.92676,3800.72949,519.99609Z"/><path class="cls-1" d="M4072.59082,571.83594q-5.7583,0-15.03223-7.35938a89.719,89.719,0,0,1-14.39355-13.76074l-1.2793-8.31934q0-62.06982,71.96582-136.64062,71.96485-74.54883,132.09571-74.55957a354.471,354.471,0,0,1,36.46289,1.91992,242.42333,242.42333,0,0,1,35.82226,6.40039l8.31641,10.24024q-18.561,83.20458-27.50684,119.03906-19.19091,78.09082-39.66113,139.52051-24.31786,74.23534-46.69727,108.16015-6.40135,9.59913-29.74609,18.87989-23.3584,9.26952-37.42187,9.28027-40.94532,0-71.64551-22.40039-34.54248-24.95947-34.544-64.63965,0-12.81006,14.71289-38.7207,14.71-25.91895,25.58789-25.91993,8.30567,1.92042,12.1543,2.56055,7.03125,8.95459,24.94824,58.87988,14.064,39.6753,37.74219,51.2002,10.87061-5.12988,31.34473-87.04,28.7871-113.91064,30.70507-120.32031-36.46289,32.00976-65.88867,49.28027Q4109.043,571.84619,4072.59082,571.83594Zm60.77051-62.71973,3.83789,7.67969q31.98046-14.71435,61.41113-44.15918,29.41552-29.43018,45.418-61.44043,4.46923-9.60058,9.5957-19.2002,7.67579-15.99023,7.67676-20.47949,0-5.11522-5.11816-5.12012-35.187,0-79.002,53.12012Q4133.35693,472.64648,4133.36133,509.11621Z"/><path class="cls-1" d="M4501.17578,544.95605a56.6331,56.6331,0,0,0,17.91016-3.20019q28.14258-9.59911,29.42676-9.59961l9.59472,3.2002,3.19922,8.32031q0,16.00488-37.10254,28.7998-30.0747,10.229-51.1748,10.23926-9.59619,0-13.75391-.96-4.169-.95947-27.82617-8.63965-27.5127-7.68018-55.01367-15.36035-21.11133-10.875-21.11035-49.91992,0-56.95459,63.3291-120.31934,63.331-63.36034,120.90234-63.36035,16.62744,0,25.9082,11.83984,9.26514,11.85059,9.27539,29.76075,0,17.27929-2.23925,25.91992a46.65151,46.65151,0,0,1-7.9961,16.31933q-11.51513,23.68506-22.38965,47.36036a212.02983,212.02983,0,0,1-42.21875,40.96,138.93362,138.93362,0,0,1-51.17578,23.04Q4471.10352,544.96191,4501.17578,544.95605Zm-55.01367-75.51953q0,10.88966,7.67578,10.87989,14.707,0,45.418-36.48047,30.706-36.479,30.70508-56.31934,0-12.7954-9.59473-12.80078-21.7544,0-47.97754,36.16016Q4446.15186,447.04151,4446.16211,469.43652Z"/><path class="cls-1" d="M4745.53027,387.5166q16.62744,27.52442,29.7461,51.51953,13.103,24,13.11426,44.48047,0,41.60889-43.5,69.75977-38.38185,24.95947-82.51954,24.96-20.48143,0-35.82324-5.75977-22.39893-8.31006-22.38965-24.96,0-15.36034,16.3125-36.48047t31.02539-21.12011q12.78809,0,25.90723,22.7207,13.103,22.72411,23.34863,22.71973,7.67578,0,7.67578-10.24024,0-38.39942-22.38867-71.67969-22.39891-33.271-22.38867-43.5205,0-23.03907,43.17871-59.83985,43.1792-36.79393,68.12793-36.7998a40.48051,40.48051,0,0,1,19.18945,5.12011q9.5962,5.1299,9.59571,14.08008,0,19.84423-3.83789,32.63965-5.75684,20.49024-21.10938,20.48047-9.59619,0-15.99219-3.52051-6.40283-3.50976-13.43359-11.19922A42.5365,42.5365,0,0,0,4745.53027,387.5166Z"/></g><g id="soulignage"><g id="Marque_Page_Main" data-name="Marque Page Main"><path class="cls-2" d="M4717.67537,885.70084H823.83578A11.3691,11.3691,0,0,1,812.5,874.36507V835.63449a11.3691,11.3691,0,0,1,11.33578-11.33578H4717.67537"/><path class="cls-2" d="M4715.25814,824.29912h92.37a4.88885,4.88885,0,0,1,4.47248,2.71913,3.48333,3.48333,0,0,1,.38878,1.66651,3.9348,3.9348,0,0,1-1.45848,3.07027l-25.6691,23.24518,25.6691,23.24517a3.87577,3.87577,0,0,1,1.06969,4.73678,4.88818,4.88818,0,0,1-4.47249,2.71913h-92.37"/></g></g><g id="icons"><g id="book_1"><path class="cls-3" d="M493.56048,372.00127l-384-53.333a10.474,10.474,0,0,0-8.533,2.517,10.6661,10.6661,0,0,0-3.605,8.149v362.667a59.22059,59.22059,0,0,0,54.241,63.814q1.9005.1545,3.807.186h336.618a10.66728,10.66728,0,0,0,10.667-10.667v-362.667A10.666,10.666,0,0,0,493.56048,372.00127Z"/><path class="cls-4" d="M214.75547,382.66727h-48.619a57.59985,57.59985,0,0,1-58.048-53.333v-21.333a57.5991,57.5991,0,0,1,58.048-53.333h325.952c-28.011,28.011-27.563,100.437,0,128h-277.333Z"/><path class="cls-5" d="M492.08846,393.33427h-325.952a68.26733,68.26733,0,0,1-68.715-64v-21.333a68.26733,68.26733,0,0,1,68.715-64h325.952a10.66671,10.66671,0,0,1,7.552,18.219c-23.744,23.744-23.744,89.173,0,112.917a10.66649,10.66649,0,0,1-7.552,18.197Zm-325.952-128a46.93282,46.93282,0,0,0-47.381,42.667v21.333a46.93358,46.93358,0,0,0,47.381,42.667h305.664a131.222,131.222,0,0,1,0-106.667Z"/><path class="cls-6" d="M353.42248,318.66727v53.333h-149.334v-53.333a10.66728,10.66728,0,0,1,10.667-10.667h128A10.66793,10.66793,0,0,1,353.42248,318.66727Z"/><path class="cls-7" d="M353.42248,372.00127v202.667a10.66684,10.66684,0,0,1-6.613,9.813,9.23149,9.23149,0,0,1-4.053.853,10.00654,10.00654,0,0,1-7.467-3.2l-56.533-56.32-56.533,56.32a10.114,10.114,0,0,1-11.52,2.347,10.66528,10.66528,0,0,1-6.613-9.813v-202.667Z"/><path class="cls-5" d="M470.75545,329.33427h-309.333a10.667,10.667,0,0,1,0-21.334h309.333a10.667,10.667,0,1,1,0,21.334Z"/><path d="M492.08846,756.00126h-336.618a59.22122,59.22122,0,0,1-58.234-60.193q.0315-1.90648.186-3.807v-362.667a10.667,10.667,0,1,1,21.334,0v362.667a38.12336,38.12336,0,0,0,33.288,42.41q1.707.20549,3.427.257h325.952v-352a10.667,10.667,0,0,1,21.334,0v362.667A10.67,10.67,0,0,1,492.08846,756.00126Z"/><path d="M492.08846,393.33427h-149.333a10.667,10.667,0,0,1,0-21.334h129.045a131.222,131.222,0,0,1,0-106.667h-305.664a46.93282,46.93282,0,0,0-47.381,42.667v21.333a46.9336,46.9336,0,0,0,47.381,42.667h48.619a10.667,10.667,0,1,1,0,21.334h-48.619a68.26734,68.26734,0,0,1-68.715-64v-21.333a68.26733,68.26733,0,0,1,68.715-64h325.952a10.66671,10.66671,0,0,1,7.552,18.219c-23.744,23.744-23.744,89.173,0,112.917a10.66649,10.66649,0,0,1-7.552,18.197Z"/><path d="M470.75545,329.33427h-309.333a10.667,10.667,0,0,1,0-21.334h309.333a10.667,10.667,0,1,1,0,21.334Z"/><path d="M342.75545,585.33427a10.66335,10.66335,0,0,1-7.552-3.115l-56.448-56.469-56.448,56.469a10.667,10.667,0,0,1-18.219-7.552v-256a10.667,10.667,0,0,1,21.334,0v230.251l45.781-45.781a10.66722,10.66722,0,0,1,15.083,0l45.803,45.781v-230.251a10.667,10.667,0,1,1,21.334,0v256A10.66875,10.66875,0,0,1,342.75545,585.33427Z"/></g><g id="book_3"><path class="cls-3" d="M5291.85817,697.00877a34.98868,34.98868,0,0,1-34.98735-34.99278v32.96335a34.98749,34.98749,0,0,0,34.98735,34.98737h258.06758a11.66364,11.66364,0,0,0,11.66245-11.66244V296.11276a11.66365,11.66365,0,0,0-11.66245-11.66246H5538.2633V685.34637a11.66363,11.66363,0,0,1-11.66245,11.66244H5291.85819Z"/><path class="cls-3" d="M4952.15348,296.1182V718.31513a11.66362,11.66362,0,0,0,11.66244,11.66244h258.06755a34.98748,34.98748,0,0,0,34.98735-34.98733V662.02689a34.98749,34.98749,0,0,1-34.98735,34.98737H4987.14081a11.66362,11.66362,0,0,1-11.66244-11.66244V284.45573h-11.66245A11.65674,11.65674,0,0,0,4952.15348,296.1182Z"/><path class="cls-7" d="M5012.30028,246.28083V355.51821a5.83139,5.83139,0,0,0,9.76291,4.30781l23.79575-21.72841,23.79574,21.72841a5.83139,5.83139,0,0,0,9.76291-4.30781V246.28082Z"/><path d="M4963.81051,279.03852a17.09481,17.09481,0,0,0-17.06884,17.07968V730.132a5.24662,5.24662,0,0,0,5.24662,5.24662h269.89518a40.39626,40.39626,0,0,0,34.98735-20.28888,40.38961,40.38961,0,0,0,34.98735,20.28888h269.8952A5.24662,5.24662,0,0,0,5567,730.132V284.28513a5.24663,5.24663,0,0,0-5.24662-5.24663h-18.07828V246.11563a5.24663,5.24663,0,0,0-5.24663-5.24663H5291.85817a40.39624,40.39624,0,0,0-34.98735,20.28888,40.38957,40.38957,0,0,0-34.98735-20.28888h-246.5757a5.24662,5.24662,0,0,0-5.24662,5.24662V279.0385h-6.25064Zm287.64876,394.81086a17.74732,17.74732,0,0,1-17.74733,17.74766H4980.89022V672.66112a16.94386,16.94386,0,0,0,6.25063,1.22306h234.74266a40.2506,40.2506,0,0,0,29.57552-12.97213ZM5073.995,251.69266V355.51823l-.70352.30847-23.79575-21.72841a5.40069,5.40069,0,0,0-7.29516,0l-23.79574,21.72841a.34759.34759,0,0,1-.45459.07577l-.23271-104.20982Zm147.88854,0a29.61189,29.61189,0,0,1,29.57554,29.57554V645.31263a17.74792,17.74792,0,0,1-17.74792,17.74793H4980.89026V251.69264h25.99293V355.51821a11.24066,11.24066,0,0,0,18.82226,8.30172l20.14816-18.39473,20.14817,18.39473a11.15971,11.15971,0,0,0,7.53864,2.96567c4.18887,0,8.45723-2.355,11.289-7.49922V251.69265h137.05407Zm310.968,0V663.05511h-36.57212c-5.44772,4.76347-2.13159,10.82363,2.59137,10.82363h27.73012a16.94382,16.94382,0,0,0,6.25063-1.22306v18.93592h-252.821a17.74789,17.74789,0,0,1-17.74789-17.74788V660.90664a40.25066,40.25066,0,0,0,29.57554,12.97213h124.31922c5.44773-4.76346,2.13157-10.82362-2.59138-10.82362H5280.036a17.74791,17.74791,0,0,1-17.74791-17.74791V269.44056a17.74791,17.74791,0,0,1,17.74791-17.74791ZM5262.28808,694.98483v-5.53629a40.25064,40.25064,0,0,0,29.57554,12.97212h246.5649a5.24662,5.24662,0,0,0,5.24662-5.24662V289.86755h12.50128V724.555H5291.85821A29.60263,29.60263,0,0,1,5262.28808,694.98483ZM4957.56529,724.555l0-434.6928h12.50127V697.16864a5.24662,5.24662,0,0,0,5.24662,5.24661h246.57029a40.25067,40.25067,0,0,0,29.57554-12.97212v17.36393a17.74789,17.74789,0,0,1-17.74788,17.74789Z"/><path d="M5437.33306,668.47232a5.41378,5.41378,0,0,0,5.41181,5.41181h26.97246a5.4118,5.4118,0,1,0,0-10.82361h-26.97246A5.41031,5.41031,0,0,0,5437.33306,668.47232Z"/><path d="M5488.68031,316.43411a5.41378,5.41378,0,0,0-5.41181-5.41181H5317.8836a5.41181,5.41181,0,0,0,0,10.82362h165.38489A5.41379,5.41379,0,0,0,5488.68031,316.43411Z"/><path d="M5488.68031,408.36994a5.41379,5.41379,0,0,0-5.41181-5.41181H5317.8836a5.41181,5.41181,0,0,0,0,10.82362h165.38489A5.41379,5.41379,0,0,0,5488.68031,408.36994Z"/><path d="M5488.68031,500.30035a5.41379,5.41379,0,0,0-5.41181-5.41181H5317.8836a5.41181,5.41181,0,0,0,0,10.82362h165.38489A5.41378,5.41378,0,0,0,5488.68031,500.30035Z"/><path d="M5488.68031,592.23617a5.41378,5.41378,0,0,0-5.41181-5.41181H5317.8836a5.41181,5.41181,0,0,0,0,10.82362h165.38489A5.41378,5.41378,0,0,0,5488.68031,592.23617Z"/><path d="M5206.97936,316.43411a5.41378,5.41378,0,0,0-5.41181-5.41181H5113.696a5.41181,5.41181,0,0,0,0,10.82362h87.87156A5.41378,5.41378,0,0,0,5206.97936,316.43411Z"/><path d="M5201.56759,413.78175a5.41181,5.41181,0,1,0,0-10.82362H5036.17724a5.41181,5.41181,0,1,0,0,10.82362h165.39035Z"/><path d="M5201.56759,505.71216a5.41181,5.41181,0,1,0,0-10.82362H5036.17724a5.41181,5.41181,0,1,0,0,10.82362h165.39035Z"/><path d="M5201.56759,597.648a5.41181,5.41181,0,1,0,0-10.82362H5036.17724a5.41181,5.41181,0,1,0,0,10.82362h165.39035Z"/></g></g><g id="Ancrage"><rect class="cls-8" x="5624" y="999" width="1" height="1"/><rect class="cls-8" x="5624" width="1" height="1"/><rect class="cls-8" y="999" width="1" height="1"/><rect class="cls-8" width="1" height="1"/></g></svg>