<svg xmlns="http://www.w3.org/2000/svg" viewBox="0 0 5625 1000"><title>logo_la_bonne_action_du_mois</title><g id="e7cd26aa-4e65-4f5c-ba9f-0399d7838f53" data-name="Texte"><path d="M1082.95459,122.8916Q1113.84082,87.79249,1164.23,87.792q50.38549,0,50.38525,34.79981a85.2455,85.2455,0,0,1-11.09668,42.90039,100.93647,100.93647,0,0,1-29.6914,32.69922q-36.59326,24.60938-85.77393,35.40039-12.00585,103.20409-35.38965,147.59961,55.17921,18.605,74.37793,23.70019a156.87812,156.87812,0,0,0,40.4878,5.10059q21.28418,0,29.09131-17.40039,7.78784-17.395,11.39648-17.40039,7.19751,0,7.19775,9,0,28.21-20.99365,48-21.00293,19.80028-45.58642,19.80078-25.19239,0-45.58643-8.40039-20.39794-8.40967-25.792-10.79981-5.39868-2.39062-21.89356-10.20019-16.50439-7.79-23.09277-10.79981-22.80322,24.00439-61.18164,24-15.605,0-27.5918-11.40039-12.00585-11.39062-11.99658-27,0-34.1997,38.98828-34.20019,16.78564,0,46.78613,7.80078,11.387-36,23.99268-130.80078-6.60719.605-17.69482.60058-11.10572,0-11.09668-3.60058,0-11.39062,31.19091-14.39942Q1052.05933,157.99171,1082.95459,122.8916Zm-79.47607,276.29981q-34.79443-14.98976-42.88721-15-8.09766,0-8.09766,8.40039,0,8.40966,7.49805,14.40039,7.49268,6.00439,19.49414,6Q991.47705,412.99219,1003.47852,399.19141Zm149.65478-211.5q24.88331-20.09473,24.89258-52.5,0-32.39941-22.19336-32.39942-48.58521,0-65.98,113.39942Q1128.23145,207.79639,1153.1333,187.69141Z" style="fill:#e8519d;stroke:#000;stroke-miterlimit:10;stroke-width:6px"/><path d="M1440.74365,438.792q-23.39281,0-35.38916-9.60058-4.20336-4.18946-4.19873-21.29981,0-17.09911,1.19971-45.89941-15.605,39.00879-30.89111,57.89941-15.29517,18.90089-39.28809,18.90039-23.99707,0-41.98731-22.5-17.99487-22.5-17.99462-70.7998,0-48.29151,27.292-85.5,27.2871-37.19532,71.67822-37.2002,19.18945,0,43.187,25.2002,4.7937-6.59619,17.09522-15.90039,12.28638-9.29591,20.99365-9.29981,8.688,0,8.69727,22.79981,0,6.00439-3.29883,23.40039-3.304,17.40821-7.49805,25.19922-5.39794,13.81054-5.39844,97.80078,0,16.1997,3.59912,16.19922,10.1924-.59034,28.19141-25.5,17.99487-24.89062,35.68945-63.89942,17.68506-38.99561,21.59327-39,3.89429,0,3.89892,4.79981,0,16.80468-17.39453,53.40039Q1473.1294,438.791,1440.74365,438.792Zm-73.17773-192q-16.8003,0-35.68946,24.89942-18.89428,24.90526-18.89453,58.5,0,33.60938,9.897,55.20019,9.89721,21.60059,26.09228,21.60059,19.79444,0,58.18262-99,.59032-4.79591,1.49951-16.5.90015-11.70117,1.49951-17.7002-5.39794-9.59033-18.894-18.2998Q1377.76245,246.80127,1367.56592,246.792Z" style="fill:#e8519d;stroke:#000;stroke-miterlimit:10;stroke-width:6px"/><path d="M1853.41162,228.792q27.58227,0,45.58594,20.09961,17.99487,20.10937,18.59473,56.10059a223.64154,223.64154,0,0,0,43.48681-17.40039q18.89428-10.19532,20.09424-10.2002c2.39893,0,3.59863,2.00684,3.59863,6q0,6.00439-17.09472,18.60059-17.09473,12.59911-51.28467,25.19922-7.19751,53.40966-43.187,82.5-35.989,29.10938-71.97852,29.10058-35.989,0-47.98535-26.70019-12.00587-26.69092-11.99658-84.29981a679.06257,679.06257,0,0,1,8.39746-109.20019q8.39281-51.59473,21.59375-81.29981,13.18652-29.6997,27.2915-45.60058,14.08668-15.89062,26.6919-15.89942,5.989,0,11.09668,14.39942,5.08959,14.40087,5.09863,35.40039,0,46.21-16.79492,108Q1836.00709,228.7959,1853.41162,228.792Zm-26.39209-92.40039q0-25.1997-6.59814-25.20019-5.39868,0-12.896,26.10058-7.50732,26.09913-13.7959,70.79981a633.80394,633.80394,0,0,0-6.29834,88.5Q1827.01929,184.40088,1827.01953,136.3916ZM1880.40332,336.792q-4.80762.605-20.09375.59961-15.2959,0-33.59033-10.5-18.30322-10.48974-24.89209-29.09961a239.43355,239.43355,0,0,1-13.7959,28.79981q1.19458,45.605,7.19775,65.40039,5.989,19.79883,19.19434,19.7998,20.989,0,41.0874-17.70019Q1875.60035,376.40088,1880.40332,336.792Zm-36.58887-86.40039q-8.40674,0-13.49609,5.10059-5.10279,5.10351-5.09863,13.5,0,18.60351,16.49511,30.89941,16.49049,12.3047,39.88819,12.29981-.60424-24.59474-9.59717-43.19922Q1863.00879,250.4004,1843.81445,250.3916Z" style="fill:#e8519d;stroke:#000;stroke-miterlimit:10;stroke-width:6px"/><path d="M2203.69824,305.5918q23.98315-7.79,33.29-13.5,9.29225-5.69532,14.0957-8.7002l7.19776-4.20019a10.251,10.251,0,0,1,4.79883-1.79981q4.7937,0,4.79834,5.40039,0,5.39941-18.59424,18.89942-18.59913,13.5-46.186,24.30078-4.20336,50.39941-31.79052,81.59961-27.59692,31.20409-78.57666,31.20019-37.19825,0-56.98291-29.70019-19.79371-29.69971-19.79395-69.59961,0-39.89649,23.69287-75.30078,23.688-35.395,60.88184-35.39942,16.78564-11.99561,39.88818-12,23.083,0,42.88672,24.59961Q2203.09863,266.001,2203.69824,305.5918ZM2164.71,336.19141l-21.59375,1.20019q-27.59619,0-46.78564-16.5-19.20411-16.49561-19.19434-36.2998,0-19.8003,6.59815-34.2002-25.79738,20.40528-25.79249,80.40039a129.84671,129.84671,0,0,0,11.99659,54.89942q11.99195,26.10058,37.78857,26.10058,25.78272,0,40.188-21.90039Q2162.3108,367.99658,2164.71,336.19141Zm-37.189-99.59961q-9.60132,0-14.99561,8.70019a35.19379,35.19379,0,0,0-5.39795,18.89942q0,22.20556,15.29541,36a51.568,51.568,0,0,0,35.689,13.80078h7.19775q-1.20849-29.39062-9.897-53.40039Q2146.7107,236.60059,2127.521,236.5918Z" style="fill:#e8519d;stroke:#000;stroke-miterlimit:10;stroke-width:6px"/><path d="M2341.05615,403.3916l.59961,18.60059q0,16.80468-9.59717,16.7998a96.93245,96.93245,0,0,1-27.59179-3.90039q-13.20045-3.895-13.1958-10.7998,0-6.89062,3.29882-47.40039,3.29-40.5,3.29932-60.89942V280.3916q0-28.80028,5.99805-34.7998,5.989-5.99121,21.29345-17.40039,15.2959-11.39062,22.19336-11.39942c4.59229,0,7.49805.80567,8.69727,2.39942q1.79956,2.40527,1.7998,9a151.68549,151.68549,0,0,1-11.99658,60q-3.00806,34.20117-2.999,47.40039,2.38989-3.60058,25.19238-40.79981,22.78857-37.19531,38.68848-54.60058,15.88549-17.395,28.49121-17.39942a33.82284,33.82284,0,0,1,22.49365,8.39942q9.89649,8.40966,9.897,21,0,26.40966-5.69824,77.70019-5.70775,51.3003-5.69873,64.79981,0,13.5,3.59912,13.5,10.19238-.59034,28.19141-25.5,17.99487-24.89062,35.68945-63.89942,17.68506-38.99561,21.59375-39,3.89356,0,3.89844,4.79981,0,16.80468-17.39453,53.40039Q2484.40821,438.791,2452.02246,438.792q-23.39282,0-35.38916-9.60058-4.20338-4.18946-4.19873-21.89942,0-17.69091,3.29883-57.60058,3.29-39.895,3.29931-59.69922,0-19.8003-6.89794-19.80078-6.90309,0-36.28907,41.10058-29.39574,41.105-31.19091,52.5A235.09136,235.09136,0,0,0,2341.05615,403.3916Z" style="fill:#e8519d;stroke:#000;stroke-miterlimit:10;stroke-width:6px"/><path d="M2623.56348,403.3916l.59961,18.60059q0,16.80468-9.59717,16.7998a96.93252,96.93252,0,0,1-27.5918-3.90039q-13.20043-3.895-13.1958-10.7998,0-6.89062,3.29883-47.40039,3.29-40.5,3.29931-60.89942V280.3916q0-28.80028,5.99805-34.7998,5.989-5.99121,21.29346-17.40039,15.29589-11.39062,22.19336-11.39942c4.59228,0,7.498.80567,8.69726,2.39942q1.79956,2.40527,1.79981,9a151.68549,151.68549,0,0,1-11.99658,60q-3.00805,34.20117-2.999,47.40039,2.38989-3.60058,25.19239-40.79981,22.78857-37.19531,38.68847-54.60058,15.88549-17.395,28.49121-17.39942a33.82288,33.82288,0,0,1,22.49366,8.39942q9.89647,8.40966,9.897,21,0,26.40966-5.69824,77.70019-5.70777,51.3003-5.69873,64.79981,0,13.5,3.59912,13.5,10.19238-.59034,28.1914-25.5,17.99488-24.89062,35.68946-63.89942,17.68578-38.99561,21.59326-39,3.895,0,3.89941,4.79981,0,16.80468-17.39551,53.40039Q2766.91577,438.791,2734.52979,438.792q-23.39283,0-35.38916-9.60058-4.20337-4.18946-4.19874-21.89942,0-17.69091,3.29883-57.60058,3.29-39.895,3.29932-59.69922,0-19.8003-6.898-19.80078-6.90307,0-36.28906,41.10058-29.39576,41.105-31.19092,52.5A235.0913,235.0913,0,0,0,2623.56348,403.3916Z" style="fill:#e8519d;stroke:#000;stroke-miterlimit:10;stroke-width:6px"/><path d="M2932.46191,438.792q-33.59911,0-53.38378-25.5a91.92282,91.92282,0,0,1-19.79395-57.90039q0-65.39062,27.5918-99,27.58154-33.59472,71.3789-33.59961,20.3833,0,33.58985,11.09961,13.18652,11.10938,13.19531,30.29981,0,36-30.29,60.30078-30.2959,24.29883-74.07812,25.5,2.38916,23.39941,15.8955,40.5,13.4956,17.09911,31.49024,17.09961a63.01267,63.01267,0,0,0,32.39062-8.40039q14.395-8.395,26.3916-24,25.1924-32.98976,43.1875-75,4.793-10.79883,7.49707-15.59961,2.69971-4.79591,5.99805-4.79981c2.19336,0,3.29981,1.60254,3.29981,4.79981q0,30.00879-36.58985,90Q2990.645,438.80176,2932.46191,438.792Zm-31.79-103.20019q35.38476-5.99121,51.88476-22.79981,16.48974-16.79149,16.49414-43.7998,0-27-17.39453-27-21.00292,0-35.38965,29.09961Q2901.87158,300.20117,2900.67188,335.5918Z" style="fill:#e8519d;stroke:#000;stroke-miterlimit:10;stroke-width:6px"/><path d="M3442.90332,438.792q-23.39355,0-35.38965-9.60058-4.20409-4.18946-4.19922-21.29981,0-17.09911,1.2002-45.89941-15.605,39.00879-30.89063,57.89941-15.29589,18.90089-39.28808,18.90039-23.99854,0-41.98828-22.5-17.99415-22.5-17.99414-70.7998,0-48.29151,27.292-85.5,27.2871-37.19532,71.67871-37.2002,19.18946,0,43.18652,25.2002,4.79443-6.59619,17.09473-15.90039,12.28711-9.29591,20.99414-9.29981,8.688,0,8.69727,22.79981,0,6.00439-3.29883,23.40039-3.3047,17.40821-7.49805,25.19922-5.39794,13.81054-5.39844,97.80078,0,16.1997,3.59864,16.19922,10.19238-.59034,28.19238-25.5,17.99413-24.89062,35.68847-63.89942,17.68653-38.99561,21.59375-39,3.895,0,3.89942,4.79981,0,16.80468-17.39551,53.40039Q3475.28809,438.791,3442.90332,438.792Zm-73.17871-192q-16.79883,0-35.68945,24.89942-18.89356,24.90526-18.89356,58.5,0,33.60938,9.89649,55.20019,9.89794,21.60059,26.09277,21.60059,19.793,0,58.18262-99,.59033-4.79591,1.499-16.5.89942-11.70117,1.5-17.7002-5.39942-9.59033-18.89453-18.2998Q3379.92237,246.80127,3369.72461,246.792Z" style="fill:#e8519d;stroke:#000;stroke-miterlimit:10;stroke-width:6px"/><path d="M3671.43164,289.99219l4.79785-30.60059a19.12509,19.12509,0,0,0-4.19824-12,13.09,13.09,0,0,0-10.79687-5.39941q-22.19824,0-38.38868,33.2998-16.1953,33.3003-16.19531,63.89942,0,30.60058,12.59668,49.5,12.59619,18.90087,30.89063,18.90039,18.29,0,32.69043-8.40039,14.395-8.395,26.3916-24,25.19238-32.98976,43.1875-75,4.793-10.79883,7.49707-15.59961,2.6997-4.79591,5.999-4.79981c2.19238,0,3.29883,1.60254,3.29883,4.79981q0,19.80029-13.7959,47.40039-13.80615,27.60351-23.09277,42.2998a241.87712,241.87712,0,0,1-23.69336,30.89942q-30,33.60938-74.97754,33.60058-34.18946,0-51.88477-24.2998-17.69825-24.3003-17.69433-51.90039,0-68.39941,29.6914-104.09961,29.69093-35.69092,75.27735-35.7002,19.18946,0,30.291,9.89942,11.09179,9.90087,11.09668,22.5,0,23.40087-8.39746,34.80078-8.40674,11.40381-20.39453,11.39941Q3671.42237,301.3916,3671.43164,289.99219Z" style="fill:#e8519d;stroke:#000;stroke-miterlimit:10;stroke-width:6px"/><path d="M3929.95117,337.99219Q3882.56055,438.791,3849.876,438.792q-32.69971,0-38.38868-7.7998-5.70849-7.79151-5.69824-51.60059,0-43.79,8.39746-126.59961-29.98682-5.99121-31.791-24.60058,0-9.59034,12.59668-9.59961a49.04731,49.04731,0,0,1,22.19336,4.7998q5.39794-43.1997,12.5957-87.59961,1.8003-11.39062,11.39648-21.60058,9.58887-10.19532,18.59473-10.19922,7.78857,0,7.79785,24.59961,0,11.40527-8.39746,105,16.19532-2.99561,35.68945-12,19.48389-9,23.09278-9,10.79736,0,10.79687,6.59961.59034,6.00585-22.19336,16.5a224.785,224.785,0,0,1-49.18554,15.90039q-7.19825,87.60937-7.19727,132.59961,0,24.00585,7.19727,24,10.79736-.59034,28.792-25.19922,17.99413-24.59619,35.68848-63.90039,17.68651-39.29,21.59375-39.29981,3.895,0,3.89941,4.79981Q3947.34668,301.39648,3929.95117,337.99219Z" style="fill:#e8519d;stroke:#000;stroke-miterlimit:10;stroke-width:6px"/><path d="M4015.71875,438.792q-23.39209,0-35.38867-9.60058-4.20411-4.18946-4.19922-30,0-25.79,3.89844-86.09961,3.895-60.3003,6.89843-65.09961,2.99415-4.79591,18.59473-18,15.59034-13.19092,24.292-13.2002,8.688,0,8.69727,22.79981,0,6.00439-3.29883,23.40039-3.30322,17.40821-7.49707,25.19922-7.80323,19.80028-7.79785,103.80078,0,16.1997,3.59863,16.19922,10.19238-.59034,28.19141-25.5,17.99414-24.89062,35.68945-63.89942,17.68506-38.99561,21.59375-39,3.89355,0,3.89844,4.79981,0,16.80468-17.39453,53.40039Q4048.1045,438.791,4015.71875,438.792ZM3998.32422,142.3916q0-10.80029,11.39648-18.59961,11.3877-7.79149,20.39356-7.7998,16.19531,0,16.19531,18.59961,0,18.605-9.59668,32.09961-9.60205,13.5-26.99219,13.5Q3998.31983,180.19141,3998.32422,142.3916Z" style="fill:#e8519d;stroke:#000;stroke-miterlimit:10;stroke-width:6px"/><path d="M4328.81836,305.5918q23.98242-7.79,33.28906-13.5,9.293-5.69532,14.09668-8.7002l7.19727-4.20019a10.2474,10.2474,0,0,1,4.79883-1.79981q4.793,0,4.79882,5.40039,0,5.39941-18.59472,18.89942-18.59913,13.5-46.18653,24.30078-4.20263,50.39941-31.79,81.59961-27.59619,31.20409-78.57617,31.20019-37.19824,0-56.9834-29.70019-19.79442-29.69971-19.79394-69.59961,0-39.89649,23.69336-75.30078,23.688-35.395,60.88086-35.39942,16.78564-11.99561,39.88867-12,23.083,0,42.88672,24.59961Q4328.21826,266.001,4328.81836,305.5918Zm-38.98828,30.59961-21.59375,1.20019q-27.59619,0-46.78613-16.5-19.20411-16.49561-19.19434-36.2998,0-19.8003,6.59766-34.2002-25.7959,20.40528-25.792,80.40039a129.84624,129.84624,0,0,0,11.9961,54.89942q11.99267,26.10058,37.78906,26.10058,25.78272,0,40.1875-21.90039Q4287.43067,367.99658,4289.83008,336.19141Zm-37.18945-99.59961q-9.60205,0-14.99512,8.70019a35.18574,35.18574,0,0,0-5.39844,18.89942q0,22.20556,15.29492,36a51.57084,51.57084,0,0,0,35.68946,13.80078h7.19824q-1.21-29.39062-9.89746-53.40039Q4271.83106,236.60059,4252.64063,236.5918Z" style="fill:#e8519d;stroke:#000;stroke-miterlimit:10;stroke-width:6px"/><path d="M4466.17578,403.3916l.59961,18.60059q0,16.80468-9.59668,16.7998a96.92756,96.92756,0,0,1-27.5918-3.90039q-13.20117-3.895-13.19628-10.7998,0-6.89062,3.29882-47.40039,3.29-40.5,3.29883-60.89942V280.3916q0-28.80028,5.99805-34.7998,5.98974-5.99121,21.29394-17.40039,15.2959-11.39062,22.19336-11.39942c4.59278,0,7.498.80567,8.69727,2.39942q1.80028,2.40527,1.7998,9a151.69371,151.69371,0,0,1-11.99609,60q-3.00879,34.20117-3,47.40039,2.39063-3.60058,25.19336-40.79981,22.78711-37.19531,38.6875-54.60058,15.88623-17.395,28.49219-17.39942a33.82251,33.82251,0,0,1,22.49316,8.39942q9.89649,8.40966,9.89648,21,0,26.40966-5.69824,77.70019-5.707,51.3003-5.69824,64.79981,0,13.5,3.59961,13.5,10.19092-.59034,28.19141-25.5,17.99413-24.89062,35.68945-63.89942,17.68506-38.99561,21.59277-39,3.895,0,3.89942,4.79981,0,16.80468-17.39551,53.40039Q4609.52881,438.791,4577.14258,438.792q-23.39355,0-35.38965-9.60058-4.20409-4.18946-4.19922-21.89942,0-17.69091,3.29981-57.60058,3.28857-39.895,3.29882-59.69922,0-19.8003-6.89843-19.80078-6.90236,0-36.28907,41.10058-29.395,41.105-31.19043,52.5A235.04138,235.04138,0,0,0,4466.17578,403.3916Z" style="fill:#e8519d;stroke:#000;stroke-miterlimit:10;stroke-width:6px"/><path d="M1904.09375,888.79785q-20.39868,0-31.79053-9-4.80762-4.79589-4.79834-25.20019,0-20.39062,1.79932-53.39942-16.19532,43.19971-32.99024,65.39942-16.79955,22.20557-42.2871,22.20019-25.5022,0-43.187-22.20019-17.6997-22.19092-17.69482-70.79981,0-48.60059,27.292-85.7998,27.28711-37.19532,71.67822-37.2002,21.594,0,44.98682,16.79981,9.5874-117,17.39453-132,3.59913-6.59474,17.09473-19.2002,13.49634-12.59911,22.49365-12.59961,8.99708,0,8.99707,28.2002,0,33.0044-5.998,57-16.19531,61.80468-20.394,78.59961-8.40673,64.80029-8.39746,152.40039,0,16.1997,3.59912,16.20019,10.79664-.5918,28.791-25.20019,17.99487-24.59619,35.68945-63.90039,17.68506-39.29,21.59326-39.29981,3.89428,0,3.89893,4.79981,0,16.80468-17.39453,53.40039Q1937.07911,888.79834,1904.09375,888.79785ZM1828.5166,694.39746q-16.1953,0-32.39062,25.80078-16.19458,25.80469-16.19483,59.69922,0,33.90528,8.69727,55.5,8.688,21.60059,21.89355,21.60059,26.99194,0,61.78125-108,2.99415-32.99121,2.999-39Q1857.89844,694.40186,1828.5166,694.39746Z" style="fill:#e8519d;stroke:#000;stroke-miterlimit:10;stroke-width:6px"/><path d="M2029.45459,833.59766l3.59912-67.2002q0-64.19531,5.99805-70.19922,5.989-5.99121,21.29345-17.70019,15.29591-11.69971,22.19336-11.7002c4.59229,0,7.498.80664,8.69727,2.40039q1.79957,2.40381,1.7998,9.59961,0,25.80469-11.39648,52.2002-8.9978,55.20849-8.99756,90.59961,0,35.40966,11.39649,35.40039,13.79149,0,32.39062-24,18.58448-23.99121,37.18848-71.40039,5.39868-59.98975,8.69775-64.79981,3.2893-4.79589,16.49463-17.40039,13.18725-12.59911,21.89356-12.59961,8.688,0,8.69726,22.79981,0,6.0044-3.29883,23.40039-3.30395,17.40966-7.49756,25.20019-6.6079,16.80469-6.59814,103.79981,0,16.1997,3.59912,16.20019,10.19164-.5918,28.19141-25.5,17.99414-24.89062,35.689-63.90039,17.6858-38.9956,21.59375-39,3.89429,0,3.89893,4.79981,0,16.80468-17.395,53.40039-47.39062,100.80029-79.77588,100.7998-23.39283,0-35.38965-9.59961-4.20338-4.19091-4.19873-25.80078,0-21.59911,1.7998-48-19.2041,40.81055-38.38867,62.10059-19.20336,21.30468-42.8872,21.2998-23.7019,0-31.49024-12.59961Q2029.45,863.59766,2029.45459,833.59766Z" style="fill:#e8519d;stroke:#000;stroke-miterlimit:10;stroke-width:6px"/><path d="M2537.49023,853.39746l.59961,18.60059q0,16.80468-9.59716,16.7998a96.89781,96.89781,0,0,1-27.5918-3.90039q-13.20044-3.895-13.1958-10.7998,0-6.89062,3.29883-47.39942,3.29-40.5,3.29931-60.90039V730.39746q0-28.79883,5.99805-34.7998,5.989-5.98975,21.29346-17.39942,15.29589-11.39062,22.19336-11.40039c4.59277,0,7.498.80664,8.69775,2.40039q1.79883,2.40381,1.79932,9a151.68889,151.68889,0,0,1-11.99659,60q-3.00806,34.19971-2.999,47.39942,31.78565-59.39941,44.38672-78,22.18433-34.79,40.188-34.79981,11.387,0,21.29345,9a28.8319,28.8319,0,0,1,9.897,22.2002q0,13.20409-.29981,24.89941-.30907,11.70117-.89941,18.30078c-.40332,4.40625-.6001,7.19922-.6001,8.39942q2.38989-4.79443,20.394-27,17.99415-22.19092,24.29248-28.79981,6.29811-6.59472,13.4961-13.20019,13.79077-13.79443,24.89258-13.79981,11.0918,0,20.99365,8.40039,9.89721,8.4082,9.897,21,0,26.4082-5.69824,77.69922-5.70777,51.3003-5.69824,64.80078,0,13.5,3.59863,13.5,10.19238-.5918,28.19189-25.5,17.99415-24.89062,35.68946-63.90039,17.68506-38.9956,21.59277-39,3.895,0,3.89942,4.79981,0,16.80468-17.39454,53.40039Q2784.011,888.79834,2751.626,888.79785q-20.39868,0-32.39014-9.59961-4.20409-4.19091-4.19873-21.90039,0-17.69091,3.29883-57.59961,3.2893-39.89648,3.29883-59.70019,0-19.8003-6.59766-19.79981-7.80249,0-33.89014,26.39942-26.09179,26.40966-27.8916,37.20019-3.59911,20.40528-3.59912,88.2002,0,16.80468-8.99707,16.7998a85.81938,85.81938,0,0,1-26.09229-3.90039q-12.301-3.895-12.29638-10.7998,0-6.89062,3.59912-59.09961,3.59911-52.19971,3.59912-73.5,0-21.29151-6.898-21.29981-6.90307,0-33.29,41.09961-26.40161,41.105-29.09131,57.29981A211.92552,211.92552,0,0,0,2537.49023,853.39746Z" style="fill:#e8519d;stroke:#000;stroke-miterlimit:10;stroke-width:6px"/><path d="M3060.52832,755.59766q23.98242-7.79,33.28906-13.5,9.293-5.69532,14.09668-8.7002l7.19727-4.19922a10.24029,10.24029,0,0,1,4.79883-1.80078q4.793,0,4.79882,5.40039,0,5.39941-18.59472,18.90039-18.59913,13.5-46.18653,24.29981-4.20263,50.39941-31.79,81.59961-27.59621,31.20557-78.57618,31.20019-37.19823,0-56.98339-29.70019-19.79443-29.69971-19.79395-69.59961,0-39.895,23.69336-75.29981,23.688-35.39648,60.88086-35.40039,16.78564-11.9956,39.88867-12,23.083,0,42.88672,24.59961Q3059.92823,716.00684,3060.52832,755.59766ZM3021.54,786.19824l-21.59375,1.19922q-27.59619,0-46.78613-16.5-19.20411-16.49414-19.19434-36.2998,0-19.8003,6.59766-34.2002-25.7959,20.40528-25.792,80.40039a129.85377,129.85377,0,0,0,11.9961,54.90039q11.99268,26.09913,37.78906,26.09961,25.78272,0,40.1875-21.90039Q3019.14063,818.00244,3021.54,786.19824Zm-37.18945-99.60058q-9.60206,0-14.99512,8.70019a35.189,35.189,0,0,0-5.39844,18.90039q0,22.20411,15.29492,36a51.57434,51.57434,0,0,0,35.68946,13.79981h7.19824q-1.21-29.39062-9.89746-53.40039Q3003.541,686.60791,2984.35059,686.59766Z" style="fill:#e8519d;stroke:#000;stroke-miterlimit:10;stroke-width:6px"/><path d="M3190.68848,888.79785q-23.39209,0-35.38868-9.59961-4.2041-4.19091-4.19921-30,0-25.7915,3.89843-86.10058,3.895-60.3003,6.89844-65.09961,2.99413-4.79591,18.59473-18,15.59033-13.19092,24.292-13.2002,8.688,0,8.69727,22.79981,0,6.0044-3.29883,23.40039-3.30323,17.40966-7.49707,25.20019-7.80323,19.79883-7.79785,103.79981,0,16.1997,3.59863,16.20019,10.19238-.5918,28.1914-25.5,17.99415-24.89062,35.68946-63.90039,17.68506-38.9956,21.59375-39,3.89355,0,3.89844,4.79981,0,16.80468-17.39454,53.40039Q3223.07422,888.79834,3190.68848,888.79785ZM3173.294,592.39746q0-10.79883,11.39648-18.59961,11.3877-7.79,20.39355-7.7998,16.19532,0,16.19532,18.59961,0,18.605-9.59668,32.10058-9.60205,13.5-26.99219,13.5Q3173.28955,630.19824,3173.294,592.39746Z" style="fill:#e8519d;stroke:#000;stroke-miterlimit:10;stroke-width:6px"/><path d="M3404.81641,702.19824l1.19922-9q0-10.80029-12.2959-10.80078-12.30177,0-23.69336,15.90039-11.40089,15.90528-11.39649,26.09961a85.69241,85.69241,0,0,0,1.2002,16.2002,61.271,61.271,0,0,0,2.69922,9.90039,49.171,49.171,0,0,0,5.09863,9.2998q3.59766,5.39941,5.39746,7.79981l6.59863,8.40039a68.29321,68.29321,0,0,0,5.998,7.7998q31.18067-25.79,74.37793-57.59961a8.74335,8.74335,0,0,1,5.39844-1.80078q5.98828,0,5.998,6.60059a11.55042,11.55042,0,0,1-5.39843,10.20019,692.62456,692.62456,0,0,0-72.57813,53.39942,72.67449,72.67449,0,0,1,13.19629,42q0,22.80908-17.39551,39-17.40381,16.1997-44.38672,16.20019-26.99121,0-26.99121-25.7998,0-18.59034,39.58789-57-3.00879-3.60059-10.79687-11.7002-7.80175-8.10059-11.69629-12.90039-3.9082-4.79443-9.29785-12.59961a58.95123,58.95123,0,0,1-9.59668-32.40039q0-35.395,22.793-57.2998,22.78857-21.895,48.58594-21.89942,16.19531,0,25.19238,8.69922,8.99706,8.70557,8.99707,17.7002,0,20.40526-9.59668,20.40039Q3404.8164,706.99805,3404.81641,702.19824Zm-38.38868,118.19922q-23.99706,24.00586-23.99316,38.7002,0,14.71,14.99609,14.70019a18.73894,18.73894,0,0,0,14.99512-7.20019Q3385.61231,848.59766,3366.42773,820.39746Z" style="fill:#e8519d;stroke:#000;stroke-miterlimit:10;stroke-width:6px"/><path d="M3727.50977,890.89746q-8.40675-5.70849-8.09766-18.89941.2959-13.19092,11.99609-20.7002,11.69677-7.4956,21.89356-7.5,10.19238,0,17.09472,5.7002a17.63347,17.63347,0,0,1,6.89844,14.09961q0,33.0044-32.39062,33A30.5852,30.5852,0,0,1,3727.50977,890.89746Zm68.97949-346.7998a20.05791,20.05791,0,0,1,6.59765,15,114.93193,114.93193,0,0,1-1.19921,16.7998q-1.21,8.10059-3.89942,19.2002-2.69825,11.10938-5.99805,29.70019-3.30321,18.605-12.8955,80.40039-9.60205,61.80469-13.7959,85.79981a21.91564,21.91564,0,0,1-5.69824,10.20019q-4.5,4.80909-9.29786,4.79981-13.1997,0-13.19628-23.40039,0-37.8003,1.7998-63.89942,1.8003-26.10059,2.39941-48.90039.59034-49.79589,6.29786-74.09961,5.69383-24.30029,16.19531-41.10058,10.48828-16.79,20.69433-16.79981Q3789.89112,537.79785,3796.48926,544.09766Z" style="fill:#e8519d;stroke:#000;stroke-miterlimit:10;stroke-width:6px"/></g><g id="e666e484-cebc-4c77-a8c0-154a8f8dbf27" data-name="icons"><g id="ab38d794-4112-486c-974c-c483f99906aa" data-name="calendar"><path d="M5514.59961,266.33789V373.11523H4894.73633V266.33789a41.612,41.612,0,0,1,41.60156-41.60156h536.66016a41.61205,41.61205,0,0,1,41.60156,41.60156Z" style="fill:#f66"/><path d="M5061.14258,224.73633v77.65625a13.87225,13.87225,0,0,1-13.86719,13.86719h-63.78906a13.87226,13.87226,0,0,1-13.86719-13.86719V224.73633Z" style="fill:#c03"/><path d="M5417.5293,224.73633v77.65625a13.87227,13.87227,0,0,1-13.86719,13.86719h-63.78906a13.87226,13.87226,0,0,1-13.86719-13.86719V224.73633Z" style="fill:#c03"/><path d="M4916.92383,229.54824v143.567h-22.1875V266.33789A41.55066,41.55066,0,0,1,4916.92383,229.54824Z" style="fill:#fc4755"/><path d="M5008.44727,456.06876h71.34667a6.93434,6.93434,0,0,1,6.93359,6.93359v71.3467a6.93435,6.93435,0,0,1-6.93359,6.93359h-71.34667a6.93436,6.93436,0,0,1-6.9336-6.93359V463.00238a6.93434,6.93434,0,0,1,6.9336-6.9336Z" style="fill:#e6e6e6"/><path d="M5008.44727,562.08338h71.34667a6.93436,6.93436,0,0,1,6.93359,6.9336v71.36053a6.93436,6.93436,0,0,1-6.93359,6.9336h-71.34667a6.93436,6.93436,0,0,1-6.9336-6.9336V569.017A6.93436,6.93436,0,0,1,5008.44727,562.08338Z" style="fill:#e6e6e6"/><path d="M5008.44727,668.11193h71.34667a6.93435,6.93435,0,0,1,6.93359,6.93359v71.3467a6.93435,6.93435,0,0,1-6.93359,6.93359h-71.34667a6.93436,6.93436,0,0,1-6.9336-6.93359v-71.3467A6.93436,6.93436,0,0,1,5008.44727,668.11193Z" style="fill:#e6e6e6"/><path d="M5114.46191,456.06876H5187.334a6.93434,6.93434,0,0,1,6.9336,6.93359v71.3467a6.93436,6.93436,0,0,1-6.9336,6.93359h-72.87207a6.93435,6.93435,0,0,1-6.93359-6.93359V463.00238a6.93434,6.93434,0,0,1,6.93359-6.9336Z" style="fill:#e6e6e6"/><path d="M5114.46191,562.08338H5187.334a6.93436,6.93436,0,0,1,6.9336,6.9336v71.36053a6.93436,6.93436,0,0,1-6.9336,6.9336h-72.87207a6.93436,6.93436,0,0,1-6.93359-6.9336V569.017A6.93436,6.93436,0,0,1,5114.46191,562.08338Z" style="fill:#e6e6e6"/><path d="M5114.46191,668.11193H5187.334a6.93436,6.93436,0,0,1,6.9336,6.93359v71.3467a6.93436,6.93436,0,0,1-6.9336,6.93359h-72.87207a6.93435,6.93435,0,0,1-6.93359-6.93359v-71.3467A6.93435,6.93435,0,0,1,5114.46191,668.11193Z" style="fill:#e6e6e6"/><path d="M5222.002,456.06876H5294.874a6.93435,6.93435,0,0,1,6.93359,6.93359v71.3467a6.93437,6.93437,0,0,1-6.93359,6.93359H5222.002a6.93437,6.93437,0,0,1-6.93359-6.93359V463.00238a6.93436,6.93436,0,0,1,6.93359-6.9336Z" style="fill:#e6e6e6"/><path d="M5222.002,562.08338H5294.874a6.93437,6.93437,0,0,1,6.93359,6.9336v71.36053a6.93437,6.93437,0,0,1-6.93359,6.9336H5222.002a6.93437,6.93437,0,0,1-6.93359-6.9336V569.017A6.93437,6.93437,0,0,1,5222.002,562.08338Z" style="fill:#e6e6e6"/><path d="M5222.002,668.11193H5294.874a6.93437,6.93437,0,0,1,6.93359,6.93359v71.3467a6.93437,6.93437,0,0,1-6.93359,6.93359H5222.002a6.93437,6.93437,0,0,1-6.93359-6.93359v-71.3467A6.93437,6.93437,0,0,1,5222.002,668.11193Z" style="fill:#e6e6e6"/><path d="M5407.82227,463.00235v71.3467a6.93437,6.93437,0,0,1-6.9336,6.93359H5329.542a6.93437,6.93437,0,0,1-6.9336-6.93359V463.00238a6.93436,6.93436,0,0,1,6.9336-6.9336h71.34669a6.93436,6.93436,0,0,1,6.9336,6.9336Z" style="fill:#e6e6e6"/><path d="M5329.542,562.08338h71.34669a6.93438,6.93438,0,0,1,6.9336,6.9336v71.36053a6.93438,6.93438,0,0,1-6.9336,6.9336H5329.542a6.93438,6.93438,0,0,1-6.9336-6.9336V569.017A6.93438,6.93438,0,0,1,5329.542,562.08338Z" style="fill:#e6e6e6"/><path d="M5329.542,668.11193h71.34669a6.93437,6.93437,0,0,1,6.9336,6.93359v71.3467a6.93437,6.93437,0,0,1-6.9336,6.93359H5329.542a6.93437,6.93437,0,0,1-6.9336-6.93359v-71.3467A6.93437,6.93437,0,0,1,5329.542,668.11193Z" style="fill:#e6e6e6"/><path d="M4894.73633,363.4082V802.99805a41.599,41.599,0,0,0,41.60156,41.60156h536.66016a41.599,41.599,0,0,0,41.60156-41.60156V363.4082Z" style="fill:#f5f5f5"/><path d="M5061.14258,169.26758v110.9375a13.87225,13.87225,0,0,1-13.86719,13.86719h-41.60156a13.87226,13.87226,0,0,1-13.86719-13.86719V169.26758a13.87225,13.87225,0,0,1,13.86719-13.86719h41.60156A13.87225,13.87225,0,0,1,5061.14258,169.26758Z" style="fill:#50758d"/><path d="M5322.60838,562.08338h85.21389v85.22773h-85.21389Z" style="fill:#e6e6e6"/><path d="M5001.51367,668.11193h85.21386v85.21388h-85.21386Z" style="fill:#e6e6e6"/><path d="M5322.60838,668.11193h85.21389v85.21388h-85.21389Z" style="fill:#e6e6e6"/><path d="M5107.52832,668.11193h86.73926v85.21388h-86.73926Z" style="fill:#e6e6e6"/><path d="M5215.06836,668.11193h86.73924v85.21388h-86.73924Z" style="fill:#e6e6e6"/><path d="M5417.5293,169.26758v110.9375a13.87227,13.87227,0,0,1-13.86719,13.86719h-41.60156a13.87226,13.87226,0,0,1-13.86719-13.86719V169.26758a13.87225,13.87225,0,0,1,13.86719-13.86719h41.60156A13.87226,13.87226,0,0,1,5417.5293,169.26758Z" style="fill:#50758d"/><path d="M4894.73633,363.4082V802.99805a41.599,41.599,0,0,0,41.60156,41.60156h15.36485a41.57094,41.57094,0,0,1-34.08555-40.9082v-410.857a11.08861,11.08861,0,0,1,10.40039-7.23868h586.582V363.4082Z" style="fill:#e6e6e6"/><path d="M5027.86133,294.07227h-22.1875a13.87226,13.87226,0,0,1-13.86719-13.86719V169.26758a13.87225,13.87225,0,0,1,13.86719-13.86719h8.32031V280.20508A13.87226,13.87226,0,0,0,5027.86133,294.07227Z" style="fill:#2b597f"/><path d="M5384.24805,294.07227h-22.1875a13.87226,13.87226,0,0,1-13.86719-13.86719V169.26758a13.87225,13.87225,0,0,1,13.86719-13.86719h8.32031V280.20508A13.87226,13.87226,0,0,0,5384.24805,294.07227Z" style="fill:#2b597f"/><g id="a34a3985-66de-430f-9928-98898980f76c" data-name="cases"><path d="M5215.06836,562.08338h86.73924v85.22773h-86.73924Z" style="fill:#e8519d"/><path d="M5001.51367,456.06876h85.21386v85.21388h-85.21386Z" style="fill:#e8519d"/><path d="M5322.60838,456.06876h85.21389v85.21388h-85.21389Z" style="fill:#e8519d"/><path d="M5107.52832,456.06876h86.73926v85.21388h-86.73926Z" style="fill:#e8519d"/><path d="M5001.51367,562.08338h85.21386v85.22773h-85.21386Z" style="fill:#e8519d"/><path d="M5107.52832,562.08338h86.73926v85.22773h-86.73926Z" style="fill:#e8519d"/><path d="M5215.06836,456.06876h86.73924v85.21388h-86.73924Z" style="fill:#e8519d"/></g><path d="M5514.59961,671.25977a10.39974,10.39974,0,0,0-10.40039,10.40039V802.99805a31.23657,31.23657,0,0,1-31.20117,31.20117H5120.77148a10.40039,10.40039,0,0,0,0,20.80078h352.22657A52.06006,52.06006,0,0,0,5525,802.99805V681.66016A10.39974,10.39974,0,0,0,5514.59961,671.25977Z"/><path d="M5472.99805,214.33594h-45.06836V169.26758A24.296,24.296,0,0,0,5403.66211,145h-41.60156a24.296,24.296,0,0,0-24.26758,24.26758v45.06836h-266.25V169.26758A24.296,24.296,0,0,0,5047.27539,145h-41.60156a24.296,24.296,0,0,0-24.26758,24.26758v45.06836h-45.06836a52.06008,52.06008,0,0,0-52.00195,52.002V802.99805A52.06007,52.06007,0,0,0,4936.33789,855h135.89844a10.40039,10.40039,0,1,0,0-20.80078H4936.33789a31.23658,31.23658,0,0,1-31.20117-31.20117V373.80859h395.9082a10.40039,10.40039,0,0,0,0-20.80078h-395.9082V266.33789a31.23658,31.23658,0,0,1,31.20117-31.20117h45.06836v45.06836a24.296,24.296,0,0,0,24.26758,24.26758h41.60156a24.296,24.296,0,0,0,24.26758-24.26758V235.13672h266.25v45.06836a24.296,24.296,0,0,0,24.26758,24.26758h41.60156a24.296,24.296,0,0,0,24.26758-24.26758V235.13672h45.06836a31.23658,31.23658,0,0,1,31.20117,31.20117v86.66992H5349.58008a10.40039,10.40039,0,1,0,0,20.80078h154.61914V633.125a10.40039,10.40039,0,1,0,20.80078,0V266.33789A52.06007,52.06007,0,0,0,5472.99805,214.33594Zm-422.25586,65.86914a3.47075,3.47075,0,0,1-3.4668,3.4668h-41.60156a3.47075,3.47075,0,0,1-3.4668-3.4668V169.26758a3.47074,3.47074,0,0,1,3.4668-3.4668h41.60156a3.47074,3.47074,0,0,1,3.4668,3.4668Zm356.38672,0a3.47075,3.47075,0,0,1-3.4668,3.4668h-41.60156a3.47074,3.47074,0,0,1-3.4668-3.4668V169.26758a3.47073,3.47073,0,0,1,3.4668-3.4668h41.60156a3.47074,3.47074,0,0,1,3.4668,3.4668Z"/><path d="M5312.20245,774.128h95.41871a21.02591,21.02591,0,0,0,21.00324-21.00184V456.26846a21.02591,21.02591,0,0,0-21.00324-21.00186h-405.9064a21.02591,21.02591,0,0,0-21.00324,21.00186V753.12611a21.02587,21.02587,0,0,0,21.00323,21.00184h310.4877Zm-310.6888-212.04038h85.21941V647.307h-85.21941Zm106.02019,0h86.73372V647.307h-86.73372ZM5407.82227,647.307h-85.21943V562.08757h85.21943Zm-106.02021,0h-86.7337V562.08757h86.7337Zm-86.7337,20.80078h86.7337v85.21943h-86.7337Zm192.75391,85.01833a.20152.20152,0,0,1-.20246.20106h-85.01833V668.10774h85.22079Zm0-296.85767v85.01835h-85.21943V456.06738h85.01832a.20122.20122,0,0,1,.20106.20108Zm-106.02021,85.01835h-86.7337V456.06738h86.7337Zm-107.53448,0h-86.73372V456.06738h86.73372Zm-192.75391-85.01833a.20153.20153,0,0,1,.20247-.20108h85.01834v85.21941h-85.22081Zm0,296.85765V668.10778h85.21941v85.21943h-85.01834a.20121.20121,0,0,1-.20107-.20106Zm106.02021-85.01833h86.73372v85.21943h-86.73372Z"/></g><g id="b2534f67-7eb8-43b1-b46c-bc009dfe31de" data-name="handHeart"><path id="ae19b683-810a-4571-8bd0-88df940346a7" data-name="Shape" d="M782.54579,684.24524,560.78939,819.2634a82.833,82.833,0,0,1-43.07327,12.07H218.33318V570.99818l33.13329.00221a90.926,90.926,0,0,1,15.975,1.30167,107.13871,107.13871,0,0,1,51.47494,22.365,106.35825,106.35825,0,0,0,15.975,10.53164,108.06164,108.06164,0,0,0,51.47494,13.135h61.88825a59.03645,59.03645,0,0,1,50.76494,28.755l1.065,1.775a42.6,42.6,0,0,1,3.195,37.15661,41.476,41.476,0,0,1-9.70336,15.14663h27.80833a46.54151,46.54151,0,0,0,15.02832-2.485l219.03469-73.0116.82833-.23667a32.67183,32.67183,0,0,1,35.38164,11.59669v.11831a32.305,32.305,0,0,1-9.11166,47.0966Z" style="fill:#dfc49c"/><path d="M747.04584,672.41192,525.28944,807.43008a82.833,82.833,0,0,1-43.07327,12.07h-263.883V570.99818l33.13329.00221a90.926,90.926,0,0,1,15.975,1.30167,106.35908,106.35908,0,0,1,15.975,10.53165,107.13865,107.13865,0,0,0,51.47494,22.365,90.92491,90.92491,0,0,0,15.975,1.30168H412.7546a59.00075,59.00075,0,0,1,35.5,11.83331,59.82883,59.82883,0,0,1,15.265,16.92165l1.065,1.775a42.81291,42.81291,0,0,1-6.50832,52.30324h27.8083a46.54142,46.54142,0,0,0,15.02832-2.485l2.36667-.82833a41.476,41.476,0,0,1-9.70336,15.14663h27.80833a46.54151,46.54151,0,0,0,15.02832-2.485l219.03469-73.0116.82833-.23667a32.29311,32.29311,0,0,1-9.23,46.97828Z" style="fill:#ffe0b2"/><path d="M787.7149,269.90465c0,100.71636-62.26332,141.07927-103.77223,181.44221S527.1088,602.61751,527.1088,602.61751s-154.35543-111.035-195.86432-151.27065c-6.49373-6.3664-13.49675-12.73279-20.75443-19.22649a2.776,2.776,0,0,1-.50933-.63665,181.44226,181.44226,0,0,1-44.31009-123.508c0-100.71634,62.26332-151.13818,145.2811-151.13818A149.66121,149.66121,0,0,1,498.044,183.70368a126.68992,126.68992,0,0,1,9.54959,15.534c.764-1.52793,1.78258-3.43785,3.05589-5.4751,14.311,12.26233,6.15644,33.09185,15.07261,49.69526,26.65553-49.66577,92.91-98.4569,154.91008-86.62034,29.464-.71654,56.96009,28.44491,82.21851,43.63211C779.15135,227.922,788.80116,237.99594,787.7149,269.90465Z" style="fill:#f66"/><rect id="bfcfac1a-cdb9-43e3-92b0-70b7cad4a4a1" data-name="Rectangle-path" x="111.83332" y="547.33376" width="106.49986" height="295.83295" rx="23.66664" style="fill:#e8519d"/><rect x="111.83332" y="547.33376" width="82.83323" height="295.83295" rx="23.66664" style="fill:#ff59ff"/><path d="M395.833,204.16753c-35.49995,0-82.83322,31.26363-82.83322,94.66654h58.44474S353.02,204.16753,395.833,204.16753Z" style="fill:#fff"/><path d="M525.99945,618.33366a11.83313,11.83313,0,0,1-7.51413-2.698C513.34963,611.423,392.283,511.8338,353.83651,474.46417c-5.24217-5.10016-10.87483-10.21214-16.64947-15.45431-37.14479-33.73679-83.3539-75.7214-83.3539-161.65495,0-93.96838,56.25559-152.354,146.816-152.354a152.76814,152.76814,0,0,1,125.35034,64.68092,152.76812,152.76812,0,0,1,125.35032-64.68092c90.56039,0,146.816,58.38559,146.816,152.354,0,85.93355-46.20909,127.91816-83.35388,161.65495-5.77469,5.24217-11.40733,10.35415-16.66132,15.45431-38.43463,37.36963-159.5013,136.95884-164.637,141.17149A11.83314,11.83314,0,0,1,525.99945,618.33366ZM400.64911,168.66758c-77.10589,0-123.14934,48.10243-123.14934,128.68733,0,75.44923,40.16227,111.94318,75.60307,144.12982,5.98767,5.44331,11.83332,10.721,17.2293,16.01049,32.35231,31.42927,128.072,110.86635,155.66731,133.62182,27.59531-22.80283,123.315-102.23988,155.65546-133.71651,5.44332-5.2895,11.25349-10.56715,17.24115-16.01046,35.5-32.18664,75.60307-68.63326,75.60307-144.12983,0-80.49023-46.04342-128.59266-123.14936-128.59266a130.88827,130.88827,0,0,0-114.78315,68.52674,12.34217,12.34217,0,0,1-21.06333,0A130.88831,130.88831,0,0,0,400.64911,168.66758Z"/><path d="M194.66655,855H135.5a35.5,35.5,0,0,1-35.5-35.5V571.00039a35.5,35.5,0,0,1,35.5-35.5h59.1666a35.5,35.5,0,0,1,35.5,35.5V819.50007A35.5,35.5,0,0,1,194.66655,855ZM135.5,559.16707a11.83332,11.83332,0,0,0-11.83331,11.83332V819.50007A11.83331,11.83331,0,0,0,135.5,831.33339h59.1666a11.83331,11.83331,0,0,0,11.83331-11.83332V571.00039a11.83332,11.83332,0,0,0-11.83331-11.83332Z"/><path d="M517.71612,843.16671H218.33318a11.83332,11.83332,0,0,1,0-23.66664H517.71612a71.00008,71.00008,0,0,0,36.91994-10.35415L776.45164,674.12776a20.57811,20.57811,0,0,0,5.751-29.93828c-.23667-.33133-.47334-.66266-.67448-1.00587a20.41255,20.41255,0,0,0-22.34132-6.23611L540.19944,709.97087A59.23818,59.23818,0,0,1,521.42,713.00021H416.24543a94.35879,94.35879,0,0,0-52.51626,15.904l-8.662,5.77465a11.8348,11.8348,0,1,1-13.135-19.69066l8.67382-5.77465a117.93056,117.93056,0,0,1,65.63942-19.88H521.42a35.55893,35.55893,0,0,0,11.24166-1.82232l219.03474-73.0116a44.16194,44.16194,0,0,1,49.4041,15.38335,11.58766,11.58766,0,0,1,.68631,1.00582,43.57,43.57,0,0,1,7.40765,33.9971,44.31575,44.31575,0,0,1-20.49529,29.465L566.9309,829.35723A94.48934,94.48934,0,0,1,517.71612,843.16671Z"/><path d="M493.63532,713.00021a11.83331,11.83331,0,0,1-8.1768-20.40063,30.99148,30.99148,0,0,0,4.46115-37.68913l-1.065-1.76315A47.5581,47.5581,0,0,0,448.27821,630.167h-61.9119a120.28559,120.28559,0,0,1-74.85758-26.25815,96.46518,96.46518,0,0,0-60.04226-21.07512H218.33318a11.83332,11.83332,0,1,1,0-23.66664h33.13329A120.28563,120.28563,0,0,1,326.324,585.42523a96.46525,96.46525,0,0,0,60.04227,21.07512h61.90007a71.39036,71.39036,0,0,1,60.88243,34.47043l1.065,1.76319a54.62261,54.62261,0,0,1-8.28333,66.78726,12.4297,12.4297,0,0,1-1.278,1.08865A11.67973,11.67973,0,0,1,493.63532,713.00021Z"/><path d="M371.44447,310.66739H312.99973a11.83332,11.83332,0,0,1-11.83332-11.83332c0-65.78141,49.13194-106.49986,94.66654-106.49986a11.83332,11.83332,0,1,1,0,23.66664,10.14114,10.14114,0,0,0-8.61466,3.92866c-11.6558,14.2-7.83364,57.74659-4.15349,76.6444a11.8333,11.8333,0,0,1-11.62033,14.09348Zm-45.96059-23.66663h32.13929a183.203,183.203,0,0,1,.72184-57.98326A80.22983,80.22983,0,0,0,325.48388,287.00076Z"/><path d="M750.8325,511.8338a11.83332,11.83332,0,0,1-11.83332-11.83332V488.16716a11.83332,11.83332,0,0,1,23.66664,0v11.83332A11.83333,11.83333,0,0,1,750.8325,511.8338Z"/><path d="M786.33245,535.50044H774.49913a11.83332,11.83332,0,0,1,0-23.66664h11.83332a11.83332,11.83332,0,0,1,0,23.66664Z"/><path d="M750.8325,571.00039a11.83332,11.83332,0,0,1-11.83332-11.83332V547.33376a11.83332,11.83332,0,0,1,23.66664,0v11.83331A11.83333,11.83333,0,0,1,750.8325,571.00039Z"/><path d="M727.16586,535.50044H715.33254a11.83332,11.83332,0,1,1,0-23.66664h11.83332a11.83332,11.83332,0,1,1,0,23.66664Z"/><path d="M241.99982,440.83389a11.83332,11.83332,0,0,1-11.83332-11.83332V417.16726a11.83332,11.83332,0,1,1,23.66664,0v11.83331A11.83333,11.83333,0,0,1,241.99982,440.83389Z"/><path d="M277.49977,464.50053H265.66645a11.83332,11.83332,0,0,1,0-23.66664h11.83332a11.83332,11.83332,0,0,1,0,23.66664Z"/><path d="M241.99982,500.00048a11.83332,11.83332,0,0,1-11.83332-11.83332V476.33385a11.83332,11.83332,0,0,1,23.66664,0v11.83331A11.83333,11.83333,0,0,1,241.99982,500.00048Z"/><path d="M218.33318,464.50053H206.49986a11.83332,11.83332,0,0,1,0-23.66664h11.83332a11.83332,11.83332,0,0,1,0,23.66664Z"/><path d="M206.49986,192.33421a11.83331,11.83331,0,0,1-11.83331-11.83332V168.66758a11.83332,11.83332,0,1,1,23.66663,0v11.83331A11.83332,11.83332,0,0,1,206.49986,192.33421Z"/><path d="M241.99982,216.00085H230.1665a11.83332,11.83332,0,1,1,0-23.66664h11.83332a11.83332,11.83332,0,0,1,0,23.66664Z"/><path d="M206.49986,251.5008a11.83331,11.83331,0,0,1-11.83331-11.83332V227.83417a11.83332,11.83332,0,1,1,23.66663,0v11.83331A11.83331,11.83331,0,0,1,206.49986,251.5008Z"/><path d="M182.83323,216.00085H170.99991a11.83332,11.83332,0,1,1,0-23.66664h11.83332a11.83332,11.83332,0,1,1,0,23.66664Z"/></g></g><g id="bbfdf59f-f023-425d-aafc-bedcf3d28c49" data-name="Ancrage"><rect x="5624" y="999" width="1" height="1" style="fill:none"/><rect x="5624" width="1" height="1" style="fill:none"/><rect y="999" width="1" height="1" style="fill:none"/><rect width="1" height="1" style="fill:none"/></g></svg>