<svg xmlns="http://www.w3.org/2000/svg" viewBox="0 0 5625 1000"><title>logo_histoire_d_une_invention</title><g id="fc946d76-6a63-4d50-850b-392ac04bd099" data-name="Texte"><g id="b2604c32-0623-4d3c-9a2c-e4301eeb9812" data-name="Plume"><path d="M5153.59636,433.40238l4.03505-16.0432-11.127-4.373-7.64306,12.53949s4.21391,11.37857-.46628,20.47434C5138.39875,446.00091,5144.25514,436.07032,5153.59636,433.40238Zm-7.47516-7.36165a2.70911,2.70911,0,0,1,3.514,1.418,2.61251,2.61251,0,0,1-1.449,3.4392,2.7091,2.7091,0,0,1-3.514-1.418A2.60081,2.60081,0,0,1,5146.1212,426.04073Z" style="fill:#b36212"/><path d="M5271.57939,246.14094c-32.04228,26.16182-73.99061,80.05151-109.56607,143.00247l-.02007-.02453-6.21866,10.92437,6.6311,2.53987,3.504-9.19025c18.979-34.05668,70.46655-122.99685,164.61146-182.08894a606.71557,606.71557,0,0,0,69.58325-49.52213c-8.40772,6.99647-24.99415,15.76613-33.98773,21.42361C5342.51223,198.05226,5313.38355,212.00523,5271.57939,246.14094Z" style="fill:#b36212"/><path d="M5152.39521,340.65785c-7.28627,25.63767-6.86926,45.16364-4.04965,50.52952h4.40735c12.17-25.09444,70.78411-115.99583,107.2675-144.44954,37.79921-29.482,66.95709-46.63616,91.4804-59.14659a182.13657,182.13657,0,0,0,25.41117-16.3048c9.67338-7.59419,19.47995-15.71708,28.06653-23.66645l-24.89012,16.25031,11.09779-16.898L5369.998,168.42046l13.7878-23.39938c-32.61807,2.92958-62.88737,19.17534-62.88737,19.17534-12.10972,14.29906-21.86248,37.04621-21.86248,37.04621-.33762-11.374,7.40034-28.59722,7.40034-28.59722-5.7177,2.59892-27.44148,14.95129-27.44148,14.95129-10.626,8.77511-13.9265,31.84838-13.9265,31.84838-2.02026-9.10122,5.04246-26.646,5.04246-26.646-30.60784,17.55022-52.47032,47.44644-52.47032,47.44644-15.13283,29.571-2.69,52.64429-7.40034,47.12034s-3.69743-25.67219-3.69743-25.67219c-31.95286,30.54937-35.31267,45.1691-35.31267,45.1691-5.38007,12.99915-10.09037,47.77255-10.09037,47.77255-3.02766-3.25114,0-21.44815,0-21.44815a51.67515,51.67515,0,0,0-4.03506,31.52226C5153.40717,363.4059,5152.39521,340.65785,5152.39521,340.65785Z" style="fill:#b36212"/><path d="M5407.47442,163.83531a330.26674,330.26674,0,0,1-28.06653,23.66645c-24.71129,19.40243-48.50462,35.263-48.50462,35.263-93.21234,54.83262-145.15158,144.316-162.31836,174.998h9.12678c3.22567-2.57441,8.07011-4.51564,28.30013-10.34573,25.55992-7.36709,40.80681-22.74715,40.80681-22.74715s-23.317,12.99915-34.30527,11.70015-25.75337,2.816-25.75337,2.816-5.63831-2.59893,22.16543-6.71486,73.54349-35.095,73.54349-35.095-17.48979,7.14907-25.55991,6.49684-28.02639,0-28.02639,0c13.22662-3.034,25.55991-1.299,45.73976-8.88321s19.05838-6.932,19.05838-6.932c22.86988-7.5842,32.36986-31.19614,32.36986-31.19614-3.95567,1.517-34.16657,5.19784-46.69786,1.517-12.53221-3.68083-33.88279,0-33.88279,0,20.17984-6.71487,24.66658-3.68083,29.595-3.89793,4.933-.21711,20.85508,1.08189,52.47031-9.748s40.58325-24.26417,40.58325-24.26417l-21.32137,2.836c13.92193-2.33185,29.615-11.50212,29.615-11.50212-9.64325,2.59893-24.66658,3.89793-24.66658,3.89793,17.71337-3.89793,27.58017-9.31378,27.58017-9.31378,16.59192-12.56494,20.40339-31.19614,20.40339-31.19614-23.54513,8.01387-42.15182,4.333-42.15182,4.333,32.29047-2.16379,41.25848-10.40022,45.73976-12.34692,4.48673-1.95123,6.33272-10.01961,6.33272-10.01961-16.31359,5.85007-34.8117,6.823-34.8117,6.823,20.011-3.08764,37.15866-13.16266,37.15866-13.16266v-10.085c-7.73706,4.38755-21.35148,7.8013-21.35148,7.8013l21.18723-13.64683C5413.0233,168.05935,5407.47442,163.83531,5407.47442,163.83531Z" style="fill:#b36212"/><polygon points="5147.328 408.975 5159.929 414 5162.276 408.446 5149.675 403.422 5147.328 408.975" style="fill:#b36212"/></g><g id="a73e72bc-d73a-4deb-a976-6f59e25fbcf4" data-name="sweet delight"><path d="M881.10742,469.5625,783.72266,752.81836c-1.65528,4.80664-7.13477,7.70117-11.418,6.04-5.08985-1.97266-8.84668-3.52832-9.91895-6.29492-4.64551-2.88965-6.47851-26.47168-6.49023-26.48828-1-1.21192,35.01758-122.89454,82.10351-250.63379-26.88183,2.13867-52.37011,3.30078-94.77246,11.11816l-61.7334,182.666c-2.85058,8.42382-13.35742,12.41894-19.31933,7.335l-12.58594-10.72461a9.20545,9.20545,0,0,1-3.16211-6.76172c-.4834-.47852-.86621-.83887-1.11621-1.07227-.51758-.47265,11.8125-33.97851,24.376-72.26367-.29981-3.63867-8.36817-7.15625-10.5293-10.30176-8.87988-12.94629-35.74023-11.61328-51.36523-12.124-26.45411-.86133-53.49805,2.22852-79.86426,1.02246-11.47363-.52246-41.7793-8.502-33.13867-20.92578l-.84473-.08887s.59473-.37793,1.74512-1.06738a20.78366,20.78366,0,0,1,2.57812-2.4502c12.541-10.15722,32.75586-17.44238,50.14746-23.63769A916.99793,916.99793,0,0,1,712.9043,462.98926L784.26758,255.0459c2.60058-7.584,11.60156-11.7627,17.84765-8.28418l11.88575,6.61719c4.02246,2.24511,5.63379,7.085,3.97851,11.98047L753.92871,454.8877c41.12988-7.69629,68.457-12.63575,94.28906-13.86426,29.17774-80.46973,56.97168-154.749,65.62891-178.9375,1.87207-5.26172,16.33008-7.45606,21.53711-6.65039,10.21289,1.583,9.3623,1.0332,14.502,18.83593,1.42285,4.55665-59.47168,166.03516-59.47168,166.03516,17.63086,3.15625,37.5625,10.42481,46.86426,18.37012C961.19336,479.08594,924.18164,470.18457,881.10742,469.5625ZM676.84277,568.07422l25.04883-72.99609C656.81152,506.208,594.88867,526.68359,540.002,548.18164c23.165-.11035,46.40235-.88281,69.22266,1.38379C632.72363,551.89941,661.834,551.36035,676.84277,568.07422Z" style="fill:#630;stroke:#630;stroke-miterlimit:10;stroke-width:2px"/><path d="M1107.08105,481.13672c-1.77832,6.45117-5.17871,13.07422-7.84082,19.34766-6.05664,14.28613-7.01269,16.81445-14.58593,30.59472-13.54688,24.665-38.47364,55.11524-58.13282,75.47461-8.38964,8.68457-32,23.543-42.752,27.082-13.63574,4.49024-20.13086-4.2666-28.61035-11.64062-7.96289-6.918-18.83105-13.65235-23.7373-23.57129-5.35743-10.81836-2.97364-27.34375-.334-40.457,6.0791-30.20508,20.42578-60.38282,32.87793-89.56055,5.10645-11.95215,9.041-17.56348,20.05371-14.47461,9.12988,2.56152,18.77051,9.49609,23.28223,18.209,5.03418,9.73535-6.01758,24.4375-10.541,35.15625-5.97265,14.1582-11.09668,28.51074-16.25781,42.83593-5.001,13.86328-11.208,27.97071-14.1748,42.05176-3.0625,14.53027-4.15137,27.07715,12.60156,21.39258,26.47754-8.97949,65.35644-52.12012,80.88672-75.75781,8.97363-13.65821,11.41894-16.06446,18.60937-30.54493,5.54-11.15722,12.84668-33.98925,23.3877-41.37988C1106.958,470.88477,1109.49805,472.36328,1107.08105,481.13672Zm-128.6289-41.39649c-.37207-7.3955.59473-18.99218,13.6914-34.24511,15.45313-17.99707,32.06641-20.02051,42.874-23.82032a42.003,42.003,0,0,0,15.26953-9.95214c.94434-.9502,2.25-.4502,2.11719.80566-1.59473,15.28027-11.60254,75.86328-69.90137,71.68457A4.39716,4.39716,0,0,1,978.45215,439.74023Z" style="fill:#630;stroke:#630;stroke-miterlimit:10;stroke-width:2px"/><path d="M1267.71289,464.96191a40.70494,40.70494,0,0,1,11.30957,4.83692c-8.91016,8.10742-22.99121,13.67871-33.64746,20.11816-13.30762,8.04-63.084,41.97754-74.47266,50.93164-8.32714,6.54688-11.41308,7.08985-7.13574,14.49805,3.54883,6.14941,7.82129,11.95508,10.85938,18.35352,9.125,19.22363,7.56738,43.80664-14.09668,62.0664-8.72754,7.35547-20.43457,14.78125-32.39551,16.0625-15.14453,1.62207-29.72754-7.665-41.49121-12.79394-26.52246-11.56641-30.97461-29.92871-6.94531-52.502,9.77929-9.18652,47.67578-35.208,49.11425-38.60058,1.34668-3.17578-19.10742-37.30567-20.14843-41.03028-3.42286-12.23828-4.66309-24.11718-.26661-37.49609,7.07813-21.54,32.13575-41.26172,58.9336-46.92969,13.0039-2.751,31.415,2.01465,37.93359,10.53907,7.3711,9.63964-2.9082,24.416-10.60351,34.11523-9.52442,12.00488-51.0752,34.47168-52.72364,37.76465-2.34082,4.67578,6.418,24.46679,8.66407,27.61816C1189.65039,510.16211,1225.85352,483.32129,1267.71289,464.96191ZM1102.2002,633.65918c36.68066-8.48047,50.92578-43.14941,37.94921-66.20313C1121.90332,580.93066,1085.79,616.38086,1102.2002,633.65918ZM1141.66406,487.543c11.90821-6.33692,67.38282-54.79492,43.93262-55.8457-10.74707-.48145-25.72754,14.668-30.21094,21.55566C1146.90039,466.29492,1140.92676,474.0166,1141.66406,487.543Z" style="fill:#630;stroke:#630;stroke-miterlimit:10;stroke-width:2px"/><path d="M1386.42188,390.42383c-3.84375,0,2.99218,1.62207-39.41211,1.30664-25.70118,73.41406-56.56153,159.06445-63.09864,178.99707-9.60351,29.28418-28.4082,56.99805,18.8711,24.92578,47.28027-32.07227,86.43359-98.13281,95.5791-112.07812,9.14551-13.94434,17.4668-4.1836,17.4668-4.1836s-34.03516,85.584-108.70411,136.48145c-74.66894,50.89648-76.53906-11.15625-60.25781-61.35645,10.57129-32.59472,29.02149-75.92187,59.708-163.84082-28.959-1.4707-44.44922-4.68066-44.333-11.12207,0,0,5.4043-8.542,13.23145-7.76562,2.43652.24121,13.61523.709,37.26367,1.23828,13.35156-38.23535,22.63281-64.73633,22.63281-64.73633,5.99121-17.43066,18.92871-8.36621,27.89063,1.39453s4.43359,23.00781,4.43359,23.00781-5.75781,16.415-14.43555,41.19532c45.2793.92578,42.9834,1.78222,42.9834,1.78222S1394.40137,390.4248,1386.42188,390.42383Z" style="fill:#630;stroke:#630;stroke-miterlimit:10;stroke-width:2px"/><path d="M1622.51563,472.99609s-27.07715,25.61036-45.252,44.63575c-5.8125,5.86816-12.83594,11.55761-20.37109,14.64746-13.28516,6.17871-29.583-.94434-36.97852-5.74024-4.65136,18.28125-14.25293,35.43457-19.80371,42.80274-20.4707,27.18261-53.415,55.15429-83.28711,53.80957-25.65429-1.15625-48.22558-17.542-50.34277-46.0918-2.09961-28.38867,3.85156-68.6123,26.33887-96.57812,20.93652-26.03321,62.63281-49.10352,86.82617-29.85059,10.76855,8.56836,20.4375,17.94824,28.64453,29.59961,7.68945,10.93066,11.70117,19.915,21.77539,28.62207,19.29785,7.8125,45.498-14.8418,56.249-26.6543,7.90235-8.67969,30.36719-30.61133,38.2461-23.13769C1630.44531,464.63965,1622.51563,472.99609,1622.51563,472.99609Zm-145.48731,63.26172c-38.46191,29.083-57.50977-.7334-64.83887-13.01367-1.15625,1.81152-2.24511,3.61719-3.23437,5.40625-7.501,13.56934-14.80274,31.07227-16.10254,45.74219-1.55078,17.4082,10.65723,27.75488,25.85449,23.75976C1441.24414,592.23438,1460.53711,563.28516,1477.02832,536.25781Zm-35.03906-46.4414c3.92285,12.11328,11.93457,30.666,25.27051,35.77832,5.81836,2.2334,12.63574-1.52246,18.08105-3.88379,10.15723-20.6377,10.66309-38.99024-5.34473-54.18262C1468.00488,470.94043,1454.42969,479.26367,1441.98926,489.81641Z" style="fill:#630;stroke:#630;stroke-miterlimit:10;stroke-width:2px"/><path d="M1755.54785,481.13672c-1.77832,6.45117-5.17871,13.07422-7.84082,19.34766-6.05664,14.28613-7.01172,16.81445-14.58594,30.59472-13.54687,24.665-38.47363,55.11524-58.13183,75.47461-8.39063,8.68457-32.001,23.543-42.75293,27.082-13.63574,4.49024-20.13086-4.2666-28.61035-11.64062-7.96289-6.918-18.83106-13.65235-23.73731-23.57129-5.35644-10.81836-2.97265-27.34375-.334-40.457,6.0791-30.20508,20.42676-60.38282,32.8789-89.56055,5.10645-11.95215,9.04-17.56348,20.05274-14.47461,9.12988,2.56152,18.77051,9.49609,23.28222,18.209,5.03418,9.73535-6.01757,24.4375-10.541,35.15625-5.97266,14.1582-11.0957,28.51074-16.25781,42.83593-5.001,13.86328-11.208,27.97071-14.17481,42.05176-3.06152,14.53027-4.15137,27.07715,12.60254,21.39258,26.47656-8.97949,65.35547-52.12012,80.88672-75.75781,8.97363-13.65821,11.418-16.06446,18.6084-30.54493,5.54-11.15722,12.84668-33.98925,23.38769-41.37988C1755.42578,470.88477,1757.96484,472.36328,1755.54785,481.13672ZM1626.919,439.74023c-.37207-7.3955.59472-18.99218,13.6914-34.24511,15.45313-17.99707,32.06738-20.02051,42.874-23.82032a41.99439,41.99439,0,0,0,15.26953-9.95214c.94531-.9502,2.251-.4502,2.11718.80566-1.59472,15.28027-11.60156,75.86328-69.90136,71.68457A4.39787,4.39787,0,0,1,1626.919,439.74023Z" style="fill:#630;stroke:#630;stroke-miterlimit:10;stroke-width:2px"/><path d="M1919.53906,469.42383c-1.56738,7.07324-19.75976,44.90722-35.13965,75.36914-23.76562,44.72949-53.832,79.51953-76.53613,94.34961-26.62207,19.2207-42.02441,11.29687-45.33008,7.57324-.81152-.91113-27.58886-22.87012-20.9873-48.208,5.68457-21.81543,29.63281-77.21386,51.415-112.67578-12.60254,3.76758-61.52246,15.18555-72.19629-30.7832-12.28027-52.8711,18.77539-64.73926,45.49707-47.46387,26.71582,17.27539,15.84668,37.42871,7.68945,51.042,0,0,11.96387,4.13379,51.082-20.34765,0,0,17.34766,2.35547,23.35938,24.07617,0,0-29.79395,50.01465-29.67188,50.03125-7.7959,14.53613-26.53222,49.39258-28.69922,53.61523-4.44531,9.74024-8.76855,19.87012-12.80273,30.25h-.08887c-4.65039,15.37989-4.501,28.999,11.84082,27.44922,9.752-3.373,24.29883-13.11328,44.56934-37.77929,14.9082-18.14161,28.62695-39.918,40.21289-60.69434,18.21387-35.12793,34.084-62.04981,34.084-62.04981s.02149-.0166.05567-.04394c.0166-.01172.02148-.0166.04394-.03418C1909.21973,462.083,1923.61719,451.00879,1919.53906,469.42383Zm-150.38867-41.94727c-5.33984-13.26269-16.71387-10.46777-20.44238-3.83886-3.73438,6.63476-3.47266,25.13183,12.19629,32.46093C1760.9043,456.09863,1774.49609,440.74023,1769.15039,427.47656Z" style="fill:#630;stroke:#630;stroke-miterlimit:10;stroke-width:2px"/><path d="M2037.42676,531.48438c-20.84668,27.5996-46.18555,55.13281-75.48926,72.45507-16.11816,9.53321-31.21875,16.7666-46.53516,8.55371-9.34082-5.001-19.83886-10.73242-28.05078-18.10546l-.15918.12011s-17.38965-12.88281-17.10644-41.11621a60.69813,60.69813,0,0,1,1.81933-15.63867.62433.62433,0,0,1,.02344-.10059c7.84375-35.92773,45.61426-91.29,80.0918-91.35742.7832-.01465,1.55078-.00488,2.30957.04785.09082.00489.17676.00977.26855.01465,11.07813.81543,19.96289,8.19824,28.95313,14.24121,10.22851,6.87793,18.4707,14.6211,15.2207,29.77442-2.87988,13.40625-10.92969,26.86035-21.26367,36.499-11.44824,10.68457-27.78223,24.5127-42.43164,21.42676-6.71973-1.416-12.65723-5.626-18.44141-8.85156-4.41113-2.457-4.89648-2.32325-7.46386,3.37988a64.795,64.795,0,0,0-3.71485,11.83594c-2.59277,11.09765-3.624,34.15234,6.76758,39.20605,11.91309,5.78906,29.832-1.63672,41.47168-8.97559,29.63476-18.68164,61.35254-52.84765,84.959-88.02636,8.12207-12.09571,18.75391-24.80176,27.13868-37.42481,3.375-5.07422,7.10449-7.18554,11.16992-4.11914,2.9375,2.21289,5.57226,4.7041,6.02832,7.03711C2083.94336,467.2373,2048.71582,516.53711,2037.42676,531.48438Zm-99.29688-41.13086c-9.25,10.30078-18.20605,23.89453-21.79687,36.89257,10.67969,4.25782,24.80664,4.26758,42.26855-14.15039,15.90723-16.76562,17.4668-36.57031,10.55078-42.623C1963.27637,465.33105,1942.58887,485.38086,1938.12988,490.35352Z" style="fill:#630;stroke:#630;stroke-miterlimit:10;stroke-width:2px"/><path d="M2457.5293,485.62109c-6.34571,16.58594-15.375,34.75586-21.959,48.3418-14.58593,30.083-91.75,151.86621-128.65136,141.38086-11.84668-3.36719-21.14258-3.88379-27.69336-14.05273a51.05535,51.05535,0,0,1-6.14063-14.17481,112.10237,112.10237,0,0,1-4.4834-22.6875c-6.77343,6.28516-13.46386,11.30274-19.43164,13.71387-.08887.0332-.16113.05566-.24414.083a55.01049,55.01049,0,0,1-16.72558,6.76269c-17.45313,3.36719-33.61719-9.96875-45.625-18.72558-24.52051-17.88672-16.94141-56.86622-5.87305-85.6045,11.55176-29.99414,30.06055-62.667,57.25976-83.33691,16.76465-12.74121,27.41114-14.44727,42.44727-4.93457,4.77246,3.02344,10.39551,8.69629,16.0918,10.56933,27.77148-88.083,68.42871-176.7373,101.51757-186.167l-.5664,1.24414a17.30652,17.30652,0,0,1,14.25781,1.37891c12.79688,6.96191,20.07617,12.85156,21.13184,28.56543,1.07226,15.88672-3.16211,33.54492-7.76856,49.63672-9.89551,34.5625-25.71582,68.751-43.13476,101.41308a1020.566,1020.566,0,0,1-64.97364,106.28028c-1.2666,1.7998-2.58886,3.55566-3.90039,5.30664-1.2334,1.79394-2.917,4.19433-4.956,7.03418a35.00215,35.00215,0,0,0-4.5957,9.98535c-2.26172,8.77344-7.90137,41.22363,3.81152,54.665,19.69238,4.48437,61.10058-40.64649,78.95312-66.57324,19.98145-29.01075,49.209-66.26758,57.10547-97.90625C2458.51855,479.21973,2461.90234,474.17969,2457.5293,485.62109ZM2270.168,571.72559a449.21541,449.21541,0,0,1,9.95215-51.04883c3.46191-13.79688,7.39551-28.08789,11.707-42.51856-3.75586-3.417-10.3291-6.3955-21.44824-3.88965a22.4259,22.4259,0,0,0-8.17871,4.17286c-3.03418,2.667-5.918,5.51269-8.624,8.39648-2.26172,2.417-4.417,4.93945-6.51758,7.51758-9.52929,12.36914-18.44824,27.64453-23.99316,37.76269a199.65592,199.65592,0,0,0-15.64746,42.2295c-3.19531,13.07422-8.418,36.10644-.35547,46.59765,12.93555.56641,29.73242-14.61914,39.0293-23.249C2254.37109,590.01758,2264.02832,581.416,2270.168,571.72559Zm112.52051-236.14844c-8.5459,17.93066-16.41993,36.08984-23.77149,54.34863-14.16308,35.168-28.76562,72.09082-36.75586,108.18067,6.37305,0,25.99317-38.73438,29.68262-45.01954,10.16309-17.292,19.70313-34.873,28.20508-52.79785,14.66894-30.95019,36.16211-74.1582,30.0664-105.91406C2396.88477,304.249,2389.38379,321.52441,2382.68848,335.57715Z" style="fill:#630;stroke:#630;stroke-miterlimit:10;stroke-width:2px"/><path d="M2606.48828,286.47949s13.61328-11.60156,29.25,0c13.708,10.16895,12.60742,34.29492,10.085,44.88574-2.51758,10.59082-30.26074,34.80079-36.8125,42.86915l-.87207,1.07226a6.19658,6.19658,0,0,1-10.17969-.81641l-7.10644-12.35839s31.16113-35.05567,25.21484-37.82911C2608.50488,320.77441,2592.36328,306.64941,2606.48828,286.47949Z" style="fill:#630;stroke:#630;stroke-miterlimit:10;stroke-width:2px"/><path d="M2809.86523,621.90625c-26.57128,21.19238-48.1582-13.41309-49.19238-15.38574-3.01172.66113-6.03418,3.2832-12.98535,6.68945-8.04,3.93457-18.75879,7.3125-26.76074,6.39063-12.58008-1.44532-31.98828-8.34082-36.14453-20.55371-13.52539-39.7129,27.57715-117.00489,46.41894-159.01758,9.66309,2.70605,22.77051,4.28418,23.80957,15.69726.95606,10.51856-13.48535,40.76856-22.15332,58.67188-12.99707,26.84863-26.07129,80.43652-7.27344,82.54785,18.72559,2.10059,38.18457-39.3125,47.169-57.1377,8.68555-17.24218,21.39258-52.1875,29.9502-69.47949,7.90722-15.98633,11.46289-33.15039,25.65429-22.82617,10.71875,7.80176,14.23633,12.50781,9.67383,29.12207-4.51758,16.458-13.55762,33.98926-20.05371,50.15332-3.27246,8.14063-13.94629,28.93262-20.70313,47.44141-2.3955,8.10742,1.38379,16.08105,4.80664,19.709,2.72266,2.88965,18.03028-11.791,35.62793-34.47266,33.77832-43.55175,73.17481-98.86718,74.708-98.92285,3.25586-3.15039,14.52442,3.4668,14.52442,3.4668s-36.19532,59.42188-74.70215,110.39258C2841.4707,589,2812.044,620.167,2809.86523,621.90625Z" style="fill:#630;stroke:#630;stroke-miterlimit:10;stroke-width:2px"/><path d="M3150.16211,489.39355c-.72266,7.19629-14.1084,29.88282-22.17578,42.54688-31.77832,49.88086-52.293,76.98047-75.6084,90.46582-32.13379,18.58691-51.06445-4.40039-65.16211-21.51465-8.55078-26.42676,8.27441-56.64355,19.28711-83.63769,3.79492-9.2793,14.25781-30.32715,7.85156-37.45606-7.7959-8.67969-25.99316,6.98438-33.29492,13.041-27.50488,22.80371-37.30664,52.9541-51.25391,82.99218-1.37207,2.95606-6.02832,16.44727-10.624,27.35547-.10547.25-.20508.51661-.29394.77246-12.208,36.58985-31.7168,17.99707-39.291,8.707a9.87642,9.87642,0,0,1-1.40039-9.47461c8.86328-26.59278,48.92578-145.49219,57.93848-150.42676,6.94531-3.80078,26.88867,10.96289,27.84375,14.07519,2.04492,6.70606,10.22949,8.66211,16.56445,3.58887,8.5791-6.87305,17.78125-11.78516,29.67773-10.7959,13.752,1.15039,35.13965,7.92871,39.95118,20.9541,6.00683,16.26368-4.54493,41.84082-11.86915,58.54883-12.73535,29.06055-18.36425,45.21973-20.82519,54.05957-1.90625,6.82324,2.70605,12.75782,9.65723,12.08594,9.55175-.92285,24.91015-7.27344,45.51367-31.2832,30.51074-35.55664,54.80957-77.01953,61.76074-89.29981a13.48921,13.48921,0,0,1,8.69043-6.65625C3147.10059,477.23633,3151.22363,478.78613,3150.16211,489.39355Z" style="fill:#630;stroke:#630;stroke-miterlimit:10;stroke-width:2px"/><path d="M3267.65039,531.48438c-20.84668,27.5996-46.18555,55.13281-75.48926,72.45507-16.11816,9.53321-31.21875,16.7666-46.53515,8.55371-9.34082-5.001-19.83887-10.73242-28.05078-18.10546l-.15918.12011s-17.38965-12.88281-17.10645-41.11621a60.6977,60.6977,0,0,1,1.81934-15.63867.62535.62535,0,0,1,.02343-.10059c7.84375-35.92773,45.61426-91.29,80.0918-91.35742.7832-.01465,1.55078-.00488,2.30957.04785l.26856.01465c11.07812.81543,19.96289,8.19824,28.95312,14.24121,10.22852,6.87793,18.4707,14.6211,15.2207,29.77442-2.87988,13.40625-10.92968,26.86035-21.26367,36.499-11.44824,10.68457-27.78222,24.5127-42.43164,21.42676-6.71973-1.416-12.65723-5.626-18.4414-8.85156-4.41114-2.457-4.89649-2.32325-7.46387,3.37988a64.79575,64.79575,0,0,0-3.71485,11.83594c-2.59277,11.09765-3.624,34.15234,6.76758,39.20605,11.91309,5.78906,29.832-1.63672,41.47168-8.97559,29.63477-18.68164,61.35254-52.84765,84.959-88.02636,8.12207-12.09571,18.7539-24.80176,27.13867-37.42481,3.375-5.07422,7.10449-7.18554,11.16992-4.11914,2.9375,2.21289,5.57227,4.7041,6.02832,7.03711C3314.167,467.2373,3278.93945,516.53711,3267.65039,531.48438Zm-99.29687-41.13086c-9.25,10.30078-18.20606,23.89453-21.79688,36.89257,10.67969,4.25782,24.80664,4.26758,42.26856-14.15039,15.90722-16.76562,17.46679-36.57031,10.55078-42.623C3193.5,465.33105,3172.8125,485.38086,3168.35352,490.35352Z" style="fill:#630;stroke:#630;stroke-miterlimit:10;stroke-width:2px"/><path d="M3591.04688,481.13672c-1.77833,6.45117-5.17872,13.07422-7.84083,19.34766-6.05664,14.28613-7.01171,16.81445-14.58593,30.59472-13.54688,24.665-38.47364,55.11524-58.13184,75.47461-8.39062,8.68457-32.001,23.543-42.75293,27.082-13.63574,4.49024-20.13086-4.2666-28.61035-11.64062-7.96289-6.918-18.831-13.65235-23.7373-23.57129-5.35645-10.81836-2.97266-27.34375-.334-40.457,6.0791-30.20508,20.42676-60.38282,32.87891-89.56055,5.10644-11.95215,9.04-17.56348,20.05273-14.47461,9.12988,2.56152,18.77051,9.49609,23.28223,18.209,5.03418,9.73535-6.01758,24.4375-10.541,35.15625-5.97265,14.1582-11.0957,28.51074-16.25781,42.83593-5.001,13.86328-11.208,27.97071-14.1748,42.05176-3.06153,14.53027-4.15137,27.07715,12.60253,21.39258,26.47657-8.97949,65.35547-52.12012,80.88672-75.75781,8.97364-13.65821,11.418-16.06446,18.6084-30.54493,5.54-11.15722,12.84668-33.98925,23.3877-41.37988C3590.9248,470.88477,3593.46387,472.36328,3591.04688,481.13672ZM3462.418,439.74023c-.37207-7.3955.59473-18.99218,13.69141-34.24511,15.45312-17.99707,32.06738-20.02051,42.874-23.82032a42.003,42.003,0,0,0,15.26953-9.95214c.94531-.9502,2.251-.4502,2.11719.80566-1.59473,15.28027-11.60157,75.86328-69.90137,71.68457A4.39787,4.39787,0,0,1,3462.418,439.74023Z" style="fill:#630;stroke:#630;stroke-miterlimit:10;stroke-width:2px"/><path d="M3814.9541,489.39355c-.72265,7.19629-14.1084,29.88282-22.17578,42.54688-31.77832,49.88086-52.293,76.98047-75.6084,90.46582-32.13379,18.58691-51.06445-4.40039-65.16211-21.51465-8.55078-26.42676,8.27442-56.64355,19.28711-83.63769,3.79492-9.2793,14.25781-30.32715,7.85156-37.45606-7.79589-8.67969-25.99316,6.98438-33.29492,13.041-27.50488,22.80371-37.30664,52.9541-51.2539,82.99218-1.37207,2.95606-6.02832,16.44727-10.624,27.35547-.10547.25-.20508.51661-.29394.77246-12.208,36.58985-31.7168,17.99707-39.291,8.707a9.87642,9.87642,0,0,1-1.40039-9.47461c8.86328-26.59278,48.92578-145.49219,57.93848-150.42676,6.94531-3.80078,26.88867,10.96289,27.84375,14.07519,2.04492,6.70606,10.22949,8.66211,16.56445,3.58887,8.5791-6.87305,17.78125-11.78516,29.67774-10.7959,13.75195,1.15039,35.13964,7.92871,39.95117,20.9541,6.00683,16.26368-4.54492,41.84082-11.86914,58.54883-12.73535,29.06055-18.36426,45.21973-20.8252,54.05957-1.90625,6.82324,2.70606,12.75782,9.65723,12.08594,9.55176-.92285,24.91015-7.27344,45.51367-31.2832,30.51074-35.55664,54.80957-77.01953,61.76074-89.29981a13.48924,13.48924,0,0,1,8.69043-6.65625C3811.89258,477.23633,3816.01563,478.78613,3814.9541,489.39355Z" style="fill:#630;stroke:#630;stroke-miterlimit:10;stroke-width:2px"/><path d="M4051.7334,475.06348c-.9336,5.11718-28.67188,52.02539-51.64844,65.67285-10.21289,6.0625-21.42578,3.40625-30.73828-1.42285-7.92383-3.16114-23.64844-13.82422-37.8623-24.05957-2.63379,3.65039-4.86231,6.67871-4.86231,6.67871a8.17181,8.17181,0,0,1-.48926-1.73926,2.86025,2.86025,0,0,0,.48926,1.73926q-13.16895,18.9375-28.44434,39.74023c-55.52636,75.5752-92.62695,78.748-92.62695,78.748s-1.34473-.667-18.20312-13.53613c-11.39649-8.70118-11.13575-15.41895-11.13575-15.41895s29.34961-156.36133,41.19043-153.7334,26.749,17.73145,26.749,17.73145c-6.70606,26.37109-34.7168,131.21191-34.7168,131.21191,25.4209-11.80176,93.02246-113.10351,93.02246-113.10351-23.75976-22.1543-25.23242-41.46875-17.21484-75.03028,8.01855-33.56738,61.86133-65.46191,64.13379-65.43945,2.27832.0166,38.36816,27.5498,45.292,33.22851,6.918,5.67286,3.82226,9.30665,3.82226,9.30665-7.02832,23.50976-27.17089,60.083-58.62695,106.93066a2.43112,2.43112,0,0,1-.34473,1.04492c-.08886.15527-.19921.333-.31054.52149l23.48144,15.90332s.97852.61132,2.68457,1.82812c4.32227,2.53906,9.22364,4.28418,15.41309,3.40625,17.42578-2.47266,62.30078-57.29394,62.30078-57.29394S4052.66113,469.94531,4051.7334,475.06348Zm-142.33106,8.89062.7002-1.95019s38.95117-50.293,57.08789-104.875c0,0-7.72363.5-24.39355,18.18164C3926.13281,412.98535,3893.89941,455.55469,3909.40234,483.9541Z" style="fill:#630;stroke:#630;stroke-miterlimit:10;stroke-width:2px"/><path d="M4169.082,531.48438c-20.84668,27.5996-46.18555,55.13281-75.48926,72.45507-16.11816,9.53321-31.21875,16.7666-46.53515,8.55371-9.34082-5.001-19.83887-10.73242-28.05078-18.10546l-.15918.12011S4001.458,581.625,4001.74121,553.3916a60.69814,60.69814,0,0,1,1.81934-15.63867.62535.62535,0,0,1,.02343-.10059c7.84375-35.92773,45.61426-91.29,80.0918-91.35742.7832-.01465,1.55078-.00488,2.30957.04785l.26856.01465c11.07812.81543,19.96289,8.19824,28.95312,14.24121,10.22852,6.87793,18.4707,14.6211,15.2207,29.77442-2.87988,13.40625-10.92968,26.86035-21.26367,36.499-11.44824,10.68457-27.78222,24.5127-42.43164,21.42676-6.71972-1.416-12.65722-5.626-18.4414-8.85156-4.41114-2.457-4.89649-2.32325-7.46387,3.37988a64.79575,64.79575,0,0,0-3.71485,11.83594c-2.59277,11.09765-3.624,34.15234,6.76758,39.20605,11.91309,5.78906,29.832-1.63672,41.47168-8.97559,29.63477-18.68164,61.35254-52.84765,84.959-88.02636,8.12207-12.09571,18.7539-24.80176,27.13867-37.42481,3.375-5.07422,7.10449-7.18554,11.16992-4.11914,2.9375,2.21289,5.57227,4.7041,6.02832,7.03711C4215.59863,467.2373,4180.37109,516.53711,4169.082,531.48438Zm-99.29687-41.13086c-9.25,10.30078-18.20606,23.89453-21.79688,36.89257,10.67969,4.25782,24.80664,4.26758,42.26856-14.15039,15.90722-16.76562,17.46679-36.57031,10.55078-42.623C4094.93164,465.33105,4074.24414,485.38086,4069.78516,490.35352Z" style="fill:#630;stroke:#630;stroke-miterlimit:10;stroke-width:2px"/><path d="M4432.22656,489.39355c-.72265,7.19629-14.1084,29.88282-22.17578,42.54688-31.77832,49.88086-52.293,76.98047-75.6084,90.46582-32.13379,18.58691-51.06445-4.40039-65.16211-21.51465-8.55078-26.42676,8.27442-56.64355,19.28711-83.63769,3.79492-9.2793,14.25782-30.32715,7.85157-37.45606-7.7959-8.67969-25.99317,6.98438-33.29493,13.041-27.50488,22.80371-37.30664,52.9541-51.2539,82.99218-1.37207,2.95606-6.02832,16.44727-10.624,27.35547-.10546.25-.20507.51661-.29394.77246-12.208,36.58985-31.7168,17.99707-39.291,8.707a9.87642,9.87642,0,0,1-1.40039-9.47461c8.86328-26.59278,48.92578-145.49219,57.93848-150.42676,6.94531-3.80078,26.88867,10.96289,27.84375,14.07519,2.04492,6.70606,10.22949,8.66211,16.56445,3.58887,8.5791-6.87305,17.78125-11.78516,29.67774-10.7959,13.75195,1.15039,35.13964,7.92871,39.95117,20.9541,6.00683,16.26368-4.54492,41.84082-11.86914,58.54883-12.73535,29.06055-18.36426,45.21973-20.8252,54.05957-1.90625,6.82324,2.70606,12.75782,9.65723,12.08594,9.55176-.92285,24.91016-7.27344,45.51367-31.2832,30.51074-35.55664,54.80957-77.01953,61.76074-89.29981a13.48924,13.48924,0,0,1,8.69043-6.65625C4429.165,477.23633,4433.28809,478.78613,4432.22656,489.39355Z" style="fill:#630;stroke:#630;stroke-miterlimit:10;stroke-width:2px"/><path d="M4538.541,390.42383c-3.84375,0,2.99218,1.62207-39.41211,1.30664-25.70118,73.41406-56.56153,159.06445-63.09864,178.99707-9.60351,29.28418-28.4082,56.99805,18.8711,24.92578,47.28027-32.07227,86.43457-98.13281,95.5791-112.07812,9.14648-13.94434,17.4668-4.1836,17.4668-4.1836s-34.03516,85.584-108.70411,136.48145c-74.66894,50.89648-76.53906-11.15625-60.25781-61.35645,10.57129-32.59472,29.02149-75.92187,59.709-163.84082-28.96-1.4707-44.4502-4.68066-44.334-11.12207,0,0,5.40528-8.542,13.23242-7.76562,2.43555.24121,13.61524.709,37.2627,1.23828C4478.208,334.791,4487.48828,308.29,4487.48828,308.29c5.99121-17.43066,18.92871-8.36621,27.89063,1.39453s4.43457,23.00781,4.43457,23.00781-5.75782,16.415-14.43555,41.19532c45.27832.92578,42.98242,1.78222,42.98242,1.78222S4546.52051,390.4248,4538.541,390.42383Z" style="fill:#630;stroke:#630;stroke-miterlimit:10;stroke-width:2px"/><path d="M4703.18945,481.13672c-1.77832,6.45117-5.17871,13.07422-7.84082,19.34766-6.05664,14.28613-7.01172,16.81445-14.58593,30.59472-13.54688,24.665-38.47364,55.11524-58.13184,75.47461-8.39063,8.68457-32.001,23.543-42.75293,27.082-13.63574,4.49024-20.13086-4.2666-28.61035-11.64062-7.96289-6.918-18.83106-13.65235-23.73731-23.57129-5.35644-10.81836-2.97265-27.34375-.334-40.457,6.0791-30.20508,20.42676-60.38282,32.87891-89.56055,5.10644-11.95215,9.04-17.56348,20.05273-14.47461,9.12988,2.56152,18.77051,9.49609,23.28223,18.209,5.03418,9.73535-6.01758,24.4375-10.541,35.15625-5.97266,14.1582-11.0957,28.51074-16.25781,42.83593-5.001,13.86328-11.208,27.97071-14.17481,42.05176-3.06152,14.53027-4.15136,27.07715,12.60254,21.39258,26.47657-8.97949,65.35547-52.12012,80.88672-75.75781,8.97363-13.65821,11.418-16.06446,18.6084-30.54493,5.54-11.15722,12.84668-33.98925,23.3877-41.37988C4703.06738,470.88477,4705.60645,472.36328,4703.18945,481.13672Zm-128.6289-41.39649c-.37207-7.3955.59472-18.99218,13.6914-34.24511,15.45313-17.99707,32.06739-20.02051,42.874-23.82032a42.00312,42.00312,0,0,0,15.26953-9.95214c.94531-.9502,2.251-.4502,2.11719.80566-1.59473,15.28027-11.60157,75.86328-69.90137,71.68457A4.39787,4.39787,0,0,1,4574.56055,439.74023Z" style="fill:#630;stroke:#630;stroke-miterlimit:10;stroke-width:2px"/><path d="M4910.95508,472.99609s-27.07715,25.61036-45.25293,44.63575c-5.8125,5.86816-12.83594,11.55761-20.37012,14.64746-13.28613,6.17871-29.583-.94434-36.97851-5.74024-4.65137,18.28125-14.25293,35.43457-19.80372,42.80274-20.4707,27.18261-53.415,55.15429-83.2871,53.80957-25.65528-1.15625-48.22559-17.542-50.34278-46.0918-2.10058-28.38867,3.85059-68.6123,26.33789-96.57812,20.9375-26.03321,62.63379-49.10352,86.82715-29.85059,10.76856,8.56836,20.43652,17.94824,28.64356,29.59961,7.69043,10.93066,11.70214,19.915,21.77636,28.62207,19.29785,7.8125,45.49707-14.8418,56.249-26.6543,7.90136-8.67969,30.36621-30.61133,38.24609-23.13769C4918.88379,464.63965,4910.95508,472.99609,4910.95508,472.99609Zm-145.48731,63.26172c-38.46289,29.083-57.51074-.7334-64.83984-13.01367-1.15527,1.81152-2.24414,3.61719-3.2334,5.40625-7.50195,13.56934-14.80273,31.07227-16.10351,45.74219-1.54981,17.4082,10.6582,27.75488,25.85546,23.75976C4729.68359,592.23438,4748.97559,563.28516,4765.46777,536.25781Zm-35.04-46.4414c3.92286,12.11328,11.93555,30.666,25.27149,35.77832,5.81738,2.2334,12.63574-1.52246,18.081-3.88379,10.15723-20.6377,10.66309-38.99024-5.3457-54.18262C4756.44336,470.94043,4742.86914,479.26367,4730.42773,489.81641Z" style="fill:#630;stroke:#630;stroke-miterlimit:10;stroke-width:2px"/><path d="M5131.57422,489.39355c-.72266,7.19629-14.1084,29.88282-22.17578,42.54688-31.77832,49.88086-52.293,76.98047-75.6084,90.46582-32.13379,18.58691-51.06445-4.40039-65.16211-21.51465-8.55078-26.42676,8.27441-56.64355,19.28711-83.63769,3.79492-9.2793,14.25781-30.32715,7.85156-37.45606-7.7959-8.67969-25.99316,6.98438-33.29492,13.041-27.50488,22.80371-37.30664,52.9541-51.25391,82.99218-1.37207,2.95606-6.02832,16.44727-10.624,27.35547-.10547.25-.20508.51661-.294.77246-12.208,36.58985-31.71679,17.99707-39.291,8.707a9.87642,9.87642,0,0,1-1.40039-9.47461c8.86328-26.59278,48.92578-145.49219,57.93848-150.42676,6.94531-3.80078,26.88867,10.96289,27.84375,14.07519,2.04492,6.70606,10.22949,8.66211,16.56445,3.58887,8.5791-6.87305,17.78125-11.78516,29.67773-10.7959,13.752,1.15039,35.13965,7.92871,39.95117,20.9541,6.00684,16.26368-4.54492,41.84082-11.86914,58.54883-12.73535,29.06055-18.36425,45.21973-20.82519,54.05957-1.90625,6.82324,2.706,12.75782,9.65723,12.08594,9.55175-.92285,24.91015-7.27344,45.51367-31.2832,30.51074-35.55664,54.80957-77.01953,61.76074-89.29981a13.48921,13.48921,0,0,1,8.69043-6.65625C5128.5127,477.23633,5132.63574,478.78613,5131.57422,489.39355Z" style="fill:#630;stroke:#630;stroke-miterlimit:10;stroke-width:2px"/></g></g><g id="aabcb74a-614b-4275-bfe8-7eea228f74ab" data-name="soulignage"><path d="M2900.02166,736.17828c-704.45918,38.46475-1384.7611,64.947-2299.8823,69.50456-85.3792.42918-82.65751,9.73246,3.14606,9.30272,818.64268-4.07605,1494.17785-24.149,2140.56888-58.56388,720.06655-38.345,1382.44006-70.55478,2296.619-82.40906,84.30389-1.09852,45.282-10.00828-38.4282-8.9208C4192.43308,675.59836,3540.40939,701.2152,2900.02166,736.17828Z" style="fill:#630;stroke:#630;stroke-miterlimit:10;stroke-width:7px"/></g><g id="a8dccfb4-8309-4a23-990c-c7e7c6c30cb9" data-name="icons"><g id="b47ed581-73aa-45fc-aeef-90d5a2d74b37" data-name="Car"><path d="M5619.99752,899.47014a39.538,39.538,0,0,0-21.08511-35.46915l-8.23566-4.28954.019-2.16872c.17166-19.67482-15.28889-40.80182-34.59125-40.97023l-118.7878-1.03664a114.24032,114.24032,0,0,1-87.79227-42.35973,58.79463,58.79463,0,0,0-45.18845-21.80095l-157.33242-1.373a58.15494,58.15494,0,0,0-39.44175,15.03034l-57.84994,52.16161a30.91964,30.91964,0,0,0-29.46867,21.25761l-8.00585,23.77006L4988.47607,937.531l.86154.09011,630.279,5.50015ZM5311.1921,824.9313,5152.44787,823.546a15.11724,15.11724,0,0,1-14.98914-15.24705l.10263-11.76281a15.12112,15.12112,0,0,1,15.253-14.98311l158.74423,1.38529a15.12109,15.12109,0,0,1,14.98913,15.247l-.10263,11.76286A15.11728,15.11728,0,0,1,5311.1921,824.9313Z" style="fill:#630"/><path d="M5381.66244,941.04472l237.94813,2.07647.38784-44.44406a40.33126,40.33126,0,0,0-21.18155-36.1189l-8.27105-4.36192-117.27993-1.02344C5425.98625,856.76028,5386.77536,893.52973,5381.66244,941.04472Z" style="fill:#b36212"/><path d="M5168.19052,894.442c.254-29.10071-24.76053-52.16155-54.23044-50.03954-30.76242,2.21287-124.632,92.40944-124.632,92.40944l178.47912,1.5575Z" style="fill:#b36212"/><path d="M5150.26465,932.59081a48.43493,48.43493,0,1,1-48.01044-48.85574A48.43893,48.43893,0,0,1,5150.26465,932.59081Z" style="fill:#fff"/><path d="M5135.61889,883.90967a58.91622,58.91622,0,1,0,14.46839,82.05429A58.98379,58.98379,0,0,0,5135.61889,883.90967Zm-26.26032,76.846a2.45372,2.45372,0,0,1-1.991,2.84346,31.70449,31.70449,0,0,1-23.84618-5.28646,2.45492,2.45492,0,0,1,2.81617-4.0219,26.83236,26.83236,0,0,0,20.17769,4.4737A2.45392,2.45392,0,0,1,5109.35857,960.75563Zm-16.29282-70.14479a2.4548,2.4548,0,0,1,.99836-4.4311,46.37609,46.37609,0,0,1,34.51463,7.78431,2.45492,2.45492,0,0,1-2.81617,4.02191,41.49663,41.49663,0,0,0-30.87947-6.96568A2.446,2.446,0,0,1,5093.06575,890.61084Zm1.22756,12.97556a2.45373,2.45373,0,0,1,1.991-2.84347,31.70444,31.70444,0,0,1,23.84618,5.28646,2.45492,2.45492,0,0,1-2.81616,4.0219,26.83237,26.83237,0,0,0-20.1777-4.47369,2.4536,2.4536,0,0,1-2.84333-1.9912Zm-8.55442,17.32034a19.63866,19.63866,0,1,1,4.82278,27.35132A19.66113,19.66113,0,0,1,5085.73889,920.90674Zm24.18607,57.19608a46.32961,46.32961,0,0,1-34.85181-7.72485,2.45492,2.45492,0,0,1,2.81616-4.02191,41.45312,41.45312,0,0,0,31.18333,6.9121,2.45461,2.45461,0,0,1,.85232,4.83466Z"/><circle cx="5101.82594" cy="932.17101" r="4.90961"/><path d="M5597.31853,936.49205a48.43493,48.43493,0,1,1-48.01044-48.85575A48.43893,48.43893,0,0,1,5597.31853,936.49205Z" style="fill:#fff"/><path d="M5594.02381,898.198a58.91621,58.91621,0,1,0-7.26114,83.00311A58.98379,58.98379,0,0,0,5594.02381,898.198Zm-45.25416,67.43119a2.45371,2.45371,0,0,1-2.65909,2.23128,31.70446,31.70446,0,0,1-21.6655-11.278,2.45492,2.45492,0,0,1,3.76113-3.156,26.83235,26.83235,0,0,0,18.33235,9.54348A2.45393,2.45393,0,0,1,5548.76965,965.62919Zm2.41655-71.97157a2.45481,2.45481,0,0,1,2.11117-4.02174,46.37612,46.37612,0,0,1,31.324,16.45186,2.45492,2.45492,0,1,1-3.76113,3.156,41.49663,41.49663,0,0,0-28.02455-14.72029A2.446,2.446,0,0,1,5551.1862,893.65762Zm-2.17248,12.85116a2.45374,2.45374,0,0,1,2.6591-2.23129,31.7045,31.7045,0,0,1,21.6655,11.278,2.45492,2.45492,0,0,1-3.76113,3.156,26.83234,26.83234,0,0,0-18.33236-9.54348,2.45359,2.45359,0,0,1-2.23111-2.65924ZM5536.26808,921.025a19.63866,19.63866,0,1,1-2.42038,27.6676A19.66113,19.66113,0,0,1,5536.26808,921.025Zm8.559,61.50692a46.32963,46.32963,0,0,1-31.66507-16.48169,2.45492,2.45492,0,0,1,3.76113-3.156,41.45317,41.45317,0,0,0,28.33192,14.74718,2.45461,2.45461,0,0,1-.428,4.89052Z"/><circle cx="5548.89169" cy="936.06898" r="4.90961"/></g><g id="f5fb4731-3fbd-477f-88bc-fb5d80b0726c" data-name="bulb"><g id="bff873ce-5072-4a87-a308-f97632982e8d" data-name="13 idea"><path d="M275.36407,651.28386a7.50865,7.50865,0,1,0,0-15.0173H272.651V610.8873l.14317-.854a106.43225,106.43225,0,0,1,8.18042-26.66372,7.50859,7.50859,0,0,0-13.65973-6.23919,121.726,121.726,0,0,0-8.4157,25.62554H170.86865a121.6739,121.6739,0,0,0-37.55327-65.99305,122.0673,122.0673,0,0,1-39.9871-77.74459,7.50868,7.50868,0,1,0-14.9292,1.62487,137.062,137.062,0,0,0,44.89073,87.2996A106.81373,106.81373,0,0,1,156.91356,609.765l.18822,1.1233v25.37825h-2.46285a7.50866,7.50866,0,0,0,0,15.01731h2.46285v18.4943h-2.46285a7.50865,7.50865,0,0,0,0,15.01731h2.46285v12.87482a20.65282,20.65282,0,0,0,13.54862,19.35629,44.08133,44.08133,0,0,0,24.52226,36.57114,7.50889,7.50889,0,1,0,6.6817-13.44949A29.15317,29.15317,0,0,1,185.897,718.30709h57.96081a29.14628,29.14628,0,0,1-15.95637,21.84018,7.50844,7.50844,0,1,0,6.68168,13.44848,44.08013,44.08013,0,0,0,24.52127-36.57016,20.6515,20.6515,0,0,0,13.5486-19.3563V684.79447h2.71312a7.50866,7.50866,0,1,0,0-15.01731H272.653v-18.4933Zm-103.248-33.51161h85.51655v18.49431H172.11608Zm85.51756,79.89707a5.62587,5.62587,0,0,1-5.61948,5.61949H177.73655a5.62587,5.62587,0,0,1-5.61948-5.61949V684.7945h85.51657Zm0-27.89216H172.11708v-18.4933h85.51656Z" style="fill:#630"/><path d="M215.00049,484.12922a38.51338,38.51338,0,1,0-38.51338-38.51338A38.55684,38.55684,0,0,0,215.00049,484.12922Zm0-62.00947a23.49607,23.49607,0,1,1-23.49607,23.49607A23.52313,23.52313,0,0,1,215.00049,422.11975Z" style="fill:#b36212"/><path d="M132.25613,422.19883a12.528,12.528,0,0,0-12.51443,12.51443v21.80512a12.528,12.528,0,0,0,12.51443,12.51443H147.2434a71.32788,71.32788,0,0,0,3.2908,7.93314L139.933,487.56717a12.52736,12.52736,0,0,0,0,17.6974l15.41777,15.41776a12.52854,12.52854,0,0,0,17.69839,0l10.60122-10.60023a71.32965,71.32965,0,0,0,7.93314,3.29078v14.98727a12.528,12.528,0,0,0,12.51442,12.51443H225.902a12.528,12.528,0,0,0,12.51442-12.51443V513.37288a71.33568,71.33568,0,0,0,7.93316-3.29078l10.60121,10.60023a12.51521,12.51521,0,0,0,17.69938.001L290.068,505.26454a12.531,12.531,0,0,0,0-17.6974l-10.6012-10.60122a70.946,70.946,0,0,0,3.2898-7.93314h14.98828a12.528,12.528,0,0,0,12.51442-12.51443V434.71323a12.528,12.528,0,0,0-12.51442-12.51443H282.75656a71.20924,71.20924,0,0,0-3.2898-7.93314l10.6012-10.60122a12.531,12.531,0,0,0,0-17.6974l-15.41877-15.41877a12.51641,12.51641,0,0,0-17.69837.001l-10.60121,10.60122a71.14,71.14,0,0,0-7.93316-3.2908V362.87242A12.528,12.528,0,0,0,225.902,350.358H204.09791a12.528,12.528,0,0,0-12.51442,12.51442v14.98727a71.13968,71.13968,0,0,0-7.93314,3.2908l-10.60122-10.60122a12.52854,12.52854,0,0,0-17.69839,0L139.933,385.967a12.52856,12.52856,0,0,0,0,17.69839l10.60123,10.60123a71.33078,71.33078,0,0,0-3.29179,7.93314H132.25614ZM165.102,407.596l-12.78074-12.77973,11.8787-11.8787,12.77973,12.78074a7.50924,7.50924,0,0,0,9.14353,1.14632,56.27389,56.27389,0,0,1,14.82509-6.14908,7.508,7.508,0,0,0,5.65251-7.27639V365.37435h16.79835v18.06482a7.50953,7.50953,0,0,0,5.65352,7.27639,56.25479,56.25479,0,0,1,14.8251,6.14908,7.50922,7.50922,0,0,0,9.14353-1.14632L265.801,382.93758l11.87868,11.8787L264.899,407.597a7.50921,7.50921,0,0,0-1.14631,9.14354,56.25839,56.25839,0,0,1,6.14808,14.82308,7.50887,7.50887,0,0,0,7.27639,5.65352H295.243v16.79936H277.17716a7.50977,7.50977,0,0,0-7.27639,5.65352,56.24536,56.24536,0,0,1-6.14808,14.82308,7.50941,7.50941,0,0,0,1.14631,9.14353l12.78072,12.78074L265.801,508.29608,253.0213,495.51635a7.507,7.507,0,0,0-9.14353-1.14732,56.27921,56.27921,0,0,1-14.8251,6.14908,7.50863,7.50863,0,0,0-5.65352,7.2754v18.06483H206.6008V507.79351a7.50771,7.50771,0,0,0-5.65251-7.27538A56.327,56.327,0,0,1,186.1232,494.369a7.50959,7.50959,0,0,0-9.14353,1.14732l-12.77973,12.77975-11.8787-11.8787L165.101,483.63667a7.50941,7.50941,0,0,0,1.14732-9.14353,56.29561,56.29561,0,0,1-6.15009-14.82409,7.50771,7.50771,0,0,0-7.27539-5.65251H134.758V437.21718h18.06482a7.50773,7.50773,0,0,0,7.27539-5.65251,56.2961,56.2961,0,0,1,6.15009-14.82509,7.509,7.509,0,0,0-1.14633-9.14353Z" style="fill:#b36212"/><path d="M312.74015,349.0235A137.74435,137.74435,0,0,0,78.69542,428.29286a7.50878,7.50878,0,1,0,14.89417,1.92121A122.39059,122.39059,0,1,1,297.32535,536.18219a129.275,129.275,0,0,0-11.08678,11.40813,7.50876,7.50876,0,1,0,11.39616,9.78026A114.26149,114.26149,0,0,1,307.429,547.293a137.40408,137.40408,0,0,0,5.31112-198.26951Z" style="fill:#630"/></g><g id="b95799a1-91cc-48d3-92b0-67841dae65e9" data-name="flash"><path d="M215.00049,294.33447a7.50882,7.50882,0,0,0,7.50865-7.50865V253.125a7.50865,7.50865,0,0,0-15.0173,0v33.70084A7.50818,7.50818,0,0,0,215.00049,294.33447Z" style="fill:#b36212"/><path d="M345.80224,304.19484,321.97177,328.0253A7.50893,7.50893,0,0,0,332.592,338.64354l23.83047-23.83046a7.50894,7.50894,0,1,0-10.62024-10.61824Z" style="fill:#b36212"/><path d="M97.409,552.58812,73.57851,576.41859a7.50823,7.50823,0,1,0,10.61824,10.61823l23.83046-23.83048A7.50822,7.50822,0,0,0,97.409,552.58812Z" style="fill:#b36212"/><path d="M97.409,338.64354A7.50823,7.50823,0,1,0,108.0272,328.0253L84.19673,304.19483a7.50823,7.50823,0,0,0-10.61824,10.61824Z" style="fill:#b36212"/><path d="M332.592,552.58812a7.50858,7.50858,0,0,0-10.61924,10.61822l23.83048,23.83048a7.50892,7.50892,0,0,0,10.62021-10.61823Z" style="fill:#b36212"/><path d="M56.21049,438.10717H22.50865a7.50865,7.50865,0,0,0,0,15.0173H56.20949a7.50865,7.50865,0,0,0,.001-15.0173Z" style="fill:#b36212"/><path d="M407.49135,438.10717H373.79052a7.50865,7.50865,0,0,0,0,15.0173h33.70083a7.50865,7.50865,0,0,0,0-15.0173Z" style="fill:#b36212"/></g></g><path d="M3615.90445,49.06867a8.21043,8.21043,0,0,0-.592-.89089,8.07416,8.07416,0,0,0-4.482-2.93915l-.0089-.00243-.01216-.00243a.03086.03086,0,0,0-.01377-.00324c-.13688-.034-.27376-.06317-.41224-.08909-.00648.00081-.0089-.00162-.01377-.00243l-.01134-.00162a8.06788,8.06788,0,0,0-4.32977.38066l-341.65313,121.9953a8.09933,8.09933,0,0,0-1.00185,14.81885l69.70941,36.11128L3357.35576,327.524a8.033,8.033,0,0,0,1.27884,2.991,8.14007,8.14007,0,0,0,1.03263,1.214A8.08772,8.08772,0,0,0,3365.288,334h.0405a8.07168,8.07168,0,0,0,5.4531-2.14382l65.7919-60.64494,72.21608,36.44334a8.09751,8.09751,0,0,0,11.19372-4.28844L3616.38066,56.157a8.27693,8.27693,0,0,0,.34825-1.06017,8.09278,8.09278,0,0,0-.82446-6.02813ZM3287.34911,176.50979l245.78537-87.763L3339.895,203.72992Zm82.629,51.98867-.00324.00566-.00324.00648-.00647.01295v.00082l-.00324.00647-.00162.00324-.00405.00811-.00162.00324-.00486.00889-.00082.00163a8.06686,8.06686,0,0,0-.81152,2.78445l-6.02812,47.46373-13.76193-61.84927L3498.358,128.288l-125.98169,97.37417A8.0654,8.0654,0,0,0,3369.97814,228.49846Zm6.14394,76.4041,7.66172-60.33151,37.34394,18.84571Zm132.00655-15.72433L3439.03557,254.311q-.17375-.09354-.35231-.17818l-46.376-23.403L3590.722,77.37Z" style="fill:#630"/></g><g id="e7ff799e-8446-44e9-b99e-098ba764a9d6" data-name="Ancrage"><rect x="5624" y="999" width="1" height="1" style="fill:none"/><rect x="5624" width="1" height="1" style="fill:none"/><rect y="999" width="1" height="1" style="fill:none"/><rect width="1" height="1" style="fill:none"/></g></svg>