<svg xmlns="http://www.w3.org/2000/svg" viewBox="0 0 5625 1000">
  <defs>
    <style>
      .cls-1 {
        fill: #d4145a;
      }

      .cls-10, .cls-2 {
        fill: none;
      }

      .cls-2 {
        stroke: #d4145a;
        stroke-miterlimit: 10;
        stroke-width: 18px;
      }

      .cls-3 {
        fill: #713708;
      }

      .cls-4 {
        fill: #ed1e79;
      }

      .cls-5 {
        fill: #29abe2;
      }

      .cls-6 {
        fill: #cae8f9;
      }

      .cls-7 {
        fill: #e1e4fb;
      }

      .cls-8 {
        fill: #b7e0f6;
      }

      .cls-9 {
        fill: #c5c9f7;
      }
    </style>
  </defs>
  <title>logo_clubs_polytech_angers</title>
  <g id="Texte">
    <g>
      <path class="cls-1" d="M1556.02344,851.04H1245.78271v-30.3877h10.84766q7.22022,0,11.209-1.44726c2.644-.97168,4.70068-3.50391,6.147-7.59668q2.16944-6.15528,2.53125-18.08789.35595-11.93849,1.08447-32.91992,0-7.97022.36182-28.57911.356-20.6206.72314-48.11425.356-27.4878.72315-58.24317.356-30.74414.72314-58.60547.356-27.84375.36182-48.83691V467.5752q0-15.1941-.36182-35.09082-.3728-19.89112-.72314-42.32569-.37281-22.418-1.085-43.41113-.72876-20.97657-1.08448-37.62305-.37279-16.63549-1.085-25.32324-1.45752-14.4646-7.95459-17.36426-6.509-2.88281-22.41846-2.894v-30.3877h129.44776V263.543l-8.67822-.72363q-17.3562,0-20.97168,20.98193,0,3.62915-1.085,28.21728-1.08473,24.60572-2.16944,58.605-1.08471,34.01659-1.8081,70.543-.72876,36.54347-.72315,63.30811,0,142.544,4.33887,266.25488a105.62457,105.62457,0,0,0,1.085,11.93848,102.23536,102.23536,0,0,0,3.61572,16.64062,49.78084,49.78084,0,0,0,7.23194,14.832q4.69482,6.51123,11.209,6.51171h141.7417q18.79688,0,18.80225-39.79394h28.2041Z"/>
      <path class="cls-1" d="M1644.249,650.625q-25.32275,81.769-101.24414,81.75781-26.03392,0-47.00634-12.2998a120.08653,120.08653,0,0,1-36.15821-32.91992q-15.18677-20.62061-23.50342-48.11426a196.15224,196.15224,0,0,1-8.3164-57.1582V541.374a170.52485,170.52485,0,0,1,8.67822-54.26367,146.93466,146.93466,0,0,1,24.22607-45.582,126.02992,126.02992,0,0,1,36.52-31.47266,90.51436,90.51436,0,0,1,45.56006-11.93847q46.27149,0,72.67871,25.68506,26.3899,25.69042,26.39551,71.99023a55.21456,55.21456,0,0,1-2.16943,15.91748,31.87811,31.87811,0,0,1-8.31641,13.38477,82.55475,82.55475,0,0,1-16.63281,12.2998,291.43773,291.43773,0,0,1-26.396,13.38574l-91.11963,40.51661v54.26367q0,23.16357,13.37891,39.79394,13.37329,16.65234,32.18115,16.64063a89.88293,89.88293,0,0,0,25.67237-3.97949,109.56449,109.56449,0,0,0,24.9497-10.85254,89.54972,89.54972,0,0,0,20.24854-16.2793,55.91031,55.91031,0,0,0,12.29394-20.25879Zm-44.11377-161.34424q0-60.77563-57.13037-60.77539A36.807,36.807,0,0,0,1524.564,433.208a48.12415,48.12415,0,0,0-14.46337,12.66162,58.7226,58.7226,0,0,0-9.40137,18.08789,68.21226,68.21226,0,0,0-3.2544,20.98193v70.18164l81.71875-33.28222Q1600.12988,513.15674,1600.13525,489.28076Z"/>
      <path class="cls-1" d="M1815.63574,398.11719a87.01006,87.01006,0,0,1,33.26612,6.51172q15.89794,6.51195,26.03418,25.32324v-30.3877h27.48046V492.1748H1874.936q0-25.31762-14.8252-44.49658-14.83082-19.16161-37.24316-19.17285-36.16994,0-36.1587,36.89942a43.88092,43.88092,0,0,0,3.97754,19.17285,46.63443,46.63443,0,0,0,12.65528,15.55566,143.92746,143.92746,0,0,0,22.41845,14.83252q13.72926,7.59667,33.98926,17.00293,32.54224,15.19337,45.92139,40.5166,13.37256,25.33447,13.37842,62.22266a90.765,90.765,0,0,1-8.67823,39.79394,98.10178,98.10178,0,0,1-23.86425,31.47266,113.04571,113.04571,0,0,1-35.43555,20.98242,120.50457,120.50457,0,0,1-42.667,7.59668,99.42926,99.42926,0,0,1-34.71241-6.15039,96.44934,96.44934,0,0,1-30.01171-17.72559,88.5713,88.5713,0,0,1-21.69483-28.5791q-8.32251-16.99218-9.76318-38.708l22.41846-6.51172q3.61009,30.38671,24.22607,48.83691,20.61034,18.44971,47.36768,18.4502,20.23753,0,34.7124-15.19434,14.458-15.19336,14.46338-36.89941,0-24.58742-9.40137-37.26075a80.33119,80.33119,0,0,0-24.22608-21.34375q-14.8308-8.68212-33.62744-17.36523-18.81372-8.68214-36.88183-26.0459a69.17482,69.17482,0,0,1-20.24854-32.9209,140.3973,140.3973,0,0,1-5.78564-39.43115,71.54526,71.54526,0,0,1,6.87012-31.11133A80.72416,80.72416,0,0,1,1750.91211,421.27a86.46476,86.46476,0,0,1,28.56494-17.00293A103.6435,103.6435,0,0,1,1815.63574,398.11719Z"/>
      <path class="cls-1" d="M3280.01367,851.04H2969.77344v-30.3877h10.84765q7.22169,0,11.209-1.44726,3.96679-1.45752,6.14844-7.59668,2.168-6.15528,2.52929-18.08789.35742-11.93849,1.08594-32.91992,0-7.97022.36133-28.57911.35449-20.6206.72265-48.11425.35744-27.4878.72461-58.24317.35449-30.74414.72266-58.60547.3545-27.84375.36133-48.83691V467.5752q0-15.1941-.36133-35.09082-.375-19.89112-.72266-42.32569-.375-22.418-1.08593-43.41113-.72949-20.97657-1.084-37.62305-.375-16.63549-1.08594-25.32324-1.456-14.4646-7.95507-17.36426-6.50683-2.88281-22.418-2.894v-30.3877H3099.2207V263.543l-8.67773-.72363q-17.35547,0-20.9707,20.98193,0,3.62915-1.08594,28.21728-1.084,24.60572-2.16992,58.605-1.084,34.01659-1.80664,70.543-.7295,36.54347-.72266,63.30811,0,142.544,4.33789,266.25488a105.33522,105.33522,0,0,0,1.08594,11.93848,102.13052,102.13052,0,0,0,3.61523,16.64062,49.78991,49.78991,0,0,0,7.23047,14.832q4.69629,6.51123,11.21094,6.51171h141.74023q18.79688,0,18.80274-39.79394h28.20312Z"/>
      <path class="cls-1" d="M3674.85938,263.543a31.30489,31.30489,0,0,0-5.42383-.72363h-3.25391q-16.64355,0-20.60937,22.06738-3.98437,22.07886-3.97852,71.99023,0,20.26392.36133,56.07276.35742,35.814,1.08594,78.50146.71191,42.69873,1.084,87.90723.35742,45.22559.36133,84.29,0,96.94629-26.0332,145.78906-26.03615,48.83788-91.84375,48.83789-81,0-117.51563-44.13476-36.52442-44.14014-36.51953-134.57422,0-13.73585.36133-41.60254.35742-27.84375,1.08593-59.69043.71192-31.8296,1.084-62.94629.35742-31.09936.36133-52.09326V421.27q0-19.53516-.36133-39.79346-.37208-20.24706-1.44531-43.77295-1.08691-23.50341-2.53125-53.90234-2.17091-14.4646-7.59375-17.36426-5.42286-2.88281-22.7793-2.894v-30.3877h134.50977V263.543a31.328,31.328,0,0,0-5.42383-.72363h-3.25586q-9.4043,0-14.46289,8.32031-5.06837,8.32617-7.59375,27.13232-2.54,18.82251-3.25391,49.19922-.72949,30.38745-.72266,75.24561,0,21.70605.36133,79.58789.35742,57.89208.36133,138.915,0,34.72851,1.80859,68.01074,1.79591,33.271,10.48633,59.69043,8.67774,26.40234,25.67188,42.6875,16.98339,16.27881,47.36719,16.2793,31.0869,0,48.45312-17.00293,17.35547-17.00831,25.67188-47.02832,8.30565-30.03223,10.125-70.18165,1.79589-40.15575,1.80859-85.7373,0-2.16944-.36133-20.62012-.375-18.4497-.72461-45.94336-.37208-27.48779-1.084-60.77539-.7295-33.271-1.084-65.1167-.375-31.82958-.72461-58.96679-.37206-27.13183-.36132-42.32569,0-26.759-6.50782-38.70849-6.50976-11.93775-26.75781-11.938v-30.3877h99.79688Z"/>
      <path class="cls-1" d="M4049.459,669.43652q0,41.24121-9.76171,74.52246-9.76466,33.271-27.8418,57.15821a124.84292,124.84292,0,0,1-44.11524,36.89941Q3941.707,851.04053,3909.88672,851.04H3721.86328v-30.3877h7.23047q9.38965,0,14.82617-4.70312,5.42286-4.71387,8.31641-21.70508,2.87988-17.00831,3.61523-50.64648.71191-33.64454.72266-91.52539,0-75.96974-1.084-144.70313-1.084-68.729-2.16992-120.46631-1.084-51.72-2.16992-82.481-1.084-30.74415-1.084-31.47315a13.15046,13.15046,0,0,0-9.76368-7.959,93.66914,93.66914,0,0,0-18.43945-1.44678v-30.3877h154.75781q55.67871,0,85.334,37.98438,29.6455,37.98486,29.65039,104.54883,0,72.35742-39.05078,105.6333,21.69434,6.512,39.77344,23.51416,18.07031,17.00829,30.73632,42.32617a243.918,243.918,0,0,1,19.52539,56.43457A304.9807,304.9807,0,0,1,4049.459,669.43652ZM3843.35547,263.543q-11.5752,0-16.99414,13.38476-5.42286,13.39674-7.59375,40.15577-2.168,26.77513-2.16992,66.92529,0,40.155-.72266,92.97217h46.2832q28.20411,0,44.11328-23.15283,15.89942-23.14674,15.91016-57.88135V351.08887q0-39.07032-17.35742-63.30811-17.35547-24.23217-47.72852-24.23779ZM3815.875,507.36914q1.44141,65.84473,1.44727,129.87109V767.1123q0,5.05225.72265,14.1084a87.29621,87.29621,0,0,0,3.25391,17.72559,44.83626,44.83626,0,0,0,7.59375,15.19434,16.46936,16.46936,0,0,0,13.74023,6.51171h47.00586q40.49121,0,65.08594-29.66406,24.57421-29.67627,24.58789-76.69336V631.81348q0-56.43311-22.78125-90.43946-22.77833-33.999-66.89258-34.00488Z"/>
      <path class="cls-1" d="M4338.72266,731.65918q0,29.65869-10.84766,53.541a120.14478,120.14478,0,0,1-28.92578,40.15527,130.64471,130.64471,0,0,1-40.49805,24.96094,125.23352,125.23352,0,0,1-45.55859,8.68261q-34.002,0-60.02344-21.34375-26.03613-21.35009-36.88281-61.13769l22.418-5.78809a87.711,87.711,0,0,0,25.67383,41.24024,62.21761,62.21761,0,0,0,43.02734,16.6416q36.88184,0,52.06836-23.15332,15.1875-23.16357,15.1875-64.39258,0-43.41211-19.16406-88.63086-19.16895-45.20947-58.21485-99.48437-39.05273-54.26369-57.85351-107.8042-18.81446-53.53492-18.80274-96.95166,0-28.21656,8.31641-51.00782,8.30566-22.79076,22.418-38.708a97.20839,97.20839,0,0,1,33.62695-24.6001,102.04622,102.04622,0,0,1,41.94531-8.68213q23.13574,0,52.06836,24.59961V219.4082h27.48047v92.61035h-27.48047q0-25.31762-13.74023-40.8789-13.74609-15.55005-38.32813-15.55567-43.3916,0-43.39062,70.90528,0,85.38061,77.3789,199.69043,39.04982,57.16405,58.57618,106.35742Q4338.72362,681.74854,4338.72266,731.65918Z"/>
    </g>
  </g>
  <g id="soulignage">
    <g id="Haut">
      <line class="cls-2" x1="4812.5" y1="18" x2="812.5" y2="18"/>
      <line class="cls-2" x1="950" y1="67" x2="4675" y2="67"/>
    </g>
    <g id="Bas">
      <line class="cls-2" x1="4812.5" y1="982" x2="812.5" y2="982"/>
      <line class="cls-2" x1="950" y1="933" x2="4675" y2="933"/>
    </g>
  </g>
  <g id="icons">
    <g id="Solid">
      <path class="cls-1" d="M2627.59764,116.8226v-5.27831l-6.09409,3.82229c-4.24509,2.65954-9.37182,1.61591-12.727-2.59079L2603.3701,106l-14.94169,9.36658c-4.24509,2.65954-9.37182,1.61591-12.727-2.59079L2570.295,106l-14.94173,9.36657c-4.24508,2.65953-9.37177,1.6159-12.727-2.59079l-3.22895-4.04682-27.954,35.03788c-10.38762,12.94747-16.16883,38.21377-16.14619,48.84852v7.73784c5.47392-.399,10.98371-.62524,16.53758-.62524h27.56261V185.9104a15.7675,15.7675,0,0,1,3.229-9.77074l22.05007-27.63513a10.03814,10.03814,0,0,1,7.79608-4.04681h33.07515C2617.71949,144.43964,2627.58321,132.07756,2627.59764,116.8226Z"/>
      <path class="cls-1" d="M2256.93557,774.69737l-.97434,4.71526h7.80986c6.089,0,11.025,6.18634,11.025,13.81756v13.81756h11.025c6.089,0,11.02505,6.18634,11.02505,13.81756v13.81756h11.025c6.089,0,11.025,6.18634,11.025,13.81756V862.318h38.7503c14.62855.04849,28.66456-7.24007,38.979-20.24094l13.7-17.17006,15.063,18.87823a211.47829,211.47829,0,0,0,86.446,18.5276H2667.9507c-9.64553-1.14169-19.19185-2.3352-28.49837-3.58221l2.34282-27.47794c14.192,1.89993,28.916,3.69274,43.7653,5.33012l-1.80673,25.7352h44.41854l1.21137-21.37921c14.61784,1.30747,29.38037,2.46645,43.87832,3.45439l-.77727,17.92482h44.238l.44926-15.417c15.35651.69956,30.12594,1.17622,43.899,1.418l-.15572,13.99894h8.14337c-2.71854-16.83009-10.15236-31.88554-20.95726-42.4441v.99658c-11.37234,0-22.88938-.14853-34.2314-.44044l.27563-16.942L2770.445,791.959l-1.02257,26.56078c-15.00508-.9085-29.94265-2.08989-44.39924-3.51137l1.724-27.55046c12.53135,1.228,25.44444,2.26431,38.44022,3.10893l-223.08218-58.86109c-35.2691-9.30761-64.98316-38.88382-80.20265-79.83064-26.70411-71.8451-1.88076-157.21812,55.44453-190.68607v-41.033h22.05009v48.56526c-.039,18.33186,5.775,35.92149,16.14619,48.84852l27.954,35.0379,3.229-4.03642c3.35522-4.20671,8.482-5.25031,12.727-2.59079l14.94169,9.36311,5.40642-6.77579c3.35522-4.20672,8.482-5.25032,12.727-2.5908l14.94168,9.36311,5.40642-6.77579c3.35522-4.20672,8.482-5.25032,12.727-2.5908l6.09409,3.81883v-5.27831c-.01443-15.255-9.87815-27.617-22.0501-27.63512h-33.07514a10.038,10.038,0,0,1-7.79608-4.04679l-22.0501-27.63512a15.76751,15.76751,0,0,1-3.229-9.77076V447.79121H2650.877A65.10827,65.10827,0,0,0,2685.39094,437.58l49.85526-31.2415h-77.79c-28.65516-.04-51.87677-29.14336-51.90868-65.05652v-8.06255c.24559-24.554,11.35641-46.90345,28.83463-58.00092,11.67-7.42694,23.934-7.0556,36.57283-7.0556h44.843a9.24813,9.24813,0,0,1,4.93095,1.45948l17.11914,10.7276,17.11914-10.7276a9.24816,9.24816,0,0,1,4.93095-1.45948h11.025a9.24821,9.24821,0,0,1,4.931,1.45948l17.11913,10.7276,17.11914-10.7276a9.24819,9.24819,0,0,1,4.931-1.45948h11.02505a9.24816,9.24816,0,0,1,4.93095,1.45948l17.11914,10.7276,17.11914-10.7276a9.24816,9.24816,0,0,1,4.93095-1.45948V243.79049a37.43941,37.43941,0,0,0-2.60343-13.8212c-6.08973-15.2614-20.89791-21.4461-33.075-13.81392l-6.983,4.375a39.39055,39.39055,0,0,1-20.88557,6.17991h-68.75357a10.03655,10.03655,0,0,1-7.79608-4.04337l-8.34872-10.46507c-13.734-17.30717-32.42153-27.00939-51.89766-26.94424-17.05151-.05845-33.41294,8.43547-45.437,23.5883a10.03814,10.03814,0,0,1-7.79609,4.04682H2511.83465c-142.86257,0-259.08861,145.66645-259.08861,324.71264.00652,92.29308,31.3513,180.22179,86.19934,241.80729h13.02608v27.63512h-22.05009a10.03812,10.03812,0,0,1-7.79606-4.0468l-22.0501-27.63512c-7.2425-8.37184-16.88517-12.7029-26.722-12.00228C2266.83815,764.02052,2260.86052,768.14712,2256.93557,774.69737ZM2660.67278,212.8927h22.05009v27.63512h-22.05009ZM2539.39726,323.43317h44.10019v27.63512h-44.10019Zm0-69.08779h44.10019V281.9805h-44.10019Zm97.11,548.04757,3.33508-27.31734c13.92876,2.67028,28.50663,5.08661,43.3298,7.18l-2.471,27.46238C2665.58994,807.58317,2650.72131,805.11846,2636.50727,802.393Zm-41.11379,49.85029c-15.32483-2.48026-30.13145-5.12455-44.00924-7.87948l3.437-27.2983c13.67384,2.71345,28.27513,5.32495,43.396,7.77237l-2.82242,27.40541Zm-2.8679-59.58822c-15.13324-3.83438-29.81035-8.10055-43.622-12.68114l5.63933-26.71622c13.39406,4.44238,27.64393,8.58247,42.35273,12.30974L2592.527,792.655Zm-86.64169-29.06693a395.60932,395.60932,0,0,1-41.94754-21.24447l9.35475-25.02535a376.13756,376.13756,0,0,0,39.8445,20.165Zm1.59724,71.05851c-15.99183-3.97948-30.70336-8.199-43.72259-12.54288l5.67238-26.70589c12.56855,4.19707,26.81568,8.27844,42.34859,12.14217l-4.29425,27.1066Zm-219.284-255.136,21.81579-4.01575a317.08588,317.08588,0,0,0,10.2271,50.80888l-20.73673,9.39246A350.69742,350.69742,0,0,1,2288.19712,579.51059Zm-1.96252-57.95607a351.63766,351.63766,0,0,1,7.464-57.2064l21.28386,7.22486a317.44272,317.44272,0,0,0-6.73631,51.64311l-22.01014-1.66157Zm66.3501-142.83559a272.64027,272.64027,0,0,0-22.60962,44.01066l-19.66041-12.51352a301.91485,301.91485,0,0,1,25.03927-48.74144ZM2341.313,516.23305a261.64879,261.64879,0,0,1,10.58685-57.35842l20.60581,9.83465a227.97554,227.97554,0,0,0-9.2335,49.98674l-21.95916-2.46471Zm75.17429-204.14065a210.03661,210.03661,0,0,0-34.6586,29.22932l-14.1038-21.2445a232.53749,232.53749,0,0,1,38.37956-32.3659Zm4.20467,74.91365a170.393,170.393,0,0,0-28.56728,36.60443L2374.3716,407.2211a196.13847,196.13847,0,0,1,32.90149-42.14354Zm75.52433-104.1896a168.28365,168.28365,0,0,0-41.06829,9.48921l-6.20158-26.52107a186.35959,186.35959,0,0,1,45.49345-10.51344Zm-47.71366,53.53614a134.79506,134.79506,0,0,1,46.06266-12.42545l1.49665,27.57121a116.5213,116.5213,0,0,0-39.81145,10.72761Zm-44.73,322.2566a216.76359,216.76359,0,0,0,32.37367,32.90652l-12.1441,23.06671a240.69985,240.69985,0,0,1-35.94029-36.58029l15.71068-19.38952Zm-2.5895,133.38432a251.77812,251.77812,0,0,1-20.8801-18.08373l13.46571-21.88527a228.75869,228.75869,0,0,0,18.9879,16.44978,114.19657,114.19657,0,0,0,16.23026,10.225l-8.59128,25.45193a134.98791,134.98791,0,0,1-19.21253-12.15425ZM2379.36459,617.609,2359.984,630.78922a233.77809,233.77809,0,0,1-16.12415-55.59151l21.61047-5.48382A201.41357,201.41357,0,0,0,2379.36459,617.609Zm-32.76783,116.89659a315.93475,315.93475,0,0,1-27.2842-46.57038l18.92037-14.19237a287.59786,287.59786,0,0,0,24.83941,42.39918Z"/>
      <path class="cls-1" d="M2870.14867,351.06829H2704.773c-4.179.00343-8.00027-2.95462-9.86879-7.63936l-10.74943-26.94425q-.4658-1.16067-.984-2.26781c-5.19181-11.02958-14.52753-17.96037-24.7402-18.367-.0496-.00174-.09784-.01555-.14745-.01555-.27564-.01036-.55126-.03626-.82689-.03626-16.48287.02285-29.84035,16.76361-29.85858,37.4214V341.282c.01823,20.65779,13.37571,37.39855,29.85858,37.4214h190.64236C2860.27053,378.68533,2870.13425,366.32325,2870.14867,351.06829Z"/>
      <path class="cls-1" d="M2504.16734,610.01379c-5.51847-2.5733-7.37762-10.26611-4.15253-17.18235l4.13659-8.87094-3.92589-.4833c-6.81571,2.2494-12.96594,7.64761-16.89184,14.82638-5.71541,10.93734-7.69067,23.34993-5.47422,34.39976l8.30508,34.36471a15.76743,15.76743,0,0,1-1.20287,10.21994l-12.16305,26.08375,40.41417,34.50127,17.55678-54.47044-9.99209-4.65939c-5.51847-2.5733-7.37762-10.26611-4.15253-17.18235l5.83955-12.523-12.615-5.88247c-5.51848-2.57331-4.75471-9.043-1.52962-15.95926l5.83956-12.523Z"/>
    </g>
    <g id="megaphone">
      <path class="cls-3" d="M5171.87667,706.97924l-31.3837,31.3837a22.19161,22.19161,0,1,1-31.38368-31.38366l31.38368-31.38365a22.2069,22.2069,0,0,0,0-31.38366l-28.85541-28.85542a22.19163,22.19163,0,0,1,31.3837-31.3837l28.85541,28.85541A66.64422,66.64422,0,0,1,5171.87667,706.97924Z"/>
      <path class="cls-3" d="M5218.9529,848.208h0a44.38268,44.38268,0,0,1-62.76736,0l-156.9213-156.92128,62.76737-62.76881,156.92125,156.92128A44.38175,44.38175,0,0,1,5218.9529,848.208Z"/>
      <path class="cls-4" d="M4998.00729,501.72333,5095.3,599.016l-1.88329,60.88552-109.845,109.845c-26.04844,26.04844-68.7318,25.42211-94.78023-.62918l-62.7688-62.76881c-25.73528-25.73529-25.42212-67.47625.62919-93.52473l109.845-109.845Z"/>
      <path class="cls-1" d="M5046.3405,550.058,5095.3,599.01748l-1.88329,60.88553-109.845,109.845c-26.04843,26.04843-68.7318,25.4221-94.78023-.62918L4858.0341,738.3615Z"/>
      <g>
        <path class="cls-5" d="M5273.81506,214.48373a22.18408,22.18408,0,0,1-22.18853-22.18851l-.01438-44.39425a22.18855,22.18855,0,1,1,44.3771-.00288l.01438,44.39425A22.182,22.182,0,0,1,5273.81506,214.48373Z"/>
        <path class="cls-5" d="M5451.349,347.63777l-44.39425-.01436a22.18851,22.18851,0,1,1,0-44.377l44.39425.01436a22.1885,22.1885,0,1,1,0,44.377Z"/>
        <path class="cls-5" d="M5422.95186,173.44519a21.97517,21.97517,0,0,1,0,31.38368l-47.07623,47.07624a22.19161,22.19161,0,0,1-31.38366-31.38369l47.07623-47.07623A21.97391,21.97391,0,0,1,5422.95186,173.44519Z"/>
      </g>
      <path class="cls-6" d="M5156.18554,220.52142l219.69009,219.6901c6.27759,6.27759,14.12243,72.49693,22.28186,73.75389l-61.825,12.86837c-91.64289,18.20215-178.57681,68.73181-237.57906,127.734l-5.33525,5.33522L4936.494,502.98028l5.33524-5.33522c62.14248-62.14248,107.96175-144.37039,126.79168-238.52143l12.86692-64.33748Z"/>
      <path class="cls-7" d="M4983.57027,612.82533a21.97518,21.97518,0,0,1,0,31.38366l-31.3837,31.38514a22.1916,22.1916,0,0,1-31.38368-31.38365l31.38368-31.38366A21.97515,21.97515,0,0,1,4983.57027,612.82533Z"/>
      <path class="cls-8" d="M5266.03058,330.36646l109.845,109.845c6.27759,6.27759,14.12243,72.49691,22.28186,73.75387l-61.825,12.86837c-91.64289,18.20214-178.57681,68.73181-237.57906,127.734l-5.33525,5.33523-78.46136-78.46134Z"/>
      <path class="cls-9" d="M4983.57027,612.82533a21.97518,21.97518,0,0,1,0,31.38366l-31.3837,31.38514a21.97516,21.97516,0,0,1-31.38368,0Z"/>
      <path class="cls-4" d="M5156.18554,157.75406l282.45889,282.45886a44.51509,44.51509,0,0,1,0,62.76881,25.9035,25.9035,0,0,1-6.90681,4.3929c-10.04272,6.90682-21.96727,9.41639-33.58158,6.59078a39.53308,39.53308,0,0,1-22.28186-10.98364L5093.41529,220.52142c-7.22-7.22-10.67047-16.32031-11.92743-25.73528a43.91118,43.91118,0,0,1,5.33667-27.304c2.19645-3.45339,3.76513-6.90392,6.59076-9.72955A44.51812,44.51812,0,0,1,5156.18554,157.75406Z"/>
      <path class="cls-1" d="M5297.41424,298.98279l141.2287,141.22873a44.51509,44.51509,0,0,1,0,62.76881,25.90375,25.90375,0,0,1-6.90681,4.3929c-10.04272,6.90681-21.96727,9.41639-33.58158,6.59078a39.53314,39.53314,0,0,1-22.28186-10.98364L5234.64394,361.75165Z"/>
    </g>
    <g id="megaphone_-_copie" data-name="megaphone - copie">
      <path class="cls-3" d="M453.12333,593.55312l28.85541-28.85541a22.19163,22.19163,0,1,1,31.3837,31.38371L484.507,624.93683a22.2069,22.2069,0,0,0,0,31.38366l31.38368,31.38366A22.1916,22.1916,0,0,1,484.507,719.0878l-31.3837-31.3837A66.64422,66.64422,0,0,1,453.12333,593.55312Z"/>
      <path class="cls-3" d="M406.04714,766.164,562.96839,609.24276l62.76737,62.76881L468.81446,828.93285a44.38268,44.38268,0,0,1-62.76736,0h0A44.38175,44.38175,0,0,1,406.04714,766.164Z"/>
      <path class="cls-4" d="M688.50312,483.7037l109.84505,109.845c26.05131,26.04848,26.36447,67.78944.62919,93.52474l-62.7688,62.7688c-26.04843,26.05129-68.73179,26.67762-94.78023.62918l-109.845-109.845L529.7,579.7409l97.29271-97.29271Z"/>
      <path class="cls-1" d="M766.9659,719.08636l-30.75736,30.75737c-26.04843,26.05128-68.7318,26.67761-94.78023.62918l-109.845-109.845L529.7,579.74235l48.95952-48.95952Z"/>
      <g>
        <path class="cls-5" d="M328.99637,173.0172l.01438-44.39425a22.18855,22.18855,0,1,1,44.3771.00288l-.01438,44.39425a22.18855,22.18855,0,1,1-44.3771-.00288Z"/>
        <path class="cls-5" d="M151.4625,306.17414A22.18135,22.18135,0,0,1,173.651,283.98562l44.39425-.01436a22.18851,22.18851,0,1,1,0,44.377l-44.39425.01436A22.18315,22.18315,0,0,1,151.4625,306.17414Z"/>
        <path class="cls-5" d="M233.4318,154.17005,280.508,201.24629A22.19161,22.19161,0,0,1,249.12437,232.63l-47.07623-47.07624a22.19161,22.19161,0,0,1,31.38366-31.38368Z"/>
      </g>
      <path class="cls-6" d="M543.51214,175.511l12.86692,64.33748c18.82993,94.151,64.6492,176.379,126.79168,238.52143l5.33524,5.33523L531.58182,640.62791l-5.33525-5.33522c-59.00225-59.00224-145.93617-109.5319-237.57906-127.734l-61.825-12.86837c8.15943-1.257,16.00427-67.4763,22.28186-73.75389L468.81446,201.24629Z"/>
      <path class="cls-7" d="M672.81343,593.55168l31.38368,31.38366A22.19161,22.19161,0,0,1,672.81343,656.319l-31.3837-31.38515a22.19109,22.19109,0,1,1,31.3837-31.38217Z"/>
      <path class="cls-8" d="M610.04318,562.16653l-78.46136,78.46134-5.33525-5.33523c-59.00225-59.00223-145.93617-109.5319-237.57906-127.734l-61.825-12.86837c8.15943-1.257,16.00427-67.47628,22.28186-73.75387l109.84505-109.845Z"/>
      <path class="cls-9" d="M704.19711,656.319a21.97518,21.97518,0,0,1-31.38368,0l-31.3837-31.38515a21.97518,21.97518,0,0,1,0-31.38366Z"/>
      <path class="cls-4" d="M531.58471,138.47749c2.82563,2.82563,4.39431,6.27616,6.59076,9.72956a43.91115,43.91115,0,0,1,5.33667,27.304c-1.257,9.415-4.70747,18.51532-11.92743,25.73528L249.12582,483.70664A39.53313,39.53313,0,0,1,226.844,494.69027c-11.61431,2.82561-23.53886.316-33.58158-6.59078a25.9035,25.9035,0,0,1-6.90681-4.3929,44.51509,44.51509,0,0,1,0-62.76881L468.81446,138.47892A44.51814,44.51814,0,0,1,531.58471,138.47749Z"/>
      <path class="cls-1" d="M390.35606,342.47651,249.12731,483.70523a39.53314,39.53314,0,0,1-22.28186,10.98364c-11.61431,2.82561-23.53886.316-33.58158-6.59078a25.9035,25.9035,0,0,1-6.90681-4.3929,44.51509,44.51509,0,0,1,0-62.76881l141.2287-141.22873Z"/>
    </g>
  </g>
  <g id="Ancrage">
    <rect class="cls-10" x="5624" y="999" width="1" height="1"/>
    <rect class="cls-10" x="5624" width="1" height="1"/>
    <rect class="cls-10" y="999" width="1" height="1"/>
    <rect class="cls-10" width="1" height="1"/>
  </g>
</svg>
