<svg xmlns="http://www.w3.org/2000/svg" viewBox="0 0 5625 1000"><defs><style>.cls-1,.cls-6{fill:#00427b;}.cls-2{fill:#ffd68c;}.cls-3,.cls-8{fill:none;}.cls-3,.cls-4,.cls-5,.cls-6{stroke:#c77a00;}.cls-3,.cls-4,.cls-5,.cls-6,.cls-7{stroke-miterlimit:10;}.cls-3{stroke-width:12px;}.cls-4{fill:#004887;}.cls-4,.cls-5,.cls-6{stroke-width:10px;}.cls-5{fill:#003461;}.cls-7{fill:#fff;stroke:#fff;stroke-width:2px;}</style></defs><title>logo_nos_eleves_ont_du_talents</title><g id="icons"><g id="logo_handmade"><circle class="cls-1" cx="2812.5" cy="500" r="491.5"/><g id="France"><path class="cls-2" d="M2846.66332,102.96047a27.06925,27.06925,0,0,0-3.80216,1.59485,12.24236,12.24236,0,0,1-4.66931.79742c-1.73432-.06645-5.06955.731-8.60489,1.92711a65.08257,65.08257,0,0,1-9.67216,2.72452c-4.26909.79743-6.93727,1.3955-13.60772,3.1897-3.80216.93033-4.80273,1.59484-8.07125,4.98389-2.00114,2.12647-4.13568,3.85422-4.736,3.85422-2.20125,0-2.60148,1.59484-1.73432,6.51229.73375,4.45228.73375,4.91744-.73375,7.97423-1.26739,2.59163-1.4008,3.522-.80046,4.65164a18.683,18.683,0,0,1,.73375,5.91422c0,2.65808.33353,4.91744.80046,5.38261.60034.59806.60034.99677,0,1.59484a5.332,5.332,0,0,0-.80046,3.12324,37.8721,37.8721,0,0,1-.80045,6.24649c-.73375,3.65485-.73375,3.98711.46693,4.851,1.20068.93033,1.20068.93033,0,1.86065-.86716.59807-1.33409,1.99356-1.5342,4.65164-.26682,3.3226-.13341,3.92066,1.26738,5.2497,1.86773,1.7942,4.60262,4.9839,4.60262,5.38261,0,.1329-.60034.1329-1.33409-.06645s-1.3341-.731-1.3341-1.26259c0-1.26259-1.00056-1.72775-2.86829-1.26259-1.73432.46517-3.80216,3.85422-4.80273,7.90778a5.75312,5.75312,0,0,1-2.86829,4.05357,55.44747,55.44747,0,0,0-6.93727,5.51551c-8.00455,7.11036-15.14193,11.16393-18.41046,10.433a4.1192,4.1192,0,0,0-3.0017.66452,5.88313,5.88313,0,0,1-2.53477.99678,32.56926,32.56926,0,0,0-5.33636,1.329c-2.33466.731-4.66932,1.19613-5.203.99678-1.4675-.59807-8.138,1.59484-10.2725,3.389a8.19,8.19,0,0,1-2.46806,1.59485,15.93654,15.93654,0,0,0-3.33523,2.32582,11.87364,11.87364,0,0,1-3.66875,2.32582,6.18191,6.18191,0,0,0-2.53477,1.329,6.46649,6.46649,0,0,1-2.46807,1.329,19.42284,19.42284,0,0,0-4.069,1.462c-3.53534,1.6613-3.66875,1.7942-7.47091,11.49618-2.86829,7.37617-3.0017,8.10714-1.66761,10.69877,1.33409,2.39227,5.26966,3.5884,12.74057,3.65485,5.66988.06645,4.33579,1.12969-1.53421,1.26259a10.57733,10.57733,0,0,0-4.93613.99678,5.50048,5.50048,0,0,1-2.73489.99678c-.80045,0-2.66818,1.39549-4.53591,3.3226a24.55041,24.55041,0,0,1-14.00795,7.17681c-3.66875.59806-4.00227.53161-8.805-1.92711-2.80159-1.46194-5.9367-2.59163-7.07068-2.59163a8.23157,8.23157,0,0,1-3.33523-.731,6.48294,6.48294,0,0,0-4.13568-.06645c-4.86943.99678-14.14136-.26581-18.94408-2.65808-3.73546-1.7942-4.60262-1.99356-8.00455-1.59484a10.02172,10.02172,0,0,0-5.203,1.72775,4.86834,4.86834,0,0,1-2.60148,1.329c-1.00057,0-1.134-.39871-.86716-1.9271.33352-1.46194,0-2.52518-1.20068-4.18647-3.66875-5.05035-7.004-10.2336-7.004-11.031,0-.46516.73375-1.12968,1.66762-1.46194s1.66761-1.06323,1.66761-1.59485a1.78329,1.78329,0,0,1,1.00057-1.329c1.33409-.46517,1.26738-1.59485-.33352-4.71809a14.0229,14.0229,0,0,1-1.33409-3.3226c0-.39871-1.73432-1.06323-3.80216-1.52839-4.46921-.93033-8.33807-.06646-10.53932,2.25936-1.4675,1.59485-6.80386,3.12324-7.4042,2.19292a2.10276,2.10276,0,0,0-1.60091-.59807c-.66705,0-1.33409-.26581-1.4675-.66452-.06671-.33226-1.86773-.93033-3.80216-1.329-2.00114-.39871-4.3358-1.26259-5.13625-2.06a4.07888,4.07888,0,0,0-2.33466-1.19613,3.71523,3.71523,0,0,1-2.33466-.59807c-2.268-1.19614-3.66875.26581-3.20181,3.25614.33352,2.12646.73375,2.52518,3.0684,3.1897,2.73489.86387,2.8683.99678,3.46864,4.78454.33352,1.99355.13341,2.791-1.26739,4.45228-2.00113,2.39227-2.13454,3.85421-.40022,4.71808,1.20068.66452,1.5342,1.6613,2.66818,8.50585.667,3.92067,1.20068,5.05035,2.13454,4.45228.40023-.19935,1.134.13291,1.66762.79743,2.86829,3.7213,5.60318,8.24,6.0034,9.96779a9.21875,9.21875,0,0,0,1.86773,3.4555c1.26739,1.39549,1.4008,2.25936,1.20068,8.24-.13341,6.51229.73375,11.16393,2.06784,11.16393,1.00057,0-.13341,11.42973-1.26738,12.69232-.86716.93032-.86716,1.19613.0667,1.9271.66705.53162,1.00057,1.99356,1.00057,4.25293,0,3.72131.40023,4.58518,2.20125,5.2497a2.04233,2.04233,0,0,1,1.134,1.7942,3.39532,3.39532,0,0,0,2.00113,2.52518c1.06728.59806,2.00114,1.52839,2.00114,1.9271,0,1.12969-2.8683,1.79421-5.53648,1.26259a7.40133,7.40133,0,0,0-4.53591.731c-3.26852,1.6613-9.472,1.99356-11.60659.59807-1.86772-1.26259-2.13454-2.85743-.60034-3.98712s.13341-4.71809-1.5342-3.85421a20.56722,20.56722,0,0,1-4.26909,1.06323c-2.33466.33226-3.40193.93033-4.4692,2.39227a8.20694,8.20694,0,0,0-1.4675,2.52517c0,.33226-1.4675.46517-3.26853.26581-2.80159-.26581-3.40193-.06645-4.00227,1.06323-1.40079,2.59163-4.736,2.12647-4.736-.66452,0-.731-.46693-1.19613-1.33409-1.19613-.73375,0-1.33409-.26581-1.33409-.66452a5.22759,5.22759,0,0,0-1.134-1.99356c-1.134-1.329-1.134-1.329-3.0017.46516a5.33784,5.33784,0,0,1-4.53591,1.6613c-2.06784-.06645-2.80159.13291-3.13511,1.06323-.60035,1.72775-2.268,3.45551-3.40194,3.45551-.53363,0-2.13454,1.329-3.602,2.99033s-3.13511,2.99034-3.80216,2.99034a3.76339,3.76339,0,0,0-2.00114.79742c-.667.731-.80045.59807-.73375-.46516.26682-2.39227,0-2.99034-1.33409-2.99034a2.3485,2.3485,0,0,1-1.801-.86387,3.72,3.72,0,0,0-1.66761-1.329c-.86716-.26581-1.20068-1.12968-1.20068-2.791,0-2.25937-1.801-4.9839-3.33523-4.9839-.33352,0-.66705-.46516-.66705-.99678,0-.59807-.73375-1.329-1.66761-1.6613-1.40079-.53161-1.60091-.93032-1.26739-2.32581.53364-2.19292-.73374-3.78777-2.66818-3.25615a2.35322,2.35322,0,0,1-2.33466-.66452c-.60034-.731-.667-1.06323-.1334-1.06323.40022,0,.73375-.731.73375-1.6613,0-1.46194-.26682-1.6613-2.20125-1.6613-2.20125,0-2.20125-.06645-2.00114-2.65808a6.539,6.539,0,0,0-.0667-2.65807,34.07537,34.07537,0,0,0-3.53535,1.59484c-2.80159,1.462-3.33522,1.5284-4.26909.66452-1.40079-1.26258-2.40136-1.19613-3.13511.19936a3.13591,3.13591,0,0,1-2.66818,1.06323c-1.134,0-2.20125.39871-2.40136.93033a1.71067,1.71067,0,0,1-1.4675.86387,3.10237,3.10237,0,0,0-2.00114,1.12969c-.53364.79742-.86716.86387-.93386.33226,0-1.79421-6.93727-3.45551-7.60432-1.79421a5.80942,5.80942,0,0,1-2.86829,1.99356c-2.13455.93033-2.40137,1.19614-1.53421,1.86066a2.12313,2.12313,0,0,1,.80046,1.9271c-.13341.731.20011,1.19614.80045,1.19614,1.5342,0,2.00114,1.329.73375,2.25936a2.39147,2.39147,0,0,0-.86716,2.59163c.40023,2.12646.33352,2.12646-1.801.731a3.71882,3.71882,0,0,0-2.60148-.731,3.10024,3.10024,0,0,1-2.40136-.66452,4.56321,4.56321,0,0,0-3.06841-.66452,2.7682,2.7682,0,0,1-2.00114-.26581c-1.06727-1.72775-4.93613,1.72775-5.00284,4.51873,0,1.86066,0,1.86066-.80045.33226-.46693-1.06323-1.134-1.46194-1.93443-1.26258-1.00057.2658-1.26739-.19936-1.60091-2.25937-.40023-2.59163-.53364-2.65808-2.53477-2.25937a15.092,15.092,0,0,0-3.66875,1.462,13.95031,13.95031,0,0,1-5.00284,1.26258c-2.66818.13291-3.66875.53162-4.736,1.92711-1.33409,1.59485-4.33579,2.32582-4.33579.99678,0-.39871-.80045-.99678-1.73432-1.39549a3.20051,3.20051,0,0,0-3.33522.39871,6.55959,6.55959,0,0,1-2.40137.99678,3.37282,3.37282,0,0,0-2.06784,1.39549,2.76545,2.76545,0,0,1-3.13511.93033c-2.20125-.46517-4.66932.59807-4.66932,2.06,0,.53161-.33352.79742-.73375.59807-.40023-.26581-.86716.1329-1.06727.93032-.26682.99678-1.06727,1.5284-3.00171,1.79421-3.93556.66451-7.27079,4.31937-7.20409,7.84132a18.04166,18.04166,0,0,1-.40022,4.51874,9.59758,9.59758,0,0,0,.26682,3.85421c.40022,1.12968.46693,1.86065.1334,1.6613-1.134-.731-1.26738.86387-.26681,2.92388.80045,1.6613,1.4675,2.06,3.0684,2.06a4.02528,4.02528,0,0,0,2.8016-.99678c.60034-.86387,1.06727-.86387,3.0684-.19935,1.26739.46516,2.40137.86387,2.46807.86387a10.26245,10.26245,0,0,1,.53364,1.86066c.40023,1.46194.26682,1.72775-.60034,1.39549-.73375-.26581-1.26739.1329-1.73432,1.39549-1.00057,2.59163-.86716,3.05679.80045,2.65808,1.20069-.33226,1.73432,0,2.40137,1.59484a8.605,8.605,0,0,1,.667,3.78776c-.33352,2.85744,1.134,2.52518,3.20182-.731,1.86773-2.99033,2.00114-3.05679,4.60261-2.65807a5.78117,5.78117,0,0,1,3.20182,1.329,2.62928,2.62928,0,0,0,2.13455.99678c1.66761,0,3.0017,2.59163,3.0017,5.98068,0,2.45872-.53364,2.791-2.66818,1.6613-1.66761-.86388-2.73489-.731-11.6733,1.329a107.08243,107.08243,0,0,1-10.53931,2.12646.69522.69522,0,0,0-.80046.66452,2.09319,2.09319,0,0,1-.46693,1.26258c-1.06727.99678-.46693,1.5284,2.33466,2.25937a34.565,34.565,0,0,1,4.86943,1.6613,7.16669,7.16669,0,0,0,3.53534.53161c3.20182-.79742,9.20523,5.31616,10.73943,11.16393.60034,2.12646.60034,2.92389,0,3.25615-.46693.2658-.667,1.19613-.53363,2.06.13341,1.329.73375,1.66129,3.53534,2.12646,6.537.99678,9.67215-.13291,9.67215-3.4555,0-1.12969,2.46807-2.72453,4.26909-2.72453a2.38926,2.38926,0,0,1,1.66762.93032c.53363.59807,1.4675.731,2.935.46517,1.66761-.33226,2.20125-.79743,2.33466-2.25937.20011-1.59484,1.4675-2.65808,1.4675-1.26258a25.599,25.599,0,0,0,2.53477,4.51873c2.53477,3.85421,2.60148,3.92066,5.9367,4.12,2.00114.1329,3.602-.13291,3.86886-.53162.33353-.53161.93387-.33226,2.00114.66452.80046.731,1.73432,1.329,2.06784,1.26259,1.66761-.39871,8.93841,1.6613,9.27193,2.65808a13.42662,13.42662,0,0,0,1.86773,2.85743c1.33409,1.59485,1.73432,1.72775,4.00227,1.26259,1.4008-.33226,2.46807-.33226,2.46807,0s.86716.59806,1.93443.59806c2.06784,0,4.66932,1.86066,8.53818,5.98068,2.00114,2.19291,2.13455,2.59162,2.00114,6.97745a18.79566,18.79566,0,0,0,.40022,5.44906c.53364.86388,5.13625,1.19614,5.13625.39871a5.67729,5.67729,0,0,0-1.33409-1.86065,7.71742,7.71742,0,0,1-1.73432-3.4555c-.40022-2.06-.33352-2.12646,2.46807-2.45872,3.73546-.39872,5.93671-.26581,5.93671.39871,0,.26581.33352.53161.80045.53161,1.66761,0,5.87,2.32582,6.27023,3.4555.60034,2.06,2.80159,2.791,5.66988,1.92711a9.79819,9.79819,0,0,1,4.26909-.33226c1.06728.26581,1.66762.13291,1.66762-.33226s.60034-.59807,1.6009-.33226c.86716.19936,1.801.06645,2.06785-.33226.20011-.39871,1.134-.53161,2.00113-.33226.80046.19936,1.73432.06645,1.93443-.33226.80046-1.26258,1.93443-.79742,1.53421.59807-.20012.731-.06671,1.52839.26682,1.72775s.40022,1.06323.20011,1.99356c-.33352,1.26259-.06671,1.72775,1.06727,2.12646,1.4008.53162,1.33409.66452-1.26738,2.32582a11.96129,11.96129,0,0,1-3.40194,1.7942c-.33352,0-.667.46517-.667.99678s.26682.99678.60034.99678c1.06727,0,2.73489,1.99356,2.73489,3.3226a1.75562,1.75562,0,0,1-1.33409,1.52839c-2.268.59807-1.4675,1.6613,2.53477,3.52195,2.06784.99678,4.00227,1.92711,4.33579,2.06.26682.13291.73375-.33226,1.00057-1.12968.53364-1.39549.60034-1.329,3.33523.66452,3.40193,2.39227,4.26909,2.45872,7.07068.33226s3.33522-2.06,2.80159.06645a3.27711,3.27711,0,0,0,.26682,2.59163c1.06727,1.26259.13341,4.31937-1.33409,4.31937a4.17206,4.17206,0,0,0-2.40137,1.3955c-1.20068,1.329-1.20068,1.39549-.0667,2.25936a12.28,12.28,0,0,0,4.00227,1.26259c4.60261.731,6.67045,1.72775,8.73829,4.18647l2.00114,2.32582-1.4675,1.12968a6.16907,6.16907,0,0,0-1.86773,3.12324c-.20011,1.19614-1.801,3.4555-3.602,5.38261-3.06841,3.18969-3.20182,3.4555-2.8683,6.44584.33353,2.85743.73375,3.389,3.80216,5.64841,4.13568,3.05679,5.40307,4.51874,6.33693,6.911.40023.99677,1.134,1.7942,1.66762,1.7942.60034,0,1.5342.99678,2.13454,2.12646a15.41675,15.41675,0,0,0,1.53421,2.52517c.86715.731,2.26795,4.05357,3.33522,8.04069.80046,3.05679,1.4675,4.31938,2.33466,4.45228,1.06727.19936,5.26966,3.05679,8.33807,5.582a18.09268,18.09268,0,0,0,5.33636,1.462c4.20239.731,4.4025.79742,5.13625,3.05678s.86716,2.32582,4.66932,2.65808c3.66875.33226,4.00227.46517,4.86943,2.45872.93386,2.12647,2.40136,2.85744,2.86829,1.462.13341-.33226,1.134.06645,2.20125.99678,2.40137,2.06,3.00171,2.12646,3.00171.39871,0-1.92711,2.80159-2.92389,3.602-1.329.40023.93033,0,1.6613-1.60091,3.25614a10.43521,10.43521,0,0,1-2.73488,2.06c-.33353,0-.60034.731-.60034,1.59485,0,.93033-.26682,1.86066-.66705,2.06-1.06727.66452-.73375,2.99034.53364,3.389,2.80159.93033,4.13568,1.92711,3.80216,2.791-.20012.53162.20011,1.06323,1.00056,1.26259.73375.19935,1.33409.731,1.33409,1.19613a6.14139,6.14139,0,0,0,1.3341,2.52518c1.5342,1.9271,1.73431,3.78776.40022,3.78776-1.4675,0-1.86772,1.12968-1.00057,2.791.73375,1.329.73375,1.46194-.20011.66452-.86716-.66452-1.20068-.66452-1.60091-.06645-.26682.46516.13341,1.26258.93387,1.99356a3.50931,3.50931,0,0,1,1.4675,1.9271c0,1.39549-2.06785,4.71809-2.8683,4.58519-2.66818-.33226-3.33523,1.26258-1.40079,3.25614,1.20068,1.19614,1.20068,1.19614-3.40194,2.52517-1.66761.53162-2.06784.99678-2.20125,2.92389a17.25392,17.25392,0,0,0,.20012,4.51873c.33352,1.7942.667,2.19292,1.66761,1.92711a2.17567,2.17567,0,0,1,2.13455.731c1.20068,1.46194,7.60431,5.44906,8.73829,5.44906.53364,0,1.4675.99678,2.06784,2.25936,1.134,2.39227,2.60148,3.85422,3.46864,3.58841.667-.19936,1.93443.79742,6.80386,5.31616,3.53534,3.389,4.33579,5.2497,6.47034,15.08459.60034,2.92388,1.40079,6.51229,1.801,7.97423.33352,1.46194.86716,3.98712,1.134,5.64841.667,3.85422,1.26739,5.31616,2.935,7.17681.73375.79743,1.06727,1.462.73375,1.462-2.13455,0-5.93671-8.373-7.3375-16.08137a32.938,32.938,0,0,0-2.33466-7.97424c-1.26739-2.45872-7.87113-9.56908-10.2725-11.031-.40022-.26581-2.13454-1.59485-3.73545-2.99034-2.268-1.99355-2.73489-2.65807-1.93443-3.12324s.80045-.79742,0-2.32582c-1.26739-2.32581-2.46807-1.9271-5.13625,1.92711-2.13455,3.12324-2.20125,3.389-2.20125,9.96779,0,3.65486-.40023,10.56586-.93387,15.3504-.53363,4.71809-1.4675,14.15426-2.06784,20.93236s-1.5342,16.08137-2.06784,20.66656c-.93386,7.97423-.80045,10.56586.46694,10.56586.33352,0,.60034-.06646.667-.19936,0-.06645.20011-1.46194.33352-3.05679a11.05932,11.05932,0,0,1,2.20125-5.31616,17.9335,17.9335,0,0,0,2.20125-3.32259c.40023-1.26259,7.20409,5.18325,7.20409,6.7781,0,.86387-.60034,1.12968-3.0017,1.12968-1.66762,0-3.00171-.33226-3.00171-.66452,0-.39871-.86715-.66452-1.93443-.66452-2.00113,0-2.73488.93033-2.73488,3.4555a11.33876,11.33876,0,0,1-1.66762,4.25293c-1.134,1.99355-1.60091,3.389-1.26738,4.51873.20011.86387-.06671,4.851-.60034,8.83811-.60034,3.92066-1.20069,8.971-1.4675,11.16392-.66705,6.71165-3.60205,23.19173-5.73659,32.42855-1.06728,4.851-2.33466,10.433-2.66818,12.42651-.40023,1.99356-1.00057,5.18325-1.3341,7.04391-.60034,3.25614-6.60374,14.22071-9.40534,17.344a19.65583,19.65583,0,0,1-4.26909,2.85743l-2.935,1.329,1.33409,2.59162c1.26738,2.59163,1.33409,2.59163,3.80215,1.86066,1.93444-.59807,2.46807-.59807,2.73489.06645.40023,1.329,2.935,3.4555,4.00227,3.4555.53364,0,1.06727-.59807,1.26739-1.329.40023-1.46194,1.33409-1.6613,3.66875-.731a22.8,22.8,0,0,0,3.40193.99678c1.73432.39871,1.801.59807,1.801,4.58518,0,3.45551-.33352,4.58519-2.00113,7.11036-2.40137,3.58841-2.46807,4.25293-.53364,5.582,2.66818,1.9271,4.53591,1.39549,5.66988-1.59485,1.26739-3.18969,3.46864-3.78776,3.00171-.79742-.33352,2.25936.53364,2.99033,4.86943,4.12a17.82612,17.82612,0,0,1,4.13568,1.46194,1.3858,1.3858,0,0,0,1.4675.26581,3.77329,3.77329,0,0,1,2.46807.59806,10.49541,10.49541,0,0,0,2.60148.99678,11.99551,11.99551,0,0,1,3.26852,1.72775c2.46807,1.6613,2.86829,1.72775,8.07125,1.329l5.46977-.46516.46693,2.72453c.33352,2.12646.80045,2.85743,2.20125,3.389.93386.33226,3.40193,2.45872,5.53648,4.65163,3.26852,3.522,3.86886,3.92067,4.60261,2.99034.60034-.731,1.60091-.86387,3.93557-.59807,2.80159.26581,3.40193.13291,5.73659-1.72775a15.61379,15.61379,0,0,1,3.0017-2.06,33.4408,33.4408,0,0,1,3.93557,1.19614,8.96531,8.96531,0,0,1,5.33636,4.05357,43.51956,43.51956,0,0,0,4.069,5.05034c2.60147,2.791,4.86943,2.99034,10.53931.99678,5.40307-1.86065,9.20523-1.7942,11.13966.33226,1.86773,1.99356,3.00171,2.06,5.26966.26581,1.26739-.93033,2.06784-1.12968,2.935-.731.66705.39871,4.80273.731,9.20523.86387l8.00454.26581.20011-1.86065a6.03135,6.03135,0,0,0-.86716-3.522c-.80045-1.19613-.86715-1.9271-.33352-2.85743a7.79578,7.79578,0,0,0,.66705-2.65808c0-1.9271,2.20125-2.32581,4.80272-.731a9.07319,9.07319,0,0,0,3.53534,1.329,12.06681,12.06681,0,0,1,4.00228,1.329,12.55991,12.55991,0,0,0,4.33579,1.329c3.00171,0,10.2058,2.99034,10.40591,4.31937.33352,2.25937,3.66875,3.12325,6.20352,1.59485,2.33466-1.46194,5.66989-.19935,8.40477,3.25615a16.81767,16.81767,0,0,1,2.80159,4.91744c.53364,2.72453,2.935,2.32582,3.80216-.59807.26682-.86387.66705-1.46194.93386-1.39549a6.31446,6.31446,0,0,0,2.00114-.39871,2.5685,2.5685,0,0,1,2.73489.53162,11.51615,11.51615,0,0,0,4.66931,1.52839c3.93557.46516,5.40307,1.99356,4.20239,4.45228-1.5342,3.12324-1.5342,4.91744,0,5.98068a5.53424,5.53424,0,0,0,2.60148,1.06323,22.90193,22.90193,0,0,1,4.93613,1.46194c3.46864,1.329,4.00227,1.72775,5.203,4.65163.667,1.72776,1.86772,3.3226,2.53477,3.522,2.00113.66452,4.93613-.26581,7.93784-2.39227,1.93443-1.39549,3.13511-1.86066,4.26909-1.5284.86716.19936,1.801.06646,2.06784-.39871a1.3812,1.3812,0,0,1,1.5342-.39871c.66705.1329,2.20125.46516,3.53534.66452a15.6424,15.6424,0,0,1,5.33637,2.72453,21.0156,21.0156,0,0,0,5.203,3.05679c1.93443.66452,2.40136.59807,3.13511-.39871.80046-1.06323.93387-1.06323,2.40137-.06646a6.08888,6.08888,0,0,0,3.0017,1.06324c1.26739,0,1.5342-.39872,1.5342-1.86066a4.72431,4.72431,0,0,1,5.26966-4.58518c1.53421.33226,2.46807.06645,3.93557-1.19614a11.5397,11.5397,0,0,1,3.86886-2.06,5.78943,5.78943,0,0,0,2.268-.93032c.20011-.26581,1.93443-.33226,3.86886-.13291,2.935.26581,3.73545.59807,4.26909,1.86066.80046,1.7942,1.33409,1.9271,3.26852.86387,1.20069-.59807,1.26739-.79742.40023-1.7942a7.87059,7.87059,0,0,1-1.40079-2.52518,4.61259,4.61259,0,0,0-2.46807-2.25936c-3.26852-1.39549-3.40193-2.12646-2.66818-16.87879.33352-7.37617.46693-14.15427.26681-14.88524-.46693-1.72775.73375-6.64519,2.53478-10.56586,3.13511-6.84455,11.47318-15.41685,16.74284-17.211a6.43647,6.43647,0,0,1,4.80272.26581c2.66818.86387,2.73489.86387,4.3358-.99678,3.602-4.25293,7.53761-8.17359,8.20465-8.17359,1.20069,0,7.87114-4.71809,10.73943-7.57552,3.53534-3.4555,8.93841-5.84777,12.60716-5.582,2.80159.19936,2.8683.26581,2.8683,2.45873,0,3.4555,2.13454,4.65163,9.67215,5.44905a67.07147,67.07147,0,0,0,10.00568.26581c3.93557-.39871,6.27023.39871,7.60432,2.52518.53364.86387.53364,1.329-.20011,1.72775-1.33409.86387-.40023,2.59162,1.73432,3.4555a27.16988,27.16988,0,0,0,6.537.86387,30.474,30.474,0,0,1,6.20352.731c1.4675.46517,1.60091.33226,1.4008-1.39549-.26682-2.45872.53363-3.65485,3.33522-5.1168l2.268-1.19613,1.86773,2.19291a8.50785,8.50785,0,0,1,1.93443,3.3226c0,2.32582,1.66761,2.99034,8.00454,3.12324,5.20295.06645,6.33693-.06645,7.80443-1.26259,2.20125-1.72775,2.60148-1.66129,3.93557.26581.73375,1.19614.86716,1.99356.40023,2.791a2.10812,2.10812,0,0,0,.0667,2.32582c.53364.86388.40023,1.5284-.46693,2.85744-.60034.99677-1.00057,1.99355-.80046,2.25936.13341.26581,2.20125.46517,4.53591.46517,2.33466-.06646,4.60262.19935,5.06955.53161a1.23726,1.23726,0,0,0,1.66761-.06645c.60034-.53162,1.4008-.13291,3.06841,1.59485,2.53477,2.52517,3.06841,2.72452,3.66875,1.26258.46693-1.26258,2.40136-1.329,2.40136-.06645,0,1.329,1.53421,2.39227,3.66875,2.52517,1.00057.13291,2.00114.53162,2.13455.99678a1.46631,1.46631,0,0,0,1.20068.86388c.60034,0,.86716.66452.80045,1.7942-.13341,1.39549.33353,1.99356,1.73432,2.72453,1.66761.79742,2.06784.79742,3.00171-.06645a3.54655,3.54655,0,0,1,2.86829-.66452c2.06784.39871,3.06841-.731,1.93443-2.12646-.667-.79743-.60034-.99678.66705-.99678a4.16856,4.16856,0,0,1,2.66818,1.46194c1.00057,1.26259,1.40079,1.39549,2.06784.731,1.40079-1.39549,3.93557-1.06323,3.93557.46517,0,.79742-.46694,1.329-1.06728,1.329-1.86772,0-.60034,1.59485,1.60091,2.06,2.40137.46517,3.06841-.06645,2.46807-2.12646a3.74467,3.74467,0,0,1,.60034-2.92388c1.33409-1.99356,4.66932-2.25937,8.138-.59807,2.8016,1.329,4.13569.86387,4.4025-1.5284.20012-1.7942.46694-1.9271,4.80273-2.52517,2.60148-.39871,4.736-1.06323,4.93614-1.52839.33352-.99678,1.801-1.06323,3.46863,0,1.06727.66452,1.4675.53161,2.80159-1.12969a8.22864,8.22864,0,0,0,1.60091-2.99033,7.06339,7.06339,0,0,1,.86716-2.52518c1.06727-1.99356.46693-3.72131-1.20068-3.25614a3.25533,3.25533,0,0,1-2.13455-.26581c-.60034-.39871-.667-.59807-.13341-.59807,1.4008,0,5.40307-4.851,5.8033-6.97745.40023-2.06.46693-2.12646,4.20238-1.99356,3.46864.1329,3.93557,0,5.66989-1.92711a7.35229,7.35229,0,0,0,1.86773-3.12324,1.74275,1.74275,0,0,1,1.06727-1.52839,1.19949,1.19949,0,0,0,.66705-1.59485c-.53364-1.6613,1.93443-4.05357,3.0684-2.92388,1.06728,1.06323,2.53478.99677,2.53478-.13291a1.53352,1.53352,0,0,1,2.80159-.731c.667,1.06323,2.26795,1.329,2.80159.39871a4.4928,4.4928,0,0,0-.40023-2.52517,3.22183,3.22183,0,0,1,.46693-3.72131c.60034-.99678,1.60091-1.7942,2.13455-1.7942s1.801-.93033,2.80159-2.06c1.20068-1.26259,2.06784-1.79421,2.33466-1.329.667,1.06323,2.40136.86387,2.40136-.26581,0-1.329,2.40136-2.45872,4.13568-1.92711,1.60091.46517,2.53477-.59806,2.53477-3.18969a3.13993,3.13993,0,0,1,.66705-2.19291c.40023-.19936.667.19935.667.86387a2.8512,2.8512,0,0,0,.93387,2.06c.80045.66452,1.20068.46517,2.06784-.86387a3.63028,3.63028,0,0,1,2.73488-1.72775h1.60091l-1.66761-3.72131c-2.06784-4.58519-2.06784-4.78454-.06671-6.31294a7.28429,7.28429,0,0,0,2.13455-2.791,14.54666,14.54666,0,0,1,3.33523-4.31938c1.60091-1.59484,2.935-3.4555,2.935-4.05356a3.89471,3.89471,0,0,1,1.33409-2.25937c1.801-1.52839,1.801-4.851,0-5.78132a1.63713,1.63713,0,0,1-.93387-2.25936c.40023-1.79421-.667-4.38583-1.86772-4.38583a4.64881,4.64881,0,0,0-2.13455,1.26258,14.48008,14.48008,0,0,1-4.736,2.06c-10.606,2.45873-9.67216,2.39227-10.93954.731a3.114,3.114,0,0,0-2.46807-1.329,4.83655,4.83655,0,0,1-3.20182-1.26259,7.349,7.349,0,0,0-2.73489-1.46194,2.81412,2.81412,0,0,1-1.66761-.99678,3.43908,3.43908,0,0,0-2.33466-.99678,4.36,4.36,0,0,1-2.73488-1.39549,2.83132,2.83132,0,0,0-3.06841-.99678c-1.60091.33226-2.00114.06645-2.935-1.7942a37.28208,37.28208,0,0,0-3.00171-4.45228,9.29013,9.29013,0,0,1-1.93443-3.05679,1.3372,1.3372,0,0,0-.93386-1.12969c-1.4008-.53161-.53364-3.12324,1.33409-3.85421,2.13454-.731,2.00114-1.26259-.73375-4.58518a14.05313,14.05313,0,0,1-2.33466-3.389,9.35285,9.35285,0,0,1,1.86773-2.72453c3.40193-4.05357,4.93613-6.57874,4.53591-7.57552-.60034-1.59485,2.13454-3.78776,4.33579-3.4555,2.60148.39871,3.0017-.39872,1.33409-2.72453a6.96391,6.96391,0,0,1-1.40079-3.05679,7.22247,7.22247,0,0,0-.66705-2.39227,2.49188,2.49188,0,0,1-.0667-2.45872c.53363-.99678.26681-1.6613-1.53421-3.389-1.93443-1.86066-2.46807-2.06-5.13625-1.72775-2.46806.33226-3.46863.06645-6.33693-1.59485l-3.46863-1.99356.0667-3.98712c0-4.58518-.86716-6.04712-3.602-6.04712-1.60091,0-1.93444-.26581-1.93444-1.59485a3.34823,3.34823,0,0,0-1.06727-2.39227c-.86716-.79742-.80045-1.06323.86716-2.39227a6.53391,6.53391,0,0,1,3.20182-1.59485,5.06434,5.06434,0,0,0,2.60148-.99677c1.134-.86388,1.5342-.79743,3.40193.33226a8.89429,8.89429,0,0,0,3.06841,1.329c.46693,0,2.46806-1.72775,4.40249-3.78776,3.26853-3.52195,3.80216-3.78776,6.47034-3.85421,2.40137,0,3.20182-.33226,4.46921-1.86065,1.26738-1.6613,1.33409-2.19292.73375-4.25293-.66705-2.12646-.53364-2.59162.93386-4.51873a11.96078,11.96078,0,0,0,2.06784-4.51873c.26682-1.92711.13341-2.39227-1.06727-2.791-.80045-.19936-3.40193-2.39227-5.80329-4.71809l-4.4025-4.38583-.46694-4.71809c-.33352-4.25292-.60034-4.78454-1.801-4.98389a5.48482,5.48482,0,0,1-2.66818-1.5284,3.68588,3.68588,0,0,0-1.93443-1.26258c-1.66761,0-3.602-3.05679-4.00227-6.31294-.20012-1.86065-.13341-3.65486.13341-3.98712.80045-.99677,4.069-2.32581,5.73659-2.32581,2.268,0,4.20238-1.6613,5.73659-4.851,1.801-3.7213,1.73431-5.05034-.33353-8.90456-2.46806-4.51873-4.66931-6.71164-5.73659-5.64841a2.758,2.758,0,0,1-1.20068.79742c-.46693,0-.33352-2.65808.33352-4.12.66705-1.6613.06671-2.25936-3.20181-3.18969l-2.935-.79742.60034-3.389a11.82252,11.82252,0,0,1,1.60091-4.51874c1.26738-1.39549,1.20068-4.851-.13341-5.91422-1.801-1.52839-2.33466-3.18969-1.4675-4.58518.60034-.99678.53363-1.462-.40023-2.39227-1.00057-1.06323-2.06784-1.12969-8.40477-.79743-6.87057.33226-7.4042.46517-11.87341,2.99034-4.00227,2.25937-4.86943,2.52518-5.53647,1.72775-1.134-1.39549-3.66875-1.12968-4.80273.53162a31.02346,31.02346,0,0,1-2.33466,3.05679c-1.20068,1.329-1.26739,1.72775-.46693,3.32259,1.801,3.72131,1.801,4.65164.20011,5.51552a16.6234,16.6234,0,0,0-3.40193,2.45872c-1.5342,1.46194-2.46807,1.72775-6.13682,1.7942-3.80216.06645-4.33579-.06645-4.33579-1.12968a6.76218,6.76218,0,0,0-.66705-2.52518c-.60034-1.12968-.33352-1.39549,2.60148-2.25936,5.40307-1.59485,6.13682-2.12647,5.26966-4.05357-.60034-1.26259-.46693-2.06.73375-4.31938,1.86773-3.5884,1.801-5.31615-.33352-6.97745-3.00171-2.39227-2.33466-7.57552,1.5342-11.762.86716-.99677,1.00057-1.52839.40023-2.45872-.66705-1.06323-.13341-1.86065,3.66875-5.51551a75.567,75.567,0,0,1,8.805-7.24326c5.20295-3.522,5.46977-3.78776,5.06954-5.91422a17.20156,17.20156,0,0,1,.46693-4.851c.53364-2.25937.53364-3.78777,0-5.05035-1.00057-2.72453.53364-4.31938,6.40364-6.31294,5.9367-1.99356,8.73829-4.38583,8.73829-7.44261,0-1.46195.33352-2.19292,1.20068-2.39227,1.73432-.46517,12.67386-12.62587,13.2075-14.75234a3.54275,3.54275,0,0,1,1.93443-2.39227,4.90965,4.90965,0,0,0,2.13455-1.52839,4.0199,4.0199,0,0,1,1.73432-1.329c1.5342-.53161,1.4675-1.46194-.26682-3.18969-1.20068-1.19614-1.86773-1.329-5.40307-.93033l-4.069.46516,1.4675-2.06a22.27118,22.27118,0,0,1,3.73546-3.78776c1.93443-1.46194,2.20125-1.9271,1.66761-3.32259-.46693-1.19614-.40023-1.72775.53364-2.19292a2.22333,2.22333,0,0,1,2.13454-.06645c.53364.33226,2.40136.39871,4.20239.19936l3.26852-.39872-.26682,2.19292c-.20011,1.9271.06671,2.32582,2.13455,3.4555,2.00113,1.12968,2.60147,1.19613,4.736.53161,1.86773-.66451,2.73488-.66451,3.93557,0,1.26738.66452,1.73431.53162,3.40193-1.06323a6.36593,6.36593,0,0,0,1.93443-2.72453c0-.46516.60034-.86387,1.33409-.86387,1.4675,0,4.00227-3.522,4.00227-5.44906a3.5493,3.5493,0,0,1,1.73432-2.25937c1.4675-.99678,1.66761-1.46194,1.26739-3.522a10.01781,10.01781,0,0,0-2.13455-4.18647c-1.4675-1.5284-1.66761-2.12646-1.20068-4.31938.26682-1.39549.60034-3.92066.73375-5.582a20.885,20.885,0,0,1,.93386-4.851,16.24853,16.24853,0,0,0,.66705-4.25293,14.21831,14.21831,0,0,1,1.66761-5.582c2.00114-3.78776,2.06784-5.78132.33352-8.04069-2.53477-3.18969-1.00056-11.16392,3.33523-17.74266a12.42966,12.42966,0,0,0,1.60091-3.4555,16.33358,16.33358,0,0,1,2.46807-4.78454c1.93443-2.72453,2.00113-2.99034,1.00057-4.51874-.93387-1.46194-.93387-1.86065.73375-5.84777a22.8249,22.8249,0,0,0,1.93443-8.7052c.13341-5.24971.667-6.44584,5.66988-11.62909a32.69,32.69,0,0,0,4.60262-5.84777,2.29113,2.29113,0,0,1,2.00113-1.72775,2.90459,2.90459,0,0,0,2.13455-1.329c.46693-.731,1.20068-1.329,1.66761-1.329,1.33409,0,3.53534-2.791,3.53534-4.51873,0-2.19292,3.0017-7.97424,5.46977-10.49941,1.06727-1.19613,1.73432-2.25937,1.4008-2.45872a18.95444,18.95444,0,0,0-4.26909-.79743,15.976,15.976,0,0,1-5.26966-1.59484c-2.66818-1.86066-8.20466-4.31938-10.00568-4.45228a4.257,4.257,0,0,0-2.46807.53161c-.60034.46517-1.33409.39872-2.33466-.2658-1.134-.731-2.73488-.93033-5.73659-.66452-3.86886.2658-4.26909.1329-5.80329-1.46195-1.20068-1.329-2.06784-1.66129-3.20182-1.39549-1.26739.33226-1.86773,0-2.80159-1.46194a14.07138,14.07138,0,0,1-1.66761-3.85421c-.26682-1.462-.80046-2.06-2.00114-2.19292a5.52892,5.52892,0,0,1-2.33466-.86387c-1.134-1.06323-3.53534-.66452-4.00227.731a3.97743,3.97743,0,0,1-1.86773,2.06,6.58784,6.58784,0,0,0-2.00113,1.6613c-.66705,1.19613-7.3375.731-9.47205-.66452-2.00113-1.329-3.40193-1.329-3.93557-.06645-.667,1.72775-1.40079,1.06323-2.20125-1.86066-.667-2.45872-1.20068-2.99033-4.00227-4.18647a17.94986,17.94986,0,0,0-5.53647-1.329c-2.20125.06645-2.33466.19936-2.20125,2.19292a3.59784,3.59784,0,0,1-.80046,2.85743c-.667.59807-1.00057.59807-1.00057.06645,0-.39871-1.06727-.731-2.40136-.731-2.268,0-2.33466-.06645-1.93443-1.92711.33352-1.59484.13341-1.99355-.86716-2.32581a3.16107,3.16107,0,0,1-1.73432-2.12647,16.35776,16.35776,0,0,0-3.13511-4.58518,11.85492,11.85492,0,0,1-3.06841-5.2497,5.64821,5.64821,0,0,0-.93386-2.791,10.48836,10.48836,0,0,1-1.801-3.18969c-1.5342-3.4555-5.9367-5.98067-9.20522-5.31615-1.4008.2658-2.935-.13291-5.26966-1.3955-4.00227-2.12646-7.20409-1.86065-11.20636.731a16.08,16.08,0,0,1-4.80273,2.06c-1.801.2658-2.33466.06645-3.602-1.72775-1.134-1.5284-2.00114-2.06-3.53534-2.06a4.7646,4.7646,0,0,1-3.86887-2.06c-1.60091-1.99356-2.00113-2.12647-6.87056-2.32582-4.46921-.19936-5.26966,0-5.93671,1.06323a2.12476,2.12476,0,0,1-2.53477.86387,2.61577,2.61577,0,0,0-2.60148.731c-1.06727,1.26258-3.33522,1.39549-3.66875.19935-2.06784-7.642-2.46806-8.30649-4.736-9.43617a6.65932,6.65932,0,0,0-3.86886-.59807c-1.20068.33226-1.33409.26581-.60034-.46517,1.20068-1.26258,1.00057-2.06-1.26739-4.45228-1.66761-1.72775-2.20125-1.99355-3.26852-1.46194-1.86773.99678-4.66932-.59807-7.671-4.31937-1.4008-1.6613-2.935-2.99034-3.46864-2.99034a7.0763,7.0763,0,0,1-2.80159-1.39549c-1.801-1.26259-2.00113-1.329-4.4025-.33226-1.73432.731-2.80159.86387-3.33522.39871-.80046-.66452-.80046-5.1168,0-9.03747a5.43418,5.43418,0,0,0-3.13512-5.98067c-.93386-.26581-1.134-.731-.80045-1.46194.26682-.66452,1.00057-3.1897,1.66761-5.64842a25.33468,25.33468,0,0,1,1.801-5.31615,9.47186,9.47186,0,0,0,1.134-3.25615c.46693-2.39227.40023-2.45872-2.00113-3.12324-2.13455-.59807-2.8016-.46516-4.20239.66452-3.40193,2.65808-6.13682,6.37939-6.13682,8.4394,0,3.18969-1.33409,6.11358-2.73488,6.11358-1.53421,0-4.86943,1.59484-7.20409,3.389-2.06784,1.59485-4.20239,1.59485-9.27193-.1329-3.40194-1.12968-4.53591-1.26259-6.27023-.66452-2.80159.99678-4.93614-.39871-5.33636-3.389-.33353-1.86065,0-2.52517,1.86772-4.18647l2.268-1.99356-1.134-3.18969c-.93386-2.45872-1.5342-3.12324-2.66818-3.12324-1.33409,0-1.4008-.19936-.86716-1.72775a9.0344,9.0344,0,0,0,.66705-2.99034,7.7795,7.7795,0,0,1,1.66761-3.522c2.00114-2.65808,2.06784-3.1897.33352-4.71809-1.06727-.93033-1.5342-1.06323-2.13454-.46517-1.134,1.12969-1.73432.99678-2.20125-.46516-.20012-.731-1.66762-2.32582-3.26852-3.65486l-2.935-2.39227-3.53534,1.06324c-3.20182.99677-3.66875.99677-5.33637,0a10.29969,10.29969,0,0,0-4.4692-1.06324c-2.13455,0-3.00171.39872-4.069,1.79421-1.40079,1.86065-1.40079,1.86065-2.46807.53161a4.865,4.865,0,0,1-.73375-3.65485c.46694-3.38905-.80045-8.04069-2.73488-10.16715-1.33409-1.39549-2.33466-1.7942-4.60261-1.7942-2.60148,0-2.8683-.13291-2.8683-1.6613,0-1.86066-1.93443-2.32582-3.26852-.731a6.7079,6.7079,0,0,1-2.935,1.329c-2.60148.53162-6.40364-1.329-6.73716-3.25614-.13341-.731-.60034-3.12324-1.06727-5.31616a31.57435,31.57435,0,0,1-.73375-6.37938,7.20266,7.20266,0,0,0-1.73432-4.78454,30.32069,30.32069,0,0,1-3.0017-4.38583q-2.1012-3.68808-4.60262-2.19291a5.647,5.647,0,0,1-2.66818.79742c-2.26795,0-7.27079,3.18969-7.27079,4.58518,0,2.12646-1.73432,2.99034-3.46864,1.79421a6.08888,6.08888,0,0,0-3.0017-1.06324c-.86716,0-1.53421-.39871-1.53421-.93032a2.88045,2.88045,0,0,0-1.06727-1.79421,20.438,20.438,0,0,1-2.66818-3.32259,6.09637,6.09637,0,0,0-3.53534-2.92389c-3.13511-.66452-3.46864-1.39549-3.46864-7.97423a22.98527,22.98527,0,0,1,.46693-4.18647c.33353-1.86066.13341-2.52518-1.40079-4.12a8.39968,8.39968,0,0,1-2.13455-4.58519C2850.06525,102.82756,2849.2648,102.16305,2846.66332,102.96047ZM3107.14453,321.388c0,.33226-.13341.66452-.26682.66452-.20011,0-.53363-.33226-.73375-.66452-.20011-.39871-.0667-.66452.26682-.66452A.68458.68458,0,0,1,3107.14453,321.388Zm-673.04876,29.83692a1.26289,1.26289,0,0,1-.667,1.06324,2.73854,2.73854,0,0,0-.66705,1.9271c0,1.39549.33352,1.59485,2.73489,1.59485,1.73431.06645,2.80159-.26581,3.0684-.93033a1.36222,1.36222,0,0,1,1.00057-.93033c.40023,0,.46693.53162.26682,1.12969a1.282,1.282,0,0,0,.40023,1.59484c1.5342.93033-2.8683,2.12647-4.53591,1.19614a6.61416,6.61416,0,0,0-3.20182-.46516c-.93386.19935-1.5342.1329-1.40079-.19936.667-.99678-1.06728-1.39549-2.13455-.53162-.93386.79743-1.00057.66452-.53364-1.39549a9.07679,9.07679,0,0,1,1.53421-3.522C2431.02736,350.56041,2434.09577,350.16169,2434.09577,351.22492Zm99.45646,67.51518c1.66762.86387,1.86773,1.329,1.53421,2.85743-.60034,2.39227-.60034,2.39227-2.935,1.46194-1.60091-.66452-2.20125-.66452-3.00171,0s-1.06727.53162-1.60091-.731a3.00974,3.00974,0,0,1,2.268-4.12,8.90828,8.90828,0,0,0,1.5342-.39871A16.64485,16.64485,0,0,1,2533.55223,418.7401Zm-8.07125,2.99034c-1.26738.86387-2.00113.86387-2.00113,0,0-.39872.667-.66452,1.5342-.66452C2526.21473,421.06592,2526.28144,421.19882,2525.481,421.73044Zm54.3642,23.85624c.20011.39871-.26682.53162-1.06727.39871-2.00114-.39871-2.46807-.99677-.73375-.99677A2.639,2.639,0,0,1,2579.84518,445.58668Zm-5.87.46517c-.667.66452-5.13625,1.46194-5.13625.93032,0-.33226.53364-.731,1.20068-.86387C2571.77393,445.65313,2574.44211,445.58668,2573.97518,446.05185Zm473.5355,134.96389c.26681,2.12646.13341,3.92067-.20012,4.25292-.46693.46517-.80045-.79742-1.06727-3.52195a33.58678,33.58678,0,0,0-.80045-5.51551c-.40023-1.26259-.40023-1.26259.60034-.06645A13.08311,13.08311,0,0,1,3047.51068,581.01574Zm-99.79,180.94864c0,.33226-.13341.66452-.26682.66452-.20011,0-.53363-.33226-.73375-.66452-.20011-.39871-.0667-.66452.26682-.66452A.68458.68458,0,0,1,2947.72069,761.96438Zm5.33636,3.65486a2.91872,2.91872,0,0,1-1.801.99678c-.86716,0-.86716-.19936-.20011-.99678a2.91867,2.91867,0,0,1,1.801-.99678C2953.7241,764.62246,2953.7241,764.82181,2953.05705,765.61924Zm-40.15613,6.64519c-1.40079,1.26259-2.86829,2.32582-3.33522,2.32582s0-.59807,1.06727-1.26259a11.12045,11.12045,0,0,0,2.53477-2.32582,1.93558,1.93558,0,0,1,1.4008-1.06323C2915.03547,769.93861,2914.235,771.00184,2912.90092,772.26443ZM2879.68207,800.573c0,.39871-.26682.46516-.66705.26581a1.5512,1.5512,0,0,1-.667-1.06324c0-.39871.33352-.46516.667-.2658A1.35461,1.35461,0,0,1,2879.68207,800.573Zm-2.66819,15.54975a3.63119,3.63119,0,0,0-.46693,2.72453c.33353,1.86066-1.26738,3.05679-2.20125,1.59485-.53363-.86388,1.86773-5.24971,2.935-5.31616C2877.61423,815.12593,2877.48082,815.5911,2877.01388,816.12271Zm-59.03351,31.43177c-.53364.53162-1.66761-.66452-1.26739-1.329q.40023-.59807,1.00057.19936C2817.98037,846.89,2818.11378,847.42158,2817.98037,847.55448Z"/><path class="cls-2" d="M3086.46613,512.7696c0,.33226.46693.66452,1.06727.66452.53363,0,.80045-.33226.60034-.66452a1.26871,1.26871,0,0,0-1.06727-.66452A.61453.61453,0,0,0,3086.46613,512.7696Z"/><path class="cls-2" d="M3080.396,515.16187c-1.93443,1.99355-2.60147,2.25936-4.33579,1.9271-1.801-.33226-2.40137,0-4.3358,2.12646a32.69047,32.69047,0,0,0-3.93556,5.78132,28.19082,28.19082,0,0,1-2.80159,4.45228c-1.134,1.19614-2.8683,6.44584-2.33466,6.97746.13341.19935,1.60091-2.19292,3.13511-5.31616,3.73545-7.37616,8.07125-12.36006,10.73943-12.36006,1.4675,0,2.86829-.79742,5.13625-2.99034,1.93443-1.7942,2.73488-2.99033,2.06784-2.99033C3083.1976,512.7696,3081.6634,513.83283,3080.396,515.16187Z"/><path class="cls-2" d="M3096.872,515.89284c-.73375.79742.40023,1.52839,2.33466,1.52839,2.40136,0,8.805,3.12324,8.27136,3.98712a1.55459,1.55459,0,0,1-1.33409.66452c-2.06784,0-1.40079,1.06323.73375,1.12968,1.26739.06645,2.46807-.19935,2.66818-.53161.53364-.86388-1.5342-3.92067-2.66818-3.92067a5.37215,5.37215,0,0,1-2.46806-1.26259C3102.87544,516.29155,3097.60578,515.22832,3096.872,515.89284Z"/><path class="cls-2" d="M3061.78545,539.68263c0,.59807.33352.99678.73375.86388a.87541.87541,0,0,0,0-1.72775C3062.119,538.68585,3061.78545,539.08457,3061.78545,539.68263Z"/></g><circle class="cls-3" cx="2812.5" cy="500" r="438.5"/></g><g id="Banner"><polygon class="cls-4" points="2259.444 364.813 1902.381 364.813 1958.449 513.695 1902.381 662.552 2259.444 662.552 2259.444 364.813"/><polygon class="cls-5" points="2049.537 468.045 2259.434 367.813 2259.777 571.354 2049.537 468.045"/><polygon class="cls-4" points="3365.556 478.523 3722.619 478.523 3666.551 627.404 3722.619 776.261 3365.556 776.261 3365.556 478.523"/><path class="cls-5" d="M3576.44374,571.75324S3426.5934,399.72443,3366.556,471.52276c-.66625,1.99376-.34213,297.92544-.34213,297.92544Z"/><path class="cls-6" d="M3578.60962,567.22992c-518.56347,22.25043-1016.74878,276.7229-1535.313,299.10992V472.77011c518.5642-22.25046,1016.74951-276.72291,1535.313-299.11Z"/></g></g><g id="Texte"><path class="cls-7" d="M2086.13546,566.90375c.82057-5.10731,1.7208-8.26511,3.15809-8.59317.95717-.21848,1.48584.153,4.10768,2.9986,4.20963,4.77964,9.265,11.82645,31.77016,41.1318,10.0127,13.13176,16.70662,22.59234,19.3769,25.91982l8.05561-63.34309c1.07063-9.4293,1.08-13.69557-3.54516-13.78789a26.58641,26.58641,0,0,0-5.151.35564c-1.55605.35517-2.03794-.35491-1.921-1.20168a3.05279,3.05279,0,0,1,2.62842-2.24007c4.78892-1.09307,12.501-2.36121,17.28991-3.45428,2.634-.60121,8.69088-2.4758,13.71935-3.62354,1.79559-.40984,2.56381-.09306,2.42347.92281a2.93562,2.93562,0,0,1-2.29251,2.32758,13.72591,13.72591,0,0,0-3.06353,1.19137c-4.04509,1.57918-5.63953,4.73126-7.44931,15.31272-5.66061,34.25818-10.33973,68.129-15.52125,102.27779-1.1932,8.63721-2.288,10.69141-3.845,11.0468-1.91537.43718-5.06474-2.78095-11.51352-10.65734-6.73785-8.30293-15.42566-19.27688-21.32229-26.95175-5.51223-7.10591-15.28538-20.29235-22.36371-30.32188l-6.78108,57.47587c-1.445,12.13914-1.5975,16.60184,1.52018,17.53038,1.67963.43669,3.83455-.05516,6.18229-.26349,1.77217-.24032,2.30079.13155,2.16051,1.147-.18724,1.35533-1.19215,1.91225-3.10752,2.34943-4.19006.95637-7.97508,1.49275-15.3746,3.01751-2.75379.62854-11.68314,3.15838-16.35229,4.2241-1.67684.38274-2.58729.263-2.40006-1.09233.14028-1.01546.83181-1.83,2.50865-2.21273,1.10025-.41451,2.65731-.7699,4.02065-1.40943,4.80943-2.08119,5.99319-6.45173,8.52837-22.28415C2077.00011,629.67322,2082.39881,588.91427,2086.13546,566.90375Z"/><path class="cls-7" d="M2181.80391,610.50815c4.23451-30.65239,22.87041-61.47578,54.35775-68.66272,27.29831-6.2308,40.83939,15.77227,36.86225,44.56161-4.74926,34.37851-25.20976,64.1424-53.46524,70.59167C2187.711,664.2679,2178.22443,636.419,2181.80391,610.50815Zm67.29672-12.0801c3.08815-22.35422,1.38843-50.34034-18.00683-45.9134-9.21954,2.10434-20.5472,11.08625-25.29647,45.46476-3.74329,27.09663.19943,52.274,18.03864,48.20218C2230.42049,644.67868,2243.60267,638.22622,2249.10063,598.42805Z"/><path class="cls-7" d="M2283.7222,638.25313c-1.775-.57911-1.95-2.671-1.57562-5.38085,1.75467-12.70155,2.74281-18.17505,3.73375-22.82912.613-2.7651,1.282-3.40953,1.88088-3.54622s.86451.45937.77386,1.95523c-.06746,1.328-.23116,2.513-.17986,3.81385-.31727,12.37266,7.41609,17.66061,16.15654,15.66561,9.69763-2.21347,13.58006-9.33263,14.3988-15.25919.81884-5.92739.03772-10.342-7.869-16.90135l-5.71884-4.76351c-11.0796-9.60717-13.195-18.63762-11.32348-32.1851,2.45934-16.96273,14.84081-33.56579,32.20093-37.52821a41.81994,41.81994,0,0,1,12.81632-1.28517c1.60568.12523,3.45181.19637,5.15384.46378,1.03125.09217,1.19952.54628,1.01241,1.90078-.86735,5.44594-1.45784,8.04092-3.32948,21.58924-.35094,2.5403-.85066,3.63861-1.68907,3.83-.59887.13669-1.15-.06507-1.03862-2.5507a25.68159,25.68159,0,0,0-.55389-7.74592c-1.40621-4.9278-6.33169-8.724-13.51508-7.08439-8.979,2.04944-12.8352,9.81853-13.70077,16.08412-.889,6.43512.65762,10.34663,5.91911,14.22949l5.35672,4.02611c13.5498,10.19176,16.71417,17.50682,14.67882,32.24011a50.647,50.647,0,0,1-15.88033,31.0145,42.91856,42.91856,0,0,1-20.2141,10.35433C2292.83494,640.27351,2287.56132,639.83707,2283.7222,638.25313Z"/><path class="cls-7" d="M2406.388,535.95766c3.81344-27.60436,4.16157-30.9641,4.67062-36.32825.439-4.85683-.2413-7.48972-3.09327-7.82261a27.91224,27.91224,0,0,0-3.88133.39379c-1.53263.18565-2.03794-.35491-1.89754-1.3712.14034-1.01588.92918-1.688,2.84455-2.12523,6.82407-1.55759,12.501-2.36121,17.769-3.56363,2.51423-.57387,31.87008-7.43848,33.78647-7.87589a37.29585,37.29585,0,0,0,6.5583-2.15282,10.01176,10.01176,0,0,1,2.009-1.11484c.59887-.13669.625.51363.508,1.3604s-.59049,2.595-1.62826,7.5881c-.82729,3.46951-1.88455,9.45051-3.46038,18.33843-.18723,1.35533-.80672,2.481-1.52537,2.645-.59887.13669-.96-.60095-.86909-2.09846a26.42612,26.42612,0,0,0,.21986-5.78987c-.0607-3.75895-1.31265-5.605-6.96621-4.97053-3.88025.39314-14.2498,2.43243-17.842,3.25234-.71865.164-1.02845.72727-1.19215,1.91225l-5.14692,37.257c-.16381,1.18581-.161,2.00524.6774,1.81387,3.32935-.59655,13.05028-2.97871,17.38353-4.13194,5.91362-1.67732,7.53992-2.541,9.27862-5.89063.92907-1.68722,1.381-2.44708,1.97992-2.58377.71864-.164.57824.85226.43785,1.86854-.234,1.69354-1.675,7.92631-2.94682,14.61379-.65783,3.92215-1.80419,12.22033-2.06156,14.08338-.3041,2.20127-.80382,3.29958-1.52145,3.46338-.83842.19136-.91426-.93894-.94316-2.40911.06735-1.32716.11139-2.48563.17873-3.8128.20049-4.8028-1.07869-7.29858-6.87431-6.46826-3.30594.427-13.07661,2.32962-16.78859,3.17687-.59887.13669-.83562,1.0108-1.02274,2.3653l-1.61428,11.68525c-.79542,5.75787-2.29551,15.77693-3.06484,22.18553-1.51781,11.82661-.21532,14.1537,13.07349,11.12055,3.11311-.71056,7.80568-1.94581,11.41571-4.57411,3.60991-2.62747,5.56093-6.68141,7.715-14.71707q.78051-3.13089,1.85746-3.37669c.95819-.21871.844,1.44749.56333,3.47924a225.66557,225.66557,0,0,1-5.05047,23.13127c-1.44661,4.5939-2.30845,4.95479-6.738,5.96584-16.52272,3.77129-25.3613,4.80444-37.93249,7.67379-5.62734,1.28444-10.726,2.93991-17.31048,4.44282-2.15593.49208-2.80342.14815-2.6396-1.03766.117-.84677.83282-1.83023,2.62842-2.24007a23.11615,23.11615,0,0,0,3.68463-1.49611c3.44633-1.44331,4.81441-7.98778,6.52784-18.71142,1.17537-6.82884,2.67557-16.84872,4.12592-27.34734Zm57.17361-86.5269c.19836,1.92281-.37435,2.70983-1.092,2.87363a39.541,39.541,0,0,0-7.22559,3.61732,218.7535,218.7535,0,0,0-19.31588,13.9213,11.05857,11.05857,0,0,1-2.84461,2.12565c-.59786.13646-1.00675-.26234-.91314-.94a9.58138,9.58138,0,0,1,1.6178-3.32119c5.62662-8.82907,15.88392-22.65085,19.34516-26.72115,2.07633-2.442,3.39105-3.56216,4.22946-3.75353.71763-.1638,1.17337-.104,2.13715,1.31611A25.16989,25.16989,0,0,1,2463.56165,449.43076Z"/><path class="cls-7" d="M2515.00422,546.265c-1.544,11.17669-3.22575,24.18994-3.732,30.37352-.27508,3.67061.04858,7.20536,3.18678,7.14577a24.50672,24.50672,0,0,0,4.2174-.30752c1.86853-.09814,2.25406.46976,2.11367,1.486-.117.84677-.786,1.49119-2.70136,1.92837-7.42294,1.69427-18.60748,3.75541-20.16353,4.11057-1.55706.3554-13.12042,3.48644-16.3533,4.22434-1.7956.40984-2.46752.23566-2.3037-.95015.1637-1.185,1.19214-1.91224,2.41229-2.35491,1.10127-.41474,2.17822-.66055,3.54257-1.30031,2.488-1.22378,3.60432-4.26633,4.54752-8.582,1.34477-6.37578,2.77181-16.70571,4.76044-31.10079l7.79069-56.39452c-4.07028.929-10.99082,2.34527-16.329,4.05542-5.937,1.84684-8.253,4.34393-10.38933,10.572-.37983,1.07014-.78319,2.31062-1.2819,3.40869-.37994,1.071-.903,2.338-1.62161,2.502-.83841.19137-.89084-1.10845-.53711-2.82933,1.58141-7.24906,3.59241-15.08869,5.36665-22.05421.54274-2.25655,1.282-3.40953,1.88088-3.54622s1.3426.35025,2.97271.30573c1.48579.15339,7.97777-.6725,12.04805-1.60153l47.89028-10.93089a33.20383,33.20383,0,0,0,6.55932-2.15305,34.45008,34.45008,0,0,1,3.58839-1.63911c1.19774-.27339.961.60072.3761,4.83457-.23395,1.69354-3.05809,17.09859-3.66919,20.68253-.44729,2.39812-1.13972,3.21207-1.73758,3.34853-.59887.13669-.961-.60073-.8468-2.26693.25726-1.86223.25446-2.68166.37144-3.52843.27241-4.49087-.5996-7.40794-6.11-6.97028-3.784.53615-9.43746,1.16984-18.05814,3.1375Z"/><path class="cls-7" d="M2585.1786,526.80334c-2.76064,19.98343-1.99163,27.84442,3.55791,32.15406a11.17547,11.17547,0,0,0,9.32709,1.31556,21.71911,21.71911,0,0,0,11.66916-7.25554c7.30523-8.39214,9.26484-24.25656,11.32361-39.15937l2.3864-17.27443c2.97117-21.50745,3.41566-24.725,3.83115-29.41191.53246-5.53368.045-7.88262-3.30946-7.937a26.02037,26.02037,0,0,0-3.85785.22385c-1.53274.18647-1.77509-.57828-1.65811-1.425.1404-1.01629.80952-1.66154,2.60512-2.07138,6.346-1.44846,12.6207-2.38814,14.89539-2.90733,1.91537-.43718,9.05026-2.55823,14.55783-3.81532,1.79559-.40985,2.181.15888,2.04073,1.17434-.09367.67808-.54655,1.43734-2.03056,2.10361a19.90483,19.90483,0,0,0-3.44532,1.44309c-2.96712,1.33313-4.08621,3.55625-5.19144,9.87735-.89458,4.79626-1.45885,8.04115-4.43,29.5486l-1.94179,14.056c-2.33956,16.93539-5.2976,34.99619-17.71077,49.30965a44.91166,44.91166,0,0,1-23.60241,14.73633c-10.41627,2.3775-19.28488,1.94153-24.62389-3.89212-4.97791-5.096-7.694-14.80943-4.76964-35.97784l3.08827-22.35505c3.15829-22.86195,3.67293-26.58724,4.08852-31.275.27509-3.67062-.01957-5.736-2.29705-6.03626a26.318,26.318,0,0,0-4.52876.04944c-1.6291.04429-1.77509-.57828-1.65811-1.425s.68874-1.634,2.84467-2.12606c4.30983-.98371,16.09211-3.18048,16.45144-3.26249.59887-.1367,14.67658-3.84244,18.50833-4.717,2.03514-.46452,2.54034.07687,2.42336.92364-.14028,1.01546-.56986,1.606-2.05285,2.27207-.98161.38823-2.80063.96759-3.92543,1.55267-3.11031,1.53-4.27232,4.91052-5.14359,9.53809-.89458,4.79625-1.87724,11.90945-4.35708,29.8603Z"/><path class="cls-7" d="M2667.02829,486.63528c2.97118-21.50745,3.39225-24.55549,3.80887-29.24345.32181-4.00882.714-8.527-3.98138-8.11122l-3.40218.284c-1.62909.04429-1.63189-.77514-1.53833-1.45239.117-.84677.4502-1.57952,2.48534-2.044,1.91537-.43718,12.38116-2.33346,17.52941-3.50854,3.59119-.81968,7.94887-2.14266,17.6465-4.35613,19.515-4.45428,32.33974-3.28116,39.9,7.45845,4.45476,6.36383,7.55928,17.46375,5.14957,34.90687a95.93938,95.93938,0,0,1-17.517,42.86905c-6.39376,8.51164-17.016,20.777-39.16609,25.83271-5.7461,1.31154-17.3657,2.32356-21.67553,3.30727-5.02848,1.14774-11.08529,3.02192-16.11376,4.16966-1.79559.40985-2.03794-.35491-1.921-1.20168a2.81611,2.81611,0,0,1,2.14932-2.13072,15.43815,15.43815,0,0,0,3.18325-1.21829c5.24181-1.85233,6.11693-12.38543,9.90684-39.81944Zm17.942,11.97782c-2.15244,15.58089-3.297,24.69873-3.57491,27.54991-.69627,6.71948-.498,8.6427.44251,10.23155,1.59053,2.75387,6.02573,3.38168,9.85748,2.50709,6.70429-1.53024,12.735-4.05516,19.38792-13.6102,6.15421-8.457,9.5334-22.8419,11.171-34.69584,1.84823-13.3788.73493-23.78559-2.5511-31.89215-4.85708-11.84832-14.39649-12.45952-21.22056-10.90193-2.51423.57387-4.85918,1.60162-5.81457,2.63976-1.1219,1.40368-1.33433,2.10887-5.12435,29.5437Z"/><path class="cls-7" d="M2770.23586,463.07831c3.15829-22.86195,3.69646-26.75759,3.96976-31.24787.29862-3.841-.04578-6.38593-2.60965-6.29245a11.02308,11.02308,0,0,0-3.259.08716c-1.413.15914-1.94158-.21273-1.80119-1.229.117-.84677.59328-1.77555,2.62842-2.24007,4.19107-.95661,15.614-3.07136,15.97336-3.15337.59887-.13669,14.19749-3.73308,18.26879-4.66235,1.91537-.43718,2.06124.18622,1.921,1.20168-.16382,1.18581-1.04907,1.71622-2.38887,2.1854a19.1551,19.1551,0,0,0-2.46472,1.05509c-2.99054,1.50265-4.15927,3.24538-5.34023,8.43535-1.01334,4.82336-1.50467,8.38-4.663,31.24191l-3.55618,25.74212c-1.544,11.1767-3.34375,25.03695-3.73022,31.19319-.27509,3.67061.09262,6.04689,3.185,6.32611a21.15978,21.15978,0,0,0,4.33616-.33463c1.7956-.40984,2.1343.4971,2.01732,1.34386-.09356.67726-.68963,1.63338-2.48523,2.04322-7.42294,1.69427-19.68443,4.00122-20.2833,4.13791-.23955.05468-12.76111,3.40443-16.11376,4.16967-1.79559.40984-2.4441.06614-2.28028-1.11967a2.62827,2.62827,0,0,1,2.02955-2.10338c.98149-.3874,2.05946-.63345,3.54257-1.30031,2.36825-1.19645,3.74763-4.464,4.57207-8.75254,1.44-6.23254,2.96351-16.42111,4.97544-30.98489Z"/><path class="cls-7" d="M2826.78467,489.37029c-.71865.164-1.21836,1.26233-1.40828,1.7974l-3.70732,9.21026a50.62532,50.62532,0,0,0-3.03563,9.38609c-.67845,4.9111,3.84751,4.04223,6.55457,3.75189,1.53365-.18587,1.79941.40936,1.70573,1.08744a2.63362,2.63362,0,0,1-2.29341,2.327c-5.268,1.20242-8.78907,1.51437-14.89551,2.90816-1.19673.27315-8.21172,2.366-13.36,3.54111-1.67582.38251-2.06136-.18539-1.921-1.20168a2.52366,2.52366,0,0,1,2.14932-2.13072c5.26523-2.02185,8.29969-4.68215,12.79312-15.38443l40.71294-93.2665c3.59046-8.36431,5.09128-10.83873,6.40879-11.13945,1.19672-.27316,1.85082,1.70941,3.09053,7.00276,1.48754,7.69779,12.44205,58.50036,16.53717,79.2158,2.2148,9.99041,3.592,13.44886,7.5453,13.3666a15.71624,15.71624,0,0,0,2.34774-.20832c1.31752-.30072,1.91918.382,1.8022,1.22879a2.80459,2.80459,0,0,1-2.38988,2.18562c-12.06879,2.59131-24.49678,5.26381-30.81834,6.54252-1.43728.32806-2.06237-.18516-1.94539-1.03193.1404-1.01629.90588-1.51936,1.67124-2.0216,1.02743-.727,2.1287-1.14177,1.78721-2.86813l-3.70691-19.3273a.69487.69487,0,0,0-.84121-.62806Zm23.15986-18.24315c.71763-.1638.76447-.50283.69142-.81371l-5.27029-28.15539c-.24234-.76475-.28918-.42572-.62229.30621L2831.71979,474.631c-.18992.53507.02621.64991.26576.59523Z"/><path class="cls-7" d="M2914.965,394.126c.79822-4.93844,1.50848-7.56076,3.06453-7.91592.59886-.1367,1.078-.246,3.6268,2.28829,4.35282,4.58278,18.11388,20.79516,29.111,34.35813,9.81719,12.028,14.50871,17.51769,17.08365,20.70276l6.5601-51.68494c.88351-8.07481.70393-11.80582-3.826-11.75532a26.57425,26.57425,0,0,0-4.21615.30564c-1.413.15913-1.77509-.57829-1.68141-1.25636a2.74092,2.74092,0,0,1,2.26909-2.15806c3.95153-.90193,11.30421-2.08765,16.09314-3.18071,2.634-.60121,8.33161-2.3942,12.64144-3.37792,1.79559-.40984,2.181.15889,2.064,1.00566a2.71829,2.71829,0,0,1-2.05286,2.27207c-1.34093.47024-1.70025.55225-2.4413.88557-3.68576,1.49717-5.18771,3.97265-6.83278,13.36889-4.77151,27.82224-9.27179,57.8794-13.46237,87.37415-1.16978,8.4677-2.099,10.15575-3.655,10.51091-1.79559.40984-4.99282-2.469-12.13581-10.35113-6.20745-7.1114-13.28018-15.50207-17.516-20.93162-4.74115-5.97012-12.41555-15.04353-19.9974-24.79395l-5.49611,47.34174c-1.16419,10.10656-1.50953,14.28573,1.55852,14.73387a17.51249,17.51249,0,0,0,5.24751-.2143c1.74978-.071,2.15772.32758,2.04074,1.17435-.16382,1.18581-.95159,1.85734-2.868,2.29475-2.99232.683-6.17848,1.08268-13.69777,2.63477-2.99333.68323-11.80393,3.18595-15.39511,4.00563-1.7956.40985-2.32432.03881-2.16051-1.147.117-.84677.68963-1.63337,2.14932-2.13072,1.10127-.41474,1.69913-.5512,3.04006-1.02144,4.54658-1.85782,5.97269-5.4636,8.20366-19.09393C2907.06968,447.91923,2911.77211,413.87976,2914.965,394.126Z"/><path class="cls-7" d="M3048.28238,424.545c-1.544,11.17669-3.22575,24.18994-3.732,30.37352-.27508,3.67061.04858,7.20536,3.18678,7.14577a24.50672,24.50672,0,0,0,4.2174-.30752c1.86853-.09814,2.25406.46976,2.11367,1.486-.117.84677-.786,1.49119-2.70136,1.92837-7.42294,1.69427-18.60748,3.75541-20.16353,4.11057-1.55706.3554-13.12042,3.48644-16.3533,4.22434-1.7956.40984-2.46752.23566-2.3037-.95015.1637-1.185,1.19214-1.91224,2.41229-2.35491,1.10127-.41474,2.17822-.66055,3.54257-1.30031,2.488-1.22378,3.60432-4.26633,4.54752-8.582,1.34477-6.37578,2.77181-16.70571,4.76044-31.10079l7.79069-56.39452c-4.07028.929-10.99082,2.34527-16.329,4.05541-5.937,1.84685-8.253,4.34394-10.38933,10.572-.37983,1.07014-.78319,2.31062-1.2819,3.40869-.37994,1.071-.903,2.338-1.62161,2.502-.83841.19137-.89084-1.10845-.53711-2.82933,1.58141-7.24906,3.59241-15.08869,5.36665-22.05421.54274-2.25655,1.282-3.40953,1.88088-3.54622s1.3426.35025,2.97271.30573c1.48579.15339,7.97777-.6725,12.048-1.60153l47.89028-10.93089a33.20383,33.20383,0,0,0,6.55932-2.15305,34.45352,34.45352,0,0,1,3.58839-1.63912c1.19774-.27338.961.60073.3761,4.83458-.234,1.69354-3.05809,17.09859-3.66919,20.68253-.44729,2.39812-1.13972,3.21207-1.73758,3.34852-.59886.1367-.961-.60072-.8468-2.26692.25726-1.86223.25446-2.68166.37144-3.52843.27241-4.49088-.5996-7.408-6.11-6.97028-3.784.53615-9.43746,1.16984-18.05814,3.1375Z"/><path class="cls-7" d="M3085.435,455.26335c-1.775-.57911-1.95-2.671-1.57561-5.38086,1.75467-12.70154,2.74281-18.175,3.73374-22.82912.613-2.7651,1.282-3.40952,1.88088-3.54621s.86452.45937.77387,1.95523c-.06746,1.328-.23116,2.513-.17986,3.81385-.31727,12.37266,7.41609,17.66061,16.15654,15.66561,9.69762-2.21347,13.58006-9.33264,14.39879-15.2592.81885-5.92738.03772-10.342-7.869-16.90134l-5.71884-4.76352c-11.07959-9.60716-13.195-18.63761-11.32347-32.18509,2.45933-16.96273,14.84081-33.56579,32.20092-37.52822a41.82,41.82,0,0,1,12.81633-1.28516c1.60568.12522,3.4518.19637,5.15384.46378,1.03124.09217,1.19952.54628,1.0124,1.90078-.86735,5.44593-1.45783,8.04092-3.32948,21.58923-.35093,2.54031-.85065,3.63861-1.68907,3.83-.59887.13669-1.15-.06506-1.03862-2.55069a25.68126,25.68126,0,0,0-.55389-7.74592c-1.40621-4.9278-6.33168-8.724-13.51507-7.08439-8.979,2.04944-12.83521,9.81852-13.70078,16.08412-.889,6.43512.65762,10.34663,5.91912,14.22949l5.35672,4.0261c13.54979,10.19177,16.71315,17.50706,14.6778,32.24035a50.64505,50.64505,0,0,1-15.87932,31.01427,42.91861,42.91861,0,0,1-20.2141,10.35433C3094.54777,457.28373,3089.27416,456.84728,3085.435,455.26335Z"/><path class="cls-7" d="M2483.361,689.2907c4.23451-30.65239,22.8704-61.47578,54.35775-68.66272,27.2983-6.2308,40.83939,15.77227,36.86225,44.56161-4.74926,34.37851-25.20976,64.1424-53.46524,70.59167C2489.268,743.05045,2479.78147,715.20152,2483.361,689.2907Zm67.29672-12.0801c3.08815-22.35422,1.38842-50.34034-18.00683-45.9134-9.21955,2.10434-20.54721,11.08625-25.29647,45.46476-3.7433,27.09663.19942,52.27395,18.03863,48.20218C2531.97753,723.46123,2545.15971,717.00877,2550.65768,677.2106Z"/><path class="cls-7" d="M2604.57881,612.58371c.79822-4.93844,1.50848-7.56076,3.06452-7.91592.59887-.1367,1.078-.246,3.62681,2.28829,4.35282,4.58278,18.11388,20.79516,29.111,34.35813,9.81719,12.028,14.50871,17.51769,17.08365,20.70276l6.56009-51.68494c.88351-8.07481.70394-11.80582-3.826-11.75532a26.57425,26.57425,0,0,0-4.21615.30564c-1.413.15913-1.77509-.57829-1.68142-1.25636a2.74092,2.74092,0,0,1,2.2691-2.15806c3.95153-.90193,11.30421-2.08765,16.09314-3.18071,2.634-.60121,8.33161-2.3942,12.64144-3.37792,1.79559-.40984,2.181.15889,2.064,1.00566a2.71826,2.71826,0,0,1-2.05285,2.27207c-1.34093.47024-1.70025.55225-2.4413.88557-3.68576,1.49717-5.1867,3.97241-6.83278,13.36889-4.77151,27.82224-9.27179,57.8794-13.46237,87.37415-1.16978,8.4677-2.099,10.15574-3.655,10.51091-1.79559.40984-4.99282-2.469-12.13581-10.35113-6.20745-7.1114-13.28018-15.50207-17.516-20.93162-4.74115-5.97012-12.41555-15.04353-19.9974-24.79395l-5.49611,47.34174c-1.16419,10.10656-1.50953,14.28573,1.55852,14.73387a17.51249,17.51249,0,0,0,5.24751-.2143c1.74977-.071,2.15771.32758,2.04074,1.17435-.16382,1.18581-.95159,1.85733-2.868,2.29475-2.99232.683-6.17848,1.08268-13.69777,2.63477-2.99333.68322-11.80393,3.186-15.39511,4.00563-1.7956.40985-2.32433.03881-2.16051-1.147.117-.84677.68963-1.63337,2.14932-2.13072,1.10127-.41474,1.69913-.5512,3.04006-1.02144,4.54658-1.85782,5.97268-5.4636,8.20365-19.09393C2596.68349,666.37693,2601.38591,632.33745,2604.57881,612.58371Z"/><path class="cls-7" d="M2737.89619,643.00273c-1.544,11.17669-3.22575,24.18994-3.732,30.37352-.27509,3.67061.04858,7.20536,3.18678,7.14577a24.50672,24.50672,0,0,0,4.2174-.30752c1.86853-.09814,2.25406.46976,2.11367,1.486-.117.84676-.786,1.49119-2.70136,1.92837-7.42294,1.69427-18.60749,3.75541-20.16353,4.11057-1.55706.3554-13.12042,3.48644-16.35331,4.22434-1.79559.40984-2.46751.23566-2.3037-.95015.16371-1.185,1.19215-1.91224,2.41229-2.35491,1.10127-.41474,2.17822-.66055,3.54257-1.30031,2.488-1.22378,3.60433-4.26633,4.54752-8.582,1.34478-6.37578,2.77182-16.70571,4.76045-31.10079l7.79069-56.39452c-4.07028.929-10.99082,2.34527-16.329,4.05541-5.937,1.84684-8.253,4.34394-10.38933,10.572-.37983,1.07014-.78319,2.31062-1.2819,3.40869-.37994,1.071-.903,2.338-1.62161,2.502-.83842.19137-.89084-1.10845-.53711-2.82933,1.58141-7.24906,3.59241-15.08869,5.36563-22.054.54376-2.25678,1.283-3.40976,1.8819-3.54645s1.3426.35025,2.97271.30573c1.48579.15339,7.97776-.6725,12.048-1.60153l47.89028-10.93089a33.20383,33.20383,0,0,0,6.55932-2.15305,34.45352,34.45352,0,0,1,3.58839-1.63912c1.19774-.27338.961.60073.3761,4.83458-.234,1.69354-3.05809,17.09859-3.66919,20.68253-.44729,2.39812-1.13972,3.21206-1.73758,3.34852-.59887.1367-.961-.60072-.8468-2.26692.25726-1.86223.25446-2.68166.37144-3.52843.27241-4.49088-.5996-7.408-6.11-6.97028-3.784.53615-9.43745,1.16984-18.05813,3.1375Z"/><path class="cls-7" d="M2827.53937,597.61137c2.97117-21.50745,3.39224-24.55549,3.80886-29.24345.32181-4.00882.714-8.527-3.98138-8.11122l-3.40217.284c-1.6291.04429-1.6319-.77514-1.53834-1.45239.117-.84677.4502-1.57952,2.48534-2.044,1.91537-.43718,12.38116-2.33346,17.52941-3.50854,3.59119-.81968,7.94887-2.14267,17.6465-4.35614,19.515-4.45427,32.33974-3.28115,39.9,7.45846,4.45477,6.36383,7.55928,17.46375,5.14958,34.90687a95.93948,95.93948,0,0,1-17.517,42.86905c-6.39376,8.51164-17.016,20.777-39.16609,25.83271-5.7461,1.31154-17.3657,2.32356-21.67553,3.30727-5.02848,1.14774-11.08528,3.02192-16.11376,4.16966-1.79559.40984-2.03794-.35491-1.921-1.20168a2.81611,2.81611,0,0,1,2.14933-2.13072,15.43831,15.43831,0,0,0,3.18324-1.21829c5.24181-1.85233,6.11693-12.38543,9.90684-39.81944Zm17.942,11.97781c-2.15244,15.5809-3.297,24.69873-3.5749,27.54992-.69628,6.71948-.498,8.6427.4425,10.23155,1.59053,2.75387,6.02573,3.38168,9.85748,2.50709,6.7043-1.53025,12.735-4.05517,19.38792-13.6102,6.15421-8.457,9.5334-22.8419,11.171-34.69585,1.84823-13.37879.73494-23.78559-2.5511-31.89214-4.85708-11.84832-14.39649-12.45952-21.22056-10.90194-2.51423.57388-4.85918,1.60163-5.81457,2.63976-1.1219,1.40369-1.33433,2.10888-5.12435,29.54371Z"/><path class="cls-7" d="M2946.83881,591.86743c-2.76064,19.98343-1.99163,27.84442,3.55791,32.15406a11.17547,11.17547,0,0,0,9.32709,1.31556,21.71906,21.71906,0,0,0,11.66915-7.25554c7.30523-8.39214,9.26485-24.25656,11.32362-39.15937l2.3864-17.27443c2.97117-21.50745,3.41566-24.725,3.83115-29.41191.53246-5.53368.045-7.88262-3.30946-7.937a26.02031,26.02031,0,0,0-3.85785.22385c-1.53274.18647-1.77509-.57828-1.65811-1.425.1404-1.01629.80952-1.66154,2.60511-2.07138,6.346-1.44846,12.62071-2.38813,14.8954-2.90733,1.91537-.43718,9.05025-2.55823,14.55782-3.81532,1.7956-.40985,2.181.15888,2.04074,1.17434-.09368.67808-.54656,1.43734-2.03057,2.10361a19.90478,19.90478,0,0,0-3.44531,1.44309c-2.96712,1.33313-4.08622,3.55625-5.19145,9.87735-.89458,4.79626-1.45884,8.04116-4.43,29.54861l-1.94179,14.056c-2.33956,16.93539-5.29759,34.99619-17.71076,49.30965a44.91167,44.91167,0,0,1-23.60241,14.73633c-10.41627,2.3775-19.28489,1.94154-24.62389-3.89212-4.97791-5.096-7.694-14.80943-4.76964-35.97784l3.08827-22.355c3.15829-22.86195,3.67292-26.58724,4.08852-31.275.27509-3.67062-.01957-5.736-2.29706-6.03626a26.3179,26.3179,0,0,0-4.52875.04944c-1.6291.04429-1.77509-.57828-1.65811-1.425s.68873-1.634,2.84466-2.12606c4.30983-.98371,16.09212-3.18048,16.45144-3.26249.59887-.1367,14.67659-3.84243,18.50834-4.717,2.03514-.46451,2.54034.07687,2.42336.92364-.14028,1.01546-.56986,1.606-2.05286,2.27207-.98161.38823-2.80062.96759-3.92542,1.55267-3.11031,1.53-4.27232,4.91053-5.14359,9.53809-.89458,4.79625-1.87724,11.90945-4.35709,29.8603Z"/><path class="cls-7" d="M3101.44742,553.79048c-1.82481,13.20928-4.00056,28.95886-4.38424,35.93454-.36876,4.34869-.02156,7.71309,3.45265,7.74018,1.51023-.01636,2.92308-.17467,5.03127-.32831,1.893-.2679,2.30079.13154,2.13709,1.31652-.14039,1.01629-.80839,1.66048-2.96331,2.15234-8.14158,1.8583-19.68545,4.00145-21.60081,4.43863-2.03515.46452-13.7193,3.62313-17.66981,4.52483-1.91536.43718-2.70706.29033-2.51983-1.065.16371-1.185,1.19215-1.91225,2.62842-2.24008,1.22105-.44207,2.561-.91208,3.9252-1.551,2.72768-1.27929,4.07984-5.19654,5.11749-10.18882,1.46176-7.22255,3.38584-19.471,5.655-35.89705l9.171-66.38623c-4.66916,1.06573-12.06868,2.59048-18.12548,4.46466-6.77557,2.039-9.71278,4.84211-12.08857,11.12407-.85624,1.99975-1.23607,3.06988-1.61512,4.14144-.42666,1.40918-.9731,2.8457-1.81152,3.03706-1.07695.24582-.88983-1.10868-.49028-3.16837,1.43822-7.0522,4.01919-16.49869,5.74558-23.125.59048-2.595,1.18376-4.37054,1.9024-4.53456.83842-.19137,1.24625.20806,3.883.42629,2.06136.18539,8.57675-.81,13.12613-1.84841l52.08136-11.88749a43.4787,43.4787,0,0,0,7.63627-2.39886,32.26759,32.26759,0,0,1,3.85136-1.86331c1.078-.24605,1.05734.7429.47245,4.97675-.32752,2.37079-3.22191,18.2844-3.92657,22.54559-.4474,2.399-.947,3.49643-1.66464,3.66023-.95819.2187-1.05745-.74208-.89643-2.74732.1376-1.83572.23116-2.513.22836-3.3324.24619-5.14079-.98793-8.79527-7.958-7.86026a172.08342,172.08342,0,0,0-19.15952,3.55306Z"/><path class="cls-7" d="M3146.77675,563.94507c-.71865.164-1.21837,1.26233-1.40828,1.7974l-3.70732,9.21026a50.62532,50.62532,0,0,0-3.03563,9.38609c-.67845,4.9111,3.84751,4.04223,6.55457,3.75189,1.53364-.18587,1.79839.40959,1.70472,1.08767a2.63231,2.63231,0,0,1-2.29241,2.32675c-5.268,1.20242-8.78906,1.51437-14.8955,2.90816-1.19673.27315-8.21173,2.366-13.36,3.54111-1.67582.38251-2.06135-.18539-1.921-1.20168a2.52366,2.52366,0,0,1,2.14932-2.13072c5.26523-2.02185,8.29969-4.68215,12.79311-15.38442l40.713-93.26651c3.59045-8.36431,5.09128-10.83873,6.40879-11.13945,1.19672-.27315,1.85082,1.70941,3.09053,7.00276,1.48754,7.69779,12.44205,58.50036,16.53717,79.2158,2.2148,9.99041,3.592,13.44886,7.5453,13.3666a15.71637,15.71637,0,0,0,2.34774-.20832c1.31752-.30072,1.91918.382,1.8022,1.22879a2.80459,2.80459,0,0,1-2.38988,2.18562c-12.06879,2.59131-24.49678,5.26381-30.81834,6.54252-1.43729.32806-2.06237-.18516-1.94539-1.03193.14039-1.01629.90587-1.51936,1.67124-2.0216,1.02743-.727,2.1287-1.14177,1.78721-2.86813l-3.70691-19.3273a.69487.69487,0,0,0-.84121-.62806Zm23.15986-18.24315c.71763-.1638.76447-.50283.69142-.81371l-5.27029-28.15539c-.24235-.76475-.28918-.42571-.62229.30621l-13.02358,32.16677c-.18992.53507.02621.64991.26576.59523Z"/><path class="cls-7" d="M3247.20641,526.91679c-1.91848,13.88735-3.75168,24.63833-2.52036,27.47338,1.13486,2.6937,2.9811,2.764,11.96009.71458,5.98666-1.36644,8.88364-2.19185,12.0865-4.39886,3.22728-2.37676,5.9933-6.45256,8.43376-14.88193.4735-1.74822,1.02006-3.18556,1.97724-3.404.71864-.164.81768.79841.537,2.83017-.51464,3.72529-4.10615,18.81457-5.769,23.29446-1.49625,4.11352-2.21387,4.27732-6.1654,5.17925-16.16339,3.68927-25.98358,5.11064-37.357,7.70661-5.02848,1.14775-10.48641,2.88523-16.59285,4.279-1.67582.3825-2.4441.06614-2.257-1.28836a2.73783,2.73783,0,0,1,2.24579-1.98937c1.10127-.41473,1.34082-.46941,2.562-.91231,4.45022-2,5.25684-4.48014,7.48679-18.11024.79543-5.75787,2.03815-13.91386,3.16109-22.04252l3.55618-25.74212c3.36883-24.386,3.483-26.05217,3.89951-30.73931.322-4.01048-.30864-6.16256-2.68248-6.605a16.35025,16.35025,0,0,0-3.83353.05493c-1.17444.10469-2.08579-.01564-1.922-1.20145.1637-1.185,1.07238-1.88491,3.22729-2.37676,6.46576-1.4758,11.66353-2.16966,16.21291-3.20805.59887-.1367,14.55681-3.8151,18.38856-4.68969,1.91537-.43718,2.30079.13155,2.18381.97832a2.73076,2.73076,0,0,1-2.17263,2.29941,18.8725,18.8725,0,0,0-3.32655,1.416c-3.08689,1.36048-4.29966,4.26167-5.26438,9.56566-.89458,4.79626-1.31755,7.02546-4.73322,31.75047Z"/><path class="cls-7" d="M3305.143,488.59905c3.36883-24.386,3.62341-27.06846,4.04-31.75642.27509-3.67061-.47536-5.79536-2.896-5.89874a18.03157,18.03157,0,0,0-3.16262.22934c-1.53274.18648-1.65531-.60562-1.53833-1.45239s.80952-1.66153,2.48534-2.044c6.46576-1.4758,11.424-2.115,15.97336-3.15337,1.91536-.43718,29.47562-6.89194,31.15245-7.27468a29.54651,29.54651,0,0,0,6.199-2.0708,6.46933,6.46933,0,0,1,1.74709-.8913c.59785-.13646.74373.48695.507,1.361-.49681,1.91691-1.11249,3.86175-1.82,7.30351-.63441,3.75262-1.17538,6.82883-2.798,16.05579-.16381,1.18581-.80661,2.48014-1.52525,2.64417-.59786.13646-.98339-.43144-.916-1.7586.04125-1.9779.20506-3.16371.14984-5.283-.131-3.25039-1.16666-4.98248-6.22147-4.48382-3.90469.56289-12.59728,2.21861-15.94994,2.98385-.59887.13669-.90856.6991-1.04907,1.71622l-4.28123,30.9906c-.1404,1.01629-.06746,1.328.65118,1.164,3.23288-.7379,10.65582-2.43217,14.86929-3.55807,5.91373-1.67814,7.42015-2.5137,9.13532-5.69294.66633-1.46468,1.21568-2.08259,1.69376-2.19171.71864-.164.6979.82574.58093,1.67251-.23385,1.69272-1.84159,8.29269-2.71,13.73886-.56426,3.24489-1.76026,11.06268-1.99421,12.75622-.28068,2.03175-.70913,2.62126-1.42777,2.78529-.59887.13669-.98452-.43038-.87034-2.09658-.0028-.81943.1376-1.83572.15822-2.82467.03387-4.43643-.78963-6.87205-6.34683-6.09534-3.3048.426-11.423,2.11475-14.77562,2.88-.59887.13669-.76537.50224-.88235,1.349l-1.474,10.66979c-.67845,4.9111-1.75633,11.88105-2.45642,17.78133-1.30738,10.30342-.31738,12.37349,11.89448,9.58615,2.75379-.62855,6.96715-1.75362,10.17113-3.96169,3.22729-2.37676,4.91625-6.20591,6.80925-13.19854q.71025-2.62233,1.78822-2.86837c.8374-.19114.79336.96733.5361,2.82956-.889,6.43512-3.60363,18.53571-4.4805,21.52441-1.35305,3.91666-2.21387,4.27731-6.16539,5.17924-16.04362,3.66193-23.58913,4.56411-34.96258,7.16009-5.02847,1.14774-10.24686,2.83055-16.3533,4.22434-2.03514.46451-2.39726-.2729-2.257-1.28836.09368-.67808.57-1.60687,2.36557-2.01671a28.96191,28.96191,0,0,0,3.18325-1.21829c3.58941-1.63935,4.74416-7.47923,6.52962-17.89177.772-5.58834,2.01472-13.74434,3.13767-21.873Z"/><path class="cls-7" d="M3384.85922,434.48585c.79822-4.93844,1.50848-7.56076,3.06452-7.91593.59887-.13669,1.078-.246,3.62681,2.28829,4.35282,4.58279,18.11388,20.79517,29.111,34.35814,9.8172,12.028,14.50872,17.51769,17.08366,20.70276l6.56009-51.68494c.88351-8.07481.70394-11.80582-3.82595-11.75532a26.57551,26.57551,0,0,0-4.21616.30563c-1.413.15914-1.77508-.57828-1.68141-1.25636a2.74092,2.74092,0,0,1,2.2691-2.15805c3.95152-.90193,11.30421-2.08765,16.09313-3.18072,2.634-.60121,8.33161-2.3942,12.64144-3.37791,1.7956-.40984,2.181.15888,2.064,1.00565a2.71828,2.71828,0,0,1-2.05285,2.27208c-1.34093.47024-1.70025.55225-2.4413.88557-3.68576,1.49716-5.1867,3.97241-6.83278,13.36889-4.77151,27.82223-9.27179,57.87939-13.46238,87.37415-1.16978,8.46769-2.099,10.15574-3.655,10.51091-1.7956.40984-4.99282-2.469-12.13581-10.35113-6.20745-7.1114-13.28019-15.50207-17.516-20.93163-4.74115-5.97011-12.41555-15.04352-19.99741-24.79395l-5.4961,47.34175c-1.16419,10.10655-1.50954,14.28573,1.55852,14.73387a17.51283,17.51283,0,0,0,5.24751-.2143c1.74977-.071,2.15771.32758,2.04073,1.17435-.16381,1.1858-.95158,1.85733-2.868,2.29474-2.99232.683-6.17848,1.08268-13.69777,2.63478-2.99334.68322-11.80393,3.186-15.39512,4.00563-1.79559.40984-2.32432.0388-2.1605-1.147.117-.84677.68963-1.63338,2.14932-2.13072,1.10127-.41474,1.69912-.5512,3.04006-1.02144,4.54658-1.85782,5.97268-5.4636,8.20365-19.09393C3376.9639,488.27907,3381.66632,454.23959,3384.85922,434.48585Z"/><path class="cls-7" d="M3518.17761,464.90463c-1.544,11.1767-3.22575,24.18994-3.732,30.37353-.27508,3.67061.04859,7.20536,3.18678,7.14577a24.50672,24.50672,0,0,0,4.2174-.30752c1.86853-.09815,2.25407.46975,2.11367,1.486-.117.84677-.786,1.49119-2.70136,1.92837-7.42294,1.69428-18.60748,3.75541-20.16353,4.11058-1.55706.35539-13.12042,3.48644-16.3533,4.22434-1.7956.40984-2.46752.23566-2.3037-.95015.1637-1.185,1.19214-1.91225,2.41229-2.35492,1.10127-.41473,2.17822-.66055,3.54257-1.3003,2.488-1.22379,3.60432-4.26634,4.54752-8.582,1.34478-6.37578,2.77182-16.7057,4.76044-31.10079l7.79069-56.39452c-4.07028.929-10.99082,2.34527-16.329,4.05542-5.937,1.84684-8.253,4.34394-10.38933,10.572-.37983,1.07014-.78319,2.31063-1.2819,3.4087-.37994,1.071-.903,2.338-1.62161,2.502-.83841.19137-.89084-1.10846-.53711-2.82934,1.58141-7.24905,3.59241-15.08869,5.36665-22.05421.54274-2.25654,1.282-3.40952,1.88088-3.54621s1.3426.35025,2.97271.30572c1.48579.1534,7.97777-.67249,12.048-1.60153l47.89028-10.93089a33.20383,33.20383,0,0,0,6.55932-2.15305,34.45347,34.45347,0,0,1,3.5884-1.63911c1.19774-.27338.961.60072.37609,4.83457-.23395,1.69354-3.05809,17.0986-3.66919,20.68253-.44729,2.39813-1.13972,3.21207-1.73757,3.34853-.59887.13669-.961-.60073-.84681-2.26693.25726-1.86223.25446-2.68166.37144-3.52843.27241-4.49087-.5996-7.40794-6.11-6.97028-3.784.53615-9.43746,1.16985-18.05814,3.1375Z"/></g><g id="Ancrage"><rect class="cls-8" x="5624" y="999" width="1" height="1"/><rect class="cls-8" x="5624" width="1" height="1"/><rect class="cls-8" y="999" width="1" height="1"/><rect class="cls-8" width="1" height="1"/></g></svg>