<svg xmlns="http://www.w3.org/2000/svg" viewBox="0 0 5625 1000"><defs><style>.cls-1{fill:#0b3641;}.cls-2{fill:#166d83;}.cls-3{fill:none;}</style></defs><title>logo_rotagilla</title><g id="Texte"><path class="cls-1" d="M1219.937,582.44238a98.93268,98.93268,0,0,1,25.08008,41.58008q7.25536,21.13038,18.47949,46.86035,12.53028,27.71924,17.16016,41.58008a152.4932,152.4932,0,0,1,5.94043,33q1.314,14.52393,1.97949,19.79981v5.93945q1.31543,9.23585-4.94922,17.16015a22.782,22.782,0,0,1-16.16992,8.91016,22.27022,22.27022,0,0,1-17.49023-5.61035q-7.59522-6.605-8.25-15.83984l-.66016-5.93946q-.665-5.93994-1.98047-21.12011a83.54362,83.54362,0,0,0-3.96-21.78028q-3.30909-11.21484-15.17969-36.96-11.87988-27.7207-19.7998-51.48047a59.96228,59.96228,0,0,0-18.48047-27.05957q-6.605-5.93994-13.19922-11.21972a43.70467,43.70467,0,0,0-4.62012-3.96,275.47425,275.47425,0,0,1-37.62011,1.31934,325.13478,325.13478,0,0,1-62.7002-8.58008q4.60986,27.7207,7.91992,50.82031,5.93994,46.20558-5.28027,74.58008l-8.58008,22.44043a24.383,24.383,0,0,1-12.86914,13.19922,22.62651,22.62651,0,0,1-18.15039.33008,22.96343,22.96343,0,0,1-13.2002-12.87012,21.03257,21.03257,0,0,1,0-17.81933l8.58008-23.10059q6.59034-16.48974,2.63965-50.15918-4.62451-35.64111-13.85937-79.20019-11.231-14.51074-5.94043-29.04-7.92042-38.27052-13.85938-68.64063-7.27149-40.91456-5.61035-67.97949,1.63915-27.05566,4.95019-34.98047a82.3472,82.3472,0,0,1,5.2793-13.19922q5.2749-12.53026,20.46-21.1206,13.86036-7.91969,41.58008-7.91993,23.76123.665,67.32031,10.56006a324.37953,324.37953,0,0,1,85.79981,34.32032q42.23,24.4248,63.36035,49.5,23.09472,27.07031,25.08008,57.41992,1.314,32.34521-34.32032,71.28027Q1243.68653,570.57227,1219.937,582.44238ZM1048.3374,514.46289a298.96452,298.96452,0,0,1,34.31934-1.98047q21.78076,0,48.18066,9.90039a194.93433,194.93433,0,0,1,45.54,23.75977l.65918.66015q3.2959-.65039,5.94043-1.32031,23.09474-4.60986,46.86035-30.36035,22.4297-24.40869,21.7793-36.2998-.665-13.86036-13.85938-29.7002-15.19042-18.46875-50.82031-38.2793a282.21809,282.21809,0,0,0-73.25976-29.70019q-37.62012-8.56934-56.10059-9.24024-13.85889,0-18.47949,1.98047c-.44336.44336-.88672.88672-1.32031,1.31934q-1.33008,2.64551-2.63965,5.94043-1.33008,5.28956-2.64063,23.75976-1.33008,20.46534,5.28028,56.09961Q1042.38672,484.76318,1048.3374,514.46289Z"/><path class="cls-1" d="M1577.6499,362.002h3.29981l13.20019-1.97949a24.93261,24.93261,0,0,1,17.15918,5.28027,22.83041,22.83041,0,0,1,9.24024,15.83985,33.59545,33.59545,0,0,1-1.31934,9.24023,76.23489,76.23489,0,0,0,10.55957,6.59961,216.22858,216.22858,0,0,1,23.75977,14.84961q12.53026,8.91065,34.32031,28.71,25.0752,23.11085,33.66016,48.18067a393.2009,393.2009,0,0,1,12.54,43.55957,200.58916,200.58916,0,0,1,4.62012,48.83984,176.34781,176.34781,0,0,1-7.9209,52.14063,238.57449,238.57449,0,0,1-17.81933,44.21972q-11.231,21.77929-34.32032,40.25977-19.1499,15.19042-33,26.40039a165.371,165.371,0,0,1-34.97949,20.46q-19.15137,9.23438-43.56054,9.89941-24.42482.6504-59.39942-14.51953-34.99073-15.83936-60.06055-47.51953-25.08984-32.99561-27.71972-63.36035a498.13567,498.13567,0,0,1,0-51.48047q2.6294-28.36964,13.85937-58.73926,10.54982-28.36962,23.10059-57.41992a281.62206,281.62206,0,0,1,34.97949-60.7207q22.42969-30.34863,42.24024-42.89942Q1555.20507,364.64747,1577.6499,362.002Zm-3.96,49.5a44.49811,44.49811,0,0,0-13.86035,6.60059q-12.54492,7.92041-29.7002,31.01953a239.23041,239.23041,0,0,0-29.70019,50.82031q-11.87988,28.38574-21.7793,55.44043-9.25049,24.42482-11.2207,45.54a378.59152,378.59152,0,0,0,0,44.87988q1.31542,15.83935,17.82031,37.62012,17.81982,22.44434,41.58008,33,25.0752,11.22949,38.93945,10.55957a66.88925,66.88925,0,0,0,25.74024-5.94043,102.917,102.917,0,0,0,25.08008-14.51953q13.86035-10.5498,32.33984-25.74023,15.17578-11.8799,21.78027-25.08008a180.08429,180.08429,0,0,0,14.52051-36.96,126.44659,126.44659,0,0,0,5.93945-37.62012,148.88966,148.88966,0,0,0-3.96-38.93945q-4.62452-20.45069-10.55957-38.28028-4.626-13.1953-20.46-28.37988-19.80029-17.81982-30.03027-25.08008a185.128,185.128,0,0,0-18.81055-11.87988q-11.87988-5.93994-17.81933-11.21973a68.80653,68.80653,0,0,1-13.2002-12.54A20.84868,20.84868,0,0,1,1573.68994,411.502Z"/><path class="cls-1" d="M2029.08936,773.5127a23.65812,23.65812,0,0,1-16.83008,6.92968,22.52507,22.52507,0,0,1-16.5-6.92968,22.91444,22.91444,0,0,1-6.93067-16.83008v-9.90039q0-8.56934-4.61914-41.58008-5.291-34.97461-9.90039-77.21973-4.62451-44.209,0-94.37988,3.95948-47.51954,6.92969-85.79981,2.9707-38.2705,4.29-58.08007v-7.91993q-28.38427,1.979-50.16016,3.96-25.08984,2.644-35.63965,5.27929l-11.87988,2.64063a23.4891,23.4891,0,0,1-17.82031-3.29981,21.93954,21.93954,0,0,1-10.55957-14.52051,23.50088,23.50088,0,0,1,3.2998-17.82031,21.97224,21.97224,0,0,1,14.52051-10.55957l11.87988-2.64013q13.85889-3.29443,41.58008-5.94,27.05419-3.29443,64.01953-4.62011,34.97462-1.97975,56.09961-4.61963,21.78077-3.29517,37.62012-5.93994,15.84083-2.63013,31.68066-4.62012,16.48976-2.63013,26.39942-2.64014l7.91992-.66015a22.91242,22.91242,0,0,1,16.83008,6.93017,23.798,23.798,0,0,1,7.25976,16.5,23.657,23.657,0,0,1-23.42968,24.08985l-7.91993.66015a160.83259,160.83259,0,0,0-20.46,1.98047q-15.19043,1.979-31.01953,4.61914-15.84083,2.64551-38.28027,5.94043-10.56592,1.33008-23.75977,2.63965l-.66015,13.20019q-1.33008,20.46534-3.96,59.4004-3.31056,38.28515-7.26075,86.46a451.16422,451.16422,0,0,0,0,84.47949q3.96094,41.58105,9.24024,75.90039,5.2749,36.30468,5.28027,48.17969v9.90039A22.41405,22.41405,0,0,1,2029.08936,773.5127Z"/><path class="cls-1" d="M2327.07861,755.69238a22.09071,22.09071,0,0,1-17.82031-2.96972,22.47271,22.47271,0,0,1-10.22949-15.18067,22.80068,22.80068,0,0,1,3.2998-17.81933l7.91993-13.2002q7.9204-11.87988,21.78027-38.28027,13.19531-24.40869,18.47949-54.7793,5.93994-34.97607,19.80078-91.74023,13.85889-56.75538,20.46-82.5,7.25391-28.36964,17.15918-45.54a47.70232,47.70232,0,0,1,19.80078-19.79981q13.19385-7.25536,28.37989-.66015a41.88929,41.88929,0,0,1,15.83984,11.87988,65.84547,65.84547,0,0,1,9.57031,14.51953,186.90908,186.90908,0,0,1,6.92969,19.14063q9.89941,27.07031,19.13965,52.13964,9.90087,26.40528,26.40039,85.79981,15.83936,55.43994,27.71973,77.2207,13.1953,23.75977,30.36035,57.41992,16.48974,31.0298,25.74023,44.87989,11.87988,15.83935,15.83985,23.09961l2.63964,5.28027a22.76475,22.76475,0,0,1,.66016,17.82031,23.38766,23.38766,0,0,1-11.87988,13.5293,22.83439,22.83439,0,0,1-17.82031,1.32031,23.29033,23.29033,0,0,1-13.86036-11.5498l-2.63964-5.28028q-1.98048-3.95947-11.21973-16.5-11.87988-16.48974-29.7002-50.82031-11.87988-23.09472-21.78027-41.58008a18.376,18.376,0,0,1-8.58008-.65918l-15.17969-3.30078q-14.52539-2.62939-36.2998-5.2793-22.44581-3.29589-45.21-4.62011-22.76953-1.31544-32.66992-1.32032h-1.32032a210.42879,210.42879,0,0,1-14.51953,33.66016q-15.19043,28.38574-23.76074,42.24024l-8.58008,13.20019A23.95192,23.95192,0,0,1,2327.07861,755.69238Zm72.27051-146.84961q10.54835.665,26.39942,1.31934,24.41014,1.98047,48.17968,4.62012,17.1548,1.98046,29.7002,4.62011-6.605-20.44921-15.17969-50.16015-15.84083-56.75391-25.08008-81.83985-9.89941-25.74023-19.7998-53.46a11.25479,11.25479,0,0,0-.66016-2.63965,151.54838,151.54838,0,0,0-5.94043,19.79981q-6.605,25.74024-20.46,81.83984Q2405.27881,578.48291,2399.34912,608.84277Z"/><path class="cls-1" d="M3068.91211,474.8623a23.05222,23.05222,0,0,1-13.20117,12.54,23.63617,23.63617,0,0,1-18.15039-.66015,21.8147,21.8147,0,0,1-12.53907-13.2002l-5.27929-13.85937q-3.96094-9.90089-24.41992-34.98047-19.80177-24.40869-36.63086-32.33985a86.503,86.503,0,0,0-37.291-7.91992q-20.46387.665-42.23828,9.90039-23.1123,10.56446-38.94141,24.41993a67.8265,67.8265,0,0,0-18.47851,29.70019,266.43886,266.43886,0,0,0-9.24073,48.83984q-2.6455,28.38429-4.62011,54.12012-1.98047,24.4248-1.98047,54.7793,0,29.6997,2.64062,47.52051a162.52984,162.52984,0,0,0,9.23975,35.63964q4.6084,13.86036,17.16016,24.41993a70.96353,70.96353,0,0,0,29.03906,15.18066,110.09307,110.09307,0,0,0,35.64062,4.61914,112.80009,112.80009,0,0,0,33-4.61914q13.86036-4.60986,28.38086-15.18066a68.15658,68.15658,0,0,0,21.7793-23.09961,146.33871,146.33871,0,0,0,15.17969-29.7002,122.37424,122.37424,0,0,0,7.91992-27.05957q1.98046-9.90087,1.32031-14.52051-.665-2.6294-3.959-5.93945-5.94141-6.59033-22.44141-17.16016a178.08427,178.08427,0,0,0-31.67969-15.83984,253.9158,253.9158,0,0,0-26.40039-8.58008,156.62705,156.62705,0,0,1-21.77929-7.26074l-8.58008-2.63965A24.41548,24.41548,0,0,1,2877.8418,531.292a23.18911,23.18911,0,0,1,12.209-13.19922,22.72572,22.72572,0,0,1,18.15039-.99023l8.58008,3.2998q7.919,2.64552,18.48047,5.94043,12.53026,3.30909,30.35937,9.23926a269.207,269.207,0,0,1,40.25977,20.46q23.09472,13.86036,33.66016,26.40039,13.1953,15.19044,14.51953,29.7002,1.98047,11.2295-1.31836,29.70019a180.35716,180.35716,0,0,1-9.90039,36.29981,263.99661,263.99661,0,0,1-19.80078,38.28027,128.0647,128.0647,0,0,1-34.32032,36.29981,146.46,146.46,0,0,1-42.24023,21.12011,167.69933,167.69933,0,0,1-45.53906,7.25977,175.63633,175.63633,0,0,1-49.5-5.94043,130.49892,130.49892,0,0,1-47.52-25.08008,102.18844,102.18844,0,0,1-31.02051-44.87988,224.54,224.54,0,0,1-11.21973-44.21973q-3.31054-21.7793-3.2998-54.78027,0-31.68018,1.98047-58.73926,1.979-25.74024,4.61914-54.78027a315.98255,315.98255,0,0,1,11.2207-57.41992,113.04345,113.04345,0,0,1,32.33984-51.48047q21.11353-19.13526,50.81983-32.33985,31.01367-13.86034,62.03906-14.52a134.36651,134.36651,0,0,1,57.75,12.54q26.73047,12.54566,53.13086,44.88037,25.0752,31.0298,31.67969,48.83985l5.28125,13.85937Q3073.2002,465.62745,3068.91211,474.8623Z"/><path class="cls-1" d="M3200.91016,329.6626a23.17427,23.17427,0,0,1,33.33007,2.31006q6.58887,7.59447,5.93946,16.82959l-1.32031,26.3999a399.031,399.031,0,0,0,1.32031,55.44043q2.63085,32.34521,5.9414,66.66015,3.293,36.30469,3.959,73.91993,0,36.30468.66015,66.66015.6504,31.0298,1.32032,46.85938,0,9.90087.66015,16.5L3258,706.52246a22.49342,22.49342,0,0,1,7.58984,16.5,23.47284,23.47284,0,0,1-6.26953,17.16016,22.42029,22.42029,0,0,1-16.5,7.58984,23.38415,23.38415,0,0,1-17.16015-6.27051l-6.59961-6.59961q-13.86036-13.19531-13.86133-28.37988,0-4.60986-.6582-20.46-.665-15.84082-1.32032-46.86035-.665-31.01514-.66015-67.97949-.665-35.63966-3.96094-69.29981-3.31055-34.97607-5.93945-67.32031a371.81318,371.81318,0,0,1-1.32032-62.04l1.32032-26.3999A23.10441,23.10441,0,0,1,3200.91016,329.6626Z"/><path class="cls-1" d="M3539.81836,708.502q33.65917,1.98048,60.06055,1.32032,25.07519,0,38.93945,2.64062a81.54908,81.54908,0,0,1,31.67969,11.87988q11.87988,7.91895,30.36133,27.71973l15.83984,17.16016a23.46986,23.46986,0,0,1,6.26953,17.16015,22.49509,22.49509,0,0,1-7.58984,16.5,23.48905,23.48905,0,0,1-17.16016,6.26953,22.47175,22.47175,0,0,1-16.5-7.58984l-15.83984-17.82031q-13.86036-15.19044-21.1211-19.79981a42.46141,42.46141,0,0,0-13.19922-4.62011q-10.56444-1.98048-31.67968-1.9795-27.72071.665-64.01953-1.98047-43.56153-1.98046-64.02149-1.97949h-38.2793q-8.584,0-12.541-.33008-3.958-.32518-12.209-3.62988a41.58147,41.58147,0,0,1-14.18945-9.24023q-8.58691-12.53028-9.24023-32.33985,0-14.51073,1.98047-53.46,1.97753-37.62012,4.61914-93.06054,3.29589-55.44,5.27929-90.41993a578.08,578.08,0,0,0,.66016-61.0498q-1.33008-26.73046-3.29883-35.96973l-1.32031-10.56054q-1.98047-9.23437,3.959-17.48975a22.28359,22.28359,0,0,1,15.50977-9.57031,23.70828,23.70828,0,0,1,17.49023,4.29,24.05958,24.05958,0,0,1,9.90039,15.51025l1.32032,9.90039q1.98047,11.87988,3.63086,41.25a613.34654,613.34654,0,0,1-.33008,66.3291q-1.98048,35.64111-5.28125,90.4209-2.64551,55.43994-4.61914,93.05957-1.98048,34.99072-1.98047,48.83984h38.93945Q3493.62013,705.8623,3539.81836,708.502Z"/><path class="cls-1" d="M3997.19336,708.502q33.65917,1.98048,60.06055,1.32032,25.07519,0,38.93945,2.64062a81.54908,81.54908,0,0,1,31.67969,11.87988q11.87988,7.91895,30.36133,27.71973l15.83984,17.16016a23.46986,23.46986,0,0,1,6.26953,17.16015,22.49509,22.49509,0,0,1-7.58984,16.5,23.48905,23.48905,0,0,1-17.16016,6.26953,22.47175,22.47175,0,0,1-16.5-7.58984l-15.83984-17.82031q-13.86036-15.19044-21.1211-19.79981a42.46141,42.46141,0,0,0-13.19922-4.62011q-10.56444-1.98048-31.67968-1.9795-27.72071.665-64.01953-1.98047-43.56153-1.98046-64.02149-1.97949h-38.2793q-8.584,0-12.541-.33008-3.958-.32518-12.209-3.62988a41.58147,41.58147,0,0,1-14.18945-9.24023q-8.58691-12.53028-9.24023-32.33985,0-14.51073,1.98047-53.46,1.97753-37.62012,4.61914-93.06054,3.29589-55.44,5.27929-90.41993a578.08,578.08,0,0,0,.66016-61.0498q-1.33008-26.73046-3.29883-35.96973l-1.32031-10.56054q-1.98047-9.23437,3.959-17.48975a22.28359,22.28359,0,0,1,15.50977-9.57031,23.70828,23.70828,0,0,1,17.49023,4.29,24.05958,24.05958,0,0,1,9.90039,15.51025l1.32032,9.90039q1.98047,11.87988,3.63086,41.25a613.34654,613.34654,0,0,1-.33008,66.3291q-1.98048,35.64111-5.28125,90.4209-2.64551,55.43994-4.61914,93.05957-1.98048,34.99072-1.98047,48.83984h38.93945Q3950.99513,705.8623,3997.19336,708.502Z"/><path class="cls-1" d="M4328.83789,755.69238a22.092,22.092,0,0,1-17.82031-2.96972,22.47471,22.47471,0,0,1-10.22852-15.18067,22.80432,22.80432,0,0,1,3.29883-17.81933l7.91992-13.2002q7.92188-11.87988,21.78125-38.28027,13.19532-24.40869,18.47852-54.7793,5.94141-34.97607,19.80078-91.74023,13.86034-56.75538,20.46094-82.5,7.25389-28.36964,17.1582-45.54a47.71355,47.71355,0,0,1,19.80078-19.79981q13.19532-7.25536,28.38086-.66015a41.89676,41.89676,0,0,1,15.83984,11.87988,65.84556,65.84556,0,0,1,9.57032,14.51953,187.38439,187.38439,0,0,1,6.92968,19.14063q9.89941,27.07031,19.13868,52.13964,9.90234,26.40528,26.40039,85.79981,15.84081,55.43994,27.7207,77.2207,13.19532,23.75977,30.35938,57.41992,16.49121,31.0298,25.74023,44.87989,11.87988,15.83935,15.83984,23.09961l2.64063,5.28027a22.77316,22.77316,0,0,1,.66015,17.82031,23.38924,23.38924,0,0,1-11.88085,13.5293,22.8341,22.8341,0,0,1-17.82032,1.32031,23.28845,23.28845,0,0,1-13.85937-11.5498l-2.64063-5.28028q-1.98046-3.95947-11.21875-16.5-11.87988-16.48974-29.70117-50.82031-11.87988-23.09472-21.7793-41.58008a18.37493,18.37493,0,0,1-8.58007-.65918l-15.17969-3.30078q-14.5254-2.62939-36.30078-5.2793-22.44434-3.29589-45.209-4.62011-22.76952-1.31544-32.66992-1.32032h-1.32031a210.51724,210.51724,0,0,1-14.51953,33.66016q-15.19044,28.38574-23.76172,42.24024l-8.58008,13.20019A23.94931,23.94931,0,0,1,4328.83789,755.69238Zm72.27149-146.84961q10.54688.665,26.39843,1.31934,24.41016,1.98047,48.17969,4.62012,17.15625,1.98046,29.70117,4.62011-6.60644-20.44921-15.17969-50.16015-15.84081-56.75391-25.08007-81.83985-9.89942-25.74023-19.80078-53.46a11.20324,11.20324,0,0,0-.66016-2.63965,151.554,151.554,0,0,0-5.93945,19.79981q-6.60645,25.74024-20.46094,81.83984Q4407.03809,578.48291,4401.10938,608.84277Z"/></g><g id="soulignage"><path class="cls-1" d="M929.77356,164.97926c284.406-9.79455,569.05157-9.55,853.51259-2.20791,260.52684,6.72432,520.84255,19.3649,781.0697,33.29219,239.66814,12.827,479.302,26.7984,719.15525,35.77874,218.71613,8.18894,437.76479,12.24781,656.56421,4.82993,204.96582-6.94888,409.88533-24.20627,612.09291-59.09733q35.92884-6.19955,71.71813-13.16428c20.82706-4.04116,12.00953-35.85367-8.7727-31.8212-198.85116,38.58395-400.73478,58.86605-602.964,68.20337-217.62737,10.04827-435.6647,7.758-653.34579.68643-235.62886-7.65463-471.0347-20.92939-706.42927-33.6731-257.5641-13.94392-515.17549-27.30992-773.00509-35.30244-280.21488-8.68645-560.65583-11.07075-840.932-3.81582q-54.33911,1.40657-108.66394,3.29142c-21.1773.72932-21.27549,33.7327,0,33Z"/></g><g id="alligator_img"><path class="cls-2" d="M801.52012,256.28547,688.74852,426.11212A52.69264,52.69264,0,0,1,641.032,449.49794,120.778,120.778,0,0,1,593.788,530.58449L570.63837,547.986a31.51037,31.51037,0,0,0-10.85041,35.496l8.0315,23.18109a94.72194,94.72194,0,0,0,13.37,25.3228l25.70078,34.69289a47.22984,47.22984,0,0,0,22.9606,16.67714l35.25984,11.82678c16.92912,5.6693,12.85039,30.67717-4.99215,30.67717H592.52806A47.26394,47.26394,0,0,1,554.79581,707.041L499.347,633.46629a65.94743,65.94743,0,0,1-11.25982-23.44883l-60.39367,45.38581a503.95722,503.95722,0,0,1-73.77949,46.03148h-.01574a67.63261,67.63261,0,0,1-9.622,17.37006L307.0952,767.419l180.53531,21.71653A316.8606,316.8606,0,0,1,621.53593,837.4504l38.67714,24.92909c10.53543,6.80316,3.35433,23.11809-8.78738,19.937l-49.38577-13.00788a254.759,254.759,0,0,0-110.80305-3.937,1146.88269,1146.88269,0,0,1-207.2282,18.88186H187.56778A181.01662,181.01662,0,0,1,70.82771,841.59209a98.92368,98.92368,0,0,1-35.07084-75.65351v-50.6614A101.76834,101.76834,0,0,1,85.5836,627.74965l22.063-13.0866,34.70864-38.53541a346.52725,346.52725,0,0,1,144.15738-95.496L420.08733,434.4427a195.57045,195.57045,0,0,0,74.92911-47.13382l26.53542-26.80314a54.22882,54.22882,0,0,1,13.0866-38.99209l34.47239-39.88974a15.73887,15.73887,0,0,1,22.20472-1.622L646.70138,183.876a47.05348,47.05348,0,0,0,4.78741-33.60628c-3.48029-16.189,8-33.77951,26.83465-34.48816a39.5343,39.5343,0,0,1,32.6299,15.16534,20.26568,20.26568,0,0,1,2.91339,19.496l-65.622,178.75579,131.25977-94.15741c14.04725-10.07874,31.59052,6.85038,22.01575,21.24407Z"/><path class="cls-1" d="M490.01953,773.68668a15.748,15.748,0,1,1-15.748,15.748A15.74769,15.74769,0,0,1,490.01953,773.68668ZM814.64609,264.99725,701.86194,434.8239a68.54059,68.54059,0,0,1-47.59364,29.91336A137.50671,137.50671,0,0,1,603.251,543.17973l-23.159,17.40155a15.70013,15.70013,0,0,0-5.4189,17.74487l8.02991,23.17951a78.62243,78.62243,0,0,0,11.137,21.10392l25.71337,34.70236A31.34506,31.34506,0,0,0,634.851,668.42533l35.27085,11.82048a31.49651,31.49651,0,0,1-10.00789,61.36057H592.525a63.30544,63.30544,0,0,1-50.30389-25.08029s-57.4661-74.89287-60.86768-81.76845c-31.67083,23.03148-58.66767,48.39839-115.12748,78.00153a83.74358,83.74358,0,0,1-9.43622,15.6047l-20.43148,26.71969,85.181,10.24092c20.77321,2.49922,17.011,33.77635-3.76377,31.2756l-81.73381-9.83464L113.47019,770.20008a105.529,105.529,0,0,1-61.96531-25.79526v21.51651a82.99353,82.99353,0,0,0,29.4803,63.63776A165.5092,165.5092,0,0,0,187.56778,868.504h96.44089a1134.94654,1134.94654,0,0,0,204.39358-18.61417c16.39369-3.02364,62.874-10.44254,117.63773,4.189l20.67716,5.4488s-37.39208-26.53226-73.4015-38.56689C545.081,818.208,540.95343,808.915,543.92983,800.756a16.08643,16.08643,0,0,1,20.20469-9.37009c43.378,14.38107,79.1165,42.04248,104.59833,57.76531,24.26453,14.97163,10.30551,55.67715-21.30549,48.3921l-49.40153-13.00788c-47.35743-12.7795-89.38578-6.34645-103.93694-3.66927A1165.98663,1165.98663,0,0,1,284.01031,900H187.56942c-46.37634,0-91.14955-16.81258-126.89756-46.36218a114.44258,114.44258,0,0,1-40.65981-87.71649V715.27727A117.91463,117.91463,0,0,1,77.53957,614.2049l19.99841-11.874,33.11809-36.74011c34.59211-39.63145,89.45663-78.94955,150.70856-99.84088L414.95509,419.5452a180.51386,180.51386,0,0,0,68.86611-43.32438l21.93857-22.14645A69.47162,69.47162,0,0,1,522.722,311.21614l34.46926-39.88974a31.52213,31.52213,0,0,1,27.1291-10.71968l48.7338-84.59207c3.7008-6.422,4.48032-14.32754,3.05041-22.42361-5.526-31.28816,17.33383-52.62358,41.63306-53.55114a55.352,55.352,0,0,1,45.62673,21.2,36.28985,36.28985,0,0,1,5.29766,34.63147L680.68093,286.55l89.64876-64.30547a31.30041,31.30041,0,0,1,44.31649,42.75273ZM787.8225,248.45711,657.42415,341.99406a15.74866,15.74866,0,0,1-23.96378-18.22362L699.09023,145.0178a4.58757,4.58757,0,0,0-.5449-4.3811,23.714,23.714,0,0,0-19.63461-9.12125,12.94638,12.94638,0,0,0-12.022,15.43621,62.2158,62.2158,0,0,1-6.54648,44.78579l-55.37951,96.12907c-6.67244,10.485-17.87243,9.11338-23.94172,4.05354l-34.47086,39.88815a38.23841,38.23841,0,0,0-9.27873,27.663,15.69409,15.69409,0,0,1-4.53856,12.10235l.01418.01889-26.55114,26.78738a212.17143,212.17143,0,0,1-80.96058,50.94485l-133.5889,46.189a331.54133,331.54133,0,0,0-137.59047,91.16688L119.33,625.20011a15.15,15.15,0,0,1-3.652,2.99053L93.615,641.293a86.2461,86.2461,0,0,0-34.94171,39.75116C46.804,711.052,86.44178,737.01106,115.80711,738.79059l67.81885,5.04722a58.91378,58.91378,0,0,1-15.20786-39.50548c-.01732-7.77952,1.19685-25.97164,18.0929-42.45665,6.39843-6.2425,16.12282-5.663,22.26927.43936a15.68662,15.68662,0,0,1-.44094,22.26926c-11.20629,10.93384-12.00314,31.06457,2.99213,42.04723A102.22126,102.22126,0,0,0,230.67,737.73863L250.374,711.97172A15.74793,15.74793,0,0,1,275.39284,731.104L263.733,746.35126l36.31178,4.36536,31.7244-41.485A51.96491,51.96491,0,0,0,271.15977,629.408a15.74859,15.74859,0,0,1-11.74959-29.22362,83.84647,83.84647,0,0,1,87.41095,15.8441c15.178,13.88659,25.76062,34.64093,26.96693,56.48343,27.15745-15.39527,88.5905-62.674,97.06765-69.22516a82.0359,82.0359,0,0,1-.24727-17.02361l2.34962-25.90234a15.74779,15.74779,0,1,1,31.3669,2.84409l-2.34961,25.90234a50.30389,50.30389,0,0,0,9.94329,34.88344l55.45507,73.57635a31.65237,31.65237,0,0,0,25.15118,12.54016h67.58894v-.00158L624.843,698.28515A62.69528,62.69528,0,0,1,594.24617,676.06l-25.71179-34.70077a110.08274,110.08274,0,0,1-15.59211-29.548l-8.02992-23.17792a47.1069,47.1069,0,0,1,16.25985-53.23463l23.159-17.40154a105.7002,105.7002,0,0,0,41.09288-70.51964,15.7511,15.7511,0,0,1,16.76221-13.68189,36.99474,36.99474,0,0,0,33.4409-16.3984Z"/><g id="Droite"><path class="cls-2" d="M4823.47973,256.28535c-9.57477-14.39369,7.9685-31.32281,22.01575-21.24407l131.25977,94.15741-65.622-178.75579a20.26568,20.26568,0,0,1,2.91339-19.496,39.5343,39.5343,0,0,1,32.6299-15.16534c18.83467.70865,30.31494,18.2992,26.83465,34.48816a47.05348,47.05348,0,0,0,4.78741,33.60628l55.38581,96.12592a15.73887,15.73887,0,0,1,22.20472,1.622l34.47239,39.88974a54.22882,54.22882,0,0,1,13.0866,38.99209l26.53542,26.80314a195.57045,195.57045,0,0,0,74.92911,47.13382l133.57473,46.18894a346.52725,346.52725,0,0,1,144.15738,95.496l34.70864,38.53541,22.063,13.0866a101.76834,101.76834,0,0,1,49.82673,87.52753v50.6614a98.92368,98.92368,0,0,1-35.07084,75.65351,181.01662,181.01662,0,0,1-116.74007,42.66138h-96.44089a1146.88269,1146.88269,0,0,1-207.2282-18.88186,254.759,254.759,0,0,0-110.80305,3.937l-49.38577,13.00788c-12.14171,3.18109-19.32281-13.13384-8.78738-19.937l38.67714-24.92909a316.8606,316.8606,0,0,1,133.90542-48.31492L5317.9048,767.419l-37.18108-48.61414a67.63261,67.63261,0,0,1-9.622-17.37006h-.01574a503.95722,503.95722,0,0,1-73.77949-46.03148l-60.39367-45.38581a65.94743,65.94743,0,0,1-11.25982,23.44883L5070.20419,707.041A47.26394,47.26394,0,0,1,5032.47194,725.86h-67.59052c-17.84254,0-21.92127-25.00787-4.99215-30.67717l35.25984-11.82678a47.22984,47.22984,0,0,0,22.9606-16.67714l25.70078-34.69289a94.72194,94.72194,0,0,0,13.37005-25.3228l8.0315-23.18109a31.51037,31.51037,0,0,0-10.85041-35.496L5031.212,530.58449a120.778,120.778,0,0,1-47.24406-81.08655,52.69264,52.69264,0,0,1-47.71648-23.38582l-112.7716-169.82665Z"/><path class="cls-1" d="M5150.72849,789.4347a15.748,15.748,0,1,1-15.748-15.748A15.7477,15.7477,0,0,1,5150.72849,789.4347ZM4810.35382,264.99727a31.30041,31.30041,0,0,1,44.31649-42.75273L4944.31907,286.55l-47.981-130.67866a36.28985,36.28985,0,0,1,5.29766-34.63147,55.352,55.352,0,0,1,45.62673-21.2c24.29923.92756,47.159,22.263,41.63306,53.55114-1.42991,8.09607-.65039,16.00157,3.05041,22.42361l48.7338,84.59207a31.52213,31.52213,0,0,1,27.1291,10.71968l34.46926,39.88974a69.47162,69.47162,0,0,1,16.96219,42.85823l21.93857,22.14645a180.51386,180.51386,0,0,0,68.86611,43.32438l133.59046,46.20469c61.25193,20.89133,116.11645,60.20943,150.70856,99.84088l33.11809,36.74011,19.99841,11.874A117.91463,117.91463,0,0,1,5604.988,715.27727v50.64406a114.44258,114.44258,0,0,1-40.65981,87.71649C5528.58013,883.18742,5483.80692,900,5437.43058,900h-96.44089a1165.98663,1165.98663,0,0,1-210.07858-19.13384c-14.55116-2.67718-56.57951-9.11023-103.93694,3.66927l-49.40153,13.00788c-31.611,7.285-45.57-33.42047-21.30549-48.3921,25.48183-15.72283,61.22038-43.38424,104.59833-57.76531a16.08643,16.08643,0,0,1,20.20469,9.37009c2.9764,8.159-1.15116,17.452-9.38581,20.20469-36.00942,12.03463-73.4015,38.56689-73.4015,38.56689l20.67716-5.4488c54.76378-14.63152,101.244-7.21262,117.63773-4.189A1134.94654,1134.94654,0,0,0,5340.99133,868.504h96.44089a165.5092,165.5092,0,0,0,106.5826-38.94487,82.99353,82.99353,0,0,0,29.4803-63.63776V744.40482a105.529,105.529,0,0,1-61.96531,25.79526l-222.57149,16.56536-81.73381,9.83464c-20.77477,2.50075-24.537-28.77638-3.76377-31.2756l85.181-10.24092-20.43148-26.71969a83.74358,83.74358,0,0,1-9.43622-15.6047c-56.45981-29.60314-83.45665-54.97005-115.12748-78.00153-3.40158,6.87558-60.86768,81.76845-60.86768,81.76845a63.30544,63.30544,0,0,1-50.30389,25.08029h-67.58894a31.49651,31.49651,0,0,1-10.00789-61.36057l35.27085-11.82048a31.34506,31.34506,0,0,0,15.29761-11.11339L5031.16,622.60958a78.62243,78.62243,0,0,0,11.137-21.10392l8.02991-23.17951a15.70013,15.70013,0,0,0-5.4189-17.74487l-23.159-17.40155a137.50671,137.50671,0,0,1-51.01729-78.44247,68.54059,68.54059,0,0,1-47.59364-29.91336L4810.35391,264.99725Zm139.019,152.39988a36.99474,36.99474,0,0,0,33.4409,16.3984,15.7511,15.7511,0,0,1,16.76221,13.68189,105.7002,105.7002,0,0,0,41.09288,70.51964l23.159,17.40154a47.1069,47.1069,0,0,1,16.25985,53.23463l-8.02992,23.17792a110.08274,110.08274,0,0,1-15.59211,29.548L5030.75383,676.06a62.69528,62.69528,0,0,1-30.59681,22.2252l-35.27085,11.82048v.00158h67.58894a31.65237,31.65237,0,0,0,25.15118-12.54016l55.45507-73.57635a50.30389,50.30389,0,0,0,9.94329-34.88344l-2.34961-25.90234a15.74779,15.74779,0,1,1,31.3669-2.84409l2.34962,25.90234a82.0359,82.0359,0,0,1-.24727,17.02361c8.47715,6.55118,69.9102,53.82989,97.06765,69.22516,1.20631-21.8425,11.789-42.59684,26.96693-56.48343a83.84647,83.84647,0,0,1,87.411-15.8441,15.74859,15.74859,0,0,1-11.74959,29.22362,51.96491,51.96491,0,0,0-60.60941,79.82359l31.7244,41.485,36.31178-4.36536L5349.60716,731.104a15.74793,15.74793,0,0,1,25.01889-19.13229L5394.33,737.73863a102.22126,102.22126,0,0,0,19.33858-11.1071c14.99527-10.98266,14.19842-31.11339,2.99213-42.04723a15.68662,15.68662,0,0,1-.44094-22.26926c6.14645-6.10236,15.87084-6.68186,22.26927-.43936,16.89605,16.485,18.11022,34.67713,18.0929,42.45665a58.91378,58.91378,0,0,1-15.20786,39.50548l67.81885-5.04722c29.36533-1.77953,69.0031-27.73858,57.13382-57.74642A86.2461,86.2461,0,0,0,5531.385,641.293l-22.063-13.10237a15.15,15.15,0,0,1-3.652-2.99053l-34.726-38.51964a331.54133,331.54133,0,0,0-137.59047-91.16688l-133.5889-46.189a212.17143,212.17143,0,0,1-80.96058-50.94485L5092.253,371.59241l.01418-.01889a15.69409,15.69409,0,0,1-4.53856-12.10235,38.23841,38.23841,0,0,0-9.27873-27.663L5043.979,291.92006c-6.06929,5.05984-17.26928,6.43149-23.94172-4.05354l-55.37951-96.12907a62.2158,62.2158,0,0,1-6.54648-44.78579,12.94638,12.94638,0,0,0-12.022-15.43621,23.714,23.714,0,0,0-19.63461,9.12125,4.5876,4.5876,0,0,0-.5449,4.3811l65.62986,178.75264a15.74866,15.74866,0,0,1-23.96378,18.22362L4837.1775,248.45711Z"/></g></g><g id="Ancrage"><rect class="cls-3" x="5624" y="999" width="1" height="1"/><rect class="cls-3" x="5624" width="1" height="1"/><rect class="cls-3" y="999" width="1" height="1"/><rect class="cls-3" width="1" height="1"/></g></svg>