<svg xmlns="http://www.w3.org/2000/svg" viewBox="0 0 5625 1000"><defs><style>.cls-1{fill:#004875;}.cls-2{fill:#004876;}.cls-3{fill:#009fe3;}.cls-4{fill:none;}</style></defs><title>logo_info_polytech_angers</title><g id="Texte"><path class="cls-1" d="M406.269,305.3877V758.21582H339.65039V305.3877Z"/><path class="cls-1" d="M937.25146,305.3877V758.21582H826.5376L674.584,480.87939q-10.15648-18.57495-43.46093-86.9165l-14.27539-29.19336h-1.90332l.63427,23.55371q.95215,32.84253.95166,70.99317V758.21582h-65.667V305.3877h110.397L796.0835,554.52637q17.44262,32.51514,56.46728,108.47949L870.9502,699.166h1.90332l-.63428-23.22266q-.95216-32.8418-.95166-69.665V305.3877Z"/><path class="cls-1" d="M1148.147,364.10645v139h201.75928v58.05468H1148.147V758.21582h-66.61865V305.3877h276.626v58.71875Z"/><path class="cls-1" d="M1643.59961,301.0752q44.08961,0,68.99756,3.31738,24.90015,3.32007,43.30224,11.61084,55.19825,24.8811,66.936,105.82568,3.48706,24.8811,3.48926,100.18653,0,90.8994-3.80664,118.43164-5.71,42.46875-19.98584,66.68066-14.2749,24.21972-41.55713,37.81836-27.59913,13.60693-70.1084,16.25488-24.11207,1.32276-56.78418,1.32715-50.4397,0-76.77-3.98047-26.33569-3.98145-46.31592-14.59668-38.06763-20.231-51.709-65.35351-9.20435-31.17921-10.46826-73.31543-.6394-27.19629-.63477-70.99219,0-83.59937,3.80664-110.47022,5.7107-42.46068,21.25488-67.8413,15.53907-25.37842,44.41211-38.9795,25.05688-11.60887,64.39844-14.26513Q1607.43212,301.07788,1643.59961,301.0752Zm115.47217,292.92871V467.27783q0-63.69434-20.62012-86.25293-14.27564-15.92358-42.82617-18.2456-22.52856-1.99072-57.73633-1.99073-39.01977,0-56.46728,1.82471-17.45,1.82739-29.18506,6.80078-23.48,10.62085-31.40625,44.45362-5.398,21.895-5.39258,54.40576v63.69433q0,74.64258,1.26855,90.2334,2.85571,31.522,10.94483,48.10254,8.08887,16.59228,23.95068,23.55371,14.27563,6.30615,39.6543,7.96192,19.34619.99609,47.90185.99511,56.78175,0,74.23194-5.63965,16.49121-4.97607,25.53759-15.75683,9.041-10.77686,14.1167-31.68164Q1759.06641,626.18458,1759.07178,594.00391Z"/><path class="cls-1" d="M2256.11084,432.77686h-65.03271q.312-38.47926-8.56543-52.74707-8.885-14.92823-32.67481-19.57276-14.595-2.65137-45.68115-2.65381-41.56275,0-59.481,2.4878-17.926,2.488-29.02685,9.78662-20.30495,13.27221-20.30274,57.05957,0,29.53052,7.93067,44.78515,9.19774,18.583,43.46093,22.5586,10.14845,1.32934,64.398,4.3125,58.05322,2.98608,80.25977,7.63037,46.31324,9.95214,63.1289,45.44824,11.10058,23.2251,11.103,72.9834,0,40.478-5.71,64.68945-5.71,24.21973-18.7168,38.48242-24.11205,26.54443-69.47363,31.1836-32.04565,3.312-78.67334,3.31738-74.55249,0-101.51416-8.625-54.88623-17.91357-62.49463-87.58008-1.59154-14.92823-2.2207-49.76172h65.03223V626.8457q0,29.85645,5.07568,45.44922,5.07129,15.59619,16.81348,23.22168,11.73266,7.96143,35.21289,8.957,23.792.668,53.29492.66309,40.92261,0,58.6875-3.98047,17.76268-3.98145,27.28222-15.25977,11.41993-13.5996,11.42041-62.03613,0-25.541-6.02783-38.81347-8.88427-18.57568-40.28808-22.5586-8.56568-1.32275-65.667-4.64453-55.5183-3.312-70.10839-5.63965-49.17555-7.62744-70.4253-38.48242-18.082-26.53638-18.082-82.93555,0-77.29322,33.30908-103.17138,25.69557-19.905,67.25342-23.88575,30.134-2.65135,66.93555-2.6538,62.81176,0,89.14209,6.63476,46.63331,11.94288,61.543,51.08838,8.87767,22.89038,8.88281,63.69434Z"/></g><g id="icons"><g id="logo_polytech_angers"><g id="Polytech"><path class="cls-2" d="M3641.35332,557.51412V396.39337h90.34022c17.10177-.11556,29.661,5.52626,36.78,15.53871h0c7.17525,9.925,8.96943,22.45468,8.99906,35.79473h0c-.02963,6.7128.11556,19.15671-5.8448,30.76036h0c-5.81664,11.74885-19.12855,21.58648-40.77281,21.29757h-57.87309v57.72938Zm31.62856-85.48067,41.78472.02963c.34669,0,.6356-.02963,1.01192-.02963h0c9.05832.05778,16.08985-.11556,20.51678-1.33045h0c4.39878-1.41806,5.81664-2.4594,7.69676-6.65521h0c1.12895-2.92314,1.852-7.553,1.852-14.15048h0c.14519-13.97733-1.852-20.459-3.93505-22.28133h0c-1.62084-2.08309-6.9456-3.55873-18.34628-3.44317h-50.58081v47.86064Z"/><path class="cls-2" d="M3942.1817,395.23478c21.00718.26076,36.11327,3.24168,46.53019,12.84818h0c10.331,9.78133,13.426,24.30812,13.426,43.37741h0v52.7513c0,18.17274-3.64467,32.40935-14.12085,41.90029h0c-10.4747,9.31759-25.57931,12.55927-45.89312,12.55927h-22.1954c-20.342,0-35.448-3.24168-45.92275-12.55927h0c-10.44655-9.49094-14.12084-23.72755-14.09269-41.90029h0v-52.7513c0-19.06929,3.12611-33.59608,13.39784-43.37741h0c10.4184-9.6065,25.523-12.58742,46.6176-12.84818h22.1954m-22.1954,27.75109c-13.5134-.08721-20.45752,1.852-23.29324,4.83309h0c-3.06834,2.74831-5.18105,9.54872-5.12179,23.64141h0v52.7513c0,14.12085,2.69053,19.96712,5.9885,22.48411h0c3.24168,2.86556,10.59175,4.196,22.42653,4.196h22.108c11.89257,0,19.27227-1.33045,22.51246-4.196h0c3.29946-2.517,5.96184-8.36326,5.96184-22.48411h0v-52.7513c.08593-14.09269-2.05494-20.8931-5.12179-23.64141h0c-2.80758-2.98112-9.78133-4.9203-23.2651-4.83309h-22.1954"/><path class="cls-2" d="M4101.50827,557.51412V396.39337h31.62708V529.70505h83.88946v27.80907Z"/><path class="cls-2" d="M4337.25719,557.45634v-66.2084l-66.324-94.85457h37.53114l45.34493,64.52831,45.37309-64.52831h38.226l-68.52262,94.8842v66.17877Z"/><path class="cls-2" d="M4558.91342,557.45634V424.17281H4505.525V396.39337h138.34754v27.77944H4590.4842V557.45634Z"/><path class="cls-2" d="M4732.15934,557.51412V396.39337h118.75674v27.77944H4763.7879v37.38594H4847.184v26.79568l-83.39611-.02815v41.37877h87.12818v27.80907Z"/><path class="cls-2" d="M5002.16958,558.67123H5002.14c-16.20394,0-29.97809-4.62991-39.64238-14.03492h0c-9.69391-9.37537-14.672-23.00433-14.6142-39.06455h0V448.30591c-.25928-22.28114,8.39161-37.41537,22.80284-44.73729h0c14.23641-7.34859,32.14859-8.24642,52.34684-8.33384h15.395c17.97,0,31.1352,3.415,39.99054,12.27037h0c8.82572,8.94127,11.4881,21.61611,11.4881,36.86591h0v11.1977h-31.59893V444.94887c.05778-10.01245-1.47712-15.36536-3.73356-17.564h0c-2.0253-2.34385-7.17672-4.45657-18.78038-4.399h-10.53248c-14.32382-.02963-24.88593.63708-31.83005,2.51739h0c-7.00339,1.99716-9.69392,4.283-11.74885,8.59439h0c-1.33194,2.92334-2.17051,7.37822-2.17051,13.62916h0v40.65725c0,12.55779.28891,22.33911,1.90975,28.7632h0c1.82381,6.51,3.79134,9.11462,8.62274,11.3429h0c3.3276,1.47565,8.39161,2.40163,15.6839,2.40163h22.1954c10.96658.02963,18.83817-.60745,23.61178-2.02531h0c4.80325-1.62084,6.07741-2.8935,7.52342-5.99h0c.8682-2.14086,1.47564-5.52773,1.41786-10.35933h0V494.14144h31.62856v20.31381c.26076,18.37591-7.37822,31.3676-19.76415,37.38742h0c-12.0659,6.07592-27.11421,6.74115-43.78188,6.82856h-26.38972"/><path class="cls-2" d="M5302.10012,557.51412l-.02815-68.17593h-83.3961v68.17593h-31.57078V396.39337h31.57078v65.16538h83.3961V396.39337h31.62708V557.51412Z"/></g><path class="cls-2" d="M5396.55022,375.47192c11.51772,0,21.84723,8.3044,21.84723,21.24,0,12.906-10.32951,21.23979-21.84723,21.23979-11.54588,0-21.78946-8.33383-21.78946-21.23979C5374.76076,383.77632,5385.00434,375.47192,5396.55022,375.47192Zm0,37.9358c8.82571,0,16.00244-7.03153,16.00244-16.69581,0-9.72354-7.17673-16.72545-16.00244-16.72545-8.8835,0-16.03059,7.00191-16.03059,16.72545C5380.51963,406.37619,5387.66672,413.40772,5396.55022,413.40772Zm11.16955-13.16671a10.25092,10.25092,0,0,1-10.35913,8.97091c-7.35007,0-12.21111-5.49811-12.21111-12.61705,0-7.32044,4.51435-12.73114,12.09554-12.73114,5.2092,0,9.49094,3.06685,10.27321,8.82572h-4.42841c-.52-2.692-2.89351-4.28342-5.8448-4.28342-4.31137,0-6.62706,3.44337-6.62706,8.07327,0,4.42842,2.6046,8.19012,6.74263,8.19012,3.12611,0,5.41217-1.67862,5.72923-4.42841Z"/><path class="cls-3" d="M3076.33136,74.41263c-195.18057,0-357.83475,138.78015-394.72881,323.10822h164.73727a243.32788,243.32788,0,0,1,402.07887-92.5685,241.99665,241.99665,0,0,1,71.24279,172.02955c-.02963,67.48107-27.08459,127.75727-71.24279,172.05918-44.30191,44.1582-104.63589,71.24278-172.08733,71.27241a243.48842,243.48842,0,0,1-229.673-162.91493l-164.70911-.02963V762.61824c0,173.0148,149.74822,162.857,149.74822,162.857l.08741-128.71121a400.68518,400.68518,0,0,0,244.54649,82.81829c222.40886-.02963,402.59891-180.19152,402.65669-402.60038C3478.93027,254.60267,3298.74022,74.44078,3076.33136,74.41263Z"/><g id="Angers"><path class="cls-3" d="M3723.86671,727.07664h-56.49933l-8.31937,23.873h-19.57582l42.16109-118.49668h27.08495l42.85558,118.49668H3732.4465Zm-4.70225-13.88972-23.72827-66.497-23.36656,66.497Z"/><path class="cls-3" d="M3893.16214,632.45292V750.9496h-30.90463l-42.407-72.57379q-2.84306-4.86141-12.139-22.74442l-3.97883-7.63934h-.53533l.17362,6.16356q.28213,8.59426.2749,18.5775V750.9496h-18.33154V632.45292h30.81782l37.63246,65.19488q4.86139,8.50745,15.75615,28.38711l5.1363,9.46237h.53534l-.17363-6.07675q-.28214-8.59427-.2749-18.23026V632.45292Z"/><path class="cls-3" d="M3979.92949,689.92164h52.59284q.26045,5.98994.26044,19.44561a152.24317,152.24317,0,0,1-.66555,16.84128,31.74331,31.74331,0,0,1-2.60433,9.636q-5.49078,12.06669-20.00987,14.75782-7.79127,1.47579-28.77777,1.47579-17.0149,0-25.33427-1.823a31.67474,31.67474,0,0,1-14.16462-6.858q-9.28875-7.98658-10.80794-23.78614-.60767-6.07675-.60767-14.75783,0-24.48063.26043-31.5123.88981-24.74108,12.22585-34.02982,7.87807-6.51081,20.44393-7.37891,8.0517-.60768,21.5146-.60768,13.7378,0,19.87966.47746a46.02752,46.02752,0,0,1,10.67772,1.95324q15.14847,4.94822,17.17406,22.04993c.28937,2.48858.47746,6.36613.53533,11.63264h-18.50515q-.369-10.67772-2.749-14.671c-1.70728-2.89369-5.55589-4.68778-11.51689-5.38227q-5.6644-.60768-19.56136-.60767-13.82461,0-20.28478,1.90983-7.79127,2.3439-10.08452,12.24032-1.06343,4.77459-1.33109,29.8629.17361,20.48733.34724,24.04657.45576,8.85471,2.966,13.45567a12.94908,12.94908,0,0,0,7.84191,6.25038q6.98826,2.08345,24.97256,2.08345a96.61636,96.61636,0,0,0,17.13065-1.12854q5.79462-1.12854,8.276-3.90648,4.25373-4.68778,4.25373-21.44226,0-1.99664-.08681-5.98994h-34.26131Z"/><path class="cls-3" d="M4086.70671,647.81843v35.15835h58.79982v14.06334h-58.79982v38.544h61.89607V750.9496h-80.488V632.45292h80.2276v15.36551Z"/><path class="cls-3" d="M4188.18848,750.9496V632.45292h58.52491q16.55916,0,24.88575,4.77459a22.87356,22.87356,0,0,1,10.80794,14.15016q1.6711,5.72951,1.67834,15.62593,0,12.24032-1.95324,18.40388a18.35591,18.35591,0,0,1-11.41561,12.06669,38.86932,38.86932,0,0,1-7.97212,1.99665v.60768q10.00492.69448,14.917,6.38059,4.92651,5.6861,4.91927,16.53745V750.9496h-18.67878V726.81621q.08682-11.025-5.04949-15.45232-5.404-4.16691-15.40891-3.90648h-36.66307V750.9496Zm18.592-59.03131h35.7805q11.76285,0,16.91362-3.55924a13.412,13.412,0,0,0,5.30993-8.68108,47.34011,47.34011,0,0,0,.53533-8.50745q0-11.025-1.3311-14.84464-2.21367-6.424-10.80794-7.72616a48.32709,48.32709,0,0,0-7.52359-.52086h-38.87675Z"/><path class="cls-3" d="M4411.84191,665.78825H4393.684q.08682-10.07-2.38729-13.80291-2.47411-3.90648-9.11513-5.12183a83.84231,83.84231,0,0,0-12.74671-.69449,146.00292,146.00292,0,0,0-16.60979.65108,20.40935,20.40935,0,0,0-8.10234,2.56092q-5.66441,3.47242-5.67163,14.93145,0,7.72616,2.21367,11.71945,2.58263,4.86139,12.139,5.90313,2.82135.34725,17.96982,1.12854,16.21191.78129,22.41164,1.99665,12.91311,2.60432,17.60812,11.89307,3.10348,6.07675,3.11072,19.09837a71.48017,71.48017,0,0,1-1.606,16.92809,21.545,21.545,0,0,1-5.22312,10.07q-6.72783,6.94486-19.38773,8.16021-8.94151.86811-21.96312.86811-20.81288,0-28.32924-2.25708-15.32209-4.68778-17.449-22.918-.43406-3.90648-.62215-13.02161h18.15792v2.69113q0,7.813,1.41791,11.89307a11.04071,11.04071,0,0,0,4.68778,6.07676q3.27711,2.08345,9.83855,2.34389c4.42735.11574,9.37556.17362,14.87357.17362q11.41562,0,16.3783-1.04173a13.66923,13.66923,0,0,0,7.61041-3.9933q3.19029-3.55923,3.19753-16.23361,0-6.68442-1.69281-10.15685-2.47411-4.86141-11.242-5.90314-2.38729-.34723-18.33154-1.21535-15.49572-.86809-19.56136-1.47578-13.73779-1.99665-19.66263-10.07005-5.035-6.94485-5.04949-21.70268,0-20.22691,9.30322-26.99815,7.16188-5.20864,18.76559-6.25037,8.42064-.69448,18.69324-.69449,17.51408,0,24.87128,1.73622,13.02162,3.12519,17.18853,13.36885,2.47411,5.99,2.47411,16.66767Z"/></g></g></g><g id="Ancrage"><rect class="cls-4" x="5624" y="999" width="1" height="1"/><rect class="cls-4" x="5624" width="1" height="1"/><rect class="cls-4" y="999" width="1" height="1"/><rect class="cls-4" width="1" height="1"/></g></svg>