<svg xmlns="http://www.w3.org/2000/svg" xmlns:xlink="http://www.w3.org/1999/xlink" viewBox="0 0 5625 1000"><defs><style>.cls-1,.cls-10,.cls-11,.cls-2,.cls-3,.cls-4,.cls-5,.cls-6,.cls-7,.cls-8,.cls-9{stroke:#18b9e8;stroke-miterlimit:10;stroke-width:15px;}.cls-1{fill:url(#Back_To_the_Future);}.cls-2{fill:url(#Back_To_the_Future-2);}.cls-3{fill:url(#Back_To_the_Future-3);}.cls-4{fill:url(#Back_To_the_Future-4);}.cls-5{fill:url(#Back_To_the_Future-5);}.cls-6{fill:url(#Back_To_the_Future-6);}.cls-7{fill:url(#Back_To_the_Future-7);}.cls-8{fill:url(#Back_To_the_Future-8);}.cls-9{fill:url(#Back_To_the_Future-9);}.cls-10{fill:url(#Back_To_the_Future-10);}.cls-11{fill:url(#Back_To_the_Future-11);}.cls-12{fill:none;}</style><linearGradient id="Back_To_the_Future" x1="867.87687" y1="795.51728" x2="1025.34073" y2="207.85416" gradientUnits="userSpaceOnUse"><stop offset="0" stop-color="#f8e924"/><stop offset="0.15452" stop-color="#f5c31d"/><stop offset="0.45106" stop-color="#ef8011"/><stop offset="0.69999" stop-color="#eb4f08"/><stop offset="0.8884" stop-color="#e83002"/><stop offset="0.99438" stop-color="#e72500"/></linearGradient><linearGradient id="Back_To_the_Future-2" x1="1302.03037" y1="823.5066" x2="1477.94836" y2="166.97173" xlink:href="#Back_To_the_Future"/><linearGradient id="Back_To_the_Future-3" x1="1634.32807" y1="807.23586" x2="1798.11779" y2="195.96433" xlink:href="#Back_To_the_Future"/><linearGradient id="Back_To_the_Future-4" x1="1966.12699" y1="816.70725" x2="2138.32851" y2="174.04241" xlink:href="#Back_To_the_Future"/><linearGradient id="Back_To_the_Future-5" x1="2388.43717" y1="841.56771" x2="2572.52619" y2="154.53812" xlink:href="#Back_To_the_Future"/><linearGradient id="Back_To_the_Future-6" x1="3064.09166" y1="810.60406" x2="3230.2961" y2="190.32065" xlink:href="#Back_To_the_Future"/><linearGradient id="Back_To_the_Future-7" x1="3502.8342" y1="838.41617" x2="3682.02097" y2="169.68204" xlink:href="#Back_To_the_Future"/><linearGradient id="Back_To_the_Future-8" x1="4008.26089" y1="849.09718" x2="4194.01121" y2="155.86757" xlink:href="#Back_To_the_Future"/><linearGradient id="Back_To_the_Future-9" x1="4510.3748" y1="817.38883" x2="4679.898" y2="184.71966" xlink:href="#Back_To_the_Future"/><linearGradient id="Back_To_the_Future-10" x1="5165.28615" y1="690.23242" x2="5262.98964" y2="325.59804" gradientTransform="matrix(-1, 0, 0, 1, 10503.80882, 0)" xlink:href="#Back_To_the_Future"/><linearGradient id="Back_To_the_Future-11" x1="366.71619" y1="746.54584" x2="468.3031" y2="367.41833" gradientTransform="matrix(-1, 0, 0, 1, 774.20312, 0)" xlink:href="#Back_To_the_Future"/></defs><title>logo_quick_news</title><g id="Texte"><path class="cls-1" d="M1132.51868,707.86851l21.62624,39.5626L1172.93928,801.5h-87.02062l-6.17944-21.75943Q1010.73868,801.5,932.47332,801.5q-78.26968,0-100.79518-23.90175-22.53184-23.90177-28.06325-81.43433-5.539-57.528-11.328-105.16928-5.79255-47.63932-19.953-110.11722-14.16219-62.47333-29.60773-115.06123-15.44732-52.5827-27.54809-91.48787-12.10434-38.898,5.14911-55.05795,17.24554-16.14953,58.31443-16.15473c27.375,0,107.50463-3.61564,162.85839-3.61564,55.35325,0,51.73326,4.00136,66.66591,4.76889q22.399,1.15913,47.88743,26.21088,25.48845,25.05893,40.16352,72.69563,14.67534,47.64517,34.88563,126.43614a746.6716,746.6716,0,0,1,22.78485,163.19573Q1156.45833,677.2101,1132.51868,707.86851Zm-95.51728-46.15637-25.746-82.75178,33.21235-15.825q-11.58587-43.51887-23.4288-94.12668-11.84549-50.60456-24.58742-97.09257-12.74422-46.486-22.91364-60.333-10.174-13.84692-24.71621-14.67179-14.54857-.819-43.63936-.82357-29.09637,0-39.1337.82357-10.04037.82683-13.13008,9.23128-3.08946,8.407-.38638,22.08912,2.70309,13.68466,16.34885,65.93767,13.643,52.2582,20.98279,84.8954,7.33729,32.63914,12.10027,58.68453,4.761,26.048,11.071,65.1141,6.30567,39.0661,6.4365,40.71586.12677,1.65364,3.47584,13.022a80.2301,80.2301,0,0,0,9.783,21.26555q6.43243,9.89064,18.4085,9.89065,11.97147,0,38.36146-9.89065Q1015.88753,667.97622,1037.0014,661.71214Z"/><path class="cls-2" d="M1257.92033,205.09377H1388.452q-3.08946,73.19081-12.10026,133.19409-9.01564,60.00849-19.30953,120.17076-10.30075,60.17073-28.32032,126.43613-18.02442,66.26736-12.10078,81.10334,5.9193,14.836,23.04243,13.68141,17.1188-1.15129,36.6882-1.15326,19.56227,0,32.69719-4.94532,13.12983-4.94533,20.59641-22.41881,7.46481-17.47087,19.953-67.42062,12.48537-49.94973,24.32984-116.38129,11.83938-66.4296,19.43831-127.91908,7.5908-61.48426,8.10978-134.01766h119.9759a801.96172,801.96172,0,0,1-1.15861,108.96134q-4.24782,51.26916-13.0018,110.11592-8.75526,58.84937-25.61673,134.019-16.86606,75.16895-39.1337,136.32549-22.27224,61.15979-54.45273,82.58758c-21.45774,14.29-55.0131,21.79011-100.66639,21.42974-45.9222-.36249-90.15488.43785-133.49237,1.31876q-65.01233,1.31354-84.44632-18.79224-19.44239-20.10578-1.02982-76.4877,18.4039-56.37671,37.07406-132.36922a1578.90418,1578.90418,0,0,0,29.9941-156.43778Q1246.84809,335.65557,1257.92033,205.09377Z"/><path class="cls-3" d="M1605.53906,799.52187l25.74552-72.53144q22.65251-97.58514,31.53909-147.53619,8.882-49.94583,17.24938-107.4784,8.36354-57.528,12.61543-110.11591,4.24859-52.58269,5.79306-90.16912,1.54473-37.58446,1.02982-72.53143l128.98671,4.94532q-4.63419,105.17319-8.75373,166.49262-4.12107,61.322-16.60593,137.64424-12.49071,76.32806-28.96428,141.27211-16.47891,64.95381-43.51006,150.0082Z"/><path class="cls-4" d="M1911.96446,799.52187q-29.61027,0-46.9864-20.27649-17.37841-20.27386-16.73472-42.694.63989-22.41619,11.58562-74.01568,10.93986-51.59363,22.27019-123.138,11.32624-71.53716,16.9923-120.66594,5.65968-49.121,8.75373-80.444a486.20542,486.20542,0,0,1,9.65425-60.16877q6.5653-28.84514,27.67688-52.75014,21.10776-23.8998,51.23448-25.22051,30.12264-1.31354,96.5471,0,66.4242,1.32137,157.56462,3.95626l-1.80206,90.33461-2.31723,20.77037-2.31722,15.16566-85.99131-2.63751q-98.86432,0-106.20135,5.10952-7.338,5.11539-12.74423,17.47349-5.40693,12.3633-10.42751,43.51886-5.01979,31.15554-11.7144,80.11427-6.6974,48.95872-12.35785,82.25789-5.6658,33.30375-7.07995,48.95807-1.418,15.6628-.77224,22.41881.63912,6.76122,9.0108,20.77167,8.36355,14.015,56.76945,14.0111h134.13632l-8.75373,45.497-24.201,91.65336h-251.7945Z"/><path class="cls-5" d="M2230.74771,796.88436q33.98409-110.1107,52.135-179.02077a1123.401,1123.401,0,0,0,27.41981-138.9643q9.2684-70.05356,17.76454-145.22706,8.49564-75.16895,10.04062-135.17223l122.03555,4.94533q-1.80435,92.64763-5.27789,140.11755-3.47585,47.47512-9.1396,97.58775l163.486-240.01312h137.22579L2534.806,532.804q49.43217,87.37,59.60184,123.79733,10.16788,36.43317,15.70489,68.08129,5.53369,31.65009,12.22957,74.83926H2495.15764q-3.08946-67.5809-17.37867-107.6426-14.289-40.05909-24.45863-61.322-10.17324-21.26685-9.1396-18.95773l-19.56659-30.00164q-15.7077,72.534-26.64706,111.43466-10.946,38.90583-32.56891,106.48934H2231.52Z"/><path class="cls-6" d="M3019.44231,796.55467q-6.95166-112.75341-16.60643-184.13159a1430.65928,1430.65928,0,0,0-27.16222-143.90832q-17.51052-72.52622-33.46943-132.53472-15.96655-60.00067-30.1229-97.58775-14.16144-37.58446-12.10027-37.58447h108.13272l220.89987,310.23674q-28.32439-124.94667-49.17484-191.21925-20.855-66.26736-41.45041-119.01749h131.04635q40.163,117.69874,53.03654,160.22854,12.871,42.5298,26.77534,101.544Q3363.15,521.59981,3376.923,619.01684q13.77048,97.42487,17.89333,180.17534l-101.95277-.32969L3126.5447,575.0041q9.52189,111.76436,13.25888,141.766,3.72935,30.00425,5.27789,82.42209H3021.502Z"/><path class="cls-7" d="M3356.50475,796.225q32.44013-98.57421,50.84861-165.33936,18.40392-66.75995,29.9936-126.10515,11.5851-59.3439,20.72572-120.99562,9.13551-61.64652,23.55708-178.03172h123.83812l212.4027.32969q-3.08946,79.45751-11.5851,123.63314l-216.523-2.30782q-6.43855,59.01942-12.873,98.9065l216.523,2.30782q-8.49717,52.096-26.2612,120.99563H3549.599q-24.97532,98.582-34.24217,123.30344l221.92918,2.30782q-19.82722,61.65433-43.25247,123.63313H3355.21786Z"/><path class="cls-8" d="M4364.763,206.08283q-7.72442,107.48363-22.01261,188.41625-14.28972,80.9411-26.00361,129.23783-11.718,48.302-33.34115,118.35812-21.62624,70.06139-54.581,157.09715l-124.60985.32969L4040.6224,695.34035,3933.00486,799.85156l-117.144-2.30782q31.40775-80.771,48.27381-135.008Q3880.99305,608.30719,3894,556.21186q12.99773-52.08814,25.87431-114.56735,12.871-62.47334,21.62675-111.59886,8.74914-49.12095,18.79435-129.23783h125.63916q-17.764,101.8737-27.16121,159.89885-9.40125,58.03037-51.36275,226.4959L4111.423,465.87726l58.70131,128.57845q32.69209-143.08213,42.48074-203.25352,9.78153-60.16291,23.68537-187.75686h127.69982l-1.02931-2.30782Z"/><path class="cls-9" d="M4714.18427,203.11564q64.61909,0,86.506,21.1,21.87975,21.10266,19.953,58.519-1.93187,37.42224-8.11028,81.92821H4693.84441q13.64373-59.0116-24.20053-59.01421H4602.8333q-28.96428,0-32.5684,18.79223-3.6087,18.79224-9.01132,48.79388-5.40616,30.00425-1.28791,42.3643,4.11572,12.36332,17.24988,19.9468,13.1306,7.588,59.21546,4.12045,46.08385-3.46173,79.426,10.55,33.33963,14.017,48.40209,59.17971,15.06247,45.17251-3.47482,125.61126-18.53829,80.44656-38.619,111.92855-20.08227,31.48784-89.33836,52.58594H4484.0155q-146.23863,6.92346-106.8448-133.1941l19.05194-55.71733h117.143l-11.06993,42.20011q1.02472,23.0808,5.40617,29.17807,4.37535,6.1025,84.70391,3.79077,43.506-6.59117,54.06687-60.49716,10.55272-53.906-9.65476-68.2468-20.21514-14.33949-67.06817-11.0439-46.86117,3.29949-86.89285-2.63751-40.03625-5.93439-54.32343-28.5187-14.28819-22.57844-2.83238-83.57534,11.45376-60.98975,18.15091-101.05013,6.692-40.05714,11.7144-62.4753,5.02132-22.4162,21.88433-39.89229,16.85994-17.47088,44.2828-22.25461,27.41878-4.77526,99.76485-4.77983Q4693.84339,200.80782,4714.18427,203.11564Z"/><path class="cls-10" d="M5486.91538,645.55741q.51922-42.1975,10.81337-78.79552,10.30075-36.59541,17.764-68.57518,7.4709-31.97456,33.21286-83.74084l18.79436.65938q-32.69362,85.3919-39.52007,114.73155-6.81882,29.34747-13.1306,56.87059a373.04663,373.04663,0,0,0-8.36685,58.52033Zm-59.21546,0q6.69816-80.43874,17.63574-116.54549,10.94675-36.10088,13.25888-44.67212,2.31825-8.56929,9.91234-33.7937,7.59767-25.22117,13.51647-39.06742l33.98459,1.31875q-20.59388,67.921-28.7067,94.29087-8.10927,26.38028-14.93266,58.19065-6.8188,31.81818-8.882,79.94877Zm-79.29773,2.96719q-1.544-41.86521,12.10128-95.93931,13.64831-54.06628,17.764-71.04849,4.12182-16.97634,23.4288-69.72843l47.1152.32968q-36.04272,116.70969-42.609,151.98633-6.56531,35.28188-8.883,83.08147Zm21.36916-236.38655q-3.343,12.20108-29.22085,101.04883-25.87482,88.85363-24.58741,136.98617l-65.39439.32968q2.06321-67.5809,16.47713-125.61126,14.42106-58.02255,31.925-113.0831Zm-259.00273-.98906,156.27721.98906q-23.42523,73.19082-32.18253,111.43467-8.74916,38.24906-20.33884,128.57846H5058.50381l-15.18922,56.047-53.29412-188.91143,132.07567-161.877Z"/><path class="cls-11" d="M663.29986,522.254Q579.8836,630.39434,507.5378,719.73729l15.18973-70.22362-176.10139.65938q7.21053-55.71213,30.50876-119.84237,23.30383-64.11918,43.38177-119.84107l175.07158.98907,30.38047-56.047ZM391.4236,410.48961q-8.74916,19.12453-40.93576,107.31291-32.1805,88.19685-33.21236,132.37053H246.732a818.94445,818.94445,0,0,1,28.83549-122.97376q18.53677-57.69025,41.96558-115.06124ZM168.207,648.85429q1.80435-37.25217,19.30952-90.994,17.51129-53.734,23.04243-70.71881,5.53981-16.97634,31.02393-75.00345l48.91725-.65937Q241.84,536.10087,232.82916,571.37753q-9.00878,35.28186-15.96248,77.47676Zm-67.71161-.32969q24.97532-112.08882,32.18254-129.733,7.21053-17.63311,10.04062-26.04538,2.836-8.407,13.38818-35.11115,10.55961-26.70475,20.59642-42.85949H210.1731Q179.79695,490.2768,169.752,516.48377q-10.04114,26.21022-19.18074,58.19064-9.13551,31.98239-15.319,74.17988ZM57.5,646.87616a300.06685,300.06685,0,0,1,11.972-73.35631q10.68636-36.75765,18.79435-68.40968,8.11-31.65009,37.20285-89.34554l21.11158.98906Q107.70823,508.08,100.36661,537.41963q-7.33728,29.34747-11.84269,45.1673A234.8077,234.8077,0,0,0,82.34449,608.962q-1.67148,10.55525-5.535,37.58447Z"/></g><g id="Ancrage"><rect class="cls-12" x="5624" y="999" width="1" height="1"/><rect class="cls-12" x="5624" width="1" height="1"/><rect class="cls-12" y="999" width="1" height="1"/><rect class="cls-12" width="1" height="1"/></g></svg>