<svg xmlns="http://www.w3.org/2000/svg" xmlns:xlink="http://www.w3.org/1999/xlink" viewBox="0 0 5625 1000"><defs><style>.cls-1{fill:#ffcebf;}.cls-2{fill:#ffb09e;}.cls-3{fill:url(#Dégradé_sans_nom_13);}.cls-4{fill:#0a8955;}.cls-5{fill:#0a7a4a;}.cls-6{fill:url(#Dégradé_sans_nom_13-2);}.cls-7{fill:url(#Dégradé_sans_nom_13-3);}.cls-8{fill:url(#Dégradé_sans_nom_13-4);}.cls-9{fill:url(#Dégradé_sans_nom_13-5);}.cls-10{fill:url(#Dégradé_sans_nom_13-6);}.cls-11{fill:url(#Dégradé_sans_nom_13-7);}.cls-12{fill:url(#Dégradé_sans_nom_13-8);}.cls-13{fill:url(#Dégradé_sans_nom_13-9);}.cls-14{fill:url(#Dégradé_sans_nom_13-10);}.cls-15{fill:url(#Dégradé_sans_nom_13-11);}.cls-16{fill:#fdf5e6;}.cls-17{fill:none;}</style><linearGradient id="Dégradé_sans_nom_13" x1="284.09217" y1="459.02684" x2="315.46159" y2="759.41375" gradientUnits="userSpaceOnUse"><stop offset="0" stop-color="#fdc830"/><stop offset="1" stop-color="#f37335"/></linearGradient><linearGradient id="Dégradé_sans_nom_13-2" x1="1300.34498" y1="1700.29729" x2="1425.19367" y2="1601.45982" gradientTransform="matrix(1, 0, 0, -1, 0, 1002)" xlink:href="#Dégradé_sans_nom_13"/><linearGradient id="Dégradé_sans_nom_13-3" x1="315.38146" y1="2105.96078" x2="469.33357" y2="1984.08342" gradientTransform="matrix(1, 0, 0, -1, 0, 1002)" xlink:href="#Dégradé_sans_nom_13"/><linearGradient id="Dégradé_sans_nom_13-4" x1="2722.88796" y1="1356.31786" x2="2914.54577" y2="-478.95642" gradientTransform="matrix(1, 0, 0, -1, 0, 1002)" xlink:href="#Dégradé_sans_nom_13"/><linearGradient id="Dégradé_sans_nom_13-5" x1="2812" y1="152.04319" x2="2812" y2="108.1117" gradientTransform="matrix(1, 0, 0, -1, 0, 1002)" xlink:href="#Dégradé_sans_nom_13"/><linearGradient id="Dégradé_sans_nom_13-6" x1="5515.01931" y1="231.86725" x2="5528.0732" y2="356.86858" xlink:href="#Dégradé_sans_nom_13"/><linearGradient id="Dégradé_sans_nom_13-7" x1="5435.55685" y1="322.96189" x2="5457.11801" y2="529.42701" xlink:href="#Dégradé_sans_nom_13"/><linearGradient id="Dégradé_sans_nom_13-8" x1="5381.25496" y1="493.79568" x2="5391.26223" y2="589.62317" xlink:href="#Dégradé_sans_nom_13"/><linearGradient id="Dégradé_sans_nom_13-9" x1="5531.82668" y1="230.11206" x2="5544.88057" y2="355.11339" xlink:href="#Dégradé_sans_nom_13"/><linearGradient id="Dégradé_sans_nom_13-10" x1="5454.90914" y1="345.63822" x2="5473.92094" y2="527.69117" xlink:href="#Dégradé_sans_nom_13"/><linearGradient id="Dégradé_sans_nom_13-11" x1="5383.80879" y1="518.25063" x2="5391.26223" y2="589.62317" xlink:href="#Dégradé_sans_nom_13"/></defs><title>logo_elu_ce</title><g id="icons"><g id="hands_up" data-name="hands up"><path class="cls-1" d="M416.90852,501.305V469.034a14.291,14.291,0,1,0-28.582,0v112.88a28.51551,28.51551,0,0,0,28.515,28.515h50.627a28.51623,28.51623,0,0,0,21.846-10.188l56.134-66.913a13.05735,13.05735,0,0,0-18.992-17.863l-18.055,17.137a2.99983,2.99983,0,0,1-5.065-2.153l-.678-89.93a14.291,14.291,0,0,0-28.582,0v44.95Z"/><path class="cls-1" d="M474.07451,501.305V425.25a14.291,14.291,0,0,0-28.582,0v75.646Z"/><path class="cls-1" d="M445.4915,501.305V440.52a14.291,14.291,0,0,0-28.582,0v68.948Z"/><path class="cls-2" d="M431.20051,426.228a14.2078,14.2078,0,0,0-6.424,1.538,14.278,14.278,0,0,1,7.867,12.753v60.432a6.424,6.424,0,0,0,12.848,0V440.52a14.29209,14.29209,0,0,0-14.291-14.292Z"/><path class="cls-2" d="M459.78251,410.959a14.2078,14.2078,0,0,0-6.424,1.538,14.278,14.278,0,0,1,7.867,12.753v70.432a6.424,6.424,0,0,0,12.848,0V425.25A14.29,14.29,0,0,0,459.78251,410.959Z"/><path class="cls-2" d="M488.3875,426.228a14.20781,14.20781,0,0,0-6.424,1.538,14.278,14.278,0,0,1,7.867,12.753v60.432a6.424,6.424,0,0,0,12.848,0V440.52A14.29209,14.29209,0,0,0,488.3875,426.228Z"/><path class="cls-1" d="M272.87951,346.552V312.601a15.036,15.036,0,1,0-30.072,0V431.36a29.99941,29.99941,0,0,0,30,30h53.264a29.99775,29.99775,0,0,0,22.983-10.719l59.058-70.398a13.73723,13.73723,0,0,0-19.981-18.793l-19.256,18.277a2.99983,2.99983,0,0,1-5.065-2.153l-.716-94.974a15.036,15.036,0,0,0-30.072,0v47.291Z"/><path class="cls-1" d="M333.0225,346.552V266.536a15.036,15.036,0,0,0-30.072,0v78.023Z"/><path class="cls-2" d="M319.19652,251.548a14.94815,14.94815,0,0,0-8.727,1.98,15.01774,15.01774,0,0,1,7.518,13.008V338.52a7.518,7.518,0,0,0,15.036,0V266.954a15.31982,15.31982,0,0,0-13.827-15.406Z"/><path class="cls-1" d="M302.95051,346.552V282.601a15.036,15.036,0,1,0-30.072,0v71.497Z"/><path class="cls-2" d="M289.12451,267.613a14.9482,14.9482,0,0,0-8.727,1.98,15.01771,15.01771,0,0,1,7.518,13.008v61.984a7.518,7.518,0,0,0,15.036,0V283.019a15.319,15.319,0,0,0-13.827-15.406Z"/><path class="cls-2" d="M259.05351,297.6a14.94815,14.94815,0,0,0-8.727,1.98,15.01772,15.01772,0,0,1,7.518,13.008v31.984a7.518,7.518,0,0,0,15.036,0V313.006A15.31982,15.31982,0,0,0,259.05351,297.6Z"/><path class="cls-3" d="M242.80751,746V481.36a19.9996,19.9996,0,0,1,20-20h74.815a19.99962,19.99962,0,0,1,20,20V746a9.99979,9.99979,0,0,1-10,10h-94.815A9.9998,9.9998,0,0,1,242.80751,746Z"/><path class="cls-4" d="M388.32551,746V629.439a19.00993,19.00993,0,0,1,19.01-19.01h71.112a19.00992,19.00992,0,0,1,19.01,19.01V746a9.99979,9.99979,0,0,1-10,10h-89.132a9.99979,9.99979,0,0,1-10-10Z"/><path class="cls-1" d="M183.09451,501.305V469.034a14.291,14.291,0,1,1,28.582,0v112.88a28.5155,28.5155,0,0,1-28.515,28.515h-50.626a28.51619,28.51619,0,0,1-21.846-10.188l-56.134-66.913a13.05735,13.05735,0,0,1,18.992-17.863l18.055,17.137a2.99983,2.99983,0,0,0,5.065-2.153l.678-89.93a14.291,14.291,0,0,1,28.582,0v44.95Z"/><path class="cls-1" d="M125.92851,501.305V425.25a14.291,14.291,0,1,1,28.582,0v75.646Z"/><path class="cls-1" d="M154.51151,501.305V440.52a14.291,14.291,0,0,1,28.582,0v68.948Z"/><path class="cls-2" d="M168.80351,426.228a14.20763,14.20763,0,0,0-6.424,1.538,14.278,14.278,0,0,1,7.867,12.753v60.432a6.424,6.424,0,0,0,12.848,0V440.52A14.2921,14.2921,0,0,0,168.80351,426.228Z"/><path class="cls-2" d="M140.22051,410.959a14.20763,14.20763,0,0,0-6.424,1.538,14.278,14.278,0,0,1,7.867,12.753v70.432a6.424,6.424,0,0,0,12.848,0V425.25A14.29061,14.29061,0,0,0,140.22051,410.959Z"/><path class="cls-2" d="M111.63751,426.228a14.20763,14.20763,0,0,0-6.424,1.538,14.278,14.278,0,0,1,7.867,12.753v60.432a6.424,6.424,0,0,0,12.848,0V440.52A14.29146,14.29146,0,0,0,111.63751,426.228Z"/><path class="cls-5" d="M211.6775,746V629.439a19.00993,19.00993,0,0,0-19.01-19.01h-71.112a19.00991,19.00991,0,0,0-19.01,19.01V746a9.9998,9.9998,0,0,0,10,10h89.132A9.9998,9.9998,0,0,0,211.6775,746Z"/><path d="M197.38551,447.243a21.71392,21.71392,0,0,0-6.792,1.089v-7.813a21.79038,21.79038,0,0,0-29.218-20.487,21.789,21.789,0,0,0-42.312,0,21.7913,21.7913,0,0,0-29.219,20.43l-.6,79.562-10.536-10a20.55733,20.55733,0,0,0-29.901,28.123c1.927,2.296,56.24,67.236,58.193,69.149a26.50331,26.50331,0,0,0-11.957,22.142V748.5a7.5,7.5,0,0,0,15,0V659.89h94.131V748.5a7.5,7.5,0,0,0,15,0V629.439a26.48958,26.48958,0,0,0-11.103-21.553,35.90469,35.90469,0,0,0,11.103-25.972V469.034A21.81216,21.81216,0,0,0,197.38551,447.243Zm6.792,197.647h-94.132V629.44a11.52259,11.52259,0,0,1,11.51-11.51h71.112a11.52257,11.52257,0,0,1,11.51,11.51Zm0-62.975a21.0384,21.0384,0,0,1-21.015,21.015h-50.627a20.96707,20.96707,0,0,1-16.1-7.509l-56.134-66.913a5.55777,5.55777,0,0,1,8.084-7.603l18.055,17.138a10.50018,10.50018,0,0,0,17.728-7.537l.678-89.986a6.792,6.792,0,0,1,13.584,0v60.786a7.5,7.5,0,0,0,15,0V425.25a6.792,6.792,0,0,1,13.584,0v76.056a7.5,7.5,0,0,0,15,0V440.52a6.7915,6.7915,0,1,1,13.583,0v60.786a7.5,7.5,0,0,0,15,0V469.035a6.792,6.792,0,0,1,13.584,0v112.88Zm148.14-123.783c2.387-2.281,59.256-70.345,61.541-73.068a21.23675,21.23675,0,0,0-30.889-29.053l-11.737,11.14-.637-84.55a22.5235,22.5235,0,0,0-30.629-21.027,22.53107,22.53107,0,0,0-43.958,0,22.52351,22.52351,0,0,0-30.629,21.027v8.765a22.52964,22.52964,0,0,0-30.072,21.236V431.36a37.39943,37.39943,0,0,0,11.902,27.369,27.48346,27.48346,0,0,0-11.902,22.631V748.5a7.5,7.5,0,0,0,15,0V513.006h99.815V748.5a7.5,7.5,0,0,0,15,0V481.36a27.49774,27.49774,0,0,0-12.805-23.228Zm-102.01-145.531a7.536,7.536,0,1,1,15.072,0v33.952a7.5,7.5,0,0,0,15,0V282.601a7.536,7.536,0,1,1,15.072,0v63.952a7.5,7.5,0,0,0,15,0V266.536a7.536,7.536,0,0,1,15.072,0v80.017a7.5,7.5,0,0,0,15,0V282.601a7.53611,7.53611,0,1,1,15.072.056l.716,94.974a10.50017,10.50017,0,0,0,17.728,7.536l19.257-18.277a6.23727,6.23727,0,0,1,9.072,8.533l-59.057,70.398a22.44825,22.44825,0,0,1-17.238,8.039h-53.264a22.52489,22.52489,0,0,1-22.5-22.5V312.601Zm99.816,185.405h-99.815V481.36a12.51354,12.51354,0,0,1,12.5-12.5h74.815a12.51354,12.51354,0,0,1,12.5,12.5Zm201.069,40.142a20.55695,20.55695,0,0,0-29.901-28.122l-10.536,9.999-.599-79.505a21.79124,21.79124,0,0,0-29.219-20.487,21.78905,21.78905,0,0,0-42.312,0,21.7904,21.7904,0,0,0-29.218,20.487v7.813a21.78274,21.78274,0,0,0-28.584,20.703v112.88a35.9065,35.9065,0,0,0,11.103,25.972,26.48814,26.48814,0,0,0-11.103,21.553V748.5a7.5,7.5,0,0,0,15,0V659.89h71.631a7.5,7.5,0,1,0,0-15h-71.631V629.44a11.52258,11.52258,0,0,1,11.51-11.51h71.112a11.52259,11.52259,0,0,1,11.51,11.51V748.5a7.5,7.5,0,0,0,15,0V629.439a26.50194,26.50194,0,0,0-11.957-22.142C494.96849,605.365,549.28148,540.427,551.19249,538.148Zm-67.625,57.273a20.97034,20.97034,0,0,1-16.1,7.509h-50.627a21.03908,21.03908,0,0,1-21.015-21.015V469.035a6.792,6.792,0,0,1,13.584,0v32.271a7.5,7.5,0,0,0,15,0V440.52a6.79149,6.79149,0,1,1,13.583,0v60.786a7.5,7.5,0,0,0,15,0V425.25a6.792,6.792,0,1,1,13.584,0v76.056a7.5,7.5,0,0,0,15,0V440.52a6.7921,6.7921,0,1,1,13.584.056l.678,89.93a10.50015,10.50015,0,0,0,17.729,7.535l18.054-17.136a5.55738,5.55738,0,0,1,8.084,7.602Z"/></g><g id="blackboard1"><path class="cls-6" d="M663,106.77876H4965V893.22124H663.00009Z"/><path class="cls-7" d="M663.00013,855.29179H4962v35.22094H663Z"/><path class="cls-8" d="M663,106.77876H4961V891.22124H663Z"/><path class="cls-4" d="M707.10714,141.16669H4915.52678V876.91985H707.10714Z"/><path class="cls-5" d="M755.88553,155.61037H4915.40447V141.16669H707.10751V876.91985H755.8859Z"/><path class="cls-9" d="M663,890.77876H4961V864.94612H663.00008Z"/></g><g id="feedback1"><path class="cls-10" d="M5575.165,276.86543l-46.1334,79.90307L5465.183,319.86177l46.1334-79.903a18.45114,18.45114,0,0,1,25.18883-6.82775l31.92431,18.45337a18.45392,18.45392,0,0,1,6.78162,25.19806C5575.19273,276.81008,5575.18351,276.83776,5575.165,276.86543Z"/><path class="cls-11" d="M5363.662,495.64261l101.48427-175.77075,63.86651,36.87443L5427.52855,532.517Z"/><path class="cls-12" d="M5427.53814,532.53676l-78.05771,61.44969,14.2091-98.35642Z"/><path class="cls-13" d="M5575.165,276.86543l-41.151,71.23-4.98242,8.67309-27.68-15.96216,36.90672-63.94089a18.45789,18.45789,0,0,0-6.65244-25.235c-.02767-.01845-.05537-.02768-.083-.04613l-20.20642-11.62562a18.45113,18.45113,0,0,1,25.18883-6.82774l31.92431,18.45336a18.45392,18.45392,0,0,1,6.78162,25.19806C5575.19273,276.81008,5575.18351,276.83776,5575.165,276.86543Z"/><path class="cls-14" d="M5399.8377,516.56207,5501.322,340.79132l27.67043,15.976L5427.50812,532.53807Z"/><path class="cls-15" d="M5427.53814,532.53676l-78.05771,61.44969,4.70559-32.75471,36.4454-28.695,9.22668-15.96216Z"/><g id="Feedback"><path d="M5604.04456,302.88467a27.08772,27.08772,0,0,0-12.82509-16.79256l-8.0272-4.61334a27.66933,27.66933,0,0,0-10.12167-37.81094c-.00922-.00922-.01844-.00922-.02766-.01845L5541.11863,225.196a27.66931,27.66931,0,0,0-37.81093,10.12167c-.00923.00923-.00923.01845-.01845.02768l-25.927,44.93393H5091.1334A46.13841,46.13841,0,0,0,5045,326.41271V621.66649a46.13841,46.13841,0,0,0,46.1334,46.13341h9.22668V769.29339a9.09987,9.09987,0,0,0,5.72055,8.48852,7.80773,7.80773,0,0,0,3.50614.73816,9.25614,9.25614,0,0,0,6.55094-2.67575L5224.08987,667.7999h273.01749a46.13839,46.13839,0,0,0,46.1334-46.13341V350.67887l30.72483-53.238,8.0272,4.61334a9.0871,9.0871,0,0,1,4.24427,5.62827,8.64974,8.64974,0,0,1-.73815,6.64321l-32.29339,51.02355,15.59308,9.87255,32.47792-51.30034a27.5781,27.5781,0,0,0,2.768-21.03683Zm-87.56122,57.20542-92.26681,159.80612-47.97875-27.68,92.26681-159.80611ZM5411.11466,533.73624l-49.17822,38.75206,8.94989-62.09556Zm113.67271,87.93025a27.76145,27.76145,0,0,1-27.68,27.68H5220.3069a9.54762,9.54762,0,0,0-6.55094,2.67575l-94.94254,95.03481V658.57322a9.23006,9.23006,0,0,0-9.22668-9.22669h-18.45336a27.76142,27.76142,0,0,1-27.68-27.68V326.41271a27.76142,27.76142,0,0,1,27.68-27.68h375.5259l-110.99695,192.284a8.8408,8.8408,0,0,0-1.1072,3.32161L5340.346,592.69472a9.22785,9.22785,0,0,0,14.85492,8.58078l77.96546-61.44969a15.40528,15.40528,0,0,0,2.39892-2.67575l89.222-154.5469Zm42.44271-349.41439L5525.71,344.12794l-47.97875-27.68,41.52007-71.87584a9.48168,9.48168,0,0,1,5.62828-4.33654,9.30384,9.30384,0,0,1,7.01226.92267l31.92431,18.45336a9.22034,9.22034,0,0,1,3.44156,12.58519Z"/><path class="cls-4" d="M5100.36005,464.81292h221.44034v18.45336H5100.36005Z"/><path class="cls-4" d="M5100.36005,335.63939H5414.0672v18.45336H5100.36005Z"/><path class="cls-4" d="M5100.36005,501.71964h221.44034V520.173H5100.36005Z"/><path class="cls-4" d="M5100.36005,538.62637h221.44034v18.45336H5100.36005Z"/><path class="cls-4" d="M5100.36005,575.53309h221.44034v18.45336H5100.36005Z"/><path class="cls-4" d="M5100.36005,612.43981h202.987v18.45336h-202.987Z"/></g></g></g><g id="Texte"><path class="cls-16" d="M781.18555,643.52637l-3.05371-8.55371-3.66407,1.833,3.66407-15.88574h4.27539l-.61133-6.11035q0-2.43458,3.96973-10.38672,3.97924-7.93359,8.85546-17.1084c1.22168-3.666,2.44239-5.28808,3.66407-4.88769l8.5498-21.9961a39.484,39.484,0,0,0,3.66406-4.27636l15.87891-33.60547q1.83178-3.66651,6.10693-10.38672a64.09907,64.09907,0,0,0,5.19092-9.165c.61084-1.62305,1.62207-4.17236,3.05371-7.63818q2.13282-5.18409,7.02295-14.96973a263.0362,263.0362,0,0,1,18.93213-31.16064q14.65722-24.43066,21.98535-37.271,21.36987-36.65991,26.26026-46.436c1.22119.82081,1.92773.71582,2.1372-.30566a21.12007,21.12007,0,0,0,.30567-3.97168,7.13563,7.13563,0,0,1,1.832-1.22168,14.9787,14.9787,0,0,1,1.832,3.05469l1.832-1.22168-2.44238-2.44385.61035-3.05517h6.10742c0-.40088-.41015-.70655-1.22168-.91651-.82031-.20068-1.832-.50586-3.05371-.9165l1.83252-4.88819,4.2749.61133-.61084-5.499,9.77149-6.72119-1.83252-3.666q3.04906-6.71631,4.27539-9.165a118.182,118.182,0,0,1,7.32812-10.998l3.05371-.61084a175.89253,175.89253,0,0,1,10.07666-15.27491q5.79712-7.93359,11.9087-15.88623,12.20946-4.88306,24.42871-9.77588a53.96837,53.96837,0,0,1,13.74023-3.05517c4.67578-.40088,8.24512-.61084,10.6875-.61084,2.44336,0,3.86475-.40088,4.27539-1.22217h11.60352l.61035,6.11035q0,3.06446-5.49609,13.74707a284.36634,284.36634,0,0,1-14.65723,24.74561l-4.2749,1.833,1.22119,1.833,4.88574-1.22216v3.666a50.22754,50.22754,0,0,1-4.88574,2.13867c-1.63184.61133-2.65235.71631-3.05323.30567l-4.2749,3.666q-1.2312,2.44849,1.22119,4.8877a2.45454,2.45454,0,0,0,1.83252.61133,23.37793,23.37793,0,0,1-4.88574,1.833l-2.44336,7.94288c-2.44238.41064-3.56836,1.22216-3.3584,2.44384a24.548,24.548,0,0,0,1.52637,4.88819,15.1904,15.1904,0,0,1-1.832,6.72119,45.96782,45.96782,0,0,0-2.44238,5.499l-12.21436,3.66553v2.44433q0,1.23122,3.35889,2.44385c2.23291.82129,3.35888,1.833,3.35888,3.05518,0,.8208-.8208,1.52734-2.44287,2.13818-1.63183.61133-2.85351.71631-3.66406.30567q-3.665,9.78075-3.66455,14.05322l-2.44287.61084-1.22119,3.666-4.2749-.61132c-1.22168,2.855-2.042,4.88818-2.44288,6.11035q-2.44775,2.44848-4.2749,4.27685l-6.10742,4.27686v9.77637l4.27539.61084-3.05371,4.88818-3.66406-3.05518-2.44336,7.94287h2.44336v3.666l-6.10742.61133-1.2212,7.94287H948.519q-3.063,6.115-6.41259,13.13623a59.48086,59.48086,0,0,0-4.58008,12.52588l.61084,2.44385H935.0835l-6.10694,4.88769q7.32861-1.21655,5.4961,5.499l-6.71778,1.833-1.832,9.77637,2.44287,1.22168q-6.72729,1.23194-7.32861.61133l-3.66406,12.22021.61084,5.499a22.31038,22.31038,0,0,1-.61084,4.583,20.69073,20.69073,0,0,0-.61035,3.97071l-5.49659,6.72168-5.49658-2.44434c-.82031-.40137-1.832,1.63281-3.05371,6.11035a53.27482,53.27482,0,0,0-1.832,7.94238l-4.27441-1.22167-1.22168,1.22167,6.71777,2.44434.61035,6.7207-13.43555,7.332L894.166,559.209l-1.2212,4.27735h-6.10693l-1.832,3.05469,1.832,12.83105c-1.22168,0-1.52685.71582-.916,2.13867.61035,1.43164.70605,2.34766.30517,2.749h-6.71777v3.666l-4.2749,4.27735q0,2.44775,3.66406,3.666a2.45786,2.45786,0,0,0,.61084,1.833h-6.10694v5.499q-4.8955,1.83252-2.44287,4.8877a53.6704,53.6704,0,0,0,8.855-2.44434q5.18115-1.83252,7.63379-2.44336l5.49658,1.22168q4.2649,0,13.43555-2.749a75.05646,75.05646,0,0,0,14.65674-5.80469h10.38232l-1.83252-3.666,9.77149,1.22167,3.66406-1.833h9.16113l5.4961-1.833,5.49609-1.22168q6.09814-1.21728,5.80176-2.44434a9.69117,9.69117,0,0,1-.30518-2.44433l5.49659,1.833,11.60351-3.05469,1.832-2.44434h5.4961a83.35744,83.35744,0,0,1,8.24462-3.05469q3.96461-1.21728,4.58057,1.22168a110.08726,110.08726,0,0,0,16.48877-1.833,111.31848,111.31848,0,0,1,17.1001-1.833,31.026,31.026,0,0,1,9.16015,1.52832,63.48581,63.48581,0,0,0,8.54981,2.13769l2.44336,6.72168-3.05371,4.27637q-6.11207,1.23193-9.16065,3.666a24.38846,24.38846,0,0,1,2.44287,10.998,35.44615,35.44615,0,0,0-4.2749,4.88868q-10.39159,10.998-12.21435,12.21972v5.499l-8.54981-.61133-1.22168,1.22265.61133,6.10938-5.49658,3.666-12.21436-.61035q-1.83178,1.23048-7.02295,4.582-5.19579,3.36475-7.63379,3.97168l-2.44287-1.833-4.2749,1.22168-2.44287,5.499c-1.22168.82129-2.34766.41113-3.35889-1.22168q-1.53148-2.43457.916-3.666l-12.21436,3.05469-4.27441,6.11035c-.82129-2.03418-1.02148-3.25586-.61133-3.666l-5.49609-2.44434,2.44287,5.499-8.54981,1.833,1.2212-4.27734H948.519l-6.71777.61133-4.88525,4.88769a15.70171,15.70171,0,0,0-13.43555,6.72168h-5.49658c-1.22119-.40137-2.24268-.707-3.05371-.917a11.455,11.455,0,0,0-4.27491.30566q-2.44774-3.0498-3.66406-1.833a33.29409,33.29409,0,0,0-1.22168,6.7207l-5.49609,1.833-3.05371-3.666c.40088.82129-.21,1.63281-1.832,2.44434-1.63184.82129-3.96973,1.833-7.02344,3.05468-3.05322,1.22266-5.19043,2.043-6.41211,2.44434l-3.05371-5.499a2.00323,2.00323,0,0,0-2.44239.61133,3.5082,3.5082,0,0,0-1.22167,2.44335q-6.11206,4.89844-12.21387,4.88868v5.499c-3.26367-1.22266-4.27539-2.64453-3.05371-4.27734q-4.28028,0-11.90918,2.75-7.64357,2.748-11.29785,2.749l-1.832,2.44434q-9.77635.60059-15.26757.61035-3.063-1.23048-3.66407-2.44336c-.41064-.82129,0-1.43262,1.22071-1.833h2.44336l-.61084-3.05566H810.499l-7.93847-2.44336-4.27539-7.94336-4.27491.61133c-1.63134,0-3.26318-1.62305-4.88525-4.88868q-2.43384-4.88232-3.05371-6.10937l-1.832.61035-4.88574-2.44336,4.27441-2.44434V650.8584c0-.81055-1.01123-1.42188-3.05322-1.833-2.03272-.40039-3.05323-1.01172-3.05323-1.833l-5.49658-1.833Z"/><path class="cls-16" d="M1108.51563,612.97656V610.5332l3.05322-9.77636a5.40045,5.40045,0,0,1-2.44287-.61133q-.60058-3.04981,2.44287-3.666v-4.27636h2.44287l-1.832-9.165q0-4.88379,6.71777-20.77442,4.88087-11.59863,10.38184-23.21777h2.44287q6.71265-20.76415,39.39062-54.68506,32.66382-33.91039,54.04737-43.68652,28.08324-20.16285,50.07812-32.38282,34.19532-19.54759,53.74219-19.55224,15.87378,0,24.42871,10.3872,8.54443,10.39674,8.5498,26.27295l-.61084,6.7212a41.39037,41.39037,0,0,1-2.44287,4.27685,53.83891,53.83891,0,0,1-.61084,5.499,27.97676,27.97676,0,0,0-1.832,3.05469l-4.88574,10.99805a10.602,10.602,0,0,1-3.05322,1.22217,2.45817,2.45817,0,0,0,.61035,1.833l-7.32813,10.38672-3.05371,1.22217-1.22168,4.88818q-1.23047-.6013-6.10693,3.666-1.2312,1.2312-5.49658,5.499l-5.4961-.61132-6.10742,3.666c1.22168.41113,2.64356.82129,4.27539,1.22266l-9.77148,7.33105-3.05371-1.833-1.832.61133.61084,4.27735-11.60352,3.05517q-8.55908,9.16552-28.70312,17.1084-6.7273,2.44776-19.54248,6.7207a14.96006,14.96006,0,0,1-3.66407,1.833q-2.44774,0-8.85547,3.05469c-4.2749,2.043-6.62207,3.05566-7.02343,3.05566q-7.32862,3.665-18.93164,8.55371-11.60815,4.897-14.65723,3.666L1186.0752,559.209q1.21654-.602,2.44287,2.44434l-2.44287-1.22266h-3.05372v3.666l4.2754,1.833q-1.23194,0-3.05372,9.77636a105.98355,105.98355,0,0,0-1.832,19.55176q0,15.895,7.32813,25.96778,7.32861,10.08105,21.98535,10.08105,15.87452,0,40.91748-15.88574,19.53808-12.21534,39.08545-25.05078,11.59423-10.38282,23.207-21.38574a176.047,176.047,0,0,1,15.26758-9.7754l1.832,5.499q-3.063,6.11426-13.74121,14.66406-10.69189,8.56347-13.74072,12.21973h-2.44287l-7.32813,6.11035-3.05371,3.05469-4.27539,6.11035h-2.44238q-7.94385,7.94677-12.21436,12.21972a139.69122,139.69122,0,0,1-13.43555,12.21973l-39.6958,30.54981a19.28891,19.28891,0,0,0-4.2749,1.22265q-1.2312.61524,1.22119,2.44336l-18.93164,10.998v-3.05469l-6.10742,3.05469.61084,2.44433q-1.83179.61524-8.54981.61133l-2.44287,1.833h-5.49609l-3.05371,3.666c-1.22168-.82129-3.874-1.22266-7.93945-1.22266h-15.26758l1.22168-2.44336a17.35515,17.35515,0,0,1-7.63379-.61133q-4.58057-1.21728-9.46582-3.05469v-2.44433l4.27441-1.22168-1.832-1.22266H1128.669a13.40941,13.40941,0,0,1-6.71778-6.7207l4.27442-1.22168-1.832-3.05566-6.10693.61132q-3.66431-8.54883-1.832-14.66406l-3.05322.61133V645.9707c2.44238,0,3.4541-.81152,3.05322-2.44433H1110.958a8.20791,8.20791,0,0,0,3.66455-7.33106l-4.88574-8.55468,2.44287-2.44336-3.66406-5.499Zm164.89062-115.479a68.05363,68.05363,0,0,0,16.79443-20.46875,50.41268,50.41268,0,0,0,6.4126-24.13428,21.06314,21.06314,0,0,0-4.88574-13.44238,15.66377,15.66377,0,0,0-12.8252-6.10986,6.31135,6.31135,0,0,0-6.10693,3.666h-5.49658l2.44336,3.05518,1.832-1.22217-17.71094,12.83105q-1.83178,5.499-8.5498,9.165l-7.939,5.499v2.44384h4.88574l-6.10693,1.22217-2.44336,1.833-3.66406,3.05469-1.832,3.05517H1225.771l-1.2212,1.833c0,.82129,1.62208,1.833,4.88575,3.05518l-3.66455,3.05468q-1.8318,0-9.771,6.11036l-1.22168,7.332-1.22168,3.05517h-2.44238l-6.71778,9.165,1.832-2.44433h3.05371l-3.05371,3.05566-2.44288.61035v2.44434q-9.1604,1.23193-10.99267,3.05468l1.832,1.833,1.832-1.22168h5.49658l-1.83252,3.05469h-2.44238v4.88867l1.832,1.22168a6.31086,6.31086,0,0,0-6.10742,3.666q15.87451,0,42.75-11.30371Q1263.01928,509.11182,1273.40625,497.49756Z"/><path class="cls-16" d="M1412.0332,569.5957V564.708a41.32764,41.32764,0,0,1,4.27442-2.44434l8.55029-4.88769,3.05322.61132v4.27637l-4.88574,4.27735-1.832,4.88769q0,1.83252-3.3584,13.44238-3.364,11.61329-3.35937,15.27442a44.35806,44.35806,0,0,0,3.96972,17.71972q3.96534,9.16407,10.07715,13.44141l3.66406,2.44434q12.82471,9.16552,25.64942,7.332l.61084,2.44336,1.22119-3.05469,3.66406-3.666,6.10742,1.22266,1.832,3.666,6.71778-7.94336q7.32861,2.44921,10.99267,2.44433-1.83252-2.43456-1.22168-3.05566l3.05371-4.27637,4.88575,1.22168c-.41016-.81152,0-1.833,1.22168-3.05469,1.22168-1.22265,2.44238-1.623,3.66406-1.22265a26.7966,26.7966,0,0,0,6.10742-17.71875q0-11.6001-10.38183-20.16309a72.471,72.471,0,0,0-18.32178-10.08105q-10.39161-3.9668-24.12305-13.44239-13.74024-9.46581-19.2373-13.13671l1.832-3.666-3.05323-4.27637-1.22119,4.8877a86.11882,86.11882,0,0,1-16.48925-21.9961l1.832-1.833-4.27491-.61133q-1.83178-4.88232-2.748-7.94238a12.41521,12.41521,0,0,1-.30518-6.11036q-1.83252-5.499-3.66455-10.99853,0-22.59741,18.93213-42.15869,9.16039-9.16552,69.00928-48.269l15.26855-9.77636,17.09961-10.38672,3.05371-.61084a77.97719,77.97719,0,0,1,9.77051-3.05518,71.08841,71.08841,0,0,1,18.32129-2.44385q21.3706,0,33.28418,13.74756,11.90772,13.74682,11.9082,35.74317c0,1.22217-.71582,3.5708-2.13769,7.02636q-2.146,5.19873-2.748,6.41553l-5.49609,4.27735,3.05371-.61133-1.22168,1.833q-3.66359,6.731-6.71778,12.52587a104.26716,104.26716,0,0,1-7.93945,12.52539l-1.832-2.44433q-9.15967,7.94824-19.542,18.33008-17.105,18.33032-19.543,20.16357l-2.44238-1.22168,6.71777-15.27588-1.22168-1.22168a62.92782,62.92782,0,0,0,.61035-9.77636V473.05713c-1.22168-4.0669-2.042-6.92139-2.44238-8.55371q-7.94385-18.33033-14.04688-25.66211-10.99218-13.43262-25.03906-13.4419-10.99218,0-15.26758,8.5542a11.44173,11.44173,0,0,1-3.66357.61084v3.666q0,3.06445-4.88574,21.99609a99.20373,99.20373,0,0,0-3.05371,15.2749,28.31686,28.31686,0,0,1,2.44238,3.666q3.0498,4.28173,4.27539,3.666l1.832,9.77539,4.88525,1.22265a48.89477,48.89477,0,0,0,4.27539,7.94287,15.70754,15.70754,0,0,0,6.10743,5.499c1.2207,2.043,2.23242,3.26562,3.05273,3.666a1.696,1.696,0,0,1,.30566,2.44434q-.91552,1.23193,6.41211,6.11035l7.32911-1.22266-1.22168,6.11036a21.9229,21.9229,0,0,0,4.27539.917c1.62207.21,2.44238.71582,2.44238,1.52734l1.832,3.666,4.27539-1.22266,7.32813,12.2207,1.832-9.165q2.4331,1.23046,3.66406,6.10937h2.44336q3.66357,1.23193,7.02246,2.75,3.3501,1.53222,2.749,3.36035,6.09669,7.33155,7.93848,12.21973a23.29661,23.29661,0,0,0,4.88574-1.833l.61133,4.27734-3.665,3.666-.61035,3.05469,3.66406-3.666,1.22168,1.833,2.44239,5.499a43.16139,43.16139,0,0,0-3.3584,6.11035q-2.748,5.499-3.96973,4.8877l-.61035,5.499,1.2207,3.05469-11.60254,13.44238-1.833-1.833q-3.063,6.11425-11.60253,11.91406-8.56056,5.81543-15.87891,10.69336a45.79585,45.79585,0,0,0-7.93945,6.7207q-4.894,4.897-8.24414,7.94336-3.36329,3.06445-4.58008,4.27637-4.28028,4.28173-4.88574,3.666l-4.88575,4.8877h-2.44336l-4.88525,4.27734,1.832,3.05469-3.66406,6.11035-4.27539-1.22168c0-2.03418-.41016-3.05566-1.2207-3.05566v4.27734l-1.22168,4.27735-1.832-.61133-5.49658,3.666v4.8877a3.35369,3.35369,0,0,1-3.05322-.30469A10.03645,10.03645,0,0,1,1461.5,674.6875l-.61035,2.44434q-5.49609,1.83252-5.4961,3.666l-4.27539,1.22168-4.88574,2.44434h-8.5498v3.05468l-4.88574,1.22266c.81152.81152.70605,1.72754-.30518,2.749-1.021,1.01172-1.937,1.11719-2.74854.30567l-1.2207-5.499-1.22168,3.05468-3.05371,3.05567-1.832-4.88868.61035-1.833h-3.66406v7.332a24.475,24.475,0,0,0-6.71778-.61035q-12.22338,0-15.26757-1.833l-2.44287.61035-2.44288-4.88769-8.5498-.61133v-4.8877l-1.832,1.22168a36.62279,36.62279,0,0,1-16.48926-15.88574,48.85788,48.85788,0,0,1-5.49609-23.21777q0-21.38086,17.09961-40.9375,15.25781-16.49708,31.146-32.99414Z"/><path class="cls-16" d="M1866.38623,612.97656V610.5332l3.05322-9.77636a5.40049,5.40049,0,0,1-2.44287-.61133q-.60132-3.04981,2.44287-3.666v-4.27636h2.44287l-1.832-9.165q0-4.88379,6.71778-20.77442,4.88085-11.59863,10.38183-23.21777h2.44287q6.71339-20.76415,39.39063-54.68506,32.66309-33.91039,54.04785-43.68652,32.36207-21.99611,50.07764-32.38282,34.19457-19.54759,53.74218-19.55224,15.87378,0,24.73389,10.08154,8.84545,10.08178,8.855,26.57861l-1.22119,6.7212h-1.832a9.1459,9.1459,0,0,0,2.44238,1.833l-3.05322,7.94287a20.48487,20.48487,0,0,1-2.44287,3.05469l-4.88574,10.99805a10.60256,10.60256,0,0,1-3.05372,1.22217,2.45833,2.45833,0,0,0,.61084,1.833l-7.32861,10.38672-3.05322,1.22217-1.22168,4.27686q-1.23047-.60132-6.10693,4.27734-1.23122,1.2312-5.4961,5.499l-5.49658-.61132-6.10693,3.05566q0,2.44776,4.2749,1.833l-9.16065,7.33105-3.66406-1.833-1.83252.61133.61084,4.27735-11.60351,3.05517q-6.7273,7.33155-21.98536,14.05274a202.51925,202.51925,0,0,1-25.64941,9.165c.40039.41113.30518.82128-.30566,1.22265-.61084.41016-1.937.61035-3.96973.61035a28.57577,28.57577,0,0,0-7.939,2.75q-4.27953,2.14746-9.77148,4.8877-5.49609,2.74952-17.09961,7.63769-11.60816,4.897-14.65723,3.666L1943.9458,559.209q1.21656-.602,2.44287,2.44434l-2.44287-1.22266h-3.05371v3.05567l4.2749,2.44336q-1.83179,7.94824-2.44287,11.60937-2.447,12.83057-2.44238,17.71875,0,15.895,7.32812,25.96778,7.32862,10.08105,21.98584,10.08105,15.873,0,40.917-15.88574,19.53808-12.21534,39.08544-25.05078,11.59352-10.38282,23.20655-21.38574a176.0715,176.0715,0,0,1,15.26806-9.7754l1.832,4.8877q-3.063,7.94824-12.21436,14.66406-13.43994,10.396-15.26758,12.83106H2059.98l-7.32861,6.11035-3.05323,3.05469-4.2749,6.11035h-2.44287q-4.89551,4.897-9.16064,9.165-10.39161,10.998-15.87842,15.27441l-39.6958,30.54981a32.8263,32.8263,0,0,0-3.96973,1.22265c-1.021.41016-.916,1.22168.30518,2.44336l-18.93164,10.998v-3.05469l-6.10743,3.05469.61084,2.44433q-1.83179.61524-8.5498.61133l-2.44287,1.833h-5.4961l-3.05371,3.666c-1.22168-.82129-3.874-1.22266-7.93945-1.22266h-15.26758l1.22168-2.44336a17.35476,17.35476,0,0,1-7.63379-.61133q-4.58057-1.21728-9.46631-3.05469v-2.44433l4.27491-1.22168-1.832-1.22266h-7.32813a13.40944,13.40944,0,0,1-6.71777-6.7207l4.2749-1.22168-1.83252-3.05566-6.10693.61132q-3.66431-8.54883-1.832-14.66406l-3.05372.61133V645.9707c2.44288,0,3.45459-.81152,3.05372-2.44433h-5.49659a8.209,8.209,0,0,0,3.66455-7.33106l-4.88574-8.55468,2.44287-2.44336-3.66406-5.499Zm164.89063-115.479a85.787,85.787,0,0,0,17.40527-20.77442,46.49127,46.49127,0,0,0,6.41211-23.82861,19.99139,19.99139,0,0,0-5.19092-13.74756,16.87635,16.87635,0,0,0-13.12988-5.80468,6.31159,6.31159,0,0,0-6.10742,3.666h-5.4961l2.44287,3.05518,2.44287-1.22217-18.32128,12.83105q-1.23122,5.499-7.93946,9.165l-8.5498,5.499v2.44384h4.88574l-6.10693,1.22217-2.44288,1.833-3.66455,3.05469-1.832,3.05517h-2.44287l-1.22119,1.833c0,.82129,1.62207,1.833,4.88574,3.05518l-3.66455,3.05468q-1.83178,0-9.771,6.11036l-1.22168,6.7207-1.2212,3.6665h-2.44287l-6.71777,8.55371,2.44287-1.833h2.44287l-2.44287,2.44433-3.05371.61133v3.05469q-8.55908,1.23193-10.38184,3.05468l1.2212,1.833,1.832-1.22168h5.49658l-1.832,3.05469h-2.44287v4.88867l1.832,1.22168a6.31019,6.31019,0,0,0-6.10694,3.666q15.87306,0,42.74952-11.30371Q2020.88989,509.11182,2031.27686,497.49756Zm4.2749-169.24707v-5.499q17.09032-23.21337,21.375-28.106,8.54444-10.998,12.519-13.4419,3.96534-2.43456,7.32861-4.583,3.34937-2.13356,3.96973-3.9712l-.61084-3.05517,3.05371-5.499,7.32862-1.22167,1.832-3.05518h-2.44287l-1.22168-3.05518a26.87483,26.87483,0,0,1,10.6875-4.88769,64.20361,64.20361,0,0,1,13.13037-1.22217q2.43311,0,8.24463,3.36035a28.83347,28.83347,0,0,0,11.29785,3.97168,20.44739,20.44739,0,0,1,9.16064,3.05518l7.32861-1.22217a13.85548,13.85548,0,0,1,9.16065,3.666,11.01611,11.01611,0,0,1,4.2749,8.55419q0,5.499-12.82519,18.32959-26.26465,26.8938-34.81006,25.05127l-2.44287,2.44385q0,3.06446-7.939,9.77588-4.8955-.60132-9.77148,3.05518l.61084,3.05517q-13.44067,10.396-17.1001,12.83106a37.52281,37.52281,0,0,1-20.15332,6.10986l.61084-5.499-1.22119-1.22217-4.88574,2.44433-3.66456-1.22216-1.22119-3.666-1.832-1.833-2.44287.61084-8.5498-2.44384v-4.88819l-3.05371-4.27685Z"/><path class="cls-16" d="M2125.93262,647.80371l-2.44287-4.27734,6.71777-4.27637q0-1.21728-3.66455-2.44434l-1.22119-5.499a20.13024,20.13024,0,0,1,1.52685-7.02637q1.5315-3.96679,2.13721-5.80468l-2.44287-2.44336,4.27539-6.72168v-3.05469l3.66406-5.499-.61084-5.499a17.21016,17.21016,0,0,0,2.74805-4.27734c1.01172-2.0332,2.13769-2.84473,3.35889-2.44336a42.38424,42.38424,0,0,1,3.05371-15.27539l4.2749-9.77539q5.49683-1.21729,5.49658-7.94336,0-6.10107,16.48877-35.43848,16.489-29.32836,15.87842-29.939,4.88085-6.71631,10.07666-15.27539a121.07643,121.07643,0,0,0,8.24463-15.88575,60.38279,60.38279,0,0,0,3.96972-7.02636c2.23291-4.27735,3.75977-6.20557,4.58008-5.80469l7.93946-15.2749,1.22119-3.666q6.71337-12.21533,10.99267-18.94092,7.92993-12.8313,12.21436-15.88623l11.60351-23.8291q2.43311,1.23194,2.74805-.9165a36.58075,36.58075,0,0,1,1.22119-5.19336,30.23171,30.23171,0,0,1,1.52686-4.27686,72.17972,72.17972,0,0,1,6.71777-10.998l40.91748-69.65381a46.4664,46.4664,0,0,0,4.88574-4.27735q12.20947-3.0498,25.03907-6.7207l4.2749-4.88818-1.22168-3.05518h3.66455l-.61084,2.44434H2348.23l21.98535-7.94336,4.2749,3.666a25.99657,25.99657,0,0,0,1.2212,13.44239l-29.92432,48.26855-1.22168,4.27734-9.16064,14.05274a6.65782,6.65782,0,0,0,1.22167,1.833,66.23046,66.23046,0,0,0-6.71777,4.27734l3.05322,1.833c-1.63134.41015-3.05322.8208-4.2749,1.22168q-1.83179.616-1.832,4.88818l-4.88574,3.05518c.40088.8208.20068,2.13818-.61035,3.97119-.8208,1.833,0,2.95947,2.44238,3.36035l-3.05322,6.11035q.60132-3.05053-3.66455-3.05517l-.61036,3.05517-5.49658,3.666,3.66455-.61133,4.88526,2.44434c-2.042,1.22168-3.46387,2.043-4.27491,2.44384q-5.49609,3.06445-6.71777,2.44385a36.49664,36.49664,0,0,1-7.32812,12.83106l5.49609-1.833-2.44287,3.05517,1.832.61084-3.66406,4.88819-2.44287-1.833a1.76589,1.76589,0,0,0-.61084,1.22168q2.43384,4.89771,1.83252,6.11035l-7.93946,3.05469,3.05371,1.833-8.5498,1.22216-1.83252,6.10987h6.71777l-6.10693,3.666,6.10693,1.833-7.939,1.22217-1.22168-2.44385a17.82251,17.82251,0,0,0-.61035,4.27686c0,1.22216.61035,3.26513,1.832,6.10986l-10.38184,2.44434,1.22119,3.66552-1.22119,5.499a6.32571,6.32571,0,0,1,2.44239-1.22168c2.44287-1.22217,4.06543-1.833,4.88574-1.833v4.27685h-4.2749a4.08286,4.08286,0,0,0-.61084,5.499l-13.43555,3.05517.61084,4.8877-4.2749,4.27734,8.5498-6.11035,4.2749,4.88818v3.05518h-2.44287l-15.87793,5.499a67.79287,67.79287,0,0,1-7.32861,4.27686l-1.22168,4.27685,18.32129-3.05517v4.88818q-1.2312,0-4.2749,4.88819a14.93414,14.93414,0,0,1-3.66407,1.833l-5.49658,3.666h4.88574l-6.10693,3.666-2.44287-1.833c-3.26367,0-4.88574,1.63281-4.88574,4.88769l3.05371,1.22168,4.2749-2.44336,2.44287,3.05469-4.2749,6.11084q4.88087,1.83252,4.2749,3.05469l-9.16064-.61133-1.832-3.05469-1.22168,3.05469c-.41016,1.22266-1.52686,1.833-3.35889,1.833s-2.748,1.43261-2.748,4.27734l1.832-.61133,11.60352,1.22266v3.05469q-4.8955-.60206-12.82471,1.833v6.11036l8.54981,2.44336q-4.28028,2.44921-6.71778,2.44433a15.21126,15.21126,0,0,0-6.71777-1.833l-2.44287,1.833,4.2749,3.666-.61084,1.833h-4.88574l-1.22119,1.833a19.87342,19.87342,0,0,0,4.88574.61133v3.05469q4.26489-.60205,5.49609.61133l1.22168,6.7207-4.88574.61133-6.10693,4.88769-1.22168,4.27735,2.44287,3.666h3.05371l-3.66455,2.44336-6.10693-.61035-3.05372,1.833,4.88575,3.665h4.88574q-6.11207,1.23194-12.21436,2.44433v3.666h7.32862l.61084,3.05469a36.85111,36.85111,0,0,1-4.88575.61132q-1.2312,0-6.10693,1.833l-3.66455-1.22168-3.05322.61035v6.72168q1.83178,1.23048,4.58008,0,2.748-1.21728,2.74853-3.666l6.10693,1.22168q-3.063,8.56347-4.2749,10.998l-4.88574,1.833,1.22119,5.499-7.939,4.88769,1.22119,1.833h6.10742l2.44287-1.833-1.83252,5.499-4.88525,2.44434c.40039,3.26465-.21,4.8877-1.83252,4.8877l4.2749,4.27734q17.7063-4.88379,51.605-28.41113,33.89428-23.51514,68.70459-47.96387-39.09009,38.49316-75.72754,70.26465-53.13208,45.8247-82.4458,60.48926v2.44433l-4.88525-1.22265q-3.6643,4.26855-11.60352,7.332a39.94413,39.94413,0,0,1-14.04639,3.05566c.811-.82129.70606-1.73828-.30517-2.75q-1.5315-1.53222-2.74854-.30566l-7.939-5.499a2.00833,2.00833,0,0,1,2.44287-.61035,27.73163,27.73163,0,0,1,3.66406,2.44336h9.16065l2.44287,1.833v-2.44336l-1.832-.61133q-8.55982-1.83252-10.99268.61133l-1.832-5.499h-2.44287V669.7998c-2.44287.41016-3.86475.21-4.2749-.61132a7.49226,7.49226,0,0,0,3.05322-1.833l-.61084-7.332h-3.66406l1.22168-3.05469,8.5498-3.05469h-6.71777l-4.27491-3.666Z"/><path class="cls-16" d="M2324.40869,628.86328l6.10694-1.22265.61083-4.27637,4.88575,4.27637v-6.10938l-7.32862.61035a24.11492,24.11492,0,0,0-3.05371-3.666l1.832-6.10938,3.05372-2.44433-1.832-4.8877a28.20057,28.20057,0,0,0-.61084-5.499q6.09743-1.834,7.32862-3.666l-2.44287-9.165q6.09741-7.333,7.939-9.165l-1.22119-5.499c3.25391-1.22266,5.08594-1.623,5.49609-1.22266l3.05371-8.55371-3.05371.61133v-6.11035h4.88575q-.61524-5.499,3.05371-15.27442l5.49609,1.22168,4.88574-1.833-5.49609-3.05469,7.32812-6.72168a1.8377,1.8377,0,0,0,2.74854,0c1.01123-.81152,1.11621-1.623.30517-2.44336l-4.2749-2.44434,2.44287-2.44433.61084-6.10938,5.4961-2.44433-1.22119-3.666,5.49609-9.165,6.71777-3.05517,3.05371-8.55469c.40088.41113,1.3169.21094,2.74805-.61035q2.13282-1.2173.30566-3.05469l4.88526-1.833-.61035-4.27734q10.377-9.76684,20.76367-20.16309v-6.72119a207.15149,207.15149,0,0,0,18.93213-18.94092q7.92993-9.16479,10.99267-12.83105,6.71339-9.76611,28.09278-17.71875a312.6535,312.6535,0,0,1,34.19922-9.77637l6.10742,7.332q0,5.499-4.88574,5.499a106.22092,106.22092,0,0,1-10.38233,20.16308q-9.16039,14.66382-14.65674,15.88623v3.05469l-6.71777,4.88818,1.832,4.88819-14.65674,18.32959q-2.44774,1.83324-1.22168,3.05517l-6.71777,1.22217,1.832,5.499-6.10693,10.38672q-2.44776-.60059-7.939,3.05469l3.05322,3.6665-7.32812,10.3877a14.28906,14.28906,0,0,1-.30566,2.749c-.21,1.02149-.71582,1.32715-1.52686.917a42.89264,42.89264,0,0,1-3.05322,6.10937q-1.83252,3.06445-7.32862,10.3877v4.88769l1.2212,1.22168-9.16016,5.499-1.22168,12.83106-5.49658-1.22168q-.61524.61524-.61035,9.165l-1.22168,4.27637-1.832.61132,2.44287,2.44434-1.2212,9.77539a16.38556,16.38556,0,0,0-7.32861,6.72168l3.05322,9.165-4.88525,9.165q0,7.94677,2.74805,12.83105,2.748,4.897,10.07666,4.8877,11.5935,0,41.52783-18.33008,29.915-18.3296,34.81055-27.49512l-.61084-2.44433,7.32861-7.332,1.22119-9.7754,3.66455-3.05468h2.44287l-.61084-3.666a16.6016,16.6016,0,0,1,1.52686-6.11035,51.20935,51.20935,0,0,1,3.35889-6.7207l1.832-4.88868q1.83179,0,2.44287-4.27636a13.87637,13.87637,0,0,1,2.748-8.55469q2.74806-3.665,5.80176-7.94238,7.32861-10.38282,9.77149-14.66455a45.663,45.663,0,0,0,6.71777-15.88623l41.52783-59.26709,6.10694-9.77588q6.09815-1.83326,11.60351-8.5542l4.88574,1.833a1.76209,1.76209,0,0,0,1.2212-.61084c0-2.44385-.82032-3.45606-2.44239-3.05518q3.04834-3.66577,21.67969-9.165,18.62182-5.499,25.34473-5.49853l-1.83252,20.16259-1.22119,4.27735q-2.44776,2.44848-3.05372,3.05468-3.063,3.66651.61084,4.88819l-7.32861,4.88818v4.8877q0,1.23194-3.05322,3.666a17.72554,17.72554,0,0,1-4.88574,3.05518q3.6643,5.499,3.66406,7.332l-4.88574,4.27686-2.44287-1.22217c-1.2212,2.44433-1.63135,3.876-1.2212,4.27734l-5.49658-1.22217v4.88819l4.88574.61084v3.05517a19.70715,19.70715,0,0,1-4.88574,1.22168,40.007,40.007,0,0,1-6.71777,14.66406c-.41016-.40087-1.832-.81152-4.2749-1.22216l1.83252,3.05517c0,.82129-1.63184,1.833-4.88575,3.05518l1.832,1.833-4.88574,6.11035,3.05371,4.27636-4.88574,3.05469H2591.898c-1.63135.82129-2.44287,1.833-2.44287,3.05567a22.2304,22.2304,0,0,0,3.05371,1.22168l-.61084,4.88818,1.22168,1.833-4.88574,3.05566,1.832,3.05469c0,2.44434-1.43115,4.27734-4.2749,5.499a47.63675,47.63675,0,0,1-6.71778,2.44434l7.32862,6.10937-1.832,1.833-4.88574,1.22266-1.22168,4.27636-7.939,4.27735-2.44287-.61133-4.88575,2.44434,3.05372,3.666,3.66406-1.22168,2.44287,1.22168h4.88574l-1.832,4.8877h-3.66455l-.61035,4.88867h-5.49658l-1.2212,2.44336,3.66407,3.666-1.832,5.499-5.49659,4.88769-.61035,5.499a1.57485,1.57485,0,0,0-2.13769.61132,17.21289,17.21289,0,0,1-1.52686,1.833l1.22168,6.72071c-.8208-.81153-1.63184-.61036-2.44287.61132a6.238,6.238,0,0,0-1.22168,2.44434l1.22168,6.7207h-3.66455l-1.22119,9.165a21.5449,21.5449,0,0,0,1.22119,7.94336,36.067,36.067,0,0,0,4.2749,7.332l6.10742,2.44336q8.54517-3.0498,48.85645-25.35644,40.30663-22.29639,40.91748-22.30176-17.105,11.61474-29.314,20.77441-17.72021,13.44728-27.48193,23.8291l-6.10693.61133q-15.88843,14.66308-16.48926,15.27442a70.6371,70.6371,0,0,1-12.21387,7.94336l-1.83252,1.22168a362.081,362.081,0,0,1-39.085,22.60742l-1.22168-1.22266-6.10693,2.44434c-.8208-1.62305-1.63184-2.33887-2.44287-2.13867-.8208.21-1.021.917-.61084,2.13867l-12.82471,1.22168q-5.49609,0-10.99268-8.55371a52.71013,52.71013,0,0,1-7.32861-16.49707l.61084-2.44336,1.832-1.22266c-.82031-2.0332-1.52685-3.97168-2.13721-5.80469a15.07972,15.07972,0,0,1-.916-4.582l3.05322-5.499-1.22119-10.99805,1.832-2.44434v-4.27636h2.44287v-6.72168l2.44287-4.27637q-5.49682,4.28173-14.65722,12.21973-4.89479,4.28173-14.0459,12.83105-3.06372,3.66651-13.13037,12.52539-10.07667,8.86377-11.29785,10.69239l-6.71778,3.05468-3.66455,6.11035-2.44287,1.833a52.418,52.418,0,0,0-14.65674,11.60938l-3.05371-.61133a57.23715,57.23715,0,0,1-4.88574,3.05469v2.44433a32.84433,32.84433,0,0,0-8.54981,3.36035c-2.44287,1.43262-4.48486,2.54883-6.10693,3.36036a92.69567,92.69567,0,0,0-14.9624,1.833q-10.07666,1.834-22.291,4.88868-.61523-2.44923-4.58007-4.27735-3.97926-1.83252-5.19092-2.44433-6.11206-11.59865-9.16065-18.33008a125.76792,125.76792,0,0,1-6.10693-17.71875l1.832-3.666-3.66455-3.666Z"/><path class="cls-16" d="M2707.93066,569.5957V564.708a41.33856,41.33856,0,0,1,4.27491-2.44434l8.5498-4.88769,3.05371.61132v4.27637l-4.88574,4.27735-1.832,4.88769q0,1.83252-3.35889,13.44238-3.364,11.61329-3.35888,15.27442a44.34974,44.34974,0,0,0,3.96972,17.71972q3.96461,9.16407,10.07666,13.44141l3.66406,2.44434q12.82472,9.16552,25.64991,7.332l.61035,2.44336,1.22168-3.05469,3.66406-3.666,6.10742,1.22266,1.832,3.666,6.71778-7.94336q7.32861,2.44921,10.99267,2.44433-1.83252-2.43456-1.22168-3.05566l3.05371-4.27637,4.88575,1.22168c-.41065-.81152,0-1.833,1.22119-3.05469,1.22168-1.22265,2.44287-1.623,3.66455-1.22265a26.79881,26.79881,0,0,0,6.10693-17.71875q0-11.6001-10.38183-20.16309a72.46762,72.46762,0,0,0-18.32129-10.08105q-10.39161-3.9668-24.123-13.44239-13.741-9.46581-19.2373-13.13671l1.832-3.666-3.05323-4.27637-1.22168,4.8877a86.13011,86.13011,0,0,1-16.48925-21.9961l1.83252-1.833-4.27491-.61133q-1.83252-4.88232-2.74853-7.94238a12.42676,12.42676,0,0,1-.30518-6.11036q-1.83252-5.499-3.66406-10.99853,0-22.59741,18.93164-42.15869,9.16039-9.16552,69.00977-48.269l15.26806-9.77636,17.1001-10.38672,3.05274-.61084a78.02828,78.02828,0,0,1,9.77148-3.05518,71.08841,71.08841,0,0,1,18.32129-2.44385q21.37061,0,33.28418,13.74756,11.9077,13.74682,11.9082,35.74317c0,1.22217-.71582,3.5708-2.13769,7.02636q-2.146,5.19873-2.74805,6.41553l-5.49707,4.27735,3.05469-.61133-1.22168,1.833q-3.66358,6.731-6.71778,12.52587a104.26716,104.26716,0,0,1-7.93945,12.52539l-1.832-2.44433q-9.16113,7.94824-19.543,18.33008-17.10351,18.33032-19.543,20.16357l-2.4414-1.22168,6.71679-15.27588-1.2207-1.22168a62.92782,62.92782,0,0,0,.61035-9.77636V473.05713c-1.22168-4.0669-2.042-6.92139-2.44238-8.55371q-7.94532-18.33033-14.04688-25.66211-10.99218-13.43262-25.03906-13.4419-10.99218,0-15.26758,8.5542a11.44243,11.44243,0,0,1-3.66406.61084v3.666q0,3.06445-4.88574,21.99609a99.26274,99.26274,0,0,0-3.05371,15.2749,28.3339,28.3339,0,0,1,2.44287,3.666q3.04907,4.28173,4.2749,3.666l1.83252,9.77539,4.88525,1.22265a48.93,48.93,0,0,0,4.27491,7.94287,15.71423,15.71423,0,0,0,6.10742,5.499c1.22119,2.043,2.23291,3.26562,3.05322,3.666a1.69643,1.69643,0,0,1,.30566,2.44434q-.91626,1.23193,6.41211,6.11035l7.32862-1.22266-1.22119,6.11036a21.912,21.912,0,0,0,4.27441.917c1.623.21,2.44336.71582,2.44336,1.52734l1.832,3.666,4.27539-1.22266,7.32813,12.2207,1.832-9.165q2.43311,1.23046,3.66406,6.10937h2.44336q3.66357,1.23193,7.02246,2.75,3.3501,1.53222,2.749,3.36035,6.09669,7.33155,7.93848,12.21973a23.29661,23.29661,0,0,0,4.88574-1.833l.61133,4.27734-3.665,3.666-.61035,3.05469,3.66406-3.666,1.22071,1.833,2.44335,5.499a43.22475,43.22475,0,0,0-3.35937,6.11035q-2.748,5.499-3.96875,4.8877l-.61133,5.499,1.22168,3.05469-11.60254,13.44238-1.833-1.833q-3.063,6.11425-11.60253,11.91406-8.56056,5.81543-15.87891,10.69336a45.75927,45.75927,0,0,0-7.93945,6.7207q-4.89478,4.897-8.24463,7.94336-3.36328,3.06445-4.58008,4.27637-4.27954,4.28173-4.88574,3.666l-4.88575,4.8877h-2.44287l-4.88525,4.27734,1.832,3.05469-3.66455,6.11035-4.2749-1.22168c0-2.03418-.41016-3.05566-1.22119-3.05566v4.27734l-1.22168,4.27735-1.832-.61133-5.4961,3.666v4.8877a3.35469,3.35469,0,0,1-3.05371-.30469,10.03077,10.03077,0,0,1-2.44287-1.52832l-.61084,2.44434q-5.49609,1.83252-5.49609,3.666l-4.27491,1.22168-4.88574,2.44434h-8.5498v3.05468l-4.88575,1.22266c.811.81152.70606,1.72754-.30566,2.749-1.021,1.01172-1.937,1.11719-2.74805.30567l-1.22119-5.499-1.22168,3.05468-3.05322,3.05567-1.83252-4.88868.61084-1.833h-3.66406v7.332a24.47738,24.47738,0,0,0-6.71778-.61035q-12.22411,0-15.26757-1.833l-2.44288.61035-2.44287-4.88769-8.5498-.61133v-4.8877l-1.83252,1.22168a36.624,36.624,0,0,1-16.48877-15.88574,48.85244,48.85244,0,0,1-5.49658-23.21777q0-21.38086,17.1001-40.9375,15.25781-16.49708,31.146-32.99414Z"/><path class="cls-16" d="M3320.457,408.2915q18.3208-13.4326,32.06152-19.85742,13.74171-6.416,21.68067-6.41553a39.84276,39.84276,0,0,1,21.98437,6.72071l4.27539-9.77588,3.66407-1.22217,2.44336-7.94287a24.12235,24.12235,0,0,0,3.35937-5.19336q.91407-2.13428,2.74805-.9165l4.88476-8.5542h-3.05273q0-1.83252,3.66406-4.27686c2.44238-1.623,3.66406-3.666,3.66406-6.10986,0-1.22217,1.11622-2.53955,3.35938-3.97168,2.23242-1.42236,3.3584-2.53955,3.3584-3.36035q0-5.499,28.70312-44.603,28.69776-39.09449,32.97754-40.32617l2.44336-6.10987,18.93164-12.83105,13.43555-4.88818q14.65722-6.71631,26.87109-6.72071l8.55078,1.22168,1.22071,9.77637-6.10742,3.05469-1.832,6.10986-2.44238.61133v3.666H3548.25q-3.063,6.11427-7.63379,13.4419-4.58057,7.33227-10.6875,15.2749l-3.05371,1.22217v6.72119l-6.7168,2.44385,2.44239,3.666a6.71865,6.71865,0,0,0-2.44239,1.22168,9.32978,9.32978,0,0,0-3.05468,6.7212q0,6.73021-4.27442,6.72119l-6.10644,1.22168-1.22266,8.5542c-3.2627,2.85449-4.88477,4.48681-4.88477,4.88769a28.9801,28.9801,0,0,1,.61036,5.499l-7.93848,6.7212c-.82129,0-1.32715.51562-1.52734,1.52734-.21,1.02148-.51563,2.34863-.916,3.97168l3.05371-1.22217c0,1.22217-1.43164,1.833-4.27539,1.833l-7.32812,2.44434,3.66406,1.833q3.04833,1.2312,4.27441-1.22216l-4.27441,7.332-4.27442-2.44385a22.16323,22.16323,0,0,0-1.52734,6.10986c-.21,2.043,1.11719,3.05518,3.96973,3.05518q.602,4.28174-7.02246,6.415c-5.09571,1.43213-8.04493,2.13867-8.85547,2.13867,0,1.22217,1.11621,1.833,3.3584,1.833,2.23339,0,3.55957.41064,3.96972,1.22216l6.10742-1.22216q-1.23194,2.44921-10.99316,10.3872l-8.5498,1.22168-1.832,4.27735h3.05274l1.832,4.88769,2.44336-1.22168,1.22168,2.44385-1.832,1.833-6.71778-1.22217a5.40566,5.40566,0,0,1-2.44336.61133q1.21729,4.28173,2.44336,7.94287l-4.88574,4.88769a40.64447,40.64447,0,0,0-3.665,4.27735,11.457,11.457,0,0,0,.61133,3.666v4.8877h-4.27539l-4.88477,4.88818a48.15187,48.15187,0,0,1,6.7168-1.22217l-1.2207,1.833-1.22168,2.44434-8.54981,3.05469h7.32813v2.44433l-4.27442.61084-4.88574,7.94287-2.44336.61084v6.72119a25.87774,25.87774,0,0,0-9.77148,10.99805,19.89564,19.89564,0,0,0,.61133,4.88818l4.27539,1.22168q0,2.44923-5.4961,5.19385a71.24717,71.24717,0,0,1-7.3291,3.36035v2.44385h6.10645v3.05518l-9.77051,4.27685c1.22168,2.44385,3.4541,3.05518,6.71777,1.833l-12.82519,10.99756q-2.44776,4.28321-1.832,4.88867a19.31113,19.31113,0,0,1,2.44238.30566,1.96318,1.96318,0,0,1,1.832,2.1377c-.41016-.81055-2.24219-1.22168-5.49609-1.22168v3.666l1.22168,1.83349-3.66407.61133a1.5195,1.5195,0,0,0,0,2.44336c.81153.82129,1.832,1.833,3.05372,3.05566a24.05,24.05,0,0,0-3.05372,3.666l-7.93945,3.05469,4.27442-.61133a9.77907,9.77907,0,0,0-1.22071,4.27734q-1.23046,3.66651-2.44336,7.332l-4.88476,4.27735a13.44373,13.44373,0,0,0,.61035,4.27636l1.22168,4.88868-7.32813,3.666,3.05274,3.666-.61035,2.44336-6.71778,2.44433v2.44434c1.62207.82031,2.44239,1.43164,2.44239,1.833q0,3.665-2.74805,9.165c-1.832,3.665-2.74805,6.31933-2.74805,7.94238q-4.27881,10.998-7.02246,19.85742a58.58193,58.58193,0,0,0-2.749,17.41406,18.77354,18.77354,0,0,0,2.44238,8.85938q2.43458,4.582,4.88672,4.582,12.82325,0,37.25195-18.33008,9.76172-7.33154,32.97852-27.49512l3.66406,1.833-4.27441,2.44434q-8.55909,17.729-53.74219,51.62988-45.20215,33.90967-64.124,33.91016-4.28028,0-11.90918-2.44434-7.6421-2.43458-11.29786-5.499-1.23047-3.04982-3.66406-17.41309-2.44774-14.3496-9.16015-17.41308-1.834,1.83252-6.71875,7.94238-10.39161,12.832-13.43555,14.05273l-3.66406,5.499a56.81252,56.81252,0,0,0-16.79493,11.60937q-8.24414,7.94824-16.18359,15.27539l-4.27441-.61133q-2.44776,0-10.38184,3.666a91.28255,91.28255,0,0,0-11.60352,6.11035q-6.72655-.6167-14.35156-1.833-7.64355-1.23193-11.90918-4.88867a18.5,18.5,0,0,0,1.833-6.7207,11.45372,11.45372,0,0,1-3.665.61133q-2.44775,0-4.27441-6.11036l-1.832-6.11035h-2.44336q-4.88086-13.43115-6.71778-20.77343-1.83252-7.33155-1.832-19.55176,0-45.20947,39.69629-102.03711a402.1651,402.1651,0,0,1,75.72656-81.875q11.5957-9.76611,20.76465-16.49658Q3304.57374,418.68774,3320.457,408.2915Zm-35.42187,62.32178q-2.44629,6.115-12.82422,18.94092-7.32861,9.16553-8.55078,10.99805l-3.66407.61181,1.22168,2.44336-1.22168,3.05567.61133,1.833a12.37931,12.37931,0,0,0-2.44336,6.72071h-4.27441v3.05468a12.31539,12.31539,0,0,0-4.27442,10.99805l-5.49707,1.833,1.22168,4.27734-3.66406,6.72071-4.88672-2.44336-1.2207,1.833,3.05273,3.05469h2.44336a13.8965,13.8965,0,0,0-1.2207,4.27735l-3.05469,3.05468,3.05469,4.8877L3234.957,561.042l-.61035,3.05469q1.21728,3.06445,1.22168,9.165-1.23047,11.61329-1.22168,17.1084,0,15.27978,5.19141,24.43945,5.18115,9.16553,12.51855,9.165,11.59571,0,23.207-7.94238,11.59571-7.93361,15.87891-10.3877,1.83252-4.2671,6.71777-19.85742a209.18248,209.18248,0,0,1,8.54981-23.52344q9.16113-21.99609,16.48925-36.66015,4.88087-9.76612,18.93164-35.438a39.58908,39.58908,0,0,0,5.49708-20.77442q0-13.43189-4.2754-23.21777-6.11131-14.04784-17.71093-14.05273-5.49611,0-17.09961,9.16455-4.28028,3.66649-8.54981,7.332-.61523,3.66649-6.10644,9.77636-3.06445,3.66577-9.16114,9.77588Z"/><path class="cls-16" d="M3473.12891,628.86328l6.10742-1.22265.61133-4.27637,4.88476,4.27637v-6.10938l-7.32812.61035a24.08675,24.08675,0,0,0-3.05371-3.666l1.832-6.10938,3.05371-2.44433-1.832-4.8877a28.20427,28.20427,0,0,0-.61133-5.499q6.09815-1.834,7.3291-3.666l-2.44238-9.165q6.09667-7.333,7.93847-9.165l-1.22168-5.499c3.25391-1.22266,5.08594-1.623,5.4961-1.22266l3.05469-8.55371-3.05469.61133v-6.11035h4.88672q-.61524-5.499,3.05273-15.27442l5.4961,1.22168,4.88671-1.833-5.49609-3.05469,7.32813-6.72168a1.8371,1.8371,0,0,0,2.748,0c1.01172-.81152,1.11621-1.623.30469-2.44336l-4.27441-2.44434,2.44238-2.44433.61133-6.10938,5.49609-2.44433-1.2207-3.666,5.49609-9.165,6.7168-3.05517,3.05469-8.55469c.40039.41113,1.3164.21094,2.748-.61035q2.13282-1.2173.30469-3.05469l4.88574-1.833-.61035-4.27734q10.377-9.76684,20.76367-20.16309v-6.72119a207.08948,207.08948,0,0,0,18.93164-18.94092q7.93066-9.16479,10.99317-12.83105,6.71337-9.76611,28.09277-17.71875a312.65481,312.65481,0,0,1,34.19922-9.77637l6.10742,7.332q0,5.499-4.88574,5.499a106.27151,106.27151,0,0,1-10.38184,20.16308q-9.16113,14.66382-14.65722,15.88623v3.05469l-6.71778,4.88818,1.832,4.88819-14.65625,18.32959q-2.44922,1.83324-1.22265,3.05517l-6.7168,1.22217,1.832,5.499-6.10742,10.38672q-2.44776-.60059-7.93945,3.05469l3.05371,3.6665-7.32813,10.3877a14.2503,14.2503,0,0,1-.30566,2.749c-.21,1.02149-.71582,1.32715-1.52734.917a42.94148,42.94148,0,0,1-3.05274,6.10937q-1.83252,3.06445-7.32812,10.3877v4.88769l1.2207,1.22168-9.16016,5.499-1.22168,12.83106-5.49707-1.22168q-.61523.61524-.60937,9.165l-1.22266,4.27637-1.832.61132,2.44336,2.44434-1.2207,9.77539a16.38651,16.38651,0,0,0-7.32911,6.72168l3.05372,9.165-4.88575,9.165q0,7.94677,2.748,12.83105,2.748,4.897,10.07715,4.8877,11.59276,0,41.52734-18.33008,29.915-18.3296,34.81055-27.49512l-.61133-2.44433,7.3291-7.332,1.22168-9.7754,3.66407-3.05468h2.44335l-.61132-3.666a16.59414,16.59414,0,0,1,1.52734-6.11035,51.14775,51.14775,0,0,1,3.3584-6.7207l1.832-4.88868q1.83252,0,2.44238-4.27636a13.87637,13.87637,0,0,1,2.74805-8.55469q2.748-3.665,5.80273-7.94238,7.32716-10.38282,9.77149-14.66455a45.6427,45.6427,0,0,0,6.7168-15.88623l41.52832-59.26709,6.10644-9.77588q6.09962-1.83326,11.60352-8.5542l4.88672,1.833a1.762,1.762,0,0,0,1.2207-.61084c0-2.44385-.82031-3.45606-2.44238-3.05518q3.04833-3.66577,21.67968-9.165,18.62256-5.499,25.34473-5.49853l-1.832,20.16259-1.22168,4.27735c-1.63184,1.63232-2.65332,2.65381-3.05371,3.05468q-3.063,3.66651.61133,4.88819l-7.32911,4.88818v4.8877q0,1.23194-3.05371,3.666a17.71664,17.71664,0,0,1-4.88476,3.05518q3.66357,5.499,3.66406,7.332l-4.88672,4.27686-2.44238-1.22217c-1.22168,2.44433-1.63184,3.876-1.22168,4.27734l-5.49609-1.22217v4.88819l4.88574.61084v3.05517a19.70234,19.70234,0,0,1-4.88574,1.22168,39.999,39.999,0,0,1-6.71778,14.66406c-.41015-.40087-1.832-.81152-4.27441-1.22216l1.832,3.05517c0,.82129-1.63184,1.833-4.88574,3.05518l1.832,1.833-4.88574,6.11035,3.05371,4.27636-4.88575,3.05469h-5.49609c-1.63184.82129-2.44336,1.833-2.44336,3.05567a22.205,22.205,0,0,0,3.05371,1.22168l-.61035,4.88818,1.2207,1.833-4.88476,3.05566,1.832,3.05469c0,2.44434-1.43164,4.27734-4.27539,5.499a47.65876,47.65876,0,0,1-6.71777,2.44434l7.3291,6.10937-1.832,1.833-4.88672,1.22266-1.22071,4.27636-7.93945,4.27735-2.44336-.61133-4.88476,2.44434,3.05273,3.666,3.66406-1.22168,2.44336,1.22168h4.88574l-1.832,4.8877h-3.665l-.60937,4.88867h-5.49707l-1.22168,2.44336,3.66406,3.666-1.832,5.499-5.49609,4.88769-.61036,5.499a1.57486,1.57486,0,0,0-2.13769.61132,17.20741,17.20741,0,0,1-1.52734,1.833l1.22265,6.72071q-1.23193-1.21729-2.44336.61132a6.2455,6.2455,0,0,0-1.22168,2.44434l1.22168,6.7207h-3.66406l-1.22168,9.165a21.54393,21.54393,0,0,0,1.22168,7.94336,36.03866,36.03866,0,0,0,4.27441,7.332l6.10743,2.44336q8.54443-3.0498,48.85644-25.35644,40.30665-22.29639,40.918-22.30176-17.10645,11.61474-29.31445,20.77441-17.72022,13.44728-27.48242,23.8291l-6.10645.61133q-15.88916,14.66308-16.48926,15.27442a70.65561,70.65561,0,0,1-12.21387,7.94336l-1.833,1.22168a362.01869,362.01869,0,0,1-39.084,22.60742l-1.22265-1.22266-6.10645,2.44434c-.82129-1.62305-1.63183-2.33887-2.44238-2.13867-.82129.21-1.02149.917-.61133,2.13867l-12.82422,1.22168q-5.49609,0-10.99316-8.55371a52.73424,52.73424,0,0,1-7.3291-16.49707l.61132-2.44336,1.832-1.22266c-.82032-2.0332-1.52735-3.97168-2.13672-5.80469a15.06449,15.06449,0,0,1-.916-4.582l3.05274-5.499-1.22071-10.99805,1.832-2.44434v-4.27636h2.44239v-6.72168l2.44238-4.27637q-5.49609,4.28173-14.65625,12.21973-4.8955,4.28173-14.04688,12.83105-3.063,3.66651-13.12988,12.52539-10.07666,8.86377-11.29785,10.69239l-6.71777,3.05468-3.665,6.11035-2.44239,1.833a52.43334,52.43334,0,0,0-14.65722,11.60938l-3.05274-.61133a57.195,57.195,0,0,1-4.88672,3.05469v2.44433a32.83682,32.83682,0,0,0-8.54882,3.36035c-2.44336,1.43262-4.48536,2.54883-6.10743,3.36036a92.71244,92.71244,0,0,0-14.96289,1.833q-10.07519,1.834-22.291,4.88868-.61524-2.44923-4.58008-4.27735-3.97851-1.83252-5.19043-2.44433-6.11278-11.59865-9.16113-18.33008a125.83632,125.83632,0,0,1-6.10645-17.71875l1.832-3.666-3.665-3.666Z"/><path class="cls-16" d="M4096.65039,576.92773q0-1.21728-4.88574-2.44433l-.61035-15.27442q1.831-2.43456,3.66406-4.88769l-3.05371-4.88867Q4094.813,536,4097.87109,521.9375q5.49756-6.71631,18.01661-34.82666,12.50976-28.09717,16.79394-35.43848,31.14551-50.70849,94.04883-100.81494Q4292.0713,298.93164,4347.04,284.2583a170.47746,170.47746,0,0,1,24.42871-12.21973q14.65722-6.10107,21.98438-6.11035,25.65087,0,46.41406,24.43994c1.22168,1.22217,2.0332,1.63282,2.44336,1.22217a52.106,52.106,0,0,1,3.66406,8.5542q3.665,9.16479,3.66406,15.2749l3.05371.61084.61035,7.94287,3.05372,3.05518v3.666c-2.44239,2.85449-3.874,5.29834-4.27442,7.332l-6.10742-1.22217c.81055,1.22217.916,2.24365.30469,3.05518a17.08508,17.08508,0,0,1-1.52637,1.833l7.93945,1.833-1.832-3.666h4.88574l-1.832,3.05517q-.61522,4.897-1.22168,9.77588l-8.5498,3.666,6.10742,2.44384-3.66406,6.72119q-1.834,3.66577,4.88476,5.499v2.44385h-6.10742l1.22266,4.27685-8.55078-.61084-.61036,5.499,1.832-.61084q.602-.602,1.832-1.833a5.35626,5.35626,0,0,0,.61035,2.44384q0,2.4485-1.832,2.74952a18.497,18.497,0,0,1-3.05274.30566l4.88477,2.44385-7.93945,4.88769,3.05468,2.44434-7.3291,10.38672v11.60937l-6.71777,1.833q-6.11133,4.897-19.84766,19.85742-13.74023,14.97876-24.73437,22.30127l-4.27442-1.22168q-12.8247,6.11426-25.64941,11.60889a91.36735,91.36735,0,0,1-17.40527,13.44238q-10.07667,6.11425-18.626,7.33106l-3.05469-6.10938q2.43458-4.26782,29.92578-44.603,31.14551-45.82544,31.14551-83.707,0-16.49706-4.27441-26.88427-6.1128-15.26514-20.1543-15.27491-10.3916,6.731-17.71094,12.22022-.61523.61523-17.09961,14.05273l-3.66406,1.833q-14.65722,15.27978-28.70312,30.55029-34.81056,36.65991-56.18458,64.76563-32.37744,41.55762-39.69628,66.59961-5.4961,0-5.4961,3.05469c1.22071,3.26562,1.832,5.499,1.832,6.72168a104.5711,104.5711,0,0,1-1.832,17.71875q-4.28026,24.44531-4.27539,31.77246,0,20.1621,15.26758,41.54785,15.25781,21.394,33.58984,21.38476l35.41993-1.22168a32.278,32.278,0,0,0,4.88671-3.05566l9.16016-1.833v-2.44336l19.543-7.332a73.321,73.321,0,0,0,20.458-10.69238q10.67724-7.6333,20.459-14.96973,1.83252-3.6665,3.66406-2.44433,4.88086-5.499,25.34473-21.69043,20.45361-16.18214,25.34375-17.41309a39.12228,39.12228,0,0,0-6.7168,7.332,88.29608,88.29608,0,0,0-6.71875,11.6084V566.541q-13.43994,8.56347-34.81054,29.93847-17.10353,17.11377-33.58789,33.60547h-2.44336a29.73278,29.73278,0,0,0-4.58008,6.11035c-1.43164,2.44336-3.96973,3.666-7.63379,3.666q-5.49756,0-13.43555,7.94238-7.94385,7.94824-12.82519,8.55371l-3.66407,7.332q-4.28027,1.834-8.24414,3.97168c-2.65332,1.43262-3.56933,2.75-2.748,3.97168l-7.93946,1.22168-1.22168,2.44434-27.48144,12.83105q-65.95605-13.43262-71.45313-15.88574-32.376-14.04931-42.75-58.04492-4.27881-1.834-4.27441-4.27734c0-1.22168,1.01172-2.84473,3.05371-4.8877a7.12635,7.12635,0,0,1,1.832-1.22266l-6.10742-3.05468-1.832-16.49707Z"/><path class="cls-16" d="M4436.20215,636.80566l1.22168-6.10937q3.66357.61524,3.66406-7.332l15.26758-28.71778v-3.666a52.38449,52.38449,0,0,0,4.88574-10.08106,88.33,88.33,0,0,0,3.66406-11.915q1.83252-.6006,9.16114-15.88575,3.04833-6.0996,8.54882-19.55175l3.665-1.22168v-7.332c.40039-.81152,1.4209-1.22265,3.05371-1.22265q1.21582-1.21729.61036-5.499l7.3291-8.55371q-1.23193.61524-2.44336-1.833h4.27539l-3.05469-3.666,4.88672-2.44434-.61133-2.44384a34.02635,34.02635,0,0,1,1.832-6.11036h2.44336c2.44239.41114,4.06446-1.01171,4.88477-4.27636q0-3.05127,4.58105-9.47119,4.58056-6.41529,4.58008-8.24854,3.04834-3.66578,2.44238-6.10986l8.55079-3.05469q-1.23048-2.43458-2.44336-5.499h-2.44336c0-1.22217.8125-2.03369,2.44336-2.44434q2.43456-.60132,5.49609-1.22168l-.61035-1.833-1.22168-3.666a47.15225,47.15225,0,0,0,8.24414-12.22022q3.96679-7.93359,7.63476-15.2749,10.99219-16.49708,22.59571-33.605H4573q0-6.10034,7.93945-18.94092,7.93066-12.8313,7.93946-13.44189l-4.27539-1.833a65.32971,65.32971,0,0,1-20.76368,3.05469l-1.2207-5.499q0-20.76415,25.9541-45.51953,25.94972-24.74561,45.49805-21.69043a32.03665,32.03665,0,0,1,4.58008-2.44384q2.748-1.2173,6.41308-2.44385l8.54883-1.22217,2.44336,2.44385,4.88574-6.10987,4.88575,4.88819h3.66406l1.832-4.27735,2.44336.61133c.81055-1.623,1.52637-3.05517,2.13672-4.27734q.917-1.83252,2.748-.61084a24.09733,24.09733,0,0,0,3.05371,3.666q0-3.66576,4.27442-3.666a10.2358,10.2358,0,0,1,2.44336.30566,12.94,12.94,0,0,1,2.44336.91651h2.44238q6.71339-6.71631,14.65723-6.72119a49.4934,49.4934,0,0,0,5.49609-1.22217c.40039.41064.81055.82129,1.22168,1.22217l-6.10742,3.666,9.16113-4.27685-.61133-2.44434,4.27539,2.44434q1.83107.61522,5.19141-1.22217a12.11861,12.11861,0,0,1,5.19043-1.833l4.27441,3.666v-2.44385l7.32911-4.27735,2.44238.61133,2.44336,6.10987h3.05273l-.60937-2.44385.60937-3.666h3.05469v1.833q7.32715.61524,20.76367-3.05518,13.42676-3.66576,15.87891-3.666c2.03125,0,2.94726.51562,2.748,1.52734a16.64584,16.64584,0,0,0-.30664,3.36084l3.665,3.666-.61035-3.666a9.39735,9.39735,0,0,1,2.44238-2.74951,17.41959,17.41959,0,0,1,5.49707-2.74951l12.2129,1.833q6.09813-1.21729,9.16113-1.833,8.54443-2.43457,11.60351-3.666,3.66359,1.83252,8.24512,3.97119c3.05274,1.43213,4.58008,2.74952,4.58008,3.97168l-14.04688,14.66407c.81153.8208.61133,1.63232-.61035,2.44384a6.23778,6.23778,0,0,1-2.44238,1.22217l-1.832,5.499-9.77149,5.499q0,4.89771-8.55078,13.44189-1.23046,1.83325-14.0459,12.83106l-1.832-.61084q-3.66357,1.83252-3.05371,3.05469-35.42578,4.89769-70.23047,9.165-46.41943,9.16481-56.18554,28.106l-7.93946,11.60889-2.44336.61133a14.49,14.49,0,0,1-1.832,5.499q-3.06152,4.28174-6.10644,8.55371l1.22168,4.27734h-3.66407l-4.88671,5.499a22.2131,22.2131,0,0,0,1.22265,3.05469,41.46438,41.46438,0,0,1-2.44336,4.27685l-12.82519,18.33008h-7.93848l-1.22266,2.44434q0,1.83251,2.44336,1.833h4.88575l-1.22168,4.8877H4635.293q6.09667-1.83252,11.29785-3.05469a46.60985,46.60985,0,0,1,10.68652-1.22217c1.22266.8208,2.2334.8208,3.05469,0a2.78621,2.78621,0,0,0,.61035-3.05517A142.07066,142.07066,0,0,0,4676.21,412.874a53.82567,53.82567,0,0,0,14.0459-4.58252,14.79957,14.79957,0,0,0,7.93945.30518c2.84375-.61084,4.27539-.30518,4.27539.9165l5.4961-1.22168,10.38183-2.44433,2.44239,3.05517a37.10263,37.10263,0,0,1,7.93945-3.36035q4.88086-1.5183,5.49609,1.52735l8.55078-2.44385,11.60352,2.44385,1.2207,7.94287q-2.44629,3.6665-9.77148,10.3872-7.32715,6.73023-8.54883,9.77588-9.16113,4.89771-17.71094,14.96973-8.56055,10.08105-16.48926,19.24609l-20.76464,4.88819v-2.44385a28.01315,28.01315,0,0,1-3.05274,1.833l-19.543,1.833v-1.833c-.41015,0-1.63183.8208-3.66406,2.44384h-6.71777l-1.22168-1.833-6.71778,3.666q-3.063,1.23193-4.27441,0c-.82031-.81152-1.22168-1.42236-1.22168-1.833l-5.49707,3.666a41.855,41.855,0,0,1-8.54883,1.22217l-37.86426,14.05273v2.44434l-3.66406,4.88818q-2.44775,1.83252-4.27441,3.05469h-7.3291v2.44434l7.3291,1.833q0,5.499-3.05469,5.499c-4.48437-1.62305-7.53809-2.44434-9.16016-2.44434v4.88867l7.32813,4.27637-3.66406-.61035q-2.44629,0-6.10743,3.05469-3.66357,3.06444-3.66406,6.11035l4.27539-4.88867c.40039-.40039,2.23242-.81153,5.4961-1.22168l-.61036,1.833-.61035,2.44434-2.44336,1.833-5.49609,7.94238c-.41016.82129-.30566,1.43262.30469,1.833a4.96439,4.96439,0,0,0,2.748.61133l-1.832,1.833-1.2207,4.27735-3.05371.61035q-1.83252,7.94825-4.88574,6.72168l-1.832,6.7207h2.44336q-2.44923,5.499-3.665,8.55371-3.063,6.731-4.88575,7.94336a31.32655,31.32655,0,0,1-4.88476-3.05566l-5.49707,3.666,1.832,3.05567,5.49707-3.05567v10.3877l-4.88672,3.05469-.61035,8.55371c-2.85254-.40039-4.27441,1.833-4.27441,6.72168a26.10893,26.10893,0,0,0,3.66406,2.44336c3.2539,2.043,5.49609,3.05566,6.71777,3.05566l-1.22168-3.666c1.22168.41015,2.64258.82031,4.27539,1.22168q1.83106-3.66651,3.66406-3.666,4.26563,1.83252,8.54981,3.666c-.82129-1.22168-1.63184-2.44434-2.44238-3.666q2.43163-3.0498,1.832-3.666a19.86512,19.86512,0,0,0,10.38086-1.52734,33.02464,33.02464,0,0,1,5.49707-2.13867l3.66406,1.22168,6.71777-2.44336h4.88575q5.49755-1.834,7.93945-2.44434,12.20948,1.23194,17.09961,1.22168l-1.832-1.833q4.88085-3.665,8.5498-3.666c2.0332,0,3.05371,1.43262,3.05371,4.27734l1.22168-3.05468,7.93946-3.666,3.66406,7.332,1.2207-4.88867,6.71777-1.22168c-.41015-1.22168.09571-2.0332,1.52637-2.44434a28.69632,28.69632,0,0,1,7.02344-.61035q6.71337.61524,7.93945.61035l1.22071-1.22168q9.16113-1.83252,11.91015-2.13867c1.832-.20019,4.98047-.30566,9.46485-.30566q1.83251,0,5.1914,2.13867a36.78234,36.78234,0,0,1,3.96973,2.75l-.61035,10.99805-5.4961,2.44336c0,.41113.60938.82128,1.832,1.22265a2.398,2.398,0,0,1,1.832,2.44336l-1.832,1.22266-.61132,6.7207q-9.77637,1.23194-15.26758,7.332l.61133,2.44434q-3.06445,3.665-6.10743,6.7207-5.49609,5.499-7.93945,4.8877l-6.10742,9.165q-25.04883,11.61327-77.55957,21.99609-65.354,12.83057-79.3916,17.1084a179.53167,179.53167,0,0,1-17.09961,6.10937q-11.60889,3.66651-12.21485,3.666-17.10351,0-25.64941-21.38477a157.10032,157.10032,0,0,1-5.49609-20.16308l4.27441-9.77539Z"/></g><g id="Ancrage"><rect class="cls-17" x="5624" y="999" width="1" height="1"/><rect class="cls-17" x="5624" width="1" height="1"/><rect class="cls-17" y="999" width="1" height="1"/><rect class="cls-17" width="1" height="1"/></g></svg>