<svg xmlns="http://www.w3.org/2000/svg" viewBox="0 0 5625 1000"><title>logo_mise_en_lumiere</title><g id="fc1a7340-981d-4e40-b0de-cfabf201f014" data-name="Texte"><g id="bb43645e-acee-45df-845e-fb353781ff22" data-name="playball"><path d="M1286.34961,282.16553l47.03125-2.877q-32.51148,28.65015-93.144,170.16407Q1150.45,662.0608,1155.9707,752.32031q2.55249,41.72754,29.102,40.09766,12.12525-.74121,28.98145-11.6709l.7583-.0459c1.51758-.09375,2.354,1.12891,2.5083,3.65332q.88184,14.41846-36.63818,29.65235-37.5249,15.2329-61.79395,16.72363-50.83008,3.10839-54.21191-52.26758-5.89233-96.32665,130.94726-398.6167-28.58569,30.69434-38.458,43.46924-67.85815,85.6333-200.52784,281.80762-27.98291,40.54393-38.75244,51.10156Q907.11035,766.78614,888.5249,767.918q-18.59693,1.13672-43.55615-8.75684,17.469-25.42822,9.94043-148.7041-7.53956-123.26367-28.88281-223.23242-24.19923,52.50147-84.78858,232.08789-60.594,179.5957-57.85009,224.35156.32519,5.31446,1.17578,6.7793l-69.78955,4.26953Q651.23974,741.32227,720.55859,555.0957q69.30982-186.21093,84.67969-221.4209-69.03661,4.22243-132.97754,35.54444Q608.30787,400.542,599.1626,437.64941a2.98311,2.98311,0,0,1-2.895,2.46143q-6.08056.37207-6.67188-9.49023-.093-1.51173,4.81592-20.853,4.90356-19.32276,20.72315-40.86084,15.81591-21.52662,37.96972-32.7793,36.23145-17.43823,90.86035-20.78613l96.33936-5.89307q22.7578-1.39159,36.49658,5.38233,13.72779,6.78,20.78955,34.8955,7.03785,28.12281,18.26709,130.60791,11.21338,102.49806,13.771,144.207,2.55249,41.729,1.9624,56.98632,100.166-142.415,259.84082-357.76953Q1219.58228,286.25488,1286.34961,282.16553Z" style="fill:red;stroke:#000;stroke-miterlimit:10;stroke-width:5px"/><path d="M1364.65283,504.27832l37.97559-1.56152,7.58594-.46485q-11.58619,9.84669-29.22413,51.28125-17.64769,41.44629-26.25146,62.51758-8.61547,21.08643-18.99072,56.7461-10.38282,35.666-9.03711,57.65917,1.34693,22.01074,15.75879,21.11622,9.8496-.60059,26.876-14.96778A148.16972,148.16972,0,0,0,1396.83447,706.75a453.00889,453.00889,0,0,0,23.11573-39.10352q12.635-23.61621,21.86132-40.93164,9.22119-17.30272,10.7378-17.40722,4.55127-.27832,5.40966,13.75488a52.51616,52.51616,0,0,1-5.93847,27.39453q-25.19678,48.76026-46.40235,81.64453a287.115,287.115,0,0,1-49.35693,58.22168q-28.14624,25.33155-52.4209,26.81055-42.49292,2.59863-46.09961-56.57129-5.61327-91.77538,50.52686-207.15039Q1332.02808,506.27344,1364.65283,504.27832Zm97.04248-106.44287-3.03467.18555q-15.18383.92871-28.4165,14.68261-13.2561,13.76661-18.47851,27.77979-20.198-6.36768-21.39307-26.10254-1.2063-19.71753,15.76953-40.93945,16.97754-21.20289,33.66553-22.23682,16.67724-1.02027,25.49658,6.05469a25.0569,25.0569,0,0,1,9.52783,18.83349Q1475.552,387.86279,1461.69531,397.83545Z" style="fill:red;stroke:#000;stroke-miterlimit:10;stroke-width:5px"/><path d="M1758.38916,630.19434q-51.09228,98.313-95.09326,138.30371-44.0061,39.98877-117.58154,44.501-42.49219,2.59865-72.3042-11.94824-29.83521-14.54-31.772-46.40625a57.00618,57.00618,0,0,1,8.57813-34.02734q9.687-15.81446,28.27734-16.958,18.57935-1.13526,24.73,12.19238-13.53661,15.30176-12.37109,34.25977,2.3203,37.94091,44.80078,35.33008,25.03346-1.53077,42.55078-20.11524,17.51294-18.57714,16.2417-39.44433-1.27515-20.855-11.35254-36.23536a120.474,120.474,0,0,0-23.71582-26.7207q-13.65015-11.33788-27.27685-22.69726-32.9231-27.68262-35.2544-65.99024-2.34228-38.29687,25.26123-66.2666,27.59327-27.95655,78.42969-31.06543,31.85962-1.949,54.55518,8.084,22.689,10.03419,24.15625,33.92872,1.4619,23.89452-11.88428,42.22363-13.35132,18.34131-37.99951,19.83789-24.65992,1.50732-26.04639-21.25-.32373-5.29834,16.47314-16.99707,16.79224-11.68214,16.102-23.06641-.69579-11.37891-10.52587-16.48828-9.8423-5.10791-27.27832-4.042-17.45874,1.06786-33.01416,14.20215-15.57862,13.14111-14.36036,32.8584,1.207,19.73438,18.96192,36.14843a182.41567,182.41567,0,0,0,38.22119,27.35743q20.46021,10.938,38.477,31.53027,17.99927,20.6001,19.47266,44.49316,1.46191,23.896-8.37793,43.53321-9.84522,19.64355-24.31543,31.94433,41.36205-20.80518,84.70361-96.55176,4.1814-6.33984,14.39893-26.00683,23.6206-49.41357,26.66113-49.60059,4.55127-.27831,5.41016,13.75586A52.51058,52.51058,0,0,1,1758.38916,630.19434Z" style="fill:red;stroke:#000;stroke-miterlimit:10;stroke-width:5px"/><path d="M2053.85938,568.7207q4.55125-.27831,5.45605,14.51368.90528,14.792-9.97949,36.0166-10.88965,21.22411-21.52832,40.14843a500.791,500.791,0,0,1-28.8833,44.40723q-18.249,25.49121-36.3208,41.05274-45.65553,37.82519-93.82569,40.76464-48.18164,2.94728-79.26269-19.89746-31.09131-22.83252-34.20166-73.66992-4.73292-77.37452,48.124-146.85156,52.85742-69.47535,128.71484-74.11621,34.13673-2.0874,55.7085,14.48633,21.572,16.57909,23.103,41.60644,2.59863,42.4922-36.0293,70.73242-38.63745,28.25684-93.24463,31.5918-31.86034,1.94825-47.542-5.46875-12.05274,39.56982-10.23682,69.1543,3.898,63.7207,57.75635,60.42578,31.86034-1.94825,64.10889-28.667a286.88067,286.88067,0,0,0,54.26513-58.90332q22.01587-32.18262,48.833-91.69141C2050.67334,570.69922,2052.34229,568.81348,2053.85938,568.7207Zm-84.0752-55.00976q-1.34472-21.99317-22.585-20.69971-29.58544,1.80981-63.76953,40.44775-34.18432,38.63966-32.79248,61.39747.92871,15.18311,29.75342,13.4082,28.82005-1.76221,58.59082-31.75586Q1968.73389,546.52783,1969.78418,513.71094Z" style="fill:red;stroke:#000;stroke-miterlimit:10;stroke-width:5px"/><path d="M2594.707,535.63867q4.55127-.27831,5.45606,14.51367.90526,14.792-9.9795,36.01661-10.88964,21.22411-21.52929,40.14941a500.44292,500.44292,0,0,1-28.88282,44.40625q-18.24754,25.49121-36.32031,41.05371-45.65625,37.82373-93.82568,40.76367-48.18165,2.94727-79.2627-19.89746-31.092-22.83252-34.20166-73.66992-4.7329-77.373,48.124-146.85059,52.85742-69.4768,128.71484-74.1167,34.13672-2.08814,55.708,14.48584,21.57275,16.57984,23.10351,41.60743,2.59865,42.49218-36.02929,70.73144-38.63818,28.25684-93.24463,31.5918-31.86036,1.94825-47.542-5.46778-12.05274,39.56984-10.23731,69.15333,3.89795,63.72069,57.75684,60.42578,31.85961-1.94825,64.10888-28.666a286.93344,286.93344,0,0,0,54.26563-58.90332q22.01514-32.18408,48.832-91.69238C2591.52051,537.61816,2593.19043,535.73145,2594.707,535.63867Zm-84.07519-55.00928q-1.34474-21.99315-22.585-20.6997-29.58546,1.80908-63.76954,40.44824-34.18432,38.63966-32.793,61.39648.92871,15.18311,29.7539,13.40821,28.82007-1.76222,58.59082-31.75489Q2509.58154,513.44678,2510.63184,480.62939Z" style="fill:red;stroke:#000;stroke-miterlimit:10;stroke-width:5px"/><path d="M2942.58789,559.2832q-25.19677,48.76173-46.40234,81.64551a287.0975,287.0975,0,0,1-49.35645,58.22168q-28.147,25.33155-52.4209,26.81055-44.76855,2.73925-47.77246-46.57031-3.01464-49.30225,44.78321-201.46973a35.27585,35.27585,0,0,0,2.15332-14.59815q-.97559-15.93017-21.07715-14.70019-20.10937,1.22973-38.68067,14.9292-18.57714,13.69922-33.09277,37.81152a511.12871,511.12871,0,0,0-25.9502,48.79492,388.825,388.825,0,0,0-20.53125,56.458q-9.10107,31.78565-14.26855,53.03027-5.17676,21.26661-10.1582,45.54493-4.99219,24.29-5.60547,26.61132l-73.582,4.5q-.97558-15.92871,55.57226-186.90039,22.53076-79.79223,20.627-110.90576-.4629-7.57325-2.97168-11.23926l31.86035-1.94873q26.54443-1.62378,34.46093,3.22217a16.75546,16.75546,0,0,1,8.46778,13.94873q.55663,9.10327-6.07129,37.68115,60.01026-64.57836,124.48828-68.52783,43.23926-2.644,45.65137,36.80127a91.25754,91.25754,0,0,1-2.21485,26.02344q-3.01464,13.14038-15.80957,52.74365-28.19238,87.00879-26.417,115.82813,1.11328,18.20654,14.76758,17.37109,9.84962-.60351,26.85254-15.34766a168.7647,168.7647,0,0,0,27.8457-30.25683,416.90851,416.90851,0,0,0,23.51758-38.748q12.66065-23.22363,21.50586-40.52832,8.82861-17.2793,10.35742-17.38476,4.55127-.27833,5.40918,13.75488A52.50024,52.50024,0,0,1,2942.58789,559.2832Z" style="fill:red;stroke:#000;stroke-miterlimit:10;stroke-width:5px"/><path d="M3449.28906,216.87061q-23.92089,57.05272-75.76465,130.64941-51.854,73.60841-94.00195,118.82031l-10.002,35.63623q-7.478,27.12012-13.50391,65.54688-6.03369,38.45214-4.29,54.32324,1.39161,22.75635,18.08008,21.73633,16.67579-1.01953,38.66406-21.40039,21.97413-20.3672,31.74024-35.06348,9.75585-14.67627,22.40234-38.29883,12.63575-23.61474,21.86328-40.93066,9.21974-17.30348,10.73535-17.40772,4.55127-.27831,5.41114,13.7544a52.50568,52.50568,0,0,1-5.93946,27.39453q-37.4121,73.1001-61.43457,103.50293-48.81591,60.85986-104.19238,64.24121-42.49365,2.59863-46.00684-55.05371-3.479-56.89307,38.669-201.85645,3.044-12.35816,14.33789-51.89257,11.28809-39.52222,19.82715-61.74561,8.52686-22.22094,23.04785-58.89648,14.49464-36.66724,28.75879-58.86524,14.24121-22.17846,31.87109-45.3501,34.46631-46.25829,77.7168-48.916,43.24073-2.64478,45.65332,36.80176Q3464.78761,183.94922,3449.28906,216.87061Zm-20.9873-81.71045-5.31055.3247q-46.28026,2.83082-130.94141,286.688Q3388.49952,293.6914,3421.6543,213.231q18.30615-49.08765,17.41406-63.88233Q3438.16308,134.55664,3428.30176,135.16016Z" style="fill:red;stroke:#000;stroke-miterlimit:10;stroke-width:5px"/><path d="M3665.2168,361.27686l36.459-1.46875q11.37891-.69581,14.36621-1.63965-20.36426,15.71777-54.917,104.24609-34.56006,88.54029-32.24023,126.46436,1.39159,22.75781,16.56445,21.8291,9.84961-.60205,26.14062-14.543a156.32058,156.32058,0,0,0,27.46582-30.2334,431.78829,431.78829,0,0,0,23.82715-39.9082q12.63427-23.61621,21.86231-40.93164,9.22119-17.30274,10.73633-17.40821,4.55127-.27831,5.43457,14.13477a49.552,49.552,0,0,1-6.67481,27.82031Q3669.77539,672.418,3606.81934,676.26855q-42.49219,2.6001-46.33106-60.36425a230.44527,230.44527,0,0,1,.71387-38.11426Q3496.062,683.04932,3431.58789,686.98633q-18.97119,1.16162-31.69726-14.05078-12.74415-15.20948-14.63477-46.3125-1.90284-31.09571,15.71191-104.13282,17.60742-73.03125,46.64356-121.2539,6.87891-11.8418,15.45117-15.03125,8.5503-3.18165,32.83594-4.67334l36.41211-2.22705q-17.3921,26.95752-36.69434,72.29443-43.70948,107.0017-40.74023,155.5376,1.76512,28.83691,22.624,27.5498,20.855-1.27587,47.22852-43.24414,26.35986-41.96044,55.44433-108.08642,29.07715-66.11206,33.87695-74.7876Q3639.41357,362.86743,3665.2168,361.27686Z" style="fill:red;stroke:#000;stroke-miterlimit:10;stroke-width:5px"/><path d="M4277.65332,477.62256q-25.19677,48.761-46.40137,81.645a287.1685,287.1685,0,0,1-49.3584,58.22168q-28.144,25.33154-52.42089,26.81054-44.7671,2.7378-47.91114-48.84667-3.665-59.915,37.35157-173.603,8.896-28.70508,8.25293-39.33692-.92871-15.16552-14.583-14.33642-8.35547.51123-28.22168,11.62451-19.87793,11.12035-37.25781,31.97461-17.39062,20.87183-27.73633,38.24414-10.35645,17.39136-21.97071,51.59717-11.61181,34.22607-15.33007,48.14648-17.83448,69.61816-23.55176,100.42383l-74.3418,4.54785q32.75391-111.64746,45.23828-150.48144,12.47169-38.82863,14.94922-48.12305l5.52735-21.65723q6.854-24.7793,5.88574-40.71582-.97413-15.92945-15.3877-15.04834-12.14355.74268-32.34765,12.63819-20.22218,11.90917-38.68164,33.585a187.033,187.033,0,0,0-30.09864,49.4292q-11.63379,27.74706-18.38672,47.95166-6.75879,20.22216-13.36328,49.167-6.61523,28.96-11.96191,47.17871-5.3628,18.22706-10.7461,42.1543l-73.582,4.501a509.5291,509.5291,0,0,1,14.72559-58.00683l41.60547-128.94043q25.69189-77.7019,23.56933-112.60889c-.30957-5.04883-1.0205-8.313-2.12109-9.76855l31.86035-1.94873q25.7798-1.57691,33.67969,2.88916,7.875,4.47948,8.39746,12.811.51123,8.35693-6.7373,39.24463,63.03369-64.76294,129.79882-68.85254,40.19824-2.45874,42.2461,30.91846.88184,14.41845-6.16309,36.16308,64.79736-73.24071,137.63184-77.707,39.43212-2.41186,41.4873,30.96485a79.0816,79.0816,0,0,1-3.54785,29.15039q-4.478,13.97973-11.49512,36.10937-7.03565,22.13013-11.47363,36.48828-4.45752,14.37085-10.02637,35.25782-11.8667,42.60938-10.63183,62.70605,1.23046,20.1079,13.74609,19.33691,12.5171-.76611,30.46-18.61523,17.93409-17.83593,26.6836-30.56543,8.73632-12.706,21.40527-35.9541,12.66064-23.22363,21.50586-40.52832,8.82861-17.2793,10.35742-17.38477,4.55127-.27831,5.40918,13.75489A52.503,52.503,0,0,1,4277.65332,477.62256Z" style="fill:red;stroke:#000;stroke-miterlimit:10;stroke-width:5px"/><path d="M4373.85742,320.21582l37.97461-1.56152,7.585-.46387q-11.58544,9.84594-29.22265,51.27978-17.64844,41.447-26.252,62.519-8.61474,21.08569-18.99121,56.74512-10.37988,35.666-9.03613,57.65917,1.34619,22.01074,15.75879,21.11719,9.8496-.602,26.876-14.96875a148.22009,148.22009,0,0,0,27.48829-29.85351,453.13086,453.13086,0,0,0,23.11523-39.1045q12.63574-23.61474,21.86328-40.93066,9.21973-17.30346,10.73535-17.40771,4.55127-.27906,5.41016,13.75439a52.49717,52.49717,0,0,1-5.93848,27.39453q-25.19531,48.76026-46.40136,81.64453a287.10629,287.10629,0,0,1-49.3584,58.22168q-28.144,25.33155-52.4209,26.81055-42.49072,2.6001-46.09863-56.57129-5.61328-91.77538,50.52734-207.14941Q4341.23144,322.21191,4373.85742,320.21582Zm97.041-106.44238-3.03418.18554q-15.18311.92872-28.416,14.68262-13.25536,13.76587-18.47851,27.77979-20.19873-6.36768-21.39453-26.103-1.20558-19.71753,15.7705-40.939,16.97754-21.20361,33.665-22.23681,16.67726-1.02027,25.49707,6.05469a25.05146,25.05146,0,0,1,9.52735,18.833Q4484.75586,203.80029,4470.89844,213.77344Z" style="fill:red;stroke:#000;stroke-miterlimit:10;stroke-width:5px"/><path d="M4753.57129,403.58887q4.55127-.27832,5.45508,14.51416.90527,14.792-9.97852,36.01611-10.89111,21.22411-21.5293,40.14844a500.9247,500.9247,0,0,1-28.88183,44.40625q-18.25049,25.49414-36.32227,41.05469-45.65625,37.82373-93.82617,40.76367-48.18018,2.94726-79.26172-19.89844-31.09277-22.83105-34.20117-73.66895-4.7329-77.3745,48.124-146.85058,52.856-69.47681,128.71387-74.1167,34.13672-2.08814,55.707,14.48584,21.57423,16.57909,23.10449,41.60693,2.59865,42.49219-36.02929,70.73194-38.63818,28.25683-93.24414,31.59131-31.86036,1.949-47.543-5.46729-12.05127,39.56908-10.23633,69.15332,3.89794,63.7207,57.75684,60.42676,31.86034-1.94971,64.10937-28.668a286.96575,286.96575,0,0,0,54.26465-58.90283q22.0166-32.18335,48.832-91.6919C4750.38379,405.56836,4752.05371,403.68164,4753.57129,403.58887ZM4605.55176,199.44531q-33.64453-14.68067-46.48047-19.2373-12.84083-4.533-12.93359-6.06153-.27979-4.55127,14.38085-13.8247,14.65723-9.26587,20.73047-9.64356,6.063-.37061,9.19532.96094,14.25879,9.03222,41.21093,26.4126L4677.64648,207.98q18.23145,11.84106,23.68653,13.77979c.09277,1.51709-2.3291,3.56884-7.23926,6.15332q-7.38135,3.87744-9.27344,3.99316-1.90137.11646-23.78515-9.2041Zm63.94336,149.13428q-1.34473-21.99316-22.58594-20.7002-29.584,1.80982-63.76758,40.44874-34.18652,38.63964-32.79394,61.39648.92871,15.18384,29.7539,13.4082,28.8208-1.76294,58.58985-31.75586Q4668.4453,381.39673,4669.49512,348.57959Z" style="fill:red;stroke:#000;stroke-miterlimit:10;stroke-width:5px"/><path d="M4937.375,284.22461l38.7334-1.60742,7.58594-.46387q-10.86768,9.052-29.22364,51.27979-18.36621,42.23949-27.31933,63.72656-8.96486,21.49878-19.3252,57.52685-10.35791,36.03882-9.01367,58.03809,1.34619,22.01075,16.51758,21.07031,9.80566-1.34912,26.83008-15.72656a158.49434,158.49434,0,0,0,27.86718-29.87744A373.26755,373.26755,0,0,0,4993.5,448.68457q12.61377-23.98829,21.81445-41.68945,9.19776-17.69532,10.71485-17.78711,5.29833-.32447,6.16894,13.709a52.49683,52.49683,0,0,1-5.93945,27.39356Q4996.92968,486.176,4977.457,516.29a280.267,280.267,0,0,1-47.97851,55.85254q-28.51465,25.72851-52.77637,27.21289-43.23926,2.64551-47.13672-61.07617-2.6455-43.2378,10.70215-98.877a424.814,424.814,0,0,1,42.8584-108.459q-25.2627,22.87208-51.80176,24.48877a45.22725,45.22725,0,0,1-17.67871-2.72608q-47.37452,109.50879-51.53516,109.751-4.17772.25561-4.9375-12.26123-.76611-12.5171,7.34668-35.47461,8.10791-22.946,17.86035-44.1123,9.73389-21.15454,10.36621-23.477-28.144-11.98463-30-42.32715a43.274,43.274,0,0,1,7.8125-27.88867q8.73488-12.70533,25.42871-13.73877,16.67579-1.01953,27.957,8.95068-1.24952,4.64429-.68164,13.74707,1.25244,20.48145,16.76562,31.33447,15.51123,10.86549,36.751,9.55469a40.29965,40.29965,0,0,0,9.05664-1.31641Q4910.06006,285.90138,4937.375,284.22461Z" style="fill:red;stroke:#000;stroke-miterlimit:10;stroke-width:5px"/><path d="M5317.94336,369.06836q4.55127-.27832,5.45508,14.51367.90527,14.792-9.97949,36.0166-10.88966,21.22413-21.52832,40.14844a501.10577,501.10577,0,0,1-28.88282,44.40723q-18.249,25.49121-36.32129,41.05273-45.65625,37.8252-93.82617,40.76465-48.18163,2.94726-79.26172-19.89746-31.09277-22.83252-34.20117-73.66992-4.73291-77.37452,48.12305-146.85108,52.85742-69.47607,128.71484-74.11621,34.13526-2.08813,55.707,14.48584,21.57423,16.57911,23.1045,41.60694,2.59863,42.49218-36.0293,70.73144-38.63965,28.25757-93.24414,31.5918-31.86036,1.949-47.543-5.46778-12.05274,39.5691-10.23633,69.15381,3.89795,63.72071,57.75586,60.42578,31.86182-1.94823,64.11035-28.667A286.95519,286.95519,0,0,0,5264.125,466.395q22.01514-32.18335,48.832-91.69189C5314.75586,371.04736,5316.42578,369.16113,5317.94336,369.06836Zm-84.07617-55.00977q-1.34473-21.99316-22.58594-20.6997-29.584,1.80981-63.76855,40.44824-34.18506,38.63964-32.793,61.397.92871,15.18384,29.7539,13.4082,28.8208-1.76294,58.58985-31.75585Q5232.81738,346.87622,5233.86719,314.05859Z" style="fill:red;stroke:#000;stroke-miterlimit:10;stroke-width:5px"/></g></g><g id="fc542cf2-1255-4e7e-ad71-7c1fd4c2096e" data-name="soulignage"><g id="a6070abe-6c6d-4cec-aaa1-c8e357708c77" data-name="movie-film"><path d="M180.86937,950.60367H261.1389a51.56363,51.56363,0,0,0,36.90391-15.45585c14.84529-15.01133,27.2942-24.31631,50.07833-24.31631H368v30.2494H348.12114c-11.61157,0-17.06824,3.467-28.925,15.45586a81.11759,81.11759,0,0,1-58.05719,24.31631H180.86937Z"/><circle cx="176.83518" cy="854.83517" r="126.01726" style="fill:#bab8b9"/><path d="M196.10747,974.4292a126.0362,126.0362,0,0,1-49.41379-241.97409,126.036,126.036,0,1,0,79.55593,238.33627A126.28567,126.28567,0,0,1,196.10747,974.4292Z" style="fill:#9e9c9d"/><circle cx="245.4872" cy="833.28305" r="30.97595" style="fill:#fdf5e6"/><circle cx="220.36339" cy="911.98844" r="30.97595" style="fill:#fdf5e6"/><circle cx="133.31338" cy="911.98844" r="30.97595" style="fill:#fdf5e6"/><circle cx="108.18317" cy="833.28305" r="30.97595" style="fill:#fdf5e6"/><circle cx="176.83518" cy="782.9905" r="30.97595" style="fill:#fdf5e6"/><circle cx="176.83518" cy="854.83518" r="18.10892" style="fill:#fdf5e6"/><path d="M215.30715,840.25811a30.97594,30.97594,0,0,0,33.5044,23.8191,73.24886,73.24886,0,0,0,.58328-9.242,72.2915,72.2915,0,0,0-18.78728-48.71679A30.98361,30.98361,0,0,0,215.30715,840.25811Z"/><path d="M240.94359,888.84063a30.97646,30.97646,0,0,0-48.37119,36.83645A72.676,72.676,0,0,0,240.94359,888.84063Z"/><path d="M152.07818,887.34643a30.98186,30.98186,0,0,0-39.34948,1.49483,72.67852,72.67852,0,0,0,48.37182,36.8371A30.984,30.984,0,0,0,152.07818,887.34643Z"/><path d="M123.06473,806.11839a72.2915,72.2915,0,0,0-18.78728,48.71679,73.24886,73.24886,0,0,0,.58328,9.242,30.97238,30.97238,0,0,0,18.204-57.95882Z"/><path d="M176.83582,782.27616a72.27572,72.27572,0,0,0-30.401,6.66221,30.97682,30.97682,0,0,0,60.802,0A72.27356,72.27356,0,0,0,176.83582,782.27616Z"/><path d="M199.76008,854.83518a22.92459,22.92459,0,1,0-22.9249,22.92426A22.95064,22.95064,0,0,0,199.76008,854.83518Zm-36.2127,0a13.28876,13.28876,0,1,1,13.28844,13.28844A13.30333,13.30333,0,0,1,163.54738,854.83518Z"/><path d="M280.365,825.22687a35.61911,35.61911,0,0,0-34.84891-27.74346,35.80667,35.80667,0,0,0-34.07419,46.86285c5.60741,17.38751,24.32724,27.922,42.10469,23.81525A35.8356,35.8356,0,0,0,280.365,825.22687Zm-35.94162,34.195a26.05448,26.05448,0,0,1-13.96489-4.683c-14.28735-9.99555-14.62395-31.77059-.78049-42.29162a67.57457,67.57457,0,0,1,14.8989,42.388C244.57692,856.36277,244.52553,857.89616,244.4234,859.42184Zm9.71869-1.45373c.04175-1.04453.07065-2.08968.07065-3.13293a77.18774,77.18774,0,0,0-15.7231-46.753c.36744-.1015.73682-.19914,1.11069-.28522a26.30633,26.30633,0,0,1,5.91639-.67836,26.16153,26.16153,0,0,1,8.62537,50.84952Z"/><path d="M184.64469,909.75422l-.00579.09186a35.78276,35.78276,0,0,0,35.74762,37.94266,36.125,36.125,0,0,0,35.4457-30.99458c2.59782-19.18621-11.15507-37.47884-30.32136-40.21863-.14068-.01992-.28073-.04176-.42141-.06038C204.80346,873.80362,185.9526,889.36675,184.64469,909.75422Zm9.684.31349a26.09745,26.09745,0,0,1,40.35482-19.97055,67.62345,67.62345,0,0,1-39.23514,29.88645A25.61869,25.61869,0,0,1,194.32868,910.06771Zm51.95507,5.43268a26.4095,26.4095,0,0,1-25.89915,22.65188,25.96818,25.96818,0,0,1-20.20567-9.533,77.22479,77.22479,0,0,0,41.57472-31.67358A25.96757,25.96757,0,0,1,246.28375,915.50039Z"/><path d="M111.62444,940.46871a35.47556,35.47556,0,0,0,21.66325,7.31938c20.31424,0,36.999-17.64448,35.74441-37.94971l-.0045-.07708a35.75719,35.75719,0,0,0-40.86681-33.18577,35.78816,35.78816,0,0,0-16.53635,63.89318Zm17.81535-54.34409c.05846-.00835.11691-.01735.176-.0257,15.75071-2.179,30.42414,11.04008,29.83315,26.9077-.00128.0257-.00193.05139-.00257.07709a25.94744,25.94744,0,0,1-1.22374,6.90053,67.62011,67.62011,0,0,1-39.2345-29.88645A26.11078,26.11078,0,0,1,129.43979,886.12462Zm-17.52114,10.82165a77.22823,77.22823,0,0,0,41.57408,31.67294,26.15093,26.15093,0,0,1-41.57408-31.67294Z"/><path d="M137.95207,813.5277a36.0934,36.0934,0,0,0-29.79716-16.04428,35.801,35.801,0,0,0-30.33228,54.76486,36.13871,36.13871,0,0,0,30.39009,16.83827,35.596,35.596,0,0,0,34.03308-24.79489A36.22686,36.22686,0,0,0,137.95207,813.5277Zm-3.6507,21.09731a26.35563,26.35563,0,0,1-25.05377,24.79745c-.10214-1.52631-.15289-3.059-.15289-4.58729a67.57626,67.57626,0,0,1,14.89441-42.38284c.11756.08929.23576.1773.35139.26788A26.60478,26.60478,0,0,1,134.30137,834.625ZM85.99572,847.14322a26.16494,26.16494,0,0,1,22.15854-40.02463,26.34173,26.34173,0,0,1,7.0258.96423,77.1964,77.1964,0,0,0-15.72117,46.75236c0,1.04388.02827,2.089.07,3.13421A25.96006,25.96006,0,0,1,85.99572,847.14322Z"/><path d="M141.73509,789.93086a35.72213,35.72213,0,1,0-.69441-6.93652A35.24583,35.24583,0,0,0,141.73509,789.93086Zm59.18835,3.26268c-6.46563,15.21175-26.2711,20.68618-39.60965,10.841a26.35847,26.35847,0,0,1-8.56753-10.84415l-.02248-.05268c-.03084-.07194-.57109-1.40426-.54411-1.41453a67.977,67.977,0,0,1,49.31164,0C201.49774,791.72569,200.93244,793.173,200.92344,793.19354Zm-24.08826-36.35916a26.18711,26.18711,0,0,1,26.13427,25.15591,77.61656,77.61656,0,0,0-52.2679,0A26.187,26.187,0,0,1,176.83518,756.83438Z"/><path d="M196,985c57-13,55-20,73-33,22.25617-23.46644,38.67167-62.34544,38.67167-97.16351a130.50185,130.50185,0,0,0-47.49977-100.865,4.81811,4.81811,0,1,0-6.18012,7.393,121.20873,121.20873,0,0,1-73.26241,214.60322c-1.29313.04111-2.59011.06873-3.89352.06873A121.20065,121.20065,0,1,1,238.48938,750.476a4.81885,4.81885,0,1,0,5.02827-8.22062A130.68831,130.68831,0,0,0,176.83646,724C104.69307,723.99936,46,782.69179,46,854.83518,46,926.97792,104.69307,985.671,176.83582,985.671q1.71133,0,3.413-.04432a4.82675,4.82675,0,0,0,.62055.04432" style="stroke:#000;stroke-miterlimit:10;stroke-width:3px"/><g id="b5d024c1-a879-42c5-92b7-cb640698661d" data-name="bande_magnetique"><path d="M5364,893.612"/><path d="M5194,656c-303.18064-36.19848-1604.39733,88.35982-2379,140-30,2-271,17-271,17L330,943c-6.29679,0-44.17749,30.70741-53,30-1.043-.08363-4.76508-12.18924-3.95025-12.84564L308,932c0-7.05843,20.94157-20,28-20L2618,785c551-41,2297.40354-178,2646-178"/></g></g></g><g id="bd94b5c2-20a1-425f-91e3-d49de1b1fc43" data-name="icones"><g id="ee1e82bd-0871-40ef-9e6c-e7a57276e9e2" data-name="popcorn"><path d="M5573.18,762.95687a15.85,15.85,0,0,0-7.92423-11.12731,14.51186,14.51186,0,0,0-12.8697-1.15811c0-.33388.09912-.6521.09912-.99118a15.514,15.514,0,0,0-20.96609-14.659c0-.33387.09913-.65209.09913-.99118a15.65009,15.65009,0,0,0-15.65023-15.65022,15.65008,15.65008,0,0,0-15.65022-15.65022c-.33908,0-.65731.07825-.99117.09911a14.362,14.362,0,0,0-.25041-11.08036,16.12493,16.12493,0,0,0-13.04185-9.82834,22.82243,22.82243,0,0,1-32.78657-4.399c-6.219,2.2458-10.28367.86743-10.24781,7.479.01435-8.62914-7.03525-8.33977-15.66375-8.35476a15.62539,15.62539,0,0,0-13.25117,7.30409,15.19341,15.19341,0,0,0-11.29946-1.64328,15.85425,15.85425,0,0,0-11.75854,12.348,15.51961,15.51961,0,0,0,3.91256,13.38094,15.57093,15.57093,0,0,0-12.12893,7.19389,15.21717,15.21717,0,0,0-12.73928-1.22594,15.72839,15.72839,0,0,0-9.66662,9.54143,15.41207,15.41207,0,0,0,.20867,11.096,15.60806,15.60806,0,0,0-11.58117,15.04508c0,.33908.07826.65731.09912.99118a14.50893,14.50893,0,0,0-12.8384,1.14246,15.86356,15.86356,0,0,0-7.95032,11.143,15.58344,15.58344,0,0,0,7.366,15.7024l2.89007,2.32666h18.2586v20.42354h182.58595v-20.434h23.47534l-.73034-.73034A15.58751,15.58751,0,0,0,5573.18,762.95687Z" style="fill:#ffb932"/><path d="M5372.50765,978.7839l-45.297-178.90293a24.29882,24.29882,0,0,1,23.67879-29.76672h.22954a24.29918,24.29918,0,0,1,24.10656,21.21127l28.58252,187.45838Z" style="fill:#d30114"/><path d="M5403.80809,978.7839l-27.78958-181.27656a24.2987,24.2987,0,0,1,24.10657-27.3931h.866a24.29937,24.29937,0,0,1,24.29436,23.67879l9.82312,184.99085h-31.30045Z" style="fill:#fdf5e6"/><path d="M5425.31672,795.03983l9.79183,183.74407H5466.409l9.12408-183.10762a24.3,24.3,0,0,0-23.00452-25.52943q-.62406-.03228-1.24811-.0326h-1.6537a24.299,24.299,0,0,0-24.31784,24.28133q0,.32178.00782.64425Z" style="fill:#d30114"/><path d="M5475.65827,793.17224,5466.409,978.78392h31.30045l26.99142-180.67141a24.29893,24.29893,0,0,0-24.01788-27.99825h-.75643A24.29947,24.29947,0,0,0,5475.65827,793.17224Z" style="fill:#fdf5e6"/><path d="M5549.87685,770.11424a24.29925,24.29925,0,0,1,23.53795,30.33535l-44.40491,178.33433h-31.30045l28.12866-188.06353A24.29923,24.29923,0,0,1,5549.87685,770.11424Z" style="fill:#d30114"/><path d="M5382.94113,848.36536H5518.5764v62.6009H5382.94113Z" style="fill:#ffb932"/><path d="M5346.42394,691.86312a15.5981,15.5981,0,0,0-29.35461-7.41364,15.4444,15.4444,0,0,0-1.94584-.193,15.6577,15.6577,0,1,0,2.17016,31.08135,15.58754,15.58754,0,0,0,27.13292-15.35222q-.08509-.14966-.1728-.29736A15.49333,15.49333,0,0,0,5346.42394,691.86312Z" style="fill:#ffb932"/><path d="M5602.04427,702.2966a15.59809,15.59809,0,0,0-29.3546-7.413,15.44659,15.44659,0,0,0-1.94585-.193,15.6577,15.6577,0,1,0,2.17016,31.08135,15.58754,15.58754,0,1,0,27.13291-15.35222q-.08509-.14966-.17281-.298A15.49305,15.49305,0,0,0,5602.04427,702.2966Z" style="fill:#ffb932"/><path d="M5351.64068,707.51334a20.5271,20.5271,0,0,0-1.565-7.82511,20.52707,20.52707,0,0,0,1.565-7.82511,20.80947,20.80947,0,0,0-37.25275-12.8071,20.86772,20.86772,0,1,0,.35474,41.73393,20.80969,20.80969,0,0,0,36.898-13.27661Zm-29.83976,5.21675-2.13365-2.97876-3.47435.49037a7.43512,7.43512,0,0,1-1.06943.09912,10.43348,10.43348,0,0,1,0-20.867,11.05637,11.05637,0,0,1,1.29376.15129l3.53695.44864,1.70066-3.13005a10.38657,10.38657,0,0,1,19.55234,4.91939,10.22805,10.22805,0,0,1-1.46069,5.21674l-1.5285,2.60837,1.5285,2.60837a10.22811,10.22811,0,0,1,1.46069,5.21675,10.43311,10.43311,0,0,1-10.43348,10.43348A10.31941,10.31941,0,0,1,5321.80092,712.73009Z"/><path d="M5607.261,702.2966a20.80947,20.80947,0,0,0-37.25275-12.8071,20.86772,20.86772,0,0,0,.35475,41.73393,20.80969,20.80969,0,0,0,36.898-13.27661,20.5271,20.5271,0,0,0-1.565-7.82511A20.52952,20.52952,0,0,0,5607.261,702.2966Zm-11.89417,10.43349a10.228,10.228,0,0,1,1.46069,5.21674,10.43311,10.43311,0,0,1-10.43349,10.43348,10.31862,10.31862,0,0,1-8.9728-5.21674l-2.13365-2.97876-3.47435.49037a7.51854,7.51854,0,0,1-1.07466.11477,10.43348,10.43348,0,0,1,0-20.867,11.0561,11.0561,0,0,1,1.29376.15128l3.537.44864,1.70066-3.13a10.38656,10.38656,0,0,1,19.55757,4.90373,10.22818,10.22818,0,0,1-1.46069,5.21675l-1.5285,2.60837Z"/><path d="M5441.23783,676.80605c-7.72743-6.99769-11.23783-8.80605-27.66856-.198-.36452.32018,17.77243-.95236,17.43073-.60806-3.54869-1.12812-25.831.3544-29.44554,1.25038a21.13275,21.13275,0,0,0-15.65022,16.49012,20.76354,20.76354,0,0,0,1.04335,11.15339,20.89987,20.89987,0,0,0-5.67581,4.01689,20.198,20.198,0,0,0-12.87492.193,20.9242,20.9242,0,0,0-12.90622,12.74971,20.68892,20.68892,0,0,0-1.04334,9.72923,20.95544,20.95544,0,0,0-9.95355,12.90621,19.47216,19.47216,0,0,0-10.78822,2.81183A21.10812,21.10812,0,0,0,5323.1938,762.205a20.72492,20.72492,0,0,0,3.65171,15.19115,29.37546,29.37546,0,0,0-4.69506,23.77791L5368.449,984h164.64036L5578.475,801.7427a29.266,29.266,0,0,0-4.17339-23.83008,20.57319,20.57319,0,0,0,4.03775-15.71739h0a21.06137,21.06137,0,0,0-10.48043-14.88858,20.4414,20.4414,0,0,0-10.81431-2.8327,21.0809,21.0809,0,0,0-20.867-15.65022,20.94517,20.94517,0,0,0-15.525-15.12855,20.95131,20.95131,0,0,0-15.12856-15.525,19.3623,19.3623,0,0,0-1.66414-8.50329,21.44588,21.44588,0,0,0-17.403-12.93231,20.72436,20.72436,0,0,0-11.70637,2.45709C5467.55863,670.2495,5449.94215,669.80807,5441,677m-102.109,79.33161a9.30219,9.30219,0,0,1,8.46155-.76165,5.21737,5.21737,0,0,0,6.98521-5.21674c0-.13042-.073-.52167-.08868-.66774a10.433,10.433,0,0,1,7.726-10.01615,5.21628,5.21628,0,0,0,3.50439-6.90377,10.46085,10.46085,0,0,1-.82685-3.388,10.58944,10.58944,0,0,1,7.07255-10.41352,10.017,10.017,0,0,1,8.48242.82425,5.21716,5.21716,0,0,0,6.97479-1.74239,10.2989,10.2989,0,0,1,8.08594-4.78375,5.21646,5.21646,0,0,0,3.48478-8.73283,10.30357,10.30357,0,0,1-2.60837-8.94671,10.56384,10.56384,0,0,1,7.88249-8.20593,9.91239,9.91239,0,0,1,7.49125,1.11116,5.21713,5.21713,0,0,0,6.97478-1.74239,10.43342,10.43342,0,0,1,19.22369,5.55061c0,2.88095,2.40216,5.7039,5.2831,5.7039s5.15038-2.82295,5.15038-5.7039a10.40214,10.40214,0,0,1,20.17837-3.563,5.217,5.217,0,0,0,3.876,3.31263,5.15887,5.15887,0,0,0,4.84636-1.565,10.43467,10.43467,0,0,1,8.52415-3.33872,10.91377,10.91377,0,0,1,8.71718,6.71917,9.07761,9.07761,0,0,1,.13043,7.20953,5.21638,5.21638,0,0,0,4.90374,7.00087c.22953,0,.75643-.073.986-.09912a10.43311,10.43311,0,0,1,10.43349,10.43348,5.217,5.217,0,0,0,5.21674,5.21675,10.4331,10.4331,0,0,1,10.43348,10.28741c0,.13042-.07825.68339-.08867.81381a5.21718,5.21718,0,0,0,6.99043,5.21674,10.23635,10.23635,0,0,1,3.53172-.673,10.43311,10.43311,0,0,1,10.43349,10.28741c0,.13042-.07825.68339-.08868.81381a5.21619,5.21619,0,0,0,6.9852,5.21674,9.35415,9.35415,0,0,1,8.48242.76686,10.58,10.58,0,0,1,5.36281,7.37126,10.34647,10.34647,0,0,1-1.16333,6.55223l-.12519-.07825a29.09479,29.09479,0,0,0-3.38045-2.01887c-.58692-.30433-1.17385-.54072-1.80776-.898a9.88879,9.88879,0,0,0-2.44436-.8918c-.11915-.03045-.22239-.08471-.33859-.11958a29.22584,29.22584,0,0,0-3.88126-.90771c-.31822-.05217-.63121-.09911-.94944-.14607a29.99793,29.99793,0,0,0-4.03775-.31822,29.44833,29.44833,0,0,0-24.51869,13.1827l-.06782.10956-.05739-.10434a29.46373,29.46373,0,0,0-24.55-13.18792h-.75643a29.32632,29.32632,0,0,1-48.64611,0h-1.6537a29.41459,29.41459,0,0,1-48.6409,0h-.866a34.97717,34.97717,0,0,1-54.46278.52167c-.53571.09108-1.02742.22616-1.5429.34876a29.86232,29.86232,0,0,0-3.61115,1.091c-.48519.1826-.97559.35477-1.45034.56345a29.01454,29.01454,0,0,0-4.236,2.26406c-.10434.06782-.22432.12-.32866.1878l-.04695.02608a10.32112,10.32112,0,0,1-.94423-6.17141,10.5944,10.5944,0,0,1,5.39407-7.39733Zm180.65054,41.014-6.83915,45.803h-34.29487l2.478-49.71033a18.78028,18.78028,0,0,1,3.22916-9.55707,19.03641,19.03641,0,0,1,15.81716-8.55024h.75643a19.11149,19.11149,0,0,1,18.85332,22.01465Zm-88.98718-2.67619a19.06728,19.06728,0,0,1,18.794-19.3365c.08608-.0013.1715-.002.25758-.002h1.67457a19.21071,19.21071,0,0,1,19.062,20.06359l-2.3997,47.75405h-34.81653l-2.56141-48.19225Zm-46.309-10.79865a19.06265,19.06265,0,0,1,15.87977-8.5398h.866a19.20282,19.20282,0,0,1,19.08283,18.749l.03131.56862v.20345l2.551,48.29659h-34.24791l-7.30343-48.04619a18.81275,18.81275,0,0,1,3.16656-11.22643Zm-7.679,189.69636-44.27448-174.86a19.18192,19.18192,0,1,1,37.75878-6.59918l.61035,4.00124c.03652.6834.07825,1.36678.18259,2.18582l6.88088,44.85354V916.183h11.21077l1.11639,7.30344,7.679,50.08073h-21.16432Zm31.723,0-5.34716-35.06693L5399.5408,916.183h27.00707l3.057,57.38415Zm53.15337,0H5440.054l-3.04657-57.38415h27.31484Zm31.77,0H5471.8918l2.864-57.38415h27.03836Zm-17.93516-67.81763h-87.11958V853.5821h125.20179v52.16742Zm93.06667-106.55716-43.41371,174.37479h-21.16432l8.58154-57.38415h11.44554V843.14862l7.20432-51.64574a19.08286,19.08286,0,1,1,37.70137,5.93535q-.13889.88227-.36,1.74892Z" style="stroke:#000;stroke-miterlimit:10;stroke-width:4px"/></g><g id="bc7501ac-e6af-4993-8c4b-8d814d56aaee" data-name="Ticket"><path d="M5207.925,876.19489a3.65324,3.65324,0,1,0-2.58228-1.07A3.67884,3.67884,0,0,0,5207.925,876.19489Z" style="stroke:#000;stroke-miterlimit:10;stroke-width:3px"/><path d="M5260.24409,871.35845a3.65785,3.65785,0,1,0,1.06716,2.58229A3.6855,3.6855,0,0,0,5260.24409,871.35845Z" style="stroke:#000;stroke-miterlimit:10;stroke-width:3px"/><path d="M5270.44484,864.81a3.65324,3.65324,0,1,0-2.58514-1.07A3.67884,3.67884,0,0,0,5270.44484,864.81Z" style="stroke:#000;stroke-miterlimit:10;stroke-width:3px"/><path d="M5336.04063,886.845h-10.19076l17.939-17.93905a10.95806,10.95806,0,0,0,0-15.49515l-16.27126-16.27126a3.65355,3.65355,0,0,0-5.16457,0,10.95673,10.95673,0,0,1-15.49515-15.49515,3.651,3.651,0,0,0,0-5.16457L5290.5881,800.21a10.95462,10.95462,0,0,0-15.49514,0l-60.3228,60.32137a3.65241,3.65241,0,0,0,5.166,5.16458l60.32137-60.32137a3.651,3.651,0,0,1,5.16457,0l13.94578,13.94435A18.26937,18.26937,0,0,0,5324.68,844.63107l13.94435,13.94435a3.65614,3.65614,0,0,1,0,5.16457L5315.5193,886.845h-16.01161l11.99979-11.99979a3.65355,3.65355,0,0,0,0-5.16457l-37.18921-37.18922a3.6527,3.6527,0,0,0-5.166,0L5214.7987,886.845h-43.84181A10.96887,10.96887,0,0,0,5160,897.80192v23.00946a3.65293,3.65293,0,0,0,3.6523,3.6523,10.95689,10.95689,0,0,1,0,21.91377,3.652,3.652,0,0,0-3.6523,3.6523v23.00946a10.96979,10.96979,0,0,0,10.95689,10.95688h165.08374a10.96978,10.96978,0,0,0,10.95689-10.95688V950.02975a3.652,3.652,0,0,0-3.65229-3.6523,10.95689,10.95689,0,1,1,0-21.91377,3.65293,3.65293,0,0,0,3.65229-3.6523V897.80192A10.96886,10.96886,0,0,0,5336.04063,886.845Zm-64.30607-46.60671,32.02463,32.02463L5289.17712,886.845h-14.46223l10.70721-10.70865a3.6519,3.6519,0,0,0-5.16457-5.16457l-15.87322,15.87179h-39.255Zm67.95837,77.28742a18.26429,18.26429,0,0,0,0,35.78964v19.72382a3.6566,3.6566,0,0,1-3.6523,3.65229H5170.95689a3.6566,3.6566,0,0,1-3.6523-3.65229V953.31539a18.26429,18.26429,0,0,0,0-35.78964V897.80192a3.65568,3.65568,0,0,1,3.6523-3.65229h165.08374a3.65568,3.65568,0,0,1,3.6523,3.65229Z" style="stroke:#000;stroke-miterlimit:10;stroke-width:3px"/><path d="M5238.00219,929.23734a3.651,3.651,0,1,0-2.58229,1.07A3.6839,3.6839,0,0,0,5238.00219,929.23734Z" style="stroke:#000;stroke-miterlimit:10;stroke-width:3px"/><path d="M5274.15991,929.23734a3.651,3.651,0,1,0-2.58229,1.07A3.68387,3.68387,0,0,0,5274.15991,929.23734Z" style="stroke:#000;stroke-miterlimit:10;stroke-width:3px"/><path d="M5256.08105,929.23734a3.651,3.651,0,1,0-2.58229,1.07A3.68387,3.68387,0,0,0,5256.08105,929.23734Z" style="stroke:#000;stroke-miterlimit:10;stroke-width:3px"/><path d="M5217.341,930.30735a3.65324,3.65324,0,1,0-2.58229-1.07A3.68135,3.68135,0,0,0,5217.341,930.30735Z" style="stroke:#000;stroke-miterlimit:10;stroke-width:3px"/><path d="M5292.23877,929.23734a3.651,3.651,0,1,0-2.58229,1.07A3.68387,3.68387,0,0,0,5292.23877,929.23734Z" style="stroke:#000;stroke-miterlimit:10;stroke-width:3px"/><path d="M5217.341,947.83837h72.31544a3.6523,3.6523,0,1,0,0-7.30459H5217.341a3.6523,3.6523,0,1,0,0,7.30459Z" style="stroke:#000;stroke-miterlimit:10;stroke-width:3px"/><path d="M5230.60629,958.0648a3.65324,3.65324,0,1,0,2.58228,1.07A3.68136,3.68136,0,0,0,5230.60629,958.0648Z" style="stroke:#000;stroke-miterlimit:10;stroke-width:3px"/><path d="M5309.01365,905.47174H5197.98387a3.652,3.652,0,0,0-3.65229,3.6523v52.593a3.65293,3.65293,0,0,0,3.65229,3.6523H5213.198a3.6523,3.6523,0,1,0,0-7.30459h-11.56179V912.77633h103.72518V958.0648h-59.29273a3.6523,3.6523,0,0,0,0,7.30459h62.945a3.65293,3.65293,0,0,0,3.65229-3.6523V909.124A3.652,3.652,0,0,0,5309.01365,905.47174Z" style="stroke:#000;stroke-miterlimit:10;stroke-width:3px"/></g><g id="f0af3da7-b314-4a92-a6b3-27f790deb5e2" data-name="Clapperboard"><path d="M111.14147,310.02784,132.44,419.59905a37.24918,37.24918,0,0,0,43.623,29.42407l262.97091-51.11637a37.23978,37.23978,0,0,0,29.42406-43.623L447.15939,244.71257Z"/><polygon points="236.648 108.166 184.501 131.766 243.402 190.257 299.996 165.278 236.648 108.166"/><polygon points="170.009 138.328 113.803 163.748 172.1 221.704 228.779 196.693 170.009 138.328"/><path d="M419.58433,104.098,397.98456,59.35523A22.48027,22.48027,0,0,0,368.6714,48.40581l-46.82174,21.2001,59.92239,59.61153,34.11188-15.06023a7.41771,7.41771,0,0,0,3.98117-4.24561A7.50334,7.50334,0,0,0,419.58433,104.098Z"/><polygon points="307.343 76.17 251.448 101.469 314.911 158.709 367.149 135.652 307.343 76.17"/><polygon points="170.562 222.686 158.544 285.653 215.857 274.512 227.875 211.545 170.562 222.686"/><polygon points="243.61 208.487 231.591 271.454 288.904 260.313 300.923 197.346 243.61 208.487"/><path d="M425.659,173.09974l-35.95374,6.9887-12.01581,62.98138,66.63367-12.95228-9.93934-51.13345A7.42572,7.42572,0,0,0,425.659,173.09974Z"/><polygon points="316.658 194.287 304.638 257.255 361.937 246.117 373.97 183.147 316.658 194.287"/><path d="M99.31412,170.32427l-11.35893,5.13389a22.31327,22.31327,0,0,0-11.21793,29.8806l23.948,50.89647,7.61634,39.18267,34.5074-6.70756,11.27658-59.06248,3.40835-1.49616Z"/></g><g id="bcd3c2ab-c7be-427e-a097-84ab875cecaf" data-name="Singe_roi_lion"><path d="M5442.3984,868.81665a1.11363,1.11363,0,0,1,.65044,1.029,2.22028,2.22028,0,1,0,4.43126-.18015,1.43561,1.43561,0,0,1,.4167-1.32985,1.08983,1.08983,0,0,0,.49916-.98747,1.12048,1.12048,0,0,0-2.093-.34994,1.74511,1.74511,0,0,1-2.56715.2246,1.08984,1.08984,0,0,0-.98747-.49916,1.11514,1.11514,0,0,0-1.013,1.20723A1.08984,1.08984,0,0,0,5442.3984,868.81665Z" style="fill:red;stroke:#000;stroke-miterlimit:10;stroke-width:0.75px"/><path d="M5437.56821,870.3568a7.75772,7.75772,0,0,0,15.35285-1.3432,3.32882,3.32882,0,1,0-2.62413-6.1172,7.59548,7.59548,0,0,0-11.2067.98046,3.30841,3.30841,0,0,0-1.07366-.095,3.33387,3.33387,0,0,0-.44836,6.575Zm4.98588-5.85336a3.25229,3.25229,0,0,0,4.44041-.38848,3.34671,3.34671,0,0,1,3.62166,3.03893,3.25549,3.25549,0,0,1-.90124,2.54656,4.45789,4.45789,0,0,1-8.87.776,3.25551,3.25551,0,0,1-1.32976-2.35136A3.34673,3.34673,0,0,1,5442.55409,864.50344Z" style="fill:red;stroke:#000;stroke-miterlimit:10;stroke-width:0.75px"/><path d="M5459.06194,897.81031l7.74932-.678a6.75726,6.75726,0,0,0,6.0714-7.31734l-.777-8.88081a2.22508,2.22508,0,0,1,1.01632-2.06831,2.08026,2.08026,0,0,0,.86842-1.96037,2.283,2.283,0,0,0-1.29711-1.85279,2.09186,2.09186,0,0,0-2.10132.1423,6.69829,6.69829,0,0,0-2.92671,6.12765l.777,8.88081a2.2316,2.2316,0,0,1-2.026,2.41445l-2.98477.26113A16.017,16.017,0,0,1,5459.06194,897.81031Z" style="fill:red;stroke:#000;stroke-miterlimit:10;stroke-width:0.75px"/><path d="M5438.84889,886.081l4.55519-.39853a7.74633,7.74633,0,0,1,4.03548-2.49629,1.11394,1.11394,0,1,1,.52588,2.16493,5.70965,5.70965,0,0,0-4.19144,4.88264,5.63023,5.63023,0,0,0,.25536,2.1056l-.06979.00611c.00706.0304.00747.06229.015.09265a5.66136,5.66136,0,0,0-4.05084,5.928,1.1137,1.1137,0,0,0,1.20722,1.013l10.74112-.93973c5.97523-.52276,12.07421-6.77821,11.39907-14.495a13.43076,13.43076,0,0,0-8.88809-11.41265,9.9743,9.9743,0,0,1-8.34615,6.20886,9.81188,9.81188,0,0,1-1.11841.0021l.10543,1.20512a1.11514,1.11514,0,0,1-1.013,1.20723l-5.5505.4856a2.22869,2.22869,0,0,0,.38848,4.44041Z" style="fill:red;stroke:#000;stroke-miterlimit:10;stroke-width:0.75px"/></g></g><g id="b11d3a14-51d6-40c5-9c56-bfe8e980d1b6" data-name="Ancrage"><rect x="5624" y="999" width="1" height="1" style="fill:none"/><rect x="5624" width="1" height="1" style="fill:none"/><rect y="999" width="1" height="1" style="fill:none"/><rect width="1" height="1" style="fill:none"/></g></svg>