<svg xmlns="http://www.w3.org/2000/svg" viewBox="0 0 5625 1000"><title>logo_a_table</title><g id="a7689d23-2a68-4111-aa1f-96e3253fc3e0" data-name="Texte"><path d="M1445.52637,927.751l-35.13282-132.04981H1187.251L1154.0166,927.751h-73.11474l176.61523-665.9502h85.459l182.312,665.9502Zm-292.459-839.79981,26.58692-38L1396.15039,196.251l-18.99023,24.70019Zm145.28028,276.44922L1203.39307,733.001H1394.251Z" style="fill:#249cd3"/><path d="M2004.79492,927.751V337.80078H1857.61621v-76H2227.9375v76H2078.85938V927.751Z" style="fill:#249cd3"/><path d="M2629.59473,927.751l-35.13282-132.04981H2371.31934L2338.085,927.751H2264.9707l176.61524-665.9502h85.459L2709.35645,927.751ZM2482.416,364.40039,2387.46191,733.001h190.85743Z" style="fill:#249cd3"/><path d="M2828.0498,927.751V261.80078h244.98243q138.62549,0,138.63379,124.4502v85.5q0,49.4077-18.51661,76.95019-18.51562,27.564-51.75,33.25,34.1836,5.69971,56.97266,36.09961,22.78857,30.41455,22.78906,81.7002v72.20019q0,155.814-150.02832,155.79981Zm314.29883-517.75q0-72.186-69.3164-72.2002h-170.918v213.75H3072.083q36.0747,0,53.17383-19.95019,17.0918-19.94971,17.09179-53.2002Zm4.74805,289.75q0-37.0503-20.88965-60.79981-20.89746-23.73633-60.77148-23.75H2902.11426V851.751h164.27148q80.69532,0,80.71094-82.65039Z" style="fill:#e2017a"/><path d="M3365.48828,927.751V261.80078h73.11524V851.751h223.14257v76Z" style="fill:#e2017a"/><path d="M3786.13281,927.751V261.80078H4156.4541v76H3860.19727V554.40039H4036.8125v70.30078H3860.19727V851.751H4156.4541v76Z" style="fill:#e2017a"/><g id="fd18210d-42fb-4094-9d00-0781d7833463" data-name="spoon"><path d="M4473.1624,110.95363a23.53166,23.53166,0,0,0-23.62148,23.62147c.07371.20735.02074.288.08641.48953,0,0-.0668,173.5667.00114,189.7471,13.61629,79.40906-3.05131,108.93851-3.05131,108.93851l-.08064,17.18366,13.6762-.02649.06793,256.19641c-41.7013,8.64482-73.65429,59.44246-73.6013,121.00553-.0668,67.70488,38.69146,122.57556,86.32951,122.556s86.30187-54.93172,86.32145-122.564c.14168-62.078-32.52664-113.2684-74.69213-121.34534l-.06681-255.875,13.69118-.01383.01383-17.11685s-19.40564-42.79789-1.35113-108.4985c-.0795-13.91809-.08639-190.23548-.08639-190.23548.07948-.07947.00577-.31447.07256-.38126A23.77839,23.77839,0,0,0,4473.1624,110.95363Zm-4.05462,620.79569a26.50939,26.50939,0,0,0-3.96936,2.97644,53.52653,53.52653,0,0,0-4.95883,4.82518c-1.49167,1.54468-3.125,3.25868-4.83786,4.89087-7.74866,8.44439-18.30212,20.04147-25.468,33.0703a48.04508,48.04508,0,0,0-3.79543,10.21827,110.08306,110.08306,0,0,0-2.47654,11.36208,161.84865,161.84865,0,0,0-2.55716,21.53314c-.33405,6.59793-.58861,11.93918-.0668,15.77838.20158,3.86914.79133,7.69566.76368,7.7233a2.38958,2.38958,0,0,1-1.8073,2.71726,2.36313,2.36313,0,0,1-2.86239-1.55155s-1.09082-3.13886-2.67-7.87652a83.05963,83.05963,0,0,1-3.82769-17.77459,148.97507,148.97507,0,0,1-.6151-24.35753,112.64131,112.64131,0,0,1,1.866-13.4562,66.1863,66.1863,0,0,1,4.51763-13.35023c6.73156-12.56694,17.10994-23.37383,31.67194-33.00809a59.803,59.803,0,0,1,12.64643-6.51845l.842-.36053a18.39168,18.39168,0,0,1,6.35145-1.373.87456.87456,0,0,0,.1935-.00692,2.4277,2.4277,0,0,1,2.24847,1.873A2.366,2.366,0,0,1,4469.10778,731.74932Zm18.468-594.09639c-.05991,7.19232-5.99551,32.25363-13.33642,32.16726-7.35357-.07372-13.26959-24.96572-13.189-32.16725a13.13347,13.13347,0,0,1,13.26269-13.26269A13.35314,13.35314,0,0,1,4487.57579,137.65293Z" style="fill:#e2017a"/></g></g><g id="e6a414d8-ea78-452e-98dd-604226f0a02e" data-name="icons"><g id="b6cfa329-8dda-46ac-98e0-889cbc2449c0" data-name="logo1"><g id="b97a0a4d-8f7d-4d77-9d26-25d4d4621810" data-name="hand"><g id="b91cce16-4b13-41da-a7b2-a14f2f13881e" data-name="manche"><path d="M4982.37768,661.10664H4879.34942L4934.5815,860h109.10808l-16.2731-53.71176Zm-9.2621,189.137a25.20521,25.20521,0,1,1,25.20671-25.20374v.003A25.23386,25.23386,0,0,1,4973.11558,850.24367Z" style="fill:#e2017a;stroke:#2f3a5a;stroke-miterlimit:10;stroke-width:7px"/><path d="M4973.11558,814.90093a10.13753,10.13753,0,1,0,10.139,10.13753A10.13753,10.13753,0,0,0,4973.11558,814.90093Z" style="fill:#e2017a;stroke:#2f3a5a;stroke-miterlimit:10;stroke-width:7px"/></g><g id="fd3dc71d-38bc-4a58-bc67-4f2e6a9100d7" data-name="main"><path d="M5355.461,666.14678l73.238-39.51049c-8.66088-9.00143-22.22483-12.56644-32.24483-7.53384l-56.51888,30.45328a62.01063,62.01063,0,0,1,10.56545,19.21281Z" style="fill:#d9e2e9;stroke:#2f3a5a;stroke-miterlimit:10;stroke-width:7px"/><path d="M5322.42808,616.96737c-.05877.03467-.11754.06782-.17782.09946l-19.20826,10.4389a61.8018,61.8018,0,0,1,25.45232,11.08528l37.65867-20.27657C5352.74576,610.11159,5335.68918,609.28289,5322.42808,616.96737Z" style="fill:#d9e2e9;stroke:#2f3a5a;stroke-miterlimit:10;stroke-width:7px"/><path d="M5453.22154,630.52676,5362.5518,679.441l-8.98033,4.73578c.10245,1.44349.17179,2.89448.17179,4.36961a7.53386,7.53386,0,0,1-7.53384,7.53384h-.34055l-62.59414-2.83273a302.61167,302.61167,0,0,0-55.00907,2.54042,7.53384,7.53384,0,0,1-2.06578-14.917,317.85064,317.85064,0,0,1,57.75439-2.66848l54.05378,2.4485a47.09553,47.09553,0,0,0-46.35721-39.13229h-73.37959a95.31638,95.31638,0,0,1-41.25982-9.45647l-7.56849-3.66144A114.11806,114.11806,0,0,0,5050.913,639.81752l-18.036,16.05461a79.1462,79.1462,0,0,1-31.16,17.05814l37.17949,119.61326L5090.321,760.035c.11452-.07385.23053-.14163.34807-.20794a48.35229,48.35229,0,0,1,35.27794-4.77344l110.05736,20.266a126.24191,126.24191,0,0,0,13.353,1.68606,122.86947,122.86947,0,0,0,77.94811-21.7261l170.54049-117.094A36.62353,36.62353,0,0,0,5453.22154,630.52676Z" style="fill:#d9e2e9;stroke:#2f3a5a;stroke-miterlimit:10;stroke-width:7px"/></g></g><g id="a836daae-965b-4002-ba17-7935c93f2382" data-name="plateau"><path d="M5224.01353,256.431c4.5203-.27273,11.04458-.42792,16.57444-.42792s10.54738.15068,16.57445.42792V232.36035a59.59423,59.59423,0,0,1-16.57445,2.52987,52.10875,52.10875,0,0,1-16.57444-2.52987Z" style="fill:#d9e2e9;stroke:#2f3a5a;stroke-miterlimit:10;stroke-width:7px"/><path d="M5239.94306,271.18976c-135.86827,0-252.88688,87.05653-281.9916,209.10473h563.98321C5492.833,358.24629,5375.83543,271.18977,5239.94306,271.18976Zm-119.54245,101.752a187.74323,187.74323,0,0,0-51.86145,51.44255,7.53385,7.53385,0,0,1-12.57684-8.2981q.03491-.05286.07066-.10514a202.70092,202.70092,0,0,1,55.993-55.56358,7.53384,7.53384,0,0,1,8.37462,12.52425Zm31.957-17.373c-2.72575,1.17829-5.44847,2.42438-8.08833,3.70362a7.53519,7.53519,0,1,1-6.574-13.56091c2.83875-1.37567,5.76188-2.71218,8.691-3.97938a7.53383,7.53383,0,1,1,6.05765,13.79636l-.08633.03727Z" style="fill:#d9e2e9;stroke:#2f3a5a;stroke-miterlimit:10;stroke-width:7px"/><path d="M5279.85434,179.91277a39.91127,39.91127,0,1,0-39.91279,39.90977h.00151A39.955,39.955,0,0,0,5279.85434,179.91277Z" style="fill:#d9e2e9;stroke:#2f3a5a;stroke-miterlimit:10;stroke-width:7px"/><path d="M4946.16552,575.27513a21.99884,21.99884,0,0,0,21.55582,18.027h543.52285a22.08617,22.08617,0,0,0,21.46993-17.54781l6.35254-30.66876H4940.59953Z" style="fill:#d9e2e9;stroke:#2f3a5a;stroke-miterlimit:10;stroke-width:7px"/><path d="M5557.6752,495.36217H4922.20789a17.32783,17.32783,0,1,0,0,34.65566h635.46428a17.32783,17.32783,0,1,0,0-34.65566Z" style="fill:#d9e2e9;stroke:#2f3a5a;stroke-miterlimit:10;stroke-width:7px"/></g></g><g id="b9e2ae98-d0d7-4a54-b2ce-ba6dbd01aede" data-name="plate"><g id="eba0895f-c1b8-41dc-afa6-ba2e617f7697" data-name="assiette"><circle cx="507.91097" cy="540.02486" r="324.60457" style="fill:#249cd3"/><path d="M507.91925,872.91928C324.053,872.91928,175,723.86624,175,540S324.05307,207.0807,507.91931,207.08072,840.83856,356.13379,840.83856,540C840.6468,723.78682,691.706,872.72758,507.91925,872.91928Zm0-649.21741c-174.71867,0-316.3561,141.63746-316.3561,316.35616s141.63746,316.3561,316.3561,316.3561S824.27541,714.77668,824.27541,540.058C824.09281,365.41505,682.56226,223.88445,507.91925,223.70187Z" style="fill:#2f3a5a"/><circle cx="507.91097" cy="540.02486" r="281.6729" style="fill:#d9e2e9"/><path d="M507.91925,829.97934c-160.13743.00455-289.95819-129.80877-289.96276-289.9462S347.76526,250.075,507.90269,250.07039,797.8609,379.87916,797.86545,540.01659v.00827C797.68746,700.08527,667.97966,829.7968,507.91925,829.97934Zm0-563.33753c-150.98987-.00914-273.39875,122.38491-273.40788,273.37478S356.89628,813.41531,507.88614,813.42447,781.28486,691.03956,781.294,540.04969v-.02483c-.17344-150.91016-122.46464-273.20506-273.37477-273.383Z" style="fill:#2f3a5a"/><g style="opacity:0.5"><circle cx="507.91097" cy="540.02486" r="186.26086" style="fill:#c1cdd3;stroke:#2f3a5a;stroke-miterlimit:10"/><path d="M507.91925,734.56736c-107.44283.02287-194.561-87.05819-194.58385-194.501s87.05822-194.561,194.50108-194.58385S702.39742,432.54068,702.4203,539.98354v.04132C702.29715,647.40049,615.29482,734.42134,507.91925,734.56736Zm0-372.51347a177.9793,177.9793,0,1,0,177.9379,178.0207v-.04973a178.178,178.178,0,0,0-177.9379-177.971Z" style="fill:#249cd3;stroke:#2f3a5a;stroke-miterlimit:10;stroke-width:6px"/></g></g><g id="b8ba968e-c1f3-4d1a-8681-a8dfa661c2f8" data-name="fouchette"><path d="M716.35334,466.3311,800.52944,362.028c3.943-4.90541,4.191-12.07714.56329-16.28978l-1.61655-1.8795c-3.74975-4.35969-10.24418-3.94479-14.50572.92669h0L689.70287,453.68829c-5.02031,5.744-12.67469,6.23741-17.09657,1.10212l-.00808-.00939-1.21241-1.40962c-4.41746-5.14186-3.92651-13.96224,1.09676-19.70448l94.868-108.44606c3.95773-4.348,4.957-10.98943,2.3706-15.75587-2.98865-5.11834-9.33-5.96046-14.16389-1.88094a12.88653,12.88653,0,0,0-1.37989,1.35713L658.89142,417.865c-4.92449,5.85829-12.59156,6.54559-17.12489,1.53511s-4.21621-13.82137.70829-19.67966q.20029-.23829.40871-.46721l94.868-108.44606c3.95772-4.348,4.957-10.98943,2.3706-15.75587-2.98866-5.11834-9.33-5.96048-14.16389-1.88095a12.88755,12.88755,0,0,0-1.3799,1.35713l-95.286,108.92385c-5.00237,5.72363-12.62481,6.23714-17.05616,1.1491l-1.55593-1.809c-4.42189-5.1353-3.93677-13.95469,1.08353-19.69868l.00919-.0105L707.059,254.15843c4.26155-4.87148,4.67644-12.35481.9267-16.71449h0l-1.40236-1.63047c-3.62325-4.21773-9.846-3.9926-14.13424.51136l-91.20626,96.17173a159.929,159.929,0,0,0-38.77086,71.96811l-21.39235,88.12784L280.9423,776.618c-15.867,16.7284-18.4807,43.56011-5.85108,60.0652,12.75887,15.69272,35.46538,14.89362,50.71641-1.78485q.76879-.84075,1.5009-1.72455L576.99126,534.34561l76.61777-23.9194C677.22813,503.05087,699.14658,487.64716,716.35334,466.3311Z" style="fill:#d9e2e9"/><path d="M653.61933,510.39581l-76.63323,23.965-249.707,298.8c-14.47544,17.5092-37.21744,19.79171-50.79563,5.09808q-.7052-.76306-1.36636-1.57738a35.68143,35.68143,0,0,1-7.44308-17.21083,3.46718,3.46718,0,0,0,.65232.95961c12.77549,15.69468,35.49849,14.88131,50.75324-1.81669q.76366-.8359,1.49106-1.71424l249.666-298.837,76.62367-23.87021c23.61076-7.39388,45.51982-22.7982,62.72758-44.104L793.7767,345.78927a13.09508,13.09508,0,0,0,2.35058-4.29912,8.06421,8.06421,0,0,1,3.38123,2.40621l1.5923,1.85131c3.629,4.2048,3.36981,11.37812-.58754,16.26158L716.3695,466.34989C699.151,487.64333,677.233,503.02809,653.61933,510.39581Z" style="fill:#c1cdd3"/><path d="M271.29728,842.2959l-.70724-.82229c-7.0372-8.68953-10.38969-20.71083-9.30494-33.36549a62.25024,62.25024,0,0,1,15.94644-36.68885L535.927,488.95812l20.86849-85.97279a167.45267,167.45267,0,0,1,40.82379-75.78722l91.17063-96.14963c6.83525-7.22455,16.78989-7.6004,22.57624-.8524l1.40236,1.63047c5.97361,6.96278,5.312,18.89531-1.47884,26.67355l-95.286,108.92383c-2.48263,2.8431-2.72447,7.20517-.54057,9.75012l1.56806,1.82312c2.18895,2.53919,5.97458,2.29735,8.46167-.54057l95.29054-108.92909c6.804-7.77611,17.1718-8.437,23.15717-1.47613a15.55232,15.55232,0,0,1,1.61653,2.26785c4.145,7.46456,2.66159,17.94185-3.52124,24.87082L647.15869,403.64661c-2.48717,2.84315-2.72931,7.21065-.54084,9.75509s5.97881,2.30231,8.466-.54084h0l95.29055-108.92909c6.804-7.77611,17.1718-8.437,23.15716-1.47613a15.55184,15.55184,0,0,1,1.61654,2.26785c4.13551,7.46775,2.64533,17.93949-3.538,24.862l-94.87259,108.4513c-2.48262,2.8431-2.72445,7.20515-.54057,9.75012l1.21241,1.40962c2.189,2.53917,5.97459,2.29735,8.46167-.54057l95.29055-108.92908c6.80127-7.76444,17.15653-8.4282,23.14467-1.48355l1.61655,1.8795c5.80727,6.726,5.39682,18.20155-.93063,26.01891L720.82524,470.43429h0c-18.099,22.4847-41.19763,38.71122-66.087,46.42528l-74.74814,23.329-248.305,297.17872c-16.99226,20.48963-43.64305,23.111-59.52622,5.855q-.42642-.4633-.83921-.94275Zm430.895-601.585c-1.47-1.71288-3.99778-1.617-5.73357.21757l-91.17468,96.145a150.69271,150.69271,0,0,0-36.74031,68.1653l-21.39642,88.12316a8.47489,8.47489,0,0,1-1.95649,3.70884L285.06223,781.0956a45.13066,45.13066,0,0,0-11.584,26.59543c-.7696,8.89605,1.57935,17.35037,6.51982,23.466a24.927,24.927,0,0,0,21.11032,9.2939c8.20087-.515,16.25351-4.93681,22.22922-12.2064L573.03247,529.43043a6.97657,6.97657,0,0,1,3.23356-2.224L652.88382,503.287c22.38637-6.94846,43.1608-21.54786,59.44074-41.77242L796.49147,357.222a5.30983,5.30983,0,0,0,.23271-6.60263l-1.61655-1.8795c-1.52094-1.7625-4.1503-1.59231-5.876.38033L693.94571,458.044c-7.56387,8.62593-19.07261,9.36116-25.73038,1.64378l-1.21241-1.40962c-6.63752-7.74053-5.90229-21.00171,1.64377-29.64833l94.87259-108.45131a6.15312,6.15312,0,0,0,1.23613-6.62212,3.60231,3.60231,0,0,0-2.96939-1.84264,4.3616,4.3616,0,0,0-3.35369,1.59723L663.14638,422.23487c-7.56043,8.64252-19.08225,9.37859-25.7347,1.644s-5.91639-21.01078,1.644-29.6533L733.92831,285.7743a6.16078,6.16078,0,0,0,1.23209-6.62682,3.60231,3.60231,0,0,0-2.96939-1.84264,4.36157,4.36157,0,0,0-3.35369,1.59723L633.55137,387.82591c-7.56387,8.62591-19.07262,9.36114-25.73039,1.64377l-1.53168-1.78082c-6.63751-7.74053-5.90228-21.00171,1.64378-29.64834l95.29055-108.92908a5.35823,5.35823,0,0,0,.37564-6.77534Z" style="fill:#2f3a5a"/></g><g id="fd313136-490a-4060-a2b3-e1c95ae0e0e5" data-name="couteau"><path d="M286.56666,252.03464c-19.01057-24.11168-63.295,59.936,105.74377,277.32022C507.69982,677.76791,544.50935,641.97149,544.50935,641.97149L676.21249,815.11178c14.30825,18.77158,37.82092,22.35683,52.51708,8.00788s15.01062-41.1984.70238-59.97q-.78093-1.02445-1.609-2.00035Z" style="fill:#d9e2e9"/><path d="M513.70653,642.11191a6.08732,6.08732,0,0,0,1.51967-1.05768l1.694,2.1605A31.79655,31.79655,0,0,1,513.70653,642.11191Z" style="fill:#d9e2e9"/><path d="M727.812,761.109c15.20141,17.86959,16.33716,44.91564,2.53673,60.409-9.817,11.02141-25.05659,13.57833-38.9543,6.53583,17.99789-8.80689,24.596-33.73009,14.73726-55.66765a50.84575,50.84575,0,0,0-7.63293-12.1171L268.21909,264.03057c3.281-16.19682,12.18827-19.83014,18.38723-11.97852Z" style="fill:#c1cdd3"/><path d="M735.36593,826.28277l-.97764,1.13695c-16.36844,17.65563-43.74318,14.85658-61.14307-6.25184q-.71844-.87156-1.40549-1.77567L543.66263,650.889c-14.27769,6.28848-58.37439,7.97226-155.66871-117.17086C242.9677,347.18969,254.31033,260.92981,269.80912,245.1084c5.24608-6.02736,14.281-5.39333,20.18006,1.4161q.39686.45813.7667.94542L731.91974,756.46966c17.53147,20.54369,19.0834,51.63348,3.48477,69.81059Zm-457.24871-569.728c-9.97853,11.60458-18.921,91.67342,118.52409,268.4625,108.02521,138.94036,143.38207,111.527,143.731,111.22715l4.36509-3.72074,4.15737,5.16328L680.59786,810.82727c11.94738,15.68436,31.58765,18.68728,43.86779,6.70709s12.54991-34.40667.60253-50.091q-.65733-.86287-1.35466-1.68449L282.28863,256.39538c-1.00885-1.28391-1.94106-2.11681-3.81431-.22426Z" style="fill:#2f3a5a"/><path d="M375.71916,482.66642l-.17371.202c-1.42911,1.30119-3.64861.88626-4.95864-.927a681.47254,681.47254,0,0,1-74.76712-132.89132c-.91426-2.08109-.26928-4.42569,1.4406-5.2368s3.83714.21843,4.75139,2.29953q.03172.07209.06111.14528a671.68818,671.68818,0,0,0,73.693,130.97374A4.4288,4.4288,0,0,1,375.71916,482.66642Z" style="fill:#fff"/><path d="M290.53548,322.585c-1.32456,1.43786-3.54622,1.21785-4.96223-.49135a4.85461,4.85461,0,0,1-.83257-1.47555c-2.51645-7.13516-3.69116-11.0964-3.69116-11.0964-.53888-2.20423.53419-4.28364,2.39674-4.64447a3.9552,3.9552,0,0,1,4.21483,2.8866c.02114.07074,1.14732,3.85542,3.5357,10.62054A4.20716,4.20716,0,0,1,290.53548,322.585Z" style="fill:#fff"/></g></g></g><g id="ad3d9c32-48c2-45b6-9978-eaf6532920e2" data-name="Ancrage"><rect x="5624" y="999" width="1" height="1" style="fill:none"/><rect x="5624" width="1" height="1" style="fill:none"/><rect y="999" width="1" height="1" style="fill:none"/><rect width="1" height="1" style="fill:none"/></g></svg>