<svg xmlns="http://www.w3.org/2000/svg" viewBox="0 0 5625 1000"><defs><style>.cls-1,.cls-2,.cls-4{fill:#ac8fbd;}.cls-1,.cls-2{stroke:#000;stroke-miterlimit:10;}.cls-1{stroke-width:8px;}.cls-2{stroke-width:6px;}.cls-3{fill:#cacaca;}.cls-5{fill:#bee7f4;}.cls-6{fill:#fff;}.cls-7{fill:#97a0c7;}.cls-8{fill:none;}</style></defs><title>logo_dou_ca_vient</title><g id="Texte"><path class="cls-1" d="M697.23633,327.835c-1.11963-.71338-2.43164-2.32471-3.91846-4.834q-2.2434-3.75147-4.47851-8.3252-2.24342-4.55712-3.91846-8.59375a17.88716,17.88716,0,0,1-1.6792-5.63965,11.41773,11.41773,0,0,1,5.87793-10.47363,32.80789,32.80789,0,0,1,13.43457-4.29687,101.19623,101.19623,0,0,1,14.55469-.53711c4.66211.18457,7.55713.26855,8.67675.26855s3.07911.09229,5.87793.26856q4.19824.27686,8.95655.5371,4.74975.27686,8.67676.53711c2.60644.18457,4.47851.26856,5.59814.26856q24.06225,8.59789,55.979,20.1416,31.908,11.55615,65.49561,26.58691A653.21416,653.21416,0,0,1,942.145,367.84961a320.01881,320.01881,0,0,1,57.37891,42.96875,213.32818,213.32818,0,0,1,40.86474,52.63672q15.665,28.73951,15.67432,63.64746,0,30.08643-12.03565,53.97949a141.42388,141.42388,0,0,1-31.62841,41.626,186.91908,186.91908,0,0,1-45.623,30.07812,342.111,342.111,0,0,1-53.46,20.1416,371.05012,371.05012,0,0,1-55.13965,11.2793,412.40221,412.40221,0,0,1-51.2207,3.49121q-5.03833,0-17.91358-.53711-12.884-.542-26.31006-1.07422-13.43481-.542-24.35107-1.07421-10.91529-.52881-11.47559-.53711l-1.11963-26.31836Zm42.54443-3.22266v5.90821c0,2.87012.0874,6.00049.27979,9.39941q.27539,5.11085.27978,9.668v6.17676q.55079,11.27929,1.6792,34.91211,1.11548,23.64111,2.519,53.44238,1.39087,29.80957,3.07911,62.57324,1.67943,32.76857,3.07861,62.57325,1.39088,29.80956,2.519,53.71093,1.11548,23.90625,1.67969,35.18067,3.90966,0,13.99463.53711,10.07666.542,21.55224.80566,11.46681.27686,21.55176.53711,10.07594.27686,14.55469.26855A289.4614,289.4614,0,0,0,894.2832,652.249q33.5874-8.05663,60.17725-24.97558a135.14752,135.14752,0,0,0,43.104-43.77442q16.50513-26.85059,16.51416-64.99023a113.61139,113.61139,0,0,0-13.15527-53.17383,187.68935,187.68935,0,0,0-35.26709-46.99707,276.27833,276.27833,0,0,0-50.38086-38.94043,408.21371,408.21371,0,0,0-58.77832-29.541,364.47227,364.47227,0,0,0-60.7373-18.79883Q765.53125,324.6123,739.78076,324.6123Z"/><path class="cls-1" d="M1101.90332,190.335q0-3.22266,5.87744-8.32519,5.87842-5.0984,8.67676-5.10254,19.02467,11.82055,24.35107,30.61523a141.55015,141.55015,0,0,1,5.31787,38.67188q0,4.30516.28028,10.47363a68.721,68.721,0,0,1-.56006,12.35351,26.78431,26.78431,0,0,1-4.19824,11.2793q-3.35889,5.11085-10.63623,6.71387-6.16626-1.61133-11.1958-15.30762a310.34377,310.34377,0,0,1-9.23633-30.07812,309.82407,309.82407,0,0,1-6.438-31.4209Q1101.89868,195.17725,1101.90332,190.335Z"/><path class="cls-1" d="M1198.68408,554.49512a277.46114,277.46114,0,0,1,3.0791-38.40332,296.00954,296.00954,0,0,1,9.79639-44.043,321.7863,321.7863,0,0,1,16.79395-43.77442,173.41486,173.41486,0,0,1,24.35058-38.40332,116.20012,116.20012,0,0,1,32.74805-27.124q18.47314-10.19678,41.42431-10.20508,24.06227,0,44.50342,15.84473,20.428,15.84888,34.98731,40.82031a209.51148,209.51148,0,0,1,22.11133,55.59082,202.07507,202.07507,0,0,1,5.87793,60.15625q.55151,42.97705-16.79346,76.53809-17.3584,33.57421-43.66406,54.5166-26.31885,20.94726-56.81885,27.92969-30.51709,6.97411-56.81885-4.02832-26.31885-11.00244-43.94336-41.626Q1198.68408,607.66894,1198.68408,554.49512Zm27.98975,2.68554q1.67945,43.50587,15.11426,67.13868,13.43555,23.64111,32.748,31.15234,19.3125,7.52783,41.70459.53711,22.38282-6.97411,41.7041-25.24414,19.31324-18.25342,33.02784-45.92285,13.71093-27.65625,15.39453-62.03614a195.642,195.642,0,0,0-4.19873-50.21972q-5.32691-24.43432-15.39405-43.23731-10.07665-18.79467-24.91064-30.07812a53.66314,53.66314,0,0,0-33.30762-11.2793,59.75666,59.75666,0,0,0-32.188,8.86231,100.38992,100.38992,0,0,0-25.75048,23.36425A149.374,149.374,0,0,0,1251.0249,453.25a320.72342,320.72342,0,0,0-13.71484,37.3291,254.70416,254.70416,0,0,0-8.11719,36.25488A216.39451,216.39451,0,0,0,1226.67383,557.18066Z"/><path class="cls-1" d="M1493.63184,407.86426q-.564-3.75147,4.478-7.51953a39.26413,39.26413,0,0,1,12.03565-5.90821,64.57769,64.57769,0,0,1,13.71484-2.68554q6.71778-.52881,9.5166,2.14843,5.03833,88.62306,17.91309,141.25977,12.87085,52.645,29.66894,77.0752,16.79443,24.44678,36.10694,24.707,19.3125.27685,38.06543-15.57618,18.74926-15.83641,34.70752-44.043a310.425,310.425,0,0,0,26.03027-60.42481,291.66665,291.66665,0,0,0,12.59522-64.45312q2.51879-32.22657-5.87793-56.9336l44.7832-5.37109q.55151,11.27929,3.91846,35.98633,3.35888,24.71118,7.55761,55.85937,4.19824,31.15724,9.23633,64.72168,5.03833,33.57421,8.95654,62.57324,3.91041,29.00391,6.71778,49.41407,2.79418,20.41845,2.79883,25.24414H1774.647l-34.707-123.53516a329.64664,329.64664,0,0,1-25.47021,47.80273,227.81364,227.81364,0,0,1-32.46827,40.28321,146.09879,146.09879,0,0,1-37.22607,26.85547q-19.60107,9.668-38.62549,7.78808-19.0371-1.875-36.94629-16.91894-17.92236-15.03077-33.02783-47.53418-15.11425-32.49024-26.31006-84.32617Q1498.66114,482.52734,1493.63184,407.86426ZM1630.2207,217.19043q13.43555,12.89063,20.43262,23.0957a185.01489,185.01489,0,0,1,12.31543,20.67871q5.31372,10.47365,11.1958,22.82715a262.29248,262.29248,0,0,0,17.07373,29.541c0,3.22265-.75244,5.46338-2.23926,6.71387a16.064,16.064,0,0,1-6.15771,2.9541q-3.92286,1.08252-8.95654,2.14843a48.12583,48.12583,0,0,0-10.63623,3.75977q-10.07594-16.11329-15.39405-25.24414-5.3269-9.1267-10.07666-17.1875-4.7622-8.05663-10.91553-17.45606-6.167-9.39111-17.91357-26.0498Z"/><path class="cls-1" d="M2164.13623,563.08887q0-26.85059,8.957-58.81348a226.51962,226.51962,0,0,1,26.31006-59.61914,164.50482,164.50482,0,0,1,42.82422-46.19141q25.46558-18.53026,58.49805-18.53027,17.34447-2.6814,27.70947,2.9541a37.81864,37.81864,0,0,1,15.9541,16.91895,83.08137,83.08137,0,0,1,7.55713,26.0498,267.61925,267.61925,0,0,1,2.23926,30.07813q.27538,15.30762,0,28.73535a106.24628,106.24628,0,0,0,1.39941,22.02148h-19.03271q-.564-4.834-2.23926-20.94726a225.00284,225.00284,0,0,0-6.15772-33.30078,115.21534,115.21534,0,0,0-12.59521-30.61524q-8.12183-13.41943-22.11182-13.42773-20.71655,0-38.90576,15.57617a159.14742,159.14742,0,0,0-31.90771,37.86621,229.67913,229.67913,0,0,0-21.832,45.92285q-8.12109,23.64111-8.11718,39.7461a272.06963,272.06963,0,0,0,5.59814,38.94043,127.179,127.179,0,0,0,14.55469,38.40332,81.19531,81.19531,0,0,0,26.31006,27.66113q16.22973,10.47363,40.30517,6.17676a85.49675,85.49675,0,0,0,34.147-6.98243q16.22973-6.97411,32.188-15.03906,15.95434-8.05664,31.90821-15.03906a83.61883,83.61883,0,0,1,33.86767-6.98242q0,18.80712-14.2749,32.49511a116.49582,116.49582,0,0,1-34.707,22.5586,202.82067,202.82067,0,0,1-43.104,13.15918q-22.67139,4.292-38.90528,4.29687a105.95187,105.95187,0,0,1-46.46289-10.20508,120.56383,120.56383,0,0,1-61.29736-66.60156A130.3976,130.3976,0,0,1,2164.13623,563.08887ZM2247,685c3.66566-7.855,5.04614,8.17023,2,32-1,9,2.18408,11.78711,8.3418,13.39844s13.89843,2.14844,23.23144,1.61133q13.98559-.80566,30.22852-1.87989a87.56249,87.56249,0,0,1,30.22851,2.9541,44.51593,44.51593,0,0,1,23.23145,15.84473q9.23656,11.8081,9.23682,36.52344,0,16.11329-7.55713,27.92969a63.03854,63.03854,0,0,1-19.313,19.33593,72.999,72.999,0,0,1-26.31006,10.20508,99.46168,99.46168,0,0,1-29.10938,1.07422,94.26558,94.26558,0,0,1-16.51367-3.49121,89.468,89.468,0,0,1-20.15283-8.59375,66.59526,66.59526,0,0,1-17.07324-13.96484,28.82785,28.82785,0,0,1-7.27735-19.6045,38.31507,38.31507,0,0,1,16.79346,3.75977,169.46515,169.46515,0,0,1,15.67432,8.59375A169.3335,169.3335,0,0,0,2278.334,819.29a38.38406,38.38406,0,0,0,16.79346,3.75976q10.07665,1.61133,22.95166-4.02832a87.90015,87.90015,0,0,0,22.95117-14.50195q10.07667-8.8623,14.55469-19.06738,4.47436-10.21-1.959-17.45606-6.4424-7.251-26.59034-10.20507-20.15258-2.959-59.33789,2.417a27.22538,27.22538,0,0,1-14.55468-4.56543,49.32663,49.32663,0,0,1-12.875-11.81641,65.452,65.452,0,0,1-8.95655-15.57617C2229.07227,722.69434,2227,719,2226,712c-3-15,.17725-25.46875,4.47168-34.23828"/><path class="cls-1" d="M2465.2417,623.78223q0-40.812,23.51123-59.35059,23.51148-18.53027,61.57715-18.53027,15.11425,0,28.26953.53711a127.98294,127.98294,0,0,1,25.19043,3.49121,107.37356,107.37356,0,0,1,23.51123,8.8623,136.63393,136.63393,0,0,1,24.35107,16.65039c0-1.78711.08741-4.918.27979-9.39941q.27612-6.709.28027-14.50195V527.10254q-1.12866-12.89062-.83984-33.30078a249.26016,249.26016,0,0,0-3.0791-41.89453,127.73008,127.73008,0,0,0-13.71485-40.82032Q2624.21412,391.751,2601.831,382.083a86.0717,86.0717,0,0,0-28.8291,4.834q-13.72411,4.834-27.1499,10.47364-13.43554,5.63964-26.87012,10.47363a83.68356,83.68356,0,0,1-28.54931,4.834q0-18.25341,11.47558-29.80957a80.2,80.2,0,0,1,27.70948-17.99316,136.19182,136.19182,0,0,1,34.42724-8.59375,272.21321,272.21321,0,0,1,31.06836-2.14844q13.43554,2.15259,25.19092,4.834a50.99762,50.99762,0,0,1,21.83154,11.2793q10.07667,8.59791,18.47315,26.31836,8.39721,17.72461,14.83447,49.14551,6.42919,31.42089,11.47607,79.76074,5.0376,48.33984,7.83692,118.70117,1.11548,9.13917-6.71729,15.84473-7.84643,6.72216-20.99218,11.54785a173.62914,173.62914,0,0,1-30.229,7.78809q-17.08227,2.959-34.147,4.56543-17.083,1.61133-32.74805,2.14843-15.67823.52881-25.75049.53711a92.95091,92.95091,0,0,1-27.42968-4.29687,89.74556,89.74556,0,0,1-25.47071-12.35352,66.8154,66.8154,0,0,1-18.75293-19.873A49.14974,49.14974,0,0,1,2465.2417,623.78223Zm97.40381-49.95118q-37.51026,9.668-52.34033,23.63282-14.83887,13.97314-12.87549,27.124,1.95483,13.16748,17.35351,23.36426,15.39039,10.21,37.78614,13.42773,22.38281,3.22266,48.70166-3.49121,26.30638-6.709,50.38134-27.124-9.52513-20.40528-18.47314-31.68945-8.96118-11.27931-19.3125-16.91895a61.08924,61.08924,0,0,0-22.95166-6.98242A270.26886,270.26886,0,0,0,2562.64551,573.83105Z"/><path class="cls-1" d="M3045.61914,369.19238l23.51172-22.55859L3233.15039,633.4502l70.5332-277.68555a32.23237,32.23237,0,0,0,10.916,3.49121q5.877.80567,10.63672,1.87988a32.86013,32.86013,0,0,1,7.83594,2.68555,5.60291,5.60291,0,0,1,3.07812,5.37109q-9.52441,45.65845-18.19141,85.669-8.68651,40.0188-18.19335,78.14941-9.52735,38.14306-20.99219,76.26953-11.48145,38.14306-26.03125,80.0293h-29.10938Z"/><path class="cls-1" d="M3363.51953,279.49512a82.6029,82.6029,0,0,1,.83985-11.01074,36.40977,36.40977,0,0,1,3.35742-11.2793,26.0722,26.0722,0,0,1,6.71875-8.59375,15.65607,15.65607,0,0,1,10.35547-3.49121q8.39647,0,17.63281.53711a67.75219,67.75219,0,0,1,17.35351,3.22265,31.11167,31.11167,0,0,1,13.15625,8.05664q5.03615,5.37525,5.03711,15.03907,0,17.7246-13.15429,30.88379-13.16016,13.16748-32.748,13.15917-15.11426,0-21.832-11.01074Q3363.51855,294.00537,3363.51953,279.49512Zm43.66211,3.75976c-1.87109,0-2.79883,1.16651-2.79883,3.49121,0,2.333.92774,3.49121,2.79883,3.49121,1.86328,0,2.80078-1.1582,2.80078-3.49121C3409.98242,284.42139,3409.04492,283.25488,3407.18164,283.25488Zm-.55859,124.07227q9.51268,0,15.67383-.53711,6.15234-.52881,10.63671,7.51953,2.22949,31.69776,5.31641,64.99023,3.07032,33.30909,5.87891,67.13868,2.79492,33.83788,4.19922,67.67578,1.38867,33.83789.27929,66.06445c0,2.87012-.75195,4.6582-2.24023,5.37109a13.39232,13.39232,0,0,1-6.4375.80567c-2.79883-.18457-6.07031-.36133-9.79492-.53711a43.79477,43.79477,0,0,0-12.31641,1.34277Z"/><path class="cls-1" d="M3505.64258,516.89746q0-21.47607,9.79687-47.53418a202.51723,202.51723,0,0,1,26.31055-48.6084,166.7179,166.7179,0,0,1,38.06445-37.86621q21.54492-15.30762,44.50391-15.30762a69.19953,69.19953,0,0,1,24.91211,4.834,105.13593,105.13593,0,0,1,24.07031,13.15918,127.27114,127.27114,0,0,1,20.71289,18.79883,93.11352,93.11352,0,0,1,14.55469,21.75293,55.04748,55.04748,0,0,1,5.59766,22.02148,27.297,27.297,0,0,1-6.4375,18.79883L3550.42578,494.876q-2.80664.542-5.03711,6.71386a96.41232,96.41232,0,0,0-3.91992,15.57618q-1.67871,9.4043-2.79883,20.41015-1.12792,11.01563-1.67773,21.48438-.56544,10.47363-.83985,18.79883-.29,8.33349-.28125,12.085,0,20.41845,10.07618,32.76367a63.8889,63.8889,0,0,0,25.75195,18.79883,129.65019,129.65019,0,0,0,35.54687,8.59375,363.45188,363.45188,0,0,0,39.1836,2.14843q19.31542,0,36.668-1.34277,17.34375-1.33447,28.54882-1.34277a12.51347,12.51347,0,0,1-2.24023,6.71386,44.70721,44.70721,0,0,1-5.31641,6.71387q-3.085,3.22266-5.8789,5.63965a23.06319,23.06319,0,0,1-3.918,2.9541q-5.60157,1.61133-18.19336,4.02832-12.59472,2.417-26.31055,4.56543-13.72265,2.15332-25.75,3.75977a152.86843,152.86843,0,0,1-15.95508,1.61132q-23.51073,4.292-40.584-.80566a67.62194,67.62194,0,0,1-29.10937-17.1875,94.371,94.371,0,0,1-19.5918-29.541,170.4252,170.4252,0,0,1-11.19727-37.59766,251.30475,251.30475,0,0,1-3.918-41.626A341.44846,341.44846,0,0,1,3505.64258,516.89746Zm108.041-121.92383q-6.71776-.52881-17.35351,6.44532A110.67646,110.67646,0,0,0,3560.502,441.165q-6.167,11.82056-4.47851,19.87305a146.62652,146.62652,0,0,0,40.58594-.26856,189.06291,189.06291,0,0,0,38.0664-9.13086q17.06836-6.16845,28.26953-14.50195,11.19141-8.321,10.91407-16.65039-.28712-8.32106-13.99415-15.30762Q3646.14259,398.20459,3613.68359,394.97363Z"/><path class="cls-1" d="M3784.35742,681.79q-1.67871-11.2793-2.79883-33.30078-1.12793-22.01661-2.24023-49.41406-1.12793-27.39258-1.959-57.47071-.8379-30.07325-1.67969-57.20215-.8379-27.11571-1.959-49.1455-1.12792-22.01734-2.79882-33.30079c-.375-.35253-.65625-1.519-.83985-3.49121q-.2871-2.94579-.55859-6.44531c-.19336-2.32471-.28125-4.38086-.28125-6.17676V382.083q11.19141-9.12671,19.0332-6.17676,7.834,2.95826,12.875,12.62207,5.03907,9.668,7.55859,24.16992,2.51661,14.502,3.63868,28.73535,1.11327,14.23755,1.11914,26.04981v16.65039q1.11621-12.34937,4.19726-28.73535a241.54328,241.54328,0,0,1,8.957-33.56934,243.97364,243.97364,0,0,1,14.55469-33.83789,123.86834,123.86834,0,0,1,21.27344-29.541,92.96639,92.96639,0,0,1,28.82812-20.14161q16.23048-7.251,36.94727-5.63964,32.458,1.08252,53.73828,16.91894,21.26954,15.84888,33.86914,42.16309,12.59474,26.32251,18.19141,60.96191a632.13592,632.13592,0,0,1,7.27734,73.04688q1.68165,38.40819.83985,78.14941-.8379,39.7544-.83985,76.26953a72.028,72.028,0,0,0-12.875,4.834q-6.71776,3.22264-11.19531,2.9541-4.48828-.27685-6.4375-6.44532-1.96875-6.16845.83984-23.90136.55078-12.89062,2.51953-39.7461,1.95411-26.85059,1.67969-59.88769-.29-33.03223-3.91992-68.21289-3.64746-35.17236-13.99414-63.916-10.36524-28.72706-28.83008-47.26562-18.47167-18.53028-48.14062-18.53028-30.794,12.36182-51.22266,45.92286-20.44043,33.57348-33.02734,78.95507a605.97358,605.97358,0,0,0-18.19336,98.02246q-5.60157,52.645-6.15625,102.58789a18.93936,18.93936,0,0,0-5.31836-.80566c-2.79883-.17578-5.791-.35254-8.957-.53711q-4.76369-.26367-8.957-.80566C3786.31641,683.04883,3784.72461,682.51172,3784.35742,681.79Z"/><path class="cls-1" d="M4187.9043,425.58887q-6.71778-2.14014-18.19336-1.87989-11.48145.27686-24.35156,1.34278-12.88478,1.08252-24.91016,2.68554a157.98818,157.98818,0,0,1-20.43359,1.61133q-3.92286,0-4.75782-10.47363-.83788-10.47363-3.63867-28.73535l105.80078-6.98242q2.22949-24.69873,2.79883-35.71778.55078-11.00244.2793-18.53027-.28712-7.51537-.83789-16.91895-.56544-9.39111-.56055-30.34668,19.58788-2.68139,29.668-1.87988,10.07813.80566,13.99609,5.10254,3.9082,4.30518,3.35742,12.62207-.5625,8.33351-2.23828,20.67871-1.67871,12.36182-3.07812,29.27246-1.40625,16.91895,1.39844,38.94043l89.00781-3.22265v35.44922q-5.60449,0-18.47461.5371-12.88184.54126-27.14844,1.34278-14.27637.80566-26.87109,1.61133t-18.19336,2.417q-6.167,25.78125-12.875,55.32226a404.10017,404.10017,0,0,0-8.957,58.00782,225.86459,225.86459,0,0,0,1.67968,53.17382q3.91115,24.71191,18.75391,41.08887,14.82422,16.39014,42.543,22.29,27.71191,5.91651,73.05273-3.75976a30.65243,30.65243,0,0,1-8.67578,17.1875,51.61586,51.61586,0,0,1-16.51367,11.01074,83.96979,83.96979,0,0,1-19.87305,5.63965,123.06764,123.06764,0,0,1-18.7539,1.61132q-37.50879,0-59.89649-13.15918-22.39746-13.1543-33.86718-34.64355-11.48145-21.47607-14.2754-49.14551a401.89162,401.89162,0,0,1-1.67968-56.39648q1.11621-28.72706,3.91992-56.665Q4187.89747,448.15576,4187.9043,425.58887Z"/><path class="cls-1" d="M4780.03711,471.78027q0-15.572,8.67773-26.31836a90.66667,90.66667,0,0,1,21.55274-19.06738,217.271,217.271,0,0,1,28.26953-15.30762,216.55431,216.55431,0,0,0,28.26953-15.30761,85.41348,85.41348,0,0,0,21.55078-19.6045q8.67188-11.2793,8.67774-27.92968,0-11.80811-8.11719-18.79883a56.94,56.94,0,0,0-19.59375-10.74219,106.59006,106.59006,0,0,0-24.07031-4.834q-12.59473-1.07007-20.99219-1.07422a69.57592,69.57592,0,0,0-29.94922,6.71387,275.56944,275.56944,0,0,0-27.709,15.03906q-13.43556,8.33349-25.75,15.03906-12.32227,6.72217-24.07227,6.71387-8.39649,0-12.875-3.22266-4.48828-3.22266-8.957-11.2793a113.64783,113.64783,0,0,1,23.51172-24.97558,139.499,139.499,0,0,1,29.10937-17.45606,158.44437,158.44437,0,0,1,32.74805-10.47363,171.56942,171.56942,0,0,1,34.42578-3.49121q12.873,0,31.62891,3.22266a172.02045,172.02045,0,0,1,36.38672,10.47363,92.31785,92.31785,0,0,1,29.94921,19.33594q12.30469,12.085,12.31446,29.80957,0,18.80712-12.59571,38.67187a247.45133,247.45133,0,0,1-29.668,37.86621,308.786,308.786,0,0,1-35.54688,32.22657q-18.47167,14.23753-30.22851,22.29v64.45313q-13.43556,0-20.99219-7.78809a45.4769,45.4769,0,0,1-10.916-19.06738,108.32176,108.32176,0,0,1-4.19922-23.63281Q4780.03907,480.91529,4780.03711,471.78027Zm29.10937,192.82227q0-7.51466,3.08008-11.81641,3.07032-4.292,11.47461-8.59375,8.9502,4.30518,12.03516,8.59375,3.07031,4.30518,3.08008,11.81641,0,8.05664-3.08008,12.35351-3.082,4.30518-12.03516,8.59375-8.39648-4.292-11.47461-8.59375Q4809.1416,672.66407,4809.14648,664.60254Z"/></g><g id="soulignage"><rect class="cls-2" x="563.5" y="888.41975" width="4500" height="23.1605" rx="9.00685"/><rect class="cls-2" x="563.5" y="88.41975" width="4500" height="23.1605" rx="9.00685"/></g><g id="icons"><g id="Scope"><path class="cls-3" d="M5333.26446,420.87191a66.19008,66.19008,0,0,0-66.1157,66.1157c0,47.72314,60.68181,106.09091,63.26445,108.55372a4.1322,4.1322,0,0,0,5.71489,0c2.58265-2.49175,63.25207-61.33472,63.25207-108.55372A66.19009,66.19009,0,0,0,5333.26446,420.87191Z"/><path class="cls-3" d="M5560.53719,493.14463H5554.5A222.07026,222.07026,0,0,0,5349.624,287.124v-6.13223a14.46281,14.46281,0,0,0-14.46281-14.46281h-2.55371a14.46282,14.46282,0,0,0-14.46281,14.46281v6.03719A222.06612,222.06612,0,0,0,5112.124,491.905h-6.13225a14.46282,14.46282,0,0,0-14.46281,14.46281v2.5537a14.4628,14.4628,0,0,0,14.46281,14.46281h6.03719a222.06612,222.06612,0,0,0,204.876,206.02064v6.13227A14.46281,14.46281,0,0,0,5331.36777,750h2.5537a14.4628,14.4628,0,0,0,14.46281-14.46281h0V729.5a222.07022,222.07022,0,0,0,206.02064-204.876h6.13227A14.4628,14.4628,0,0,0,5575,510.16116v-2.55371a14.46282,14.46282,0,0,0-14.46278-14.46282Zm-108.00827,0a14.46281,14.46281,0,0,0-14.46281,14.46282h0v2.55371a14.46281,14.46281,0,0,0,14.46281,14.46281h15.8595a136.36364,136.36364,0,0,1-120.00827,118.92561V627.52892a14.4628,14.4628,0,0,0-14.46281-14.46281h-2.5537a14.46282,14.46282,0,0,0-14.46281,14.46281v15.8595a136.36361,136.36361,0,0,1-118.92561-120.00827h16.02065a14.46281,14.46281,0,0,0,14.46281-14.46281v-2.5537a14.46282,14.46282,0,0,0-14.46281-14.46281h-15.85538a136.36363,136.36363,0,0,1,120.00827-118.92561v16.02065a14.46281,14.46281,0,0,0,14.46279,14.46281h2.5537a14.46281,14.46281,0,0,0,14.46281-14.46281V373.14049a136.36366,136.36366,0,0,1,118.92562,120.00827ZM5349.63636,341.44214V318.69008a190.562,190.562,0,0,1,173.29753,174.45455h-22.76034A167.89258,167.89258,0,0,0,5349.624,341.44215Zm-31.47934-.09091A167.88844,167.88844,0,0,0,5166.44628,491.905H5143.686A190.5744,190.5744,0,0,1,5318.14463,318.595ZM5166.35124,523.38428A167.89673,167.89673,0,0,0,5316.905,675.08679V697.843A190.56614,190.56614,0,0,1,5143.595,523.38428Zm182.033,151.7934A167.88431,167.88431,0,0,0,5500.08266,524.624H5522.843a190.56614,190.56614,0,0,1-174.45872,173.30992Z"/><path class="cls-4" d="M5378.719,470.45454c0,46.00414-61.98347,105.57852-61.98347,105.57852s-61.98347-59.09092-61.98347-105.57852a61.98347,61.98347,0,1,1,123.96694,0Z"/><path class="cls-5" d="M5316.73554,429.75207a41.32231,41.32231,0,1,0,41.32231,41.32231A41.32232,41.32232,0,0,0,5316.73554,429.75207Z"/><path class="cls-6" d="M5316.73554,442.14876a41.35122,41.35122,0,0,1,40.80578,35.124,41.32231,41.32231,0,1,0-81.61157,0A41.35124,41.35124,0,0,1,5316.73554,442.14876Z"/><path class="cls-4" d="M5316.73554,274.05785c-120.22008,0-217.6777,97.45763-217.6777,217.67769s97.45762,217.67769,217.6777,217.67769,217.67769-97.4576,217.67769-217.67769h0C5534.27432,371.57305,5436.898,274.19674,5316.73554,274.05785Zm0,412.13636c-107.39656,0-194.45867-87.06211-194.45867-194.45867s87.06211-194.45867,194.45867-194.45867,194.45867,87.06211,194.45867,194.45867h0C5511.19421,599.1321,5424.1321,686.19421,5316.73554,686.19421Z"/><path class="cls-4" d="M5316.73554,328.23967a163.49587,163.49587,0,1,0,163.49587,163.49588h0A163.49586,163.49586,0,0,0,5316.73554,328.23967Zm0,303.77272a140.27686,140.27686,0,1,1,140.281-140.27685A140.27685,140.27685,0,0,1,5316.73554,632.01239Z"/><rect class="cls-4" x="5305.74793" y="254.13223" width="23.21901" height="128.66942" rx="10.33058"/><rect class="cls-4" x="5079.13223" y="479.50413" width="128.66942" height="23.21901" rx="10.33058"/><rect class="cls-4" x="5304.5041" y="600.66942" width="23.21902" height="128.66942" rx="10.33058"/><rect class="cls-4" x="5425.66939" y="480.74795" width="128.66942" height="23.21902" rx="10.33058"/><path d="M5316.73554,404.343a66.1901,66.1901,0,0,0-66.11571,66.1157c0,47.72314,60.68183,106.09091,63.26447,108.55373a4.13227,4.13227,0,0,0,5.71488,0c2.58264-2.49176,63.25206-61.33472,63.25206-108.55373A66.19009,66.19009,0,0,0,5316.73554,404.343Zm0,165.843c-12.0372-12.1942-57.85124-61.157-57.85124-99.72728a57.85124,57.85124,0,0,1,115.70248,0C5374.58678,508.624,5328.74792,557.92148,5316.73554,570.186Z"/><path d="M5316.73554,425.61983a45.45455,45.45455,0,1,0,45.45454,45.45455A45.45456,45.45456,0,0,0,5316.73554,425.61983Zm0,82.64463a37.19008,37.19008,0,1,1,37.19008-37.19008A37.19009,37.19009,0,0,1,5316.73554,508.26446Z"/><path d="M5405.90084,604.08679a4.13212,4.13212,0,0,0,2.6281-.94214,145.81814,145.81814,0,0,0,26.10332-28.09918,4.13223,4.13223,0,0,0-6.73969-4.77689,137.36366,137.36366,0,0,1-24.6281,26.5,4.13223,4.13223,0,0,0,2.63637,7.3182Z"/><path d="M5544.00826,476.6157h-6.04544A222.04544,222.04544,0,0,0,5333.095,270.61157v-6.14876A14.4628,14.4628,0,0,0,5318.63223,250h-2.55372a14.46282,14.46282,0,0,0-14.46281,14.46281v6.03306A222.07023,222.07023,0,0,0,5095.60331,475.376h-6.1405A14.46282,14.46282,0,0,0,5075,489.83884v2.55372a14.46281,14.46281,0,0,0,14.46281,14.4628h6.04546A222.04956,222.04956,0,0,0,5300.376,712.85948v6.14878a14.46281,14.46281,0,0,0,14.46281,14.46281h2.55372a14.46279,14.46279,0,0,0,14.4628-14.46281v-6.03305A222.07027,222.07027,0,0,0,5537.86774,508.095h6.14052a14.4628,14.4628,0,0,0,14.46281-14.46281v-2.55372a14.46281,14.46281,0,0,0-14.46281-14.46281Zm-14.31816,0h-15.02067A198.80165,198.80165,0,0,0,5333.095,293.91322v-14.9876A213.77688,213.77688,0,0,1,5529.6901,476.6157Zm-69.4215,0A144.58676,144.58676,0,0,0,5333.095,348.31405V333.29339a159.53717,159.53717,0,0,1,142.20662,143.3223Zm23.3223,0a167.80164,167.80164,0,0,0-150.49586-151.624V302.20661A190.5248,190.5248,0,0,1,5506.405,476.6157ZM5309.88016,264.46281a6.19836,6.19836,0,0,1,6.19835-6.19835h2.55372a6.19836,6.19836,0,0,1,6.19835,6.19835V372.47108a6.19835,6.19835,0,0,1-6.19835,6.19834h-2.55372a6.19835,6.19835,0,0,1-6.19835-6.19834Zm-8.26446,83.72727a144.58265,144.58265,0,0,0-128.2686,127.186h-15.04958A159.53721,159.53721,0,0,1,5301.6157,333.16942Zm0-23.31818A167.80579,167.80579,0,0,0,5149.99587,475.376h-22.79339A190.52479,190.52479,0,0,1,5301.6157,302.09091Zm0-46.08265v15.0124A198.79756,198.79756,0,0,0,5118.90909,475.376h-15.0124A213.781,213.781,0,0,1,5301.6157,278.78925ZM5083.26446,492.39256v-2.55372a6.19835,6.19835,0,0,1,6.19835-6.19834h108.00827a6.19834,6.19834,0,0,1,6.19834,6.19834h0v2.55372a6.19835,6.19835,0,0,1-6.19834,6.19835H5089.46281a6.19836,6.19836,0,0,1-6.19835-6.19835Zm66.60744,14.4628a167.80991,167.80991,0,0,0,150.50413,151.624v22.78512a190.52476,190.52476,0,0,1-173.30991-174.40909Zm8.30165,0h15.02067A144.595,144.595,0,0,0,5300.376,635.157V650.1777A159.53306,159.53306,0,0,1,5158.17355,506.85536Zm-54.39256,0h15.02066A198.80578,198.80578,0,0,0,5300.39255,689.562v15.00412A213.781,213.781,0,0,1,5103.781,506.85536Zm219.80992,212.1529a6.19834,6.19834,0,0,1-6.19835,6.19835h-2.55372a6.19834,6.19834,0,0,1-6.19834-6.19835V611a6.19834,6.19834,0,0,1,6.19834-6.19835h2.55372A6.19834,6.19834,0,0,1,5323.59091,611Zm-6.19835-122.47107h-2.55372A14.46281,14.46281,0,0,0,5300.376,611v15.85949A136.33473,136.33473,0,0,1,5181.5,506.85536h15.97108a14.46281,14.46281,0,0,0,14.46281-14.46281v-2.55372a14.46282,14.46282,0,0,0-14.46281-14.46281h-15.83885a136.33059,136.33059,0,0,1,119.98347-118.8843v15.97934a14.46282,14.46282,0,0,0,14.46281,14.46281h2.55372a14.46281,14.46281,0,0,0,14.46281-14.46281V356.61157a136.33471,136.33471,0,0,1,118.876,120.00413H5436a14.46281,14.46281,0,0,0-14.46281,14.46281h0v2.55372A14.4628,14.4628,0,0,0,5436,508.095h15.78512a135.6117,135.6117,0,0,1-14.938,47.69008,4.13272,4.13272,0,0,0,7.28926,3.8967h0A143.95458,143.95458,0,0,0,5460.124,508.095h15.07027A159.53719,159.53719,0,0,1,5331.876,650.30166V635.26034a143.67381,143.67381,0,0,0,60.47934-20.54546,4.13223,4.13223,0,0,0-4.343-7.02478,135.36379,135.36379,0,0,1-56.17356,19.252V611A14.46281,14.46281,0,0,0,5317.39256,596.53719Zm14.4628,62.062A167.8058,167.8058,0,0,0,5483.4752,508.095h22.79338A190.52476,190.52476,0,0,1,5331.85536,681.405Zm0,46.08265V689.66943a198.80579,198.80579,0,0,0,182.71076-181.58678h15.00828A213.78512,213.78512,0,0,1,5331.85536,704.68181Zm218.35125-211.04958a6.19834,6.19834,0,0,1-6.19835,6.19835H5436a6.19834,6.19834,0,0,1-6.19835-6.19835h0v-2.55372A6.19834,6.19834,0,0,1,5436,484.88016h108.00826a6.19834,6.19834,0,0,1,6.19835,6.19835h0Z"/></g><g id="loupe"><path class="cls-4" d="M531.65038,690.22462a29.29245,29.29245,0,1,1-41.42576,41.42579L395.918,637.34376A246.68659,246.68659,0,0,0,437.34376,595.918Z"/><path class="cls-7" d="M395.5371,554.11133,437.34373,595.918a246.68565,246.68565,0,0,1-41.42579,41.42579L354.1113,595.53713v-.00978a186.80555,186.80555,0,0,0,41.416-41.416Z"/><path class="cls-4" d="M430.85938,445.3125a184.54379,184.54379,0,0,1-35.332,108.79883,186.80555,186.80555,0,0,1-41.416,41.416,184.5438,184.5438,0,0,1-108.79884,35.332c-102.31444,0-185.54686-83.23244-185.54686-185.54688s83.23242-185.54687,185.54686-185.54687S430.85938,342.99805,430.85938,445.3125Z"/><path class="cls-5" d="M245.31249,298.82813c80.77149,0,146.48439,65.71289,146.48439,146.48437S326.084,591.79688,245.31249,591.79688,98.82813,526.084,98.82813,445.3125,164.541,298.82813,245.31249,298.82813Z"/><path d="M538.55567,683.31933,408.20413,552.96779A193.55932,193.55932,0,0,0,440.625,445.3125C440.625,337.61719,353.00781,250,245.31249,250S50,337.61719,50,445.3125,137.61719,640.625,245.31249,640.625a193.56883,193.56883,0,0,0,107.6553-32.41992l36.03026,36.03026.01562.01562,94.30468,94.30468a39.05833,39.05833,0,1,0,55.23732-55.23631Zm-169.6924-86.84179a195.97152,195.97152,0,0,0,27.61427-27.61427l27.70606,27.70606a237.04315,237.04315,0,0,1-27.61427,27.61427Zm-299.332-151.165c0-96.92578,78.85547-175.78125,175.78124-175.78125S421.09375,348.38672,421.09375,445.3125A174.27585,174.27585,0,0,1,387.625,548.374a176.633,176.633,0,0,1-39.25,39.25l-.002.002a174.27646,174.27646,0,0,1-103.06055,33.46777C148.38672,621.09375,69.53125,542.2383,69.53125,445.3125ZM524.74512,724.74512a19.51649,19.51649,0,0,1-27.61524,0L410.416,638.03124A256.61523,256.61523,0,0,0,438.03026,610.417l86.7168,86.7168a19.51412,19.51412,0,0,1-.00194,27.61134Z"/><path d="M401.56249,445.3125c0-86.15723-70.09276-156.25-156.25-156.25s-156.25,70.09277-156.25,156.25,70.09277,156.25,156.25,156.25S401.56249,531.46973,401.56249,445.3125Zm-156.25,136.71875c-75.38671,0-136.71874-61.332-136.71874-136.71875s61.332-136.71875,136.71874-136.71875,136.71876,61.332,136.71876,136.71875S320.69923,582.03125,245.31249,582.03125Z"/><path d="M349.13768,416.01074A9.76637,9.76637,0,0,0,354.751,403.3916,117.37193,117.37193,0,0,0,245.31249,328.125a9.76563,9.76563,0,0,0,0,19.53125,98.32316,98.32316,0,0,1,91.207,62.74122,9.75632,9.75632,0,0,0,12.61815,5.61327Z"/><path d="M352.73438,435.54688A9.76563,9.76563,0,1,0,362.5,445.3125,9.76919,9.76919,0,0,0,352.73438,435.54688Z"/></g></g><g id="Ancrage"><rect class="cls-8" x="5624" y="999" width="1" height="1"/><rect class="cls-8" x="5624" width="1" height="1"/><rect class="cls-8" y="999" width="1" height="1"/><rect class="cls-8" width="1" height="1"/></g></svg>