<svg xmlns="http://www.w3.org/2000/svg" viewBox="0 0 5625 1000"><defs><style>.cls-1,.cls-4{fill:#995231;}.cls-1,.cls-2,.cls-3{stroke:#995231;stroke-miterlimit:10;}.cls-1{stroke-width:6px;}.cls-14,.cls-2,.cls-3{fill:none;}.cls-2{stroke-width:10px;}.cls-3{stroke-width:15px;}.cls-5{fill:#c77d3c;}.cls-6{fill:#f0b400;}.cls-7{fill:#ffd23d;}.cls-8{fill:#aee3e8;}.cls-9{fill:#dbf9ff;}.cls-10{fill:#141f24;}.cls-11{fill:#295561;}.cls-12{fill:#ff9b30;}.cls-13{fill:#ffe280;}</style></defs><title>logo_portrait</title><g id="Texte"><path class="cls-1" d="M1095.54346,534.19727c0,28.20019.60009,109.80175,1.1997,118.20117,1.19922,13.20019,7.19629,19.20019,19.79053,19.20019h38.38184c4.19775,0,4.79736,1.80078,4.79736,4.2002v14.40039c0,3-.59961,4.7998-5.39746,4.7998-8.39648,0-26.9873-1.7998-83.36035-1.7998-52.77539,0-76.16406,1.7998-82.76074,1.7998-4.19825,0-4.79786-1.7998-4.79786-4.20019v-15c0-3,.59961-4.2002,3.59864-4.2002h25.78759c20.39014,0,24.58838-3,26.38721-19.20019.6001-6,2.39942-99.60059,2.39942-169.20117v-69.001c0-39.6001-.59961-105.001-1.19971-111.001-1.19971-12-7.19678-13.20019-23.38916-13.20019H982.79688c-2.99854,0-3.59815-1.2002-3.59815-4.79981V270.79492c0-3,.59961-4.20019,3.59815-4.20166,6.59667,0,28.18652,1.79981,85.15917,1.79981,10.79493,0,46.17823-1.79981,65.96924-1.79834,67.76807,0,99.55323,6.60009,133.73682,30.00048,28.18652,19.2002,45.57812,52.8003,45.57812,87.001,0,75.60059-56.97265,122.40088-152.32763,122.40088-22.18946,0-46.17822-.59961-65.36914-3Zm0-52.8003c11.99463,3.6001,31.78515,5.39991,55.17431,5.39991,36.582,0,68.9668-19.79981,84.55957-40.8003,13.19385-17.3999,15.59278-39.6001,15.59278-60.60058,0-78.60059-73.16553-99.60108-108.54883-99.60108-10.19531,0-34.7832,0-46.77783,4.2002Z"/><path class="cls-1" d="M2104.85107,420.19629c0-44.40039,0-82.80078-.59961-100.20068-.5996-19.8003-7.79638-30.00049-22.78906-30.00049h-23.98877c-2.99853,0-3.59814-1.79981-3.59814-4.2002v-15c0-3,.59961-4.20019,3.59814-4.20166,5.39746,0,23.98828,1.79981,74.36475,1.79981,33.584,0,89.35693-1.79981,100.15283-1.79834,49.77637,0,89.35742,15.00048,112.147,36.60058,19.79053,19.2002,31.18506,46.2002,31.18506,68.40039,0,75.001-34.18359,103.20118-110.94726,120.00147v1.20019c14.39306,5.39991,22.78906,16.19971,27.58691,22.8003,7.19629,7.7998,49.77637,69,54.57422,76.80078,2.99853,6,41.38037,60.60058,52.7749,69,12.59375,9.001,26.38721,10.20019,43.17969,10.20019,4.19775,0,4.79736,2.40039,4.79736,4.80078v13.2002c0,3.59961-.59961,5.39941-4.79883,5.39941-4.79785,0-20.39062-1.7998-46.77783-1.7998-17.3916,0-39.581,1.20019-48.57568,1.7998-6.59717-6-19.79053-26.40039-25.188-34.20019-4.79785-7.2002-37.18262-64.2002-40.18115-69.001-2.39893-4.20019-31.18506-47.40039-38.38184-55.7998-15.59277-18.60059-29.98584-34.80078-64.76953-34.80078a85.62519,85.62519,0,0,0-19.79053,1.7998v33.60059c0,35.40039.59961,102.60058,1.19971,111.60156,1.19922,12.59961,5.99707,23.39941,14.99268,23.39941h37.78222c4.19776,0,4.79785,1.80078,4.79785,4.80078v13.2002c0,4.19922-.60009,5.39941-6.59765,5.39941-6.59717,0-21.58985-1.7998-78.5625-1.7998-54.57422,0-68.36768,1.7998-74.96436,1.7998-4.79785,0-4.79785-1.7998-4.79785-4.7998V676.39941c0-3,0-4.80078,2.99854-4.80078h24.58838c13.19384,0,23.38916-4.19922,23.38916-20.39941,1.19921-59.40137,1.19921-115.80176,1.19921-172.80225Zm53.97461,59.40088c8.99561,1.7998,15.59278,2.3999,26.98731,2.3999,109.14844,0,130.13818-75.001,130.13818-100.20117,0-27.6001-12.59375-54.00049-29.98535-68.40039-23.38916-18.60059-49.77686-27.60059-99.55322-27.60059-7.19629,0-14.99268,1.2002-20.39014,4.80029-4.19824,3-7.19678,9.6001-7.19678,19.2002Z"/><path class="cls-1" d="M2668.57666,289.99512H2653.584c-19.1914,0-71.36669,0-94.75537,7.20019-26.9873,8.3999-44.97851,50.40039-53.375,69.60059-1.19922,3-2.99853,3.6001-5.99707,3l-10.79492-3c-1.79883-.6001-3.59814-1.2002-2.39892-4.79981,5.99755-21.60058,26.9873-99.00146,28.187-105.60156,1.19922-7.7998,3.59814-9.59961,5.99707-9.59961a10.466,10.466,0,0,1,7.19677,2.3999l7.7959,5.39991c10.79493,7.80029,16.79248,9.60009,34.18409,10.20019,31.78466,1.2002,56.97314,3.6001,113.34619,3.6001h28.78662c65.36914,0,91.15674-2.3999,120.54248-3.6001,13.19433-.6001,20.99023-2.3999,31.18555-8.40039l11.39453-7.19971c2.998-1.80029,4.79785-2.3999,7.19726-2.3999,2.99805,0,4.19727,1.79981,5.39649,9.59961,1.19922,7.2002,12.59375,81.60108,17.39257,108.00147.59961,3-.5996,4.1997-3.59863,4.7998l-9.5957,2.3999c-2.39844.6001-2.999,0-4.79785-4.1997-4.79688-11.40039-22.78907-57.60059-42.58008-67.20069-17.99121-9-74.36426-10.20019-103.75049-10.20019h-16.792v171.002c0,8.3999,0,176.40137.59961,186.60156,1.1997,15,5.99756,24,20.39062,24h37.78174c5.39746,0,5.99756,1.80078,5.99756,6v12.60059c0,3-.6001,4.7998-5.99805,4.7998-5.99756,0-25.188-1.7998-83.96-1.7998-57.57275,0-82.76074,1.7998-91.15625,1.7998-4.79785,0-5.39746-2.39941-5.39746-6V677.59863c0-4.19922.59961-6,4.19775-6h40.78077c11.99414,0,19.19091-7.20019,19.79052-14.39941,1.79932-17.40039,1.79932-201.60254,1.79932-213.00244Z"/><path class="cls-1" d="M3060.78125,420.19629c0-44.40039,0-82.80078-.59961-100.20068-.59961-19.8003-7.79687-30.00049-22.78906-30.00049H3013.4043c-2.999,0-3.59864-1.79981-3.59864-4.2002v-15c0-3,.59961-4.20019,3.59864-4.20166,5.39648,0,23.98828,1.79981,74.36425,1.79981,33.584,0,89.35743-1.79981,100.15333-1.79834,49.77539,0,89.35742,15.00048,112.14648,36.60058,19.791,19.2002,31.18555,46.2002,31.18555,68.40039,0,75.001-34.1836,103.20118-110.94727,120.00147v1.20019c14.39258,5.39991,22.78906,16.19971,27.58594,22.8003,7.19726,7.7998,49.77734,69,54.57422,76.80078,2.999,6,41.38086,60.60058,52.77539,69,12.59375,9.001,26.38672,10.20019,43.17969,10.20019,4.19726,0,4.79687,2.40039,4.79687,4.80078v13.2002c0,3.59961-.59961,5.39941-4.79883,5.39941-4.79687,0-20.39062-1.7998-46.77734-1.7998-17.3916,0-39.58106,1.20019-48.57617,1.7998-6.59668-6-19.79-26.40039-25.1875-34.20019-4.79786-7.2002-37.18262-64.2002-40.18164-69.001-2.39844-4.20019-31.18457-47.40039-38.38086-55.7998-15.59375-18.60059-29.98633-34.80078-64.76953-34.80078a85.6269,85.6269,0,0,0-19.791,1.7998v33.60059c0,35.40039.59961,102.60058,1.19922,111.60156,1.19922,12.59961,5.998,23.39941,14.99316,23.39941h37.78223c4.19726,0,4.79785,1.80078,4.79785,4.80078v13.2002c0,4.19922-.60059,5.39941-6.59766,5.39941-6.59668,0-21.58984-1.7998-78.5625-1.7998-54.57421,0-68.36816,1.7998-74.96386,1.7998-4.79883,0-4.79883-1.7998-4.79883-4.7998V676.39941c0-3,0-4.80078,2.999-4.80078h24.58887c13.19336,0,23.38867-4.19922,23.38867-20.39941,1.19922-59.40137,1.19922-115.80176,1.19922-172.80225Zm53.97461,59.40088c8.99609,1.7998,15.59277,2.3999,26.9873,2.3999,109.14844,0,130.1377-75.001,130.1377-100.20117,0-27.6001-12.59375-54.00049-29.98535-68.40039-23.38867-18.60059-49.77637-27.60059-99.55274-27.60059-7.19629,0-14.99316,1.2002-20.38964,4.80029-4.19922,3-7.19727,9.6001-7.19727,19.2002Z"/><path class="cls-1" d="M3580.73047,526.39746c-5.99805,15-38.98242,106.20117-41.98047,118.80176-.59961,4.19922-1.79883,10.19922-1.79883,13.19922,0,8.40039,7.19629,13.20019,20.38965,13.20019h28.18652c4.19825,0,5.998,1.2002,5.998,4.2002v13.80078c0,4.19922-1.7998,5.39941-4.79883,5.39941-8.39648,0-32.98437-1.7998-68.36718-1.7998-43.7793,0-56.97266,1.7998-65.36915,1.7998-2.998,0-4.19726-1.20019-4.19726-4.7998V675.79883c0-3,2.39844-4.2002,4.79687-4.2002h20.99024c17.99219,0,26.38769-8.39941,34.7832-27.59961,4.19824-9.60058,47.97754-120.60156,65.36914-169.80224,4.19824-12,52.77539-141.00147,58.17285-157.20117,1.79981-6.00049,4.79786-13.8003.59961-20.4004-1.79883-2.3999-4.19824-5.3999-4.19824-7.80029,0-1.7998,1.19922-4.19971,5.39844-5.3999,16.791-3.6001,43.17871-21.6001,49.77539-30.00049,2.999-3,4.79785-5.3999,7.79687-5.3999,3.59766,0,4.79688,3.6001,6.59668,10.20019,11.39453,37.8003,58.17286,172.20166,69.56739,210.60206,13.793,46.80078,52.77539,158.40136,61.17089,175.80175,10.19434,19.79981,25.78809,27,40.78028,27h19.791c3.59766,0,4.79786,1.80078,4.79786,4.2002v15c0,3-1.79981,4.20019-5.999,4.20019-10.79492,0-23.38867-1.7998-71.96484-1.7998-49.77735,0-70.76758,1.7998-84.55957,1.7998-2.999,0-4.79785-1.7998-4.79785-5.39941V675.79883c0-3.59961,1.79882-4.2002,5.39746-4.2002h14.99316c16.792,0,22.18945-6,17.99121-22.7998-4.79785-21.60059-29.38574-98.40137-37.78222-122.40137Zm140.333-21.60058c-5.39746-18-53.97461-168.00147-56.97364-177.00147-1.79882-4.19971-2.998-8.3999-4.79687-8.3999-2.39844,0-4.79785,4.20019-6.59766,9-2.998,7.80029-59.9707,161.40185-64.16894,176.40137Z"/><path class="cls-1" d="M4038.9082,441.79688c0-14.4004-1.7998-122.40137-2.39941-131.40137-1.2002-14.40039-7.19629-20.40039-29.98535-20.40039h-34.78418c-2.999,0-4.79785-1.2002-4.79785-3.6001v-16.2002c0-2.3999,1.79882-3.60009,4.19824-3.60156,7.19629,0,37.78223,1.79981,93.55566,1.79981,53.374,0,72.56446-1.79981,80.96192-1.79834,2.999,0,4.19824,1.80029,4.19824,4.20019v15c0,3-1.79981,4.2002-4.79883,4.2002h-28.18555c-11.99414,0-20.99023,4.7998-20.99023,16.80029,0,6-1.79883,138.60107-1.79883,145.80127v46.2002c0,6,1.79883,144.60156,1.79883,151.20214,0,18.59961,8.99609,21.59961,28.18652,21.59961h24.58887c2.99805,0,4.79688,1.2002,4.79688,4.2002v15.60058q0,3.59913-5.39844,3.59961c-7.19531,0-31.18457-1.7998-83.35938-1.7998-56.97265,0-82.76074,1.7998-89.35742,1.7998-2.999,0-4.79785-1.20019-4.79785-3.59961V675.19922c0-2.40039,1.79883-3.60059,4.79785-3.60059h33.584c11.99414,0,24.58789-1.7998,26.9873-17.39941,1.19922-9,2.999-138.60156,2.999-170.40234Z"/><path class="cls-1" d="M4421.51367,289.99512h-14.99316c-19.19141,0-71.36621,0-94.75488,7.20019-26.98829,8.3999-44.97852,50.40039-53.375,69.60059-1.19922,3-2.999,3.6001-5.99805,3l-10.79492-3c-1.79883-.6001-3.59766-1.2002-2.39844-4.79981,5.998-21.60058,26.9873-99.00146,28.1875-105.60156,1.19922-7.7998,3.59766-9.59961,5.99609-9.59961a10.46568,10.46568,0,0,1,7.19727,2.3999l7.7959,5.39991c10.79492,7.80029,16.792,9.60009,34.18457,10.20019,31.78418,1.2002,56.97265,3.6001,113.3457,3.6001h28.78711c65.36914,0,91.15625-2.3999,120.543-3.6001,13.19336-.6001,20.98926-2.3999,31.18457-8.40039l11.39453-7.19971c2.999-1.80029,4.79785-2.3999,7.19629-2.3999,2.999,0,4.19824,1.79981,5.39844,9.59961,1.19922,7.2002,12.59375,81.60108,17.39062,108.00147.59961,3-.59961,4.1997-3.59765,4.7998l-9.59571,2.3999c-2.39844.6001-2.998,0-4.79687-4.1997-4.79883-11.40039-22.79-57.60059-42.58008-67.20069-17.99219-9-74.36524-10.20019-103.752-10.20019h-16.791v171.002c0,8.3999,0,176.40137.59961,186.60156,1.19922,15,5.99707,24,20.39062,24H4535.459c5.39747,0,5.998,1.80078,5.998,6v12.60059c0,3-.60058,4.7998-5.998,4.7998-5.998,0-25.18847-1.7998-83.96093-1.7998-57.57227,0-82.75977,1.7998-91.15625,1.7998-4.79688,0-5.39649-2.39941-5.39649-6V677.59863c0-4.19922.59961-6,4.19727-6h40.78125c11.99414,0,19.19043-7.20019,19.79-14.39941,1.7998-17.40039,1.7998-201.60254,1.7998-213.00244Z"/></g><g id="focus"><circle class="cls-2" cx="1667" cy="481" r="122"/><circle class="cls-3" cx="1667.5" cy="480.5" r="224.5"/><path class="cls-4" d="M1671,229V169c0-5.79107-9-5.80066-9,0v60c0,5.79107,9,5.80066,9,0Z"/><path class="cls-4" d="M1363,486h60c5.79107,0,5.80066-9,0-9h-60c-5.79107,0-5.80066,9,0,9Z"/><path class="cls-4" d="M1915,486h60c5.79107,0,5.80066-9,0-9h-60c-5.79107,0-5.80066,9,0,9Z"/><path class="cls-4" d="M1671.27358,792.283v-60c0-5.79107-9-5.80066-9,0v60c0,5.79107,9,5.80066,9,0Z"/><path class="cls-4" d="M1671,434V309c0-5.79107-9-5.80066-9,0V434c0,5.79107,9,5.80066,9,0Z"/><path class="cls-4" d="M1672,644V519c0-5.79107-9-5.80066-9,0V644c0,5.79107,9,5.80066,9,0Z"/><path class="cls-4" d="M1728,486h92c5.79107,0,5.80066-9,0-9h-92c-5.79107,0-5.80066,9,0,9Z"/><path class="cls-4" d="M1508,485h92c5.79107,0,5.80066-9,0-9h-92c-5.79107,0-5.80066,9,0,9Z"/></g><g id="soulignage"><path class="cls-4" d="M1051.89623,845H4573.10377c19.30357,0,19.33555-30,0-30H1051.89623c-19.30357,0-19.33555,30,0,30Z"/></g><g id="icons"><g id="Portrait"><path class="cls-4" d="M5538.44224,74.5H4911.55776a24.93222,24.93222,0,0,0-24.93164,24.93164V900.56836A24.93222,24.93222,0,0,0,4911.55776,925.5h626.88448a24.93222,24.93222,0,0,0,24.93164-24.93164V99.43164A24.93222,24.93222,0,0,0,5538.44224,74.5Z"/><path class="cls-5" d="M5212.5824,74.5H4911.55776a24.93222,24.93222,0,0,0-24.93164,24.93164V900.56836A24.93222,24.93222,0,0,0,4911.55776,925.5h301.02461l0-851Z"/><path class="cls-6" d="M5450.771,167.859H4999.229a16.62183,16.62183,0,0,0-16.62109,16.62109V815.51987A16.62182,16.62182,0,0,0,4999.229,832.141H5450.771a16.62182,16.62182,0,0,0,16.62109-16.6211V184.48011A16.62179,16.62179,0,0,0,5450.771,167.859Z"/><path class="cls-7" d="M5212.5824,167.859H4999.229a16.62183,16.62183,0,0,0-16.62109,16.62109V815.51987A16.62182,16.62182,0,0,0,4999.229,832.141H5212.5824Z"/><path class="cls-8" d="M5467.39209,462.51446V184.48011A16.62183,16.62183,0,0,0,5450.771,167.859H4999.229a16.62183,16.62183,0,0,0-16.62109,16.62109V462.51443l484.78414,0Z"/><path class="cls-9" d="M5212.5824,167.859H4999.229a16.62183,16.62183,0,0,0-16.62109,16.62109V462.51443H5212.5824Z"/><path class="cls-10" d="M5345.29685,482.93013h0q-11.12946-58.02839-22.26064-116.05846c-4.51095-23.51551-8.83077-47.33022-16.82389-68.73652h0c-11.1112-29.75509-29.33292-54.84961-65.153-67.94205-39.23409-14.34233-87.06462-3.42394-114.45785,28.11459-14.30577,16.46984-22.726,37.208-29.16835,58.05083C5080.094,372.463,5068.3146,524.7887,5068.3146,524.7887c-15.9712,1.14189-31.61,3.61842-46.41441,13.36667a87.78545,87.78545,0,0,0-39.29227,72.7954V815.52155a16.62181,16.62181,0,0,0,16.6211,16.62109H5450.771a16.62181,16.62181,0,0,0,16.62109-16.62109v-216.779Z"/><path class="cls-11" d="M5212.5824,224.22115c-31.95074-2.15908-64.97517,9.89953-85.98091,34.08487-14.30577,16.46984-22.726,37.208-29.16835,58.05083C5080.094,372.46136,5068.31465,524.787,5068.31465,524.787c-15.9712,1.14189-31.61,3.61841-46.41441,13.36667a87.78544,87.78544,0,0,0-39.29227,72.7954V815.51987a16.62182,16.62182,0,0,0,16.6211,16.6211h213.35335Z"/><path class="cls-12" d="M5465.93607,586.45961a16.61793,16.61793,0,0,0-21.9631-8.37537,362.88509,362.88509,0,0,0-143.16245,115.20744l-28.831,38.99475a16.62134,16.62134,0,1,0,26.73172,19.76083l28.831-38.99307a328.51811,328.51811,0,0,1,42.04308-46.72025l1.14022-1.0272a329.35606,329.35606,0,0,1,86.83857-56.8857A16.61856,16.61856,0,0,0,5465.93607,586.45961Z"/><path class="cls-7" d="M5281.22752,504.69046s-2.31036-68.60356-2.49316-73.64974c-1.5175-42.04637-2.24553-86.88179-22.16924-125.03548-11.85582-22.70275-31.31084-42.30734-55.74716-49.978-36.23232-11.37382-72.06075,8.96707-87.23082,42.4004-10.22528,22.5382-12.637,49.83171-6.7947,76.85427s19.3187,50.88217,37.94264,67.18081a87.58892,87.58892,0,0,0,27.237,16.51306,40.20451,40.20451,0,0,1-17.59344,25.80258l-.34906.22438A156.44264,156.44264,0,0,0,5094.06233,555.29l-5.29217,12.4575,46.85487,52.56918,103.99655,17.143,47.887-30.54293Z"/><path class="cls-13" d="M5212.5824,260.80085a78.82957,78.82957,0,0,0-11.76274-4.77524c-36.23232-11.37382-72.06075,8.96707-87.23082,42.40041-10.22528,22.5382-12.637,49.83171-6.7947,76.85427s19.3187,50.88217,37.94264,67.18079a87.58908,87.58908,0,0,0,27.237,16.51305,40.20454,40.20454,0,0,1-17.59344,25.80259l-.34906.22438a156.44253,156.44253,0,0,0-59.96723,70.28727l-5.29217,12.4575,46.85487,52.56918,70.30391,11.5882,6.65011,1.097.00165-372.1994Z"/><path class="cls-5" d="M5241.64271,621.96062c-78.12579,3.25772-114.95981-28.48026-131.3349-51.68162l-1.815-3.18792a8.63445,8.63445,0,0,0-15.584,1.22994l-2.43,6.45067a29.65217,29.65217,0,0,0,6.3426,31.01q1.5707,1.633,3.2461,3.26436c22.121,21.53428,62.45543,46.38451,130.77146,46.38451q5.63457,0,11.52672-.231c8.90559-.35237,16.41668-7.36145,16.58787-16.27368A16.57454,16.57454,0,0,0,5241.64271,621.96062Z"/><path class="cls-12" d="M5119.17351,533.77905a17.41613,17.41613,0,0,0-24.58759-1.446,103.13457,103.13457,0,0,0-33.85883,89.48132l1.29145,10.64413a17.41584,17.41584,0,0,0,34.57852-4.19184l-1.29145-10.64414a68.30221,68.30221,0,0,1,22.42019-59.25586A17.41465,17.41465,0,0,0,5119.17351,533.77905Z"/><path class="cls-12" d="M5107.03678,684.87477a17.41686,17.41686,0,0,0-32.86488,11.545l4.35472,12.396a17.41658,17.41658,0,1,0,32.86488-11.54336Z"/><path class="cls-7" d="M5319.2815,774.92784a85.63289,85.63289,0,0,0-70.80917-44.02763l-81.26884-3.61675a16.62172,16.62172,0,1,0-1.47761,33.21059l81.26882,3.61674a52.19138,52.19138,0,0,1,43.15834,26.83474,16.621,16.621,0,1,0,29.12846-16.01769Z"/><path class="cls-13" d="M5212.59069,729.3046l-45.38556-2.01946a16.62172,16.62172,0,1,0-1.4776,33.21059l46.86151,2.086Z"/><path class="cls-12" d="M5403.14488,525.22913a16.61793,16.61793,0,0,0-21.9631-8.37537A362.88519,362.88519,0,0,0,5238.01932,632.0612l-28.831,38.99475a16.62134,16.62134,0,1,0,26.73172,19.76083l28.831-38.99307a328.51811,328.51811,0,0,1,42.04308-46.72025l1.14021-1.0272a329.356,329.356,0,0,1,86.83857-56.8857A16.61853,16.61853,0,0,0,5403.14488,525.22913Z"/></g><g id="portrait_focus"><path class="cls-4" d="M78.26614,163A15.26584,15.26584,0,0,0,63,178.26614v224.5687A15.26585,15.26585,0,0,0,78.26614,418.101h26.71574A15.26585,15.26585,0,0,0,120.248,402.83484V235.51416A15.26584,15.26584,0,0,1,135.51416,220.248H302.83561a15.26584,15.26584,0,0,0,15.26613-15.26614V178.26614A15.26584,15.26584,0,0,0,302.83561,163Z"/><path class="cls-4" d="M737,309.63431V178.26614A15.26583,15.26583,0,0,0,721.73386,163H497.16514A15.26583,15.26583,0,0,0,481.899,178.26614v26.71574A15.26583,15.26583,0,0,0,497.16514,220.248h167.3207A15.26583,15.26583,0,0,1,679.752,235.51416V402.83637a15.26584,15.26584,0,0,0,15.26614,15.26614h26.71574A15.26583,15.26583,0,0,0,737,402.83637Z"/><path class="cls-4" d="M78.26614,837h224.5687A15.26536,15.26536,0,0,0,318.101,821.73386V795.01812A15.26536,15.26536,0,0,0,302.83484,779.752H135.51416A15.26535,15.26535,0,0,1,120.248,764.48584V597.16514A15.26535,15.26535,0,0,0,104.98188,581.899H78.26614A15.26535,15.26535,0,0,0,63,597.16514V821.73386A15.26535,15.26535,0,0,0,78.26614,837Z"/><path class="cls-4" d="M497.16439,837H721.73386A15.26534,15.26534,0,0,0,737,821.73386V597.16514A15.26534,15.26534,0,0,0,721.73386,581.899H695.01812A15.26535,15.26535,0,0,0,679.752,597.16514v167.3207A15.26534,15.26534,0,0,1,664.48584,779.752H497.16439a15.26534,15.26534,0,0,0-15.26613,15.26614v26.71574A15.26534,15.26534,0,0,0,497.16439,837Z"/><path class="cls-12" d="M570.26477,741.25535a15.26633,15.26633,0,0,0,15.26614-15.26614v-48.054a132.8152,132.8152,0,0,0-22.89-74.19265c-16.59656-24.50367-39.808-36.79522-64.94826-50.2752-16.18976-8.68108-31.24215-21.33213-38.52334-37.83713a137.89717,137.89717,0,1,0-118.33777-.00075c-7.28119,16.505-22.3336,29.156-38.52333,37.83713-25.14105,13.48-48.35245,25.77228-64.94826,50.2752a132.82089,132.82089,0,0,0-22.89005,74.19265v48.054A15.26633,15.26633,0,0,0,229.736,741.2546H570.26477Z"/></g></g><g id="Ancrage"><rect class="cls-14" x="5624" y="999" width="1" height="1"/><rect class="cls-14" x="5624" width="1" height="1"/><rect class="cls-14" y="999" width="1" height="1"/><rect class="cls-14" width="1" height="1"/></g></svg>