<svg xmlns="http://www.w3.org/2000/svg" viewBox="0 0 5625 1005.4004"><defs><style>.cls-1,.cls-6,.cls-7{fill:red;}.cls-1,.cls-12,.cls-5,.cls-6,.cls-7,.cls-8{stroke:#000;}.cls-1,.cls-11,.cls-12,.cls-5,.cls-6,.cls-7,.cls-8{stroke-miterlimit:10;}.cls-1{stroke-width:5px;}.cls-2{fill:#ffb932;}.cls-3{fill:#d30114;}.cls-4{fill:#fdf5e6;}.cls-5,.cls-7{stroke-width:4px;}.cls-6{stroke-width:2px;}.cls-11,.cls-8{stroke-width:3px;}.cls-9{fill:#bab8b9;}.cls-10{fill:#9e9c9d;}.cls-11{stroke:red;}.cls-12{stroke-width:6px;}.cls-13{fill:none;}</style></defs><title>logo_mise_en_lumiere</title><g id="Texte"><path class="cls-1" d="M366.60693,590.72461l86.70166-6.33691q1.24-.09082,8.07276,11.20605Q490.82691,639,560.60693,743.92383q3.27027,4.44141,14.29493,20.91992l.249-.01855q.99682-4.54395.81787-5.34668l-112.979-169.08789c.1206-.95508.34521-1.44825.67968-1.47266l.49659-.03613q.98877-.07325,26.335,38.54687,45.54345,67.856,85.90136,128.35742l.49659-.03711.95556-6.98437L474.751,594.41309a3.00693,3.00693,0,0,1,2.05615-.96387q98.61621,146.74952,101.5708,152.02344l.49658-.03711q30.32228-162.87891,32.187-172.57715l93.40918-6.82715c.33008-.02344.54151.16406.63135.56445q-11.08374,13.62159-11.13428,22.3711a85.7246,85.7246,0,0,0,1.63428,12.89648q53.12256,200.50927,56.6582,210.624,3.96241,10.89845,15.98877,20.59278,6.34131,4.62158,6.521,5.42187l-103.34717,7.55274-.04492-.2002q11.68872-14.27783,11.11133-21.35351a61.92406,61.92406,0,0,0-1.54541-12.4961l-30.939-124.23828-.9917-2.165-.248.01856q-14.88208,83.25439-32.80176,177.707a2.71865,2.71865,0,0,1-1.80762.94531l-30.80469,2.25195c-.334.02442-.543-.16406-.63281-.56445-.04541-.94336.1836-1.43652.68018-1.47363l29.811-2.17871q.74487-.05421,10.24317-54.43848.40575-.43652,24.03222-129.07031-3.91626-15.16846-5.93506-24.17383l-.08984-.40039-.24853.01758-34.37061,187.584q-2.8418,15.46143-3.7666,16.95117l-1.69434.32715-31.55078,2.30664c-.334.02442-.5415-.16406-.63135-.56347l-.08984-.40039a1.53368,1.53368,0,0,0,.27148-1.03711l31.30225-2.28809q.74487-.05419,10.8125-57.53223Q622.80273,739.7876,639.728,647.63867q-4.05175-15.76758-5.375-20.55469l-.24805.01758L595.69043,837.14941q-2.75171,13.62452-3.26807,14.67969l-30.55713,2.23242q-.54419-.16113-11.95019-17.22754L450.98047,690.92285l-.24854.01856.08985.40039q26.84033,131.86083,30.61914,148.667,3.64086,16.207,15.66992,23.666l7.80762,5.53125.40429,1.80079a2.28876,2.28876,0,0,1-2.21484,1.38183L436.03174,877.291c-.99317.07226-1.63526-.15039-1.91895-.67286l-.04492-.20019c-.02978-.13184.29248-.5625.97315-1.292l1.53515.09179,66.08252-4.83007q-15.82178-10.84131-19.28906-17.30079A61.06019,61.06019,0,0,1,478.1001,838.626q-3.416-15.20363-31.291-153.90625-12.28857-17.606-12.46777-18.40918l-.24854.01758.17969.80078q31.28979,153.90526,34.39307,167.71191,3.59619,16.01074,15.918,23.64844l7.80615,5.53125.40478,1.80078a2.28645,2.28645,0,0,1-2.21386,1.38184l-67.07618,4.90234q-1.741.126-2.16748-.65527l-.08984-.4004c-.05957-.26562.27686-.62988,1.01758-1.09082l1.78369.07227,66.08252-4.83008q-16.06714-10.82226-19.29-17.2998a61.06286,61.06286,0,0,1-5.26807-14.46192q-2.24706-10.00341-35.40283-173.332-8.88354-12.56835-10.124-14.71679l-.24805.01855.17969.80078q35.17457,172.333,37.69531,183.53613,3.59693,16.01075,14.83447,23.32032,2.18409,1.87645,9.07081,6.66015l.04492.2002-67.07617,4.90234-.04493-.20019q14.47119-16.51318,10.74024-33.12207Q390.71362,639.605,387.25635,624.19531l-.49463-2.20019q-3.68555-16.4048-15.75733-26.30469-.08936-.39844-4.8496-4.72949Zm348.5625-19.78027.249-.01856c.33008-.02344.52636.09766.58593.36426q.2256,1.00341-6.85449,11.07617-6.10986,8.7876-2.55566,24.5918,53.12109,200.50928,56.65869,210.624a42.328,42.328,0,0,0,9.19775,13.9707q5.09474,4.71387,13.62745,11.207l.27,1.20019a3.09043,3.09043,0,0,1-2.6206,1.81836l-103.34766,7.55273c-.333.02442-.5415-.16406-.63134-.56347.45068-.98047.84228-1.48535,1.17626-1.50977l102.84961-7.5166q-18.39184-13.29784-22.26318-23.79492-1.49121.10986-38.30713-140.17383-15.5918-57.022-18.96-72.03223l-.89893-4.00195q-3.59545-16.00635,8.84083-30.33887Q713.426,571.07324,715.16943,570.94434Zm11.53467,5.25879q1.98486-.145,2.21143.85449l-8.165,11.98535q-4.90869,8.49609-1.5835,23.30078,53.07642,200.313,56.61377,210.42383a40.59763,40.59763,0,0,0,9.19824,13.9707q5.09547,4.71387,13.62793,11.207l.26953,1.2002a3.09055,3.09055,0,0,1-2.62109,1.81836L692.1626,858.57129l-.2251-1c-.05957-.2666.27734-.62988,1.01807-1.0918l103.34668-7.55273Q777.90967,835.62745,774.0835,825.333,772.593,825.4414,735.98,684.94043q-15.835-57.0044-19.207-72.01465l-.89893-4.002Q712.09839,592.11621,726.7041,576.20313Z" transform="translate(0 5.4004)"/><path class="cls-1" d="M811.084,557.833l97.13575-7.09961q.13476.60059-4.34668,9.877-6.36109,11.042-1.23389,33.84961l41.48828,184.68359q6.38306,28.415,11.39209,32.72559.18018.80127,12.40674,12.5166l-98.875,7.22559-.04492-.2002q11.58031-15.895,8.07324-31.50293-1.93214-10.84131-2.51465-13.44336-28.43262-127.67432-44.16113-197.707-3.7749-16.80762-20.02-30.66992Zm105.64356-1.82324,1.9873-.14551c.33008-.02344.52735.09863.58741.36426q.13476.60059-4.98145,11.5498-5.67993,9.5669-.5542,32.37695l41.353,184.083q6.42846,28.61572,10.87353,31.543,2.67921,4.0752,12.7002,12.69727l.40478,1.80078a2.61774,2.61774,0,0,1-2.21435,1.38183l-99.62012,7.28125c-.334.02442-.82031-.27636-1.46728-.90918l-.04493-.20019c-.05957-.26563.21045-.55567.814-.874l99.86865-7.29882q-15.99609-13.8794-17.7041-21.4834-1.28394-2.34669-3.17285-10.751L909.979,594.53418q-4.27-19.00782,4.915-34.32227Q916.81592,556.40919,916.72754,556.00977Zm13.34228,4.3125.99317-.07227q.791.14794.88037.5459l.17969.7998q.09081.4043-5.27442,11.36817-5.67993,9.56689-.50927,32.57812l41.353,184.083q6.38306,28.41357,10.82862,31.3418,2.97509,4.25829,12.70068,12.69824l.4043,1.80078a2.28855,2.28855,0,0,1-2.21436,1.38184l-99.37207,7.26269c-.334.02344-.72363-.21777-1.17334-.72754l-.08984-.40039.76855-1.07324L891.08057,842l97.88134-7.15332q-15.75145-13.897-17.45605-21.50293-1.53516-2.32764-3.42041-10.73145l-45.5332-202.6914q-4.40479-19.60841,5.48-35.17871l1.5166-3.36426c-.3335.02441-.51172-.03027-.542-.16406Z" transform="translate(0 5.4004)"/><path class="cls-1" d="M1109.43994,535.417q18.13183-1.32422,58.21485,2.86426a72.17,72.17,0,0,0,13.52636.63867l1.49073-.10937a41.27908,41.27908,0,0,0,13.07958-3.59961l.49659-.03614,13.48486,60.02735-.74512.05371a61.87137,61.87137,0,0,0-20.55078-20.665q-10.02173-6.38526-15.168-6.82324a81.31636,81.31636,0,0,0-23.4165-1.94922l-5.46533.39941q-24.09962,1.76075-33.55518,18.11231-3.75806,8.00537-1.55469,17.80664l.31446,1.40039q3.68628,16.40918,26.6167,28.56055a330.95577,330.95577,0,0,0,36.38379,18.08593q26.79126,12.48487,42.751,19.45118,39.63208,19.06786,52.59717,39.67773a71.15778,71.15778,0,0,1,10.02441,23.26563q8.13575,36.21825-24.25537,64.00585-31.144,23.22365-76.3584,26.52832l-2.98144.21778q-49.18945,3.59472-90.90527-11.25293-3.5647-2.38038-17.20118-6.87793a3.68417,3.68417,0,0,1-1.10449-1.54688l.65527-.4541.24854-.01855q.74487-.05421,12.84473,4.34863a218.41385,218.41385,0,0,0,80.74658,8.74121l6.95557-.50781q46.70287-3.41309,77.26464-29.23828,26.83374-25.55127,19.32666-58.96778-6.832-30.41161-39.91748-49.55371l.04493.2002q25.92846,17.6294,31.95166,44.4414,8.35986,37.21729-26.15284,64.55079-29.90259,20.90038-72.38086,24.001l-2.981.21778q-51.42553,3.75732-94.292-12.83594l-13.125-58.42676.49659-.03613a151.13161,151.13161,0,0,0,29.189,31.0166q9.22558,6.24316,9.72608,6.2041l-.04493-.20019a127.59254,127.59254,0,0,1-25.85205-25.15918q-4.76-6.564-6.26953-7.67774l-.13476-.59961q.10839-.61817.60986-.65527l.74512-.05371q1.49047-.10986,9.85595,11.27929a133.76239,133.76239,0,0,0,23.395,22.084q9.63795,5.80664,9.68164,6.00488l-.04492-.20019q-11.98682-7.25684-32.34668-33.83692l.45166-.23633,1.24219-.09082q1.49047-.10986,6.76611,7.64063,14.99341,18.42774,24.97217,24.61328,14.35254,9.9331,17.582,9.69727a97.5904,97.5904,0,0,0,25.85547,1.56738l.99317-.07227q32.79345-2.39647,45.88916-21.65722a36.326,36.326,0,0,0,4.36621-27.77539,41.77826,41.77826,0,0,0-11.42725-20.51856q-16.58716-12.00585-30.625-18.30371-30.27246-12.22559-59.70264-26.3457-23.13354-11.93262-35.29589-22.23242-24.79616-21.57276-29.74659-36.874a55.62758,55.62758,0,0,1-2.15966-7.36719l-.44922-2.001q-7.596-33.81153,27.16015-56.69336Q1075.40453,537.90723,1109.43994,535.417Zm-34.89453,129.05078.08984.40039,3.43116,1.78223-.04493-.19922Zm12.04688-72.26562.35986,1.60156q3.64086,16.207,25.57812,28.43359l-.04492-.20019q-14.80737-9.6958-17.94971-23.7041-5.66381-25.21143,22.41846-36.21192a68.00248,68.00248,0,0,1,15.69776-3.18164l2.48437-.18164a90.20827,90.20827,0,0,1,46.51074,9.21l-.04492-.19922q-26.02589-15.79248-52.603-13.8496l-5.21728.38183q-23.354,1.70655-34.07276,16.92871A27.7364,27.7364,0,0,0,1086.59229,592.20215Zm10.45068,4.93066.31494,1.40137q3.68555,16.40772,27.15869,28.72363l-.04492-.19922q-14.55762-9.71337-17.70215-23.72168-5.66382-25.21141,22.17041-36.19433a68.05927,68.05927,0,0,1,15.69824-3.18067l2.48389-.18164a83.41769,83.41769,0,0,1,19.624.80274l.24854-.01758-.04492-.2002a81.983,81.983,0,0,0-29.33155-3.55078l-5.46533.39942q-24.0996,1.76074-33.30664,18.09375A26.53137,26.53137,0,0,0,1097.043,597.13281ZM1233.21533,681.751l.04492.19922q26.69385,18.79394,32.71827,45.60546,8.13647,36.21827-24.459,64.22461-31.188,23.023-76.15478,26.30957l-2.98047.21778a245.07822,245.07822,0,0,1-61.03809-3.06348l-.24853.01758.04492.20019a225.85985,225.85985,0,0,0,70.7456,5.81153l6.70752-.49024q46.70215-3.41309,77.26416-29.2373,26.83374-25.55127,19.32715-58.96777Q1268.17481,701.36376,1233.21533,681.751Zm-129.9375-2.91016.04492.2002q28.686,14.17821,53.35938,23.96289l-.04492-.2002a498.92866,498.92866,0,0,0-46.58789-20.79687A67.01544,67.01544,0,0,0,1103.27783,678.84082Zm101.70508-139.62695.49707-.03614c.33008-.02441.72022.22071,1.17383.72754l13.48437,60.02735a2.31248,2.31248,0,0,1-1.15478,2.72851c-.3335.02442-.76807-.417-1.30762-1.3291-.06006-.26562-.00928-.40527.15772-.417q-2.00318-7.78711-2.80957-11.3877l-10.96778-48.82226c-.02929-.13184.03614-.20606.20313-.21778l-.33789-.38281-.08985-.39941A2.41429,2.41429,0,0,0,1204.98291,539.21387Zm12.4834,4.98633.248-.01856c.33007-.02441.63867.22656.9248.74512L1232.169,605.1543c.17968.7998.0371,1.28808-.43018,1.45508a10.05417,10.05417,0,0,1-2.32617-.23731l-.13184-2.83691-12.81055-57.02637Q1216.06591,544.70849,1217.46631,544.2002Z" transform="translate(0 5.4004)"/><path class="cls-1" d="M1310.02588,521.77539l214.8916-15.70605c.33008-.02344.542.16406.63184.56445l10.833,48.22168q.04469.20069,8.12452,4.69433l-10.7876-48.02148q-.405-1.80175.54346-2.07422a3.20031,3.20031,0,0,1,2.36865,2.67383l11.2373,50.02246,10.24463,7.38672-11.77685-52.42383a1.46287,1.46287,0,0,1,.83789-1.8916l.24853-.01855q1.28541.11279,1.73682,2.11035l11.59668,51.623c.41992,1.87012-.20215,2.86328-1.85547,2.9834l-1.24219.09082a62.96,62.96,0,0,1-9.11621-6.8584,3.06956,3.06956,0,0,1-2.21435,1.38184l-1.24219.09082q-.25049.019-15.90869-11.24316a46.6829,46.6829,0,0,0-20.06787-7.27832q-12.64308-2.32619-45.68506.085l-38.50684,2.81445,17.88965,79.63574.24853-.01855q45.4629-3.32228,54.728-9.28711,6.50318-2.50635,15.09766-11.47559l4.749-5.83789.33789.38184,14.51856,64.62988q8.05663,5.5122,8.146,5.91211l.24854-.01856L1526.228,609.69531c-.0459-.94336.18261-1.43652.6792-1.47265l.99365-.07325q.791.148,1.19482,1.94629l14.15918,63.02832q.67457,3.00147-.93017,3.7295l-1.98731.14453q-17.53783-11.73048-20.01855-11.55274-10.56738-2.07274-29.19824-.71289L1450.37744,667.71l21.8457,97.24317,28.81739-2.10547q45.958-3.35889,77.66455-22.96289a73.591,73.591,0,0,0,16.09863-18.25977l.63428-1.67383.74512-.05469q-.64893,55.57032-.96631,58.64356l-226.81641,16.57715q-.74561.05419-.88037-.54688,16.54688-16.25683,12.188-35.668.1809-1.43408-1.75049-10.04l-40.27441-179.28125q-6.65185-29.61181-12.27149-33.2705-.17871-.79835-9.18213-8.27832-.405-1.8003-6.06885-5.65625Zm295.88574,202.08789q.7456-.0542,1.01514,1.14551-.39918,55.55274-.69678,59.84473a3.68709,3.68709,0,0,1-2.05615.96289l-227.313,16.61328c-1.49072.1084-2.35547-.36817-2.5957-1.4375a4.83261,4.83261,0,0,1,1.89746-.5459l227.56152-16.63086q.47022-58.60546.9458-59.86133Zm11.82764,5.44043.7456-.05371c.32959-.02441.71973.21973,1.17334.72656q-.55811,55.97315-.90088,60.0625a3.0051,3.0051,0,0,1-2.05566.96289l-227.80957,16.64942c-.334.02441-.72412-.2168-1.17383-.72657l-.08984-.40039c-.05957-.26562.21045-.55664.814-.874L1616.252,789.001q.34791-53.51075,1.03565-59.46Zm-217.04-190.56445,20.99121,93.44238,6.95605-.50879-19.64257-87.43945c-.08985-.40039.11377-.61719.61084-.65332l31.05371-2.26953q47.94286-3.50391,59.12109.15234,8.05811,1.04151,22.93555,7.67871l-.04492-.20019q-17.46681-10.31544-31.39844-12.75489-14.06836-3.03809-49.34278-.46093Zm11.44287,7.0957,19.23779,85.63867,8.44629-.61718-18.29443-81.43653q.10986-.61962.61035-.65527l31.30273-2.28809q43.72121-3.19482,54.92188-.55566l.248-.01758-.04493-.20019q-17.67919-5.62208-50.71679-3.209Zm14.26611,109.59375L1451.355,766.47852l6.95606-.50879L1434.7124,660.92285c-.08984-.40039.02832-.6123.36182-.63672l39.25244-2.86816q31.30152-2.28809,43.21924,3.55273l5.10156,2.47461-.04492-.20019q-18.68775-13.478-47.75-11.35645Zm11.4419,7.0957,23.19336,103.2461,8.44629-.61719-22.24952-99.04394c-.05957-.26661.07325-.41211.40723-.43653l39.50049-2.88672q17.8872-1.30811,27.438-.3789l.248-.01856-.04492-.20019q-11.35766-4.45607-36.44531-2.624Zm99.251-104.46777q7.69044,6.15089,8.48438,6.29492l-.26953-1.20019a68.14837,68.14837,0,0,0-7.71826-5.13086Zm2.40235,54.53223q1.82592.27686,2.458,3.07422l14.06933,62.6289q.67383,3.00147-1.17871,3.74707l-.49609.03614-.79-.14551c-.28711-2.0127-.53125-3.48535-.74121-4.4209l-13.21485-58.82617Q1538.26148,612.67968,1539.50342,612.58887Z" transform="translate(0 5.4004)"/><path class="cls-1" d="M1817.82227,484.66309l214.8916-15.70508c.32959-.02393.5415.16406.63134.56445l10.833,48.22168q.04469.20069,8.12451,4.69336L2041.51514,474.416q-.405-1.80177.54394-2.07325a3.19923,3.19923,0,0,1,2.36817,2.67334l11.2373,50.022,10.24463,7.38671-11.77686-52.42334a1.46308,1.46308,0,0,1,.83789-1.8916l.24854-.01806q1.28539.11133,1.73682,2.11035l11.59668,51.623q.62988,2.80516-1.85547,2.98339l-1.24219.09082a63.05485,63.05485,0,0,1-9.11621-6.85937,3.06268,3.06268,0,0,1-2.21387,1.38184l-1.24219.09082q-.25122.019-15.90918-11.24219a46.67983,46.67983,0,0,0-20.06738-7.2793q-12.6438-2.32617-45.68555.085l-38.50683,2.81446,17.88965,79.63574.24853-.01856q45.46362-3.32226,54.72852-9.28711,6.50244-2.50635,15.09765-11.47461l4.74854-5.83886.33789.38183,14.51855,64.62989q8.05665,5.5122,8.146,5.9121l.24854-.01855L2034.02393,572.583c-.0459-.94336.18261-1.43653.6792-1.47266l.99365-.07226q.791.14648,1.19482,1.94629l14.15918,63.02832q.67456,3.00146-.93017,3.72851l-1.98731.14551q-17.53711-11.73194-20.01855-11.55371-10.5674-2.07276-29.19825-.71192l-40.74218,2.97754L1980.019,727.8418l28.81739-2.10645q45.958-3.35889,77.66455-22.96191a73.5786,73.5786,0,0,0,16.09863-18.26074l.63428-1.67383.74511-.05469q-.64891,55.57031-.9663,58.64355l-226.81641,16.57715q-.74487.05421-.88037-.5459,16.54688-16.25829,12.188-35.66894.18164-1.43262-1.75-10.04L1845.48,532.46875q-6.65186-29.61182-12.27246-33.27-.17871-.79835-9.18164-8.27783-.405-1.8003-6.06885-5.65723ZM2113.70752,686.752q.74634-.05566,1.01514,1.14551-.39771,55.55127-.69678,59.84375a3.68716,3.68716,0,0,1-2.05567.96289l-227.31347,16.61328q-2.23608.16407-2.5957-1.4375a4.815,4.815,0,0,1,1.89794-.54492l227.56153-16.63183q.47021-58.60548.94531-59.86036Zm11.82764,5.44043.7456-.05468c.33008-.02442.72022.2207,1.17334.72753q-.55811,55.97169-.90088,60.06153a3.00614,3.00614,0,0,1-2.05566.96387L1896.688,770.54c-.334.02441-.72363-.21777-1.17383-.72754l-.08984-.40039q-.08936-.39845.814-.87305l227.81006-16.64941q.34718-53.51221,1.03516-59.46094ZM1908.49561,501.627l20.99121,93.44239,6.95605-.50782-19.64258-87.43945q-.13476-.60059.61084-.6543l31.05323-2.26953q47.9436-3.50391,59.12158.15235,8.05811,1.04149,22.936,7.67968l-.04492-.20019q-17.46826-10.31689-31.39941-12.75537-14.06836-3.03736-49.34229-.46143Zm11.44238,7.09571,19.23779,85.63867,8.44678-.61719-18.29395-81.43652q.1084-.61817.61035-.65528l31.30176-2.28711q43.72119-3.19628,54.92188-.55566l.249-.01855-.04541-.2002q-17.67993-5.62061-50.71728-3.209Zm14.2666,109.59375,24.94629,111.0498,6.95605-.50781-23.59814-105.04688c-.08984-.40039.02832-.6123.36182-.63672l39.252-2.86914q31.30151-2.28809,43.21924,3.55372l5.10156,2.47363-.04492-.2002q-18.68775-13.47655-47.75-11.35644Zm11.44189,7.0957,23.19385,103.24609,8.44531-.61718-22.24951-99.04395c-.05957-.2666.07373-.41211.40772-.43652l39.5-2.88672q17.8872-1.30811,27.438-.37891l.24853-.01758-.04492-.20019q-11.35767-4.45752-36.4458-2.624Zm99.25049-104.4668q7.69044,6.14942,8.48438,6.29395l-.26953-1.2002a68.14768,68.14768,0,0,0-7.71827-5.13086Zm2.40235,54.53223q1.82665.27539,2.45849,3.07422l14.06885,62.6289q.67456,3.00147-1.17871,3.7461l-.49609.03613-.79-.14551c-.28711-2.01269-.53077-3.48437-.74073-4.41992l-13.21484-58.82617Q2046.05786,575.56837,2047.29932,575.47754Z" transform="translate(0 5.4004)"/><path class="cls-1" d="M2151.09326,460.30615l78.00684-5.70117q1.42089.71118,41.28564,37.65772,175.0437,159.873,178.15967,162.49218l-.44922-2.001q-.22485-.999-31.60644-29.416L2238.5332,460.627l-.56347-1.38232,1.356-.70947q3.99024,3.16845,181.06983,165.33007,24.18164,22.23193,26.62158,24.08692l-.854-3.80176q-189.41968-173.26026-196.02735-179.083a2.27294,2.27294,0,0,1,1.17627-1.51025l.248-.01807q4.5813,3.53173,186.4624,170.22364,4.71461,4.13085,6.99365,6.40429l.24805-.01855-35.24023-156.87061q-5.25879-23.41113-12.27588-28.79638-5.6858-5.075-5.91065-6.0752-.49951.03661-5.68457-5.07568l.45166-.23633,58.87744-4.30322c.33008-.02393.54151.16406.63135.56445q-9.25269,16.13379-8.71631,20.77051-1.34326,6.40429,1.3125,18.20752l52.59082,234.10595c.08985.40039-.03222.61328-.3623.6377l-61.85889,4.52051q-1.66992-.68994-23.03467-20.48536-20.60156-18.62841-30.86425-27.23339-1.05835-1.3418-64.1167-58.36036-67.23414-60.98-73.7959-66.60156l36.49853,162.47364q4.136,18.41161,18.4209,26.92285,5.46094,4.07665,5.64063,4.875.36034,1.604-2.53125,2.21875l-64.59278,4.7207c-.99316.07324-1.63525-.15039-1.91845-.67285-.0293-.13184.27685-.62988.92773-1.49219l1.53565.0918,63.59814-4.64844q-19.18214-13.43994-21.78809-25.0498-.501.03661-2.47461-8.76758l-36.85791-164.07422q-10.44579-9.40429-10.73925-9.58692l38.25146,170.27735q4.136,18.41162,18.37647,26.72265,5.25511,4.29639,5.43652,5.09278.36035,1.604-2.28272,2.20117l-65.33691,4.77539c-.33447.02441-.54248-.16406-.63232-.56348q-.04468-.19775,1.42431-1.52832l64.09522-4.68457q-19.18214-13.44139-21.7876-25.0498-.5017.03661-2.72314-8.749L2219.062,527.94434q-7.67065-7.16748-8.34717-7.93262l-.249.01855,39.77979,177.08008q4.04589,18.00879,17.38281,26.79492l6.13721,4.83985.04492.20019-64.59131,4.72071-.04492-.2002q13.35938-15.82031,10.17187-30.03027.24464-.01758-2.60449-13.84278-28.344-127.27441-44.02637-197.10644-3.41528-15.20361-16.34375-26.668Q2151.27173,461.10962,2151.09326,460.30615Zm304.25244-16.94824.49659-.03662c.33007-.02393.72021.2207,1.17382.72851q.13477.59913-4.59521,9.89454-6.85547,11.07787-2.71924,29.48388L2502.24707,717.334q.62988,2.80372-2.10352,3.001l-62.852,4.59375c-.33447.02442-.542-.16406-.63183-.56348l-.08985-.40039c-.06005-.26562.27637-.63086,1.01709-1.09179l62.10694-4.53907L2447.5083,486.0293q-4.89917-21.80713,2.72461-33.959Q2453.87671,444.68677,2455.3457,443.35791Zm12.68653,4.76709c.9165.33984,1.42187.71,1.51172,1.10938q.13476.60059-4.59522,9.89453-6.85547,11.07861-2.71924,29.48535l52.54541,233.90625q.62988,2.80371-2.10351,3l-63.34961,4.62988-.04492-.20019.09277-1.83692,62.85254-4.59375-52.18555-232.3042q-5.03394-22.4077,3.17578-34.1958Q2466.92139,448.81567,2468.03223,448.125Z" transform="translate(0 5.4004)"/><path class="cls-1" d="M2719.25732,418.78223l99.12354-7.24414.13477.60058q-12.10035,16.95264-7.87549,35.75879.28857,2.41918,1.5498,8.02246,31.03491,139.28028,46.27393,207.11133l.02148,1.21875,7.2041-.52637q-17.16943-76.43115-47.418-213.33349-3.37206-15.00586,9.43165-34.44922l.49609-.03662c.33008-.02393.7207.2207,1.17383.72851l.08984.40039q.13476.59913-5.25,10.34815-6.33544,10.02465-1.34473,32.23144l.44922,2.001q30.31494,136.08326,45.10547,201.90967l2.23535-.16309q-17.97948-80.03321-46.07031-207.33008-3.37061-15.00585,9.43164-34.4497l.99414-.07276a.81091.81091,0,0,1,.63184.56446l.17969.7998q.13476.60059-4.57129,8.87647-7.10742,11.09619-2.47364,31.70361l.89942,4.00195q15.41748,68.63232,43.71191,195.70606l40.99024-2.99512q38.50488-2.81542,69.9375-19.14453,10.36962-6.65479,20.77832-23.28028c-.11914-.53125-.01758-.8125.3164-.83691l.13574.60059q-4.55565,57.28125-4.82812,58.31543L2776.14014,692.2334l-.04493-.2002q13.47657-16.43994,11.67969-24.44629,1.23926-.09081-4.083-24.91992l-39.10546-174.07812q-7.28321-32.41552-11.77344-35.54395-.31349-1.39746-13.4209-13.66211Zm295.45752,201.30566a2.87292,2.87292,0,0,1,1.94043,1.89258l-5.16894,60.16992a2.71865,2.71865,0,0,1-1.80762.94531L2784.353,699.56348q-.25049.019-.92578-.74512l-.08985-.40039c-.05957-.26563.12989-.54981.56641-.85547l225.32568-16.46777,5.03321-60.77051Zm6.31739,5.63965q1.916.67676,2.1875,1.874l-5.416,60.18946a2.72347,2.72347,0,0,1-1.80762.94433l-225.07763,16.4502c-.334.02441-.72364-.21778-1.17383-.72754l-.17969-.80078c-.05957-.26563.07324-.41211.40625-.43653l225.57471-16.48632,5.03418-60.76954Z" transform="translate(0 5.4004)"/><path class="cls-1" d="M3182.97852,654.77148a206.73024,206.73024,0,0,0,74.55957,8.17579l2.23535-.16309a16.35007,16.35007,0,0,1,2.52929.01855,15.14478,15.14478,0,0,1,2.43946-.38183l2.23535-.16309q49.43408-3.61377,79.90723-29.83789,12.25488-12.89355,15.55957-20.66211a62.43584,62.43584,0,0,0,7.70214-21.916q2.77149-16.87794-3.835-46.29395l-28.3623-126.25635q-4.62891-20.60742,3.64844-33.21386,1.74462-4.59888,3.05566-5.51075,1.58057.29371,1.75977,1.09131-10.229,17.42578-6.8545,32.43164l28.18262,125.45606q10.11328,45.02051,2.417,62.46289-10.8999,33.54345-46.30371,50.16113a173.37748,173.37748,0,0,1-58.36914,14.4336l-4.7207.3457a222.20127,222.20127,0,0,1-59.0957-3.41016l-.24805.01856.04492.20019a214.72968,214.72968,0,0,0,68.30664,6.19336l2.48438-.18164a11.98447,11.98447,0,0,1,2.28027.03711,15.12653,15.12653,0,0,1,2.43945-.38184l2.23535-.16308q49.43556-3.61377,79.90723-29.83789,12.25488-12.89355,15.60449-20.46192a65.13471,65.13471,0,0,0,7.65723-22.11621q2.81542-16.68164-3.79-46.09375l-28.40723-126.45654q-4.71972-21.01026,4.25977-33.86914-.13476-.59911,1.87891-4.00147l-.58692-.36328-.08984-.40039a2.41835,2.41835,0,0,0,1.15234-.49072l.99317-.07275c.33007-.02442.73535.28662,1.21875.92822q-.79687,2.09253-5.59082,12.20361-4.14552,9.66064-1.042,23.46485l27.59864,122.85546q10.11474,45.02052,2.666,62.44434-11.10645,33.76026-46.50879,50.37891a175.37243,175.37243,0,0,1-58.41406,14.23437l-4.71973.34571q-54.65625,3.99462-99.91015-16.49317-11.42286-3.63575-31.37305-16.01172-8.10058-5.70849-20.50781-18.22754-13.48975-15.07763-21.26465-49.69726L3071.71582,443.8667q-6.96679-31.01221-11.32324-33.543-.40429-1.80029-9.61035-9.05957-.40429-1.8003-5.86524-5.87549l-.08984-.40039L3142.46,387.853l.08984.40039q-7.7622,13.78857-7.56445,20.27978-1.67724,3.78369,3.8086,28.19385l24.00293,106.84815q10.69775,47.62353,15.91015,51.71484,3.98877,7.64063,19.01758,18.33789L3224.5,624.5l-23.05176-8.90625q-17.98829-11.499-24.59375-40.91211L3144.22168,429.416q-4.49414-20.00684,6.42969-35.45069-.22413-.999,1.3789-1.728a1.63158,1.63158,0,0,1,1.12891.52833l.13477.60058q.09081.40284-5.16114,10.74854-5.06982,8.91284-.21386,30.522l25.57617,113.85156q10.38281,46.22022,15.57226,51.332a55.4539,55.4539,0,0,0,10.39844,11.44336c3.95313,3.37207,11.67578,6.374,17.03418,9.23633-7.98828-6.33008-16.56738-12.3877-19.59863-18.4043q-4.8955-9.40429-8.93653-27.41211L3156.456,434.41992q-4.2246-18.80566,4.89161-33.30469,1.71679-3.5808,3.708-3.728l.38282.58252.08984.39941q.09083.40429-5.11523,10.94971-5.11524,8.71436-.25879,30.32178l25.57617,113.85156q10.20409,45.42333,15.14355,50.55078,3.69433,7.46045,19.64844,18.90137,2.82129,2.439,16.12012,4.3125a124.81889,124.81889,0,0,0,22.85254.56738l4.47168-.32715a106.1253,106.1253,0,0,0,51.30468-17.78223q14.03468-10.58349,17.03614-28.70019,3.8496-12.07471-5.67774-54.49707L3304.29,427.07275q-7.23633-32.21337-12.33789-34.689-.69873-1.97974-7.89453-8.16846-.26953-1.1997-6.11328-5.85742l-.08985-.40039,57.38672-4.19385c.33008-.02441.52637.09766.58594.36426a44.21252,44.21252,0,0,0-6.42871,35.44971L3357.042,532.63281q9.16992,40.81934,3.82227,57.48047-10.22461,36.54346-48.43067,54.17969a175.20274,175.20274,0,0,1-55.61328,13.21582l-4.96875.36328C3220.21582,660.18359,3184.377,656.73926,3157.5,646.5m-21-13" transform="translate(0 5.4004)"/><path class="cls-1" d="M3437.96973,366.25586l86.70215-6.33691q1.23926-.09009,8.07324,11.20605,29.44629,43.407,99.22461,148.33008,3.271,4.44141,14.2959,20.91992l.248-.01855q.99756-4.54395.81934-5.34668L3534.35352,365.92236c.12011-.95556.34472-1.44824.67871-1.47265l.49707-.03662q.99022-.07179,26.335,38.54736,45.54345,67.856,85.90137,128.35693l.49707-.03711.956-6.98437L3546.11426,369.94434a3.00808,3.00808,0,0,1,2.05664-.96387q98.61621,146.75023,101.57031,152.02344l.49707-.03711q30.3208-162.87891,32.18652-172.57715L3775.834,341.563c.33008-.02393.542.16406.63184.56445q-11.08448,13.62231-11.13477,22.3711a85.71759,85.71759,0,0,0,1.63477,12.89648q53.12109,200.51,56.65723,210.62353,3.96387,10.89845,15.98925,20.59375,6.34131,4.62012,6.52051,5.4209l-103.34668,7.55274-.04492-.2002q11.68945-14.27783,11.11133-21.35351a61.92259,61.92259,0,0,0-1.54492-12.4961l-30.93946-124.23779-.99121-2.165-.248.01807q-14.88282,83.2544-32.80176,177.708a2.72349,2.72349,0,0,1-1.80762.94433l-30.80566,2.25195c-.334.02442-.542-.16406-.63184-.56445-.0459-.94336.18262-1.43652.67969-1.47363l29.81152-2.17871q.74415-.05421,10.24317-54.43848.40575-.43652,24.03222-129.06982-3.91552-15.16847-5.93554-24.17432l-.08985-.40039-.249.01807L3678.2041,617.35742q-2.8418,15.46143-3.7666,16.95117l-1.69434.32715-31.55078,2.30664c-.334.02442-.542-.16406-.63183-.56347l-.08985-.40039a1.5354,1.5354,0,0,0,.27246-1.03711l31.30176-2.28809q.74561-.05419,10.81153-57.53223,11.31-59.80224,28.23437-151.95068-4.05028-15.76758-5.375-20.55518l-.248.01856-38.415,210.04687q-2.7495,13.62452-3.2666,14.67969l-30.55761,2.2334q-.54347-.1626-11.9502-17.22852l-98.93457-145.91015-.249.01806.08984.4004q26.84179,131.86009,30.62012,148.6665,3.64014,16.207,15.66894,23.666l7.80762,5.53125.40527,1.80079a2.28974,2.28974,0,0,1-2.21484,1.38183l-67.07617,4.90235c-.99414.07226-1.63574-.15039-1.91895-.67286l-.04492-.20019c-.03027-.13184.292-.5625.97266-1.292l1.53613.09082,66.082-4.8291q-15.82325-10.84131-19.29-17.30079a61.07841,61.07841,0,0,1-5.26855-14.46093q-3.416-15.20363-31.291-153.90577-12.28857-17.606-12.46875-18.40966l-.24805.01806.17969.80078q31.28907,153.90455,34.39258,167.71143,3.59619,16.01074,15.918,23.64844l7.80664,5.53125.40527,1.80078a2.28694,2.28694,0,0,1-2.21386,1.38184l-67.07618,4.90136q-1.74169.12744-2.168-.65429l-.08985-.4004c-.05957-.26562.27735-.63085,1.01758-1.09082l1.78418.07227,66.082-4.8291q-16.06786-10.82373-19.29-17.30078a61.08553,61.08553,0,0,1-5.26855-14.46192q-2.24708-10.00341-35.40332-173.33154-8.88282-12.56909-10.123-14.7168l-.249.01807.18066.80078q35.1753,172.333,37.69531,183.53613,3.59619,16.01075,14.834,23.32032,2.18407,1.87645,9.07129,6.66015l.04492.2002-67.07617,4.90234-.04493-.20019q14.47121-16.51318,10.74024-33.12207-34.52784-191.90185-37.98535-207.31153l-.49512-2.20019q-3.68407-16.40479-15.75684-26.30469-.09081-.39844-4.84961-4.72949Zm348.56347-19.78027.24805-.01807c.33008-.02393.52734.09766.58691.36426q.22558,1.00341-6.85449,11.07568-6.10986,8.7876-2.55566,24.5918,53.12109,200.50927,56.65722,210.624a42.33929,42.33929,0,0,0,9.19922,13.9707q5.09474,4.71387,13.62793,11.207l.26953,1.20019a3.09052,3.09052,0,0,1-2.62109,1.81836l-103.34766,7.55273c-.333.02442-.541-.16406-.63086-.56347.4502-.98047.8418-1.48535,1.17579-1.50977l102.84961-7.5166q-18.39258-13.29784-22.2627-23.79492-1.49121.10986-38.30762-140.17334-15.59179-57.02271-18.959-72.03272l-.89942-4.002q-3.59619-16.00635,8.84082-30.33838Q3784.79053,346.60425,3786.5332,346.47559Zm11.53418,5.25879c1.32325-.09668,2.0625.18847,2.21192.85449l-8.165,11.98584q-4.91016,8.49536-1.584,23.30078,53.07715,200.31225,56.61328,210.42334a40.59976,40.59976,0,0,0,9.19922,13.9707q5.09473,4.71387,13.627,11.207l.26953,1.2002a3.08874,3.08874,0,0,1-2.6211,1.81836l-104.09179,7.60742-.22461-1c-.06055-.2666.27637-.62988,1.01758-1.0918L3867.665,624.458q-18.39111-13.29931-22.21777-23.59375-1.49121.10839-38.10352-140.39209-15.83643-57.00513-19.208-72.01465l-.89844-4.00195Q3783.46095,367.648,3798.06738,351.73438Z" transform="translate(0 5.4004)"/><path class="cls-1" d="M3882.44824,333.36426l97.13574-7.09912q.13478.60059-4.34668,9.87646-6.36035,11.042-1.23339,33.8501l41.4873,184.6831q6.38379,28.415,11.39258,32.72559.17871.80127,12.40625,12.5166l-98.875,7.22559-.04492-.2002q11.581-15.895,8.07324-31.50293-1.93067-10.84131-2.51367-13.44336-28.43409-127.67358-44.16211-197.707-3.7749-16.80762-20.01953-30.66992Zm105.64356-1.82276,1.9873-.1455c.33008-.02393.52735.09863.58692.36425q.13476.60059-4.98047,11.54932-5.68067,9.56763-.55469,32.37744l41.35352,184.08252q6.42773,28.61572,10.873,31.543,2.6792,4.0752,12.7002,12.69727l.40429,1.80078a2.61852,2.61852,0,0,1-2.21484,1.38183l-99.61914,7.28125c-.334.02442-.82031-.27636-1.46777-.90918l-.04493-.20019c-.05957-.26563.21-.55567.81446-.874l99.86816-7.29882q-15.99609-13.8794-17.70312-21.4834-1.28615-2.34669-3.17383-10.751l-45.57813-202.89111q-4.26855-19.00782,4.915-34.32276Q3988.17969,331.94117,3988.0918,331.5415Zm13.34179,4.3125.99317-.07275q.791.14795.88086.5459l.17968.7998q.09083.40429-5.27441,11.36866-5.68066,9.56616-.50879,32.57763l41.35254,184.083q6.38379,28.41357,10.8291,31.3418,2.97363,4.25829,12.7002,12.69824l.40429,1.80078a2.28875,2.28875,0,0,1-2.21484,1.38184l-99.37207,7.26269c-.333.02344-.72266-.21777-1.17285-.72754l-.08984-.40039.76855-1.07324,1.53516.09082,97.88086-7.15332q-15.75-13.897-17.45508-21.50293-1.53516-2.32764-3.4209-10.73145l-45.5332-202.6914q-4.40479-19.60841,5.48046-35.17822l1.51661-3.36475c-.334.02441-.51172-.02979-.542-.16357Z" transform="translate(0 5.4004)"/><path class="cls-1" d="M4077.43359,319.521l214.89161-15.70557c.33007-.02393.542.16406.63183.56445l10.833,48.22168q.04541.20068,8.124,4.69385L4301.127,309.27393q-.40429-1.80177.544-2.07373a3.19983,3.19983,0,0,1,2.36816,2.67382l11.23731,50.02246,10.24414,7.38672-11.77637-52.42382a1.46289,1.46289,0,0,1,.83789-1.89161l.24805-.01806q1.28613.11133,1.7373,2.11035l11.59668,51.623c.41992,1.87011-.20215,2.8623-1.85547,2.98291l-1.24218.09082a62.95969,62.95969,0,0,1-9.11621-6.8584,3.07041,3.07041,0,0,1-2.21485,1.38183l-1.24219.09082q-.25048.01832-15.9082-11.24316a46.68562,46.68562,0,0,0-20.06836-7.27881q-12.6416-2.32617-45.68457.085l-38.50683,2.81446,17.88964,79.63574.249-.01807q45.46289-3.323,54.72754-9.2876,6.50244-2.50562,15.09765-11.47509l4.749-5.83789.33789.38134,14.51855,64.62989q8.05665,5.5122,8.14649,5.9121l.248-.01806-14.65332-65.22949c-.0459-.94385.18262-1.437.67871-1.47315l.99414-.07275q.791.14794,1.19532,1.94629l14.1582,63.02832c.45019,2.001.13672,3.24414-.92969,3.729l-1.9873.145q-17.53711-11.7312-20.01856-11.55273-10.56738-2.07276-29.19824-.71289l-40.74316,2.97753,21.8457,97.24317,28.81738-2.10645q45.958-3.35887,77.66406-22.96191a73.60433,73.60433,0,0,0,16.09961-18.25977l.63379-1.6748.74512-.05371q-.64893,55.56885-.9668,58.64355l-226.8164,16.57617q-.7456.05421-.87989-.54589,16.54688-16.25684,12.18848-35.668.18018-1.43409-1.751-10.041l-40.27441-179.28076q-6.65186-29.61182-12.27148-33.27-.17871-.79835-9.18262-8.27832-.40429-1.80029-6.06836-5.65674Zm295.88575,202.08838q.74561-.05421,1.01562,1.1455-.3999,55.55127-.69726,59.84375a3.697,3.697,0,0,1-2.05665.96387l-227.3125,16.6123q-2.23534.16407-2.5957-1.43652a4.81886,4.81886,0,0,1,1.89746-.5459l227.56153-16.63086q.4702-58.60694.94531-59.86132Zm11.82714,5.44042.7461-.05468c.3291-.02344.71972.2207,1.17285.72754q-.5581,55.97167-.90039,60.0625a3.00835,3.00835,0,0,1-2.05566.96289L4156.2998,605.39746c-.334.02442-.72363-.2168-1.17382-.72754l-.08985-.40039c-.05957-.26562.21-.55566.81446-.87305l227.80859-16.64941q.34863-53.51074,1.03613-59.46094ZM4168.10742,336.48535l20.99121,93.44238,6.95606-.50878-19.64356-87.43946q-.13476-.60059.61133-.65381l31.05371-2.26953q47.94288-3.50391,59.1211.15283,8.05811,1.04151,22.93554,7.67872l-.04492-.2002q-17.46679-10.31543-31.39844-12.75488-14.06835-3.03808-49.34277-.46143Zm11.44238,7.09522,19.23829,85.63867,8.44629-.61719-18.29493-81.43652q.10988-.61816.61035-.65528l31.30274-2.28759q43.72119-3.19484,54.92187-.55567l.24805-.01806-.04492-.2002q-17.67919-5.62061-50.7168-3.209Zm14.26563,109.59423,24.94727,111.04981,6.956-.50879-23.59863-105.04639c-.08985-.40039.02832-.61279.3623-.6372l39.252-2.86866q31.30224-2.28735,43.21972,3.55323l5.10059,2.47412-.04492-.2002q-18.687-13.47729-47.75-11.35644Zm11.44238,7.09571,23.19336,103.24609,8.44629-.61816-22.25-99.04346c-.05957-.2666.07422-.41211.4082-.43652l39.5-2.88672q17.88574-1.30737,27.43848-.37842l.24805-.01855-.04492-.2002q-11.3584-4.45679-36.44629-2.62353Zm99.251-104.46778q7.69042,6.15015,8.48437,6.29444l-.26953-1.2002a68.18337,68.18337,0,0,0-7.71777-5.13037Zm2.40234,54.53223q1.8252.27612,2.458,3.07422l14.06934,62.62891q.67383,3.00145-1.17871,3.74707l-.4961.03613-.79-.146c-.28711-2.01269-.53125-3.48486-.74121-4.42041l-13.21484-58.82617Q4305.66845,410.42579,4306.91113,410.335Z" transform="translate(0 5.4004)"/><path class="cls-1" d="M4552.19629,285.43359q39.498-2.88646,69.02344,9.39454.75-.05421,21.626,8.58886,33.72218,15.22779,40.959,47.44336,6.42772,28.61573-16.38281,51.8374-14.76562,14.09693-49.73047,24.78565l.04492.20019q35.00976,34.45826,87.043,74.98829,24.68115,19.96142,50.65625,37.7871l1.78418.07227.04492.2002-.31641.83789q.26953,1.1997,9.90918,2.52929a4.0246,4.0246,0,0,1,1.69238,1.91016l-.4746,1.25391,11.3125,2.02148a4.355,4.355,0,0,1,1.39746,1.72852q.62988,2.80371-16.02051,8.49218a63.93348,63.93348,0,0,1-14.34375,2.47168l-9.43945.68946q-34.5337,2.52391-61.30079-10.97657-9.12157-2.38329-29.70214-15.31836a627.54029,627.54029,0,0,1-59.1836-46.51953q-7.06786-5.58471-40.36328-34.67431l15.55176,69.23095q6.06885,27.01173,10.89844,30.52442,3.4248,4.01952,16.24511,13.8623l.31446,1.40039q-.43361,1.45607-3.91114,1.709l-98.1289,7.17187q-3.7251.27246-3.90625-.52734l-.08985-.40039c-.05957-.26563.27735-.63086,1.01856-1.0918l102.35254-7.48047q-18.97705-13.66113-20.68653-21.2666-.83349-.34278-3.80273-11.31445l-19.05859-84.83741q-10.20118-9.42259-10.69336-9.38769l17.17089,76.43408q6.0674,27.01318,10.94043,30.72461,3.17872,4.03711,16.2002,13.66211l.35937,1.60059q-.43065,1.456-4.1582,1.72754l-97.87988,7.15332q-3.72657.27246-4.24512-.90918c-.05957-.26563.27735-.63086,1.01758-1.0918l102.60254-7.499q-18.98-13.66115-20.73145-21.46582-.83349-.34425-3.75976-11.11426l-20.72168-92.2417q-.26953-1.20117-8.9336-8.29541l18.60938,82.83691q6.293,28.01661,11.2793,31.10547,3.06591,4.6582,15.998,13.88086l.08985.40039-101.85742,7.44336-.08985-.40039q14.04053-17.294,10.49219-33.10254-1.05909-5.81982-2.80859-13.624L4437.67871,348.918q-7.10156-31.61426-11.706-34.12549-.86133-1.563-8.88965-8.09521-.35889-1.59962-5.77539-5.47608l-.08985-.40039q22.53955-.83276,36.20215-1.83252,24.3457-1.77978,84.58594-11.26611Q4541.80127,286.39575,4552.19629,285.43359Zm-54.09473,28.96778,22.96875,102.24707,6.95606-.5083-21.665-96.44434q-.18018-.79687,21.61523-3.81689l7.45313-.54493q21.85839-1.59741,39.44726,5.8628l-.04492-.2002q-18.7998-12.85986-49.85254-10.59326Q4511.65527,311.7876,4498.10156,314.40137Zm11.05957,6.51416,21.35059,95.043,8.35644-1.01758-20.27148-90.24121q-.13476-.60058,21.61328-3.8169l7.45313-.54492a88.00331,88.00331,0,0,1,20.61914.73047l.49609-.03613-.04492-.2002q-15.71339-4.74756-34.84082-3.35156Q4527.42968,317.95214,4509.16113,320.91553Zm12.27832,5.20312,19.82227,88.24024q11.42431-.835,30.45117-8.32715,31.19972-15.09156,22.61719-53.31055-3.64014-16.207-12.416-24.9209-3.54492-3.40209-13.97363-4.87646a142.04388,142.04388,0,0,0-21.81445-.43945Q4539.66308,322.95606,4521.43945,326.11865Zm115.82813-21.68457a61.24815,61.24815,0,0,1,23.55957,36.30957q6.87744,30.61377-19.95313,53.92969-13.67432,9.95068-26.32519,14.32959L4593.29,416.6582q37.2876,36.7317,94.28418,81.37354,25.72266,20.08521,49.01172,36.07568l1.37695.50977-.04492-.2002q-25.77393-18.04394-66.38379-50.46582-33.59766-27.03077-70.27734-62.18066,33.63428-11.00025,46.3164-20.876,28.31837-23.42284,21.35449-54.438l-.49414-2.20117q-5.57373-24.80859-30.66992-39.85742Zm9.88574,3.54834q19.29492,15.06372,24.418,37.874,6.38379,28.415-16.38477,51.83789-14.76562,14.09619-49.73144,24.78564l.04492.2002q34.92334,34.05468,85.19434,73.49658,31.11327,24.98143,57.585,42.77051l.542.16406.49609-.03613q-51.65039-37.71242-92.84863-72.7334-24.25928-21.41236-42.97949-39.56739,33.63867-11.00023,46.3623-20.67578,28.31837-23.42432,21.35645-54.438l-.49414-2.20117Q4674.73584,322.85058,4647.15332,307.98242Zm7.77148,229.043.04493.2002,4.64746,2.71093-.04492-.20019A19.48509,19.48509,0,0,0,4654.9248,537.02539Zm16.63379,7.7334q19.72413,13.60986,60.96094,10.59375,21.61377-1.57911,30.292-7.9082a45.49464,45.49464,0,0,0-9.52441-4.18457q-9.85546,5.60156-24.0127,6.63574l-9.44043.68945Q4693.74805,552.4922,4671.55859,544.75879Zm66.62989,12.21387-9.44141.68945a132.28372,132.28372,0,0,1-31.11719-1.38672l-.25.01856.08985.40039q19.708,5.68066,47.28515,3.66211,21.85987-1.59814,33.29688-9.14454l-.04492-.20019a105.28159,105.28159,0,0,1-12.14649-2.36621A62.9527,62.9527,0,0,1,4738.18848,556.97266Zm26.25293-11.27442.04492.2002a1.77956,1.77956,0,0,1,.834.3457l.4961-.03613-.08985-.40039a2.81405,2.81405,0,0,1-1.03808-.127Z" transform="translate(0 5.4004)"/><path class="cls-1" d="M4789.68652,267.46631l214.89161-15.70508c.33007-.02441.542.16357.63183.564l10.833,48.22168q.0454.20067,8.125,4.69384l-10.78809-48.02148q-.4043-1.80175.54395-2.07373a3.19855,3.19855,0,0,1,2.36816,2.67383l11.23731,50.02246,10.24414,7.38672-11.77637-52.42383a1.46287,1.46287,0,0,1,.83789-1.8916l.24805-.01807q1.28613.11133,1.7373,2.11035l11.59668,51.623q.62988,2.80518-1.85547,2.9834l-1.24121.09082a62.84771,62.84771,0,0,1-9.11621-6.85889,3.07219,3.07219,0,0,1-2.21484,1.38184l-1.24219.09082q-.25049.0183-15.90918-11.24268a46.68233,46.68233,0,0,0-20.06738-7.2793q-12.64161-2.32617-45.68555.085l-38.50586,2.81446,17.88965,79.63574.24805-.01807q45.46288-3.323,54.72754-9.28759,6.50389-2.50561,15.09765-11.4751l4.75-5.83789.33789.38135,14.51856,64.62988q8.05516,5.51294,8.14648,5.91211l.24805-.01807-14.65332-65.22949c-.04688-.94385.18164-1.437.67773-1.47315l.99414-.07275q.78955.14795,1.19532,1.94678l14.1582,63.02832q.67529,3.00145-.92969,3.72851l-1.9873.145q-17.53859-11.7312-20.01758-11.55273-10.56885-2.07276-29.19922-.71289l-40.74219,2.97754,21.84473,97.24316,28.81738-2.10644q45.95655-3.35889,77.665-22.96143a73.61171,73.61171,0,0,0,16.09863-18.26025l.63379-1.67432.74512-.0542q-.65038,55.56885-.9668,58.64356l-226.8164,16.57617q-.74561.05566-.87989-.5459,16.54688-16.25684,12.18946-35.668.17871-1.43408-1.752-10.04l-40.27441-179.28125q-6.65186-29.61182-12.27246-33.27051-.17871-.79833-9.18164-8.27832-.4043-1.80029-6.06836-5.65674Zm295.88672,202.08838q.74415-.05421,1.01465,1.146-.39843,55.55055-.69726,59.84327a3.69452,3.69452,0,0,1-2.05567.96386l-227.3125,16.61231q-2.23535.16405-2.59668-1.43653a4.81868,4.81868,0,0,1,1.89746-.54589l227.56153-16.63086q.47021-58.6062.94531-59.86133Zm11.82715,5.44043.74512-.0542c.33008-.02393.7207.22021,1.17383.72705q-.55958,55.97314-.90137,60.0625a3.01031,3.01031,0,0,1-2.05567.96289l-227.80957,16.64941c-.335.02442-.72363-.21679-1.17382-.72754l-.08985-.40039q-.08936-.39843.81446-.873l227.80957-16.64942q.34716-53.51074,1.03515-59.46045Zm-217.04-190.56446,20.99121,93.44239,6.957-.50879L4888.665,289.9248q-.13476-.60059.60937-.6538l31.05469-2.26954q47.94288-3.50389,59.12207.15284,8.05665,1.0415,22.93457,7.67871l-.04492-.2002q-17.4668-10.31543-31.39746-12.75488-14.06982-3.03809-49.34277-.46143Zm11.44238,7.09522,19.23829,85.63867,8.44628-.61719-18.29492-81.43652q.11133-.61816.61133-.65479l31.30078-2.28808q43.72266-3.19482,54.92383-.55567l.248-.01806-.04492-.2002q-17.68067-5.62061-50.71778-3.20849Zm14.26661,109.59424,24.94629,111.0498,6.956-.50879L4914.374,406.61475c-.08984-.40039.02735-.6128.36231-.63721l39.251-2.86865q31.30226-2.28736,43.21875,3.55322l5.10157,2.47412-.04492-.20019q-18.687-13.47731-47.749-11.35645Zm11.4414,7.0957,23.19336,103.24609,8.44629-.61718-22.249-99.044c-.06055-.2666.07422-.4126.40625-.437l39.5-2.88672q17.88867-1.30737,27.43945-.37842l.248-.01806-.04492-.2002q-11.35693-4.45752-36.44532-2.624Zm99.252-104.46777q7.6875,6.15014,8.48437,6.29443l-.27051-1.20019a68.18331,68.18331,0,0,0-7.71777-5.13038Zm2.40136,54.53222q1.82667.27614,2.459,3.07422l14.06836,62.62891q.67528,3.00147-1.17774,3.74707l-.49707.03613-.79-.14551q-.4292-3.01977-.74023-4.42089L5019.27148,364.374Q5017.92237,358.3711,5019.16406,358.28027Z" transform="translate(0 5.4004)"/></g><g id="icones"><g id="popcorn"><path class="cls-2" d="M5573.18,762.95687a15.85,15.85,0,0,0-7.92423-11.12731,14.51186,14.51186,0,0,0-12.8697-1.15811c0-.33388.09912-.6521.09912-.99118a15.514,15.514,0,0,0-20.96609-14.659c0-.33387.09913-.65209.09913-.99118a15.65009,15.65009,0,0,0-15.65023-15.65022,15.65008,15.65008,0,0,0-15.65022-15.65022c-.33908,0-.65731.07825-.99117.09911a14.362,14.362,0,0,0-.25041-11.08036,16.12493,16.12493,0,0,0-13.04185-9.82834,22.82243,22.82243,0,0,1-32.78657-4.399c-6.219,2.2458-10.28367.86743-10.24781,7.479.01435-8.62914-7.03525-8.33977-15.66375-8.35476a15.62539,15.62539,0,0,0-13.25117,7.30409,15.19341,15.19341,0,0,0-11.29946-1.64328,15.85425,15.85425,0,0,0-11.75854,12.348,15.51961,15.51961,0,0,0,3.91256,13.38094,15.57093,15.57093,0,0,0-12.12893,7.19389,15.21717,15.21717,0,0,0-12.73928-1.22594,15.72839,15.72839,0,0,0-9.66662,9.54143,15.41207,15.41207,0,0,0,.20867,11.096,15.60806,15.60806,0,0,0-11.58117,15.04508c0,.33908.07826.65731.09912.99118a14.50893,14.50893,0,0,0-12.8384,1.14246,15.86356,15.86356,0,0,0-7.95032,11.143,15.58344,15.58344,0,0,0,7.366,15.7024l2.89007,2.32666h18.2586v20.42354h182.58595v-20.434h23.47534l-.73034-.73034A15.58751,15.58751,0,0,0,5573.18,762.95687Z" transform="translate(0 5.4004)"/><path class="cls-3" d="M5372.50765,978.7839l-45.297-178.90293a24.29882,24.29882,0,0,1,23.67879-29.76672h.22954a24.29918,24.29918,0,0,1,24.10656,21.21127l28.58252,187.45838Z" transform="translate(0 5.4004)"/><path class="cls-4" d="M5403.80809,978.7839l-27.78958-181.27656a24.2987,24.2987,0,0,1,24.10657-27.3931h.866a24.29937,24.29937,0,0,1,24.29436,23.67879l9.82312,184.99085h-31.30045Z" transform="translate(0 5.4004)"/><path class="cls-3" d="M5425.31672,795.03983l9.79183,183.74407H5466.409l9.12408-183.10762a24.3,24.3,0,0,0-23.00452-25.52943q-.62406-.03228-1.24811-.0326h-1.6537a24.299,24.299,0,0,0-24.31784,24.28133q0,.32178.00782.64425Z" transform="translate(0 5.4004)"/><path class="cls-4" d="M5475.65827,793.17224,5466.409,978.78392h31.30045l26.99142-180.67141a24.29893,24.29893,0,0,0-24.01788-27.99825h-.75643A24.29947,24.29947,0,0,0,5475.65827,793.17224Z" transform="translate(0 5.4004)"/><path class="cls-3" d="M5549.87685,770.11424a24.29925,24.29925,0,0,1,23.53795,30.33535l-44.40491,178.33433h-31.30045l28.12866-188.06353A24.29923,24.29923,0,0,1,5549.87685,770.11424Z" transform="translate(0 5.4004)"/><path class="cls-2" d="M5382.94113,848.36536H5518.5764v62.6009H5382.94113Z" transform="translate(0 5.4004)"/><path class="cls-2" d="M5346.42394,691.86312a15.5981,15.5981,0,0,0-29.35461-7.41364,15.4444,15.4444,0,0,0-1.94584-.193,15.6577,15.6577,0,1,0,2.17016,31.08135,15.58754,15.58754,0,0,0,27.13292-15.35222q-.08509-.14966-.1728-.29736A15.49333,15.49333,0,0,0,5346.42394,691.86312Z" transform="translate(0 5.4004)"/><path class="cls-2" d="M5602.04427,702.2966a15.59809,15.59809,0,0,0-29.3546-7.413,15.44659,15.44659,0,0,0-1.94585-.193,15.6577,15.6577,0,1,0,2.17016,31.08135,15.58754,15.58754,0,1,0,27.13291-15.35222q-.08509-.14966-.17281-.298A15.49305,15.49305,0,0,0,5602.04427,702.2966Z" transform="translate(0 5.4004)"/><path d="M5351.64068,707.51334a20.5271,20.5271,0,0,0-1.565-7.82511,20.52707,20.52707,0,0,0,1.565-7.82511,20.80947,20.80947,0,0,0-37.25275-12.8071,20.86772,20.86772,0,1,0,.35474,41.73393,20.80969,20.80969,0,0,0,36.898-13.27661Zm-29.83976,5.21675-2.13365-2.97876-3.47435.49037a7.43512,7.43512,0,0,1-1.06943.09912,10.43348,10.43348,0,0,1,0-20.867,11.05637,11.05637,0,0,1,1.29376.15129l3.53695.44864,1.70066-3.13005a10.38657,10.38657,0,0,1,19.55234,4.91939,10.22805,10.22805,0,0,1-1.46069,5.21674l-1.5285,2.60837,1.5285,2.60837a10.22811,10.22811,0,0,1,1.46069,5.21675,10.43311,10.43311,0,0,1-10.43348,10.43348A10.31941,10.31941,0,0,1,5321.80092,712.73009Z" transform="translate(0 5.4004)"/><path d="M5607.261,702.2966a20.80947,20.80947,0,0,0-37.25275-12.8071,20.86772,20.86772,0,0,0,.35475,41.73393,20.80969,20.80969,0,0,0,36.898-13.27661,20.5271,20.5271,0,0,0-1.565-7.82511A20.52952,20.52952,0,0,0,5607.261,702.2966Zm-11.89417,10.43349a10.228,10.228,0,0,1,1.46069,5.21674,10.43311,10.43311,0,0,1-10.43349,10.43348,10.31862,10.31862,0,0,1-8.9728-5.21674l-2.13365-2.97876-3.47435.49037a7.51854,7.51854,0,0,1-1.07466.11477,10.43348,10.43348,0,0,1,0-20.867,11.0561,11.0561,0,0,1,1.29376.15128l3.537.44864,1.70066-3.13a10.38656,10.38656,0,0,1,19.55757,4.90373,10.22818,10.22818,0,0,1-1.46069,5.21675l-1.5285,2.60837Z" transform="translate(0 5.4004)"/><path class="cls-5" d="M5441.23783,676.80605c-7.72743-6.99769-11.23783-8.80605-27.66856-.198-.36452.32018,17.77243-.95236,17.43073-.60806-3.54869-1.12812-25.831.3544-29.44554,1.25038a21.13275,21.13275,0,0,0-15.65022,16.49012,20.76354,20.76354,0,0,0,1.04335,11.15339,20.89987,20.89987,0,0,0-5.67581,4.01689,20.198,20.198,0,0,0-12.87492.193,20.9242,20.9242,0,0,0-12.90622,12.74971,20.68892,20.68892,0,0,0-1.04334,9.72923,20.95544,20.95544,0,0,0-9.95355,12.90621,19.47216,19.47216,0,0,0-10.78822,2.81183A21.10812,21.10812,0,0,0,5323.1938,762.205a20.72492,20.72492,0,0,0,3.65171,15.19115,29.37546,29.37546,0,0,0-4.69506,23.77791L5368.449,984h164.64036L5578.475,801.7427a29.266,29.266,0,0,0-4.17339-23.83008,20.57319,20.57319,0,0,0,4.03775-15.71739h0a21.06137,21.06137,0,0,0-10.48043-14.88858,20.4414,20.4414,0,0,0-10.81431-2.8327,21.0809,21.0809,0,0,0-20.867-15.65022,20.94517,20.94517,0,0,0-15.525-15.12855,20.95131,20.95131,0,0,0-15.12856-15.525,19.3623,19.3623,0,0,0-1.66414-8.50329,21.44588,21.44588,0,0,0-17.403-12.93231,20.72436,20.72436,0,0,0-11.70637,2.45709C5467.55863,670.2495,5449.94215,669.80807,5441,677m-102.109,79.33161a9.30219,9.30219,0,0,1,8.46155-.76165,5.21737,5.21737,0,0,0,6.98521-5.21674c0-.13042-.073-.52167-.08868-.66774a10.433,10.433,0,0,1,7.726-10.01615,5.21628,5.21628,0,0,0,3.50439-6.90377,10.46085,10.46085,0,0,1-.82685-3.388,10.58944,10.58944,0,0,1,7.07255-10.41352,10.017,10.017,0,0,1,8.48242.82425,5.21716,5.21716,0,0,0,6.97479-1.74239,10.2989,10.2989,0,0,1,8.08594-4.78375,5.21646,5.21646,0,0,0,3.48478-8.73283,10.30357,10.30357,0,0,1-2.60837-8.94671,10.56384,10.56384,0,0,1,7.88249-8.20593,9.91239,9.91239,0,0,1,7.49125,1.11116,5.21713,5.21713,0,0,0,6.97478-1.74239,10.43342,10.43342,0,0,1,19.22369,5.55061c0,2.88095,2.40216,5.7039,5.2831,5.7039s5.15038-2.82295,5.15038-5.7039a10.40214,10.40214,0,0,1,20.17837-3.563,5.217,5.217,0,0,0,3.876,3.31263,5.15887,5.15887,0,0,0,4.84636-1.565,10.43467,10.43467,0,0,1,8.52415-3.33872,10.91377,10.91377,0,0,1,8.71718,6.71917,9.07761,9.07761,0,0,1,.13043,7.20953,5.21638,5.21638,0,0,0,4.90374,7.00087c.22953,0,.75643-.073.986-.09912a10.43311,10.43311,0,0,1,10.43349,10.43348,5.217,5.217,0,0,0,5.21674,5.21675,10.4331,10.4331,0,0,1,10.43348,10.28741c0,.13042-.07825.68339-.08867.81381a5.21718,5.21718,0,0,0,6.99043,5.21674,10.23635,10.23635,0,0,1,3.53172-.673,10.43311,10.43311,0,0,1,10.43349,10.28741c0,.13042-.07825.68339-.08868.81381a5.21619,5.21619,0,0,0,6.9852,5.21674,9.35415,9.35415,0,0,1,8.48242.76686,10.58,10.58,0,0,1,5.36281,7.37126,10.34647,10.34647,0,0,1-1.16333,6.55223l-.12519-.07825a29.09479,29.09479,0,0,0-3.38045-2.01887c-.58692-.30433-1.17385-.54072-1.80776-.898a9.88879,9.88879,0,0,0-2.44436-.8918c-.11915-.03045-.22239-.08471-.33859-.11958a29.22584,29.22584,0,0,0-3.88126-.90771c-.31822-.05217-.63121-.09911-.94944-.14607a29.99793,29.99793,0,0,0-4.03775-.31822,29.44833,29.44833,0,0,0-24.51869,13.1827l-.06782.10956-.05739-.10434a29.46373,29.46373,0,0,0-24.55-13.18792h-.75643a29.32632,29.32632,0,0,1-48.64611,0h-1.6537a29.41459,29.41459,0,0,1-48.6409,0h-.866a34.97717,34.97717,0,0,1-54.46278.52167c-.53571.09108-1.02742.22616-1.5429.34876a29.86232,29.86232,0,0,0-3.61115,1.091c-.48519.1826-.97559.35477-1.45034.56345a29.01454,29.01454,0,0,0-4.236,2.26406c-.10434.06782-.22432.12-.32866.1878l-.04695.02608a10.32112,10.32112,0,0,1-.94423-6.17141,10.5944,10.5944,0,0,1,5.39407-7.39733Zm180.65054,41.014-6.83915,45.803h-34.29487l2.478-49.71033a18.78028,18.78028,0,0,1,3.22916-9.55707,19.03641,19.03641,0,0,1,15.81716-8.55024h.75643a19.11149,19.11149,0,0,1,18.85332,22.01465Zm-88.98718-2.67619a19.06728,19.06728,0,0,1,18.794-19.3365c.08608-.0013.1715-.002.25758-.002h1.67457a19.21071,19.21071,0,0,1,19.062,20.06359l-2.3997,47.75405h-34.81653l-2.56141-48.19225Zm-46.309-10.79865a19.06265,19.06265,0,0,1,15.87977-8.5398h.866a19.20282,19.20282,0,0,1,19.08283,18.749l.03131.56862v.20345l2.551,48.29659h-34.24791l-7.30343-48.04619a18.81275,18.81275,0,0,1,3.16656-11.22643Zm-7.679,189.69636-44.27448-174.86a19.18192,19.18192,0,1,1,37.75878-6.59918l.61035,4.00124c.03652.6834.07825,1.36678.18259,2.18582l6.88088,44.85354V916.183h11.21077l1.11639,7.30344,7.679,50.08073h-21.16432Zm31.723,0-5.34716-35.06693L5399.5408,916.183h27.00707l3.057,57.38415Zm53.15337,0H5440.054l-3.04657-57.38415h27.31484Zm31.77,0H5471.8918l2.864-57.38415h27.03836Zm-17.93516-67.81763h-87.11958V853.5821h125.20179v52.16742Zm93.06667-106.55716-43.41371,174.37479h-21.16432l8.58154-57.38415h11.44554V843.14862l7.20432-51.64574a19.08286,19.08286,0,1,1,37.70137,5.93535q-.13889.88227-.36,1.74892Z" transform="translate(0 5.4004)"/></g><g id="Singe_roi_lion"><path class="cls-6" d="M810.02852,422.87543a4.354,4.354,0,0,1,2.543,4.02294c.38291,5.59977,4.61889,9.15418,9.40411,8.73552a8.725,8.725,0,0,0,7.921-9.43985c-.32371-1.69714.20745-4.22072,1.6292-5.19938a4.261,4.261,0,0,0,1.95157-3.86075c-.33929-3.87812-6.39028-5.28353-8.18313-1.36815-1.40173,3.06041-8.0775,3.715-10.03687.87811a4.261,4.261,0,0,0-3.86075-1.95157,4.35986,4.35986,0,0,0-3.96049,4.71992A4.261,4.261,0,0,0,810.02852,422.87543Z" transform="translate(0 5.4004)"/><path class="cls-7" d="M791.14373,428.897a30.33067,30.33067,0,0,0,60.02563-5.25156,13.01482,13.01482,0,1,0-10.25966-23.91664,29.6963,29.6963,0,0,0-43.81525,3.83334,12.9343,12.9343,0,0,0-4.19776-.37156,13.03453,13.03453,0,0,0-1.753,25.70642Zm19.4935-22.88509a12.66332,12.66332,0,0,1,8.98153,2.68234,12.66341,12.66341,0,0,1,8.3793-4.20122,13.08482,13.08482,0,0,1,14.15977,11.88146,12.72806,12.72806,0,0,1-3.52364,9.95636,17.42918,17.42918,0,0,1-34.6794,3.03405,12.72806,12.72806,0,0,1-5.199-9.19322A13.08482,13.08482,0,0,1,810.63723,406.01189Z" transform="translate(0 5.4004)"/><path class="cls-7" d="M875.17862,536.23306l30.29783-2.65072a26.41914,26.41914,0,0,0,23.7376-28.6089l-3.03775-34.72165a8.6995,8.6995,0,0,1,3.97354-8.08656,8.1332,8.1332,0,0,0,3.39528-7.66453,8.92575,8.92575,0,0,0-5.07134-7.24392,8.17864,8.17864,0,0,0-8.21564.55637,26.18857,26.18857,0,0,0-11.44266,23.95752l3.03775,34.72165a8.725,8.725,0,0,1-7.921,9.43985l-11.66966,1.021A62.62288,62.62288,0,0,1,875.17862,536.23306Z" transform="translate(0 5.4004)"/><path class="cls-7" d="M796.15086,490.3744l17.8096-1.55814a30.286,30.286,0,0,1,15.77769-9.75985,4.35524,4.35524,0,1,1,2.05606,8.46434,22.32318,22.32318,0,0,0-16.38745,19.08982,22.01294,22.01294,0,0,0,.99839,8.23237l-.27285.02387c.0276.11887.02918.24353.05852.36225a22.13445,22.13445,0,0,0-15.83774,23.177,4.35428,4.35428,0,0,0,4.71993,3.96049l41.995-3.67408c23.36159-2.04388,47.207-26.501,44.56743-56.67184a52.51085,52.51085,0,0,0-34.75015-44.62049,38.997,38.997,0,0,1-32.63126,24.275,38.36228,38.36228,0,0,1-4.37271.0082l.41222,4.71173A4.35986,4.35986,0,0,1,816.333,471.115l-21.701,1.89859a8.71357,8.71357,0,0,0,1.51887,17.36083Z" transform="translate(0 5.4004)"/></g><g id="Ticket"><path class="cls-8" d="M5207.925,876.19489a3.65324,3.65324,0,1,0-2.58228-1.07A3.67884,3.67884,0,0,0,5207.925,876.19489Z" transform="translate(0 5.4004)"/><path class="cls-8" d="M5260.24409,871.35845a3.65785,3.65785,0,1,0,1.06716,2.58229A3.6855,3.6855,0,0,0,5260.24409,871.35845Z" transform="translate(0 5.4004)"/><path class="cls-8" d="M5270.44484,864.81a3.65324,3.65324,0,1,0-2.58514-1.07A3.67884,3.67884,0,0,0,5270.44484,864.81Z" transform="translate(0 5.4004)"/><path class="cls-8" d="M5336.04063,886.845h-10.19076l17.939-17.93905a10.95806,10.95806,0,0,0,0-15.49515l-16.27126-16.27126a3.65355,3.65355,0,0,0-5.16457,0,10.95673,10.95673,0,0,1-15.49515-15.49515,3.651,3.651,0,0,0,0-5.16457L5290.5881,800.21a10.95462,10.95462,0,0,0-15.49514,0l-60.3228,60.32137a3.65241,3.65241,0,0,0,5.166,5.16458l60.32137-60.32137a3.651,3.651,0,0,1,5.16457,0l13.94578,13.94435A18.26937,18.26937,0,0,0,5324.68,844.63107l13.94435,13.94435a3.65614,3.65614,0,0,1,0,5.16457L5315.5193,886.845h-16.01161l11.99979-11.99979a3.65355,3.65355,0,0,0,0-5.16457l-37.18921-37.18922a3.6527,3.6527,0,0,0-5.166,0L5214.7987,886.845h-43.84181A10.96887,10.96887,0,0,0,5160,897.80192v23.00946a3.65293,3.65293,0,0,0,3.6523,3.6523,10.95689,10.95689,0,0,1,0,21.91377,3.652,3.652,0,0,0-3.6523,3.6523v23.00946a10.96979,10.96979,0,0,0,10.95689,10.95688h165.08374a10.96978,10.96978,0,0,0,10.95689-10.95688V950.02975a3.652,3.652,0,0,0-3.65229-3.6523,10.95689,10.95689,0,1,1,0-21.91377,3.65293,3.65293,0,0,0,3.65229-3.6523V897.80192A10.96886,10.96886,0,0,0,5336.04063,886.845Zm-64.30607-46.60671,32.02463,32.02463L5289.17712,886.845h-14.46223l10.70721-10.70865a3.6519,3.6519,0,0,0-5.16457-5.16457l-15.87322,15.87179h-39.255Zm67.95837,77.28742a18.26429,18.26429,0,0,0,0,35.78964v19.72382a3.6566,3.6566,0,0,1-3.6523,3.65229H5170.95689a3.6566,3.6566,0,0,1-3.6523-3.65229V953.31539a18.26429,18.26429,0,0,0,0-35.78964V897.80192a3.65568,3.65568,0,0,1,3.6523-3.65229h165.08374a3.65568,3.65568,0,0,1,3.6523,3.65229Z" transform="translate(0 5.4004)"/><path class="cls-8" d="M5238.00219,929.23734a3.651,3.651,0,1,0-2.58229,1.07A3.6839,3.6839,0,0,0,5238.00219,929.23734Z" transform="translate(0 5.4004)"/><path class="cls-8" d="M5274.15991,929.23734a3.651,3.651,0,1,0-2.58229,1.07A3.68387,3.68387,0,0,0,5274.15991,929.23734Z" transform="translate(0 5.4004)"/><path class="cls-8" d="M5256.08105,929.23734a3.651,3.651,0,1,0-2.58229,1.07A3.68387,3.68387,0,0,0,5256.08105,929.23734Z" transform="translate(0 5.4004)"/><path class="cls-8" d="M5217.341,930.30735a3.65324,3.65324,0,1,0-2.58229-1.07A3.68135,3.68135,0,0,0,5217.341,930.30735Z" transform="translate(0 5.4004)"/><path class="cls-8" d="M5292.23877,929.23734a3.651,3.651,0,1,0-2.58229,1.07A3.68387,3.68387,0,0,0,5292.23877,929.23734Z" transform="translate(0 5.4004)"/><path class="cls-8" d="M5217.341,947.83837h72.31544a3.6523,3.6523,0,1,0,0-7.30459H5217.341a3.6523,3.6523,0,1,0,0,7.30459Z" transform="translate(0 5.4004)"/><path class="cls-8" d="M5230.60629,958.0648a3.65324,3.65324,0,1,0,2.58228,1.07A3.68136,3.68136,0,0,0,5230.60629,958.0648Z" transform="translate(0 5.4004)"/><path class="cls-8" d="M5309.01365,905.47174H5197.98387a3.652,3.652,0,0,0-3.65229,3.6523v52.593a3.65293,3.65293,0,0,0,3.65229,3.6523H5213.198a3.6523,3.6523,0,1,0,0-7.30459h-11.56179V912.77633h103.72518V958.0648h-59.29273a3.6523,3.6523,0,0,0,0,7.30459h62.945a3.65293,3.65293,0,0,0,3.65229-3.6523V909.124A3.652,3.652,0,0,0,5309.01365,905.47174Z" transform="translate(0 5.4004)"/></g><g id="Clapperboard"><path d="M5202.857,387.44863l19.76165,101.66489a34.56139,34.56139,0,0,0,40.47526,27.30092l243.99573-47.428a34.55265,34.55265,0,0,0,27.30091-40.47526l-19.76165-101.66489Z" transform="translate(0 5.4004)"/><polygon points="5319.308 205.553 5270.923 227.45 5325.574 281.721 5378.084 258.544 5319.308 205.553"/><polygon points="5257.477 233.539 5205.327 257.124 5259.417 310.899 5312.006 287.692 5257.477 233.539"/><path d="M5489.04352,196.378l-20.0412-41.51423a20.85816,20.85816,0,0,0-27.198-10.15935l-43.44322,19.67037,55.59857,55.31014,31.65047-13.97353a6.88247,6.88247,0,0,0,3.6939-3.93926A6.962,6.962,0,0,0,5489.04352,196.378Z" transform="translate(0 5.4004)"/><polygon points="5384.901 175.866 5333.039 199.339 5391.923 252.449 5440.392 231.056 5384.901 175.866"/><polygon points="5257.99 311.809 5246.839 370.233 5300.016 359.896 5311.168 301.472 5257.99 311.809"/><polygon points="5325.767 298.635 5314.615 357.058 5367.793 346.722 5378.945 288.298 5325.767 298.635"/><path d="M5494.67986,260.40085l-33.35943,6.48441-11.14879,58.43684,61.8256-12.01768-9.22215-47.44382A6.8899,6.8899,0,0,0,5494.67986,260.40085Z" transform="translate(0 5.4004)"/><polygon points="5393.544 285.46 5382.392 343.884 5435.556 333.55 5446.721 275.124 5393.544 285.46"/><path d="M5191.883,257.82565l-10.5393,4.76344a20.7032,20.7032,0,0,0-10.40847,27.7245l22.22,47.224,7.06677,36.35536,32.01745-6.22356,10.4629-54.80071,3.16241-1.3882Z" transform="translate(0 5.4004)"/></g><g id="movie-film"><path d="M180.86937,950.60367H261.1389a51.56363,51.56363,0,0,0,36.90391-15.45585c14.84529-15.01133,27.2942-24.31631,50.07833-24.31631H368v30.2494H348.12114c-11.61157,0-17.06824,3.467-28.925,15.45586a81.11759,81.11759,0,0,1-58.05719,24.31631H180.86937Z" transform="translate(0 5.4004)"/><circle class="cls-9" cx="176.83518" cy="860.23558" r="126.01726"/><path class="cls-10" d="M196.10747,974.4292a126.0362,126.0362,0,0,1-49.41379-241.97409,126.036,126.036,0,1,0,79.55593,238.33627A126.28567,126.28567,0,0,1,196.10747,974.4292Z" transform="translate(0 5.4004)"/><circle class="cls-4" cx="245.4872" cy="838.68346" r="30.97595"/><circle class="cls-4" cx="220.36339" cy="917.38885" r="30.97595"/><circle class="cls-4" cx="133.31338" cy="917.38885" r="30.97595"/><circle class="cls-4" cx="108.18317" cy="838.68346" r="30.97595"/><circle class="cls-4" cx="176.83518" cy="788.3909" r="30.97595"/><circle class="cls-4" cx="176.83518" cy="860.23558" r="18.10892"/><path d="M215.30715,840.25811a30.97594,30.97594,0,0,0,33.5044,23.8191,73.24886,73.24886,0,0,0,.58328-9.242,72.2915,72.2915,0,0,0-18.78728-48.71679A30.98361,30.98361,0,0,0,215.30715,840.25811Z" transform="translate(0 5.4004)"/><path d="M240.94359,888.84063a30.97646,30.97646,0,0,0-48.37119,36.83645A72.676,72.676,0,0,0,240.94359,888.84063Z" transform="translate(0 5.4004)"/><path d="M152.07818,887.34643a30.98186,30.98186,0,0,0-39.34948,1.49483,72.67852,72.67852,0,0,0,48.37182,36.8371A30.984,30.984,0,0,0,152.07818,887.34643Z" transform="translate(0 5.4004)"/><path d="M123.06473,806.11839a72.2915,72.2915,0,0,0-18.78728,48.71679,73.24886,73.24886,0,0,0,.58328,9.242,30.97238,30.97238,0,0,0,18.204-57.95882Z" transform="translate(0 5.4004)"/><path d="M176.83582,782.27616a72.27572,72.27572,0,0,0-30.401,6.66221,30.97682,30.97682,0,0,0,60.802,0A72.27356,72.27356,0,0,0,176.83582,782.27616Z" transform="translate(0 5.4004)"/><path d="M199.76008,854.83518a22.92459,22.92459,0,1,0-22.9249,22.92426A22.95064,22.95064,0,0,0,199.76008,854.83518Zm-36.2127,0a13.28876,13.28876,0,1,1,13.28844,13.28844A13.30333,13.30333,0,0,1,163.54738,854.83518Z" transform="translate(0 5.4004)"/><path d="M280.365,825.22687a35.61911,35.61911,0,0,0-34.84891-27.74346,35.80667,35.80667,0,0,0-34.07419,46.86285c5.60741,17.38751,24.32724,27.922,42.10469,23.81525A35.8356,35.8356,0,0,0,280.365,825.22687Zm-35.94162,34.195a26.05448,26.05448,0,0,1-13.96489-4.683c-14.28735-9.99555-14.62395-31.77059-.78049-42.29162a67.57457,67.57457,0,0,1,14.8989,42.388C244.57692,856.36277,244.52553,857.89616,244.4234,859.42184Zm9.71869-1.45373c.04175-1.04453.07065-2.08968.07065-3.13293a77.18774,77.18774,0,0,0-15.7231-46.753c.36744-.1015.73682-.19914,1.11069-.28522a26.30633,26.30633,0,0,1,5.91639-.67836,26.16153,26.16153,0,0,1,8.62537,50.84952Z" transform="translate(0 5.4004)"/><path d="M184.64469,909.75422l-.00579.09186a35.78276,35.78276,0,0,0,35.74762,37.94266,36.125,36.125,0,0,0,35.4457-30.99458c2.59782-19.18621-11.15507-37.47884-30.32136-40.21863-.14068-.01992-.28073-.04176-.42141-.06038C204.80346,873.80362,185.9526,889.36675,184.64469,909.75422Zm9.684.31349a26.09745,26.09745,0,0,1,40.35482-19.97055,67.62345,67.62345,0,0,1-39.23514,29.88645A25.61869,25.61869,0,0,1,194.32868,910.06771Zm51.95507,5.43268a26.4095,26.4095,0,0,1-25.89915,22.65188,25.96818,25.96818,0,0,1-20.20567-9.533,77.22479,77.22479,0,0,0,41.57472-31.67358A25.96757,25.96757,0,0,1,246.28375,915.50039Z" transform="translate(0 5.4004)"/><path d="M111.62444,940.46871a35.47556,35.47556,0,0,0,21.66325,7.31938c20.31424,0,36.999-17.64448,35.74441-37.94971l-.0045-.07708a35.75719,35.75719,0,0,0-40.86681-33.18577,35.78816,35.78816,0,0,0-16.53635,63.89318Zm17.81535-54.34409c.05846-.00835.11691-.01735.176-.0257,15.75071-2.179,30.42414,11.04008,29.83315,26.9077-.00128.0257-.00193.05139-.00257.07709a25.94744,25.94744,0,0,1-1.22374,6.90053,67.62011,67.62011,0,0,1-39.2345-29.88645A26.11078,26.11078,0,0,1,129.43979,886.12462Zm-17.52114,10.82165a77.22823,77.22823,0,0,0,41.57408,31.67294,26.15093,26.15093,0,0,1-41.57408-31.67294Z" transform="translate(0 5.4004)"/><path d="M137.95207,813.5277a36.0934,36.0934,0,0,0-29.79716-16.04428,35.801,35.801,0,0,0-30.33228,54.76486,36.13871,36.13871,0,0,0,30.39009,16.83827,35.596,35.596,0,0,0,34.03308-24.79489A36.22686,36.22686,0,0,0,137.95207,813.5277Zm-3.6507,21.09731a26.35563,26.35563,0,0,1-25.05377,24.79745c-.10214-1.52631-.15289-3.059-.15289-4.58729a67.57626,67.57626,0,0,1,14.89441-42.38284c.11756.08929.23576.1773.35139.26788A26.60478,26.60478,0,0,1,134.30137,834.625ZM85.99572,847.14322a26.16494,26.16494,0,0,1,22.15854-40.02463,26.34173,26.34173,0,0,1,7.0258.96423,77.1964,77.1964,0,0,0-15.72117,46.75236c0,1.04388.02827,2.089.07,3.13421A25.96006,25.96006,0,0,1,85.99572,847.14322Z" transform="translate(0 5.4004)"/><path d="M141.73509,789.93086a35.72213,35.72213,0,1,0-.69441-6.93652A35.24583,35.24583,0,0,0,141.73509,789.93086Zm59.18835,3.26268c-6.46563,15.21175-26.2711,20.68618-39.60965,10.841a26.35847,26.35847,0,0,1-8.56753-10.84415l-.02248-.05268c-.03084-.07194-.57109-1.40426-.54411-1.41453a67.977,67.977,0,0,1,49.31164,0C201.49774,791.72569,200.93244,793.173,200.92344,793.19354Zm-24.08826-36.35916a26.18711,26.18711,0,0,1,26.13427,25.15591,77.61656,77.61656,0,0,0-52.2679,0A26.187,26.187,0,0,1,176.83518,756.83438Z" transform="translate(0 5.4004)"/><path class="cls-11" d="M196,985c57-13,55-20,73-33,22.25617-23.46644,38.67167-62.34544,38.67167-97.16351a130.50185,130.50185,0,0,0-47.49977-100.865,4.81811,4.81811,0,1,0-6.18012,7.393,121.20873,121.20873,0,0,1-73.26241,214.60322c-1.29313.04111-2.59011.06873-3.89352.06873A121.20065,121.20065,0,1,1,238.48938,750.476a4.81885,4.81885,0,1,0,5.02827-8.22062A130.68831,130.68831,0,0,0,176.83646,724C104.69307,723.99936,46,782.69179,46,854.83518,46,926.97792,104.69307,985.671,176.83582,985.671q1.71133,0,3.413-.04432a4.82675,4.82675,0,0,0,.62055.04432" transform="translate(0 5.4004)"/><g id="bande_magnetique"><path d="M5364,893.612" transform="translate(0 5.4004)"/><path d="M5250,642c-303.18064-36.19848-1660.39733,102.35982-2435,154-30,2-271,17-271,17L330,943c-6.29679,0-44.17749,30.70741-53,30-1.043-.08363-4.76508-12.18924-3.95025-12.84564L308,932c0-7.05843,20.94157-20,28-20L2618,785c371.91943-20.796,2359.40354-195,2708-195" transform="translate(0 5.4004)"/><path d="M4028,876" transform="translate(0 5.4004)"/></g></g><path id="projo1" class="cls-12" d="M225.95467,371.20659a13.90576,13.90576,0,0,1-8.52477-13.393l2.2666-81.56258-68.15816-68.34827a32.0969,32.0969,0,0,1,0-45.30425L177.35257,136.713l-14.62661-14.667a57.078,57.078,0,0,1,0-80.47082,43.519,43.519,0,0,0,12.77443-30.92886V1.24493a3.63531,3.63531,0,1,1,7.27059,0v9.39952a50.764,50.764,0,0,1-14.90471,36.08337,49.768,49.768,0,0,0,0,70.1618l14.62661,14.667,23.095-23.15883V1.24493a3.64164,3.64164,0,0,1,3.63529-3.64533h23.89843a3.64164,3.64164,0,0,1,3.63529,3.64533v86.8465a31.72706,31.72706,0,0,1,25.01629,9.27191l68.16,68.34643,73.33609-2.27287a14.15455,14.15455,0,0,1,10.37332,24.15219l-44.1883,52.33246a67.33077,67.33077,0,0,1-75.75047,75.95972L241.51552,368.2119a13.87916,13.87916,0,0,1-9.88073,4.1885A14.35632,14.35632,0,0,1,225.95467,371.20659ZM403.471,170.72394l-11.32031.31715-167.07583,175.554c-.02183.02189-.04183.04375-.06363.0638l-.31626,11.35341a6.8414,6.8414,0,0,0,11.67839,5.04516L408.50046,182.43278a6.86382,6.86382,0,0,0-4.81131-11.71247C403.61826,170.72031,403.54374,170.72213,403.471,170.72394ZM330.015,173.00047,226.96706,276.33484l-1.6595,59.72155,156.26627-164.72ZM300.40731,309.15926A60.02268,60.02268,0,0,0,362.749,246.64539Zm10.14611-152.57011L210.59916,256.82134l12.7726,12.80607L323.326,169.397Zm-53.92231-54.07127a24.52534,24.52534,0,0,0-19.876-7.10659v69.88112a13.5304,13.5304,0,0,1-13.496,13.53332H219.084a13.53038,13.53038,0,0,1-13.496-13.53332V118.70865l-20.49217,20.54877-.03272.0328-.03273.03281-28.35349,28.43a24.8234,24.8234,0,0,0,0,34.99523l48.782,48.91678L305.4131,151.43465Zm-27.14662,60.68028V4.89027H212.85666V163.19816a8.31395,8.31395,0,1,0,16.62783,0Zm-11.9492-2.2911v-1.54745a3.63531,3.63531,0,1,1,7.27059,0v1.54745a3.63531,3.63531,0,1,1-7.27059,0Z" transform="translate(0 5.4004)"/></g><g id="Ancrage"><rect class="cls-13" x="5624" y="1004.4004" width="1" height="1"/><rect class="cls-13" x="5624" y="5.4004" width="1" height="1"/><rect class="cls-13" y="1004.4004" width="1" height="1"/><rect class="cls-13" y="5.4004" width="1" height="1"/></g></svg>