<svg xmlns="http://www.w3.org/2000/svg" viewBox="0 0 5625 1000"><defs><style>.cls-1,.cls-10{fill:#e33e5c;}.cls-1,.cls-2{stroke:#e33e5c;}.cls-1,.cls-15,.cls-2{stroke-miterlimit:10;}.cls-1{stroke-width:6px;}.cls-2,.cls-21{fill:none;}.cls-2{stroke-width:12px;}.cls-3{fill:#e7eced;}.cls-4{fill:#f4661e;}.cls-15,.cls-5{fill:#ffe000;}.cls-6{fill:#ffccbc;}.cls-7{fill:#ff8a65;}.cls-8{fill:#757575;}.cls-9{fill:#424242;}.cls-11{fill:#d32f2f;}.cls-12{fill:#f9bb4b;}.cls-13{fill:#fff69a;}.cls-14{fill:#ea1d13;}.cls-15{stroke:#000;stroke-width:8px;}.cls-16{fill:#fff;}.cls-17{fill:#e9edf5;}.cls-18{fill:#ff583e;}.cls-19{fill:#555a66;}.cls-20{fill:#333940;}</style></defs><title>logo_la_boite_a_memes</title><g id="Texte"><path class="cls-1" d="M1204.80176,615.7373a11.59459,11.59459,0,0,1,8.645-4.07031q10.4231,0,10.42529,17.55371,0,6.61816-7.75537,15.13575-7.75927,8.52686-15.1294,8.52246a24.42542,24.42542,0,0,1-19.70605-9.41211q-7.75927-9.40869-7.75537-26.20313a34.18289,34.18289,0,0,1,8.8999-23.15039q8.89746-10.17041,19.07031-10.17578,17.03175,0,32.29248,19.207,15.25635,19.21143,15.25635,42.86524,0,46.812-50.60058,46.80859-20.5957,0-60.26221-8.0127-39.66651-8.01415-60.51709-8.01367-19.32642,0-51.1084,3.56153l1.0166-11.957,44.24365-2.03515q2.79565-20.09179,2.79737-103.2832,0-94.37769-15.51074-203.51563-14.4939,0-42.20948,1.52637l1.01709-13.73731q32.54517,1.27589,62.29688,1.272a350.87215,350.87215,0,0,0,54.92285-4.8335v14.50049h-36.86963q2.79565,59.78466,2.79736,105.82812,0,76.574-14.748,200.71729,13.957,0,51.02148,3.30664,37.062,3.30908,49.75781,3.30664,20.811,0,36.16993-9.28516,15.35816-9.2827,15.35986-22.00488,0-16.02685-6.61084-26.71191-6.61524-10.68458-18.562-10.6836-13.73071,0-23.52,5.59571-9.79174,5.60008-9.79,15.77343,0,9.67091,4.7041,12.083,4.70216,2.42139,15.12939,2.417,15.25635,0,15.25635-9.41211Q1215.22656,623.37159,1204.80176,615.7373Z"/><path class="cls-1" d="M1349.04932,512.707q-1.782,10.43554-11.95069,10.43067a11.76046,11.76046,0,0,1-9.15429-3.94336,14.77014,14.77014,0,0,1-3.55957-10.30274q0-7.37548,6.48437-13.86377,6.4834-6.48779,13.85742-6.4873,34.32715,0,34.32715,19.84228,0,16.53956-17.54492,30.40039-17.54517,13.86768-30.25879,13.86426-15.00586,0-25.42676-8.52246-10.42968-8.51954-10.42578-22.76758,0-29.50781,27.71582-60.03711Q1350.8252,430.793,1380.833,430.793q24.66064,0,41.44678,21.2417,16.782,21.24462,16.78173,52.27783,0,22.13232-6.22949,37.9043-6.23364,15.77783-18.94336,37.14258-32.55029,53.93555-32.54687,98.959,0,5.08593.50879,10.42969h-10.4253l.5083-33.834q-31.78784,20.86232-45.76855,20.86035-17.29541,0-28.47852-10.55761-11.19286-10.55274-11.18847-27.60157,0-16.02685,16.65527-28.36523a60.69288,60.69288,0,0,1,36.99609-12.33789q14.4939,0,46.27784-3.05273,18.81444-40.95558,18.81591-73.01172,0-73.771-33.81787-73.77344-31.02538,0-44.49756,19.91846-13.48095,19.9204-13.47656,54.9331a24.88948,24.88948,0,0,0,5.72119,16.49512,17.6963,17.6963,0,0,0,14.11182,6.84863q10.42383,0,19.8335-9.666,9.40356-9.665,9.40771-21.11524,0-6.356-5.84766-11.0664a20.21635,20.21635,0,0,0-12.96826-4.70557q-3.05127,0-5.46679,3.104a10.36916,10.36916,0,0,0-2.41553,6.459q0,6.46289,5.33984,6.46289A15.57428,15.57428,0,0,0,1349.04932,512.707Zm33.81787,90.05664q-21.35889,1.27588-34.45362,3.4336a33.30868,33.30868,0,0,0-21.10449,11.957q-8.00976,9.7954-8.00976,20.47851,0,10.17774,5.46728,16.79a17.717,17.717,0,0,0,14.36621,6.61426q15.50684,0,34.835-19.58789Z"/><path class="cls-1" d="M1744.085,535.60352q-12.96826-.50684-12.96777-10.93946a18.66606,18.66606,0,0,1,5.33886-13.10156q5.34082-5.72314,12.20508-5.72363,8.13575,0,14.23926,7.50488a27.5372,27.5372,0,0,1,6.10254,17.93457q0,13.7373-9.15332,21.49609a31.00812,31.00812,0,0,1-20.5957,7.75879,28.88954,28.88954,0,0,1-22.249-9.9209q-9.0293-9.92137-9.02734-25.43945,0-22.38281,19.5791-41.21142,19.57764-18.82324,42.46387-18.8252,32.28808,0,58.60937,30.6543,26.31738,30.65844,26.31739,65.76025,0,45.542-33.43653,81.916-33.43945,36.38232-73.35742,36.37793-24.41016,0-45.38769-16.40821-20.978-16.40918-24.792-40.83105-12.71776,21.627-23.64746,30.78223l-8.13672-4.833a108.80342,108.80342,0,0,0,16.52832-21.36914,105.05273,105.05273,0,0,0,10.42481-22.76856q3.30176-10.81055,7.75586-47.9541,4.44579-37.13819,8.26367-90.69092,3.813-53.54736,3.81348-106.97265,0-18.82324-2.03418-51.89649l-30.5127,1.52637.50879-9.4126q45.90089,0,92.55957-16.79l1.52148,8.90381-21.35937,6.86865q-9.66651,79.88379-27.71582,173.36963-18.05714,93.49-18.05273,119.94678,0,35.10645,17.92578,56.34863,17.92675,21.24317,43.35351,21.24219,28.73145,0,49.83789-32.18164,21.10254-32.17822,21.10449-72.12109a109.68229,109.68229,0,0,0-17.291-59.52735q-17.294-27.47388-39.41211-27.47461-18.30762,0-32.67383,13.356-14.36865,13.355-14.36621,32.18018,0,7.63184,7.501,14.75488,7.49706,7.125,15.38379,7.12305a25.425,25.425,0,0,0,14.36621-4.70606q6.99023-4.70508,6.99218-10.04883,0-9.92139-13.98535-9.9209-5.33936,0-5.33886,5.85059Q1741.28809,528.22949,1744.085,535.60352Z"/><path class="cls-1" d="M2012.67188,508.38281q-3.564,5.855-8.89942,5.85157-3.30762,0-6.10254-3.18067a12.03392,12.03392,0,0,1-2.79785-8.26758q0-6.10473,5.59473-10.17529a20.31113,20.31113,0,0,1,12.20508-4.07031q7.37109,0,13.85742,6.23242,6.48486,6.2373,6.48437,13.10107,0,16.28321-9.15429,25.82129-9.15381,9.53907-23.64747,9.53907-10.42821,0-17.92578-10.81153-7.50292-10.80908-7.501-26.584,0-18.31567,16.04687-33.57959,16.04883-15.26367,32.86035-15.26367,34.38722,0,62.9209,30.52734,28.52784,30.5266,28.53027,68.93994,0,47.5752-32.71386,85.73145-32.71729,38.15918-70.13574,38.15918-42.51417,0-76.5-34.47071-33.98732-34.46776-33.98536-81.27929,0-39.42774,31.21973-75.04541,31.22315-35.61328,73.78711-45.28223l3.05957,6.35986q-32.65869,5.855-53.96191,37.6499-21.3047,31.804-21.30274,69.19483,0,51.13476,21.26758,83.06055,21.2622,31.92773,55.90723,31.92578,26.49023,0,48.77734-32.30762,22.2876-32.30419,22.28809-75.55566,0-41.21191-19.37207-69.32178-19.374-28.106-47.16016-28.11035-15.041,0-24.98145,11.8291-9.94043,11.83008-9.94043,25.8208a20.414,20.414,0,0,0,6.9043,15.39062q6.90234,6.4878,13.04395,6.48731,8.17676,0,16.36425-6.23242,8.18262-6.23145,8.18457-12.084,0-12.4607-14.16308-12.46435-5.92383,0-5.92383,6.35888Q2005.80664,505.0796,2012.67188,508.38281Z"/><path class="cls-1" d="M2251.25488,397.97607q-14.7495,8.395-22.88476,11.44776-9.96387-19.84278-28.86035-45.791-24.77931,39.94189-28.35059,48.335-17.29541-7.88232-22.376-12.46533,5.09474-5.59276,24.21485-22.25976,19.11913-16.65821,28.03808-28.11036Q2210.21339,362.86964,2251.25488,397.97607Zm9.40821,287.21143q-58.73732,0-73.23047,1.82813-14.49464,1.82373-25.17383,4.02246V677.04688l32.80176-1.01758a1871.80825,1871.80825,0,0,0-11.44239-211.14746l-28.22461-.98194v-9.19385q26.187.5127,36.36133.50879,18.05127,0,48.56641-9.41259v11.70214l-22.88477,5.40967-5.33984,81.88672-6.10254,129.19336a428.327,428.327,0,0,0,54.669-3.30762Z"/><path class="cls-1" d="M2433.64355,434.35449q-20.85351,3.81592-34.4541,5.46924-13.60547,1.6582-39.54,9.79443-1.27442,16.28321-15.00195,80.00684-13.73,63.7251-13.73047,86.1123,0,29.001,11.82422,44.51856,11.82276,15.52149,33.43652,15.51855,15.76319,0,24.28321-14.11914,8.51514-14.11816,8.51758-36.50488,0-8.64551-6.10254-17.80859-6.10254-9.15821-13.47657-9.15821-6.61523,0-10.67871,6.36036a26.77134,26.77134,0,0,0-4.06836,14.75488q0,7.38135,6.86524,7.377,6.86425,0,9.916-10.93848l3.05176,2.03516a19.48565,19.48565,0,0,1-4.45019,13.10156q-4.45167,5.21631-9.53516,5.21485a26.49805,26.49805,0,0,1-15.8916-5.46973q-7.50292-5.4668-7.501-13.86426,0-10.93506,9.53516-19.46093,9.53466-8.521,20.46875-8.52247,13.98046,0,27.84277,9.667,13.856,9.67089,13.85742,20.35156,0,24.17139-14.74707,44.64648-14.7495,20.48-34.07324,20.47852-29.499,0-47.04-18.44336-17.54443-18.44238-17.54492-48.7168,0-15.00732,5.97559-80.7705,5.97216-65.75757,5.46679-76.44483l-47.04,13.48291v-13.9917l47.04-10.939q.50684-7.63183.50879-17.80762a391.48932,391.48932,0,0,0-4.32324-58.76514l43.73535-7.37744q.76318,31.80323-6.10254,73.52,31.78272-10.17187,42.97168-12.33789,11.187-2.15844,26.19043-6.4873Z"/><path class="cls-1" d="M2592.89258,624.64063q11.9502,0,11.95117,11.44824,0,7.38135-6.4834,12.59277-6.48486,5.21631-12.333,5.21484-7.37694,0-15.1289-7.123a22.877,22.877,0,0,1-7.75489-17.55274q0-14.502,9.40723-22.76855,9.40429-8.26466,23.39356-8.26856,16.78125,0,27.96972,11.83008,11.187,11.82861,11.18848,30.14551,0,21.62549-18.94336,34.34277a73.04476,73.04476,0,0,1-41.57422,12.72071q-41.19141,0-76.53516-34.2168-35.34667-34.21143-35.34472-83.05957,0-46.04151,34.32715-83.6958,34.32714-37.64576,72.97656-37.6499,28.98633,0,53.77832,19.20654,24.791,19.21143,24.792,40.06689,0,25.94825-21.23242,42.4834-21.23291,16.541-53.26953,16.53613-31.0254,0-47.80371-8.64941-16.78125-8.64551-16.78223-24.168a28.735,28.735,0,0,1,10.42578-22.89453q10.42236-8.90186,21.86719-8.9043a33.86529,33.86529,0,0,1,18.43457,5.21485q8.26026,5.21777,8.26367,12.33789,0,7.63184-5.7207,14.24609-5.72167,6.61963-11.06055,6.61524-10.42968,0-10.42578-7.37793,11.94873-3.27393,11.95117-11.332a12.0344,12.0344,0,0,0-4.57715-9.94532,17.00726,17.00726,0,0,0-10.93359-3.65332q-4.57617,0-8.64551,7.50489a31.92887,31.92887,0,0,0-4.06836,15.39062q0,11.19726,15.89258,19.207,15.8877,8.0127,38.52246,8.0127,19.31983,0,30.00391-11.70117,10.67871-11.69824,10.67969-31.54493,0-20.60742-15.51075-39.43115-15.51269-18.82324-38.1416-18.82519-28.22315,0-48.05664,31.67187-19.834,31.67212-19.834,85.85791,0,44.77734,22.75781,74.0293,22.75342,29.25732,56.06738,29.25488,15.50538,0,30.89356-10.81152,15.38232-10.81055,15.38379-27.34766,0-11.19141-10.9336-19.08008a40.01685,40.01685,0,0,0-23.90234-7.88574,17.51659,17.51659,0,0,0-12.20508,4.62305,14.42539,14.42539,0,0,0-5.085,11.0459q0,11.042,12.96777,11.043,3.81445,0,6.10254-4.79A22.85155,22.85155,0,0,0,2592.89258,624.64063Z"/><path class="cls-1" d="M2928.1748,512.707q-1.7827,10.43554-11.95117,10.43067a11.757,11.757,0,0,1-9.15332-3.94336,14.76844,14.76844,0,0,1-3.56054-10.30274q0-7.37548,6.48437-13.86377,6.4834-6.48779,13.85742-6.4873,34.32715,0,34.32715,19.84228,0,16.53956-17.54492,30.40039-17.54443,13.86768-30.25879,13.86426-15.00587,0-25.42676-8.52246-10.42968-8.51954-10.4248-22.76758,0-29.50781,27.71484-60.03711,27.71191-30.52734,57.7207-30.52734,24.65919,0,41.44629,21.2417,16.78125,21.24462,16.78125,52.27783,0,22.13232-6.22949,37.9043-6.23291,15.77783-18.94336,37.14258-32.55028,53.93555-32.54687,98.959,0,5.08593.50879,10.42969h-10.42481l.50781-33.834q-31.7871,20.86232-45.76855,20.86035-17.29395,0-28.47852-10.55761-11.1914-10.55274-11.18847-27.60157,0-16.02685,16.65527-28.36523a60.69361,60.69361,0,0,1,36.99707-12.33789q14.49317,0,46.27734-3.05273,18.81446-40.95558,18.81641-73.01172,0-73.771-33.81836-73.77344-31.02539,0-44.49805,19.91846-13.48095,19.9204-13.47656,54.9331a24.8873,24.8873,0,0,0,5.72168,16.49512,17.69469,17.69469,0,0,0,14.11133,6.84863q10.42383,0,19.834-9.666,9.40431-9.665,9.40821-21.11524,0-6.356-5.84864-11.0664a20.21506,20.21506,0,0,0-12.96777-4.70557q-3.05127,0-5.4668,3.104a10.367,10.367,0,0,0-2.416,6.459q0,6.46289,5.33984,6.46289A15.57473,15.57473,0,0,0,2928.1748,512.707Zm33.81836,90.05664q-21.35887,1.27588-34.4541,3.4336a33.31113,33.31113,0,0,0-21.10449,11.957q-8.00976,9.7954-8.00977,20.47851,0,10.17774,5.4668,16.79a17.7183,17.7183,0,0,0,14.36621,6.61426q15.50683,0,34.835-19.58789Zm45.76856-213.6914q-4.57617,6.86865-5.085,8.9038-3.05127-1.27-24.41016-13.7373-21.35889-12.46143-34.83594-17.42578-13.47948-4.96143-30.7666-12.59278,1.7754-1.27,5.59375-10.43017,3.81445-9.1582,4.83106-10.939Q2972.92285,372.53663,3007.76172,389.07227Z"/><path class="cls-1" d="M3419.07129,494.39111q9.15381-24.928,26.82519-41.84765,17.67042-16.91455,35.9795-16.917,37.37841,0,57.59277,26.457,20.21484,26.46093,20.21484,73.52,0,59.78466-21.86718,103.02929-21.87159,43.251-49.583,43.24707-14.49464,0-23.39356-9.667a32.34157,32.34157,0,0,1-1.39843-42.99219q7.49706-9.1582,17.92578-9.1582,19.32129,0,19.32519,19.0791,0,4.32861-4.32226,10.30274a24.78249,24.78249,0,0,1-10.1709,8.52246l-4.32324-3.56153q7.37256-5.34228,7.374-11.44824,0-6.3545-9.4082-6.35937-13.4795,0-13.47657,18.57031a14.69971,14.69971,0,0,0,6.61133,12.59277q6.60938,4.71094,17.291,4.70606,18.55663,0,28.85937-30.78125,10.29786-30.77784,10.29785-89.54688,0-41.71875-16.52734-68.813-16.53222-27.09375-46.02344-27.09326-18.3076,0-31.78418,21.11475-13.47948,21.11865-13.47656,26.96533l1.27149,11.70215a208.12621,208.12621,0,0,1,1.27148,21.11426q0,52.66113-16.40039,86.749-16.40038,34.09278-38.26856,34.08887-9.91552,0-18.43457-6.9961a22.16261,22.16261,0,0,1-8.51757-17.93457q0-12.21093,6.22949-19.96972,6.22706-7.75782,17.67187-7.75977,7.87794,0,12.96778,4.45215,5.083,4.4546,5.08593,9.54a22.30857,22.30857,0,0,1-3.56054,12.21094,11.1568,11.1568,0,0,1-9.916,5.59668l-3.05176-3.56153q6.10254-2.28956,6.10254-5.85156,0-5.08447-10.93359-5.08789-3.05127,0-6.10254,3.30762a11.564,11.564,0,0,0-3.05078,8.14062,15.11355,15.11355,0,0,0,4.83105,11.44824,17.02483,17.02483,0,0,0,12.20508,4.57813q12.96679,0,20.08692-23.27637,7.11621-23.27783,7.12011-87.63965,0-25.69042-16.27343-48.84326-16.27589-23.14526-38.39551-23.14941-11.44189,0-22.62988,6.74121-11.19288,6.74413-19.70606,19.71582a50.4982,50.4982,0,0,0-8.77246,27.21924l-1.52539,81.66113q-1.01953,60.8042-1.01758,69.45019l33.81836-1.52734v12.46582q-47.04492,0-76.02734,8.39551l-3.30567-10.93945,33.56348-6.86914q0-116.50929-27.71484-214.96241L3216.416,462.0835l-.50879-10.939a298.1967,298.1967,0,0,0,82.12988-13.48291q-3.564,9.6709-6.10254,59.78223,5.58984-16.53223,25.0459-31.92578,19.45166-15.38892,39.03125-15.39112a68.31732,68.31732,0,0,1,39.28516,11.82959A59.09345,59.09345,0,0,1,3419.07129,494.39111Z"/><path class="cls-1" d="M3754.27734,624.64063q11.94873,0,11.95118,11.44824,0,7.38135-6.48438,12.59277-6.48339,5.21631-12.332,5.21484-7.37843,0-15.12891-7.123a22.87791,22.87791,0,0,1-7.75586-17.55274q0-14.502,9.40821-22.76855,9.4043-8.26466,23.39258-8.26856,16.78271,0,27.9707,11.83008,11.18554,11.82861,11.1875,30.14551,0,21.62549-18.94336,34.34277a73.03945,73.03945,0,0,1-41.57324,12.72071q-41.19288,0-76.53614-34.2168-35.34521-34.21143-35.34375-83.05957,0-46.04151,34.32715-83.6958,34.32568-37.64576,72.97559-37.6499,28.98778,0,53.7793,19.20654,24.791,19.21143,24.791,40.06689,0,25.94825-21.23144,42.4834-21.23437,16.541-53.27051,16.53613-31.0254,0-47.80274-8.64941-16.78271-8.64551-16.78222-24.168a28.73712,28.73712,0,0,1,10.4248-22.89453q10.42383-8.90186,21.86817-8.9043a33.86769,33.86769,0,0,1,18.43457,5.21485q8.26024,5.21777,8.26367,12.33789,0,7.63184-5.72071,14.24609-5.72167,6.61963-11.06152,6.61524-10.42823,0-10.4248-7.37793,11.94873-3.27393,11.95019-11.332a12.03632,12.03632,0,0,0-4.57617-9.94532,17.01105,17.01105,0,0,0-10.93359-3.65332q-4.57764,0-8.64551,7.50489a31.918,31.918,0,0,0-4.06836,15.39062q0,11.19726,15.8916,19.207,15.88916,8.0127,38.52246,8.0127,19.32129,0,30.00391-11.70117,10.68016-11.69824,10.67969-31.54493,0-20.60742-15.51075-39.43115-15.51269-18.82324-38.14062-18.82519-28.22461,0-48.05762,31.67187-19.83252,31.67212-19.833,85.85791,0,44.77734,22.75684,74.0293,22.75341,29.25732,56.06738,29.25488,15.50684,0,30.89453-10.81152,15.38086-10.81055,15.38282-27.34766,0-11.19141-10.9336-19.08008a40.01191,40.01191,0,0,0-23.90137-7.88574,17.51319,17.51319,0,0,0-12.20507,4.62305,14.4264,14.4264,0,0,0-5.08594,11.0459q0,11.042,12.96875,11.043,3.813,0,6.10254-4.79A22.85154,22.85154,0,0,0,3754.27734,624.64063Zm32.293-218.77833q-4.57764,6.86867-5.08593,8.90381-3.05127-1.27-24.41016-13.7373-21.35889-12.46143-34.835-17.42578-13.481-4.96143-30.76758-12.59278,1.77685-1.27,5.59473-10.43017,3.813-9.15821,4.83105-10.939Q3751.73,389.32665,3786.57031,405.8623Z"/><path class="cls-1" d="M4037.10352,494.39111q9.15379-24.928,26.82617-41.84765,17.66893-16.91455,35.97949-16.917,37.377,0,57.59277,26.457,20.21486,26.46093,20.21387,73.52,0,59.78466-21.86719,103.02929-21.87158,43.251-49.583,43.24707-14.49317,0-23.39258-9.667a32.33869,32.33869,0,0,1-1.39844-42.99219q7.49707-9.1582,17.92578-9.1582,19.32129,0,19.32422,19.0791,0,4.32861-4.32227,10.30274a24.7824,24.7824,0,0,1-10.17089,8.52246l-4.32227-3.56153q7.37109-5.34228,7.374-11.44824,0-6.3545-9.4082-6.35937-13.48095,0-13.47656,18.57031a14.69969,14.69969,0,0,0,6.61133,12.59277q6.6079,4.71094,17.29,4.70606,18.55812,0,28.86036-30.78125,10.29784-30.77784,10.29785-89.54688,0-41.71875-16.52832-68.813-16.53077-27.09375-46.02246-27.09326-18.30762,0-31.78418,21.11475-13.481,21.11865-13.47657,26.96533l1.27149,11.70215a208.41206,208.41206,0,0,1,1.27148,21.11426q0,52.66113-16.40136,86.749-16.4004,34.09278-38.26758,34.08887-9.917,0-18.43457-6.9961a22.16071,22.16071,0,0,1-8.51856-17.93457q0-12.21093,6.2295-19.96972,6.22851-7.75782,17.67187-7.75977,7.87939,0,12.96875,4.45215,5.083,4.4546,5.085,9.54a22.30763,22.30763,0,0,1-3.55957,12.21094,11.15832,11.15832,0,0,1-9.917,5.59668l-3.05078-3.56153q6.10254-2.28956,6.10254-5.85156,0-5.08447-10.9336-5.08789-3.05127,0-6.10254,3.30762a11.56474,11.56474,0,0,0-3.05175,8.14062,15.117,15.117,0,0,0,4.831,11.44824,17.028,17.028,0,0,0,12.20508,4.57813q12.96826,0,20.08789-23.27637,7.11474-23.27783,7.11914-87.63965,0-25.69042-16.27344-48.84326-16.27442-23.14526-38.39453-23.14941-11.44337,0-22.63086,6.74121-11.19141,6.74413-19.706,19.71582a50.50633,50.50633,0,0,0-8.77246,27.21924l-1.52539,81.66113q-1.01954,60.8042-1.01661,69.45019l33.81739-1.52734v12.46582q-47.04346,0-76.02735,8.39551l-3.30566-10.93945,33.56445-6.86914q0-116.50929-27.71582-214.96241l-33.81836,3.56153-.50781-10.939a298.1967,298.1967,0,0,0,82.12988-13.48291q-3.564,9.6709-6.10254,59.78223,5.58985-16.53223,25.0459-31.92578,19.45167-15.38892,39.03028-15.39112a68.31508,68.31508,0,0,1,39.28515,11.82959A59.08876,59.08876,0,0,1,4037.10352,494.39111Z"/><path class="cls-1" d="M4372.30957,624.64063q11.9502,0,11.95117,11.44824,0,7.38135-6.4834,12.59277-6.48486,5.21631-12.333,5.21484-7.377,0-15.12891-7.123a22.877,22.877,0,0,1-7.75488-17.55274q0-14.502,9.40722-22.76855,9.40429-8.26466,23.39356-8.26856,16.78125,0,27.96972,11.83008,11.187,11.82861,11.18848,30.14551,0,21.62549-18.94336,34.34277a73.04476,73.04476,0,0,1-41.57422,12.72071q-41.19139,0-76.53515-34.2168-35.34669-34.21143-35.34473-83.05957,0-46.04151,34.32715-83.6958,34.32714-37.64576,72.97656-37.6499,28.98633,0,53.77832,19.20654,24.791,19.21143,24.792,40.06689,0,25.94825-21.23242,42.4834-21.23291,16.541-53.26953,16.53613-31.02538,0-47.80371-8.64941-16.78125-8.64551-16.78223-24.168a28.735,28.735,0,0,1,10.42578-22.89453q10.42237-8.90186,21.86719-8.9043a33.86529,33.86529,0,0,1,18.43457,5.21485q8.26026,5.21777,8.26367,12.33789,0,7.63184-5.7207,14.24609-5.72167,6.61963-11.06055,6.61524-10.42968,0-10.42578-7.37793,11.94873-3.27393,11.95117-11.332a12.03442,12.03442,0,0,0-4.57714-9.94532,17.00729,17.00729,0,0,0-10.9336-3.65332q-4.57617,0-8.64551,7.50489a31.92886,31.92886,0,0,0-4.06835,15.39062q0,11.19726,15.89257,19.207,15.8877,8.0127,38.52246,8.0127,19.31983,0,30.00391-11.70117,10.67871-11.69824,10.67969-31.54493,0-20.60742-15.51074-39.43115-15.5127-18.82324-38.14161-18.82519-28.22315,0-48.05664,31.67187-19.834,31.67212-19.834,85.85791,0,44.77734,22.75781,74.0293,22.75342,29.25732,56.06738,29.25488,15.50538,0,30.89356-10.81152,15.38232-10.81055,15.38379-27.34766,0-11.19141-10.9336-19.08008a40.01685,40.01685,0,0,0-23.90234-7.88574,17.51659,17.51659,0,0,0-12.20508,4.62305,14.42539,14.42539,0,0,0-5.085,11.0459q0,11.042,12.96778,11.043,3.81444,0,6.10253-4.79A22.85141,22.85141,0,0,0,4372.30957,624.64063Z"/><path class="cls-1" d="M4527.49121,644.48438q-10.93506-10.42822-18.81543-10.43067-4.32714,0-10.55273,6.86817-6.23292,6.8701-6.2295,10.93945,0,12.46728,14.62012,23.4043,14.61915,10.935,36.99707,10.93945,10.67871,0,22.88477-13.22852,12.20508-13.2246,12.20508-28.49218,0-12.9756-9.79-27.85645-9.791-14.88282-55.30371-51.51465-19.5835-15.51416-27.207-26.07617a82.51917,82.51917,0,0,1-11.82421-24.04,90.31158,90.31158,0,0,1-4.19532-26.96533q0-24.42187,19.833-45.28223,19.834-20.85645,48.31152-20.86035,22.37256,0,39.28516,10.81152,16.90724,10.81641,16.90918,29.63721,0,15.26367-11.56934,28.36475-11.57226,13.106-26.31738,13.10107-11.95458,0-20.08691-12.0835-8.14161-12.07909-8.13672-23.27685,0-13.9878,16.01855-13.9917a24.519,24.519,0,0,1,9.40821,1.78076,17.37409,17.37409,0,0,1-2.28809,3.05274q-9.15381,10.17773-9.1543,18.5708,0,6.10546,9.1543,9.79394,9.15381,3.69141,15.25586,3.68848,5.08448,0,9.1543-5.46875,4.06494-5.46753,4.06836-10.55762,0-17.29687-12.58692-30.90918-12.58593-13.60546-30.13086-13.60986-16.27587,0-27.207,12.59228-10.93651,12.59327-10.93359,26.83887,0,49.6062,45.25976,83.94971,48.05861,37.14551,48.05762,73.01172,0,20.8623-8.64453,35.99609a86.48983,86.48983,0,0,1-20.85059,24.93066q-12.20506,9.791-19.32519,11.957-7.12061,2.1577-22.1211,2.16211-16.01952,0-27.46191-15.77247-11.44189-15.77051-11.44238-33.834,0-12.97559,9.66308-23.4043,9.65919-10.42822,20.3418-10.43066a22.44753,22.44753,0,0,1,13.34863,4.07031q5.72169,4.07227,5.72168,10.17578Q4531.81445,638.37843,4527.49121,644.48438Z"/></g><g id="soulignage"><rect class="cls-2" x="870" y="184.5" width="3885" height="685"/></g><g id="icons"><g id="smiley1"><path class="cls-3" d="M5225,607.36836a120.12969,120.12969,0,0,1,111.03165,74.4,176.36945,176.36945,0,0,1-221.93674,0A119.82361,119.82361,0,0,1,5225,607.36836Z"/><path class="cls-4" d="M5048.1582,544.21017H5401.843a176.16138,176.16138,0,0,1-65.81015,137.5582,119.95522,119.95522,0,0,0-221.93674,0A175.88956,175.88956,0,0,1,5048.1582,544.21017Z"/><path class="cls-5" d="M5336.03165,681.76837a176.15954,176.15954,0,0,0,65.81015-137.5582H5048.1582a176.76511,176.76511,0,0,0,287.87345,137.5582ZM5225,209.47344c160.42149,0,290.52658,130.10508,290.52658,290.52656S5385.42149,790.52655,5225,790.52655,4934.47344,660.42149,4934.47344,500,5064.57852,209.47344,5225,209.47344Z"/><path d="M5225,200c-165.4207,0-300,134.5793-300,300s134.5793,300,300,300,300-134.5793,300-300S5390.4207,200,5225,200Zm0,581.05313c-154.97344,0-281.05313-126.07971-281.05313-281.05313S5070.02656,218.94687,5225,218.94687,5506.05313,345.02656,5506.05313,500,5379.97342,781.05313,5225,781.05313Z"/><path d="M5113.94688,376.8418a34.777,34.777,0,0,1,34.73672,34.73671h18.94687a53.68477,53.68477,0,0,0-107.36954,0h18.94687A34.78057,34.78057,0,0,1,5113.94688,376.8418Z"/><path d="M5336.05312,376.8418a34.777,34.777,0,0,1,34.73672,34.73671h18.94687a53.68477,53.68477,0,0,0-107.36954,0H5301.314A34.77906,34.77906,0,0,1,5336.05312,376.8418Z"/><path d="M5038.68477,544.21017a186.31526,186.31526,0,0,0,372.63048-.00118v-9.47345H5038.68477Zm87.10078,134.6367a110.46451,110.46451,0,0,1,198.53672.00233A167.63392,167.63392,0,0,1,5225,711.57851,164.92312,164.92312,0,0,1,5125.78555,678.84687Zm266.31915-125.1621a166.13367,166.13367,0,0,1-52.85039,112.75663,129.4135,129.4135,0,0,0-228.41369.00233,165.80607,165.80607,0,0,1-52.94648-112.759H5392.1047Z"/><path class="cls-6" d="M5183.89067,554.34985l4.17913-58.8417a71.50433,71.50433,0,0,0-42.27484,65.25814,22.44349,22.44349,0,0,0,22.4422,22.4422h24.92512A40.53829,40.53829,0,0,1,5183.89067,554.34985Z"/><path class="cls-7" d="M5265.10933,554.34985l-4.17913-58.8417a71.50433,71.50433,0,0,1,42.27484,65.25814,22.44349,22.44349,0,0,1-22.4422,22.4422h-24.92512A40.53829,40.53829,0,0,0,5265.10933,554.34985Z"/><path class="cls-6" d="M5256.61675,437.05405c-.66006-1.35467-1.2971-2.717-1.89576-4.10238a32.85149,32.85149,0,0,0-60.442,0c-.59866,1.38537-1.2357,2.74771-1.89576,4.10238-.53726,3.12379.0921-2.78609-8.49258,117.2958a40.71131,40.71131,0,1,0,81.21866,0C5256.52849,434.32169,5257.154,440.174,5256.61675,437.05405Z"/><path class="cls-7" d="M5265.10933,554.34985c-8.58084-120.02816-7.95532-114.172-8.49258-117.2958-.66006-1.35467-1.2971-2.717-1.89576-4.10238a32.91253,32.91253,0,0,0-29.61465-19.94777c.046.10361.09978.19955.142.29933.59866,1.38537,1.2357,2.74771,1.89577,4.10238.53726,3.12379-.08827-2.73236,8.49257,117.2958a40.655,40.655,0,0,1-46.20453,43.19586,40.70692,40.70692,0,0,0,75.67719-23.54742Z"/><path class="cls-8" d="M5334.23576,564.94926h-31.426a22.44676,22.44676,0,0,1-22.04309,18.25923h-24.929l.00384-.00768a40.62289,40.62289,0,0,1-23.95805,14.06475,74.26593,74.26593,0,0,0,66.87377,41.941H5408.493A74.25585,74.25585,0,0,0,5334.23576,564.94926Z"/><path class="cls-8" d="M5193.16228,583.20465h-24.92512a22.44442,22.44442,0,0,1-22.04693-18.25539h-31.426a74.25585,74.25585,0,0,0-74.25727,74.25728h109.73575a74.2608,74.2608,0,0,0,66.87377-41.94481A40.62578,40.62578,0,0,1,5193.16228,583.20465Z"/><path class="cls-9" d="M5346.2781,565.93552a74.38544,74.38544,0,0,1,18.5317,28.4365,18.873,18.873,0,0,1-17.82175,25.18608H5259.4604a74.69472,74.69472,0,0,1-12.05385-.98626,73.99118,73.99118,0,0,0,51.35073,20.6347H5408.493A74.26565,74.26565,0,0,0,5346.2781,565.93552Z"/><path class="cls-9" d="M5193.16228,583.20465h-18.36669a74.20438,74.20438,0,0,1-63.84974,36.35345H5043.1549a74.22981,74.22981,0,0,0-2.64793,19.64844h109.73575a74.2608,74.2608,0,0,0,66.87377-41.94481A40.62578,40.62578,0,0,1,5193.16228,583.20465Z"/><path class="cls-10" d="M5440.82469,375.58744a97.92747,97.92747,0,0,0-192.24768,0,79.26659,79.26659,0,0,0-48.15018,0,97.9298,97.9298,0,0,0-192.25152,0h-27.80715v37.39343h27.80715a97.9374,97.9374,0,0,0,186.1037,19.9708,32.85149,32.85149,0,0,1,60.442,0,97.9374,97.9374,0,0,0,186.1037-19.9708h27.80715V375.58744Zm-336.52554,86.26892a67.57029,67.57029,0,1,1,67.5722-67.5722A67.64587,67.64587,0,0,1,5104.29915,461.85636Zm240.4017-.07291a67.49929,67.49929,0,1,1,67.49929-67.49929A67.57627,67.57627,0,0,1,5344.70085,461.78345Z"/><path class="cls-11" d="M5440.82469,375.58744a98.03061,98.03061,0,0,0-73.12519-76.48308,97.852,97.852,0,0,1,33.82832,56.83464h-1.324a67.43453,67.43453,0,0,1-49.597,105.56814,98.11383,98.11383,0,0,1-68.18622,8.31989,97.91044,97.91044,0,0,0,158.404-56.84616h27.80715V375.58744Z"/><path d="M5468.63184,368.21928h-21.90878a105.30621,105.30621,0,0,0-203.59158-1.72308,85.93919,85.93919,0,0,0-37.25912,0,104.181,104.181,0,0,0-15.79166-33.26035,7.36841,7.36841,0,1,0-12.00013,8.554,89.56559,89.56559,0,0,1,15.11241,35.19833,7.368,7.368,0,0,0,9.47116,5.61822,71.55952,71.55952,0,0,1,43.67556,0,7.368,7.368,0,0,0,9.47116-5.61822,90.55925,90.55925,0,0,1,177.78,0,7.37032,7.37032,0,0,0,7.23385,5.96744h20.439v22.65711h-20.439a7.36688,7.36688,0,0,0-7.23385,5.97128,90.5687,90.5687,0,0,1-172.10035,18.455c-13.97265-32.48132-59.9853-32.52737-73.981,0a90.5687,90.5687,0,0,1-172.10035-18.455,7.36688,7.36688,0,0,0-7.23385-5.97128h-20.439V382.9556h20.439a7.36723,7.36723,0,0,0,7.23385-5.96744c12.37621-64.00325,86.74862-94.08608,140.12943-57.36807A7.36932,7.36932,0,0,0,5163.893,307.478a105.31374,105.31374,0,0,0-161.61607,60.74131h-21.90878A7.3676,7.3676,0,0,0,4973,375.58744v37.39343a7.37007,7.37007,0,0,0,7.36816,7.36817h21.90878c20.68458,81.32227,124.51813,106.92664,180.60828,44.03245-.47969,6.82323-1.086,15.43861-1.85355,26.345a79.04,79.04,0,0,0-42.53964,66.85457h-23.72779a81.71453,81.71453,0,0,0-81.62544,81.62545,7.36761,7.36761,0,0,0,7.36817,7.36816h64.05313a7.36817,7.36817,0,1,0,0-14.73633h-56.282a66.98716,66.98716,0,0,1,66.48616-59.521h25.992a29.85448,29.85448,0,0,0,27.481,18.25539H5189.862a48.15978,48.15978,0,0,0,16.29439,11.08295,67.37977,67.37977,0,0,1-55.91362,30.18261h-11.29785a7.36817,7.36817,0,0,0,0,14.73633h11.29785a82.19079,82.19079,0,0,0,71.01836-41.37685,47.37615,47.37615,0,0,0,6.47784,0,82.1861,82.1861,0,0,0,71.01836,41.37685H5408.493a7.36761,7.36761,0,0,0,7.36817-7.36816,81.71453,81.71453,0,0,0-81.62544-81.62545H5310.508a79.04,79.04,0,0,0-42.53964-66.85457c-.76752-10.90642-1.37386-19.5218-1.85355-26.345A105.321,105.321,0,0,0,5446.72306,420.349h21.90878A7.36761,7.36761,0,0,0,5476,412.98087V375.58744A7.37006,7.37006,0,0,0,5468.63184,368.21928Zm-315.46872,192.547a64.25564,64.25564,0,0,1,26.5868-51.98393c-3.354,47.27521-5.27668,53.43454.43364,67.058h-11.9464A15.139,15.139,0,0,1,5153.16312,560.76629Zm247.5588,71.07208H5298.75728a67.37977,67.37977,0,0,1-55.91362-30.18261,48.1072,48.1072,0,0,0,16.29055-11.08295h21.62863a29.85448,29.85448,0,0,0,27.481-18.25539h25.992A66.98716,66.98716,0,0,1,5400.72192,631.83837Zm-104.885-71.07208a15.13991,15.13991,0,0,1-15.074,15.074h-11.9464c5.61822-13.40468,3.84526-18.9308.43364-67.058A64.25564,64.25564,0,0,1,5295.83688,560.76629Zm-38.08036-5.89453a33.34008,33.34008,0,1,1-66.513.00384c7.08035-99.10181,7.92078-112.80967,8.24314-115.56122q.81165-1.70964,1.55806-3.45c8.87633-20.627,38.019-20.65773,46.9068,0q.7541,1.74417,1.55806,3.45C5249.83574,442.07361,5250.68385,455.89275,5257.75652,554.87176Z"/><path d="M5104.29915,319.34763a74.93653,74.93653,0,1,0,74.94037,74.93653A75.0225,75.0225,0,0,0,5104.29915,319.34763Zm0,135.14057a60.20213,60.20213,0,1,1,60.204-60.204A60.27088,60.27088,0,0,1,5104.29915,454.4882Z"/><path d="M5399.279,434.62869a7.364,7.364,0,0,0,10.08134-2.63642,74.90128,74.90128,0,1,0-26.8631,26.90148,7.36889,7.36889,0,1,0-7.46027-12.71009,60.1495,60.1495,0,1,1,21.60561-21.63247A7.36282,7.36282,0,0,0,5399.279,434.62869Z"/></g><g id="boite2"><path class="cls-5" d="M80.28108,553.55707H490.80334V884.27989H80.28108Z"/><path class="cls-5" d="M125.89467,604.43751H445.18976v228.962H125.89467Z"/><path class="cls-10" d="M137.29806,400.91577v50.88044l68.42038,25.44021v76.32065H365.366V477.23642l68.42037-25.44021V400.91577Z"/><path class="cls-12" d="M114.49127,400.91577h22.80679v50.88044H114.49127c-12.59584,0-22.80679-11.39-22.80679-25.44022S101.89543,400.91577,114.49127,400.91577Z"/><path class="cls-12" d="M456.59316,451.79621h-22.8068V400.91577h22.8068c12.59583,0,22.80679,11.39,22.80679,25.44022S469.189,451.79621,456.59316,451.79621Z"/><ellipse class="cls-13" cx="285.54221" cy="477.23642" rx="22.80679" ry="25.44022"/><path class="cls-10" d="M125.89467,744.3587,194.315,833.39946H125.89467Z"/><path class="cls-10" d="M331.1558,604.43751c20.0976,61.51209,61.04847,111.75939,114.034,139.92119V604.43751Z"/><path class="cls-10" d="M445.18976,744.3587l-68.42038,89.04076h68.42038Z"/><path class="cls-10" d="M239.92863,604.43751c-20.0976,61.51209-61.0485,111.75939-114.034,139.92119V604.43751Z"/><path class="cls-14" d="M285.54221,655.31794l17.61825,41.87459,39.39873,9.00584-28.50849,30.2993,5.7017,46.02135-34.21019-25.44021L251.332,782.519l5.7017-46.02135-28.50849-30.2993,39.39873-9.00584Z"/><path class="cls-10" d="M696.06447,693.47827,627.6441,680.75816V629.87772l68.42037-12.72011Z"/><path class="cls-10" d="M490.80334,693.47827h45.61359V820.67935H490.80334Z"/><path class="cls-12" d="M182.91165,744.3587h22.80679v25.44022H182.91165Z"/><path class="cls-12" d="M365.366,744.3587h22.80679v25.44022H365.366Z"/><path d="M114.49127,591.7174V846.11957H456.59316V591.7174Zm22.80679,25.44021h85.936c-18.54551,44.009-48.47514,80.819-85.936,105.69136Zm0,203.52174V778.703l32.226,41.97635Zm296.4883,0h-32.226l32.226-41.97635Zm0-203.52174V722.849c-37.38207-24.96071-67.27305-61.74753-85.879-105.69136Zm-6.40871,130.839-55.85382,72.68271H199.56062L143.684,747.99664c47.07668-29.147,83.86749-75.28608,104.32967-130.839h75.05714C343.52717,672.70658,380.30954,718.84516,427.37765,747.99664Z"/><path d="M285.54221,515.39675c18.89377,0,34.21019-17.085,34.21019-38.16033S304.436,439.0761,285.54221,439.0761,251.332,456.16105,251.332,477.23642s15.31642,38.16033,34.21019,38.16033Zm0-50.88044c6.29792,0,11.4034,5.695,11.4034,12.72011s-5.10548,12.72011-11.4034,12.72011-11.40339-5.695-11.40339-12.72011S279.2443,464.51631,285.54221,464.51631Z"/><path d="M217.56656,702.68761a13.72465,13.72465,0,0,0,3.10172,12.72011l24.26643,25.79638-4.89207,39.57226c-.86122,6.95912,3.49814,13.37939,9.73689,14.34006a10.482,10.482,0,0,0,7.88136-2.01426l27.8813-20.75921,27.8813,20.73379c5.24146,3.89468,12.321,2.31228,15.8125-3.5344a13.8984,13.8984,0,0,0,1.80575-8.79141l-4.89207-39.57226,24.26643-25.79638a13.77954,13.77954,0,0,0,.32434-17.98533,11.14082,11.14082,0,0,0-5.8892-3.63886l-33.79968-7.73385-15.18933-36.09968c-2.67922-6.35773-9.47161-9.089-15.17122-6.10041a12.14359,12.14359,0,0,0-5.46892,6.10041l-15.18933,36.09968-33.79968,7.73385a11.99085,11.99085,0,0,0-8.66658,8.92951Zm52.64949,6.95791a11.71677,11.71677,0,0,0,7.98239-7.047l7.34377-17.33749,7.29817,17.33749a11.71677,11.71677,0,0,0,7.98239,7.047l18.02876,4.13405-12.70339,13.50876a13.61464,13.61464,0,0,0-3.421,10.952l2.22366,18.01168-13.1139-9.7563a10.43286,10.43286,0,0,0-12.65778,0l-13.1139,9.7563,2.22366-18.01168a13.61464,13.61464,0,0,0-3.421-10.952l-12.68057-13.45786Z"/><path d="M309.36815,241.5651l-4.39889-6.59834c-14.08529-13.93066,43.28088-15.71167,30.79224,0s15.60723,3.66491,29.69252,17.59557,44.69143,12.05619-78.08033-1.09973c5.55836-6.99284,22.02669-.55188,21.99446-9.8975,0-.57241-84.65587,19.255-84.67867,18.69529l-41.77783-48.20006v87.09459c.00769,34.614,14.08122,67.35835,38.26978,89.04074H114.49126c-18.89376,0-34.21019,17.085-34.21019,38.16033s15.31643,38.16032,34.21019,38.16032H135.4507L194.315,486.40763V540.837H68.87769V897H502.20674V833.39946h45.61358V769.79892h34.21019c6.29792,0,11.4034-5.695,11.4034-12.72011V668.03805H616.2407v12.72011c.00257,6.21783,4.0345,11.52231,9.53322,12.542l68.42038,12.72011a9.312,9.312,0,0,0,1.87017.17808c6.29792,0,11.4034-5.695,11.4034-12.7201V617.15761c-.00291-7.02511-5.1107-12.71748-11.40866-12.71423a10.24843,10.24843,0,0,0-1.86491.17221L625.77392,617.3357c-5.49872,1.01971-9.53065,6.32419-9.53322,12.542v12.72011H582.03051c-6.29791,0-11.40339,5.695-11.40339,12.72011V744.3587h-22.8068V680.75816H502.20674V540.837H376.76938V486.40763l58.86432-21.89132h20.95946c18.89374,0,34.21018-17.08495,34.21018-38.16032s-15.31644-38.16033-34.21018-38.16033H349.903c24.18857-21.68242,38.26209-54.42674,38.26979-89.04076V212.06032l-70.00685,36.10311c0,.55969,23.09418,24.72124,23.09418,25.29363-.18879,21.28508-39.97649,25.083-20.89473,25.29363s-12.28575,24.58425-12.09695,3.29917,50.97372-53.67582,31.892-53.88643c-8.63689-.09531-48.55812-19.632-54.98615-13.19667l85.7784-48.38781c-3.43528-2.73759-19.31693,3.39495-23.09419,5.49861l-62.31622-8.90462-22.36245,51.79382c-3.77726-2.10366-19.65889-52.22512-23.09418-49.48754ZM125.89467,439.0761h-11.4034c-6.29793,0-11.4034-5.695-11.4034-12.72011s5.10547-12.72011,11.4034-12.72011h11.4034ZM639.04749,640.65166l45.61359-8.4716v46.27576l-45.61359-8.4716ZM502.20674,706.19837h22.80679V807.95924H502.20674Zm-57.017-292.56249h11.4034c6.29791,0,11.40339,5.695,11.40339,12.72011s-5.10548,12.72011-11.40339,12.72011h-11.4034ZM479.4,566.27718v305.2826H91.68448V566.27718Zm-57.017-152.6413V442.625l-68.42038,25.44022V540.837H217.12184V468.06522L148.70146,442.625V413.63588ZM375.73168,161.3198l36.183,28.82377-33.526-5.34245c-6.2341-.99757-12.01282,3.831-12.90712,10.785a14.16279,14.16279,0,0,0-.11556,1.80795v71.05451l-60.57485-67.56921ZM365.13791,304.16662c-2.469,49.03535-40.10672,86.55371-84.06622,83.79963-40.51063-2.538-72.84988-38.61138-75.12518-83.79963l79.5957-88.78635ZM266.29328,200.87934l-60.57484,67.5692V197.394c0-7.02512-5.10548-12.72011-11.4034-12.72011a9.92816,9.92816,0,0,0-1.61928.1272l-33.526,5.34245,36.183-28.82377Z"/><path d="M114.49127,299.1549"/><path d="M182.91165,744.3587h22.80679v25.44022H182.91165Z"/><path d="M365.366,744.3587h22.80679v25.44022H365.366Z"/><path d="M730.84854,327.13513a7.54352,7.54352,0,0,0-3.91164-4.81589l-.12622-.06253c-20.82279.98155-62.24318-11.59015-107.03366-33.77934s-79.87207-47.51655-91.72314-64.68473l-.09467-.04689a7.51109,7.51109,0,0,0-6.19342-.19016,8.16929,8.16929,0,0,0-4.48366,4.54889L455.2109,384.03907c-20.09493,52.799,1.58784,111.3205,50.17265,135.3894s108.26329,5.85371,138.10043-42.119L729.93046,333.4504A8.15633,8.15633,0,0,0,730.84854,327.13513Zm-219.45255,8.874a7.08294,7.08294,0,0,1,5.583-7.95779,6.446,6.446,0,0,1,7.5867,5.4689c1.00832,6.8292,4.91582,11.97078,11.58154,15.273,4.51219,2.23533,13.07518,5.53516,19.72678,2.48019a6.43289,6.43289,0,0,1,8.70881,3.38231,7.09468,7.09468,0,0,1-3.58849,9.04827c-8.73186,4.02163-19.43328,3.13455-30.9425-2.56711C519.51286,355.91591,513.07453,347.23655,511.396,336.00915Zm49.59385,133.78141c-19.59211,9.04756-42.99871,4.73413-57.39557-12.3125-14.38107-17.03884-15.29115-41.5179-3.90256-60.26269a6.54712,6.54712,0,0,1,4.91034-3.14942,6.077,6.077,0,0,1,5.26782,2.11805l53.52483,63.37789a6.47761,6.47761,0,0,1,1.30512,5.655A6.79,6.79,0,0,1,560.98984,469.79056Zm57.69667-65.08205c-16.05628-3.95981-27.06815-14.7308-24.59913-24.0776,2.46114-9.35071,17.49244-13.71347,33.54082-9.75757,16.06035,3.95159,27.07605,14.73471,24.607,24.08151C649.77026,404.29343,634.74686,408.6601,618.68651,404.70851Z"/></g><g id="smiley_2" data-name="smiley 2"><path class="cls-15" d="M434.29812,252.01247A149.01247,149.01247,0,1,1,285.28566,103,149.0111,149.0111,0,0,1,434.29812,252.01247Z"/><path class="cls-16" d="M358.88239,322.22586a114.10936,114.10936,0,0,1-142.47771,0,18.036,18.036,0,0,1-.432-27.7784c.09095-.07731.18417-.15689.2774-.23647a18.07833,18.07833,0,0,1,23.05127-.30014,77.65978,77.65978,0,0,0,96.68439,0,18.07829,18.07829,0,0,1,23.05127.30014c.09323.07958.18645.15916.2774.23647A18.03745,18.03745,0,0,1,358.88239,322.22586Z"/><path class="cls-17" d="M359.3144,294.44746c-.09322-.07731-.18417-.15689-.2774-.23647a18.0784,18.0784,0,0,0-23.05127-.30241,77.32413,77.32413,0,0,1-50.81149,16.83257v36.42547a113.61574,113.61574,0,0,0,73.70587-24.94076A18.036,18.036,0,0,0,359.3144,294.44746Z"/><path class="cls-18" d="M287.64353,362.328a129.23579,129.23579,0,0,1-80.71811-28.30591,33.16789,33.16789,0,0,1-.78217-51.08206l.28876-.24784a33.2612,33.2612,0,0,1,42.32131-.60027,62.70409,62.70409,0,0,0,77.78043,0,33.26309,33.26309,0,0,1,42.33267.61164l.28195.241a33.1712,33.1712,0,0,1-.78672,51.07751A129.24052,129.24052,0,0,1,287.64353,362.328Zm-59.71776-57.2803a2.82562,2.82562,0,0,0-1.84856.673l-.28876.24556a2.80107,2.80107,0,0,0-.99818,2.22828,2.84584,2.84584,0,0,0,1.09367,2.23509,98.97326,98.97326,0,0,0,123.51691,0,2.843,2.843,0,0,0,1.096-2.23737,2.80283,2.80283,0,0,0-1.01182-2.23509l-.28194-.241a2.9614,2.9614,0,0,0-3.76306.01137,92.79208,92.79208,0,0,1-115.59289,0A3.0906,3.0906,0,0,0,227.92577,305.04768Z"/><path class="cls-14" d="M369.14837,282.94456l-.28195-.241a33.26908,33.26908,0,0,0-42.33494-.61164,62.29277,62.29277,0,0,1-41.35724,13.46742v30.32955c.8231.02046,1.64392.03638,2.46929.03638A92.83479,92.83479,0,0,0,345.44,305.72753a2.96151,2.96151,0,0,1,3.76306-.01364l.28194.241a2.79915,2.79915,0,0,1,1.00955,2.23736,2.83969,2.83969,0,0,1-1.09368,2.23737,98.87221,98.87221,0,0,1-61.75959,21.63019c-.8231,0-1.64619-.01365-2.467-.03411V362.303q1.23125.02388,2.467.025a129.25159,129.25159,0,0,0,80.72039-28.30591,33.1712,33.1712,0,0,0,.78672-51.07751Z"/><path class="cls-19" d="M261.3408,176.9719l-15.64113-15.64112-15.316,15.316-15.316-15.316L199.42659,176.9719l15.31825,15.316-15.31825,15.316L215.06772,223.245l15.316-15.316,15.316,15.316,15.64113-15.64112-15.316-15.316Z"/><path class="cls-20" d="M371.14472,176.9719,355.5036,161.33078l-15.316,15.316-15.316-15.316L309.23051,176.9719l15.316,15.316-15.316,15.316L324.87164,223.245l15.316-15.316,15.316,15.316,15.64112-15.64112-15.31825-15.316Z"/><path class="cls-18" d="M317.71615,248.52a32.4305,32.4305,0,1,1-32.43049-32.4305A32.43119,32.43119,0,0,1,317.71615,248.52Z"/><path class="cls-14" d="M285.28566,216.08949c-.03638,0-.075.00228-.11142.00228v64.85644c.03866,0,.075.00227.11142.00227a32.4305,32.4305,0,0,0,0-64.861Z"/></g></g><g id="Ancrage"><rect class="cls-21" x="5624" y="999" width="1" height="1"/><rect class="cls-21" x="5624" width="1" height="1"/><rect class="cls-21" y="999" width="1" height="1"/><rect class="cls-21" width="1" height="1"/></g></svg>