<svg xmlns="http://www.w3.org/2000/svg" viewBox="0 0 5625 1000"><title>logo_wonderland</title><g id="b12b3aac-834b-49d7-b593-761512c408c2" data-name="Texte"><path d="M1342.294,290.98291q-4.02247,15.48486-9.45411,38.13086-4.01513,21.89868-12.98632,64.93311-13.46925,55.4978-42.78809,161.58691-30.0293,107.98242-43.02539,161.21094-9.69433,39.6416-18.209,63.42968-11.124,31.33447-33.89746,31.35938-13.5249.01318-24.45019-11.67676-12.82617-13.5747-13.7959-35.84375-10.95849-43.39014-13.83105-70.94629-10.52052-80.75684-29.18165-242.66845-15.35155,75.8811-33.084,136.29052-26.48877,90.61085-34.74023,142.3291a71.05845,71.05845,0,0,1,2.15234,17.73829q.02343,23.40674-13.0127,38.13476-11.376,12.46728-25.13769,12.47949-17.32324.01758-28.72266-13.93652-12.35449-15.46143-12.85351-42.2627l-7.39746-44.15332q-7.88818-58.87353-25.7959-175.86425-15.7456-89.439-52.68262-254.72364a85.2082,85.2082,0,0,1-2.15332-18.87011q-.022-22.64649,10.87891-35.86768,9.71484-12.085,23.47754-12.10107,18.0293-.01758,28.73242,24.12841,5.94141,13.21069,13.57129,47.92237,23.35254,106.4165,52.73632,310.208,18.9082-73.62012,38.50586-173.66163,15.813-81.54345,25.749-115.90039,23.64258-82.303,48.32226-82.32959,23.25147-.02269,33.96875,40.353,5.23389,19.24512,10.26953,69.81738,1.43848,15.47975,6.24219,75.86036,5.04639,64.9182,30.125,236.25048,25.05615-93.62548,67.3584-269.9375,2.59863-10.56444,12.27051-69.46142,6.83789-42.2754,17.25586-66.82471,11.36279-26.4265,30.34375-26.45068,14.46972-.01392,23.97754,14.13086,9.501,14.14525,9.52636,36.41406Q1350.56593,258.13672,1342.294,290.98291Z" style="fill:#f30;stroke:#000;stroke-miterlimit:10;stroke-width:14px"/><path d="M1576.7002,798.041q-70.2334.06883-119.64356-64.04981-52.73877-68.63964-52.84473-177.72558-.1245-128.32471,50.31055-234.064,56.58839-118.9497,142.71777-119.0332,82.80177-.07985,124.14844,60.271,41.34229,60.353,41.46,181.51026.12451,128.33422-46.27832,232.55029Q1663.064,797.96143,1576.7002,798.041Zm20.63964-492.58545q-52.91161.05127-90.55664,81.61572-35.28222,76.281-35.18847,169.12891.06151,62.65869,30.70605,101.88085,29.45361,37.71826,74.30078,37.67188,52.19385-.0498,86.99707-81.61133,31.95851-74.38623,31.86719-169.12646-.07764-79.26343-22.41016-110.1919Q1651.67334,305.40259,1597.33984,305.45557Z" style="fill:#f30;stroke:#000;stroke-miterlimit:10;stroke-width:14px"/><path d="M2182.29785,681.57715q.01905,18.87891-3.97558,59.64062-4.70216,48.69581-34.59375,48.72461-16.60987.01613-37.51661-29.78222-91.47509-130.88086-206.53906-367.05323-1.32861,98.14307-1.30664,120.40577.02784,29.82128.917,89.83105.8877,60.01319.918,89.83105.10693,111.3501-34.05859,111.37989-17.32177.01611-27.77637-16.959-9.26806-15.09228-9.28906-36.60351-.01319-15.09083,1.498-45.67188,1.51025-30.57421,1.498-45.67187-.02051-22.2671.88379-66.8086.90234-44.5327.88477-66.80859-.02344-23.77881-.78125-71.71387-.75879-47.92823-.78125-71.71338-.022-22.64647-2.91309-67.56-2.89014-44.90993-2.91308-67.55957-.022-22.64649,12.18066-40.39795,12.20068-17.74878,27.86133-17.76758,17.55615-.01685,38.958,48.27539,107.95313,244.4795,212.97656,398.75244.22266-12.0747.18164-57.37109-.18018-186.07545-2.61621-250.999-.4878-10.94165-3.12305-40.76074-2.40089-26.41334-2.41406-41.5166-.04981-52.08691,34.59082-52.12109,38.6704-.03736,38.8584,189.81689.00293,4.158-.417,59.63672Q2182.25245,634.77758,2182.29785,681.57715Z" style="fill:#f30;stroke:#000;stroke-miterlimit:10;stroke-width:14px"/><path d="M2298.38574,778.09082q-14.00244-.36621-23.5039-15.26269-9.50683-14.89747-9.52539-36.03711-.03663-37.73877,2.14453-113.23536,2.17823-75.48925,2.14355-113.23584-.03955-41.896-1.18945-125.688-1.14845-83.79126-1.18945-125.688-.019-20.75317,12.53515-41.34229,12.55371-20.57958,26.791-20.59668,7.82958-.00732,39.40918,23.36377,36.80127,27.90089,43.68652,31.28516,69.55224,35.79566,118.74023,110.85351,58.6875,89.398,58.7959,197.72413.06446,65.30419-20.04687,124.19824-20.11084,60.03369-55.18946,96.30176-39.34716,40.80321-110.76269,40.87207-17.32325.01611-39.86816-7.8877Q2314.05907,793.92334,2298.38574,778.09082Zm132.9668-388.1416q-23.03907-22.99586-98.77246-72.37354l.3623,373.66944a60.4766,60.4766,0,0,0,21.249,14.13379,72.191,72.191,0,0,0,26.69726,4.69238q51.249-.0498,73.53028-22.71875,21.09375-21.53467,33.51562-58.53613a239.57849,239.57849,0,0,0,12.38184-77.01075Q2500.22559,458.20289,2431.35254,389.94922Z" style="fill:#f30;stroke:#000;stroke-miterlimit:10;stroke-width:14px"/><path d="M2873.96387,289.87451a25.01687,25.01687,0,0,1-9.9668-2.25488q-38.45361-16.56738-74.75488-16.53516a176.79467,176.79467,0,0,0-38.19531,4.56641,291.82793,291.82793,0,0,0-43.40625,13.63037q.04833,50.20313-1.99024,149.09229,13.28321-1.51686,92.75684-14.05567,45.30908-7.20923,57.41113-7.22705,13.99657-.01319,23.97754,14.13086,9.97851,14.14527,10.001,37.54639.04393,44.92089-30.082,50.98388-18.98437,2.28369-56.70019,7.6045-33.687,6.07323-101.53516,14.81835-1.61573,47.94-1.585,77.377.07177,73.98194,5.53809,84.165,2.61327,4.90722,29.90039,4.87793,14.70849-.01465,44.36719-1.17481,29.65575-1.16162,44.36816-1.17578,4.74316-.00439,13.99609-2.27832,9.2505-2.27343,13.75879-2.27832,13.75782-.01319,23.502,12.43359,11.1621,13.957,11.18945,39.24317.041,42.26807-27.71094,50.60449-23.72168,7.188-98.458,7.2666-77.35254.07617-100.87011-33.11621-25.89844-36.58154-26.01563-158.50293-.0498-50.57373,4.47949-151.92529,4.52784-101.34814,4.4795-151.54834-.01319-13.207-2.41016-39.063-2.40089-25.84644-2.41113-39.063-.05566-57.3684,33.16211-57.40381,10.437-.01024,19.22753,9.417a341.71036,341.71036,0,0,1,52.30079-16.46924,218.01,218.01,0,0,1,46.85449-5.51856q59.79052-.05785,95.63867,21.79883,21.83936,13.196,21.875,47.91455.01905,19.63038-8.50781,34.7334Q2888.67235,289.86329,2873.96387,289.87451Z" style="fill:#f30;stroke:#000;stroke-miterlimit:10;stroke-width:14px"/><path d="M3211.08789,777.96094q-12.81151.01171-23.50391-15.83008-71.99414-107.12109-158.16308-148.55957,2.71583,109.83252,2.72851,121.91113.02052,21.51417-9.45507,36.4336-9.479,14.915-23.71192,14.93164-14.23681.01464-23.74121-14.88575-9.50831-14.89746-9.52637-36.415-.02783-28.30812.39258-84.73633.41748-56.42139.39258-84.73731l.17871-304.59668q-.02343-24.531,9.21-44.54736,12.07617-25.67579,33.43262-23.05664,57.66212,6.73828,59.08594,7.11426,33.22119,6.38964,56.49316,25.23388,101.3877,81.05713,101.50781,201.0791.04835,49.45093-21.15039,87.39844-21.20068,37.95411-63.64453,64.03906,62.92675,55.8047,94.78027,113.89551a68.5607,68.5607,0,0,1,8.33692,33.585q.0205,21.14357-9.93067,36.4336Q3224.85059,777.94726,3211.08789,777.96094ZM3058.541,303.2832q-1.90284-.36914-27.7627-2.99218l.19434,200.42236q5.92821.375,10.43945.36767,58.12792-.05712,86.10547-23.10742,12.09082-9.82251,22.1582-26.06543,10.06788-16.23413,10.06055-24.54345-.041-42.26807-33.77051-81.49512Q3093.9004,308.91382,3058.541,303.2832Z" style="fill:#f30;stroke:#000;stroke-miterlimit:10;stroke-width:14px"/><path d="M3531.35059,758.77832q-27.98,19.65673-86.56836,35.18652-53.61036,14.39063-88.01075,14.42774-58.13377.05567-58.209-81.09375.00587,6.42188,4.62891-119.65528,6.00879-163.81347,5.81543-364.61669-.02052-21.51417,9.33691-36.6211,9.3545-15.10107,23.59277-15.12109,14.23536-.01392,23.74121,15.07519,9.501,15.09156,9.5254,36.60254.19482,201.18384-6.04688,370.65674-2.105,30.20361-4.418,92.47852,56.231-1.55861,144.21582-43.92383a24.01917,24.01917,0,0,1,10.43653-2.65235q14.94726-.01464,24.21777,17.33887a72.27743,72.27743,0,0,1,8.33789,34.7168Q3551.97706,744.04395,3531.35059,758.77832Z" style="fill:#f90;stroke:#000;stroke-miterlimit:10;stroke-width:14px"/><path d="M3877.51563,784.1084q-18.74707-1.11475-37.793-70.168-12.6211-44.51953-21.69043-102.64355-17.55762,4.17333-57.41016,8.35937-37.48828,4.19385-57.40918,9.86914-10.875,41.53564-37.84082,124.96973-10.418,27.186-28.91992,27.20508-13.05176.01317-23.50293-14.13086-10.45752-14.146-10.47461-36.03614-.01905-19.2495,34.51367-130.62988a68.40089,68.40089,0,0,1-2.86816-21.88867q.92724-18.11865,22.9873-28.33106,33.59913-92.88354,74.78906-192.56884,59.17383-143.10353,72.93946-143.12207,26.09619-.02563,34.92676,50.166,4.78125,40.38794,15.06445,121.145,14.5752,108.68994,35.59375,248.70117,1.667,10.57032,12.14941,49.81153,8.57227,32.45654,8.58887,48.68164.0205,21.89355-10.28613,36.62207Q3890.5664,784.85058,3877.51563,784.1084Zm-88.875-387.17236q-18.457,50.60229-50.87891,137.81689,10.67432-3.7793,33.21191-6.07129,26.56788-2.66161,33.4502-4.18457Q3798.68164,475.44166,3788.64063,396.936Z" style="fill:#f90;stroke:#000;stroke-miterlimit:10;stroke-width:14px"/><path d="M4340.52832,679.48438q.01758,18.87889-3.97559,59.64062-4.70214,48.69434-34.59375,48.72363-16.61132.01613-37.5166-29.78222-91.47656-130.88086-206.54-367.05323-1.32861,98.14307-1.30761,120.40674.0293,29.82129.91894,89.83106.88478,60.01171.917,89.83007.1084,111.3501-34.05859,111.37989-17.32177.01611-27.77539-16.959-9.26807-15.09081-9.29-36.60254-.01464-15.09081,1.499-45.67285,1.51026-30.57421,1.49805-45.6709-.022-22.26708.88379-66.80859.90234-44.53417.88379-66.80859-.02344-23.77881-.78027-71.71436-.75879-47.92823-.78223-71.71387-.022-22.64647-2.91309-67.55957-2.8916-44.90991-2.91211-67.55957-.022-22.64647,12.17969-40.39843,12.19922-17.74878,27.86133-17.76709,17.55615-.01685,38.958,48.27539,107.95165,244.47948,212.97754,398.75195.22119-12.0747.18164-57.37109-.18165-186.07472-2.61719-250.999-.4878-10.94165-3.12305-40.76025-2.40087-26.41334-2.41308-41.51709-.05127-52.08691,34.58984-52.12061,38.6704-.03808,38.8584,189.8169.00439,4.158-.416,59.63672Q4340.48292,632.68359,4340.52832,679.48438Z" style="fill:#f90;stroke:#000;stroke-miterlimit:10;stroke-width:14px"/><path d="M4456.61621,775.99805q-14.00391-.36768-23.50488-15.26367-9.50684-14.89747-9.52539-36.03711-.03663-37.73877,2.14355-113.23536,2.17969-75.48779,2.14453-113.23535-.041-41.896-1.18945-125.688-1.1499-83.792-1.18945-125.688-.0205-20.75317,12.53515-41.34229,12.55225-20.58031,26.791-20.59668,7.82959-.00805,39.4082,23.36328,36.80127,27.90162,43.6875,31.28565,69.55226,35.79566,118.74024,110.85351,58.686,89.39723,58.79687,197.72364.063,65.30419-20.04785,124.19824-20.11084,60.03516-55.18945,96.30176-39.34863,40.80321-110.76367,40.87207-17.32179.01756-39.86817-7.8877Q4472.28907,791.82959,4456.61621,775.99805ZM4589.582,387.85547q-23.03905-22.99512-98.77246-72.37354l.36231,373.66944a60.48529,60.48529,0,0,0,21.249,14.13379,72.213,72.213,0,0,0,26.69629,4.69336q51.25048-.04982,73.53125-22.71973,21.09228-21.53467,33.5166-58.53613a239.625,239.625,0,0,0,12.38086-77.00977Q4658.45508,456.10865,4589.582,387.85547Z" style="fill:#f90;stroke:#000;stroke-miterlimit:10;stroke-width:14px"/></g><g id="a97f317b-70da-49da-9f39-75c09e8be6c9" data-name="soulignage"><rect x="792" y="920" width="4041" height="26" rx="12.99999" style="fill:#09c;stroke:#000;stroke-miterlimit:10;stroke-width:6px"/></g><g id="ec4232ea-a780-48f6-94f1-709490513d63" data-name="icons"><g id="ba0c3791-4fdc-4cdf-8d57-35b065246046" data-name="compass"><g id="b3a06021-de0e-4c52-8074-d33a2e25fde1" data-name="boussole"><path d="M5179,279.998c-190.53846,0-345,154.46178-345,345s154.46154,345,345,345,345-154.46179,345-345S5369.53846,279.998,5179,279.998Zm0,603.2563c-142.62986,0-258.25431-115.62439-258.25431-258.25431S5036.37014,366.74567,5179,366.74567,5437.25431,482.37006,5437.25431,625,5321.62986,883.25429,5179,883.25429Z" style="fill:gray;stroke:#000;stroke-miterlimit:10;stroke-width:8.5px"/></g><g id="bc086107-1ce3-45c9-97a5-dbf141049489" data-name="aiguilles"><g id="b435fec2-c4a1-46f2-a376-0bd79cfbec0f" data-name="blue"><g id="bc8f4937-d910-4c73-941d-371eb7e3caaa" data-name="blueC"><path d="M5179,624.99756v334.165l-78.7613-255.40367Z" style="fill:#0cf;stroke:#000;stroke-miterlimit:10;stroke-width:4px"/><path d="M5179,290.83257l78.76132,255.40509L5179,624.99756Z" style="fill:#0cf;stroke:#000;stroke-miterlimit:10;stroke-width:4px"/><path d="M5513.165,624.99756l-255.40367,78.76132L5179,624.99756Z" style="fill:#0cf;stroke:#000;stroke-miterlimit:10;stroke-width:4px"/><path d="M5100.2387,546.23766,5179,624.99756H4844.835Z" style="fill:#0cf;stroke:#000;stroke-miterlimit:10;stroke-width:4px"/></g><g id="a8d17819-5719-4926-aa4d-1dc16bf50de3" data-name="BlueF"><path d="M5179,290.83257v334.165l-78.7613-78.75992Z" style="fill:#09c;stroke:#000;stroke-miterlimit:10;stroke-width:4px"/><path d="M5179,624.99756l78.76132,78.76132L5179,959.16255Z" style="fill:#09c;stroke:#000;stroke-miterlimit:10;stroke-width:4px"/><path d="M5513.165,624.99756H5179l78.76132-78.75992Z" style="fill:#09c;stroke:#000;stroke-miterlimit:10;stroke-width:4px"/><path d="M5179,624.99756l-78.7613,78.76132L4844.835,624.99756Z" style="fill:#09c;stroke:#000;stroke-miterlimit:10;stroke-width:4px"/></g></g><g id="f37eb167-c613-4d07-bf3c-cadd725c33a3" data-name="red"><g id="b3320451-9094-44c2-ab8e-1251a094d08f" data-name="redC"><path d="M5356.43851,802.43605,5179,624.99754h83.64239Z" style="fill:#ffcf0d;stroke:#000;stroke-miterlimit:10;stroke-width:4px"/><path d="M5179,624.99754v83.64239l-177.43851,93.79612Z" style="fill:#ffcf0d;stroke:#000;stroke-miterlimit:10;stroke-width:4px"/><path d="M5179,624.99754h-83.6424L5001.56149,447.559Z" style="fill:#ffcf0d;stroke:#000;stroke-miterlimit:10;stroke-width:4px"/><path d="M5356.43851,447.559,5179,624.99754v-83.6424Z" style="fill:#ffcf0d;stroke:#000;stroke-miterlimit:10;stroke-width:4px"/></g><g id="be636e4f-5a18-4e37-8b03-e6af9a342a33" data-name="RedF"><path d="M5179,541.35514v83.6424L5001.56149,447.559Z" style="fill:#f90;stroke:#000;stroke-miterlimit:10;stroke-width:4px"/><path d="M5179,624.99754,5001.56149,802.43605l93.79611-177.43851Z" style="fill:#f90;stroke:#000;stroke-miterlimit:10;stroke-width:4px"/><path d="M5356.43851,802.43605,5179,708.63993V624.99754Z" style="fill:#f90;stroke:#000;stroke-miterlimit:10;stroke-width:4px"/><path d="M5356.43851,447.559l-93.79612,177.43852H5179Z" style="fill:#f90;stroke:#000;stroke-miterlimit:10;stroke-width:4px"/></g></g></g></g><g id="bf20c2d4-7c32-477d-ae98-dbca3d36ffb3" data-name="personages"><g id="f2104818-3070-4cd8-8402-dc07c802dd9d" data-name="fairy tail"><path d="M546.99382,448.53652v84.22472H23.74775V448.53652A52.64076,52.64076,0,0,1,76.3882,395.89607H494.35337A52.64075,52.64075,0,0,1,546.99382,448.53652Z" style="fill:#06c"/><path d="M504.88146,448.53652v347.427a10.52787,10.52787,0,0,1-10.52809,10.52809H76.3882a10.52788,10.52788,0,0,1-10.52809-10.52809v-347.427A10.52788,10.52788,0,0,1,76.3882,438.00843H494.35337A10.52786,10.52786,0,0,1,504.88146,448.53652Z" style="fill:#fff"/><path d="M23.74775,795.96348V532.76124A52.64075,52.64075,0,0,1,76.3882,480.12079H494.35337a52.64075,52.64075,0,0,1,52.64045,52.64045V795.96348a52.64076,52.64076,0,0,1-52.64045,52.64045H76.3882A52.64077,52.64077,0,0,1,23.74775,795.96348Z" style="fill:#09c"/><path d="M504.88146,743.323A52.64076,52.64076,0,0,1,452.241,795.96348H76.3882A52.64077,52.64077,0,0,1,23.74775,743.323v52.64045A52.64077,52.64077,0,0,0,76.3882,848.60393H494.35337a52.64076,52.64076,0,0,0,52.64045-52.64045V532.76124a52.65765,52.65765,0,0,0-42.11236-51.58552Z" style="fill:#06c"/><path d="M301.07553,538.02528v7.97925A42.17245,42.17245,0,0,0,254.713,564.66979,63.17171,63.17171,0,1,0,239.29565,689.1034H332.6598V538.02531a15.79214,15.79214,0,0,0-31.58427,0Z" style="fill:#fff"/><path d="M216.24334,790.69944V782.7202A42.17253,42.17253,0,0,1,169.88079,764.055a63.17171,63.17171,0,1,1-15.41733-124.4336h93.36415V790.69944a15.79214,15.79214,0,0,1-31.58427,0Z" style="fill:#fff"/><path d="M152.34205,721.74045V606.98427H343.88484V721.74045Z" style="fill:#9aa3b1"/><path d="M201.14607,664.36236a21.05576,21.05576,0,0,0,21.05618,21.05618h31.58427a10.52789,10.52789,0,0,0,10.52809-10.52809V653.83427a10.52789,10.52789,0,0,0-10.52809-10.52809H222.20225A21.05576,21.05576,0,0,0,201.14607,664.36236Z" style="fill:#67788c"/><path d="M152.341,721.74045V695.94663h191.5428v25.79382Z" style="fill:#7e8b9e"/><path d="M85.33708,664.36236c0,18.57682,55.35038,66.53542,66.41961,66.53542s17.80511-31.31686,17.80511-66.53542-6.73482-66.53542-17.80511-66.53542S85.33708,645.78556,85.33708,664.36236Z" style="fill:#f30"/><path d="M164.57885,616.986c0,54.71238-55.28721,82.6655-70.5582,65.42365,16.03217,21.35413,49.40938,48.48817,57.736,48.48817,11.07029,0,17.80511-31.31686,17.80511-66.53542C169.5618,646.31511,167.79309,629.2954,164.57885,616.986Z" style="fill:#e8180c"/><path d="M295.89887,595.25624v11.41054a9.92854,9.92854,0,0,0,10.00169,9.85456h11.5809a9.92853,9.92853,0,0,1,10.00168,9.85456v11.41054a9.92853,9.92853,0,0,1-10.00168,9.85455h-11.5809a9.92855,9.92855,0,0,0-10.00169,9.85456v11.41054a9.92855,9.92855,0,0,0,10.00169,9.85456h11.5809a9.92853,9.92853,0,0,1,10.00168,9.85456v11.41054a9.92853,9.92853,0,0,1-10.00168,9.85455h-11.5809a9.92855,9.92855,0,0,0-10.00169,9.85456V731.1454A9.92855,9.92855,0,0,0,305.90056,741H546.99382V585.40168H305.90056A9.92854,9.92854,0,0,0,295.89887,595.25624Z" style="fill:#c6c6c6"/><path d="M348.53933,695.94663H327.48315v5.79045a10.00129,10.00129,0,0,1-10.00169,10.00168h-11.5809a10.00129,10.00129,0,0,0-10.00168,10.00169v11.5809A10.00128,10.00128,0,0,0,305.90056,743.323H546.99382V701.21067H380.1236v-115.809H359.06742V685.41854A10.52788,10.52788,0,0,1,348.53933,695.94663Z" style="fill:#9aa3b1"/><path d="M15.85169,448.57444V795.92556A60.57443,60.57443,0,0,0,76.42612,856.5H494.31545a60.57444,60.57444,0,0,0,60.57444-60.57444V448.57444A60.57444,60.57444,0,0,0,494.31545,388H76.42612A60.57443,60.57443,0,0,0,15.85169,448.57444ZM482.77247,751.2191h56.28736a.03792.03792,0,0,1,.03792.03792v44.66854a44.7823,44.7823,0,0,1-44.7823,44.78231H76.42612a44.7823,44.7823,0,0,1-44.7823-44.78231V532.79915a44.7823,44.7823,0,0,1,44.7823-44.7823H494.31545a44.7823,44.7823,0,0,1,44.7823,44.7823L539,751m0-173-198.40631-.49429a.03791.03791,0,0,1-.03782-.03792v-38.8567c0-12.67754-9.71865-23.55274-22.37763-24.23846a23.7172,23.7172,0,0,0-24.96851,22.44206.03639.03639,0,0,1-.03835.03482q-1.30995-.06759-2.62394-.0676a49.66967,49.66967,0,0,0-39.29951,19.07766.03641.03641,0,0,1-.03485.0135A71.03766,71.03766,0,0,0,173.532,599.066a.03727.03727,0,0,1-.03453.02321h-7.6558a.03738.03738,0,0,1-.0315-.01751c-3.52438-5.594-8.105-9.13982-14.0545-9.13982-11.91359,0-37.71794,23.69556-42.77037,28.44586C94.59547,631.90741,77.441,650.86955,77.441,664.36236c0,5.96026,3.35093,12.98879,8.32849,20.14412a.03677.03677,0,0,1,.00542.03039,71.07731,71.07731,0,0,0,80.607,88.31583.03642.03642,0,0,1,.03485.0135,49.66973,49.66973,0,0,0,39.29951,19.07767q1.31453,0,2.624-.06759a.03635.03635,0,0,1,.03832.03482,23.71659,23.71659,0,0,0,24.96574,22.4422c12.66-.68419,22.38043-11.5596,22.38043-24.23812V729.6755a.03792.03792,0,0,1,.03792-.03792h32.20223a.03792.03792,0,0,1,.03792.03792v3.64691a17.91781,17.91781,0,0,0,17.89775,17.89775L539,751M214.27776,775.07259a34.27334,34.27334,0,0,1-37.63146-15.09311,8.13005,8.13005,0,0,0-8.83662-3.5461,55.28746,55.28746,0,0,1-68.57761-51.52944c-.05152-1.38455-.04657-2.76205.003-4.13447a.03825.03825,0,0,1,.06594-.02462c3.22173,3.3862,6.52006,6.62615,9.6864,9.60317,5.05244,4.75027,30.85678,28.44584,42.77038,28.44584,5.94953,0,10.53011-3.54582,14.0545-9.13981a.03738.03738,0,0,1,.03149-.01752h74.052a.03792.03792,0,0,1,.03792.03792V790.3871a8.105,8.105,0,0,1-7.39029,8.19254,7.904,7.904,0,0,1-8.40185-7.88019v-7.81439a8.05821,8.05821,0,0,0-1.04565-4.116,7.92769,7.92769,0,0,0-8.81813-3.69643ZM244.7271,606.98427a7.8949,7.8949,0,0,0-7.89607-7.89607H191.07122a.03891.03891,0,0,1-.03373-.05759,55.25675,55.25675,0,0,1,61.75415-26.70271,7.89746,7.89746,0,0,0,8.63619-3.50375A34.04134,34.04134,0,0,1,290.54747,552.573a34.42175,34.42175,0,0,1,8.60486,1.08927,7.14262,7.14262,0,0,0,2.55687.25191,7.96807,7.96807,0,0,0,7.2624-7.91073v-7.66582a8.105,8.105,0,0,1,7.39026-8.19256,7.904,7.904,0,0,1,8.40188,7.88019v39.44242a.03792.03792,0,0,1-.03792.03792H305.93848a17.93567,17.93567,0,0,0-17.93567,17.93567v3.609a.03792.03792,0,0,1-.03792.03792H268.719a8.098,8.098,0,0,0-8.185,7.40634,7.89561,7.89561,0,0,0,7.88127,8.38579h21.426a.03673.03673,0,0,1,.033.0205,17.90117,17.90117,0,0,0,16.02729,9.98119h11.543a2.14354,2.14354,0,0,1,2.14354,2.14354v11.50506a2.14355,2.14355,0,0,1-2.14354,2.14354H305.93954a17.93567,17.93567,0,0,0-17.93567,17.93567v11.50506a17.93567,17.93567,0,0,0,17.93567,17.93567H317.4446a2.14354,2.14354,0,0,1,2.14354,2.14354v11.50506a2.14354,2.14354,0,0,1-2.14354,2.14353h-11.543a17.90121,17.90121,0,0,0-16.02729,9.98119.03672.03672,0,0,1-.033.0205H172.24468a.03718.03718,0,0,1-.03631-.04678c4.66939-17.59535,5.24951-39.68014,5.24951-49.43524s-.58012-31.83989-5.24951-49.43524a.03718.03718,0,0,1,.03631-.04679H236.83a7.8958,7.8958,0,0,0,7.89713-7.89606Zm-83.06137,57.37809c0,34.89512-6.48209,54.79619-10.2202,58.41737a.03664.03664,0,0,1-.03994.00831c-4.66248-1.73129-17.99827-10.95129-32.89976-25.17482-18.54207-17.69878-25.27268-29.58184-25.27268-33.25086s6.73061-15.5521,25.27268-33.25087c14.90255-14.22355,28.23729-23.44352,32.89976-25.17484a.03664.03664,0,0,1,.03994.0083c3.73811,3.6212,10.2202,23.52228,10.2202,58.41738Zm142.12921,57.416a2.14355,2.14355,0,0,1,2.14354-2.14354h11.50506a17.93567,17.93567,0,0,0,17.93567-17.93567V690.1941a17.93567,17.93567,0,0,0-17.93567-17.93567H305.93848a2.14355,2.14355,0,0,1-2.14354-2.14354V658.60983a2.14355,2.14355,0,0,1,2.14354-2.14354h11.50506a17.93567,17.93567,0,0,0,17.93567-17.93567V627.02556a17.93567,17.93567,0,0,0-17.93567-17.93567H305.93848a2.14355,2.14355,0,0,1-2.14354-2.14354v-11.543a2.10775,2.10775,0,0,1,2.10562-2.10562l233.06164.70214a.03792.03792,0,0,1,.0378.03791V734.96215a.03791.03791,0,0,1-.03785.03792l-233.06159.4269a2.10775,2.10775,0,0,1-2.10562-2.10562ZM494.31545,403.79213a44.7823,44.7823,0,0,1,44.7823,44.78231V491.9335a.03689.03689,0,0,1-.06446.025,60.67446,60.67446,0,0,0-26.22982-16.84917.03722.03722,0,0,1-.02594-.0355V448.57444a18.46207,18.46207,0,0,0-18.46208-18.46208H76.42612A18.46208,18.46208,0,0,0,57.964,448.57444V475.0738a.03723.03723,0,0,1-.02593.0355,60.67413,60.67413,0,0,0-26.22982,16.84917.03689.03689,0,0,1-.06447-.025V448.57444a44.7823,44.7823,0,0,1,44.7823-44.78231ZM73.75618,472.25173V448.57444a2.66994,2.66994,0,0,1,2.66994-2.66995H494.31545a2.66994,2.66994,0,0,1,2.66994,2.66995v23.67728a.03755.03755,0,0,1-.03922.03762c-.86081-.03706-1.72373-.06462-2.5928-.06462H76.3882c-.86906,0-1.732.02862-2.59281.06467A.0376.0376,0,0,1,73.75618,472.25173Z"/><path d="M193.25,664.36236a28.98579,28.98579,0,0,0,28.95225,28.95225h31.58427a18.44574,18.44574,0,0,0,18.42415-18.42416V653.83427a18.44574,18.44574,0,0,0-18.42415-18.42416H222.20225A28.98579,28.98579,0,0,0,193.25,664.36236Zm60.53652-13.16011a2.63433,2.63433,0,0,1,2.632,2.632v21.05618a2.63433,2.63433,0,0,1-2.632,2.632H222.20225a13.16011,13.16011,0,1,1,0-26.32022Z"/></g><g id="bfd14647-27e3-4c27-822e-6446dc224f17" data-name="knight"><path d="M807.4209,631.375a5.27332,5.27332,0,0,0,5.27343-5.27344V589.18749A42.18736,42.18736,0,0,0,770.50683,547v47.46095A36.914,36.914,0,0,0,807.4209,631.375Z" style="fill:#f30"/><path d="M602.70182,510.08592l-32.23072-5.27344-19.86663,5.27344v73.82813l19.86663,5.27344,32.23072-5.27344a63.85653,63.85653,0,0,0,0-73.82813Z" style="fill:#9aa3b1"/><path d="M611.12614,567.36021a63.89254,63.89254,0,0,0-8.42379-57.27429l-32.23072-5.27344L550.605,510.08592V523.858A63.97882,63.97882,0,0,1,611.12614,567.36021Z" style="fill:#7e8b9e"/><path d="M602.70182,583.91405H550.60447v15.3436a10.53292,10.53292,0,0,0,12.54709,10.35808A63.87015,63.87015,0,0,0,602.70182,583.91405Z" style="fill:#4e5660"/><path d="M602.70182,510.08592H550.60447v-15.3436a10.53293,10.53293,0,0,1,12.54709-10.35808A63.87011,63.87011,0,0,1,602.70182,510.08592Z" style="fill:#383c43"/><path d="M586.29141,547a21.452,21.452,0,0,0,24.51938,21.24141q.67317-1.90081,1.22608-3.85066a63.80329,63.80329,0,0,0-1.224-38.63215A21.45054,21.45054,0,0,0,586.29141,547Z" style="fill:#4e5660"/><path d="M588.93288,536.68145a64.14574,64.14574,0,0,1,22.18429,30.6508c.328-.97189.64019-1.94958.92022-2.94152a63.80341,63.80341,0,0,0-1.224-38.63215,21.44668,21.44668,0,0,0-21.88055,10.92287Z" style="fill:#383c43"/><path d="M571.67027,481.082V520.6328a10.54667,10.54667,0,0,0,10.54688,10.54687h36.91406V507.4492a36.914,36.914,0,0,0-36.91406-36.91406A10.54667,10.54667,0,0,0,571.67027,481.082Z" style="fill:#c6c6c6"/><path d="M571.67027,612.918V573.36717a10.54667,10.54667,0,0,1,10.54688-10.54687h36.91406v23.73047a36.914,36.914,0,0,1-36.91406,36.91406A10.54667,10.54667,0,0,1,571.67027,612.918Z" style="fill:#c6c6c6"/><path d="M730.78941,607.64452a76.46107,76.46107,0,0,0,0-121.28907H637.64732a76.46106,76.46106,0,0,0,0,121.28907Z" style="fill:#ffd4be"/><path d="M698.78808,514.06789h54.45035a76.77414,76.77414,0,0,0-22.449-27.71244H637.64731a76.57858,76.57858,0,0,0-28.254,76.46379c14.50881-40.6271,36.66093-48.75135,89.39479-48.75135Z" style="fill:#ffbf9e"/><g style="opacity:0.5"><ellipse cx="658.38194" cy="505.04609" rx="12.32772" ry="15.48017" style="fill:#eda1ab"/></g><g style="opacity:0.5"><ellipse cx="658.38194" cy="588.95388" rx="12.32772" ry="15.48018" style="fill:#eda1ab"/></g><path d="M666.29369,514.06789a3.95517,3.95517,0,0,1,3.95508-3.95508h6.32812a3.95508,3.95508,0,0,1,0,7.91016h-6.32812A3.95517,3.95517,0,0,1,666.29369,514.06789Z"/><path d="M666.29369,579.93208a3.95517,3.95517,0,0,1,3.95508-3.95508h6.32812a3.95508,3.95508,0,0,1,0,7.91016h-6.32812A3.95517,3.95517,0,0,1,666.29369,579.93208Z"/><path d="M630.52687,547a15.46976,15.46976,0,0,1,5.31193-11.66378,3.95518,3.95518,0,1,1,5.19749,5.9632,7.5529,7.5529,0,0,0,0,11.40223,3.95518,3.95518,0,1,1-5.19749,5.96321A15.47364,15.47364,0,0,1,630.52687,547Z"/><path d="M797.54322,577.90127a42.09409,42.09409,0,0,1,15.15111,32.38V589.18749A42.18736,42.18736,0,0,0,770.50683,547v47.46095a36.72878,36.72878,0,0,0,4.8194,18.22817,92.49929,92.49929,0,0,0,22.217-34.78781Z" style="fill:#e8180c"/><path d="M710.58581,470.53514H647.30456a39.551,39.551,0,0,0-39.55078,39.55078,10.54688,10.54688,0,1,0,21.09375,0,13.18367,13.18367,0,0,1,13.1836-13.18359h85.83364V597.09764H642.03061A13.18366,13.18366,0,0,1,628.847,583.91405a10.54688,10.54688,0,0,0-21.09376,0,39.551,39.551,0,0,0,39.55079,39.55078H710.5853a76.46485,76.46485,0,0,0,.00053-152.92969Z" style="fill:#9aa3b1"/><path d="M787.05066,547a76.4647,76.4647,0,0,0-76.46484-76.46484H689.33913a47.16752,47.16752,0,0,0-6.37137,23.73047v2.63672h44.897V597.09764h-44.897v2.63672a47.16754,47.16754,0,0,0,6.37137,23.73047h21.24669A76.465,76.465,0,0,0,787.05066,547Z" style="fill:#7e8b9e"/><path d="M812.69433,547a10.54666,10.54666,0,0,0-10.54687-10.54687H775.79714v21.09375h26.35032A10.54667,10.54667,0,0,0,812.69433,547Z" style="fill:#c6c6c6"/><path d="M775.79714,547A10.54667,10.54667,0,0,1,786.344,536.45311H740.97558v21.09375H786.344A10.54668,10.54668,0,0,1,775.79714,547Z" style="fill:#9aa3b1"/><path d="M698.78808,599.73436V494.26561a31.64062,31.64062,0,1,1,63.28125,0V599.73436a31.64062,31.64062,0,1,1-63.28125,0Z" style="fill:#c6c6c6"/><circle cx="730.4287" cy="494.26561" r="10.54688" style="fill:#9aa3b1"/><circle cx="730.4287" cy="529.42204" r="10.54688" style="fill:#9aa3b1"/><circle cx="730.4287" cy="564.57794" r="10.54688" style="fill:#9aa3b1"/><circle cx="730.4287" cy="599.73436" r="10.54688" style="fill:#9aa3b1"/><path d="M765.50761,605.73869q1.06946-1.00065,2.09988-2.0366a40.877,40.877,0,0,0,39.81341,31.628,9.23933,9.23933,0,0,0,9.22851-9.22852V589.18749a46.21171,46.21171,0,0,0-9.83232-28.46128,14.5,14.5,0,0,0-4.66963-28.22818H789.6974a80.53464,80.53464,0,0,0-24.18979-44.23676,35.56109,35.56109,0,0,0-57.42141-21.67805c-.01951-.00053-.03849-.00316-.058-.00316H647.30456a43.41815,43.41815,0,0,0-33.15146,15.37787,40.85593,40.85593,0,0,0-8.01088-7.647,3.95494,3.95494,0,1,0-4.63536,6.40933,32.93952,32.93952,0,0,1,7.88063,8.07153,43.22372,43.22372,0,0,0-5.58879,21.29361,14.45561,14.45561,0,0,0,4.46292,10.45037q-1.15251,3.30565-2.01129,6.6883H582.21769a6.59893,6.59893,0,0,1-6.59179-6.5918V481.08148a6.59894,6.59894,0,0,1,6.59179-6.5918,33.25171,33.25171,0,0,1,6.37823.61594,3.955,3.955,0,1,0,1.52086-7.7625,41.20936,41.20936,0,0,0-7.89909-.76307,14.51808,14.51808,0,0,0-14.50195,14.502v.2969q-1.88658-.49043-3.79107-.87381a14.4884,14.4884,0,0,0-17.27526,14.23723V599.25712a14.4884,14.4884,0,0,0,17.27526,14.23722c1.26879-.2526,2.53335-.55108,3.79054-.878v.30163a14.51808,14.51808,0,0,0,14.502,14.502,40.53987,40.53987,0,0,0,31.94754-15.36417,43.418,43.418,0,0,0,33.13986,15.36417H708.0282c.01951,0,.03849-.00264.058-.00318a35.56108,35.56108,0,0,0,57.42141-21.678Zm16.133-44.23675a72.57108,72.57108,0,0,1-15.61623,32.22861V561.50194Zm27.09862,27.68555v36.91406a1.3202,1.3202,0,0,1-1.31836,1.31836,33.09782,33.09782,0,0,1-32.92155-31.62164,80.41137,80.41137,0,0,0,15.198-34.29633H796.855A38.291,38.291,0,0,1,808.73926,589.18749Zm0-42.18751a6.59894,6.59894,0,0,1-6.5918,6.5918H766.02441V540.40819h36.12305A6.59894,6.59894,0,0,1,808.73926,547Zm-42.71485-14.502V500.26941A72.57388,72.57388,0,0,1,781.64064,532.498ZM611.70886,510.08592a35.63577,35.63577,0,0,1,35.5957-35.59571h53.54332a35.37,35.37,0,0,0-5.98166,18.457H642.03059a17.15846,17.15846,0,0,0-17.13867,17.13867,6.59153,6.59153,0,1,1-13.18306,0Zm21.09375,0a9.23934,9.23934,0,0,1,9.22852-9.22852H694.833v55.81038a3.95508,3.95508,0,1,0,7.91016,0V494.26561a27.68555,27.68555,0,1,1,55.37109,0V599.73436a27.68555,27.68555,0,1,1-55.37109,0V572.4881a3.95508,3.95508,0,1,0-7.91016,0v20.65447H642.03113a9.23934,9.23934,0,0,1-9.22852-9.22852,14.50458,14.50458,0,0,0-17.46247-14.19715,72.883,72.883,0,0,1-.001-45.43383,14.50553,14.50553,0,0,0,17.46352-14.19715ZM603.7987,547a81.06968,81.06968,0,0,0,.87275,11.86524h-9.78486a17.49259,17.49259,0,0,1-.00053-23.73047h9.78539A81.08037,81.08037,0,0,0,603.7987,547Zm-21.58154-11.86523h3.07758a25.27511,25.27511,0,0,0-.00051,23.73047h-3.077a14.51807,14.51807,0,0,0-14.50195,14.50195v6.5918H554.55958V514.041h13.15565v6.5918a14.51841,14.51841,0,0,0,14.50195,14.502Zm-25.2334-45.5124a6.4831,6.4831,0,0,1,5.39473-1.3595c1.79086.357,3.57961.801,5.33672,1.32363v16.54436H554.55957V494.74232a6.59822,6.59822,0,0,1,2.42421-5.12ZM562.379,605.73711a6.482,6.482,0,0,1-5.39525-1.35949,6.60075,6.60075,0,0,1-2.42421-5.12V587.86913h13.15564v16.53855C565.957,604.93081,564.17144,605.3801,562.379,605.73711Zm19.83814,13.77264a6.59893,6.59893,0,0,1-6.5918-6.59179V573.36717a6.59893,6.59893,0,0,1,6.5918-6.59179h24.0337q.85666,3.38158,2.01075,6.68777a14.45727,14.45727,0,0,0-4.46343,10.4509A43.22888,43.22888,0,0,0,609.388,605.2103a32.71421,32.71421,0,0,1-27.17086,14.29945Zm29.49169-35.5957a6.5918,6.5918,0,1,1,13.1836,0,17.15845,17.15845,0,0,0,17.13867,17.13867h52.8351a35.36987,35.36987,0,0,0,5.98167,18.457H647.304A35.63565,35.63565,0,0,1,611.70884,583.91405Z"/><path d="M744.93066,494.26561a14.502,14.502,0,1,0-14.502,14.502A14.51807,14.51807,0,0,0,744.93066,494.26561Zm-21.09375,0a6.5918,6.5918,0,1,1,6.59179,6.59179A6.59893,6.59893,0,0,1,723.83691,494.26561Z"/><path d="M744.93066,529.422a14.502,14.502,0,1,0-14.502,14.50195A14.51808,14.51808,0,0,0,744.93066,529.422Zm-21.09375,0a6.5918,6.5918,0,1,1,6.59179,6.5918A6.59893,6.59893,0,0,1,723.83691,529.422Z"/><path d="M730.4287,579.07989a14.50195,14.50195,0,1,0-14.502-14.50195A14.51807,14.51807,0,0,0,730.4287,579.07989Zm0-21.09375a6.5918,6.5918,0,1,1-6.59179,6.5918A6.59894,6.59894,0,0,1,730.4287,557.98614Z"/><path d="M715.92675,599.73436a14.502,14.502,0,1,0,14.502-14.502A14.51808,14.51808,0,0,0,715.92675,599.73436Zm21.09375,0a6.5918,6.5918,0,1,1-6.5918-6.59179A6.59893,6.59893,0,0,1,737.0205,599.73436Z"/></g><g id="fdacae1f-ce3c-4d2c-acf2-982e4b06393b" data-name="Robin hood"><path d="M139.4609,417.62858l55.36468-55.36467,55.0737,55.0737-55.36467,55.36468Z" style="fill:#d59247"/><path d="M259.37257,408.27851l-55.43089-55.43089a13.065,13.065,0,0,0-18.47675,18.47674l55.4309,55.43089a13.065,13.065,0,1,0,18.47674-18.47674Z" style="fill:#d59247"/><circle cx="240.36996" cy="314.08589" r="23.5702" style="fill:#ffbf9e"/><circle cx="50.75662" cy="314.08589" r="23.5702" style="fill:#f7ab8b"/><path d="M80.82934,479.6012a13.04866,13.04866,0,0,1-12.832-15.543,79.11222,79.11222,0,0,1,155.13308,0,13.048,13.048,0,0,1-12.832,15.543Z" style="fill:#89d47f"/><path d="M161.89147,402.20974A79.11066,79.11066,0,0,0,68.0072,464.051a13.04641,13.04641,0,0,0,12.83,15.55016H99.13363A79.25,79.25,0,0,1,161.89147,402.20974Z" style="fill:#5ec783"/><path d="M121.81867,404.13749A79.25065,79.25065,0,0,0,81.40291,433.3427l44.78866,46.2585H194.8849Z" style="fill:#d59247"/><path d="M121.83108,404.15057a79.44624,79.44624,0,0,0-40.39943,29.22219L102.884,455.5293a79.45992,79.45992,0,0,1,29.58475-40.39158Z" style="fill:#c18053"/><path d="M124.00708,432.74954l-9.91253-37.998h62.9316l-9.90405,37.998Z" style="fill:#f7ab8b"/><path d="M166.19775,450.25751c17.849-15.48745,21.32233-40.7744,21.37853-55.506H177.02617l-31.46547,37.998,10.88523,16.24457a6.55078,6.55078,0,0,0,9.75184,1.2634Z" style="fill:#fcf2d0"/><path d="M124.923,450.25751c-17.849-15.48745-21.32234-40.7744-21.37852-55.506h10.55011l31.46548,37.998-10.88523,16.24457a6.55076,6.55076,0,0,1-9.75183,1.2634Z" style="fill:#fcf2d0"/><circle cx="145.5646" cy="314.08394" r="94.7224" style="fill:#ffd4be"/><path d="M83.50509,314.08394a94.7465,94.7465,0,0,1,78.391-93.31528,94.72242,94.72242,0,1,0,0,186.63058A94.746,94.746,0,0,1,83.5051,314.084Z" style="fill:#ffbf9e"/><path d="M145.5646,154.932c-18.83016,0-94.80733,58.94868-94.80733,135.58368h189.6153C240.37191,213.88071,164.39475,154.932,145.5646,154.932Z" style="fill:#5ec783"/><path d="M125.77284,163.36754c-29.29666,18.8994-75.01622,67.69777-75.01622,127.14815H135.786V269.9054c-23.09-15.67361-39.3725-86.78662-10.01314-106.53788Z" style="fill:#49b76b"/><path d="M228.11744,223.0237a71.36517,71.36517,0,0,0,.60687,55.88818,6.79173,6.79173,0,0,0,8.67395,3.59292A71.16425,71.16425,0,0,0,276.73943,187.527a6.79173,6.79173,0,0,0-8.674-3.59292,71.36037,71.36037,0,0,0-39.948,39.08965Z" style="fill:#ffcf0d"/><path d="M269.68359,296.03573H21.44558a13.06516,13.06516,0,0,1,0-26.13032h248.238a13.06516,13.06516,0,0,1,0,26.13032Z" style="fill:#89d47f"/><path d="M122.72147,282.97057a13.0649,13.0649,0,0,1,13.06516-13.06516H21.44559a13.06516,13.06516,0,1,0,0,26.13032h114.341A13.0649,13.0649,0,0,1,122.72147,282.97057Z" style="fill:#5ec783"/><g style="opacity:0.5"><ellipse cx="93.53587" cy="346.07268" rx="19.19729" ry="15.28821" style="fill:#eda1ab"/></g><g style="opacity:0.5"><ellipse cx="197.59333" cy="346.07268" rx="19.19729" ry="15.28821" style="fill:#eda1ab"/></g><path d="M96.74467,332.72008a4.89912,4.89912,0,0,1-4.89943-4.89943v-7.8391a4.89943,4.89943,0,1,1,9.79886,0v7.8391A4.89912,4.89912,0,0,1,96.74467,332.72008Z"/><path d="M194.38387,332.72008a4.89912,4.89912,0,0,1-4.89943-4.89943v-7.8391a4.89943,4.89943,0,0,1,9.79887,0v7.8391A4.89913,4.89913,0,0,1,194.38387,332.72008Z"/><path d="M145.90033,381.93372c-7.68245,0-14.99526-2.18543-20.12808-6.00636-2.38263-1.77365-2.60354-4.54031-.21992-6.31338,2.76442-2.05632,7.71487-1.537,10.44767.386,1.59383,1.12155,2.86675,2.32055,5,3,2.68036.8537,11.47925,1.6753,15-1,1.7425-1.32406,3-4,6.75919-3.83459,5.48729.24144,6.72108,5.11941,3.5381,7.56024-5.14626,3.94561-12.58027,6.20807-20.39693,6.20807Z"/><path d="M287.64818,282.97057a17.98278,17.98278,0,0,0-17.72811-17.95871,76.06178,76.06178,0,0,0,11.31639-79.43029,11.734,11.734,0,0,0-14.97464-6.20268,75.974,75.974,0,0,0-41.83921,39.84155,186.36569,186.36569,0,0,0-14.72771-21.31973,4.89945,4.89945,0,0,0-7.66076,6.10992,172.51717,172.51717,0,0,1,18.08676,27.62171,75.23518,75.23518,0,0,0-.831,33.37364H58.56172c7.83452-34.65534,29.70689-61.369,42.39317-74.48709,19.36192-20.023,38.3482-30.68744,44.60968-30.68744,5.83163,0,23.70476,9.40691,43.54944,29.59912a4.89911,4.89911,0,0,0,6.98791-6.86836c-18.823-19.15287-39.60505-32.52963-50.53733-32.52963-11.06162,0-32.78572,14.162-51.65376,33.67414-13.67269,14.13846-37.44279,43.2607-45.376,81.29926H21.44558a17.96459,17.96459,0,1,0,0,35.92918h4.062a28.46034,28.46034,0,0,0,24.603,41.60405,99.57214,99.57214,0,0,0,18.173,34.41623,4.89938,4.89938,0,1,0,7.5974-6.18831A90.00309,90.00309,0,0,1,55.741,314.084a90.97094,90.97094,0,0,1,.96029-13.14878H234.42662a90.85226,90.85226,0,0,1,.96095,13.14878A89.826,89.826,0,0,1,88.87488,383.7611a4.89979,4.89979,0,0,0-6.18962,7.59739,98.97193,98.97193,0,0,0,16.24849,10.75262c.16,2.1636.40567,4.55582.77149,7.112a84.24858,84.24858,0,0,0-36.51255,53.87745A17.94675,17.94675,0,0,0,80.82935,484.5H210.29918a17.94676,17.94676,0,0,0,17.63667-21.39942A83.11666,83.11666,0,0,0,224.192,450.038l16.96379-16.96315a17.964,17.964,0,0,0,21.681-28.26188l-5.77414-5.77414,24.25089-24.2509a4.89939,4.89939,0,0,0-6.92911-6.92845l-24.25088,24.2509-7.52227-7.52161,24.25088-24.25091a4.89938,4.89938,0,0,0-6.9291-6.92844l-24.25089,24.25024L227.992,369.9702a99.26521,99.26521,0,0,0,13.04622-27.43161,28.46127,28.46127,0,0,0,24.58014-41.60338h4.06393a17.98526,17.98526,0,0,0,17.9659-17.96459Zm-55.0043-58.072a66.241,66.241,0,0,1,37.22589-36.40933,1.88,1.88,0,0,1,2.37263.98315,66.238,66.238,0,0,1,.57814,52.06728A65.39245,65.39245,0,0,1,256.3604,265.006H244.86828l13.2631-32.02075a4.89935,4.89935,0,1,0-9.05285-3.7497L234.26265,265.006h-4.95888A65.65566,65.65566,0,0,1,232.64388,224.89855Zm-219.364,58.072a8.17457,8.17457,0,0,1,8.16572-8.16573h248.238a8.16573,8.16573,0,0,1,0,16.33145H21.4456A8.17456,8.17456,0,0,1,13.27988,282.97057ZM47.672,332.49732a18.66047,18.66047,0,0,1-10.15947-31.56216h9.29194a100.86193,100.86193,0,0,0-.86165,13.14878A99.36556,99.36556,0,0,0,47.672,332.49732ZM162.987,446.55745a1.6848,1.6848,0,0,1-1.347.4096,1.57245,1.57245,0,0,1-1.1249-.69964l-8.84969-13.20822,18.59106-22.45182a98.85886,98.85886,0,0,0,11.59794-3.74512C180.2552,419.005,175.67063,435.55137,162.987,446.55745Zm-7.61828-33.33379-9.808,11.84486-9.81782-11.856q4.88279.486,9.82174.49387Q150.52675,413.70543,155.3687,413.22366Zm-34.53449-2.65157,18.62112,22.4871L130.605,446.26741a1.57034,1.57034,0,0,1-1.12491.69964,1.68371,1.68371,0,0,1-1.347-.4096c-12.69215-11.01328-17.27411-27.572-18.87132-39.71743A100.33455,100.33455,0,0,0,120.83421,410.57209Zm-19.049,9.12535c3.00433,11.67177,8.80788,24.6128,19.927,34.26076a11.45018,11.45018,0,0,0,17.033-2.23674L145.56,441.55088l6.81479,10.17058a11.38124,11.38124,0,0,0,13.03707,4.48329l17.90971,18.497H128.26828L87.8682,432.97556A74.5724,74.5724,0,0,1,101.78521,419.69744Zm-27.299,52.00129a8.02652,8.02652,0,0,1-1.68344-6.68218A73.74514,73.74514,0,0,1,82.13,441.13737l32.49827,33.5644H80.82935a8.17609,8.17609,0,0,1-6.34314-3.003Zm142.15612,0a8.17508,8.17508,0,0,1-6.34313,3.003H196.96032L173.2758,450.24052c8.6328-9.11034,13.42575-20.313,16.05968-30.54569a74.35972,74.35972,0,0,1,28.99027,45.32172,8.02544,8.02544,0,0,1-1.68344,6.68218Zm-25.22621-62.47694c.36648-2.56078.61275-4.95627.77216-7.12248a99.81939,99.81939,0,0,0,10.60434-6.51755l30.9997,30.99905-13.90067,13.90067a84.41752,84.41752,0,0,0-28.47551-31.25969Zm64.49158,2.52093a8.16565,8.16565,0,1,1-11.54764,11.5483l-33.78323-33.78323a100.519,100.519,0,0,0,11.45292-11.643Zm3.133-97.65684a18.69826,18.69826,0,0,1-15.56649,18.40817,99.76627,99.76627,0,0,0,1.71219-18.40946,100.83239,100.83239,0,0,0-.86426-13.14878h9.2926a18.66374,18.66374,0,0,1,5.426,13.15008Z"/></g><g id="e3330746-cb97-4deb-9235-94a02bf11366" data-name="elf"><path d="M787.45546,748.57127a84.3747,84.3747,0,0,0-84.375-84.375h-8.03935v168.75h8.03935A84.375,84.375,0,0,0,787.45546,748.57127Z" style="fill:#f7ef87"/><path d="M787.45546,748.57127a84.375,84.375,0,0,0-84.375-84.375h-8.03935v31.64062h8.03935a84.394,84.394,0,0,1,78.23461,52.73438Z" style="fill:#efd176"/><path d="M677.96255,830.43663c-14.06425,0-14.06425,9.50222-28.12852,9.50222-14.06478,0-14.06478-9.50222-28.129-9.50222-14.06531,0-14.06531,9.50222-28.13063,9.50222q-.75384,0-1.45441-.03533A28.32387,28.32387,0,0,1,565.44374,811.495V685.64546A28.32351,28.32351,0,0,1,592.12,657.23692q.70163-.0348,1.45441-.03533c14.06532,0,14.06532,9.50221,28.13063,9.50221,14.06478,0,14.06478-9.50221,28.129-9.50221s14.06427,9.50221,28.12851,9.50221Z" style="fill:#efd176"/><path d="M597.49727,783.898V713.2329a64.03171,64.03171,0,0,0-40.59439-27.27,10.53173,10.53173,0,0,0-12.55289,10.357V800.81837a10.53345,10.53345,0,0,0,12.56449,10.35491A64.05317,64.05317,0,0,0,597.49727,783.898Z" style="fill:#89d47f"/><path d="M597.49727,713.23291a64.03174,64.03174,0,0,0-40.59439-27.27,10.53173,10.53173,0,0,0-12.55289,10.357v14.76984a63.8434,63.8434,0,0,1,53.14728,28.5177Z" style="fill:#5ec783"/><path d="M597.49727,713.23818a36.91967,36.91967,0,0,0-.00581,70.66459,63.64982,63.64982,0,0,0,6.99-13.86914q.71982-2.00758,1.301-4.07109a63.72876,63.72876,0,0,0-8.28511-52.72435Z" style="fill:#ffbf9e"/><path d="M581.52034,723.0626a64.00617,64.00617,0,0,1,25.30407,38.68857,63.74213,63.74213,0,0,0-9.32712-48.513,36.92273,36.92273,0,0,0-15.97693,9.82442Z" style="fill:#f7ab8b"/><path d="M681.00849,808.6431a19.02708,19.02708,0,1,0-14.5626,35.15749c9.7084,4.02152,17.64809,7.31,32.95,13.64819S704.21478,818.255,681.00849,808.6431Z" style="fill:#ffbf9e"/><path d="M681.00849,688.49943a19.02707,19.02707,0,1,1-14.5626-35.15748c9.7084-4.02152,17.64809-7.31,32.95-13.64818S704.21478,678.887,681.00849,688.49943Z" style="fill:#f7ab8b"/><path d="M696.83566,822.6868a120.79385,120.79385,0,0,0,0-148.231,76.46486,76.46486,0,1,0,0,148.231Z" style="fill:#ffd4be"/><path d="M677.96413,698.47361a76.10774,76.10774,0,0,1,37.34121,9.72317,120.6111,120.6111,0,0,0-18.46969-33.741,76.51478,76.51478,0,0,0-94.20046,87.29912A76.48388,76.48388,0,0,1,677.96413,698.47361Z" style="fill:#ffbf9e"/><ellipse cx="652.67167" cy="704.76588" rx="12.8714" ry="16.16308" style="fill:#eda1ab;opacity:0.5"/><g style="opacity:0.5"><ellipse cx="652.75394" cy="792.37665" rx="12.8714" ry="16.16308" style="fill:#eda1ab"/></g><path d="M622.27238,748.57127a15.469,15.469,0,0,1,5.31193-11.66379,3.95521,3.95521,0,0,1,5.197,5.96373,7.55172,7.55172,0,0,0,0,11.40117,3.95521,3.95521,0,0,1-5.197,5.96373A15.47366,15.47366,0,0,1,622.27238,748.57127Z"/><path d="M661.30915,713.71369a4.094,4.094,0,0,1,4.14483-3.60088h5.9177a4.094,4.094,0,0,1,4.14483,3.60088,3.95578,3.95578,0,0,1-3.93962,4.30928h-6.32812A3.95578,3.95578,0,0,1,661.30915,713.71369Z"/><path d="M661.30915,781.71369a4.094,4.094,0,0,1,4.14483-3.60088h5.9177a4.094,4.094,0,0,1,4.14483,3.60088,3.95578,3.95578,0,0,1-3.93962,4.30928h-6.32812A3.95578,3.95578,0,0,1,661.30915,781.71369Z"/><path d="M806.43983,748.57127A10.54666,10.54666,0,0,0,795.893,738.02439H724.17421v21.09375H795.893A10.547,10.547,0,0,0,806.43983,748.57127Z" style="fill:#fcf2d0"/><path d="M763.24669,748.57127a10.54667,10.54667,0,0,1,10.54688-10.54688H724.17421v21.09375h49.61936A10.547,10.547,0,0,1,763.24669,748.57127Z" style="fill:#efdfb4"/><path d="M712.70184,748.57127c0-24.20772,9.44526-45.28143,27.31483-60.942a88.0779,88.0779,0,0,1,27.33855-16.41779,10.547,10.547,0,0,1,6.70306,20.00056,68.11358,68.11358,0,0,0-20.69086,12.77068c-12.98689,11.64006-19.57183,26.64194-19.57183,44.589,0,43.44943,39.82184,57.21258,40.22368,57.34652a10.54679,10.54679,0,1,1-6.664,20.01323,88.07837,88.07837,0,0,1-27.33855-16.41779c-17.86957-15.66158-27.31483-36.73476-27.31483-60.94248Z" style="fill:#fff"/><path d="M723.88048,765.18313a10.58843,10.58843,0,0,1,13.75839,5.23283,61.14216,61.14216,0,0,1-3.84328-21.84469c0-17.94656,6.585-32.94844,19.57184-44.589a68.11992,68.11992,0,0,1,20.69086-12.77068,10.547,10.547,0,0,0-6.70307-20.00057,88.066,88.066,0,0,0-27.33855,16.4178c-17.86957,15.66053-27.31483,36.73423-27.31483,60.942a82.63334,82.63334,0,0,0,5.42,29.98686,10.58782,10.58782,0,0,1,5.7586-13.37449Z" style="fill:#fcf2d0"/><circle cx="694.24481" cy="748.57127" r="7.91016" style="fill:#fff"/><circle cx="712.70184" cy="748.57127" r="10.54687" style="fill:#fff"/><path d="M708.0396,859.18215c3.61758-4.42178,2.989-13.31754.00581-22.41844a87.72474,87.72474,0,0,0,43.27593-14.19029,82.50223,82.50223,0,0,0,14.78408,7.11071,14.5021,14.5021,0,0,0,9.18158-27.51258c-.02267-.00791-.58535-.20514-1.54775-.60961a87.88192,87.88192,0,0,0,16.479-38.4887H795.893a14.502,14.502,0,1,0,0-29.00391h-5.66947a87.90655,87.90655,0,0,0-16.47527-38.47974c.98613-.41977,1.55988-.62544,1.57464-.63018a14.50206,14.50206,0,0,0-9.21585-27.501,82.53547,82.53547,0,0,0-14.78567,7.11071,87.73489,87.73489,0,0,0-43.28068-14.1903c2.98213-9.10669,3.61072-18.013-.0058-22.42423-1.12641-1.37321-4.3701-4.31-10.15189-1.91426l-32.95,13.64818a23.14235,23.14235,0,0,0-7.165,4.6633,26.94183,26.94183,0,0,0-7.93336-1.10479c-8.24343,0-12.51228,2.88458-16.2791,5.429-3.36867,2.27549-6.02913,4.07373-11.85047,4.07373-5.82188,0-8.48232-1.79772-11.851-4.07373-3.76681-2.54443-8.03619-5.429-16.27963-5.429-.55423,0-1.10953.01319-1.65163.04061a32.15725,32.15725,0,0,0-30.32016,29.71477c-1.29674-.34383-2.604-.65286-3.9229-.91705a14.48721,14.48721,0,0,0-17.28475,14.23458V800.8184a14.48894,14.48894,0,0,0,17.299,14.23249c1.31361-.26367,2.61615-.5727,3.90815-.91547a32.15974,32.15974,0,0,0,30.32226,29.71847c.54053.02689,1.09583.04007,1.65006.04007,8.24343,0,12.51281-2.88457,16.27963-5.429,3.36867-2.27549,6.02913-4.07374,11.851-4.07374,5.82135,0,8.48181,1.79719,11.85048,4.07374,3.76682,2.54444,8.03567,5.429,16.2791,5.429a26.95375,26.95375,0,0,0,7.93494-1.10321A23.13725,23.13725,0,0,0,664.933,847.454l32.94949,13.64819c5.7876,2.39783,9.03129-.54422,10.15716-1.92Zm-3.11237-30.22524a66.33711,66.33711,0,0,0-3.26532-6.09188,123.89015,123.89015,0,0,0,17.47934-32.8841,84.26817,84.26817,0,0,0,18.26824,22.507c2.22433,1.94958,4.45553,3.70775,6.63714,5.29083a79.91148,79.91148,0,0,1-39.1194,11.1781Zm97.55753-80.38564a6.59893,6.59893,0,0,1-6.59179,6.59179h-25.3125a3.95508,3.95508,0,1,0,0,7.91016h11.60525a80.01872,80.01872,0,0,1-15.60937,34.85583,65.27139,65.27139,0,0,1-10.40186-7.58478,53.40566,53.40566,0,0,1-16.711-27.27158h15.29667a3.95508,3.95508,0,0,0,0-7.91016h-16.672a64.84372,64.84372,0,0,1-.00316-13.18359h57.808A6.59972,6.59972,0,0,1,802.48476,748.57127Zm-20.30062-14.502H739.44767a52.91,52.91,0,0,1,16.55913-27.14185,66.13412,66.13412,0,0,1,10.578-7.69342A80.04211,80.04211,0,0,1,782.18414,734.06931ZM776.94129,679.137a6.61151,6.61151,0,0,1-4.185,8.33994A72.03529,72.03529,0,0,0,750.727,701.037c-13.85964,12.42263-20.887,28.41539-20.887,47.53424,0,46.2723,42.50022,60.95619,42.92947,61.0991a6.59188,6.59188,0,1,1-4.16654,12.50806,83.58653,83.58653,0,0,1-25.97959-15.63891,74.55637,74.55637,0,0,1-24.87322-44.37386,14.50074,14.50074,0,0,0,0-27.18775A74.54944,74.54944,0,0,1,742.62334,690.604a83.57266,83.57266,0,0,1,25.98117-15.63943,6.59822,6.59822,0,0,1,8.33678,4.17234Zm-82.69647,73.38937a3.95508,3.95508,0,1,1,3.95508-3.95507A3.95923,3.95923,0,0,1,694.24482,752.52634Zm18.457-10.54687a6.5918,6.5918,0,1,1-6.59179,6.5918A6.59893,6.59893,0,0,1,712.70185,741.97947Zm31.34478-62.61627c-2.18161,1.58309-4.41281,3.34178-6.63714,5.29137a84.26592,84.26592,0,0,0-18.26824,22.5065,123.87684,123.87684,0,0,0-17.47987-32.8841,66.16856,66.16856,0,0,0,3.26373-6.09135A79.9109,79.9109,0,0,1,744.04663,679.3632Zm-43.13672-36.01547a3.61629,3.61629,0,0,1,1.0721-.29953c.549.77256,1.18968,4.07479-.10916,10.057a57.10227,57.10227,0,0,1-6.847,16.86868,80.65723,80.65723,0,0,0-36.37829.52892,14.99536,14.99536,0,0,1,9.31183-13.50633Zm-108.59431,17.84c.4108-.02056.83426-.03111,1.25876-.03111,5.82188,0,8.48286,1.79771,11.85153,4.07373,3.76682,2.54443,8.0362,5.429,16.27963,5.429,8.24291,0,12.51228-2.88457,16.27857-5.429,3.36867-2.27549,6.02912-4.07373,11.85046-4.07373a22.3806,22.3806,0,0,1,2.9642.18457,22.80552,22.80552,0,0,0-2.07246,9.49694c0,.67289.03956,1.351.09966,2.03027a80.85462,80.85462,0,0,0-46.67413,43.79538q-1.51085-2.81919-3.28113-5.49546c-.02689-.04376-.05484-.087-.08331-.13025a68.597,68.597,0,0,0-31.3875-25.44644,24.29668,24.29668,0,0,1,22.91573-24.40389Zm8.06784,108.511a59.61774,59.61774,0,0,1-4.55837,9.42627,32.96417,32.96417,0,0,1,.0079-61.10648,59.78934,59.78934,0,0,1,4.541,9.39726,80.27548,80.27548,0,0,0,.00949,42.283ZM550.733,805.94151a6.59911,6.59911,0,0,1-2.42789-5.12314V696.31993a6.60294,6.60294,0,0,1,2.42736-5.12367,6.478,6.478,0,0,1,5.39367-1.35528,60.40175,60.40175,0,0,1,35.119,21.53777,40.88276,40.88276,0,0,0-.009,74.38763,60.42373,60.42373,0,0,1-35.10053,21.52986,6.48585,6.48585,0,0,1-5.40264-1.35474Zm87.25061,25.969c-3.76682-2.54444-8.03567-5.429-16.27857-5.429-8.24343,0-12.51281,2.88457-16.27963,5.429-3.36867,2.27549-6.02964,4.07374-11.85152,4.07374-.42451,0-.84744-.01055-1.25666-.0306A24.29823,24.29823,0,0,1,569.39988,811.545a68.58857,68.58857,0,0,0,31.388-25.45276c.02689-.04061.05327-.08174.07857-.12288q1.77661-2.676,3.28535-5.49808a80.112,80.112,0,0,0,11.36849,18.78081,3.95494,3.95494,0,1,0,6.1388-4.98813,72.53949,72.53949,0,0,1,72.88681-116.29565,116.082,116.082,0,0,1,19.643,39.88776,83.26627,83.26627,0,0,0-4.34743,16.49742,14.51292,14.51292,0,0,0-8.25029,4.91062,11.86523,11.86523,0,1,0,0,18.61313,14.51467,14.51467,0,0,0,8.25029,4.91063,83.26813,83.26813,0,0,0,4.34795,16.49742,116.09167,116.09167,0,0,1-19.643,39.88776,72.65279,72.65279,0,0,1-62.27508-14.29788,3.95479,3.95479,0,1,0-4.98761,6.13882,80.2756,80.2756,0,0,0,23.54432,13.2474c-.06064.68239-.1002,1.36267-.1002,2.03871a22.80747,22.80747,0,0,0,2.073,9.49905,22.42222,22.42222,0,0,1-2.96578.18457c-5.82241.00053-8.48285-1.79771-11.85152-4.0732Zm62.92581,21.88424-32.95-13.64819a14.996,14.996,0,0,1-9.31131-13.52321,80.35131,80.35131,0,0,0,36.37881.54527,57.11381,57.11381,0,0,1,6.837,16.827c1.30992,6.008.66919,9.32292.11865,10.09863a3.61619,3.61619,0,0,1-1.07314-.29953Z"/></g><g id="ecd92fd3-af7b-4e06-95a3-3117ce6a8c96" data-name="Wizard"><circle cx="515.40396" cy="307.55332" r="23.5702" style="fill:#ffbf9e"/><circle cx="325.79127" cy="307.55332" r="23.5702" style="fill:#f7ab8b"/><path d="M355.86335,473.06862a13.04865,13.04865,0,0,1-12.832-15.543,79.11222,79.11222,0,0,1,155.13308,0,13.048,13.048,0,0,1-12.832,15.543Z" style="fill:#e8580c"/><path d="M436.92547,395.67716a79.11066,79.11066,0,0,0-93.88427,61.8413,13.04641,13.04641,0,0,0,12.83,15.55016h18.29645a79.25,79.25,0,0,1,62.75782-77.39146Z" style="fill:#f30"/><path d="M420.59859,428.8607a26.57411,26.57411,0,0,0,26.31323-30.37388q-2.35468-.8339-4.77009-1.51884a79.03767,79.03767,0,0,0-47.85637,1.51622,26.57229,26.57229,0,0,0,26.31323,30.3765Z" style="fill:#ffe4c2"/><path d="M539.22826,335.179a24.89668,24.89668,0,0,0-24.897-24.897V296.77392l-.89691-13.02661a93.7472,93.7472,0,0,0-185.67158,0l-.89692,13.02661V310.282a24.89644,24.89644,0,0,0-8.07949,48.44561A24.88523,24.88523,0,0,0,338.85251,397.068a24.90751,24.90751,0,0,0,28.88118,31.24664,24.8912,24.8912,0,0,0,34.02756,9.61856,24.87715,24.87715,0,0,0,37.67469,0,24.89118,24.89118,0,0,0,34.02754-9.61856A24.89683,24.89683,0,0,0,502.34467,397.068,24.88526,24.88526,0,0,0,522.4108,358.7276,24.90132,24.90132,0,0,0,539.22826,335.179Z" style="fill:#fcf2d0"/><path d="M401.76843,437.941a29.0641,29.0641,0,0,1-1.79057-29.624,29.06535,29.06535,0,0,1,.67481-58.123V205.1721a93.81453,93.81453,0,0,0-72.88856,78.57517l-.89692,13.02661V310.282a24.89645,24.89645,0,0,0-8.0795,48.44561,24.88525,24.88525,0,0,0,20.06612,38.34036A24.90751,24.90751,0,0,0,367.735,428.31456a24.89119,24.89119,0,0,0,34.02755,9.61856l.00588.00784Z" style="fill:#efdfb4"/><path d="M349.86774,317.01771a37.81314,37.81314,0,0,0,37.81318,37.81318h65.83535a37.81318,37.81318,0,0,0,0-75.62636H387.68093a37.81273,37.81273,0,0,0-37.81318,37.81318Z" style="fill:#ffd4be"/><path d="M398.8647,317.01771a37.81314,37.81314,0,0,1,37.81317-37.81318h-48.997a37.81318,37.81318,0,1,0,0,75.62636h48.997a37.81356,37.81356,0,0,1-37.81318-37.81318Z" style="fill:#ffbf9e"/><path d="M379.80328,328.44972a4.89955,4.89955,0,0,1-4.89943-4.89943v-7.8391a4.89943,4.89943,0,0,1,9.79887,0v7.8391A4.89955,4.89955,0,0,1,379.80328,328.44972Z"/><path d="M461.3939,328.44972a4.89955,4.89955,0,0,1-4.89944-4.89943v-7.8391a4.89944,4.89944,0,0,1,9.79887,0v7.8391A4.89955,4.89955,0,0,1,461.3939,328.44972Z"/><path d="M383.0245,377.693A13.05977,13.05977,0,0,1,370.659,360.39405a52.85775,52.85775,0,0,1,99.87921,0A13.05976,13.05976,0,0,1,458.17268,377.693Z" style="fill:#fff"/><path d="M420.59859,148.39944c30.39741,0,137.18416,52.10058,137.18416,75.11747s-137.18416,21.51571-137.18416,21.51571Z" style="fill:#f30"/><path d="M521.0788,222.35215A195.468,195.468,0,0,0,489.791,174.52388q-2.04306-2.32724-4.21025-4.64793c-26.08851-12.32567-52.24365-21.47651-64.98218-21.47651v96.63382s66.40432.72643,106.81226-6.58287a164.60165,164.60165,0,0,0-6.332-16.09824Z" style="fill:#e8180c"/><path d="M420.59859,148.39944c-18.83016,0-94.80732,58.94868-94.80732,135.58368H515.40592C515.40592,207.34813,439.42876,148.39944,420.59859,148.39944Z" style="fill:#f30"/><path d="M400.80684,156.835c-29.29666,18.8994-75.01557,67.69777-75.01557,127.14815h85.02936V263.37282c-23.0907-15.67361-39.37316-86.78662-10.01378-106.53788Z" style="fill:#e8180c"/><path d="M544.7176,289.50315h-248.238a13.06516,13.06516,0,0,1,0-26.13032h248.238a13.06516,13.06516,0,0,1,0,26.13032Z" style="fill:#e8580c"/><path d="M397.75547,276.438a13.06489,13.06489,0,0,1,13.06515-13.06516h-114.341a13.06516,13.06516,0,0,0,0,26.13032h114.341A13.06489,13.06489,0,0,1,397.75547,276.438Z" style="fill:#f30"/><path d="M544.7176,258.4734H517.63287a135.10082,135.10082,0,0,0-3.43092-13.075c33.46771-4.22331,48.48024-11.0283,48.48024-21.88153,0-7.10548-6.2347-15.38814-19.06011-25.32093-10.22741-7.92075-24.324-16.63913-40.76722-25.21314C475.62381,158.783,438.26726,143.5,420.59859,143.5c-11.07925,0-32.83013,14.19007-51.71843,33.74077-13.66223,14.14173-37.38856,43.23914-45.31193,81.23263H296.92057c-9.72861,0-18.02524,7.55049-18.39247,17.27217a17.98363,17.98363,0,0,0,17.95149,18.657h4.062a28.48009,28.48009,0,0,0,.13979,26.57387,29.777,29.777,0,0,0,11.40523,40.07606,29.88961,29.88961,0,0,0-1.60832,16.86974,4.90085,4.90085,0,0,0,4.8034,3.962,4.8943,4.8943,0,0,0,4.77912-6.02075,20.18263,20.18263,0,0,1-.335-3.66969,19.91383,19.91383,0,0,1,3.11322-10.708,5.08609,5.08609,0,0,0,.83026-2.24555,4.92084,4.92084,0,0,0-3.29219-5.14627,19.997,19.997,0,0,1,6.4672-38.91194,4.92013,4.92013,0,0,0,4.9217-4.89947V296.9431l.17507-2.53987h19.49453a42.75326,42.75326,0,0,0,16.17662,60.3349q-.86034,1.98624-1.58154,4.05412a17.7086,17.7086,0,0,0,2.47049,16.42278,18.45557,18.45557,0,0,0,14.95876,7.3787H457.736a18.46,18.46,0,0,0,14.96049-7.37753,17.707,17.707,0,0,0,2.47138-16.42395c-.47753-1.37968-1.008-2.73-1.58153-4.05412a42.75249,42.75249,0,0,0,16.17662-60.33424h19.49453l.17508,2.53987v13.33952a4.92015,4.92015,0,0,0,4.92177,4.89947,19.997,19.997,0,0,1,6.59,38.8693,5.10922,5.10922,0,0,0-2.0458,1.24843,4.92022,4.92022,0,0,0-.60515,6.08259,19.98619,19.98619,0,0,1-15.99691,30.78548,5.07385,5.07385,0,0,0-2.31966.60122,4.922,4.922,0,0,0-2.34335,5.64452A20.00815,20.00815,0,0,1,474.40052,423.508a4.86736,4.86736,0,0,0-5.22093,2.43349,19.99235,19.99235,0,0,1-27.29847,7.74806,4.93427,4.93427,0,0,0-6.13574,1.02561,19.97882,19.97882,0,0,1-30.29222,0,4.934,4.934,0,0,0-6.13555-1.02566,19.99238,19.99238,0,0,1-27.29865-7.748,4.86731,4.86731,0,0,0-5.2211-2.43346,19.99621,19.99621,0,0,1-23.27043-24.95982,5.13314,5.13314,0,0,0,.14634-2.4,4.91819,4.91819,0,0,0-4.652-3.97517,19.92125,19.92125,0,0,1-10.44356-3.3772,4.976,4.976,0,0,0-6.5005.83027,4.90106,4.90106,0,0,0,.968,7.25757,29.68533,29.68533,0,0,0,10.06866,4.36247q-.11955,1.32871-.1202,2.66594a29.81772,29.81772,0,0,0,15.46849,26.11594,83.08158,83.08158,0,0,0-10.23524,26.54187,17.827,17.827,0,0,0,4.95237,16.17263A18.57323,18.57323,0,0,0,356.33291,477.97H484.91242a18.5116,18.5116,0,0,0,13.07538-5.19725,17.829,17.829,0,0,0,4.98273-16.20284A83.03461,83.03461,0,0,0,492.734,430.02872a29.81863,29.81863,0,0,0,15.4698-26.1166q0-1.32971-.1189-2.65484a29.8082,29.8082,0,0,0,21.02642-40.20281,29.7767,29.7767,0,0,0,11.40263-40.08063,28.43041,28.43041,0,0,0,.13066-26.5693h3.632c9.72794,0,18.02429-7.54942,18.39244-17.2704a17.98535,17.98535,0,0,0-17.95142-18.66075ZM493.36042,458.48334a8.02889,8.02889,0,0,1-1.68411,6.68283,8.17682,8.17682,0,0,1-6.34247,3.003H355.86335a8.17375,8.17375,0,0,1-6.34248-3.003,8.031,8.031,0,0,1-1.6841-6.68283,73.38119,73.38119,0,0,1,10.11178-25.17657,29.866,29.866,0,0,0,4.84064.39914q1.25034,0,2.50068-.10453a29.78845,29.78845,0,0,0,35.44053,10.26009,29.77216,29.77216,0,0,0,39.73506,0A29.78846,29.78846,0,0,0,475.906,433.60138q1.2474.10386,2.50067.10453a29.90848,29.90848,0,0,0,4.838-.39848,73.32872,73.32872,0,0,1,10.11569,25.17591Zm4.96344-276.81217c15.93493,8.30945,29.524,16.7025,39.298,24.2718,14.52518,11.2491,15.26075,16.613,15.26075,17.57395,0,.07512-1.17129,7.50462-42.03193,12.423-10.57232-26.86393-27.63019-47.39517-38.42724-58.58809a189.03817,189.03817,0,0,0-15.66514-14.51409,402.81533,402.81533,0,0,1,41.56549,18.83343ZM321.97754,296.43748c-.00784.11172-.01176.22407-.01176.33643V305.785a29.68815,29.68815,0,0,0-14.21359,6.55674,18.60014,18.60014,0,0,1,4.79426-17.93977h9.57088ZM464.8444,369.35021a8.09836,8.09836,0,0,1-6.67174,3.44332H383.02448a8.09831,8.09831,0,0,1-6.67172-3.44332,8.01313,8.01313,0,0,1-1.06416-7.35242,47.95848,47.95848,0,0,1,90.62,0A8.01316,8.01316,0,0,1,464.8444,369.35021Zm4.092-23.24095a57.74855,57.74855,0,0,0-96.67564,0,32.91826,32.91826,0,0,1-8.48516-51.70667h113.646a32.9172,32.9172,0,0,1-8.48515,51.70667Zm64.50661-33.7682a29.69066,29.69066,0,0,0-14.21229-6.55545v-9.01169c0-.11236-.00393-.22471-.01176-.33643l-.13979-2.0349h9.57415a18.61184,18.61184,0,0,1,4.78969,17.93847Zm11.27458-27.73733h-248.238a8.16572,8.16572,0,1,1,0-16.33144H451.595a4.89944,4.89944,0,0,0,0-9.79887h-117.998c7.82538-34.61287,29.654-61.30369,42.33047-74.42437,19.38412-20.06417,38.39784-30.75016,44.67107-30.75016,6.29217,0,25.35294,10.72323,44.77365,30.856,12.65948,13.1246,34.41689,39.77557,42.22724,74.31854H471.26332a4.89944,4.89944,0,0,0,0,9.79887H544.7176a8.16572,8.16572,0,1,1,0,16.33144Z"/></g></g><g id="abb16e70-649a-46fd-9ecf-00f555c7c94d" data-name="Balloon"><path d="M5425.13435,587.11717a3.68565,3.68565,0,0,1-2.39082-.91213,5.62863,5.62863,0,0,1-.98761-6.92681l63.85041-108.15037a3.729,3.729,0,0,1,5.78009-1.18546c1.86732,1.585,3.36162,1.81623,2.03936,4.05617l-64.90219,111.021A3.98056,3.98056,0,0,1,5425.13435,587.11717Z" style="stroke:#000;stroke-miterlimit:10;stroke-width:3px"/><path d="M5376.91865,587.1188a3.549,3.549,0,0,1-1.12793-.18762c-2.20193-.74551-3.481-3.49-2.86035-6.13106l25.45707-108.15036c.61523-2.63946,2.89814-4.17745,5.11625-3.4335,2.2019.74558,4.2452.35408,3.62455,2.99509L5380.907,583.49776A4.32871,4.32871,0,0,1,5376.91865,587.1188Z" style="stroke:#000;stroke-miterlimit:10;stroke-width:3px"/><path d="M5306.61688,587.11717a3.68549,3.68549,0,0,0,2.39082-.91213,5.62859,5.62859,0,0,0,.98762-6.92681l-63.85041-108.15037a3.729,3.729,0,0,0-5.78005-1.18546c-1.86733,1.585-3.8562,1.81623-2.534,4.05617l65.39676,111.021A3.9806,3.9806,0,0,0,5306.61688,587.11717Z" style="stroke:#000;stroke-miterlimit:10;stroke-width:3px"/><path d="M5354.83258,587.1188a3.54877,3.54877,0,0,0,1.12793-.18762c2.20194-.74551,3.481-3.49,2.86036-6.13106l-25.45708-108.15036c-.61523-2.63946-2.8981-4.17745-5.11621-3.4335-2.20193.74558-4.10165.849-3.481,3.49l26.07772,110.79145A4.32868,4.32868,0,0,0,5354.83258,587.1188Z" style="stroke:#000;stroke-miterlimit:10;stroke-width:3px"/><g id="afaafbd4-0f73-4b7e-8ab0-acd0fe5d3ea9" data-name="mad hatter"><path d="M5394.10171,526.90918h-57.85889s-9.43132,27.2014-7.19219,29.64425,7.19219-1.98477,7.19219-1.98477-2.52836,11.25583,0,12.88021,8.941-5.0934,8.941-5.0934l1.99335,12.20645h35.99068l1.99334-12.20645s6.4126,6.718,8.941,5.0934,0-12.88021,0-12.88021,4.95307,4.42782,7.1922,1.98477c2.23872-2.44285-7.1926-29.64426-7.1926-29.64426Z" style="fill:#f30"/><path d="M5388.84087,579.86383a24.14025,24.14025,0,0,0-47.33721,0,3.98147,3.98147,0,0,0,3.91554,4.74277h12.80047l6.9526-3.9867,6.95259,3.9867h12.80048a3.98146,3.98146,0,0,0,3.91553-4.74277Z" style="fill:#89d47f"/><path d="M5358.21967,568.317h13.90539V584.6066h-13.90539Z" style="fill:#efd176"/><path d="M5369.74381,560.9061a24.15653,24.15653,0,0,0-28.24015,18.95773,3.98147,3.98147,0,0,0,3.91554,4.74277h4.75951a24.14065,24.14065,0,0,1,19.5651-23.7005Z" style="fill:#5ec783"/><path d="M5358.59422,570.31032l-3.0247-11.5947h19.20291l-3.02212,11.5947Z" style="fill:#ffbf9e"/><path d="M5371.46825,575.65269c5.44642-4.72583,6.50628-12.44188,6.52343-16.93708h-3.21925l-9.60136,11.5947,3.32152,4.95686a1.99894,1.99894,0,0,0,2.97567.38551Z" style="fill:#f7ef87"/><path d="M5358.87369,575.65269c-5.44642-4.72583-6.50629-12.44188-6.52343-16.93708h3.21926l9.60135,11.5947-3.32152,4.95686a1.99889,1.99889,0,0,1-2.97566.38551Z" style="fill:#f7ef87"/><circle cx="5394.10111" cy="534.10137" r="7.1922" style="fill:#ffbf9e"/><circle cx="5336.24262" cy="534.10137" r="7.1922" style="fill:#ffbf9e"/><circle cx="5365.17227" cy="534.10077" r="28.90353" style="fill:#ffd4be"/><path d="M5346.23547,534.10077a28.91089,28.91089,0,0,1,23.92016-28.47416,28.90354,28.90354,0,1,0,0,56.94833,28.91072,28.91072,0,0,1-23.92016-28.47416Z" style="fill:#ffbf9e"/><path d="M5392.6677,485.53726h-54.99086a3.98665,3.98665,0,0,0-3.96756,4.377l3.55613,36.14237h55.81371l3.55613-36.14237A3.98676,3.98676,0,0,0,5392.6677,485.53726Z" style="fill:#89d47f"/><path d="M5353.62361,485.53726h-15.94677a3.98665,3.98665,0,0,0-3.96756,4.377l3.55613,36.14237h55.81371l2.5192-25.60454c-.26153-.02611-.52505-.04046-.79017-.04046H5361.2368a11.63639,11.63639,0,0,1-11.58054-10.49717,3.98656,3.98656,0,0,1,3.96735-4.37719Z" style="fill:#5ec783"/><path d="M5333.5526,508.58l1.71946,17.47667h59.80041l1.71946-17.47667a1.99332,1.99332,0,0,0-1.98378-2.18849h-59.272a1.99329,1.99329,0,0,0-1.98358,2.18849Z" style="fill:#ffcf0d"/><path d="M5377.63068,514.132h-20.25a1.495,1.495,0,0,1-1.48783-1.3487l-.41362-4.20337a1.99332,1.99332,0,0,1,1.98378-2.18849h-21.92682a1.99332,1.99332,0,0,0-1.98378,2.18849l1.71946,17.47667h21.92682l-.71761-7.29325a1.495,1.495,0,0,1,1.48784-1.64132h19.66157a1.495,1.495,0,0,0,.0002-2.99Z" style="fill:#f90"/><path d="M5387.50632,507.08953a21.77631,21.77631,0,0,0,.18518,17.05368,2.07242,2.07242,0,0,0,2.64677,1.09634,21.715,21.715,0,0,0,12.00454-28.98147,2.07242,2.07242,0,0,0-2.64677-1.09634,21.77545,21.77545,0,0,0-12.18972,11.92779Z" style="fill:#f30"/><path d="M5365.17207,531.50563c-23.367,0-37.2728-6.57924-37.85326-6.8591a3.98671,3.98671,0,0,1,3.45826-7.18442c.246.11581,13.09329,6.07014,34.395,6.07014,21.56343,0,34.26324-6.00656,34.389-6.06735a3.98675,3.98675,0,1,1,3.46464,7.18143c-.58066.28026-14.48645,6.8593-37.85366,6.8593Z" style="fill:#89d47f"/><path d="M5365.17227,531.50563a3.98669,3.98669,0,1,1,0-7.97338c-21.30171,0-34.149-5.95433-34.395-6.07014a3.98671,3.98671,0,0,0-3.45826,7.18442C5327.89947,524.92659,5341.80506,531.50563,5365.17227,531.50563Z" style="fill:#5ec783"/><g id="b8898101-dd8b-4b5c-a590-649021dbc45c" data-name="visage"><g style="opacity:0.5"><ellipse cx="5349.3138" cy="545.86033" rx="5.85147" ry="4.65985" style="fill:#eda1ab"/></g><g style="opacity:0.5"><ellipse cx="5381.03074" cy="545.86033" rx="5.85147" ry="4.65985" style="fill:#eda1ab"/></g><path d="M5368.294,545.28994c0-1.87551-1.3587-2.05175-3.03466-2.05175s-3.03466.17624-3.03466,2.05175a3.05387,3.05387,0,1,0,6.06932,0Z" style="fill:#4e5660;stroke:#000;stroke-miterlimit:10;stroke-width:1.4000000000000001px"/><path d="M5355.46746,536.68873l-4.797-1.28531a1.495,1.495,0,0,0-.774,2.88817l1.41109.37814a1.49226,1.49226,0,0,0-.07874.47581v2.0663a1.495,1.495,0,1,0,2.99,0v-1.76212l.47462.12718a1.495,1.495,0,0,0,.774-2.88817Z"/><path d="M5381.50495,536.4605a1.49493,1.49493,0,0,0-1.83108-1.05708l-4.797,1.28531a1.495,1.495,0,1,0,.77382,2.88817l.47461-.12718v1.76212a1.495,1.495,0,0,0,2.99,0v-2.0663a1.4904,1.4904,0,0,0-.07874-.47581l1.41109-.37814a1.495,1.495,0,0,0,1.05727-1.83109Z"/><path d="M5358.933,555.21692l8.84092-.52c3.7711-1.04011,4.144-1.02371,5.20053-2.08021h0" style="fill:none;stroke:#000;stroke-miterlimit:10;stroke-width:1.4000000000000001px"/></g><path d="M5374.37874,568.23425c-3.19513,0-9.20647,4.52668-9.20647,4.52668s-6.01134-4.52668-9.20648-4.52668-3.19513,12.21523,0,12.21523,9.20648-4.5267,9.20648-4.5267,6.01134,4.52669,9.20647,4.52669c3.19513.0002,3.19513-12.21523,0-12.21523Z" style="fill:#f30"/><circle cx="5365.17227" cy="574.34186" r="4.03155" style="fill:#f30"/><path d="M5406.23043,518.67386a5.46588,5.46588,0,0,0-3.24477-2.82756q.5062-.95861.92352-1.96265a23.17737,23.17737,0,0,0-.19436-18.21939,3.58024,3.58024,0,0,0-4.56935-1.89248q-.73943.29273-1.44976.63069l.42717-4.34171a5.48176,5.48176,0,0,0-5.45539-6.01851h-54.99066a5.48147,5.48147,0,0,0-5.45539,6.01831l1.50956,15.34359a3.466,3.466,0,0,0-1.66664,3.32211l.785,7.97818c-.91654-.355-1.40311-.57947-1.42524-.58983a5.48176,5.48176,0,0,0-4.75513,9.87863c.17243.08312,1.49541.70923,3.86331,1.5556a8.6848,8.6848,0,0,0-.18379,12.92706c-1.17548,4.02516-2.032,7.363-2.5461,9.92427-.95681,4.76948-.63389,6.31293.14551,7.16329,1.74039,1.89887,4.20935,1.2909,6.1726.27449-.115.7501-.22545,1.56837-.31315,2.40577-.50352,4.80636-.0018,7.41645,1.62677,8.46275,1.65886,1.066,3.99407.40844,7.13837-2.01029.56831-.43734,1.1079-.88923,1.59049-1.31322l.60718,3.718a25.5667,25.5667,0,0,0-4.733,10.47065,5.47634,5.47634,0,0,0,5.38163,6.53h39.50635a5.47635,5.47635,0,0,0,5.38163-6.53,25.56867,25.56867,0,0,0-4.733-10.471l.60717-3.7176c.4824.424,1.022.87588,1.5905,1.31322,3.1441,2.41873,5.47911,3.07673,7.13837,2.01029,1.62857-1.0463,2.13049-3.65639,1.627-8.46275-.08771-.83741-.19834-1.65568-.31316-2.40557,1.96345,1.0162,4.432,1.62418,6.1724-.27469.78079-.85175,1.10352-2.40038.14033-7.1892-.51448-2.55846-1.36923-5.88715-2.54072-9.89876a8.69063,8.69063,0,0,0-.1802-12.928c2.36571-.84558,3.68769-1.47129,3.85992-1.55442a5.48146,5.48146,0,0,0,2.55507-7.31917Zm-5.984-22.12216a.57439.57439,0,0,1,.72438.3,20.22546,20.22546,0,0,1-1.45434,19.01953,5.48516,5.48516,0,0,0-.60159.246,45.78689,45.78689,0,0,1-5.56642,2.01946l3.31673-8.00727a1.495,1.495,0,1,0-2.76238-1.14418l-4.21075,10.16587q-.90208.22723-1.8861.45169a20.18422,20.18422,0,0,1,12.44048-23.05106ZM5335.167,508.05012a.49363.49363,0,0,1,.36937-.16366h36.246a1.495,1.495,0,1,0,0-2.99h-35.09686l-1.48844-15.1287a2.49151,2.49151,0,0,1,2.47973-2.73547h54.99066a2.49151,2.49151,0,0,1,2.47972,2.73547l-.63448,6.44887a23.00214,23.00214,0,0,0-7.64309,8.67963h-9.1072a1.495,1.495,0,0,0,0,2.99h7.8498a22.96288,22.96288,0,0,0-.73236,12.33025,104.2366,104.2366,0,0,1-19.70762,1.82052,96.58672,96.58672,0,0,1-29.21031-4.23885l-.92152-9.36494a.493.493,0,0,1,.12657-.38312Zm8.93558,53.27239a34.02989,34.02989,0,0,1-3.28942,2.95454c-2.42013,1.87494-3.545,1.99355-3.74909,1.91959-.09269-.1176-.779-1.16909-.25654-5.88356.31016-2.79786.888-5.3914.89381-5.41732a1.49556,1.49556,0,0,0-2.45381-1.44338c-1.52371,1.35547-4.11287,2.84829-5.00549,2.172-.12638-.54-.26631-3.04883,2.73447-13.47562a8.633,8.633,0,0,0,3.06159.63428,30.188,30.188,0,0,0,2.59673,6.15526,1.495,1.495,0,1,0,2.60849-1.46153,27.42013,27.42013,0,0,1-3.47978-13.37616,27.723,27.723,0,0,1,.33269-4.2827,116.7637,116.7637,0,0,0,54.15046.0002,27.71864,27.71864,0,0,1,.33388,4.2825,27.40906,27.40906,0,0,1-48.06876,18.01149,1.49493,1.49493,0,1,0-2.25288,1.96564,30.42158,30.42158,0,0,0,8.68381,6.88223c.04864.6594.12359,1.39075.23482,2.17314a25.674,25.674,0,0,0-3.84955,3.08032l-.66937-4.09951a1.49472,1.49472,0,0,0-2.55607-.79136Zm-8.80382-21.60349a5.69492,5.69492,0,0,1-1.04471-10.95384q.45747.13693.94166.27548a30.41628,30.41628,0,0,0,.10305,10.67836Zm34.58995,31.74564c2.56364-1.45993,3.87307-1.71089,4.4055-1.73342.35721.32273.98591,1.94411.98591,4.61062,0,2.66669-.6287,4.28808-.98591,4.61081-.532-.02253-1.84146-.27329-4.4055-1.73342a5.51481,5.51481,0,0,0,0-5.75459Zm5.37685-4.5835a2.79018,2.79018,0,0,0-.88684-.14192c-1.52331,0-3.59361.75368-6.16323,2.23853l4.49161-5.4241a30.13975,30.13975,0,0,0,3.53819-1.14259,25.95916,25.95916,0,0,1-.97973,4.47008Zm-10.0945,1.08538-2.9956-3.61753c.99129.09828,1.99115.1505,2.99679.1505q1.51416,0,2.99182-.14731Zm2.53773,6.37532a2.53654,2.53654,0,1,1-2.53654-2.53653A2.53948,2.53948,0,0,1,5367.7088,574.34186Zm-7.253,2.8776c-2.56543,1.46073-3.87407,1.71069-4.40549,1.73322-.35721-.32292-.98591-1.94431-.98591-4.61082,0-2.6663.6287-4.28769.98591-4.61061.53142.02253,1.84006.27249,4.40549,1.73322a5.51557,5.51557,0,0,0,0,5.755Zm-4.49-10.48022a2.712,2.712,0,0,0-.887.1505,25.92043,25.92043,0,0,1-.98292-4.481,30.379,30.379,0,0,0,3.53261,1.137l4.4956,5.42888c-2.568-1.48285-4.63653-2.23533-6.15825-2.23533Zm.75887,16.37236h-11.30547a2.49477,2.49477,0,0,1-1.93534-.91635,2.45058,2.45058,0,0,1-.51388-2.03919,22.68575,22.68575,0,0,1,8.84069-13.82526,25.304,25.304,0,0,0,1.017,3.12677c-.02392.06318-.04765.127-.07057.19315a14.77993,14.77993,0,0,0-.68252,4.69114c0,3.67533,1.02219,7.60283,3.89141,7.60283a5.52446,5.52446,0,0,0,.75887-.05721v1.22411Zm13.90519,0h-10.91537v-2.1594a27.771,27.771,0,0,0,3.06378-1.62955,5.523,5.523,0,0,0,4.78821-.00021,27.8106,27.8106,0,0,0,3.06358,1.63v2.1592Zm16.74491-2.95554a2.44978,2.44978,0,0,1-.51388,2.0392,2.49511,2.49511,0,0,1-1.93534.91634h-11.30547v-1.22411a5.55317,5.55317,0,0,0,.75887.057c2.86923,0,3.89141-3.92729,3.89141-7.60282a14.34737,14.34737,0,0,0-.75348-4.88928,25.26468,25.26468,0,0,0,1.015-3.12338,22.684,22.684,0,0,1,8.84289,13.827Zm12.72752-24.53132c-.89262.67694-3.48178-.81668-5.0041-2.17095a1.495,1.495,0,0,0-2.455,1.442c.00578.02591.58385,2.61945.89382,5.41731.52226,4.71208-.16305,5.76477-.25635,5.88336-.20591.07376-1.33155-.04624-3.74928-1.91939a34.08472,34.08472,0,0,1-3.289-2.95414,1.49516,1.49516,0,0,0-2.55707.79136l-.66936,4.09932a25.67052,25.67052,0,0,0-3.85135-3.08112c.11222-.78737.18657-1.51973.23481-2.17494a30.54217,30.54217,0,0,0,14.90585-18.17415,8.63414,8.63414,0,0,0,3.06258-.63448c3.001,10.4272,2.86105,12.93582,2.73447,13.47582Zm-4.95347-26.58427q.4838-.13875.94226-.27568a5.69532,5.69532,0,0,1-1.04252,10.95344,30.497,30.497,0,0,0,.10026-10.67776Zm7.22768-5.74064c-.5683.27408-14.18326,6.7108-37.20422,6.7108-23.02077,0-36.63572-6.43672-37.20363-6.7106a2.49038,2.49038,0,0,1,1.086-4.734,2.50061,2.50061,0,0,1,1.08558.24837c.5388.25355,13.44094,6.21266,35.03207,6.21266,21.91526,0,34.91048-6.15386,35.03805-6.21565a2.4919,2.4919,0,0,1,2.16617,4.48842Z"/></g><path d="M5288.22758,599.90739v79.96127c0,13.32654,12.6026,24.13134,28.14813,24.13134h99.6761C5431.598,704,5444.2,693.1952,5444.2,679.86866V599.90739Z" style="fill:#d59247;stroke:#000;stroke-miterlimit:10;stroke-width:7px"/><path d="M5449.42792,584.42511H5282.99957c-8.38982,0-15.1919,5.83181-15.1919,13.02337s6.80208,13.02332,15.1919,13.02332h166.42835c8.38982,0,15.19193-5.83176,15.19193-13.02332S5457.81774,584.42511,5449.42792,584.42511Z" style="fill:#e7a14e;stroke:#000;stroke-miterlimit:10;stroke-width:7px"/><path d="M5492.37574,472.5997C5559.35512,412.29656,5620,317.43629,5620,237.54218,5620,109.11214,5506.37591,5,5366.21409,5c-140.16316,0-253.7866,104.11214-253.7866,232.54218,0,79.89411,60.64422,174.75438,127.62429,235.05752Z" style="fill:#f30;stroke:#000;stroke-miterlimit:10;stroke-width:7px"/><path d="M5453.98276,472.5997c41.162-60.30314,68.19455-155.16341,68.19455-235.05752C5522.17731,109.11214,5452.35,5,5366.214,5c-86.13685,0-155.96378,104.11214-155.96378,232.54218,0,79.89411,27.03216,174.75438,68.19458,235.05752Z" style="fill:#fff;stroke:#000;stroke-miterlimit:10;stroke-width:7px"/><path d="M5405.35545,472.5997c18.35674-60.30314,30.41225-155.16341,30.41225-235.05752C5435.7677,109.11214,5404.62731,5,5366.21386,5c-38.41382,0-69.554,104.11214-69.554,232.54218,0,79.89411,12.05535,174.75438,30.41225,235.05752Z" style="fill:#f30;stroke:#000;stroke-miterlimit:10;stroke-width:7px"/></g></g><g id="ed70a31d-b01e-4b86-82e5-282add54018d" data-name="Ancrage"><rect x="5624" y="999" width="1" height="1" style="fill:none"/><rect x="5624" width="1" height="1" style="fill:none"/><rect y="999" width="1" height="1" style="fill:none"/><rect width="1" height="1" style="fill:none"/></g></svg>