<svg xmlns="http://www.w3.org/2000/svg" viewBox="0 0 5625 1000"><defs><style>.cls-1{fill:#094270;}.cls-2{fill:#00adef;}.cls-3{fill:#fff;}.cls-4{fill:#0791cf;}.cls-5{fill:#9cb923;}.cls-6{fill:#d5cb00;}.cls-7{fill:#c9ad87;}.cls-8{fill:#d1c9c9;}.cls-9{fill:#8e3a27;}.cls-10{fill:#da127a;}.cls-11{fill:#d52a46;}.cls-12{fill:#d94f3d;}.cls-13{fill:#eca21a;}.cls-14{fill:#adb0c5;}.cls-15{fill:#fbd600;}.cls-16{fill:#00a4d0;}.cls-17{fill:#eb9e89;}.cls-18{fill:#b16b9c;}.cls-19{fill:none;}</style></defs><title>logo_reseau_polytech</title><g id="icons"><g id="logo_polytech"><g id="g10210"><g id="g10232"><g id="g3227"><path id="path3229" class="cls-1" d="M2084.82419,962.428V830.22282h74.14339c14.02906-.09816,24.32775,4.52464,30.2,12.735,5.87222,8.14793,7.318,18.46446,7.35366,29.37-.03569,5.52416.08925,15.74254-4.78345,25.24695-4.77452,9.64722-15.70682,17.74159-33.502,17.5274h-47.45963V962.428Zm25.952-70.11852h35.1262c7.41612.02677,13.23479-.09817,16.82238-1.0977,3.60543-1.15124,4.79236-2.02582,6.3095-5.47954.92813-2.365,1.55283-6.16672,1.535-11.61057.116-11.44993-1.49929-16.7956-3.20384-18.29489-1.37435-1.6867-5.6848-2.90041-15.06428-2.81117h-41.52495Z"/></g><g id="g3231"><path id="path3233" class="cls-1" d="M2331.71955,829.25984c17.25967.19633,29.6645,2.66838,38.19617,10.55749,8.47812,8.023,11.03048,19.928,11.03048,35.59919v43.292c.02677,14.90364-2.98073,26.60345-11.58379,34.37655-8.59414,7.666-20.99,10.29869-37.68748,10.33438h-18.20565c-16.70636-.03569-29.10227-2.66837-37.70533-10.33438-8.57628-7.7731-11.57486-19.47291-11.557-34.37655v-43.292c0-15.67114,2.54343-27.57621,11.0037-35.59919,8.54059-7.88912,20.94542-10.36116,38.25864-10.56642h18.20565m-18.20565,22.79276c-11.1108-.08924-16.7956,1.49929-19.12486,3.95348-2.50774,2.24894-4.25691,7.87127-4.20336,19.41937v43.292c.00892,11.61056,2.20431,16.34938,4.91731,18.46446,2.66838,2.33817,8.71016,3.43587,18.41091,3.43587h18.1521c9.76323,0,15.79608-1.0977,18.48231-3.43587,2.69515-2.11508,4.89054-6.85389,4.89054-18.46446v-43.292c.07139-11.5481-1.70455-17.17043-4.19444-19.41937-2.32033-2.45419-8.023-4.04272-19.12486-3.95348h-18.20565"/></g><g id="g3235"><path id="path3237" class="cls-1" d="M2462.5307,962.428V830.22282h25.96983V939.64413H2557.325V962.428Z"/></g><g id="g3239"><path id="path3241" class="cls-1" d="M2656.02908,962.419V908.06084l-54.45631-77.83808h30.82466l37.21449,52.966,37.23234-52.966h31.36905l-56.23225,77.87378V962.419Z"/></g><g id="g3243"><path id="path3245" class="cls-1" d="M2837.95888,962.419V852.99767H2794.185V830.22276h113.49081v22.79276l-43.765-.01785V962.419Z"/></g><g id="g3247"><path id="path3249" class="cls-1" d="M2980.18521,962.428V830.22282h97.47162v22.79276h-71.51072v30.69973h68.46753V905.696h-68.46753v33.94818h71.51072V962.428Z"/></g><g id="g3251"><path id="path3253" class="cls-1" d="M3201.85593,963.40421h-.08032c-13.27049,0-24.59547-3.8107-32.52921-11.52133-7.95158-7.666-12.02108-18.875-11.99431-32.05622V872.80432c-.22311-18.25027,6.89851-30.68187,18.75-36.69687,11.62841-6.04178,26.35357-6.79142,42.96176-6.85389H3231.574c14.71623.00893,25.57715,2.81116,32.85941,10.0845,7.18409,7.35366,9.38841,17.73267,9.38841,30.24458v9.201h-25.94305v-8.71908c.06247-8.24609-1.16909-12.61009-3.0432-14.42174-1.651-1.91873-5.92576-3.6322-15.43019-3.5965h-8.63875c-11.75336-.01785-20.44566.5176-26.13047,2.06152-5.73835,1.65992-7.96943,3.51619-9.65613,7.03238-1.11554,2.43634-1.79379,6.07747-1.77594,11.19112v33.39487c-.01785,10.31653.232,18.32167,1.57961,23.60487,1.49928,5.33676,3.11459,7.49645,7.05915,9.32594,2.73977,1.19586,6.90743,1.96335,12.87782,1.9455h18.21457c9.00466.0357,15.46588-.46407,19.41043-1.66885,3.94456-1.31188,4.98871-2.356,6.1578-4.89054a23.97529,23.97529,0,0,0,1.178-8.53166V910.465h25.952v16.67959c.24095,15.05536-6.04178,25.711-16.18875,30.64618-9.95064,4.9887-22.26623,5.56878-35.974,5.61341h-21.61475"/></g><g id="g3255"><path id="path3257" class="cls-1" d="M3448.00785,962.428l-.00892-55.9199h-68.4586V962.428h-25.952V830.22282h25.96089l-.00892,53.49249h68.4586V830.22283h25.952V962.428Z"/></g><g id="g3259"><path id="path3261" class="cls-1" d="M3522.28251,812.34382c9.4598,0,17.8933,6.80927,17.8933,17.42923,0,10.5932-8.4335,17.42924-17.8933,17.42924-9.46872,0-17.91114-6.836-17.91114-17.42924,0-10.62,8.44242-17.42923,17.91114-17.42923m0,31.137c7.21979,0,13.13663-5.783,13.13663-13.70778,0-7.96944-5.91684-13.70779-13.13663-13.70779-7.318,0-13.15447,5.73835-13.15447,13.70779,0,7.92481,5.83652,13.70778,13.15447,13.70778m9.1296-10.8163a8.38185,8.38185,0,0,1-8.487,7.3715c-6.04178,0-10.031-4.51571-10.031-10.34331,0-6.02392,3.74822-10.4504,9.95064-10.4504,4.27476,0,7.782,2.52559,8.4335,7.22872h-3.64113a4.55587,4.55587,0,0,0-4.79237-3.49834c-3.55189,0-5.45277,2.79332-5.45277,6.62186,0,3.62328,2.13291,6.7111,5.53309,6.7111,2.57021,0,4.43539-1.40112,4.71205-3.64113Z"/></g><g id="g3263"><path id="path3265" class="cls-2" d="M2778.91276,36.58059c-160.20971.03569-293.7178,113.97272-324.01594,265.25809h135.23942a199.59929,199.59929,0,1,1,.2588,131.25025l-135.20374-.03571V599.70631c0,142.03977,122.9149,133.66871,122.9149,133.66871l.07139-103.80787a328.9556,328.9556,0,0,0,200.73514,67.98558c182.53841-.0446,330.45039-147.94767,330.4861-330.495-.03568-182.54728-147.94765-330.44142-330.48607-330.47711"/></g></g></g><g id="g5653"><path id="path5655" class="cls-3" d="M3203.73117,757.67941a.64376.64376,0,1,1-.65922.64415.64034.64034,0,0,1,.65922-.64415m0,1.14928a.50613.50613,0,1,0-.48543-.50513.48688.48688,0,0,0,.48543.50513m.336-.39854a.3077.3077,0,0,1-.31165.27342.36328.36328,0,0,1-.37074-.38232.355.355,0,0,1,.36726-.38464.29444.29444,0,0,1,.31049.26531h-.13555l-.17494-.1286c-.13207,0-.20043.10311-.20043.24329a.22352.22352,0,0,0,.20391.24909l.17146-.13555Z"/></g><g id="g5657"><path id="path5659" class="cls-3" d="M3175.17348,761.56577v-2.594h1.454a.686.686,0,0,1,.59434.25256.982.982,0,0,1,.14481.57349,1.09555,1.09555,0,0,1-.095.4947.67779.67779,0,0,1-.65805.34408h-.92916v.92916Zm.51092-1.3752h.68818a1.29762,1.29762,0,0,0,.33019-.02433l.12512-.10427a.76861.76861,0,0,0,.0278-.22823c.00232-.22476-.0278-.329-.06256-.36147-.0278-.03012-.11122-.05329-.29311-.05213h-.81562Z"/></g><g id="g5661"><path id="path5663" class="cls-3" d="M3180.01819,758.95219a1.09808,1.09808,0,0,1,.74842.20738.914.914,0,0,1,.21549.69861v.85037a.8662.8662,0,0,1-.22708.67544,1.07115,1.07115,0,0,1-.73915.20043h-.35683a1.06975,1.06975,0,0,1-.738-.20043.8629.8629,0,0,1-.22939-.67544v-.85037a.90983.90983,0,0,1,.21665-.69861,1.10083,1.10083,0,0,1,.75074-.20738h.35683m-.35683.44952c-.21781-.00232-.33019.02781-.37537.073-.04982.04634-.08342.15756-.08342.38348v.85037c0,.22824.04518.31976.09848.36031a.6138.6138,0,0,0,.36031.0672h.35683a.61843.61843,0,0,0,.36147-.0672c.05445-.04055.09731-.13207.09731-.36031v-.85037c.00232-.22592-.03591-.33714-.08341-.38348-.04518-.04518-.15641-.07531-.37537-.073h-.35683"/></g><g id="g5665"><path id="path5667" class="cls-3" d="M3182.58207,761.56577v-2.594h.50976v2.14447h1.34971v.44952Z"/></g><g id="g5669"><path id="path5671" class="cls-3" d="M3186.37889,761.56577v-1.06934l-1.06934-1.52465h.6036l.73105,1.03922.72872-1.03922h.61635l-1.10178,1.527v1.067Z"/></g><g id="g5673"><path id="path5675" class="cls-3" d="M3189.94618,761.56577V759.419h-.85849v-.4472h2.22558v.44836l-.85849-.00116v2.14679Z"/></g><g id="g5677"><path id="path5679" class="cls-3" d="M3192.73514,761.56577v-2.594h1.9116v.44836h-1.40184v.60128h1.34276v.42983h-1.34276v.665h1.40184v.44952Z"/></g><g id="g5681"><path id="path5683" class="cls-3" d="M3197.083,761.584h-.00116a.90428.90428,0,0,1-.63952-.2236.86632.86632,0,0,1-.23518-.63025v-.92452a.73314.73314,0,0,1,.36842-.71714,1.8543,1.8543,0,0,1,.84342-.13671h.24793a.87133.87133,0,0,1,.64415.19811.81147.81147,0,0,1,.18305.59549v.18074h-.5086v-.17147a.43117.43117,0,0,0-.05909-.285c-.03244-.03592-.11585-.07067-.30238-.06835h-.1703a2.19065,2.19065,0,0,0-.51324.04054.24206.24206,0,0,0-.18884.13787l-.0336.21781-.00116.65458a2.06921,2.06921,0,0,0,.03244.46574l.13787.183a.66691.66691,0,0,0,.2514.03475h.35683a1.5118,1.5118,0,0,0,.38117-.03012l.12049-.09616.02432-.16915v-.29427h.50745v.32787a.61032.61032,0,0,1-.31513.599,1.57194,1.57194,0,0,1-.70787.11122h-.42287"/></g><g id="g5685"><path id="path5687" class="cls-3" d="M3201.90955,761.56577v-1.09715h-1.3416v1.09715h-.50976v-2.594h.50976v1.04965h1.3416v-1.04965h.50976v2.594Z"/></g></g></g><g id="cubes"><rect class="cls-4" x="91" y="89" width="290" height="290"/><rect class="cls-5" x="406" y="500" width="290" height="290"/><rect class="cls-6" x="1213" y="143" width="290" height="290"/><rect class="cls-7" x="1561" y="645" width="290" height="290"/><rect class="cls-8" x="1940" y="143" width="290" height="290"/><rect class="cls-9" x="5267" y="355" width="290" height="290"/><rect class="cls-10" x="4855" y="355" width="290" height="290"/><rect class="cls-11" x="4465" y="645" width="290" height="290"/><rect class="cls-12" x="4465" y="89" width="290" height="290"/><rect class="cls-13" x="3837" y="89" width="290" height="290"/><rect class="cls-14" x="3547" y="433" width="290" height="290"/><rect class="cls-15" x="773" y="143" width="290" height="290"/><rect class="cls-16" x="949" y="645" width="290" height="290"/><rect class="cls-17" x="3258" y="89" width="290" height="290"/><rect class="cls-18" x="4007" y="645" width="290" height="290"/></g><g id="Ancrage"><rect class="cls-19" x="5624" y="999" width="1" height="1"/><rect class="cls-19" x="5624" width="1" height="1"/><rect class="cls-19" y="999" width="1" height="1"/><rect class="cls-19" width="1" height="1"/></g></svg>