<svg xmlns="http://www.w3.org/2000/svg" viewBox="0 0 5625 1000"><title>logo_mise_en_lumiere</title><g id="e8b166c1-1dd2-41ea-8890-e1352e7f661f" data-name="Texte"><g id="b3aa0180-ee0b-4ae1-b3fd-a0121046ec58" data-name="playball"><path d="M1211.28613,297.75049l47.02051-3.04053q-32.41113,28.76293-92.5498,170.48682-89.04493,212.92016-83.21094,303.15869,2.69825,41.71875,29.24219,39.99707,12.123-.78516,28.94043-11.77246l.75878-.04981c1.51661-.09765,2.35743,1.12207,2.52051,3.64551q.93165,14.41552-36.53418,29.7793-37.47216,15.36474-61.73535,16.93945-50.81982,3.28564-54.39355-52.07812-6.22706-96.30617,129.55664-399.06983-28.478,30.79322-38.30567,43.60254Q1015.03564,525.219,883.05078,721.85254,855.21,762.49317,844.47656,773.08887q-10.7373,10.5996-29.31933,11.7959-18.59327,1.20263-43.58594-8.6045,17.37891-25.48974,9.42187-148.7373Q773.023,504.30713,751.332,404.41309q-24.01611,52.585-83.97851,232.38183-59.96631,179.80371-57.06836,224.54981.34423,5.31445,1.20019,6.77636l-69.77441,4.51172q36.0703-113.51659,104.74023-299.98242,68.65869-186.45117,83.90625-221.71484-69.02051,4.46337-132.85254,36.00781-63.84228,31.54541-72.8584,68.68457a2.9834,2.9834,0,0,1-2.88671,2.47119q-6.07911.39331-6.70411-9.4668-.09814-1.511,4.74317-20.86962,4.83545-19.34034,20.58008-40.93311,15.74121-21.58081,37.85547-32.91113,36.16992-17.56422,90.7871-21.102l96.31836-6.22852q22.752-1.47144,36.51465,5.2544Q815.605,338.574,822.76563,366.665q7.13525,28.0979,18.72265,130.54346,11.56934,102.45776,14.27246,144.15771,2.69824,41.71875,2.16114,56.97949,99.668-142.76367,258.59179-358.67236Q1144.53467,302.073,1211.28613,297.75049Z" style="fill:red;stroke:#000;stroke-miterlimit:10;stroke-width:5px"/><path d="M1294.1543,519.34277l37.96972-1.69336,7.584-.49023q-11.5503,9.88476-29.04395,51.38086-17.50341,41.50781-26.03418,62.61035-8.54149,21.11572-18.793,56.81055-10.25684,35.70117-8.835,57.69043,1.42237,22.00488,15.832,21.06152,9.84669-.6372,26.82325-15.06152a148.25377,148.25377,0,0,0,27.38476-29.94922,453.46165,453.46165,0,0,0,22.97852-39.18457q12.55371-23.65869,21.71875-41.00684,9.16113-17.335,10.67676-17.44531,4.5498-.29443,5.458,13.73535a52.50331,52.50331,0,0,1-5.84375,27.415q-25.02538,48.84815-46.11621,81.80566a287.18,287.18,0,0,1-49.15429,58.39356q-28.05762,25.42823-52.32715,26.99219-42.48341,2.748-46.2959-56.40918-5.93409-91.75488,49.80469-207.3252Q1261.53712,521.45215,1294.1543,519.34277Zm96.6709-106.77929-3.03321.19629q-15.18163.98144-28.36621,14.78076-13.20849,13.81273-18.38183,27.84424-20.21925-6.29664-21.4834-26.02832-1.27442-19.71242,15.627-40.99366,16.90283-21.2622,33.58789-22.354,16.67286-1.07812,25.51758,5.96631a25.05461,25.05461,0,0,1,9.59277,18.7998Q1404.64746,402.542,1390.8252,412.56348Z" style="fill:red;stroke:#000;stroke-miterlimit:10;stroke-width:5px"/><path d="M1692.11914,643.64063q-50.751,98.49023-94.61035,138.63281Q1553.64258,822.416,1480.082,827.18555q-42.48194,2.74658-72.34473-11.69629-29.88573-14.436-31.93359-46.2959a57.00817,57.00817,0,0,1,8.46-34.05664q9.63135-15.84814,28.21778-17.05567,18.57567-1.20117,24.77246,12.10645-13.48242,15.34717-12.252,34.30176,2.45362,37.93212,44.92383,35.17383,25.02685-1.61866,42.48047-20.26368,17.44776-18.63867,16.10449-39.501-1.34911-20.85059-11.47949-36.19434a120.488,120.488,0,0,0-23.80859-26.63965q-13.689-11.28809-27.35547-22.60156-33.019-27.56543-35.4834-65.86719-2.47706-38.28809,25.0293-66.35254,27.4951-28.05321,78.32031-31.33935,31.853-2.05958,54.583,7.89453,22.72411,9.95435,24.27441,33.84326,1.54541,23.89014-11.73633,42.26563-13.2876,18.38671-37.93066,19.96875-24.65479,1.5952-26.12012-21.15821-.34276-5.29687,16.41406-17.05468,16.7505-11.73927,16.02149-23.12207-.73536-11.376-10.584-16.45118-9.85986-5.07421-27.292-3.94726Q1513.9082,514.272,1498.39941,527.46q-15.53319,13.19532-14.24609,32.90723,1.27589,19.73143,19.08789,36.084a182.43931,182.43931,0,0,0,38.31641,27.22363q20.49756,10.86475,38.58593,31.39454,18.07179,20.5371,19.62793,44.42675,1.54542,23.89014-8.22558,43.56055-9.77784,19.67871-24.2041,32.02832,41.28808-20.94726,84.36621-96.84473,4.15869-6.356,14.30859-26.05761,23.44776-49.49561,26.48731-49.69239,4.55127-.29442,5.458,13.73633A52.51046,52.51046,0,0,1,1692.11914,643.64063Z" style="fill:red;stroke:#000;stroke-miterlimit:10;stroke-width:5px"/><path d="M1987.37207,581.1377q4.5498-.29444,5.50684,14.49511.95654,14.78907-9.8545,36.05078-10.81494,21.26221-21.38867,40.22364a500.73587,500.73587,0,0,1-28.72754,44.50586q-18.15966,25.55712-36.17773,41.18066-45.52294,37.98194-93.68262,41.09082-48.17139,3.11426-79.331-19.62207-31.17187-22.72266-34.458-73.54883-5.00244-77.35839,47.61133-147.01758,52.61425-69.66064,128.45508-74.56445,34.1294-2.20679,55.75878,14.2915,21.62989,16.50367,23.248,41.52588,2.74659,42.4834-35.78223,70.85645-38.54,28.3916-93.13378,31.916-31.853,2.05958-47.56055-5.30175-11.915,39.61083-9.99609,69.18945,4.11913,63.706,57.96679,60.22363,31.853-2.05956,64.00879-28.88965a286.94257,286.94257,0,0,0,54.05859-59.09179q21.90381-32.26026,48.5127-91.86133C1984.19336,583.12793,1985.85547,581.23535,1987.37207,581.1377Zm-84.2666-54.71582q-1.4209-21.98877-22.65723-20.6211-29.57812,1.91309-63.62793,40.6709-34.04883,38.75831-32.57812,61.50977.98144,15.18016,29.80078,13.30468,28.81347-1.86327,58.47949-31.96Q1902.16944,559.24268,1903.10547,526.42188Z" style="fill:red;stroke:#000;stroke-miterlimit:10;stroke-width:5px"/><path d="M2531.89258,545.92578q4.5498-.293,5.50586,14.49512.95654,14.78906-9.85352,36.05078-10.81641,21.2622-21.38867,40.22363a501.03766,501.03766,0,0,1-28.72754,44.50684q-18.16113,25.55712-36.17773,41.17969-45.52441,37.98339-93.6836,41.09082-48.16992,3.11571-79.33008-19.6211-31.17187-22.72411-34.458-73.5498-5.00244-77.35693,47.61133-147.01758,52.61426-69.65991,128.45507-74.564,34.12939-2.20679,55.75782,14.29151,21.63133,16.50439,23.248,41.52539,2.748,42.4834-35.78125,70.85742-38.54,28.39161-93.13476,31.916-31.853,2.05956-47.56055-5.30176-11.915,39.61085-9.99512,69.18848,4.11915,63.70752,57.96582,60.22461,31.853-2.05958,64.00879-28.89063a286.92077,286.92077,0,0,0,54.05957-59.0918q21.90381-32.25879,48.5127-91.86035C2528.71289,547.917,2530.375,546.02441,2531.89258,545.92578Zm-84.2666-54.71533q-1.4209-21.988-22.65723-20.62109-29.57959,1.91309-63.62793,40.67041-34.04883,38.75829-32.57812,61.51074.98143,15.18018,29.7998,13.30371,28.81347-1.86328,58.47949-31.96Q2446.69044,524.03076,2447.626,491.21045Z" style="fill:red;stroke:#000;stroke-miterlimit:10;stroke-width:5px"/><path d="M2883.64453,568.11426q-25.02685,48.84668-46.11719,81.80469A287.08664,287.08664,0,0,1,2788.374,708.3125q-28.0576,25.4297-52.32714,26.99316-44.75831,2.89454-47.9336-46.40332-3.1875-49.29052,44.08008-201.62353a35.26918,35.26918,0,0,0,2.10254-14.606q-1.02978-15.9265-21.12793-14.62695-20.10351,1.3-38.62891,15.064-18.52881,13.76441-32.96,37.9253a511.18376,511.18376,0,0,0-25.78027,48.88574,388.66684,388.66684,0,0,0-20.334,56.5293q-8.99121,31.81786-14.084,53.0791-5.10351,21.28565-9.999,45.58008-4.90869,24.3076-5.51368,26.63183l-73.56543,4.75684q-1.02978-15.92726,54.9209-187.09375,22.25244-79.86915,20.24024-110.97608-.48925-7.57178-3.01074-11.229l31.85351-2.06006q26.53857-1.71606,34.47168,3.10205a16.758,16.758,0,0,1,8.5166,13.91943q.5874,9.10108-5.94043,37.70166,59.78467-64.78637,124.248-68.96093,43.23047-2.79565,45.78027,36.64209a91.24174,91.24174,0,0,1-2.125,26.03125q-2.96924,13.15063-15.625,52.79736Q2757.74366,623.479,2759.61914,652.292q1.17627,18.20068,14.82813,17.31836,9.84815-.63575,26.79882-15.4414a168.65987,168.65987,0,0,0,27.73926-30.35254,416.89441,416.89441,0,0,0,23.38379-38.83008q12.57715-23.26758,21.36328-40.60254,8.77-17.31006,10.29785-17.4209,4.54981-.29444,5.457,13.73633A52.51391,52.51391,0,0,1,2883.64453,568.11426Z" style="fill:red;stroke:#000;stroke-miterlimit:10;stroke-width:5px"/><path d="M3396.73242,223.44727q-23.72314,57.13549-75.30859,130.91211-51.59766,73.78857-93.58692,119.147l-9.8789,35.67138q-7.38135,27.14357-13.27344,65.59278-5.90185,38.47266-4.10156,54.33789,1.47071,22.752,18.15527,21.67285,16.67286-1.07812,38.59082-21.53516,21.90089-20.44335,31.61524-35.17285,9.706-14.71142,22.26953-38.377,12.55371-23.65869,21.71972-41.00684,9.16115-17.335,10.67579-17.44482,4.55125-.29443,5.458,13.73584a52.50843,52.50843,0,0,1-5.84277,27.41406q-37.15722,73.23046-61.07422,103.7168-48.60205,61.02978-103.9668,64.60351-42.48339,2.74659-46.19921-54.89257-3.67823-56.88135,37.96484-201.98975,3.00292-12.36768,14.1582-51.94189,11.1504-39.56178,19.61133-61.814,8.45068-22.25171,22.8418-58.97656,14.36865-36.71778,28.55468-58.96533,14.16211-22.22754,31.71192-45.46045,34.30518-46.37842,77.54687-49.18653,43.23048-2.79565,45.7793,36.64209Q3412.11621,190.47193,3396.73242,223.44727ZM3375.46,141.81055l-5.30957.34326q-46.26855,2.99195-129.93945,287.14209,96-128.81763,128.875-209.3916,18.13329-49.1521,17.18945-63.94287Q3385.32031,141.17309,3375.46,141.81055Z" style="fill:red;stroke:#000;stroke-miterlimit:10;stroke-width:5px"/><path d="M3616.9541,366.85449l36.45215-1.5957q11.37744-.73536,14.36133-1.68994-20.30859,15.78882-54.55371,104.437-34.251,88.66113-31.79785,126.57519,1.47069,22.752,16.63867,21.77149,9.84667-.63721,26.08984-14.63379a156.335,156.335,0,0,0,27.36035-30.3291,431.51711,431.51711,0,0,0,23.68848-39.99121q12.55371-23.66016,21.71973-41.00684,9.15966-17.335,10.6748-17.44531,4.55127-.29443,5.4834,14.11523a49.54333,49.54333,0,0,1-6.57715,27.84278q-83.89893,163.07226-146.83984,167.14258-42.48194,2.74658-46.542-60.20215a230.56332,230.56332,0,0,1,.582-38.11621Q3448.92041,689.21338,3384.46191,693.376q-18.9668,1.22607-31.74609-13.94043-12.79687-15.167-14.79687-46.26172-2.00978-31.08984,15.3496-104.18653,17.35254-73.092,46.21973-121.41552,6.83935-11.86451,15.39942-15.085,8.53857-3.21095,32.82031-4.78711l36.40429-2.354q-17.2998,27.01758-36.44335,72.42139-43.33595,107.15112-40.19727,155.67725,1.86474,28.83105,22.71875,27.47168,20.85058-1.34766,47.07812-43.40821,26.21192-42.05272,55.06641-108.27832,28.84863-66.21314,33.61621-74.90527Q3591.15674,368.53466,3616.9541,366.85449Z" style="fill:red;stroke:#000;stroke-miterlimit:10;stroke-width:5px"/><path d="M4233.583,480.81982q-25.02686,48.84742-46.11621,81.80518a287.15349,287.15349,0,0,1-49.1543,58.39355q-28.05762,25.4297-52.32715,26.99317-44.75831,2.89454-48.081-48.67871-3.87452-59.90185,36.74511-173.73194,8.79786-28.73583,8.11622-39.36572-.98-15.16186-14.63184-14.28515-8.354.54053-28.18262,11.72265-19.83691,11.18921-37.14551,32.10352-17.31591,20.93334-27.60253,38.34131-10.29639,17.4265-21.791,51.67334-11.49317,34.26415-15.16113,48.19921-17.59278,69.67969-23.20313,100.50586l-74.32422,4.80567q32.3628-111.76026,44.71387-150.63867,12.33544-38.87037,14.78027-48.17334l5.45313-21.67676q6.76758-24.80274,5.74316-40.73535-1.02978-15.92579-15.43945-14.99463-12.14062.78516-32.30469,12.751-20.18115,11.97876-38.56445,33.71924a187.05758,187.05758,0,0,0-29.92578,49.53321q-11.53712,27.78809-18.21875,48.01513-6.68849,20.2456-13.19141,49.21387-6.51562,28.98047-11.79883,47.21973-5.29833,18.24609-10.59863,42.1914l-73.56543,4.75684a509.549,509.549,0,0,1,14.52344-58.05762l41.15527-129.084q25.42236-77.7898,23.17676-112.68994c-.32617-5.04786-1.04883-8.30909-2.15527-9.76075l31.85351-2.06006q25.77393-1.667,33.68945,2.772,7.89113,4.45166,8.44239,12.78174.53906,8.354-6.60059,39.26709,62.80665-64.98121,129.55762-69.3042,40.18946-2.59865,42.35351,30.771.93165,14.41553-6.0371,36.18457,64.541-73.46558,137.36035-78.18652,39.42333-2.54883,41.59472,30.82031a79.10031,79.10031,0,0,1-3.44531,29.16309q-4.43115,13.99512-11.37109,36.14844-6.95508,22.155-11.34571,36.52832-4.40625,14.38623-9.90332,35.2915-11.71875,42.65186-10.41308,62.74316,1.29932,20.10353,13.81347,19.28907,12.51417-.81006,30.39551-18.72071,17.87109-17.89891,26.57617-30.65918,8.69092-12.73534,21.2793-36.02783,12.57861-23.26832,21.36426-40.603,8.77-17.30932,10.29785-17.42041,4.5498-.29443,5.457,13.73584A52.51017,52.51017,0,0,1,4233.583,480.81982Z" style="fill:red;stroke:#000;stroke-miterlimit:10;stroke-width:5px"/><path d="M4333.0293,322.834,4371,321.14014l7.583-.49024q-11.55176,9.88623-29.04492,51.38086-17.50343,41.50782-26.03418,62.61035-8.54,21.11572-18.793,56.811-10.25538,35.70117-8.835,57.68945,1.42236,22.00635,15.832,21.06153,9.84814-.63574,26.82324-15.06153a148.19941,148.19941,0,0,0,27.38477-29.94922,453.21925,453.21925,0,0,0,22.97851-39.18408q12.55371-23.65869,21.71973-41.00684,9.15966-17.335,10.67578-17.44531,4.5498-.29443,5.458,13.73584a52.49485,52.49485,0,0,1-5.84375,27.415q-25.02393,48.84668-46.11621,81.80469a287.09106,287.09106,0,0,1-49.1543,58.39355q-28.05615,25.4297-52.32617,26.99317-42.4834,2.74658-46.29688-56.41016-5.93262-91.75488,49.80567-207.32422Q4300.41211,324.94336,4333.0293,322.834Zm96.66992-106.77978-3.03418.19629q-15.17871.98145-28.36426,14.78076-13.207,13.81275-18.38086,27.84424-20.22216-6.29736-21.48535-26.02832-1.27442-19.7124,15.62695-40.99317,16.90429-21.26294,33.58692-22.35449,16.67432-1.07812,25.51953,5.96631a25.05463,25.05463,0,0,1,9.59277,18.79981Q4443.52246,206.03271,4429.69922,216.0542Z" style="fill:red;stroke:#000;stroke-miterlimit:10;stroke-width:5px"/><path d="M4716.82324,404.6377q4.54982-.29443,5.50586,14.49462.95655,14.78907-9.85351,36.05079-10.81641,21.2622-21.38868,40.22363a501.10934,501.10934,0,0,1-28.72753,44.50635q-18.16115,25.55712-36.17872,41.18066-45.52295,37.98194-93.68359,41.08984-48.16992,3.11573-79.33008-19.62109-31.17187-22.72266-34.459-73.54883-5.00244-77.35767,47.6123-147.01758,52.61426-69.66064,128.45606-74.56445,34.12793-2.20679,55.75781,14.291,21.62988,16.50439,23.24805,41.52588,2.748,42.48339-35.78223,70.85742-38.54,28.39159-93.13379,31.916-31.853,2.05957-47.56152-5.30176-11.91212,39.61011-9.99512,69.188,4.11913,63.70752,57.9668,60.22461,31.853-2.05956,64.00879-28.88965a286.92019,286.92019,0,0,0,54.05859-59.09277q21.90381-32.25879,48.51367-91.86035C4713.64355,406.62793,4715.30566,404.73584,4716.82324,404.6377ZM4568.09375,201.01221q-33.6958-14.56422-46.54785-19.07617-12.85693-4.48755-12.95508-6.01661-.29444-4.5498,14.333-13.874,14.62353-9.31715,20.69726-9.71582,6.06153-.39184,9.19825.92871,14.291,8.98316,41.30273,26.269l46.09473,29.76758q18.27246,11.77662,23.73437,13.69727.14649,2.27563-7.21679,6.17822-7.36816,3.90381-9.25977,4.02588-1.90137.12231-23.81738-9.12158Zm64.46289,148.90918q-1.42236-21.98731-22.6582-20.62061-29.57812,1.91235-63.627,40.67041-34.05029,38.75831-32.5791,61.51026.98145,15.18016,29.79981,13.30419,28.81494-1.86327,58.47949-31.96Q4631.62011,382.74293,4632.55664,349.92139Z" style="fill:red;stroke:#000;stroke-miterlimit:10;stroke-width:5px"/><path d="M4904.002,284.38916l38.72754-1.74316,7.585-.49024q-10.83691,9.09009-29.0459,51.38135-18.21825,42.30323-27.09667,63.8208-8.89014,21.531-19.12305,57.59375-10.23486,36.0747-8.8125,58.06982,1.42383,22.0049,16.5918,21.0127,9.7998-1.38428,26.77539-15.82129a158.50158,158.50158,0,0,0,27.76171-29.97314,373.29811,373.29811,0,0,0,23.334-39.58838q12.53026-24.03223,21.6709-41.76514,9.13329-17.72607,10.65234-17.82422,5.29688-.34276,6.21582,13.6875a52.5018,52.5018,0,0,1-5.84375,27.41406q-29.13428,55.96729-48.501,86.14893a280.33179,280.33179,0,0,1-47.78417,56.01953q-28.4253,25.82665-52.68165,27.39649-43.229,2.79492-47.3496-60.91114-2.79493-43.229,10.35839-98.91406a424.79341,424.79341,0,0,1,42.4795-108.60693q-25.18214,22.95849-51.71485,24.66845a45.21606,45.21606,0,0,1-17.68945-2.66455q-46.9922,109.67359-51.15234,109.93018-4.17627.27025-4.9795-12.24365-.81006-12.51491,7.22364-35.50049,8.02734-22.97388,17.70605-44.17432,9.66064-21.1875,10.2832-23.51269-28.18506-11.88574-30.1455-42.22266a43.26672,43.26672,0,0,1,7.71484-27.91553q8.68945-12.73534,25.37891-13.82666,16.67432-1.07812,27.98925,8.85254-1.23339,4.64942-.63379,13.74951,1.32423,20.47706,16.874,31.27588,15.54932,10.81128,36.78418,9.42627a40.31169,40.31169,0,0,0,9.05273-1.34717Q4876.69385,286.16017,4904.002,284.38916Z" style="fill:red;stroke:#000;stroke-miterlimit:10;stroke-width:5px"/><path d="M5288.65332,367.66016q4.55127-.29444,5.50586,14.49463.95655,14.78906-9.85352,36.05078-10.81494,21.2622-21.38769,40.22363a500.92371,500.92371,0,0,1-28.72852,44.50635q-18.16113,25.55712-36.17871,41.18066-45.52294,37.98193-93.68261,41.08984-48.16993,3.11572-79.33008-19.62109-31.17187-22.72266-34.459-73.54883-5.001-77.35766,47.61231-147.01758,52.61426-69.66063,128.45508-74.56445,34.12939-2.20678,55.75781,14.291,21.63135,16.50439,23.248,41.52588,2.74806,42.48339-35.78125,70.85742-38.54,28.39159-93.13378,31.916-31.85449,2.05958-47.56153-5.30175-11.91357,39.61083-9.99511,69.18847,4.11914,63.70678,57.96582,60.22412,31.85448-2.05956,64.00976-28.88964a286.95768,286.95768,0,0,0,54.05859-59.09229q21.90381-32.25952,48.51368-91.86084C5285.47363,369.65039,5287.13574,367.7583,5288.65332,367.66016Zm-84.26562-54.71582q-1.42238-21.98805-22.65918-20.6211-29.57812,1.91235-63.626,40.67041-34.0503,38.7583-32.5791,61.51026.98144,15.18016,29.7998,13.3042,28.81494-1.86328,58.47949-31.95948Q5203.45118,345.76514,5204.3877,312.94434Z" style="fill:red;stroke:#000;stroke-miterlimit:10;stroke-width:5px"/></g></g><g id="be7295ee-edec-48f4-94c3-8e7121e7bcee" data-name="soulignage"><g id="f5762011-3212-4b69-871b-c9aafb88c7cd" data-name="movie-film"><path d="M180.86937,950.60367H261.1389a51.56363,51.56363,0,0,0,36.90391-15.45585c14.84529-15.01133,27.2942-24.31631,50.07833-24.31631H368v30.2494H348.12114c-11.61157,0-17.06824,3.467-28.925,15.45586a81.11759,81.11759,0,0,1-58.05719,24.31631H180.86937Z"/><circle cx="176.83518" cy="854.83517" r="126.01726" style="fill:#bab8b9"/><path d="M196.10747,974.4292a126.0362,126.0362,0,0,1-49.41379-241.97409,126.036,126.036,0,1,0,79.55593,238.33627A126.28567,126.28567,0,0,1,196.10747,974.4292Z" style="fill:#9e9c9d"/><circle cx="245.4872" cy="833.28305" r="30.97595" style="fill:#fdf5e6"/><circle cx="220.36339" cy="911.98844" r="30.97595" style="fill:#fdf5e6"/><circle cx="133.31338" cy="911.98844" r="30.97595" style="fill:#fdf5e6"/><circle cx="108.18317" cy="833.28305" r="30.97595" style="fill:#fdf5e6"/><circle cx="176.83518" cy="782.9905" r="30.97595" style="fill:#fdf5e6"/><circle cx="176.83518" cy="854.83518" r="18.10892" style="fill:#fdf5e6"/><path d="M215.30715,840.25811a30.97594,30.97594,0,0,0,33.5044,23.8191,73.24886,73.24886,0,0,0,.58328-9.242,72.2915,72.2915,0,0,0-18.78728-48.71679A30.98361,30.98361,0,0,0,215.30715,840.25811Z"/><path d="M240.94359,888.84063a30.97646,30.97646,0,0,0-48.37119,36.83645A72.676,72.676,0,0,0,240.94359,888.84063Z"/><path d="M152.07818,887.34643a30.98186,30.98186,0,0,0-39.34948,1.49483,72.67852,72.67852,0,0,0,48.37182,36.8371A30.984,30.984,0,0,0,152.07818,887.34643Z"/><path d="M123.06473,806.11839a72.2915,72.2915,0,0,0-18.78728,48.71679,73.24886,73.24886,0,0,0,.58328,9.242,30.97238,30.97238,0,0,0,18.204-57.95882Z"/><path d="M176.83582,782.27616a72.27572,72.27572,0,0,0-30.401,6.66221,30.97682,30.97682,0,0,0,60.802,0A72.27356,72.27356,0,0,0,176.83582,782.27616Z"/><path d="M199.76008,854.83518a22.92459,22.92459,0,1,0-22.9249,22.92426A22.95064,22.95064,0,0,0,199.76008,854.83518Zm-36.2127,0a13.28876,13.28876,0,1,1,13.28844,13.28844A13.30333,13.30333,0,0,1,163.54738,854.83518Z"/><path d="M280.365,825.22687a35.61911,35.61911,0,0,0-34.84891-27.74346,35.80667,35.80667,0,0,0-34.07419,46.86285c5.60741,17.38751,24.32724,27.922,42.10469,23.81525A35.8356,35.8356,0,0,0,280.365,825.22687Zm-35.94162,34.195a26.05448,26.05448,0,0,1-13.96489-4.683c-14.28735-9.99555-14.62395-31.77059-.78049-42.29162a67.57457,67.57457,0,0,1,14.8989,42.388C244.57692,856.36277,244.52553,857.89616,244.4234,859.42184Zm9.71869-1.45373c.04175-1.04453.07065-2.08968.07065-3.13293a77.18774,77.18774,0,0,0-15.7231-46.753c.36744-.1015.73682-.19914,1.11069-.28522a26.30633,26.30633,0,0,1,5.91639-.67836,26.16153,26.16153,0,0,1,8.62537,50.84952Z"/><path d="M184.64469,909.75422l-.00579.09186a35.78276,35.78276,0,0,0,35.74762,37.94266,36.125,36.125,0,0,0,35.4457-30.99458c2.59782-19.18621-11.15507-37.47884-30.32136-40.21863-.14068-.01992-.28073-.04176-.42141-.06038C204.80346,873.80362,185.9526,889.36675,184.64469,909.75422Zm9.684.31349a26.09745,26.09745,0,0,1,40.35482-19.97055,67.62345,67.62345,0,0,1-39.23514,29.88645A25.61869,25.61869,0,0,1,194.32868,910.06771Zm51.95507,5.43268a26.4095,26.4095,0,0,1-25.89915,22.65188,25.96818,25.96818,0,0,1-20.20567-9.533,77.22479,77.22479,0,0,0,41.57472-31.67358A25.96757,25.96757,0,0,1,246.28375,915.50039Z"/><path d="M111.62444,940.46871a35.47556,35.47556,0,0,0,21.66325,7.31938c20.31424,0,36.999-17.64448,35.74441-37.94971l-.0045-.07708a35.75719,35.75719,0,0,0-40.86681-33.18577,35.78816,35.78816,0,0,0-16.53635,63.89318Zm17.81535-54.34409c.05846-.00835.11691-.01735.176-.0257,15.75071-2.179,30.42414,11.04008,29.83315,26.9077-.00128.0257-.00193.05139-.00257.07709a25.94744,25.94744,0,0,1-1.22374,6.90053,67.62011,67.62011,0,0,1-39.2345-29.88645A26.11078,26.11078,0,0,1,129.43979,886.12462Zm-17.52114,10.82165a77.22823,77.22823,0,0,0,41.57408,31.67294,26.15093,26.15093,0,0,1-41.57408-31.67294Z"/><path d="M137.95207,813.5277a36.0934,36.0934,0,0,0-29.79716-16.04428,35.801,35.801,0,0,0-30.33228,54.76486,36.13871,36.13871,0,0,0,30.39009,16.83827,35.596,35.596,0,0,0,34.03308-24.79489A36.22686,36.22686,0,0,0,137.95207,813.5277Zm-3.6507,21.09731a26.35563,26.35563,0,0,1-25.05377,24.79745c-.10214-1.52631-.15289-3.059-.15289-4.58729a67.57626,67.57626,0,0,1,14.89441-42.38284c.11756.08929.23576.1773.35139.26788A26.60478,26.60478,0,0,1,134.30137,834.625ZM85.99572,847.14322a26.16494,26.16494,0,0,1,22.15854-40.02463,26.34173,26.34173,0,0,1,7.0258.96423,77.1964,77.1964,0,0,0-15.72117,46.75236c0,1.04388.02827,2.089.07,3.13421A25.96006,25.96006,0,0,1,85.99572,847.14322Z"/><path d="M141.73509,789.93086a35.72213,35.72213,0,1,0-.69441-6.93652A35.24583,35.24583,0,0,0,141.73509,789.93086Zm59.18835,3.26268c-6.46563,15.21175-26.2711,20.68618-39.60965,10.841a26.35847,26.35847,0,0,1-8.56753-10.84415l-.02248-.05268c-.03084-.07194-.57109-1.40426-.54411-1.41453a67.977,67.977,0,0,1,49.31164,0C201.49774,791.72569,200.93244,793.173,200.92344,793.19354Zm-24.08826-36.35916a26.18711,26.18711,0,0,1,26.13427,25.15591,77.61656,77.61656,0,0,0-52.2679,0A26.187,26.187,0,0,1,176.83518,756.83438Z"/><path d="M196,985c57-13,55-20,73-33,22.25617-23.46644,38.67167-62.34544,38.67167-97.16351a130.50185,130.50185,0,0,0-47.49977-100.865,4.81811,4.81811,0,1,0-6.18012,7.393,121.20873,121.20873,0,0,1-73.26241,214.60322c-1.29313.04111-2.59011.06873-3.89352.06873A121.20065,121.20065,0,1,1,238.48938,750.476a4.81885,4.81885,0,1,0,5.02827-8.22062A130.68831,130.68831,0,0,0,176.83646,724C104.69307,723.99936,46,782.69179,46,854.83518,46,926.97792,104.69307,985.671,176.83582,985.671q1.71133,0,3.413-.04432a4.82675,4.82675,0,0,0,.62055.04432" style="stroke:#000;stroke-miterlimit:10;stroke-width:3px"/><g id="bff89dea-4973-4b44-a4ac-329d24b88b65" data-name="bande_magnetique"><path d="M5364,893.612"/><path d="M5194,656c-303.18064-36.19848-1604.39733,88.35982-2379,140-30,2-271,17-271,17L330,943c-6.29679,0-44.17749,30.70741-53,30-1.043-.08363-4.76508-12.18924-3.95025-12.84564L308,932c0-7.05843,20.94157-20,28-20L2618,785c551-41,2297.40354-178,2646-178"/></g></g></g><g id="bdda2d4d-9971-4df7-8602-cd2e4e933f10" data-name="icones"><g id="b9e40a2d-e348-43d3-b829-a0a538666a3f" data-name="popcorn"><path d="M5568.82775,758.367a14.35122,14.35122,0,0,0-7.62706-10.02063,14.81031,14.81031,0,0,0-12.387-1.04294c0-.30066.0954-.58724.0954-.8926.07093-7.71572-6.55631-14.025-14.80346-14.092a15.85336,15.85336,0,0,0-5.37635.89084c0-.30066.09541-.58723.09541-.8926,0-7.78384-6.744-14.09371-15.0633-14.09371,0-7.78385-6.744-14.09372-15.06331-14.09372-.32636,0-.63265.07047-.954.08926a12.169,12.169,0,0,0-.241-9.97835,15.36564,15.36564,0,0,0-24.86449-4.35966c-2.82-7.30642-11.43619-11.09058-19.24525-8.45271-5.98578,2.02245-9.898.78117-9.8635,6.73517.01381-7.77092-6.77141-7.51032-15.07632-7.52383a15.308,15.308,0,0,0-12.75422,6.57766,15.50053,15.50053,0,0,0-10.87571-1.47984,14.73544,14.73544,0,0,0-11.31756,11.11994,13.37906,13.37906,0,0,0,3.76583,12.05013,15.18928,15.18928,0,0,0-11.67407,6.47841,15.53839,15.53839,0,0,0-12.26152-1.104,14.70368,14.70368,0,0,0-9.3041,8.59248,13.04882,13.04882,0,0,0,.20084,9.99244,14.24882,14.24882,0,0,0-11.14684,13.54876c0,.30536.07532.59194.0954.8926a14.8083,14.8083,0,0,0-12.35693,1.02884,14.36583,14.36583,0,0,0-7.65216,10.03473,13.73543,13.73543,0,0,0,7.08979,14.1407l2.78169,2.09526h17.57386V793h175.73853V774.5983h22.595l-.703-.6577C5565.43851,771.95162,5569.95624,765.30232,5568.82775,758.367Z" style="fill:#fc3"/><path d="M5346.42394,691.86312a15.5981,15.5981,0,0,0-29.35461-7.41364,15.4444,15.4444,0,0,0-1.94584-.193,15.6577,15.6577,0,1,0,2.17016,31.08135,15.58754,15.58754,0,0,0,27.13292-15.35222q-.08509-.14966-.1728-.29736A15.49333,15.49333,0,0,0,5346.42394,691.86312Z" style="fill:#fc3"/><path d="M5602.04427,702.2966a15.59809,15.59809,0,0,0-29.3546-7.413,15.44659,15.44659,0,0,0-1.94585-.193,15.6577,15.6577,0,1,0,2.17016,31.08135,15.58754,15.58754,0,1,0,27.13291-15.35222q-.08509-.14966-.17281-.298A15.49305,15.49305,0,0,0,5602.04427,702.2966Z" style="fill:#fc3"/><path d="M5372.50765,978.7839l-45.297-178.90293a24.29882,24.29882,0,0,1,23.67879-29.76672h.22954a24.29918,24.29918,0,0,1,24.10656,21.21127l28.58252,187.45838Z" style="fill:red"/><path d="M5403.80809,978.7839l-27.78958-181.27656a24.2987,24.2987,0,0,1,24.10657-27.3931h.866a24.29937,24.29937,0,0,1,24.29436,23.67879l9.82312,184.99085h-31.30045Z" style="fill:#fdf5e6"/><path d="M5425.31672,795.03983l9.79183,183.74407H5466.409l9.12408-183.10762a24.3,24.3,0,0,0-23.00452-25.52943q-.62406-.03228-1.24811-.0326h-1.6537a24.299,24.299,0,0,0-24.31784,24.28133q0,.32178.00782.64425Z" style="fill:red"/><path d="M5475.65827,793.17224,5466.409,978.78392h31.30045l26.99142-180.67141a24.29893,24.29893,0,0,0-24.01788-27.99825h-.75643A24.29947,24.29947,0,0,0,5475.65827,793.17224Z" style="fill:#fdf5e6"/><path d="M5549.87685,770.11424a24.29925,24.29925,0,0,1,23.53795,30.33535l-44.40491,178.33433h-31.30045l28.12866-188.06353A24.29923,24.29923,0,0,1,5549.87685,770.11424Z" style="fill:red"/><path d="M5382.94113,848.36536H5518.5764v62.6009H5382.94113Z" style="fill:#fc3"/><path d="M5351.64068,707.51334a20.5271,20.5271,0,0,0-1.565-7.82511,20.52707,20.52707,0,0,0,1.565-7.82511,20.80947,20.80947,0,0,0-37.25275-12.8071,20.86772,20.86772,0,1,0,.35474,41.73393,20.80969,20.80969,0,0,0,36.898-13.27661Zm-29.83976,5.21675-2.13365-2.97876-3.47435.49037a7.43512,7.43512,0,0,1-1.06943.09912,10.43348,10.43348,0,0,1,0-20.867,11.05637,11.05637,0,0,1,1.29376.15129l3.53695.44864,1.70066-3.13005a10.38657,10.38657,0,0,1,19.55234,4.91939,10.22805,10.22805,0,0,1-1.46069,5.21674l-1.5285,2.60837,1.5285,2.60837a10.22811,10.22811,0,0,1,1.46069,5.21675,10.43311,10.43311,0,0,1-10.43348,10.43348A10.31941,10.31941,0,0,1,5321.80092,712.73009Z"/><path d="M5607.261,702.2966a20.80947,20.80947,0,0,0-37.25275-12.8071,20.86772,20.86772,0,0,0,.35475,41.73393,20.80969,20.80969,0,0,0,36.898-13.27661,20.5271,20.5271,0,0,0-1.565-7.82511A20.52952,20.52952,0,0,0,5607.261,702.2966Zm-11.89417,10.43349a10.228,10.228,0,0,1,1.46069,5.21674,10.43311,10.43311,0,0,1-10.43349,10.43348,10.31862,10.31862,0,0,1-8.9728-5.21674l-2.13365-2.97876-3.47435.49037a7.51854,7.51854,0,0,1-1.07466.11477,10.43348,10.43348,0,0,1,0-20.867,11.0561,11.0561,0,0,1,1.29376.15128l3.537.44864,1.70066-3.13a10.38656,10.38656,0,0,1,19.55757,4.90373,10.22818,10.22818,0,0,1-1.46069,5.21675l-1.5285,2.60837Z"/><path d="M5441.23783,676.80605c-7.72743-6.99769-11.23783-8.80605-27.66856-.198-.36452.32018,17.77243-.95236,17.43073-.60806-3.54869-1.12812-25.831.3544-29.44554,1.25038a21.13275,21.13275,0,0,0-15.65022,16.49012,20.76354,20.76354,0,0,0,1.04335,11.15339,20.89987,20.89987,0,0,0-5.67581,4.01689,20.198,20.198,0,0,0-12.87492.193,20.9242,20.9242,0,0,0-12.90622,12.74971,20.68892,20.68892,0,0,0-1.04334,9.72923,20.95544,20.95544,0,0,0-9.95355,12.90621,19.47216,19.47216,0,0,0-10.78822,2.81183A21.10812,21.10812,0,0,0,5323.1938,762.205a20.72492,20.72492,0,0,0,3.65171,15.19115,29.37546,29.37546,0,0,0-4.69506,23.77791L5368.449,984h164.64036L5578.475,801.7427a29.266,29.266,0,0,0-4.17339-23.83008,20.57319,20.57319,0,0,0,4.03775-15.71739h0a21.06137,21.06137,0,0,0-10.48043-14.88858,20.4414,20.4414,0,0,0-10.81431-2.8327,21.0809,21.0809,0,0,0-20.867-15.65022,20.94517,20.94517,0,0,0-15.525-15.12855,20.95131,20.95131,0,0,0-15.12856-15.525,19.3623,19.3623,0,0,0-1.66414-8.50329,21.44588,21.44588,0,0,0-17.403-12.93231,20.72436,20.72436,0,0,0-11.70637,2.45709C5467.55863,670.2495,5449.94215,669.80807,5441,677m-102.109,79.33161a9.30219,9.30219,0,0,1,8.46155-.76165,5.21737,5.21737,0,0,0,6.98521-5.21674c0-.13042-.073-.52167-.08868-.66774a10.433,10.433,0,0,1,7.726-10.01615,5.21628,5.21628,0,0,0,3.50439-6.90377,10.46085,10.46085,0,0,1-.82685-3.388,10.58944,10.58944,0,0,1,7.07255-10.41352,10.017,10.017,0,0,1,8.48242.82425,5.21716,5.21716,0,0,0,6.97479-1.74239,10.2989,10.2989,0,0,1,8.08594-4.78375,5.21646,5.21646,0,0,0,3.48478-8.73283,10.30357,10.30357,0,0,1-2.60837-8.94671,10.56384,10.56384,0,0,1,7.88249-8.20593,9.91239,9.91239,0,0,1,7.49125,1.11116,5.21713,5.21713,0,0,0,6.97478-1.74239,10.43342,10.43342,0,0,1,19.22369,5.55061c0,2.88095,2.40216,5.7039,5.2831,5.7039s5.15038-2.82295,5.15038-5.7039a10.40214,10.40214,0,0,1,20.17837-3.563,5.217,5.217,0,0,0,3.876,3.31263,5.15887,5.15887,0,0,0,4.84636-1.565,10.43467,10.43467,0,0,1,8.52415-3.33872,10.91377,10.91377,0,0,1,8.71718,6.71917,9.07761,9.07761,0,0,1,.13043,7.20953,5.21638,5.21638,0,0,0,4.90374,7.00087c.22953,0,.75643-.073.986-.09912a10.43311,10.43311,0,0,1,10.43349,10.43348,5.217,5.217,0,0,0,5.21674,5.21675,10.4331,10.4331,0,0,1,10.43348,10.28741c0,.13042-.07825.68339-.08867.81381a5.21718,5.21718,0,0,0,6.99043,5.21674,10.23635,10.23635,0,0,1,3.53172-.673,10.43311,10.43311,0,0,1,10.43349,10.28741c0,.13042-.07825.68339-.08868.81381a5.21619,5.21619,0,0,0,6.9852,5.21674,9.35415,9.35415,0,0,1,8.48242.76686,10.58,10.58,0,0,1,5.36281,7.37126,10.34647,10.34647,0,0,1-1.16333,6.55223l-.12519-.07825a29.09479,29.09479,0,0,0-3.38045-2.01887c-.58692-.30433-1.17385-.54072-1.80776-.898a9.88879,9.88879,0,0,0-2.44436-.8918c-.11915-.03045-.22239-.08471-.33859-.11958a29.22584,29.22584,0,0,0-3.88126-.90771c-.31822-.05217-.63121-.09911-.94944-.14607a29.99793,29.99793,0,0,0-4.03775-.31822,29.44833,29.44833,0,0,0-24.51869,13.1827l-.06782.10956-.05739-.10434a29.46373,29.46373,0,0,0-24.55-13.18792h-.75643a29.32632,29.32632,0,0,1-48.64611,0h-1.6537a29.41459,29.41459,0,0,1-48.6409,0h-.866a34.97717,34.97717,0,0,1-54.46278.52167c-.53571.09108-1.02742.22616-1.5429.34876a29.86232,29.86232,0,0,0-3.61115,1.091c-.48519.1826-.97559.35477-1.45034.56345a29.01454,29.01454,0,0,0-4.236,2.26406c-.10434.06782-.22432.12-.32866.1878l-.04695.02608a10.32112,10.32112,0,0,1-.94423-6.17141,10.5944,10.5944,0,0,1,5.39407-7.39733Zm180.65054,41.014-6.83915,45.803h-34.29487l2.478-49.71033a18.78028,18.78028,0,0,1,3.22916-9.55707,19.03641,19.03641,0,0,1,15.81716-8.55024h.75643a19.11149,19.11149,0,0,1,18.85332,22.01465Zm-88.98718-2.67619a19.06728,19.06728,0,0,1,18.794-19.3365c.08608-.0013.1715-.002.25758-.002h1.67457a19.21071,19.21071,0,0,1,19.062,20.06359l-2.3997,47.75405h-34.81653l-2.56141-48.19225Zm-46.309-10.79865a19.06265,19.06265,0,0,1,15.87977-8.5398h.866a19.20282,19.20282,0,0,1,19.08283,18.749l.03131.56862v.20345l2.551,48.29659h-34.24791l-7.30343-48.04619a18.81275,18.81275,0,0,1,3.16656-11.22643Zm-7.679,189.69636-44.27448-174.86a19.18192,19.18192,0,1,1,37.75878-6.59918l.61035,4.00124c.03652.6834.07825,1.36678.18259,2.18582l6.88088,44.85354V916.183h11.21077l1.11639,7.30344,7.679,50.08073h-21.16432Zm31.723,0-5.34716-35.06693L5399.5408,916.183h27.00707l3.057,57.38415Zm53.15337,0H5440.054l-3.04657-57.38415h27.31484Zm31.77,0H5471.8918l2.864-57.38415h27.03836Zm-17.93516-67.81763h-87.11958V853.5821h125.20179v52.16742Zm93.06667-106.55716-43.41371,174.37479h-21.16432l8.58154-57.38415h11.44554V843.14862l7.20432-51.64574a19.08286,19.08286,0,1,1,37.70137,5.93535q-.13889.88227-.36,1.74892Z" style="stroke:#000;stroke-miterlimit:10;stroke-width:4px"/><g id="e2dde22c-b9d7-49a8-ad48-bfbc650b3a05" data-name="Singe_roi_lion"><path d="M5440.43679,867.19307a1.22775,1.22775,0,0,1,.71709,1.1344,2.4478,2.4478,0,1,0,4.88534-.19861,1.58274,1.58274,0,0,1,.4594-1.46613,1.20149,1.20149,0,0,0,.55031-1.08865,1.2353,1.2353,0,0,0-2.30749-.3858,1.92392,1.92392,0,0,1-2.8302.24761,1.20153,1.20153,0,0,0-1.08866-.5503,1.22939,1.22939,0,0,0-1.11678,1.33093A1.20151,1.20151,0,0,0,5440.43679,867.19307Z" style="fill:red;stroke:#000;stroke-miterlimit:10;stroke-width:0.75px"/><path d="M5435.11164,868.891a8.55267,8.55267,0,0,0,16.92608-1.48084,3.66993,3.66993,0,1,0-2.893-6.744,8.3738,8.3738,0,0,0-12.35506,1.08093,3.64737,3.64737,0,0,0-1.18369-.10477,3.67549,3.67549,0,0,0-.4943,7.24872Zm5.49679-6.45316a3.58555,3.58555,0,0,0,4.89542-.42829,3.68967,3.68967,0,0,1,3.99279,3.35034,3.58908,3.58908,0,0,1-.9936,2.8075,4.9147,4.9147,0,0,1-9.77893.85554,3.58907,3.58907,0,0,1-1.466-2.59231A3.68966,3.68966,0,0,1,5440.60843,862.43788Z" style="fill:red;stroke:#000;stroke-miterlimit:10;stroke-width:0.75px"/><path d="M5458.80787,899.15774l8.5434-.74745a7.44969,7.44969,0,0,0,6.69355-8.06716l-.85659-9.79083a2.45309,2.45309,0,0,1,1.12046-2.28026,2.29337,2.29337,0,0,0,.9574-2.16125,2.51689,2.51689,0,0,0-1.43-2.04265,2.30626,2.30626,0,0,0-2.31666.15689,7.38467,7.38467,0,0,0-3.22661,6.75556l.85659,9.79084a2.46026,2.46026,0,0,1-2.23356,2.66185l-3.29062.2879A17.65848,17.65848,0,0,1,5458.80787,899.15774Z" style="fill:red;stroke:#000;stroke-miterlimit:10;stroke-width:0.75px"/><path d="M5436.52356,886.22648l5.022-.43936a8.54006,8.54006,0,0,1,4.449-2.75209,1.22809,1.22809,0,1,1,.57977,2.38678,6.29471,6.29471,0,0,0-4.62094,5.383,6.20711,6.20711,0,0,0,.28153,2.32137l-.07694.00673c.00778.03352.00822.06867.0165.10215a6.2415,6.2415,0,0,0-4.46594,6.53546,1.22784,1.22784,0,0,0,1.33093,1.11678l11.84177-1.036c6.58752-.57634,13.31148-7.47279,12.56716-15.98037a14.807,14.807,0,0,0-9.79888-12.58212,10.99638,10.99638,0,0,1-9.20138,6.84509,10.8149,10.8149,0,0,1-1.233.00231l.11624,1.32862a1.22941,1.22941,0,0,1-1.11678,1.33093l-6.11928.53537a2.45706,2.45706,0,1,0,.4283,4.89541Z" style="fill:red;stroke:#000;stroke-miterlimit:10;stroke-width:0.75px"/></g></g><g id="f654c6f7-82bf-4f03-b2f1-da93aa6591b7" data-name="Ticket"><path d="M5207.925,876.19489a3.65324,3.65324,0,1,0-2.58228-1.07A3.67884,3.67884,0,0,0,5207.925,876.19489Z" style="stroke:#000;stroke-miterlimit:10;stroke-width:3px"/><path d="M5260.24409,871.35845a3.65785,3.65785,0,1,0,1.06716,2.58229A3.6855,3.6855,0,0,0,5260.24409,871.35845Z" style="stroke:#000;stroke-miterlimit:10;stroke-width:3px"/><path d="M5270.44484,864.81a3.65324,3.65324,0,1,0-2.58514-1.07A3.67884,3.67884,0,0,0,5270.44484,864.81Z" style="stroke:#000;stroke-miterlimit:10;stroke-width:3px"/><path d="M5336.04063,886.845h-10.19076l17.939-17.93905a10.95806,10.95806,0,0,0,0-15.49515l-16.27126-16.27126a3.65355,3.65355,0,0,0-5.16457,0,10.95673,10.95673,0,0,1-15.49515-15.49515,3.651,3.651,0,0,0,0-5.16457L5290.5881,800.21a10.95462,10.95462,0,0,0-15.49514,0l-60.3228,60.32137a3.65241,3.65241,0,0,0,5.166,5.16458l60.32137-60.32137a3.651,3.651,0,0,1,5.16457,0l13.94578,13.94435A18.26937,18.26937,0,0,0,5324.68,844.63107l13.94435,13.94435a3.65614,3.65614,0,0,1,0,5.16457L5315.5193,886.845h-16.01161l11.99979-11.99979a3.65355,3.65355,0,0,0,0-5.16457l-37.18921-37.18922a3.6527,3.6527,0,0,0-5.166,0L5214.7987,886.845h-43.84181A10.96887,10.96887,0,0,0,5160,897.80192v23.00946a3.65293,3.65293,0,0,0,3.6523,3.6523,10.95689,10.95689,0,0,1,0,21.91377,3.652,3.652,0,0,0-3.6523,3.6523v23.00946a10.96979,10.96979,0,0,0,10.95689,10.95688h165.08374a10.96978,10.96978,0,0,0,10.95689-10.95688V950.02975a3.652,3.652,0,0,0-3.65229-3.6523,10.95689,10.95689,0,1,1,0-21.91377,3.65293,3.65293,0,0,0,3.65229-3.6523V897.80192A10.96886,10.96886,0,0,0,5336.04063,886.845Zm-64.30607-46.60671,32.02463,32.02463L5289.17712,886.845h-14.46223l10.70721-10.70865a3.6519,3.6519,0,0,0-5.16457-5.16457l-15.87322,15.87179h-39.255Zm67.95837,77.28742a18.26429,18.26429,0,0,0,0,35.78964v19.72382a3.6566,3.6566,0,0,1-3.6523,3.65229H5170.95689a3.6566,3.6566,0,0,1-3.6523-3.65229V953.31539a18.26429,18.26429,0,0,0,0-35.78964V897.80192a3.65568,3.65568,0,0,1,3.6523-3.65229h165.08374a3.65568,3.65568,0,0,1,3.6523,3.65229Z" style="stroke:#000;stroke-miterlimit:10;stroke-width:3px"/><path d="M5238.00219,929.23734a3.651,3.651,0,1,0-2.58229,1.07A3.6839,3.6839,0,0,0,5238.00219,929.23734Z" style="stroke:#000;stroke-miterlimit:10;stroke-width:3px"/><path d="M5274.15991,929.23734a3.651,3.651,0,1,0-2.58229,1.07A3.68387,3.68387,0,0,0,5274.15991,929.23734Z" style="stroke:#000;stroke-miterlimit:10;stroke-width:3px"/><path d="M5256.08105,929.23734a3.651,3.651,0,1,0-2.58229,1.07A3.68387,3.68387,0,0,0,5256.08105,929.23734Z" style="stroke:#000;stroke-miterlimit:10;stroke-width:3px"/><path d="M5217.341,930.30735a3.65324,3.65324,0,1,0-2.58229-1.07A3.68135,3.68135,0,0,0,5217.341,930.30735Z" style="stroke:#000;stroke-miterlimit:10;stroke-width:3px"/><path d="M5292.23877,929.23734a3.651,3.651,0,1,0-2.58229,1.07A3.68387,3.68387,0,0,0,5292.23877,929.23734Z" style="stroke:#000;stroke-miterlimit:10;stroke-width:3px"/><path d="M5217.341,947.83837h72.31544a3.6523,3.6523,0,1,0,0-7.30459H5217.341a3.6523,3.6523,0,1,0,0,7.30459Z" style="stroke:#000;stroke-miterlimit:10;stroke-width:3px"/><path d="M5230.60629,958.0648a3.65324,3.65324,0,1,0,2.58228,1.07A3.68136,3.68136,0,0,0,5230.60629,958.0648Z" style="stroke:#000;stroke-miterlimit:10;stroke-width:3px"/><path d="M5309.01365,905.47174H5197.98387a3.652,3.652,0,0,0-3.65229,3.6523v52.593a3.65293,3.65293,0,0,0,3.65229,3.6523H5213.198a3.6523,3.6523,0,1,0,0-7.30459h-11.56179V912.77633h103.72518V958.0648h-59.29273a3.6523,3.6523,0,0,0,0,7.30459h62.945a3.65293,3.65293,0,0,0,3.65229-3.6523V909.124A3.652,3.652,0,0,0,5309.01365,905.47174Z" style="stroke:#000;stroke-miterlimit:10;stroke-width:3px"/></g><g id="a324d2a9-1015-4abf-bd6e-16268331aae8" data-name="Clapperboard"><path d="M111.14147,310.02784,132.44,419.59905a37.24918,37.24918,0,0,0,43.623,29.42407l262.97091-51.11637a37.23978,37.23978,0,0,0,29.42406-43.623L447.15939,244.71257Z"/><polygon points="236.648 108.166 184.501 131.766 243.402 190.257 299.996 165.278 236.648 108.166"/><polygon points="170.009 138.328 113.803 163.748 172.1 221.704 228.779 196.693 170.009 138.328"/><path d="M419.58433,104.098,397.98456,59.35523A22.48027,22.48027,0,0,0,368.6714,48.40581l-46.82174,21.2001,59.92239,59.61153,34.11188-15.06023a7.41771,7.41771,0,0,0,3.98117-4.24561A7.50334,7.50334,0,0,0,419.58433,104.098Z"/><polygon points="307.343 76.17 251.448 101.469 314.911 158.709 367.149 135.652 307.343 76.17"/><polygon points="170.562 222.686 158.544 285.653 215.857 274.512 227.875 211.545 170.562 222.686"/><polygon points="243.61 208.487 231.591 271.454 288.904 260.313 300.923 197.346 243.61 208.487"/><path d="M425.659,173.09974l-35.95374,6.9887-12.01581,62.98138,66.63367-12.95228-9.93934-51.13345A7.42572,7.42572,0,0,0,425.659,173.09974Z"/><polygon points="316.658 194.287 304.638 257.255 361.937 246.117 373.97 183.147 316.658 194.287"/><path d="M99.31412,170.32427l-11.35893,5.13389a22.31327,22.31327,0,0,0-11.21793,29.8806l23.948,50.89647,7.61634,39.18267,34.5074-6.70756,11.27658-59.06248,3.40835-1.49616Z"/></g></g><g id="bdbe6594-437b-4a23-806d-2b386a079a81" data-name="Ancrage"><rect x="5624" y="999" width="1" height="1" style="fill:none"/><rect x="5624" width="1" height="1" style="fill:none"/><rect y="999" width="1" height="1" style="fill:none"/><rect width="1" height="1" style="fill:none"/></g></svg>