<svg xmlns="http://www.w3.org/2000/svg" viewBox="0 0 5634.18867 1001.6334"><defs><style>.cls-1{fill:#191970;}.cls-2{fill:#ff0;}.cls-3{fill:#ffc107;}.cls-4,.cls-5,.cls-6,.cls-7{fill:none;}.cls-4,.cls-5,.cls-6{stroke:#000;}.cls-4{stroke-linecap:round;stroke-width:4.03019px;}.cls-5{stroke-width:1.7px;}.cls-6{stroke-width:10px;}</style></defs><title>logo_horoscope</title><g id="Calque_1" data-name="Calque 1"><path id="path20" class="cls-1" d="M-4.59433,1000.8167C-4.59412,447.6296,1256.66181-.8167,2812.5-.8167c1555.838,0,2817.09433,448.4463,2817.09433,1001.6334" transform="translate(4.59433 0.8167)"/></g><g id="texte"><g id="flowRoot10"><path id="path7118" class="cls-2" d="M1756.15864,793.08349l1.87961-62.026q-.00012-40.83009-7.72739-53.54756-7.51833-12.94044-25.47907-12.94061-10.44225,0-10.44233-4.68541,0-4.23924,6.26537-4.23929l60.77408,2.23126,51.58483-1.11563q6.05641-.00012,6.05657,4.01607,0,3.56982-3.968,3.56978-15.87241,0-24.64389,4.90864t-11.69526,16.73361q-2.71513,11.82489-4.5947,67.6038-1.67059,55.55552-1.67067,80.76746l-.62653,54.88625q-.00012,25.65832,4.59455,33.46723a32.01107,32.01107,0,0,0,13.575,12.0482,61.6174,61.6174,0,0,0,18.79611,5.35476q6.68292.892,6.683,4.23929,0,3.5697-5.63884,3.56978l-64.32436-1.785-41.978,1.56191q-7.30955,0-7.30965-4.01607,0-3.34663,5.22109-3.56994,16.70758-1.11555,21.72-4.68541,5.22113-3.5697,8.35377-13.61t3.55043-33.91352l1.04428-80.99068q-17.9607-1.33862-36.54809-1.33869-80.82317,0-102.54312,3.12366-1.6707,42.83789-1.67081,70.50424,0,31.013,1.25307,38.15263t7.72724,13.38689q6.683,6.0241,18.16957,8.47842,7.101,1.56192,7.10085,4.90848-.00011,4.01605-4.5947,4.01606a27.75023,27.75023,0,0,1-4.17681-.44661q-11.27778-1.33885-46.78148-1.33869-38.63654,0-47.408,1.78481a31.93969,31.93969,0,0,1-3.75922.22274q-4.80342,0-4.80342-3.34673,0-3.793,6.47424-4.68541,16.081-2.008,22.973-9.594,6.89194-7.58576,9.39805-56.89428,2.71513-49.30836,2.7151-119.81267,0-57.34049-5.0123-72.28921t-24.43494-16.51039q-4.38573-.44661-4.38576-3.56995,0-4.46219,8.98031-4.46219l84.16483-1.33869q8.98035,0,10.65112.66935,1.8795.44661,1.87962,3.56978-.00012,3.5697-5.43,4.23913-20.67573,2.23134-25.27028,8.03213-4.38584,5.801-4.38576,72.28921-.00011,6.91659.62654,48.416,21.30222,1.78473,50.123,1.78481,37.17452,0,88.96825-1.78481Z" transform="translate(4.59433 0.8167)"/><path id="path7120" class="cls-2" d="M1869.35288,798.215q0-30.12051,17.12545-66.04189a152.22421,152.22421,0,0,1,49.914-59.57166q32.99758-23.4271,74.3491-23.42706,57.85013,0,95.44241,44.17674Q2143.9851,737.5279,2143.985,794.199q0,60.241-41.76918,108.21075-41.76925,47.7467-100.45471,47.74653-56.17953,0-94.39829-41.94549Q1869.35281,866.26511,1869.35288,798.215Zm46.57268-7.13957a284.08885,284.08885,0,0,0,10.44219,74.74336q10.44225,38.15265,32.78886,55.5556,22.34631,17.17982,47.82561,17.1799,41.14264,0,65.78638-42.615,24.85277-42.83814,24.85268-99.063,0-54.44-25.27042-95.49305-25.27035-41.27622-65.99518-41.2763-30.70038-.00012-51.16723,22.08837-20.46671,21.8653-29.86483,52.43194Q1915.92557,765.19417,1915.92556,791.07546Z" transform="translate(4.59433 0.8167)"/><path id="path7122" class="cls-2" d="M2335.91413,796.65328q28.82078,13.38681,40.09836,28.11247,11.27768,14.5026,16.7077,45.06914,7.10086,40.16067,19.63145,53.99385,12.53066,13.61011,32.78871,14.50252,5.63883.44661,5.63884,4.46219,0,4.01605-6.47417,4.01606-58.47649,0-71.00747-4.01606-12.32187-4.23914-18.37852-45.73849-5.63883-40.38373-11.9042-58.90232-6.05643-18.74174-19.63144-28.55876-13.36584-10.04016-41.978-10.04016a142.17721,142.17721,0,0,0-24.64374,2.45431q-1.04419,14.05625-1.04428,29.2281,0,57.34048,1.46187,74.29725,1.462,16.73369,8.77152,24.54252,7.51845,7.586,24.85268,8.03213,7.51845.22282,7.51845,3.793,0,4.23914-9.18926,4.23913h-103.3786q-8.98047,0-8.98031-4.23913,0-3.793,7.1007-3.793,15.87207,0,21.92879-5.13153,6.26546-5.13161,9.8158-15.84121,3.5502-10.93241,3.55027-39.26826l-.41805-45.51543.20849-69.38861q0-53.10136-2.29735-70.28118-2.0884-17.17981-7.72724-22.98093-5.63883-6.02411-26.10576-9.37083-4.38559-.6693-4.38575-3.79284,0-3.57,8.77151-3.56995l123.63673-2.90044q51.16731-.00012,74.14016,20.97275,23.18194,20.97282,23.18187,51.31646a67.3708,67.3708,0,0,1-9.39806,35.029q-9.189,15.84122-21.92879,22.98094-12.73946,7.13964-40.9337,16.28733Zm-79.15246-5.801q40.09823-.892,60.14755-6.0241,20.04911-5.13162,34.04179-22.53449,14.20171-17.40288,14.20156-41.27631,0-25.21194-15.66343-43.95367T2299.36619,658.322q-18.79611,0-41.56039,5.35476-2.506,61.35655-2.50615,97.7243Q2255.29965,773.89565,2256.76167,790.85224Z" transform="translate(4.59433 0.8167)"/><path id="path7124" class="cls-2" d="M2453.912,798.215q-.00023-30.12051,17.1253-66.04189a152.22458,152.22458,0,0,1,49.91416-59.57166q32.99758-23.4271,74.34895-23.42706,57.85035,0,95.44257,44.17674,37.801,44.17674,37.801,100.8478,0,60.241-41.76918,108.21075-41.769,47.7467-100.45471,47.74653-56.17953,0-94.39829-41.94549Q2453.912,866.26511,2453.912,798.215Zm46.57253-7.13957a284.083,284.083,0,0,0,10.44234,74.74336q10.44225,38.15265,32.78871,55.5556,22.34653,17.17982,47.82561,17.1799,41.14287,0,65.78638-42.615,24.85277-42.83814,24.85268-99.063,0-54.44-25.27027-95.49305-25.27035-41.27622-65.99533-41.2763-30.70038-.00012-51.16708,22.08837-20.46693,21.8653-29.865,52.43194Q2500.48456,765.19417,2500.48455,791.07546Z" transform="translate(4.59433 0.8167)"/><path id="path7126" class="cls-2" d="M2913.16347,669.9241a31.15292,31.15292,0,0,0,7.51844-12.49449q1.67082-5.35479,4.8035-5.35475,1.671-.00012,3.75922,2.23109,1.4618,8.03214,4.177,32.35176l5.01229,41.94549q0,4.01606-4.5947,4.01606-2.506,0-4.38576-4.46219-11.06865-29.228-32.78872-48.63909-21.72015-19.18785-47.408-19.18793-25.27035,0-38.21876,16.2875-12.73968,16.28731-12.73953,34.58269,0,22.31168,13.9926,34.13657,13.99291,11.82515,57.6414,26.77378,32.16242,10.7096,48.03456,20.74968,16.08132,10.04017,26.94109,28.11247a74.07669,74.07669,0,0,1,10.85992,38.822q0,35.25213-27.35868,63.14161-27.35875,27.88917-67.03945,27.88925-35.71262,0-71.843-23.87318a28.39233,28.39233,0,0,0-9.18926,14.72558q-1.6706,7.13966-5.42989,7.13957-3.34163,0-4.8035-9.1476t-6.05657-86.56867q.83495-2.67745,4.38576-2.67738,3.13284,0,5.01229,4.90864,32.16241,86.34545,89.80374,86.34544,28.61175,0,44.69292-18.29553,16.28988-18.51841,16.29-42.39176a55.54483,55.54483,0,0,0-8.77152-30.34357,65.77027,65.77027,0,0,0-22.97307-22.31159q-14.20125-8.47825-45.11067-18.96471-39.68061-13.60986-54.091-25.65815-14.20172-12.2715-20.88451-27.44313-6.683-15.39483-6.68312-29.67438,0-29.67414,25.06148-52.655,25.27013-22.981,61.81837-22.98094a96.81128,96.81128,0,0,1,28.8207,4.68541A153.06783,153.06783,0,0,1,2913.16347,669.9241Z" transform="translate(4.59433 0.8167)"/><path id="path7128" class="cls-2" d="M3202.6237,672.60148q11.48691-10.93266,13.15727-14.72558,2.08887-5.35481,6.05642-5.35476,4.17683,0,4.59471,8.03214l4.80335,77.867q0,6.69328-.62654,8.2552-.418,1.3386-2.92373,1.33869-3.34164,0-7.10086-9.59389-13.78366-35.47542-38.4277-58.233-24.85254-22.5345-53.88218-22.53466-25.47915,0-46.78148,17.62619-21.30233,17.40286-33.20646,49.97761-11.69525,32.35185-11.69541,69.61183,0,63.36459,32.57993,103.07906,32.78878,39.49125,73.09587,39.49133,27.359,0,50.33191-18.51842,22.97292-18.51867,34.66848-42.838,3.13284-6.69353,6.47432-6.69345,4.59486,0,4.5947,5.35476,0,6.47022-15.87237,28.33553t-41.769,35.47526a116.43234,116.43234,0,0,1-55.3442,13.61q-34.87743,0-66.41292-18.96471-31.32677-18.96455-49.70521-52.43193-18.37853-33.46715-18.37852-78.53654,0-44.17674,17.752-79.652,17.96047-35.47516,50.33175-55.10931,32.37122-19.634,66.83051-19.63405a121.18577,121.18577,0,0,1,37.59222,6.24716,171.861,171.861,0,0,1,39.26288,18.51859Z" transform="translate(4.59433 0.8167)"/><path id="path7130" class="cls-2" d="M3265.27739,798.215q0-30.12051,17.12545-66.04189a152.22555,152.22555,0,0,1,49.914-59.57166q32.99781-23.4271,74.349-23.42706,57.85035,0,95.44257,44.17674,37.80147,44.17674,37.80116,100.8478,0,60.241-41.769,108.21075-41.769,47.7467-100.45486,47.74653-56.17953,0-94.39813-41.94549-38.00982-41.94564-38.00981-109.99572Zm46.57269-7.13957a284.08883,284.08883,0,0,0,10.44218,74.74336q10.44247,38.15265,32.78887,55.5556,22.34653,17.17982,47.82575,17.1799,41.14219,0,65.78639-42.615,24.85252-42.83814,24.85253-99.063,0-54.44-25.27043-95.49305-25.27012-41.27622-65.99533-41.2763-30.70015-.00012-51.16708,22.08837-20.46646,21.8653-29.86483,52.43194Q3311.85008,765.19417,3311.85008,791.07546Z" transform="translate(4.59433 0.8167)"/><path id="path7132" class="cls-2" d="M3651.22416,804.90847q0,10.04017-1.25307,30.12051-.62685,9.81709-.62654,19.85727,0,7.586.62654,32.79788.83518,24.98889,2.92374,31.23614,2.29719,6.24716,9.607,12.0482a28.36588,28.36588,0,0,0,16.081,6.24716q9.60685.66918,9.607,4.68541a3.4829,3.4829,0,0,1-2.92373,3.793q-2.92359.44661-22.13774.44661l-57.43246-.22273q-24.22614,0-25.897-.66935a3.3599,3.3599,0,0,1-1.462-3.12366q0-3.57,7.936-5.35476,13.99245-3.34663,19.42265-10.48629,5.63883-7.13964,6.8919-30.56678,1.25323-23.65005,1.25308-54.44l-.62654-59.57167.62654-64.25707q0-34.13658-4.38576-43.5074-4.38561-9.594-17.12545-12.0482-13.78365-2.67746-13.78381-6.47038,0-3.793,6.26537-3.793l41.35144.22273,66.41292-.44661q65.57759-.00012,88.13276,21.86531,22.76458,21.86507,22.76428,54.663,0,39.04512-29.65618,58.67926t-89.1772,19.63405q-14.4105,0-33.41541-1.33869Zm0-8.92454q30.70017,1.11579,34.87713,1.11563a103.46206,103.46206,0,0,0,40.09836-7.80907q18.79611-7.80908,27.35868-28.11247,8.77167-20.3034,8.77152-40.16068,0-25.21194-16.081-42.615-15.87252-17.62595-57.43245-17.626-21.5109-.00012-37.59222,4.90847-.20879,8.03214-.20864,10.04017l.83518,51.31647-.83518,54.66319Q3651.01552,785.72071,3651.22416,795.98393Z" transform="translate(4.59433 0.8167)"/><path id="path7134" class="cls-2" d="M4059.93521,656.76019q6.05643,24.98877,11.90421,70.058-1.044,1.785-2.29721,1.78481a4.58021,4.58021,0,0,1-3.13268-1.78481q-14.41-24.76558-27.56763-37.70652-13.15727-12.94044-26.5235-18.29536-13.15773-5.57773-45.52825-5.57782-30.49136,0-48.24334,3.79285-1.67082,2.23109-1.67067,8.25536,0,1.56166-.41789,5.57781-2.08841,17.84925-2.08856,96.8319,0,3.34689.41789,9.37082,15.87207.66944,21.71985.66935,26.31456,0,38.00981-8.25536,11.904-8.47826,20.67572-36.1446,1.462-4.6855,4.17681-4.68542,3.96848,0,3.96817,6.47039l-.83518,8.92454q-1.67082,17.62619-1.67066,36.36783,0,30.34356,1.04412,54.663,0,7.586-3.96817,7.586-2.92358,0-3.96817-5.35476-4.38606-26.32749-18.37852-37.92958-13.99292-11.60182-60.77408-11.60191-.62639,16.28733-.62654,52.655,0,47.07726,3.13269,59.79489t15.03688,20.30339q11.90406,7.36272,40.30732,7.36279,81.24086,0,104.84062-59.79472,2.92357-7.3627,6.05642-7.36279,3.34163,0,3.34163,4.90847a18.39275,18.39275,0,0,1-1.04412,5.801q-1.25277,4.23914-6.05643,31.68226-1.04442,5.801-7.936,34.80591l-87.50623-.22273q-18.79611,0-55.3442-1.785-36.33945-1.56168-64.5333-1.785-27.98491,0-29.23829-1.11546a3.25777,3.25777,0,0,1-1.25308-2.45432q0-4.46244,6.89191-4.46235,23.1817,0,30.49136-13.16367t7.3095-64.034l-.20864-45.73849.62653-42.838q0-12.94093-1.462-48.86215-1.25322-36.14461-2.50615-41.2763-1.044-5.13162-6.47431-10.04017-5.22125-5.13162-23.39082-10.26323-5.43-1.562-5.42988-4.90864,0-4.01594,7.30949-4.01606l42.60452,2.45431q22.55532,1.11567,110.897,1.11563Q4058.68184,656.53725,4059.93521,656.76019Z" transform="translate(4.59433 0.8167)"/></g></g><g id="icones"><g id="etoiles"><path id="path4547" class="cls-3" d="M1181.24492,619.89194a27.56116,27.56116,0,0,0-23.93783-18.41742l-151.0022-13.20636L946.5945,453.64879a28.23365,28.23365,0,0,0-51.14033.02334l-59.71039,134.596L684.71755,601.47452a27.6115,27.6115,0,0,0-23.91365,18.41742,26.12779,26.12779,0,0,0,8.13093,28.45146l114.1398,96.42L749.41748,887.57215a26.28637,26.28637,0,0,0,10.81322,27.65193,28.521,28.521,0,0,0,30.53978,1.28465l130.254-74.985,130.20607,74.98505a28.58458,28.58458,0,0,0,30.56357-1.28342,26.30994,26.30994,0,0,0,10.81338-27.65316l-33.65715-142.80871L1173.09,648.36305a26.16566,26.16566,0,0,0,8.155-28.47111Z" transform="translate(4.59433 0.8167)"/><path id="path4547-1" class="cls-3" d="M4964.20385,619.89194a27.56136,27.56136,0,0,0-23.938-18.41742l-151.00205-13.20636-59.71047-134.61937a28.23346,28.23346,0,0,0-51.14009.02334l-59.71048,134.596-151.02691,13.20636a27.61255,27.61255,0,0,0-23.914,18.41742,26.09333,26.09333,0,0,0,8.131,28.45146l114.13987,96.42L4532.376,887.57092a26.286,26.286,0,0,0,10.8133,27.65316,28.5202,28.5202,0,0,0,30.53932,1.28465l130.2545-74.985,130.20661,74.98505a28.58212,28.58212,0,0,0,30.56357-1.28342,26.30883,26.30883,0,0,0,10.8133-27.65193l-33.6573-142.80871,114.13987-96.4004a26.16407,26.16407,0,0,0,8.155-28.4711Z" transform="translate(4.59433 0.8167)"/><path id="path4547-1-6" class="cls-3" d="M4018.46135,257.6941a27.56015,27.56015,0,0,0-23.93736-18.41742l-151.00051-13.20636L3783.81331,91.451a28.23346,28.23346,0,0,0-51.14009.02333l-59.70986,134.596-151.02508,13.20636a27.61215,27.61215,0,0,0-23.91372,18.41742,26.07573,26.07573,0,0,0,8.131,28.45145l114.13865,96.42005-33.65668,142.80871a26.28923,26.28923,0,0,0,10.813,27.65192,28.52017,28.52017,0,0,0,30.53932,1.28466l130.253-74.985,130.20508,74.985a28.584,28.584,0,0,0,30.56326-1.28343,26.31057,26.31057,0,0,0,10.81361-27.65315l-33.657-142.80871,114.13865-96.4004a26.16548,26.16548,0,0,0,8.15465-28.4711Z" transform="translate(4.59433 0.8167)"/><path id="path4547-1-6-5" class="cls-3" d="M2126.98342,278.99032a27.56,27.56,0,0,0-23.93752-18.41742l-151.00051-13.20636-59.71-134.61937a28.23277,28.23277,0,0,0-51.13979.0221l-59.7097,134.596-151.02508,13.20636a27.61139,27.61139,0,0,0-23.91357,18.41742,26.07581,26.07581,0,0,0,8.13116,28.45145l114.1388,96.42005L1695.16052,546.6693a26.28924,26.28924,0,0,0,10.813,27.65193,28.52018,28.52018,0,0,0,30.53931,1.28465l130.25282-74.985,130.20507,74.985a28.58374,28.58374,0,0,0,30.56312-1.28343,26.31,26.31,0,0,0,10.8136-27.65315l-33.657-142.80871,114.13864-96.4004a26.16547,26.16547,0,0,0,8.15465-28.4711Z" transform="translate(4.59433 0.8167)"/><path id="path4547-1-6-2" class="cls-3" d="M3072.72224,217.44989a27.56055,27.56055,0,0,0-23.93737-18.41742l-151.00051-13.20636L2838.07419,51.20674a28.23346,28.23346,0,0,0-51.14009.02334l-59.70986,134.596-151.02507,13.20636a27.61142,27.61142,0,0,0-23.91358,18.41742,26.07584,26.07584,0,0,0,8.13116,28.45146l114.13865,96.42-33.65669,142.80872a26.28925,26.28925,0,0,0,10.813,27.65192,28.5202,28.5202,0,0,0,30.53932,1.28465l130.253-74.985,130.20507,74.985a28.58345,28.58345,0,0,0,30.563-1.28342,26.31006,26.31006,0,0,0,10.81361-27.65315l-33.657-142.80872L3064.56728,245.921a26.16549,26.16549,0,0,0,8.15465-28.47111Z" transform="translate(4.59433 0.8167)"/></g><g id="g6757"><path id="path6731" class="cls-4" d="M3758.30217,395.75064c27.35982,5.03479,49.41362,31.56551,51.71966,64.93113a81.16638,81.16638,0,0,1-.397,15.46605m-47.48724-79.47364c-16.98507-3.53952-30.53576-15.06273-38.61908-31.05059m34.273,29.61651c-29.51784,6.3345-52.05715,33.88538-52.70673,67.32026a74.64073,74.64073,0,0,0,1.29544,15.42831m47.36015-83.29569c16.945-4.0236,31.05811-15.00314,39.92356-29.79115m-34.7902-109.16631c27.35983-5.11,49.41362-32.03785,51.71967-65.90275a83.60491,83.60491,0,0,0-.397-15.69751m-51.1307,81.87106c-29.224,6.181-48.281,36.35019-46.81576,72.31524h0a78.94449,78.94449,0,0,0,11.821,38.96848m34.292-109.82825c-29.51784-6.42929-52.05715-34.39247-52.70672-68.32754a76.86,76.86,0,0,1,1.29544-15.65908m48.57459,83.33389c31.48935,7.58911,53.199,39.55886,49.62575,75.40886h0c-2.69074,14.38423-7.42394,28.23421-15.01738,38.3482" transform="translate(4.59433 0.8167)"/><path id="path6733" class="cls-5" d="M3725.93706,281.24031l64.22791-.858" transform="translate(4.59433 0.8167)"/><path id="path6735" class="cls-5" d="M3718.03436,302.64213l80.68419-.858" transform="translate(4.59433 0.8167)"/><path id="path6737" class="cls-5" d="M3715.06915,324.07088l86.97238-.858" transform="translate(4.59433 0.8167)"/><path id="path6739" class="cls-5" d="M3716.31717,345.93377l86.97249-.858" transform="translate(4.59433 0.8167)"/><path id="path6741" class="cls-5" d="M3724.00534,368.1457l66.03362-.858" transform="translate(4.59433 0.8167)"/><path id="path6743" class="cls-5" d="M3710.525,207.10147l95.69972-.858" transform="translate(4.59433 0.8167)"/><path id="path6745" class="cls-5" d="M3709.50444,183.95359l103.61385-.858" transform="translate(4.59433 0.8167)"/><path id="path6747" class="cls-5" d="M3718.32617,229.76573l77.59754-.858" transform="translate(4.59433 0.8167)"/><g id="g6755"><path id="path6749" class="cls-6" d="M3709.29715,443.61047l95.69968.858" transform="translate(4.59433 0.8167)"/><path id="path6751" class="cls-6" d="M3708.27658,466.75821l103.6139.858" transform="translate(4.59433 0.8167)"/><path id="path6753" class="cls-6" d="M3717.09837,420.946l77.59752.858" transform="translate(4.59433 0.8167)"/></g></g><g id="imeuble"><g id="g5520"><g id="g5518"><path id="path5516" d="M1840.43478,253.72165h-24.14652a4.05914,4.05914,0,0,0-4.02442,4.09263v24.55578a4.05913,4.05913,0,0,0,4.02442,4.09263h24.14652a4.05913,4.05913,0,0,0,4.02442-4.09263V257.81428A4.05914,4.05914,0,0,0,1840.43478,253.72165Zm-4.02442,24.55578h-16.09768V261.90691h16.09768Z" transform="translate(4.59433 0.8167)"/></g></g><g id="g5526"><g id="g5524"><path id="path5522" d="M1880.679,253.72165h-24.14653a4.05914,4.05914,0,0,0-4.02442,4.09263v24.55578a4.05914,4.05914,0,0,0,4.02442,4.09263H1880.679a4.05914,4.05914,0,0,0,4.02442-4.09263V257.81428A4.05914,4.05914,0,0,0,1880.679,253.72165Zm-4.02442,24.55578h-16.09768V261.90691h16.09768Z" transform="translate(4.59433 0.8167)"/></g></g><g id="g5532"><g id="g5530"><path id="path5528" d="M1920.92319,253.72165h-24.14652a4.05914,4.05914,0,0,0-4.02442,4.09263v24.55578a4.05913,4.05913,0,0,0,4.02442,4.09263h24.14652a4.05913,4.05913,0,0,0,4.02442-4.09263V257.81428A4.05914,4.05914,0,0,0,1920.92319,253.72165Zm-4.02442,24.55578h-16.09768V261.90691h16.09768Z" transform="translate(4.59433 0.8167)"/></g></g><g id="g5514"><g id="g5512"><path id="path5510" d="M1985.31392,274.1848H1941.0453v-32.741a4.05914,4.05914,0,0,0-4.02442-4.09263h-136.8303a4.05913,4.05913,0,0,0-4.02442,4.09263v57.29681h-44.26863a4.05914,4.05914,0,0,0-4.02442,4.09263V470.631a4.025,4.025,0,1,0,8.04884,0V306.92584h40.24421V474.72366a4.05914,4.05914,0,0,0,4.02442,4.09263h136.8303a4.05914,4.05914,0,0,0,4.02442-4.09263V282.37006h40.2442V470.631a4.025,4.025,0,1,0,8.04884,0V278.27743A4.05914,4.05914,0,0,0,1985.31392,274.1848ZM1864.58131,470.631h-16.09769V433.79736h16.09769Zm24.14652,0h-16.09768V433.79736h16.09768Zm44.26862,0h-36.21978v-40.9263a4.05914,4.05914,0,0,0-4.02442-4.09263h-48.293a4.05914,4.05914,0,0,0-4.02442,4.09263V470.631H1804.215V245.5364h128.78145Z" transform="translate(4.59433 0.8167)"/></g></g><g id="g5538"><g id="g5536"><path id="path5534" d="M1840.43478,294.648h-24.14652a4.05914,4.05914,0,0,0-4.02442,4.09263v24.55578a4.05914,4.05914,0,0,0,4.02442,4.09263h24.14652a4.05914,4.05914,0,0,0,4.02442-4.09263V298.74058A4.05914,4.05914,0,0,0,1840.43478,294.648Zm-4.02442,24.55578h-16.09768V302.83321h16.09768Z" transform="translate(4.59433 0.8167)"/></g></g><g id="g5544"><g id="g5542"><path id="path5540" d="M1880.679,294.648h-24.14653a4.05914,4.05914,0,0,0-4.02442,4.09263v24.55578a4.05914,4.05914,0,0,0,4.02442,4.09263H1880.679a4.05914,4.05914,0,0,0,4.02442-4.09263V298.74058A4.05914,4.05914,0,0,0,1880.679,294.648Zm-4.02442,24.55578h-16.09768V302.83321h16.09768Z" transform="translate(4.59433 0.8167)"/></g></g><g id="g5550"><g id="g5548"><path id="path5546" d="M1920.92319,294.648h-24.14652a4.05914,4.05914,0,0,0-4.02442,4.09263v24.55578a4.05914,4.05914,0,0,0,4.02442,4.09263h24.14652a4.05914,4.05914,0,0,0,4.02442-4.09263V298.74058A4.05914,4.05914,0,0,0,1920.92319,294.648Zm-4.02442,24.55578h-16.09768V302.83321h16.09768Z" transform="translate(4.59433 0.8167)"/></g></g><g id="g5556"><g id="g5554"><path id="path5552" d="M1840.43478,335.57425h-24.14652a4.05913,4.05913,0,0,0-4.02442,4.09263v24.55578a4.05913,4.05913,0,0,0,4.02442,4.09262h24.14652a4.05913,4.05913,0,0,0,4.02442-4.09262V339.66688A4.05913,4.05913,0,0,0,1840.43478,335.57425ZM1836.41036,360.13h-16.09768V343.75951h16.09768Z" transform="translate(4.59433 0.8167)"/></g></g><g id="g5562"><g id="g5560"><path id="path5558" d="M1880.679,335.57425h-24.14653a4.05914,4.05914,0,0,0-4.02442,4.09263v24.55578a4.05913,4.05913,0,0,0,4.02442,4.09262H1880.679a4.05913,4.05913,0,0,0,4.02442-4.09262V339.66688A4.05914,4.05914,0,0,0,1880.679,335.57425ZM1876.65457,360.13h-16.09768V343.75951h16.09768Z" transform="translate(4.59433 0.8167)"/></g></g><g id="g5568"><g id="g5566"><path id="path5564" d="M1920.92319,335.57425h-24.14652a4.05913,4.05913,0,0,0-4.02442,4.09263v24.55578a4.05913,4.05913,0,0,0,4.02442,4.09262h24.14652a4.05913,4.05913,0,0,0,4.02442-4.09262V339.66688A4.05913,4.05913,0,0,0,1920.92319,335.57425ZM1916.89877,360.13h-16.09768V343.75951h16.09768Z" transform="translate(4.59433 0.8167)"/></g></g><g id="g5574"><g id="g5572"><path id="path5570" d="M1840.43478,376.50054h-24.14652a4.05914,4.05914,0,0,0-4.02442,4.09263V405.149a4.05913,4.05913,0,0,0,4.02442,4.09263h24.14652a4.05913,4.05913,0,0,0,4.02442-4.09263V380.59317A4.05914,4.05914,0,0,0,1840.43478,376.50054Zm-4.02442,24.55578h-16.09768V384.6858h16.09768Z" transform="translate(4.59433 0.8167)"/></g></g><g id="g5580"><g id="g5578"><path id="path5576" d="M1880.679,376.50054h-24.14653a4.05914,4.05914,0,0,0-4.02442,4.09263V405.149a4.05914,4.05914,0,0,0,4.02442,4.09263H1880.679a4.05914,4.05914,0,0,0,4.02442-4.09263V380.59317A4.05914,4.05914,0,0,0,1880.679,376.50054Zm-4.02442,24.55578h-16.09768V384.6858h16.09768Z" transform="translate(4.59433 0.8167)"/></g></g><g id="g5586"><g id="g5584"><path id="path5582" d="M1920.92319,376.50054h-24.14652a4.05914,4.05914,0,0,0-4.02442,4.09263V405.149a4.05913,4.05913,0,0,0,4.02442,4.09263h24.14652a4.05913,4.05913,0,0,0,4.02442-4.09263V380.59317A4.05914,4.05914,0,0,0,1920.92319,376.50054Zm-4.02442,24.55578h-16.09768V384.6858h16.09768Z" transform="translate(4.59433 0.8167)"/></g></g><g id="g5592"><g id="g5590"><path id="path5588" d="M1772.01963,315.1111h-4.02442a4.05914,4.05914,0,0,0-4.02442,4.09263v4.09263a4.05914,4.05914,0,0,0,4.02442,4.09263h4.02442a4.05914,4.05914,0,0,0,4.02442-4.09263v-4.09263A4.05913,4.05913,0,0,0,1772.01963,315.1111Z" transform="translate(4.59433 0.8167)"/></g></g><g id="g5598"><g id="g5596"><path id="path5594" d="M1788.11732,315.1111h-4.02442a4.05914,4.05914,0,0,0-4.02443,4.09263v4.09263a4.05914,4.05914,0,0,0,4.02443,4.09263h4.02442a4.05914,4.05914,0,0,0,4.02442-4.09263v-4.09263A4.05914,4.05914,0,0,0,1788.11732,315.1111Z" transform="translate(4.59433 0.8167)"/></g></g><g id="g5604"><g id="g5602"><path id="path5600" d="M1772.01963,331.48162h-4.02442a4.05914,4.05914,0,0,0-4.02442,4.09263v4.09263a4.05914,4.05914,0,0,0,4.02442,4.09263h4.02442a4.05914,4.05914,0,0,0,4.02442-4.09263v-4.09263A4.05913,4.05913,0,0,0,1772.01963,331.48162Z" transform="translate(4.59433 0.8167)"/></g></g><g id="g5616"><g id="g5614"><path id="path5612" d="M1772.01963,347.85214h-4.02442a4.05914,4.05914,0,0,0-4.02442,4.09263v4.09263a4.05914,4.05914,0,0,0,4.02442,4.09263h4.02442a4.05914,4.05914,0,0,0,4.02442-4.09263v-4.09263A4.05913,4.05913,0,0,0,1772.01963,347.85214Z" transform="translate(4.59433 0.8167)"/></g></g><g id="g5622"><g id="g5620"><path id="path5618" d="M1788.11732,347.85214h-4.02442a4.05914,4.05914,0,0,0-4.02443,4.09263v4.09263a4.05914,4.05914,0,0,0,4.02443,4.09263h4.02442a4.05914,4.05914,0,0,0,4.02442-4.09263v-4.09263A4.05914,4.05914,0,0,0,1788.11732,347.85214Z" transform="translate(4.59433 0.8167)"/></g></g><g id="g5628"><g id="g5626"><path id="path5624" d="M1772.01963,364.22266h-4.02442a4.05913,4.05913,0,0,0-4.02442,4.09262v4.09263a4.05914,4.05914,0,0,0,4.02442,4.09263h4.02442a4.05913,4.05913,0,0,0,4.02442-4.09263v-4.09263A4.05913,4.05913,0,0,0,1772.01963,364.22266Z" transform="translate(4.59433 0.8167)"/></g></g><g id="g5634"><g id="g5632"><path id="path5630" d="M1788.11732,364.22266h-4.02442a4.05914,4.05914,0,0,0-4.02443,4.09262v4.09263a4.05914,4.05914,0,0,0,4.02443,4.09263h4.02442a4.05914,4.05914,0,0,0,4.02442-4.09263v-4.09263A4.05913,4.05913,0,0,0,1788.11732,364.22266Z" transform="translate(4.59433 0.8167)"/></g></g><g id="g5640"><g id="g5638"><path id="path5636" d="M1772.01963,380.59317h-4.02442a4.05914,4.05914,0,0,0-4.02442,4.09263v4.09263a4.05914,4.05914,0,0,0,4.02442,4.09263h4.02442a4.05913,4.05913,0,0,0,4.02442-4.09263V384.6858A4.05914,4.05914,0,0,0,1772.01963,380.59317Z" transform="translate(4.59433 0.8167)"/></g></g><g id="g5646"><g id="g5644"><path id="path5642" d="M1788.11732,380.59317h-4.02442a4.05914,4.05914,0,0,0-4.02443,4.09263v4.09263a4.05914,4.05914,0,0,0,4.02443,4.09263h4.02442a4.05914,4.05914,0,0,0,4.02442-4.09263V384.6858A4.05914,4.05914,0,0,0,1788.11732,380.59317Z" transform="translate(4.59433 0.8167)"/></g></g><g id="g5652"><g id="g5650"><path id="path5648" d="M1772.01963,396.96369h-4.02442a4.05914,4.05914,0,0,0-4.02442,4.09263V405.149a4.05914,4.05914,0,0,0,4.02442,4.09263h4.02442a4.05913,4.05913,0,0,0,4.02442-4.09263v-4.09263A4.05914,4.05914,0,0,0,1772.01963,396.96369Z" transform="translate(4.59433 0.8167)"/></g></g><g id="g5658"><g id="g5656"><path id="path5654" d="M1788.11732,396.96369h-4.02442a4.05914,4.05914,0,0,0-4.02443,4.09263V405.149a4.05914,4.05914,0,0,0,4.02443,4.09263h4.02442a4.05914,4.05914,0,0,0,4.02442-4.09263v-4.09263A4.05914,4.05914,0,0,0,1788.11732,396.96369Z" transform="translate(4.59433 0.8167)"/></g></g><g id="g5664"><g id="g5662"><path id="path5660" d="M1772.01963,413.33421h-4.02442a4.05914,4.05914,0,0,0-4.02442,4.09263v4.09263a4.05914,4.05914,0,0,0,4.02442,4.09263h4.02442a4.05914,4.05914,0,0,0,4.02442-4.09263v-4.09263A4.05914,4.05914,0,0,0,1772.01963,413.33421Z" transform="translate(4.59433 0.8167)"/></g></g><g id="g5670"><g id="g5668"><path id="path5666" d="M1788.11732,413.33421h-4.02442a4.05914,4.05914,0,0,0-4.02443,4.09263v4.09263a4.05914,4.05914,0,0,0,4.02443,4.09263h4.02442a4.05914,4.05914,0,0,0,4.02442-4.09263v-4.09263A4.05914,4.05914,0,0,0,1788.11732,413.33421Z" transform="translate(4.59433 0.8167)"/></g></g><g id="g5676"><g id="g5674"><path id="path5672" d="M1772.01963,429.70473h-4.02442a4.05914,4.05914,0,0,0-4.02442,4.09263V437.89a4.05914,4.05914,0,0,0,4.02442,4.09263h4.02442a4.05914,4.05914,0,0,0,4.02442-4.09263v-4.09263A4.05913,4.05913,0,0,0,1772.01963,429.70473Z" transform="translate(4.59433 0.8167)"/></g></g><g id="g5682"><g id="g5680"><path id="path5678" d="M1788.11732,429.70473h-4.02442a4.05914,4.05914,0,0,0-4.02443,4.09263V437.89a4.05914,4.05914,0,0,0,4.02443,4.09263h4.02442a4.05914,4.05914,0,0,0,4.02442-4.09263v-4.09263A4.05914,4.05914,0,0,0,1788.11732,429.70473Z" transform="translate(4.59433 0.8167)"/></g></g><g id="g5688"><g id="g5686"><path id="path5684" d="M1772.01963,446.07525h-4.02442a4.05914,4.05914,0,0,0-4.02442,4.09263v4.09263a4.05914,4.05914,0,0,0,4.02442,4.09263h4.02442a4.05914,4.05914,0,0,0,4.02442-4.09263v-4.09263A4.05913,4.05913,0,0,0,1772.01963,446.07525Z" transform="translate(4.59433 0.8167)"/></g></g><g id="g5694"><g id="g5692"><path id="path5690" d="M1788.11732,446.07525h-4.02442a4.05914,4.05914,0,0,0-4.02443,4.09263v4.09263a4.05914,4.05914,0,0,0,4.02443,4.09263h4.02442a4.05914,4.05914,0,0,0,4.02442-4.09263v-4.09263A4.05914,4.05914,0,0,0,1788.11732,446.07525Z" transform="translate(4.59433 0.8167)"/></g></g><g id="g5700"><g id="g5698"><path id="path5696" d="M1969.21624,290.55532h-16.09768a4.05914,4.05914,0,0,0-4.02442,4.09263v16.37052a4.05914,4.05914,0,0,0,4.02442,4.09263h16.09768a4.05914,4.05914,0,0,0,4.02442-4.09263V294.648A4.05914,4.05914,0,0,0,1969.21624,290.55532Zm-4.02442,16.37052H1957.143v-8.18526h8.04884Z" transform="translate(4.59433 0.8167)"/></g></g><g id="g5706"><g id="g5704"><path id="path5702" d="M1969.21624,323.29636h-16.09768a4.05913,4.05913,0,0,0-4.02442,4.09263v16.37052a4.05914,4.05914,0,0,0,4.02442,4.09263h16.09768a4.05914,4.05914,0,0,0,4.02442-4.09263V327.389A4.05913,4.05913,0,0,0,1969.21624,323.29636Zm-4.02442,16.37052H1957.143v-8.18526h8.04884Z" transform="translate(4.59433 0.8167)"/></g></g><g id="g5610"><g id="g5608"><path id="path5606" d="M1788.11732,331.48162h-4.02442a4.05914,4.05914,0,0,0-4.02443,4.09263v4.09263a4.05914,4.05914,0,0,0,4.02443,4.09263h4.02442a4.05914,4.05914,0,0,0,4.02442-4.09263v-4.09263A4.05914,4.05914,0,0,0,1788.11732,331.48162Z" transform="translate(4.59433 0.8167)"/></g></g><g id="g5712"><g id="g5710"><path id="path5708" d="M1969.21624,356.0374h-16.09768a4.05913,4.05913,0,0,0-4.02442,4.09263v16.37051a4.05913,4.05913,0,0,0,4.02442,4.09263h16.09768a4.05913,4.05913,0,0,0,4.02442-4.09263V360.13A4.05913,4.05913,0,0,0,1969.21624,356.0374Zm-4.02442,16.37051H1957.143v-8.18525h8.04884Z" transform="translate(4.59433 0.8167)"/></g></g><g id="g5718"><g id="g5716"><path id="path5714" d="M1969.21624,388.77843h-16.09768a4.05914,4.05914,0,0,0-4.02442,4.09263v16.37052a4.05913,4.05913,0,0,0,4.02442,4.09263h16.09768a4.05913,4.05913,0,0,0,4.02442-4.09263V392.87106A4.05914,4.05914,0,0,0,1969.21624,388.77843Zm-4.02442,16.37052H1957.143v-8.18526h8.04884Z" transform="translate(4.59433 0.8167)"/></g></g><g id="g5724"><g id="g5722"><path id="path5720" d="M1969.21624,421.51947h-16.09768a4.05914,4.05914,0,0,0-4.02442,4.09263v16.37052a4.05914,4.05914,0,0,0,4.02442,4.09263h16.09768a4.05914,4.05914,0,0,0,4.02442-4.09263V425.6121A4.05914,4.05914,0,0,0,1969.21624,421.51947ZM1965.19182,437.89H1957.143v-8.18526h8.04884Z" transform="translate(4.59433 0.8167)"/></g></g></g><g id="ampoule"><g id="g4960"><g id="g4958"><path id="path4956" d="M4748.07908,772.75a80.552,80.552,0,0,0-4.27131,9.17023l8.50315,3.45739a71.06511,71.06511,0,0,1,3.7757-8.088Z" transform="translate(4.59433 0.8167)"/></g></g><g id="g4966"><g id="g4964"><path id="path4962" d="M4758.36632,756.21127c-1.79724,2.65041-3.59048,5.346-5.3054,8.0698l7.67713,5.09893c1.66119-2.63164,3.39612-5.23627,5.13562-7.80393Z" transform="translate(4.59433 0.8167)"/></g></g><g id="g4972"><g id="g4970"><path id="path4968" d="M4768.77016,740.5899c-1.54286,2.51249-3.26235,5.11243-5.06416,7.781l7.51192,5.35541c1.887-2.78775,3.68194-5.50683,5.29224-8.13847Z" transform="translate(4.59433 0.8167)"/></g></g><g id="g4978"><g id="g4976"><path id="path4974" d="M4777.35107,724.22552q-1.96616,4.223-4.11067,8.34974l8.06528,4.42929q2.244-4.31191,4.29872-8.73475Z" transform="translate(4.59433 0.8167)"/></g></g><g id="g4984"><g id="g4982"><path id="path4980" d="M4784.49429,706.99488c-1.06269,2.9022-2.1951,5.80909-3.39211,8.69309l8.41854,3.67747q1.86925-4.51878,3.535-9.06928Z" transform="translate(4.59433 0.8167)"/></g></g><g id="g4990"><g id="g4988"><path id="path4986" d="M4804.58,652.66136l-9.14625.07336.00457.86214c0,2.61814-.11833,5.4012-.355,8.26231l9.1148.78878c.25667-3.12228.38643-6.16709.38643-9.05109Z" transform="translate(4.59433 0.8167)"/></g></g><g id="g4996"><g id="g4994"><path id="path4992" d="M4802.25114,632.67467l-8.905,2.13689a83.156,83.156,0,0,1,1.52285,8.89966l9.08393-1.10982A93.22643,93.22643,0,0,0,4802.25114,632.67467Z" transform="translate(4.59433 0.8167)"/></g></g><g id="g5002"><g id="g5000"><path id="path4998" d="M4795.67728,613.70154l-8.2219,4.10826a83.30775,83.30775,0,0,1,3.41212,8.33567l8.61462-3.14517A91.68519,91.68519,0,0,0,4795.67728,613.70154Z" transform="translate(4.59433 0.8167)"/></g></g><g id="g5008"><g id="g5006"><path id="path5004" d="M4785.21569,596.69979l-7.16323,5.84137a85.46921,85.46921,0,0,1,5.11333,7.382l7.7303-5.01619A94.75352,94.75352,0,0,0,4785.21569,596.69979Z" transform="translate(4.59433 0.8167)"/></g></g><g id="g5014"><g id="g5012"><path id="path5010" d="M4771.51,582.37135l-5.82788,7.23524a87.25291,87.25291,0,0,1,6.51785,6.1395l6.52013-6.58437A97.00138,97.00138,0,0,0,4771.51,582.37135Z" transform="translate(4.59433 0.8167)"/></g></g><g id="g5020"><g id="g5018"><path id="path5016" d="M4755.32976,571.17927l-4.34962,8.2623c2.61241,1.44905,5.16935,3.03542,7.59882,4.71335l5.10474-7.79454C4761.01014,574.51753,4758.2011,572.775,4755.32976,571.17927Z" transform="translate(4.59433 0.8167)"/></g></g><g id="g5026"><g id="g5024"><path id="path5022" d="M4737.40369,563.38942l-2.769,8.95014c2.84906.92612,5.65181,1.99016,8.33338,3.15926l3.57732-8.6385C4743.60027,565.5715,4740.52313,564.4071,4737.40369,563.38942Z" transform="translate(4.59433 0.8167)"/></g></g><g id="g5032"><g id="g5030"><path id="path5028" d="M4718.42981,559.07927l-1.17015,9.317c2.94967.3897,5.90162.91731,8.77353,1.57288l1.97845-9.17023C4724.87447,560.08814,4721.64986,559.51005,4718.42981,559.07927Z" transform="translate(4.59433 0.8167)"/></g></g><g id="g4954"><g id="g4952"><path id="path4950" d="M4803.79,679.98951a13.5681,13.5681,0,0,0-25.80155.04989h-28.28133V661.25878h18.29249a4.63424,4.63424,0,0,0,4.57312-4.69281V636.91791a14.18621,14.18621,0,0,0,8.36253-17.9754,13.63057,13.63057,0,0,0-17.5082-8.58568,14.18574,14.18574,0,0,0-8.36252,17.97541,13.90886,13.90886,0,0,0,8.362,8.58567v14.95114h-13.71937v-9.39031a4.63439,4.63439,0,0,0-4.57084-4.69515h-9.14853v-24.342a14.18621,14.18621,0,0,0,8.36252-17.97541,13.63055,13.63055,0,0,0-17.50819-8.58568,14.18622,14.18622,0,0,0-8.36253,17.97541,13.909,13.909,0,0,0,8.36195,8.58568V637.783H4708.549V562.82542a4.63438,4.63438,0,0,0-4.57084-4.69516h-.00228c-56.41576,0-100.6087,41.93537-100.6087,95.46661,0,25.429,9.83164,59.09734,25.6615,87.85986,2.84277,5.16291,6.55157,10.59169,10.477,16.34149,8.30078,12.14813,17.53849,25.80928,18.54287,37.70093a13.4626,13.4626,0,0,0-5.49347,11.144,14.17916,14.17916,0,0,0,3.02684,8.71714,14.67385,14.67385,0,0,0-4.197,10.3939,13.92079,13.92079,0,0,0,13.71937,14.08547h77.74308a14.00022,14.00022,0,0,0,13.72108-14.26271l-.00171-.15318a14.2031,14.2031,0,0,0-4.209-10.11336,14.744,14.744,0,0,0,3.03885-8.99767,13.29156,13.29156,0,0,0-13.13973-13.43929q-.28983.00089-.57964.01407H4708.549V703.51459h9.14625v14.08548a4.63439,4.63439,0,0,0,4.57084,4.69515h13.72165v5.56024a14.185,14.185,0,0,0-8.36139,17.97483,13.63,13.63,0,0,0,17.50763,8.58451,14.185,14.185,0,0,0,8.3614-17.97483,13.90623,13.90623,0,0,0-8.3614-8.58451V717.60007a4.63439,4.63439,0,0,0-4.57083-4.69516h-13.72166V703.5146H4745.134a4.63425,4.63425,0,0,0,4.57313-4.69281v-9.39266H4777.989a13.604,13.604,0,0,0,17.49792,8.52464A14.16222,14.16222,0,0,0,4803.79,679.98951Zm-35.79039-60.98773a4.69679,4.69679,0,1,1-4.57312,4.69516A4.63556,4.63556,0,0,1,4767.9996,619.00178ZM4646.99477,752.40584c-3.79626-5.5573-7.37987-10.80238-10.0037-15.5709-14.86894-27.02-24.47765-59.69363-24.47765-83.23808,0-46.823,37.80658-83.80677,86.88934-85.97534v32.80036c-1.21416.09331-2.45291.20659-3.778.37327a4.62,4.62,0,0,0-3.92088,3.691l-1.39366,6.80445q-1.72177.41993-3.43441.949l-4.55769-5.21808a4.48531,4.48531,0,0,0-5.1985-1.18729,68.42163,68.42163,0,0,0-14.387,8.62442,4.76838,4.76838,0,0,0-1.592,5.21338l2.09906,6.56618c-.86432.83456-1.70577,1.70082-2.52094,2.58586l-6.38865-2.15508a4.53163,4.53163,0,0,0-5.07788,1.63215,70.931,70.931,0,0,0-8.40711,14.778,4.77913,4.77913,0,0,0,1.15643,5.33722l5.08474,4.677q-.51278,1.74044-.91748,3.48909l-7.11178,1.45784a4.66508,4.66508,0,0,0-3.67736,4.6036v16.01048a4.665,4.665,0,0,0,3.67793,4.6036l7.11178,1.45784q.40559,1.74658.91748,3.48909l-5.08646,4.677a4.78626,4.78626,0,0,0-1.15642,5.33722,70.97016,70.97016,0,0,0,8.40711,14.778,4.52578,4.52578,0,0,0,5.07788,1.63216l6.38865-2.15507c.81744.885,1.65661,1.75129,2.52094,2.58586l-2.09907,6.55678a4.77229,4.77229,0,0,0,1.58974,5.21338,68.26258,68.26258,0,0,0,14.39161,8.63381,4.49937,4.49937,0,0,0,5.1985-1.1873l4.55769-5.21807q1.7115.52995,3.43441.949l1.39138,6.79976a4.62044,4.62044,0,0,0,3.92088,3.69567c1.32677.16668,2.56609.27994,3.78026.37326V792.888h-32.40629C4665.12778,779.05083,4655.58138,764.97534,4646.99477,752.40584Zm15.823-81.75734c.02916,21.50616,15.76985,39.56783,36.585,41.97939v16.146l-.75686-3.69567a4.63214,4.63214,0,0,0-3.66421-3.6587,48.53092,48.53092,0,0,1-7.96695-2.20555,4.48932,4.48932,0,0,0-4.9527,1.28824l-4.30044,4.92462a58.948,58.948,0,0,1-6.88427-4.14935l1.98531-6.20348a4.77956,4.77956,0,0,0-1.39137-5.05258,50.74625,50.74625,0,0,1-5.85246-6.00627,4.52181,4.52181,0,0,0-4.915-1.42146l-6.04,2.04064a61.30769,61.30769,0,0,1-4.04379-7.07032l4.80064-4.4152a4.78847,4.78847,0,0,0,1.25246-5.08486,52.23425,52.23425,0,0,1-2.14822-8.17954,4.63746,4.63746,0,0,0-3.60649-3.769l-6.39322-1.31228v-8.30808l6.39323-1.31112a4.63744,4.63744,0,0,0,3.60648-3.769,52.3612,52.3612,0,0,1,2.14766-8.18483,4.78213,4.78213,0,0,0-1.25475-5.08485l-4.79664-4.4111a62.08446,62.08446,0,0,1,4.0415-7.07032l6.04224,2.04063a4.52306,4.52306,0,0,0,4.915-1.42145,51.86843,51.86843,0,0,1,5.857-6.02036,4.77026,4.77026,0,0,0,1.38451-5.03908l-1.983-6.20347a59.30781,59.30781,0,0,1,6.882-4.14935l4.30045,4.92463a4.51014,4.51014,0,0,0,4.95269,1.28824,48.41382,48.41382,0,0,1,7.96695-2.20555,4.62731,4.62731,0,0,0,3.66422-3.6546l.758-3.69568v16.14136C4678.58762,631.08124,4662.84693,649.14234,4662.81777,670.6485Zm36.585-32.49107v64.98214c-17.4779-2.56884-29.61841-19.1985-27.11634-37.1428A32.4064,32.4064,0,0,1,4699.40276,638.15743Zm48.01779,187.59672a4.64,4.64,0,0,1-4.57313,4.69516h-77.74308a4.72611,4.72611,0,0,1-4.57827-4.86184q.00171-.08186.00514-.16374a4.64,4.64,0,0,1,4.57313-4.69515h77.74308a4.72611,4.72611,0,0,1,4.57827,4.86183Q4747.42484,825.67227,4747.42055,825.75415Zm-5.74327-23.47578a4.22144,4.22144,0,0,1,4.556,3.88817,4.4206,4.4206,0,0,1,.01715.47657,4.64,4.64,0,0,1-4.57312,4.69516h-75.4028a4.72575,4.72575,0,0,1-4.57827-4.86184q.00173-.08186.00515-.16373a4.17561,4.17561,0,0,1,4.305-4.05545c.08974.0041.17892.01116.26809.02055h75.4028Zm-1.11642-65.89768a4.69678,4.69678,0,1,1-4.57312,4.69516A4.63555,4.63555,0,0,1,4740.56086,736.38069ZM4731.41462,595.526a4.69678,4.69678,0,1,1-4.57313,4.69516A4.63556,4.63556,0,0,1,4731.41462,595.526Zm9.14624,98.59828H4708.549V647.17273h32.01186Zm50.30435-4.69516a4.69678,4.69678,0,1,1,4.57312-4.69516A4.63556,4.63556,0,0,1,4790.86521,689.42913Z" transform="translate(4.59433 0.8167)"/></g></g></g><g id="tableau"><g id="g6908"><g id="g6906"><path id="path6904" d="M2929.21021,193.75386h-233.4184a4.02352,4.02352,0,0,0-4.02442,4.02241v80.49042h8.04884v-76.464h225.36755V290.34H2784.32906v8.04884H2929.2082a4.02352,4.02352,0,0,0,4.02442-4.02241v-96.5881A4.02353,4.02353,0,0,0,2929.21021,193.75386Z" transform="translate(4.59433 0.8167)"/></g></g><g id="g6914"><g id="g6912"><rect id="rect6910" x="2829.1676" y="214.69266" width="80.48841" height="8.04884"/></g></g><g id="g6920"><g id="g6918"><rect id="rect6916" x="2841.24086" y="238.83919" width="80.48841" height="8.04884"/></g></g><g id="g6926"><g id="g6924"><rect id="rect6922" x="2825.14318" y="262.98571" width="80.48841" height="8.04884"/></g></g><g id="g6932"><g id="g6930"><path id="path6928" d="M2820.2279,228.45141a12.98712,12.98712,0,0,0-16.97953-7.00249c-.11319.04728-.22588.09557-.33755.14588l-32.632,16.92772a19.9003,19.9003,0,0,0,1.977-8.54888,20.12257,20.12257,0,1,0-36.11666,12.07327h-.16752a27.61647,27.61647,0,0,0-25.65367,17.86641l-10.74319,37.0292a12.89007,12.89007,0,1,0,24.20387,8.8663l4.20854-13.39378V350.66a20.06212,20.06212,0,0,0-26.115,30.36477,18.54013,18.54013,0,0,0-10.10481,16.44579v33.72414a4.02352,4.02352,0,0,0,4.0224,4.02442H2736.036a4.02352,4.02352,0,0,0,4.02442-4.02241V397.47053a18.49738,18.49738,0,0,0-7.18158-14.56891h30.46135a18.49438,18.49438,0,0,0-7.18158,14.56891v33.72414a4.02352,4.02352,0,0,0,4.02241,4.02442h40.24622a4.02353,4.02353,0,0,0,4.02442-4.02241V397.47053a18.54018,18.54018,0,0,0-10.10482-16.4458,20.1047,20.1047,0,0,0-18.06613-34.08535v-82.326l36.94469-19.1829A12.98722,12.98722,0,0,0,2820.2279,228.45141Zm-68.09421-10.551a12.07327,12.07327,0,1,1-12.07326,12.07326A12.07316,12.07316,0,0,1,2752.13369,217.90038Zm-36.21978,136.6809a12.07326,12.07326,0,1,1-12.07326,12.07326A12.07315,12.07315,0,0,1,2715.91391,354.58128Zm16.09768,72.589h-32.19536V397.47053a10.55909,10.55909,0,0,1,10.54649-10.54449h11.10237a10.55941,10.55941,0,0,1,10.5465,10.54449Zm64.39073-29.69972v29.69972H2764.207V397.47053a10.55908,10.55908,0,0,1,10.54649-10.54449h11.10237A10.55908,10.55908,0,0,1,2796.40232,397.47053Zm-16.09768-42.88925a12.07326,12.07326,0,1,1-12.07326,12.07326A12.08606,12.08606,0,0,1,2780.30464,354.58128Zm32.55907-119.41613a5.176,5.176,0,0,1-3.03793,2.97907l-39.42272,20.45211a4.02547,4.02547,0,0,0-2.17168,3.57268V350.66a19.85076,19.85076,0,0,0-6.262,24.19281h-5.81127V306.43763h-8.04884v68.41515h-13.8601a19.93608,19.93608,0,0,0,1.77175-8.04884h.01509V266.19343a4.02447,4.02447,0,0,0-7.86371-1.20632l-12.01693,38.23954a4.83891,4.83891,0,0,1-6.71273,2.67624,4.93957,4.93957,0,0,1-2.24764-6.39027l10.74269-37.0292a19.44322,19.44322,0,0,1,18.03343-12.38767h28.49541a4.00851,4.00851,0,0,0,1.85325-.45175l39.99871-20.76249a4.95408,4.95408,0,0,1,6.33343,2.34624A4.89607,4.89607,0,0,1,2812.86371,235.16515Z" transform="translate(4.59433 0.8167)"/></g></g><g id="g6938"><g id="g6936"><path id="path6934" d="M2858.73707,381.02474a20.12219,20.12219,0,1,0-28.45466-.37075q.18336.18789.37125.37075a18.54109,18.54109,0,0,0-10.10482,16.44579v33.72414a4.02354,4.02354,0,0,0,4.02241,4.02442h40.24622a4.02353,4.02353,0,0,0,4.02442-4.02241V397.47053A18.54016,18.54016,0,0,0,2858.73707,381.02474Zm-14.0417-26.44346a12.07326,12.07326,0,1,1-12.07327,12.07326A12.07315,12.07315,0,0,1,2844.69537,354.58128Zm16.09768,72.589h-32.19537V397.47053a10.55908,10.55908,0,0,1,10.5465-10.54449h11.10237a10.55941,10.55941,0,0,1,10.5465,10.54449Z" transform="translate(4.59433 0.8167)"/></g></g><g id="g6944"><g id="g6942"><path id="path6940" d="M2923.1278,381.02474a20.12219,20.12219,0,1,0-28.45466-.37075q.18336.18789.37125.37075a18.54109,18.54109,0,0,0-10.10482,16.44579v33.72414a4.02353,4.02353,0,0,0,4.02241,4.02442h40.24622a4.02353,4.02353,0,0,0,4.02442-4.02241V397.47053A18.54016,18.54016,0,0,0,2923.1278,381.02474Zm-14.04171-26.44346a12.07326,12.07326,0,1,1-12.07326,12.07326A12.07315,12.07315,0,0,1,2909.08609,354.58128Zm16.09769,72.589h-32.19537V397.47053a10.55908,10.55908,0,0,1,10.5465-10.54449h11.10237a10.55941,10.55941,0,0,1,10.5465,10.54449Z" transform="translate(4.59433 0.8167)"/></g></g></g><g id="PC"><g id="g4691"><g id="g4689"><path id="path4687" d="M1061.864,799.05956c-.00275-.04218-.0022-.08378-.006-.126a4.2139,4.2139,0,0,0-.07209-.49093c-.00331-.01575-.00826-.03149-.0121-.04724a4.15906,4.15906,0,0,0-.11994-.4319c-.01266-.03767-.02642-.07422-.04017-.11134q-.06933-.19147-.15626-.37284c-.0099-.02137-.0165-.0433-.027-.06467l-22.0702-44.49268V606.5401a8.08718,8.08718,0,0,0-7.98856-8.16488H810.67207a8.08718,8.08718,0,0,0-7.98856,8.16488V752.92088L780.61388,797.4141c-.01045.02137-.01705.0433-.027.06467-.05777.1209-.10949.24519-.15626.37227-.01375.03712-.02751.07423-.04016.11192a4.36045,4.36045,0,0,0-.12.433c-.0033.01518-.00825.03036-.01155.04554a4.23946,4.23946,0,0,0-.07208.4915c-.00385.04162-.00385.08378-.00606.1254-.0055.08777-.0132.17437-.0132.26321V810.021a9.60473,9.60473,0,0,0,9.48789,9.69731h262.73374a9.60472,9.60472,0,0,0,9.48788-9.69731V799.32162C1061.87717,799.23278,1061.86947,799.14616,1061.864,799.05956ZM810.93727,606.81172h220.1703V749.71206H810.93727ZM809.345,758.14687h223.3544l18.332,36.95652H960.36712l-4.55082-16.86458a7.82026,7.82026,0,0,0-7.49116-5.83109H893.71861a7.81991,7.81991,0,0,0-7.49116,5.83054l-4.55082,16.86513h-90.6637Zm142.46084,36.95706H890.23906l3.84764-14.26028h53.87146ZM1053.624,810.02049a1.25017,1.25017,0,0,1-1.23467,1.26192H789.65555a1.25018,1.25018,0,0,1-1.23468-1.26192v-6.48175H1053.624Z" transform="translate(4.59433 0.8167)"/></g></g><g id="g4697"><g id="g4695"><path id="path4693" d="M1018.17755,685.29052a4.17228,4.17228,0,0,0-4.12661,4.21769v42.77017H827.9939V689.50822a4.12759,4.12759,0,1,0-8.25321,0v44.59165a6.55073,6.55073,0,0,0,6.47107,6.61389h189.62187a6.55073,6.55073,0,0,0,6.47106-6.61389V689.50822A4.17383,4.17383,0,0,0,1018.17755,685.29052Z" transform="translate(4.59433 0.8167)"/></g></g><g id="g4703"><g id="g4701"><path id="path4699" d="M1015.83309,615.80946H826.21176a6.55073,6.55073,0,0,0-6.47107,6.61389V667.015a4.12759,4.12759,0,1,0,8.25321,0V624.24483h186.057V667.015a4.12759,4.12759,0,1,0,8.25321,0V622.42335A6.55,6.55,0,0,0,1015.83309,615.80946Z" transform="translate(4.59433 0.8167)"/></g></g></g></g><g id="Ancrage"><rect class="cls-7" x="5628.59433" y="999.8167" width="1" height="1"/><rect class="cls-7" x="5628.59433" y="0.8167" width="1" height="1"/><rect class="cls-7" x="4.59433" y="999.8167" width="1" height="1"/><rect class="cls-7" x="4.59433" y="0.8167" width="1" height="1"/></g></svg>