<svg xmlns="http://www.w3.org/2000/svg" viewBox="0 0 5625 1000"><title>logo_mise_en_lumiere</title><g id="bdbcbf9d-6d30-4f23-a0b1-df5d06138211" data-name="Texte"><g id="b06f8958-e8b9-4792-a0ce-3ee12a6bd108" data-name="playball"><path d="M1211.31934,297.73145l47.0205-3.041q-32.41113,28.76367-92.5498,170.48779-89.04346,212.92017-83.209,303.15967,2.69824,41.71875,29.24219,39.99609,12.123-.78369,28.94043-11.77246l.75781-.04882c1.51758-.09864,2.3584,1.12109,2.52149,3.6455q.93164,14.41553-36.53418,29.7793-37.47363,15.36474-61.73535,16.93848-50.81983,3.2871-54.39356-52.07715-6.22851-96.30615,129.55469-399.0708-28.478,30.79394-38.30566,43.60254-67.5586,85.8706-199.543,282.50537-27.8423,40.64063-38.57422,51.23535-10.73877,10.60107-29.32031,11.79687-18.5918,1.20264-43.58594-8.60449,17.38036-25.48974,9.42187-148.73828-7.9702-123.23585-29.66211-223.12939-24.01611,52.585-83.97753,232.38232Q607.42139,816.582,610.32031,861.32813q.34278,5.31444,1.19922,6.77734l-69.77344,4.51172q36.06885-113.51807,104.73829-299.9834,68.65869-186.4519,83.90625-221.71533-69.02052,4.46337-132.85254,36.0083-63.8423,31.54614-72.8584,68.68457A2.9842,2.9842,0,0,1,521.793,458.083q-6.07911.3933-6.70508-9.4668-.09668-1.511,4.74316-20.86963,4.83691-19.34033,20.58106-40.93359,15.73974-21.58008,37.85449-32.91113,36.16992-17.56422,90.78711-21.103l96.31836-6.22852q22.75342-1.47143,36.51563,5.2544,13.75049,6.73242,20.91015,34.82324,7.13671,28.0979,18.72363,130.543,11.57081,102.45775,14.27344,144.15869,2.69677,41.71875,2.16113,56.97852,99.668-142.76221,258.59083-358.67286Q1144.5664,302.05347,1211.31934,297.73145Z" style="fill:red;stroke:#000;stroke-miterlimit:10;stroke-width:5px"/><path d="M1294.18848,519.32422l37.96972-1.69434,7.584-.49023q-11.55175,9.88623-29.04395,51.38183-17.50488,41.50782-26.03418,62.61036-8.54,21.11425-18.793,56.81054-10.25684,35.70264-8.835,57.68946,1.42383,22.00634,15.832,21.0625,9.84815-.63721,26.82422-15.0625a148.16694,148.16694,0,0,0,27.38379-29.94922,452.80925,452.80925,0,0,0,22.97852-39.18457q12.55371-23.65869,21.71875-41.00684,9.16113-17.335,10.67773-17.44531,4.54982-.29443,5.457,13.73633a52.51045,52.51045,0,0,1-5.84277,27.41406q-25.02686,48.84815-46.11719,81.80664a287.14422,287.14422,0,0,1-49.15332,58.39355q-28.05762,25.42969-52.32715,26.99317-42.48193,2.74658-46.29687-56.41016-5.93262-91.75488,49.80469-207.32519Q1261.57128,521.4336,1294.18848,519.32422Zm96.6709-106.78027-3.03418.19628q-15.18018.98145-28.36524,14.78077-13.20849,13.81273-18.38183,27.84472-20.21925-6.29736-21.4834-26.02783-1.27442-19.71313,15.627-40.99414,16.90137-21.2622,33.58691-22.35449,16.67286-1.07812,25.51856,5.96631a25.05777,25.05777,0,0,1,9.59277,18.7998Q1404.68164,402.52247,1390.85938,412.544Z" style="fill:red;stroke:#000;stroke-miterlimit:10;stroke-width:5px"/><path d="M1692.1543,643.62012q-50.74951,98.49169-94.61035,138.63379-43.86768,40.14258-117.42579,44.91211-42.48339,2.74658-72.3457-11.69629-29.88574-14.43457-31.93359-46.29493a57.00121,57.00121,0,0,1,8.46-34.05664q9.63135-15.8496,28.21777-17.05664,18.57569-1.20117,24.77246,12.10645-13.48389,15.34716-12.252,34.30176,2.45361,37.93212,44.92383,35.17382,25.02831-1.61865,42.48047-20.26367,17.44774-18.63867,16.10449-39.501-1.34913-20.85059-11.47949-36.19434a120.43854,120.43854,0,0,0-23.8086-26.63867q-13.69043-11.28955-27.35644-22.60254-33.019-27.56543-35.4834-65.86719-2.47706-38.28662,25.0293-66.35351,27.49511-28.05177,78.32031-31.33838,31.853-2.05957,54.583,7.89355,22.72411,9.95434,24.27539,33.84424,1.54393,23.88867-11.73731,42.26465-13.2876,18.38819-37.93066,19.96973-24.65333,1.59521-26.11914-21.15918-.34278-5.29687,16.41308-17.05372,16.752-11.73926,16.02149-23.12207-.73536-11.37744-10.583-16.45214-9.86133-5.07276-27.293-3.94629-17.45508,1.1294-32.96387,14.3164-15.53319,13.19678-14.24609,32.90918,1.27589,19.73,19.08789,36.082a182.46923,182.46923,0,0,0,38.31641,27.22461q20.499,10.86476,38.58691,31.39453,18.07178,20.53712,19.62793,44.42579,1.54541,23.89012-8.22559,43.56152-9.77635,19.67871-24.2041,32.02832,41.28955-20.94726,84.36621-96.8457,4.15871-6.3545,14.3086-26.05664,23.44775-49.49707,26.4873-49.69336,4.55127-.29444,5.458,13.73632A52.50857,52.50857,0,0,1,1692.1543,643.62012Z" style="fill:red;stroke:#000;stroke-miterlimit:10;stroke-width:5px"/><path d="M1987.40723,581.11621q4.5498-.29443,5.50683,14.49512.95655,14.7876-9.85351,36.05078-10.81641,21.2622-21.38965,40.22363a500.15164,500.15164,0,0,1-28.72754,44.50684q-18.15968,25.55567-36.17676,41.18066-45.52441,37.98193-93.68359,41.09082-48.16992,3.11426-79.33106-19.62109-31.17041-22.72413-34.458-73.54981-5.00245-77.35692,47.61132-147.01757,52.61427-69.66064,128.45508-74.565,34.1294-2.20752,55.75781,14.291,21.63135,16.50513,23.248,41.52588,2.748,42.48339-35.78125,70.85644-38.53857,28.39161-93.13379,31.917-31.853,2.061-47.56054-5.30176-11.915,39.61085-9.9961,69.18945,4.1206,63.70606,57.9668,60.22363,31.853-2.05956,64.00879-28.89062a286.88817,286.88817,0,0,0,54.05859-59.0918q21.90381-32.26024,48.5127-91.86133C1984.22754,583.10645,1985.89063,581.21387,1987.40723,581.11621Zm-84.2666-54.71582q-1.42091-21.98877-22.65723-20.62109-29.5796,1.91309-63.62793,40.6709-34.04883,38.75829-32.57813,61.51074.98145,15.18016,29.79981,13.30469,28.81494-1.86328,58.48047-31.96Q1902.20459,559.2207,1903.14063,526.40039Z" style="fill:red;stroke:#000;stroke-miterlimit:10;stroke-width:5px"/><path d="M2531.92773,545.90234q4.54981-.29443,5.50684,14.49512.95655,14.78907-9.85449,36.05078-10.81494,21.26221-21.38867,40.22364a500.37318,500.37318,0,0,1-28.72754,44.50683q-18.15968,25.55714-36.17676,41.18067-45.52442,37.98192-93.68359,41.09082-48.16994,3.11571-79.33106-19.6211-31.17041-22.72411-34.458-73.5498-5.00244-77.35694,47.61133-147.01758,52.61425-69.65991,128.45508-74.56445,34.12792-2.20752,55.75781,14.29052,21.63135,16.50513,23.249,41.52588,2.74657,42.48341-35.78223,70.85742-38.54,28.39161-93.13477,31.917-31.85155,2.05956-47.55957-5.30274-11.915,39.6123-9.99609,69.18945,4.12061,63.70752,57.9668,60.22364,31.853-2.05958,64.00879-28.88965a286.94827,286.94827,0,0,0,54.05957-59.0918q21.90234-32.26172,48.51171-91.8623C2528.74805,547.89355,2530.41113,546.001,2531.92773,545.90234Zm-84.2666-54.71533q-1.42236-21.988-22.65722-20.6206-29.57812,1.91235-63.62793,40.66992-34.04883,38.75976-32.57813,61.51172.98145,15.17871,29.79981,13.30371,28.81494-1.86328,58.47949-31.96Q2446.72558,524.00684,2447.66113,491.187Z" style="fill:red;stroke:#000;stroke-miterlimit:10;stroke-width:5px"/><path d="M2883.68066,568.08887q-25.02538,48.84814-46.11718,81.80566a287.06055,287.06055,0,0,1-49.15332,58.39356q-28.05617,25.42968-52.32715,26.99316-44.7583,2.89454-47.9336-46.40234-3.1875-49.292,44.08008-201.62452a35.28329,35.28329,0,0,0,2.10156-14.606q-1.02978-15.92578-21.12792-14.627-20.10352,1.3-38.62793,15.06446-18.53175,13.7644-32.96094,37.92578a511.49516,511.49516,0,0,0-25.7793,48.88476,388.83578,388.83578,0,0,0-20.335,56.53028q-8.98974,31.81787-14.083,53.0791-5.102,21.28564-10,45.58008-4.90577,24.30762-5.51269,26.63183l-73.56543,4.75684q-1.02979-15.92724,54.91992-187.09375,22.25244-79.86913,20.24023-110.97607-.48926-7.57251-3.01074-11.2295l31.85352-2.06006q26.53857-1.71606,34.47168,3.10206a16.758,16.758,0,0,1,8.5166,13.91943q.58887,9.10107-5.93945,37.70215,59.78319-64.78711,124.24707-68.96143,43.23046-2.79639,45.78027,36.6416a91.23728,91.23728,0,0,1-2.124,26.03076q-2.96925,13.15063-15.626,52.79786-27.8877,87.10693-26.0127,115.91992,1.17627,18.20214,14.82813,17.31933,9.84814-.6372,26.79883-15.4414a168.72927,168.72927,0,0,0,27.73925-30.35352,416.89441,416.89441,0,0,0,23.38379-38.83008q12.57715-23.26756,21.36328-40.60351,8.77-17.30859,10.29688-17.41992,4.55127-.29444,5.458,13.73632A52.51047,52.51047,0,0,1,2883.68066,568.08887Z" style="fill:red;stroke:#000;stroke-miterlimit:10;stroke-width:5px"/><path d="M3396.76758,223.41992q-23.72168,57.13623-75.3086,130.9126-51.59764,73.79-93.58593,119.14746l-9.87891,35.67139q-7.38135,27.145-13.27441,65.59277-5.9004,38.47411-4.10059,54.33789,1.47218,22.752,18.15625,21.67383,16.67286-1.0796,38.58887-21.53613,21.90234-20.44337,31.61719-35.17285,9.70458-14.71143,22.26953-38.377,12.55224-23.65869,21.71875-41.00683,9.16113-17.335,10.67578-17.44483,4.55127-.29443,5.458,13.73584a52.51051,52.51051,0,0,1-5.84278,27.41406q-37.15722,73.23048-61.07324,103.7168-48.60351,61.02978-103.96777,64.60352-42.4834,2.748-46.19825-54.89258-3.67968-56.88135,37.96387-201.98926,3.00292-12.3684,14.15723-51.94238,11.15038-39.561,19.61133-61.81348,8.44922-22.25244,22.84277-58.977,14.36718-36.71778,28.55273-58.96533,14.16359-22.22827,31.71192-45.46094,34.30663-46.37841,77.54687-49.18652,43.23048-2.79565,45.78028,36.6416Q3412.1499,190.44459,3396.76758,223.41992Zm-21.27246-81.63623-5.30957.34326q-46.27,2.99195-129.94043,287.14307,96.00146-128.81836,128.876-209.39258,18.1333-49.15283,17.18946-63.94287Q3385.354,141.14623,3375.49512,141.78369Z" style="fill:red;stroke:#000;stroke-miterlimit:10;stroke-width:5px"/><path d="M3616.98926,366.82666l36.45312-1.5957q11.37744-.73536,14.36133-1.69043Q3647.49512,379.33007,3613.25,467.978q-34.251,88.6604-31.79785,126.57568,1.47216,22.752,16.63965,21.77149,9.84667-.63721,26.08984-14.63477A156.39328,156.39328,0,0,0,3651.542,571.3623a431.76539,431.76539,0,0,0,23.68848-39.99218q12.55224-23.65869,21.71875-41.00635,9.15966-17.33569,10.67578-17.4458,4.5498-.2937,5.48242,14.11572a49.54168,49.54168,0,0,1-6.57715,27.84229q-83.89746,163.07373-146.83984,167.14355-42.48194,2.748-46.541-60.20117a230.46537,230.46537,0,0,1,.582-38.11719q-64.77393,105.48486-129.2334,109.64844-18.9668,1.22607-31.74512-13.94043-12.79687-15.16553-14.79688-46.26172-2.01123-31.08837,15.34864-104.18652,17.35254-73.092,46.21972-121.416,6.83936-11.86451,15.39942-15.08545,8.53857-3.21093,32.81933-4.78711l36.4043-2.354q-17.29835,27.01758-36.44238,72.42236-43.33595,107.15112-40.19727,155.67725,1.86475,28.83105,22.71973,27.47168,20.85059-1.34913,47.07715-43.40918,26.21337-42.05274,55.0664-108.27881,28.84865-66.2124,33.61621-74.90478Q3591.19288,368.50659,3616.98926,366.82666Z" style="fill:red;stroke:#000;stroke-miterlimit:10;stroke-width:5px"/><path d="M4233.62012,480.79q-25.0254,48.84815-46.11719,81.80566a287.14428,287.14428,0,0,1-49.15332,58.39356q-28.05615,25.42968-52.32715,26.99316-44.75831,2.89453-48.08105-48.67871-3.873-59.90185,36.74414-173.73193,8.79785-28.73584,8.11718-39.36524-.98144-15.1626-14.63281-14.28613-8.354.54052-28.18164,11.72314-19.83837,11.18922-37.14648,32.104-17.31593,20.93262-27.60157,38.34131-10.29784,17.42651-21.792,51.67383-11.4917,34.26415-15.16113,48.19824-17.58984,69.67968-23.20117,100.50683l-74.3252,4.80567q32.36425-111.76026,44.71289-150.63867,12.33692-38.87037,14.78125-48.17383l5.45215-21.67676q6.76758-24.802,5.74317-40.73535-1.0298-15.92652-15.44043-14.99463-12.14062.78516-32.30372,12.751-20.17968,11.97948-38.56347,33.71923a187.01179,187.01179,0,0,0-29.92578,49.53418q-11.53859,27.78809-18.21973,48.01563-6.68847,20.24413-13.19141,49.21289-6.51416,28.98194-11.79687,47.21973-5.2998,18.24609-10.59961,42.19238l-73.56543,4.75683a509.50637,509.50637,0,0,1,14.52246-58.05761l41.15527-129.085q25.42237-77.7898,23.17676-112.68994c-.32617-5.04786-1.0498-8.30909-2.15527-9.76124l31.85351-2.05957q25.77393-1.667,33.68848,2.77149,7.894,4.45239,8.44238,12.78223.54054,8.354-6.59863,39.26757,62.80371-64.98265,129.55762-69.30517,40.188-2.59863,42.35254,30.771.93164,14.41481-6.03711,36.18457,64.54248-73.46629,137.36035-78.187,39.4248-2.54883,41.5957,30.81983a79.098,79.098,0,0,1-3.44629,29.16259q-4.42968,13.99586-11.37011,36.14942-6.95655,22.15429-11.34571,36.52832-4.4077,14.38623-9.90332,35.29248-11.71875,42.65039-10.41308,62.74219,1.30077,20.10351,13.81347,19.28906,12.51417-.81006,30.39453-18.72168,17.8711-17.89746,26.57715-30.6582,8.6924-12.73536,21.28028-36.02784,12.57714-23.269,21.36328-40.60351,8.77-17.31006,10.29687-17.42041,4.55127-.29444,5.457,13.73584A52.51033,52.51033,0,0,1,4233.62012,480.79Z" style="fill:red;stroke:#000;stroke-miterlimit:10;stroke-width:5px"/><path d="M4333.06641,322.80322l37.96875-1.69384,7.584-.49024q-11.55175,9.88623-29.04394,51.38184-17.50342,41.5078-26.03418,62.60986-8.54,21.115-18.793,56.81055-10.25684,35.70191-8.83594,57.68994,1.42383,22.00635,15.833,21.0625,9.84815-.63721,26.82422-15.0625a148.19292,148.19292,0,0,0,27.38379-29.94922,453.294,453.294,0,0,0,22.97949-39.18457q12.55224-23.65869,21.71875-41.00684,9.15966-17.335,10.67578-17.44482,4.5498-.29443,5.458,13.73584a52.50267,52.50267,0,0,1-5.84375,27.41455q-25.02393,48.84741-46.11621,81.80615a287.11322,287.11322,0,0,1-49.15332,58.39356q-28.05762,25.42822-52.32813,26.99218-42.48193,2.74806-46.2959-56.40918-5.93408-91.75633,49.80371-207.32519Q4300.44874,324.91309,4333.06641,322.80322Zm96.66992-106.77978-3.03418.19629q-15.17871.98144-28.36524,14.78076-13.207,13.81273-18.38086,27.84472-20.22069-6.29736-21.48535-26.02832-1.27441-19.71313,15.627-40.99414,16.90429-21.2622,33.58789-22.354,16.67284-1.07812,25.51758,5.96582a25.05241,25.05241,0,0,1,9.59375,18.79981Q4443.5586,206.00146,4429.73633,216.02344Z" style="fill:red;stroke:#000;stroke-miterlimit:10;stroke-width:5px"/><path d="M4716.86035,404.60547q4.5498-.2937,5.50684,14.4956.95508,14.78834-9.85449,36.05079-10.81641,21.2622-21.38868,40.22363a500.84973,500.84973,0,0,1-28.72656,44.50635q-18.16113,25.55566-36.17969,41.18066-45.52295,37.98194-93.68261,41.09082-48.16992,3.11572-79.33008-19.62109-31.17334-22.72413-34.459-73.54981-5.00244-77.3562,47.61133-147.01758,52.61425-69.65991,128.45508-74.56494,34.12792-2.20678,55.75879,14.291,21.62988,16.50513,23.24805,41.52637,2.748,42.48266-35.78223,70.85693-38.54,28.39159-93.13379,31.9165-31.853,2.06031-47.56152-5.30176-11.91212,39.61158-9.99512,69.189,4.12061,63.706,57.9668,60.22363,31.85448-2.05956,64.00976-28.89062a286.91817,286.91817,0,0,0,54.0586-59.0918q21.90381-32.25952,48.51269-91.86084C4713.68066,406.59668,4715.34277,404.70361,4716.86035,404.60547ZM4568.12988,200.981q-33.69579-14.56422-46.54785-19.07617-12.85546-4.48755-12.95508-6.01612-.29443-4.55053,14.334-13.87451,14.62206-9.31715,20.69531-9.71582,6.063-.39184,9.2002.92871,14.28808,8.98242,41.30078,26.269l46.09668,29.76709q18.271,11.77662,23.73339,13.69727c.09864,1.5166-2.31542,3.57666-7.21582,6.17822q-7.37109,3.90381-9.25976,4.02588-1.90137.123-23.81738-9.12158Zm64.46387,148.90918q-1.42236-21.988-22.65918-20.6211-29.57665,1.91308-63.626,40.6709-34.05028,38.75831-32.5791,61.51074.98145,15.17945,29.80078,13.3042,28.81494-1.86327,58.47852-31.96Q4631.65722,382.7107,4632.59375,349.89014Z" style="fill:red;stroke:#000;stroke-miterlimit:10;stroke-width:5px"/><path d="M4904.03906,284.35645l38.72754-1.74268,7.585-.49023q-10.83692,9.08936-29.0459,51.38085-18.21825,42.30323-27.09668,63.82129-8.88867,21.531-19.123,57.59375-10.23193,36.07545-8.81055,58.06885,1.42236,22.00635,16.58984,21.01367,9.79981-1.38427,26.7754-15.82129a158.46373,158.46373,0,0,0,27.76269-29.97363,373.45194,373.45194,0,0,0,23.334-39.58789q12.53028-24.033,21.66993-41.76611,9.13329-17.72609,10.65234-17.82373,5.29688-.34278,6.21582,13.687a52.51226,52.51226,0,0,1-5.84277,27.41455q-29.13428,55.968-48.502,86.14844a280.272,280.272,0,0,1-47.7832,56.0205q-28.42529,25.82813-52.68164,27.39649-43.229,2.79492-47.34961-60.91113-2.79639-43.229,10.35742-98.91358a424.78961,424.78961,0,0,1,42.4795-108.60742q-25.18214,22.95923-51.71583,24.66846a45.22771,45.22771,0,0,1-17.68847-2.66358q-46.99219,109.67212-51.15137,109.93018-4.17627.26953-4.98047-12.24463-.81006-12.51415,7.22364-35.5,8.02734-22.97388,17.706-44.1748,9.66065-21.18678,10.2832-23.51221-28.18506-11.88648-30.14648-42.22217a43.27228,43.27228,0,0,1,7.71484-27.916q8.68946-12.73534,25.38086-13.82666,16.67286-1.07885,27.98828,8.85206-1.23339,4.6494-.63379,13.75,1.32423,20.47559,16.874,31.27539,15.54932,10.81128,36.78418,9.42627a40.28838,40.28838,0,0,0,9.05273-1.34766Q4876.731,286.12817,4904.03906,284.35645Z" style="fill:red;stroke:#000;stroke-miterlimit:10;stroke-width:5px"/><path d="M5288.69141,367.626q4.5498-.29444,5.50683,14.49511.95508,14.78834-9.85449,36.05127-10.81641,21.26221-21.38867,40.22364a500.9944,500.9944,0,0,1-28.72656,44.50634Q5216.06737,528.458,5198.0498,544.083q-45.52294,37.98194-93.68359,41.09082-48.16992,3.11426-79.33008-19.6211-31.17333-22.72411-34.459-73.5498-5.00244-77.35693,47.61133-147.01758,52.61426-69.65991,128.45507-74.56494,34.12794-2.20752,55.75879,14.291,21.6299,16.50511,23.24805,41.52636,2.748,42.48267-35.78223,70.85645-38.54,28.39159-93.13378,31.917-31.853,2.05957-47.56153-5.30176-11.9121,39.61084-9.99512,69.189,4.1206,63.70605,57.9668,60.22363,31.8545-2.05958,64.00977-28.89062a286.94088,286.94088,0,0,0,54.05859-59.09131q21.90381-32.26026,48.5127-91.86182C5285.51172,369.6167,5287.17383,367.72412,5288.69141,367.626Zm-84.26661-54.71582q-1.42236-21.98805-22.6582-20.62061-29.57812,1.91235-63.62695,40.6709-34.0503,38.75831-32.5791,61.51074.98143,15.17945,29.80078,13.3042,28.81494-1.86329,58.47851-31.96Q5203.48829,345.73121,5204.4248,312.91016Z" style="fill:red;stroke:#000;stroke-miterlimit:10;stroke-width:5px"/></g></g><g id="b69ee88d-3bb2-416c-bc76-d8798f063564" data-name="soulignage"><g id="bf4b8912-15d2-4ffb-8c7e-ae0f1e4a4cfd" data-name="movie-film"><path d="M180.86937,950.60367H261.1389a51.56363,51.56363,0,0,0,36.90391-15.45585c14.84529-15.01133,27.2942-24.31631,50.07833-24.31631H368v30.2494H348.12114c-11.61157,0-17.06824,3.467-28.925,15.45586a81.11759,81.11759,0,0,1-58.05719,24.31631H180.86937Z"/><circle cx="176.83518" cy="854.83517" r="126.01726" style="fill:#bab8b9"/><path d="M196.10747,974.4292a126.0362,126.0362,0,0,1-49.41379-241.97409,126.036,126.036,0,1,0,79.55593,238.33627A126.28567,126.28567,0,0,1,196.10747,974.4292Z" style="fill:#9e9c9d"/><circle cx="245.4872" cy="833.28305" r="30.97595" style="fill:#fdf5e6"/><circle cx="220.36339" cy="911.98844" r="30.97595" style="fill:#fdf5e6"/><circle cx="133.31338" cy="911.98844" r="30.97595" style="fill:#fdf5e6"/><circle cx="108.18317" cy="833.28305" r="30.97595" style="fill:#fdf5e6"/><circle cx="176.83518" cy="782.9905" r="30.97595" style="fill:#fdf5e6"/><circle cx="176.83518" cy="854.83518" r="18.10892" style="fill:#fdf5e6"/><path d="M215.30715,840.25811a30.97594,30.97594,0,0,0,33.5044,23.8191,73.24886,73.24886,0,0,0,.58328-9.242,72.2915,72.2915,0,0,0-18.78728-48.71679A30.98361,30.98361,0,0,0,215.30715,840.25811Z"/><path d="M240.94359,888.84063a30.97646,30.97646,0,0,0-48.37119,36.83645A72.676,72.676,0,0,0,240.94359,888.84063Z"/><path d="M152.07818,887.34643a30.98186,30.98186,0,0,0-39.34948,1.49483,72.67852,72.67852,0,0,0,48.37182,36.8371A30.984,30.984,0,0,0,152.07818,887.34643Z"/><path d="M123.06473,806.11839a72.2915,72.2915,0,0,0-18.78728,48.71679,73.24886,73.24886,0,0,0,.58328,9.242,30.97238,30.97238,0,0,0,18.204-57.95882Z"/><path d="M176.83582,782.27616a72.27572,72.27572,0,0,0-30.401,6.66221,30.97682,30.97682,0,0,0,60.802,0A72.27356,72.27356,0,0,0,176.83582,782.27616Z"/><path d="M199.76008,854.83518a22.92459,22.92459,0,1,0-22.9249,22.92426A22.95064,22.95064,0,0,0,199.76008,854.83518Zm-36.2127,0a13.28876,13.28876,0,1,1,13.28844,13.28844A13.30333,13.30333,0,0,1,163.54738,854.83518Z"/><path d="M280.365,825.22687a35.61911,35.61911,0,0,0-34.84891-27.74346,35.80667,35.80667,0,0,0-34.07419,46.86285c5.60741,17.38751,24.32724,27.922,42.10469,23.81525A35.8356,35.8356,0,0,0,280.365,825.22687Zm-35.94162,34.195a26.05448,26.05448,0,0,1-13.96489-4.683c-14.28735-9.99555-14.62395-31.77059-.78049-42.29162a67.57457,67.57457,0,0,1,14.8989,42.388C244.57692,856.36277,244.52553,857.89616,244.4234,859.42184Zm9.71869-1.45373c.04175-1.04453.07065-2.08968.07065-3.13293a77.18774,77.18774,0,0,0-15.7231-46.753c.36744-.1015.73682-.19914,1.11069-.28522a26.30633,26.30633,0,0,1,5.91639-.67836,26.16153,26.16153,0,0,1,8.62537,50.84952Z"/><path d="M184.64469,909.75422l-.00579.09186a35.78276,35.78276,0,0,0,35.74762,37.94266,36.125,36.125,0,0,0,35.4457-30.99458c2.59782-19.18621-11.15507-37.47884-30.32136-40.21863-.14068-.01992-.28073-.04176-.42141-.06038C204.80346,873.80362,185.9526,889.36675,184.64469,909.75422Zm9.684.31349a26.09745,26.09745,0,0,1,40.35482-19.97055,67.62345,67.62345,0,0,1-39.23514,29.88645A25.61869,25.61869,0,0,1,194.32868,910.06771Zm51.95507,5.43268a26.4095,26.4095,0,0,1-25.89915,22.65188,25.96818,25.96818,0,0,1-20.20567-9.533,77.22479,77.22479,0,0,0,41.57472-31.67358A25.96757,25.96757,0,0,1,246.28375,915.50039Z"/><path d="M111.62444,940.46871a35.47556,35.47556,0,0,0,21.66325,7.31938c20.31424,0,36.999-17.64448,35.74441-37.94971l-.0045-.07708a35.75719,35.75719,0,0,0-40.86681-33.18577,35.78816,35.78816,0,0,0-16.53635,63.89318Zm17.81535-54.34409c.05846-.00835.11691-.01735.176-.0257,15.75071-2.179,30.42414,11.04008,29.83315,26.9077-.00128.0257-.00193.05139-.00257.07709a25.94744,25.94744,0,0,1-1.22374,6.90053,67.62011,67.62011,0,0,1-39.2345-29.88645A26.11078,26.11078,0,0,1,129.43979,886.12462Zm-17.52114,10.82165a77.22823,77.22823,0,0,0,41.57408,31.67294,26.15093,26.15093,0,0,1-41.57408-31.67294Z"/><path d="M137.95207,813.5277a36.0934,36.0934,0,0,0-29.79716-16.04428,35.801,35.801,0,0,0-30.33228,54.76486,36.13871,36.13871,0,0,0,30.39009,16.83827,35.596,35.596,0,0,0,34.03308-24.79489A36.22686,36.22686,0,0,0,137.95207,813.5277Zm-3.6507,21.09731a26.35563,26.35563,0,0,1-25.05377,24.79745c-.10214-1.52631-.15289-3.059-.15289-4.58729a67.57626,67.57626,0,0,1,14.89441-42.38284c.11756.08929.23576.1773.35139.26788A26.60478,26.60478,0,0,1,134.30137,834.625ZM85.99572,847.14322a26.16494,26.16494,0,0,1,22.15854-40.02463,26.34173,26.34173,0,0,1,7.0258.96423,77.1964,77.1964,0,0,0-15.72117,46.75236c0,1.04388.02827,2.089.07,3.13421A25.96006,25.96006,0,0,1,85.99572,847.14322Z"/><path d="M141.73509,789.93086a35.72213,35.72213,0,1,0-.69441-6.93652A35.24583,35.24583,0,0,0,141.73509,789.93086Zm59.18835,3.26268c-6.46563,15.21175-26.2711,20.68618-39.60965,10.841a26.35847,26.35847,0,0,1-8.56753-10.84415l-.02248-.05268c-.03084-.07194-.57109-1.40426-.54411-1.41453a67.977,67.977,0,0,1,49.31164,0C201.49774,791.72569,200.93244,793.173,200.92344,793.19354Zm-24.08826-36.35916a26.18711,26.18711,0,0,1,26.13427,25.15591,77.61656,77.61656,0,0,0-52.2679,0A26.187,26.187,0,0,1,176.83518,756.83438Z"/><path d="M196,985c57-13,55-20,73-33,22.25617-23.46644,38.67167-62.34544,38.67167-97.16351a130.50185,130.50185,0,0,0-47.49977-100.865,4.81811,4.81811,0,1,0-6.18012,7.393,121.20873,121.20873,0,0,1-73.26241,214.60322c-1.29313.04111-2.59011.06873-3.89352.06873A121.20065,121.20065,0,1,1,238.48938,750.476a4.81885,4.81885,0,1,0,5.02827-8.22062A130.68831,130.68831,0,0,0,176.83646,724C104.69307,723.99936,46,782.69179,46,854.83518,46,926.97792,104.69307,985.671,176.83582,985.671q1.71133,0,3.413-.04432a4.82675,4.82675,0,0,0,.62055.04432" style="stroke:#000;stroke-miterlimit:10;stroke-width:3px"/><g id="b1551798-1070-439b-b424-0cf1e6ab4ac0" data-name="bande_magnetique"><path d="M5364,893.612"/><path d="M5194,656c-303.18064-36.19848-1604.39733,88.35982-2379,140-30,2-271,17-271,17L330,943c-6.29679,0-44.17749,30.70741-53,30-1.043-.08363-4.76508-12.18924-3.95025-12.84564L308,932c0-7.05843,20.94157-20,28-20L2618,785c551-41,2297.40354-178,2646-178"/></g></g></g><g id="a148317a-d695-4000-ab97-8993f03a2a8d" data-name="icones"><g id="a45967c5-01cf-447e-bed4-617858995049" data-name="popcorn"><path d="M5346.42394,691.86312a15.5981,15.5981,0,0,0-29.35461-7.41364,15.4444,15.4444,0,0,0-1.94584-.193,15.6577,15.6577,0,1,0,2.17016,31.08135,15.58754,15.58754,0,0,0,27.13292-15.35222q-.08509-.14966-.1728-.29736A15.49333,15.49333,0,0,0,5346.42394,691.86312Z" style="fill:#fc3"/><path d="M5602.04427,702.2966a15.59809,15.59809,0,0,0-29.3546-7.413,15.44659,15.44659,0,0,0-1.94585-.193,15.6577,15.6577,0,1,0,2.17016,31.08135,15.58754,15.58754,0,1,0,27.13291-15.35222q-.08509-.14966-.17281-.298A15.49305,15.49305,0,0,0,5602.04427,702.2966Z" style="fill:#fc3"/><path d="M5573.18,762.95687a15.85,15.85,0,0,0-7.92423-11.12731,14.51186,14.51186,0,0,0-12.8697-1.15811c0-.33388.09912-.6521.09912-.99118a15.514,15.514,0,0,0-20.96609-14.659c0-.33387.09913-.65209.09913-.99118a15.65009,15.65009,0,0,0-15.65023-15.65022,15.65008,15.65008,0,0,0-15.65022-15.65022c-.33908,0-.65731.07825-.99117.09911a14.362,14.362,0,0,0-.25041-11.08036,16.12493,16.12493,0,0,0-13.04185-9.82834,22.82243,22.82243,0,0,1-32.78657-4.399c-6.219,2.2458-10.28367.86743-10.24781,7.479.01435-8.62914-7.03525-8.33977-15.66375-8.35476a15.62539,15.62539,0,0,0-13.25117,7.30409,15.19341,15.19341,0,0,0-11.29946-1.64328,15.85425,15.85425,0,0,0-11.75854,12.348,15.51961,15.51961,0,0,0,3.91256,13.38094,15.57093,15.57093,0,0,0-12.12893,7.19389,15.21717,15.21717,0,0,0-12.73928-1.22594,15.72839,15.72839,0,0,0-9.66662,9.54143,15.41207,15.41207,0,0,0,.20867,11.096,15.60806,15.60806,0,0,0-11.58117,15.04508c0,.33908.07826.65731.09912.99118a14.50893,14.50893,0,0,0-12.8384,1.14246,15.86356,15.86356,0,0,0-7.95032,11.143,15.58344,15.58344,0,0,0,7.366,15.7024l2.89007,2.32666h18.2586v20.42354h182.58595v-20.434h23.47534l-.73034-.73034A15.58751,15.58751,0,0,0,5573.18,762.95687Z" style="fill:#fc3"/><path d="M5372.50765,978.7839l-45.297-178.90293a24.29882,24.29882,0,0,1,23.67879-29.76672h.22954a24.29918,24.29918,0,0,1,24.10656,21.21127l28.58252,187.45838Z" style="fill:red"/><path d="M5403.80809,978.7839l-27.78958-181.27656a24.2987,24.2987,0,0,1,24.10657-27.3931h.866a24.29937,24.29937,0,0,1,24.29436,23.67879l9.82312,184.99085h-31.30045Z" style="fill:#fdf5e6"/><path d="M5425.31672,795.03983l9.79183,183.74407H5466.409l9.12408-183.10762a24.3,24.3,0,0,0-23.00452-25.52943q-.62406-.03228-1.24811-.0326h-1.6537a24.299,24.299,0,0,0-24.31784,24.28133q0,.32178.00782.64425Z" style="fill:red"/><path d="M5475.65827,793.17224,5466.409,978.78392h31.30045l26.99142-180.67141a24.29893,24.29893,0,0,0-24.01788-27.99825h-.75643A24.29947,24.29947,0,0,0,5475.65827,793.17224Z" style="fill:#fdf5e6"/><path d="M5549.87685,770.11424a24.29925,24.29925,0,0,1,23.53795,30.33535l-44.40491,178.33433h-31.30045l28.12866-188.06353A24.29923,24.29923,0,0,1,5549.87685,770.11424Z" style="fill:red"/><path d="M5382.94113,848.36536H5518.5764v62.6009H5382.94113Z" style="fill:#fc3"/><path d="M5351.64068,707.51334a20.5271,20.5271,0,0,0-1.565-7.82511,20.52707,20.52707,0,0,0,1.565-7.82511,20.80947,20.80947,0,0,0-37.25275-12.8071,20.86772,20.86772,0,1,0,.35474,41.73393,20.80969,20.80969,0,0,0,36.898-13.27661Zm-29.83976,5.21675-2.13365-2.97876-3.47435.49037a7.43512,7.43512,0,0,1-1.06943.09912,10.43348,10.43348,0,0,1,0-20.867,11.05637,11.05637,0,0,1,1.29376.15129l3.53695.44864,1.70066-3.13005a10.38657,10.38657,0,0,1,19.55234,4.91939,10.22805,10.22805,0,0,1-1.46069,5.21674l-1.5285,2.60837,1.5285,2.60837a10.22811,10.22811,0,0,1,1.46069,5.21675,10.43311,10.43311,0,0,1-10.43348,10.43348A10.31941,10.31941,0,0,1,5321.80092,712.73009Z"/><path d="M5607.261,702.2966a20.80947,20.80947,0,0,0-37.25275-12.8071,20.86772,20.86772,0,0,0,.35475,41.73393,20.80969,20.80969,0,0,0,36.898-13.27661,20.5271,20.5271,0,0,0-1.565-7.82511A20.52952,20.52952,0,0,0,5607.261,702.2966Zm-11.89417,10.43349a10.228,10.228,0,0,1,1.46069,5.21674,10.43311,10.43311,0,0,1-10.43349,10.43348,10.31862,10.31862,0,0,1-8.9728-5.21674l-2.13365-2.97876-3.47435.49037a7.51854,7.51854,0,0,1-1.07466.11477,10.43348,10.43348,0,0,1,0-20.867,11.0561,11.0561,0,0,1,1.29376.15128l3.537.44864,1.70066-3.13a10.38656,10.38656,0,0,1,19.55757,4.90373,10.22818,10.22818,0,0,1-1.46069,5.21675l-1.5285,2.60837Z"/><path d="M5441.23783,676.80605c-7.72743-6.99769-11.23783-8.80605-27.66856-.198-.36452.32018,17.77243-.95236,17.43073-.60806-3.54869-1.12812-25.831.3544-29.44554,1.25038a21.13275,21.13275,0,0,0-15.65022,16.49012,20.76354,20.76354,0,0,0,1.04335,11.15339,20.89987,20.89987,0,0,0-5.67581,4.01689,20.198,20.198,0,0,0-12.87492.193,20.9242,20.9242,0,0,0-12.90622,12.74971,20.68892,20.68892,0,0,0-1.04334,9.72923,20.95544,20.95544,0,0,0-9.95355,12.90621,19.47216,19.47216,0,0,0-10.78822,2.81183A21.10812,21.10812,0,0,0,5323.1938,762.205a20.72492,20.72492,0,0,0,3.65171,15.19115,29.37546,29.37546,0,0,0-4.69506,23.77791L5368.449,984h164.64036L5578.475,801.7427a29.266,29.266,0,0,0-4.17339-23.83008,20.57319,20.57319,0,0,0,4.03775-15.71739h0a21.06137,21.06137,0,0,0-10.48043-14.88858,20.4414,20.4414,0,0,0-10.81431-2.8327,21.0809,21.0809,0,0,0-20.867-15.65022,20.94517,20.94517,0,0,0-15.525-15.12855,20.95131,20.95131,0,0,0-15.12856-15.525,19.3623,19.3623,0,0,0-1.66414-8.50329,21.44588,21.44588,0,0,0-17.403-12.93231,20.72436,20.72436,0,0,0-11.70637,2.45709C5467.55863,670.2495,5449.94215,669.80807,5441,677m-102.109,79.33161a9.30219,9.30219,0,0,1,8.46155-.76165,5.21737,5.21737,0,0,0,6.98521-5.21674c0-.13042-.073-.52167-.08868-.66774a10.433,10.433,0,0,1,7.726-10.01615,5.21628,5.21628,0,0,0,3.50439-6.90377,10.46085,10.46085,0,0,1-.82685-3.388,10.58944,10.58944,0,0,1,7.07255-10.41352,10.017,10.017,0,0,1,8.48242.82425,5.21716,5.21716,0,0,0,6.97479-1.74239,10.2989,10.2989,0,0,1,8.08594-4.78375,5.21646,5.21646,0,0,0,3.48478-8.73283,10.30357,10.30357,0,0,1-2.60837-8.94671,10.56384,10.56384,0,0,1,7.88249-8.20593,9.91239,9.91239,0,0,1,7.49125,1.11116,5.21713,5.21713,0,0,0,6.97478-1.74239,10.43342,10.43342,0,0,1,19.22369,5.55061c0,2.88095,2.40216,5.7039,5.2831,5.7039s5.15038-2.82295,5.15038-5.7039a10.40214,10.40214,0,0,1,20.17837-3.563,5.217,5.217,0,0,0,3.876,3.31263,5.15887,5.15887,0,0,0,4.84636-1.565,10.43467,10.43467,0,0,1,8.52415-3.33872,10.91377,10.91377,0,0,1,8.71718,6.71917,9.07761,9.07761,0,0,1,.13043,7.20953,5.21638,5.21638,0,0,0,4.90374,7.00087c.22953,0,.75643-.073.986-.09912a10.43311,10.43311,0,0,1,10.43349,10.43348,5.217,5.217,0,0,0,5.21674,5.21675,10.4331,10.4331,0,0,1,10.43348,10.28741c0,.13042-.07825.68339-.08867.81381a5.21718,5.21718,0,0,0,6.99043,5.21674,10.23635,10.23635,0,0,1,3.53172-.673,10.43311,10.43311,0,0,1,10.43349,10.28741c0,.13042-.07825.68339-.08868.81381a5.21619,5.21619,0,0,0,6.9852,5.21674,9.35415,9.35415,0,0,1,8.48242.76686,10.58,10.58,0,0,1,5.36281,7.37126,10.34647,10.34647,0,0,1-1.16333,6.55223l-.12519-.07825a29.09479,29.09479,0,0,0-3.38045-2.01887c-.58692-.30433-1.17385-.54072-1.80776-.898a9.88879,9.88879,0,0,0-2.44436-.8918c-.11915-.03045-.22239-.08471-.33859-.11958a29.22584,29.22584,0,0,0-3.88126-.90771c-.31822-.05217-.63121-.09911-.94944-.14607a29.99793,29.99793,0,0,0-4.03775-.31822,29.44833,29.44833,0,0,0-24.51869,13.1827l-.06782.10956-.05739-.10434a29.46373,29.46373,0,0,0-24.55-13.18792h-.75643a29.32632,29.32632,0,0,1-48.64611,0h-1.6537a29.41459,29.41459,0,0,1-48.6409,0h-.866a34.97717,34.97717,0,0,1-54.46278.52167c-.53571.09108-1.02742.22616-1.5429.34876a29.86232,29.86232,0,0,0-3.61115,1.091c-.48519.1826-.97559.35477-1.45034.56345a29.01454,29.01454,0,0,0-4.236,2.26406c-.10434.06782-.22432.12-.32866.1878l-.04695.02608a10.32112,10.32112,0,0,1-.94423-6.17141,10.5944,10.5944,0,0,1,5.39407-7.39733Zm180.65054,41.014-6.83915,45.803h-34.29487l2.478-49.71033a18.78028,18.78028,0,0,1,3.22916-9.55707,19.03641,19.03641,0,0,1,15.81716-8.55024h.75643a19.11149,19.11149,0,0,1,18.85332,22.01465Zm-88.98718-2.67619a19.06728,19.06728,0,0,1,18.794-19.3365c.08608-.0013.1715-.002.25758-.002h1.67457a19.21071,19.21071,0,0,1,19.062,20.06359l-2.3997,47.75405h-34.81653l-2.56141-48.19225Zm-46.309-10.79865a19.06265,19.06265,0,0,1,15.87977-8.5398h.866a19.20282,19.20282,0,0,1,19.08283,18.749l.03131.56862v.20345l2.551,48.29659h-34.24791l-7.30343-48.04619a18.81275,18.81275,0,0,1,3.16656-11.22643Zm-7.679,189.69636-44.27448-174.86a19.18192,19.18192,0,1,1,37.75878-6.59918l.61035,4.00124c.03652.6834.07825,1.36678.18259,2.18582l6.88088,44.85354V916.183h11.21077l1.11639,7.30344,7.679,50.08073h-21.16432Zm31.723,0-5.34716-35.06693L5399.5408,916.183h27.00707l3.057,57.38415Zm53.15337,0H5440.054l-3.04657-57.38415h27.31484Zm31.77,0H5471.8918l2.864-57.38415h27.03836Zm-17.93516-67.81763h-87.11958V853.5821h125.20179v52.16742Zm93.06667-106.55716-43.41371,174.37479h-21.16432l8.58154-57.38415h11.44554V843.14862l7.20432-51.64574a19.08286,19.08286,0,1,1,37.70137,5.93535q-.13889.88227-.36,1.74892Z" style="stroke:#000;stroke-miterlimit:10;stroke-width:4px"/><g id="ad7cc6a2-dfce-43e9-bf52-48fb00883929" data-name="Singe_roi_lion"><path d="M5440.43679,867.19307a1.22775,1.22775,0,0,1,.71709,1.1344,2.4478,2.4478,0,1,0,4.88534-.19861,1.58274,1.58274,0,0,1,.4594-1.46613,1.20149,1.20149,0,0,0,.55031-1.08865,1.2353,1.2353,0,0,0-2.30749-.3858,1.92392,1.92392,0,0,1-2.8302.24761,1.20153,1.20153,0,0,0-1.08866-.5503,1.22939,1.22939,0,0,0-1.11678,1.33093A1.20151,1.20151,0,0,0,5440.43679,867.19307Z" style="fill:red;stroke:#000;stroke-miterlimit:10;stroke-width:0.75px"/><path d="M5435.11164,868.891a8.55267,8.55267,0,0,0,16.92608-1.48084,3.66993,3.66993,0,1,0-2.893-6.744,8.3738,8.3738,0,0,0-12.35506,1.08093,3.64737,3.64737,0,0,0-1.18369-.10477,3.67549,3.67549,0,0,0-.4943,7.24872Zm5.49679-6.45316a3.58555,3.58555,0,0,0,4.89542-.42829,3.68967,3.68967,0,0,1,3.99279,3.35034,3.58908,3.58908,0,0,1-.9936,2.8075,4.9147,4.9147,0,0,1-9.77893.85554,3.58907,3.58907,0,0,1-1.466-2.59231A3.68966,3.68966,0,0,1,5440.60843,862.43788Z" style="fill:red;stroke:#000;stroke-miterlimit:10;stroke-width:0.75px"/><path d="M5458.80787,899.15774l8.5434-.74745a7.44969,7.44969,0,0,0,6.69355-8.06716l-.85659-9.79083a2.45309,2.45309,0,0,1,1.12046-2.28026,2.29337,2.29337,0,0,0,.9574-2.16125,2.51689,2.51689,0,0,0-1.43-2.04265,2.30626,2.30626,0,0,0-2.31666.15689,7.38467,7.38467,0,0,0-3.22661,6.75556l.85659,9.79084a2.46026,2.46026,0,0,1-2.23356,2.66185l-3.29062.2879A17.65848,17.65848,0,0,1,5458.80787,899.15774Z" style="fill:red;stroke:#000;stroke-miterlimit:10;stroke-width:0.75px"/><path d="M5436.52356,886.22648l5.022-.43936a8.54006,8.54006,0,0,1,4.449-2.75209,1.22809,1.22809,0,1,1,.57977,2.38678,6.29471,6.29471,0,0,0-4.62094,5.383,6.20711,6.20711,0,0,0,.28153,2.32137l-.07694.00673c.00778.03352.00822.06867.0165.10215a6.2415,6.2415,0,0,0-4.46594,6.53546,1.22784,1.22784,0,0,0,1.33093,1.11678l11.84177-1.036c6.58752-.57634,13.31148-7.47279,12.56716-15.98037a14.807,14.807,0,0,0-9.79888-12.58212,10.99638,10.99638,0,0,1-9.20138,6.84509,10.8149,10.8149,0,0,1-1.233.00231l.11624,1.32862a1.22941,1.22941,0,0,1-1.11678,1.33093l-6.11928.53537a2.45706,2.45706,0,1,0,.4283,4.89541Z" style="fill:red;stroke:#000;stroke-miterlimit:10;stroke-width:0.75px"/></g></g><g id="b24b254d-0a1a-4584-a3aa-bb88135aee7d" data-name="Ticket"><path d="M5207.925,876.19489a3.65324,3.65324,0,1,0-2.58228-1.07A3.67884,3.67884,0,0,0,5207.925,876.19489Z" style="stroke:#000;stroke-miterlimit:10;stroke-width:3px"/><path d="M5260.24409,871.35845a3.65785,3.65785,0,1,0,1.06716,2.58229A3.6855,3.6855,0,0,0,5260.24409,871.35845Z" style="stroke:#000;stroke-miterlimit:10;stroke-width:3px"/><path d="M5270.44484,864.81a3.65324,3.65324,0,1,0-2.58514-1.07A3.67884,3.67884,0,0,0,5270.44484,864.81Z" style="stroke:#000;stroke-miterlimit:10;stroke-width:3px"/><path d="M5336.04063,886.845h-10.19076l17.939-17.93905a10.95806,10.95806,0,0,0,0-15.49515l-16.27126-16.27126a3.65355,3.65355,0,0,0-5.16457,0,10.95673,10.95673,0,0,1-15.49515-15.49515,3.651,3.651,0,0,0,0-5.16457L5290.5881,800.21a10.95462,10.95462,0,0,0-15.49514,0l-60.3228,60.32137a3.65241,3.65241,0,0,0,5.166,5.16458l60.32137-60.32137a3.651,3.651,0,0,1,5.16457,0l13.94578,13.94435A18.26937,18.26937,0,0,0,5324.68,844.63107l13.94435,13.94435a3.65614,3.65614,0,0,1,0,5.16457L5315.5193,886.845h-16.01161l11.99979-11.99979a3.65355,3.65355,0,0,0,0-5.16457l-37.18921-37.18922a3.6527,3.6527,0,0,0-5.166,0L5214.7987,886.845h-43.84181A10.96887,10.96887,0,0,0,5160,897.80192v23.00946a3.65293,3.65293,0,0,0,3.6523,3.6523,10.95689,10.95689,0,0,1,0,21.91377,3.652,3.652,0,0,0-3.6523,3.6523v23.00946a10.96979,10.96979,0,0,0,10.95689,10.95688h165.08374a10.96978,10.96978,0,0,0,10.95689-10.95688V950.02975a3.652,3.652,0,0,0-3.65229-3.6523,10.95689,10.95689,0,1,1,0-21.91377,3.65293,3.65293,0,0,0,3.65229-3.6523V897.80192A10.96886,10.96886,0,0,0,5336.04063,886.845Zm-64.30607-46.60671,32.02463,32.02463L5289.17712,886.845h-14.46223l10.70721-10.70865a3.6519,3.6519,0,0,0-5.16457-5.16457l-15.87322,15.87179h-39.255Zm67.95837,77.28742a18.26429,18.26429,0,0,0,0,35.78964v19.72382a3.6566,3.6566,0,0,1-3.6523,3.65229H5170.95689a3.6566,3.6566,0,0,1-3.6523-3.65229V953.31539a18.26429,18.26429,0,0,0,0-35.78964V897.80192a3.65568,3.65568,0,0,1,3.6523-3.65229h165.08374a3.65568,3.65568,0,0,1,3.6523,3.65229Z" style="stroke:#000;stroke-miterlimit:10;stroke-width:3px"/><path d="M5238.00219,929.23734a3.651,3.651,0,1,0-2.58229,1.07A3.6839,3.6839,0,0,0,5238.00219,929.23734Z" style="stroke:#000;stroke-miterlimit:10;stroke-width:3px"/><path d="M5274.15991,929.23734a3.651,3.651,0,1,0-2.58229,1.07A3.68387,3.68387,0,0,0,5274.15991,929.23734Z" style="stroke:#000;stroke-miterlimit:10;stroke-width:3px"/><path d="M5256.08105,929.23734a3.651,3.651,0,1,0-2.58229,1.07A3.68387,3.68387,0,0,0,5256.08105,929.23734Z" style="stroke:#000;stroke-miterlimit:10;stroke-width:3px"/><path d="M5217.341,930.30735a3.65324,3.65324,0,1,0-2.58229-1.07A3.68135,3.68135,0,0,0,5217.341,930.30735Z" style="stroke:#000;stroke-miterlimit:10;stroke-width:3px"/><path d="M5292.23877,929.23734a3.651,3.651,0,1,0-2.58229,1.07A3.68387,3.68387,0,0,0,5292.23877,929.23734Z" style="stroke:#000;stroke-miterlimit:10;stroke-width:3px"/><path d="M5217.341,947.83837h72.31544a3.6523,3.6523,0,1,0,0-7.30459H5217.341a3.6523,3.6523,0,1,0,0,7.30459Z" style="stroke:#000;stroke-miterlimit:10;stroke-width:3px"/><path d="M5230.60629,958.0648a3.65324,3.65324,0,1,0,2.58228,1.07A3.68136,3.68136,0,0,0,5230.60629,958.0648Z" style="stroke:#000;stroke-miterlimit:10;stroke-width:3px"/><path d="M5309.01365,905.47174H5197.98387a3.652,3.652,0,0,0-3.65229,3.6523v52.593a3.65293,3.65293,0,0,0,3.65229,3.6523H5213.198a3.6523,3.6523,0,1,0,0-7.30459h-11.56179V912.77633h103.72518V958.0648h-59.29273a3.6523,3.6523,0,0,0,0,7.30459h62.945a3.65293,3.65293,0,0,0,3.65229-3.6523V909.124A3.652,3.652,0,0,0,5309.01365,905.47174Z" style="stroke:#000;stroke-miterlimit:10;stroke-width:3px"/></g><g id="b2bdb29d-4f06-441c-b447-ee5bcd06fb12" data-name="Clapperboard"><path d="M111.14147,310.02784,132.44,419.59905a37.24918,37.24918,0,0,0,43.623,29.42407l262.97091-51.11637a37.23978,37.23978,0,0,0,29.42406-43.623L447.15939,244.71257Z"/><polygon points="236.648 108.166 184.501 131.766 243.402 190.257 299.996 165.278 236.648 108.166"/><polygon points="170.009 138.328 113.803 163.748 172.1 221.704 228.779 196.693 170.009 138.328"/><path d="M419.58433,104.098,397.98456,59.35523A22.48027,22.48027,0,0,0,368.6714,48.40581l-46.82174,21.2001,59.92239,59.61153,34.11188-15.06023a7.41771,7.41771,0,0,0,3.98117-4.24561A7.50334,7.50334,0,0,0,419.58433,104.098Z"/><polygon points="307.343 76.17 251.448 101.469 314.911 158.709 367.149 135.652 307.343 76.17"/><polygon points="170.562 222.686 158.544 285.653 215.857 274.512 227.875 211.545 170.562 222.686"/><polygon points="243.61 208.487 231.591 271.454 288.904 260.313 300.923 197.346 243.61 208.487"/><path d="M425.659,173.09974l-35.95374,6.9887-12.01581,62.98138,66.63367-12.95228-9.93934-51.13345A7.42572,7.42572,0,0,0,425.659,173.09974Z"/><polygon points="316.658 194.287 304.638 257.255 361.937 246.117 373.97 183.147 316.658 194.287"/><path d="M99.31412,170.32427l-11.35893,5.13389a22.31327,22.31327,0,0,0-11.21793,29.8806l23.948,50.89647,7.61634,39.18267,34.5074-6.70756,11.27658-59.06248,3.40835-1.49616Z"/></g></g><g id="bf2d4f6b-900a-4869-a217-1425ac7523a3" data-name="Ancrage"><rect x="5624" y="999" width="1" height="1" style="fill:none"/><rect x="5624" width="1" height="1" style="fill:none"/><rect y="999" width="1" height="1" style="fill:none"/><rect width="1" height="1" style="fill:none"/></g></svg>