<svg xmlns="http://www.w3.org/2000/svg" viewBox="0 0 5625 1023.30612"><defs><style>.cls-1{fill:#0e5705;}.cls-1,.cls-2{stroke:#000;stroke-miterlimit:10;stroke-width:5px;}.cls-2{fill:#fdf5e6;}.cls-3{fill:none;}</style></defs><title>logo_qui_a_dit</title><g id="icons"><g id="Banner2"><path class="cls-1" d="M4795.5,999.5s-2.56-10.94154-20.08631-28.41758Z" transform="translate(0 11.90184)"/><path class="cls-1" d="M4787.12315,529.26135c-38.21686-269.56522-1861.62634-251.21562-1986.01343-249.66371C1247.57627,288.29122,916.71953,97.8526,847.54658,26.48562l252.50942,370.369L837.73428,470.24223C876.0182,739.83232,2699.42775,721.472,2823.75606,719.92019c1540.0364-8.62607,1878.422,178.36779,1951.65789,251.16234l-250.2599-354.96339Z" transform="translate(0 11.90184)"/><path class="cls-1" d="M847.54658,26.48562,829.5,0S831.6488,10.11411,847.54658,26.48562Z" transform="translate(0 11.90184)"/></g><g id="speaker"><path class="cls-1" d="M5046.9042,292.63585a6.863,6.863,0,0,1,9.49627-3.10308,7.56179,7.56179,0,0,1,2.95481,9.97281,138.85427,138.85427,0,0,0,0,123.4127,7.5616,7.5616,0,0,1-2.95481,9.9728,6.86033,6.86033,0,0,1-9.49627-3.10308,154.21549,154.21549,0,0,1,0-137.15215Z" transform="translate(0 11.90184)"/><path class="cls-1" d="M5071.83405,306.35412a6.85987,6.85987,0,0,1,9.49627-3.10308,7.56179,7.56179,0,0,1,2.95481,9.97281,107.9864,107.9864,0,0,0-.00047,95.97616,7.56116,7.56116,0,0,1-2.95434,9.97281,6.86033,6.86033,0,0,1-9.49627-3.10309,123.34553,123.34553,0,0,1,0-109.71561Z" transform="translate(0 11.90184)"/><path class="cls-1" d="M5096.76341,320.05761a6.873,6.873,0,0,1,9.50331-3.09569,7.5728,7.5728,0,0,1,2.94777,9.9802,77.1187,77.1187,0,0,0,0,68.53962,7.5728,7.5728,0,0,1-2.94777,9.9802,6.879,6.879,0,0,1-9.50331-3.09569,92.54289,92.54289,0,0,1,0-82.30864Z" transform="translate(0 11.90184)"/><path class="cls-1" d="M5171.54542,302.09632c31.03834,0,56.29092,26.51975,56.29092,59.11561s-25.25258,59.11561-56.29092,59.11561-56.29091-26.51976-56.29091-59.11561S5140.50708,302.09632,5171.54542,302.09632Z" transform="translate(0 11.90184)"/><path class="cls-1" d="M5129.76256,420.32754a66.45365,66.45365,0,0,0,83.56573,0,74.85164,74.85164,0,0,1,28.58078,59.11561v39.29759c0,12.22412-9.46907,22.16835-21.1091,22.16835h-98.5091c-11.64,0-21.10909-9.94423-21.10909-22.16835V479.44315A74.85161,74.85161,0,0,1,5129.76256,420.32754Z" transform="translate(0 11.90184)"/><g id="loupe"><polygon class="cls-1" points="5306.2 656.824 5262.007 610.389 5319.459 550.023 5363.652 596.458 5306.2 656.824"/><path class="cls-1" d="M5298.74952,577.49049c-84.99964,89.31128-225.00013,89.31128-309.99978,0s-84.99966-236.41333,0-325.72461,225.00014-89.31129,309.99978,0S5384.99955,488.17917,5298.74952,577.49049ZM5024.99934,289.85425c-66.24965,69.61018-66.24965,181.25021,0,250.86042s172.50009,69.61016,238.74977,0,66.24963-181.25022,0-250.86041S5089.99978,220.24407,5024.99934,289.85425Z" transform="translate(0 11.90184)"/><path class="cls-1" d="M5371.24993,573.55025C5437.49957,622.14675,5487.5,660.23513,5502.5,677.30984c30,31.52179,30,82.74468,0,114.26643s-78.75006,31.52175-108.75,0c-15-15.76087-52.5-68.29761-98.75045-137.90777Z" transform="translate(0 11.90184)"/><path class="cls-1" d="M5320.00029,690.44432c-7.5-11.82068-16.25041-23.64135-23.75041-35.462l76.25046-80.11828c12.50039,9.19428,23.7504,17.07471,33.75,24.95515Z" transform="translate(0 11.90184)"/><path class="cls-1" d="M5308.75031,668.11557l76.25042-80.11825a21.36679,21.36679,0,0,0,0-28.89538,18.9499,18.9499,0,0,0-27.50042,0l-76.25042,80.11948a21.3668,21.3668,0,0,0,0,28.89539C5288.74989,677.30984,5301.25027,677.30984,5308.75031,668.11557Z" transform="translate(0 11.90184)"/></g></g><g id="speaker_-_copie" data-name="speaker - copie"><path class="cls-1" d="M578.0958,292.63585a6.863,6.863,0,0,0-9.49627-3.10308,7.56179,7.56179,0,0,0-2.95481,9.97281,138.85427,138.85427,0,0,1,0,123.4127,7.5616,7.5616,0,0,0,2.95481,9.9728,6.86033,6.86033,0,0,0,9.49627-3.10308,154.21549,154.21549,0,0,0,0-137.15215Z" transform="translate(0 11.90184)"/><path class="cls-1" d="M553.16595,306.35412a6.85987,6.85987,0,0,0-9.49627-3.10308,7.56179,7.56179,0,0,0-2.95481,9.97281A107.9864,107.9864,0,0,1,540.71534,409.2a7.56116,7.56116,0,0,0,2.95434,9.97281,6.86033,6.86033,0,0,0,9.49627-3.10309,123.34553,123.34553,0,0,0,0-109.71561Z" transform="translate(0 11.90184)"/><path class="cls-1" d="M528.23659,320.05761a6.873,6.873,0,0,0-9.50331-3.09569,7.5728,7.5728,0,0,0-2.94777,9.9802,77.1187,77.1187,0,0,1,0,68.53962,7.5728,7.5728,0,0,0,2.94777,9.9802,6.879,6.879,0,0,0,9.50331-3.09569,92.54289,92.54289,0,0,0,0-82.30864Z" transform="translate(0 11.90184)"/><path class="cls-1" d="M453.45458,302.09632c-31.03834,0-56.29092,26.51975-56.29092,59.11561s25.25258,59.11561,56.29092,59.11561,56.29091-26.51976,56.29091-59.11561S484.49292,302.09632,453.45458,302.09632Z" transform="translate(0 11.90184)"/><path class="cls-1" d="M495.23744,420.32754a66.45365,66.45365,0,0,1-83.56573,0,74.85164,74.85164,0,0,0-28.58078,59.11561v39.29759c0,12.22412,9.46907,22.16835,21.1091,22.16835h98.5091c11.64,0,21.10909-9.94423,21.10909-22.16835V479.44315A74.85161,74.85161,0,0,0,495.23744,420.32754Z" transform="translate(0 11.90184)"/><g id="loupe-2" data-name="loupe"><polygon class="cls-1" points="318.8 656.824 362.993 610.389 305.541 550.023 261.348 596.458 318.8 656.824"/><path class="cls-1" d="M326.25048,251.76588c84.99964-89.31129,225.00012-89.31128,309.99978,0s84.99965,236.41333,0,325.72461-225.00014,89.31128-309.99978,0C240.00045,488.17917,241.25083,341.07717,326.25048,251.76588Zm35.00041,38.08838c-66.24963,69.61019-66.24967,181.25024,0,250.86041s172.50012,69.6102,238.74977,0,66.24965-181.25024,0-250.86042C535.00022,220.24407,427.50053,220.24408,361.25089,289.85426Z" transform="translate(0 11.90184)"/><path class="cls-1" d="M253.75007,573.55025C187.50043,622.14675,137.5,660.23513,122.5,677.30984c-30,31.52179-30,82.74468,0,114.26643s78.75006,31.52175,108.75005,0c15-15.76087,52.5-68.29761,98.75045-137.90777Z" transform="translate(0 11.90184)"/><path class="cls-1" d="M304.99971,690.44432c7.5-11.82068,16.25041-23.64135,23.75041-35.462l-76.25046-80.11828c-12.50039,9.19428-23.7504,17.07471-33.75,24.95515Z" transform="translate(0 11.90184)"/><path class="cls-1" d="M316.24969,668.11557l-76.25042-80.11825a21.36679,21.36679,0,0,1,0-28.89538,18.9499,18.9499,0,0,1,27.50042,0l76.25042,80.11948a21.3668,21.3668,0,0,1,0,28.89539C336.25011,677.30984,323.74973,677.30984,316.24969,668.11557Z" transform="translate(0 11.90184)"/></g></g></g><g id="Texte"><path class="cls-2" d="M1690.24681,666.34879a32.97445,32.97445,0,0,1-22.54681-16.252c-1.13842-2.037,2.35807,3.74435-.095-.837q-9.02417-16.459-14.71826-29.01465-27.53979,22.31689-64.56885,21.02051-65.05079-2.272-110.14648-75.09668-39.41382-64.0752-39.40625-133.42579,0-66.01756,37.50683-118.86523,41.77222-59.33788,104.92481-57.13574,63.137,2.20458,97.80273,75.14062,27.06226,56.99854,27.062,128.24414a372.49645,372.49645,0,0,1-5.22265,63.46778,230.43723,230.43723,0,0,1-15.956,53.98954,2.92329,2.92329,0,0,0,.25855,2.827C1717.58506,627.971,1724.61409,641.1792,1763.5,680.5ZM1585.94434,602.708q20.6099.71955,36.263-11.68012a13.68154,13.68154,0,0,0,2.55679-18.67146,556.094,556.094,0,0,0-41.19384-51.43163,422.30571,422.30571,0,0,0-56.97265-52.81445l67.71126,2.36463a35.74919,35.74919,0,0,1,28.81859,16.3877l27.38567,42.57482q5.21925-22.13966,7.834-41.76367a296.89874,296.89874,0,0,0,2.61084-39.09668q0-38.47413-19.46533-88.55469-23.26758-60.18311-55.07373-61.29785-43.686-1.52637-62.19532,54.82812-11.87256,36.167-11.86914,92.21,0,50.833,14.24317,94.54785Q1546.53857,601.33446,1585.94434,602.708Z" transform="translate(0 11.90184)"/><path class="cls-2" d="M1789.61475,449.74512q0-17.10058-1.42432-38.52442-1.42457-21.4248-3.32324-37.6416l80.71142,22.29395Q1857.5,438.81934,1853.709,472.88379a636.4155,636.4155,0,0,0-3.79785,70.6416v8.54981q0,23.2793,4.273,34.82519,6.64233,18.28857,24.688,18.91211,38.45655,1.3418,53.64941-51.80176,9.01247-31.98194,9.02051-83.75976,0-38.94288-2.37353-74.65821-2.38112-35.70849-7.12207-72.92382l77.38818-12.02247q-9.0249,52.41064-13.53125,97.61524-4.51831,45.208-4.51025,93.17969,0,83.60742-28.01172,116.34668-23.74586,27.67089-69.31641,26.0791-42.72949-1.49268-74.53955-23.02735-36.564-24.54492-36.55713-64.92675,0-17.56788,3.32324-53.084Q1789.60791,467.31983,1789.61475,449.74512Z" transform="translate(0 11.90184)"/><path class="cls-2" d="M2110.83252,405.77888,2118.90332,631l-49.85107-2.44416q0-28.01943-1.42432-84.79688-1.42457-56.76715-1.42432-85.46346,0-10.66338,1.187-25.62669,1.17919-14.953,2.61132-28.89244ZM2119,368.32675q0,13.04379-5.65981,20.10527-5.66721,7.06048-18.52244,6.63985a30.279,30.279,0,0,1-18.26526-6.63786q-7.98254-6.29619-7.97485-15.96245,0-10.62128,9.26121-20.22943,9.26122-9.59176,20.58031-9.22824a18.30427,18.30427,0,0,1,15.1782,7.9847A29.37144,29.37144,0,0,1,2119,368.32675Z" transform="translate(0 11.90184)"/><path class="cls-2" d="M2445.74512,475.9834a68.43,68.43,0,0,1,15.90478,2.45508,97.22234,97.22234,0,0,1,15.43018,5.76367v-21.375a199.39769,199.39769,0,0,0-7.12158-53.44824q-5.23023-14.43311-11.86914-22.502-6.65479-8.06982-15.19288-8.36816-4.75122-.167-18.51611,13.12793a157.01562,157.01562,0,0,0-11.63183,13.60644,107.74641,107.74641,0,0,0-8.78321,13.23145l-52.70019-2.31543q13.76513-35.14454,40.356-56.06641,27.52954-20.88133,52.2251-20.02636a85.969,85.969,0,0,1,51.27539,18.89062q24.21313,17.94581,28.48633,48.01953V406.502q5.2185,25.36524,6.647,58.18262,1.42383,15.25635,2.13623,37.83691.71191,22.59083.71192,50.61231V599.209l-.47461,38.458-61.72022,3.54492v-5.70019a65.10464,65.10464,0,0,1-33.23437,7.38965q-29.91065-1.04444-49.85059-30.24121v.47558a93.23308,93.23308,0,0,1-16.61767-53.78027,118.36414,118.36414,0,0,1,4.51074-34.043,86.96692,86.96692,0,0,1,12.10693-25.70215,63.68289,63.68289,0,0,1,24.4502-18.14648Q2426.75048,475.32325,2445.74512,475.9834Zm1.89892,40.916q-12.81812-.44823-18.99072,10.499-6.17578,10.95117-6.17236,26.14746a67.39035,67.39035,0,0,0,6.647,30.15723q5.69751,14.92676,15.668,15.27148a39.06514,39.06514,0,0,0,10.44433-1.05957q5.21925-1.24365,13.76856-7.12012.468-17.55029.94971-32.02929.46728-14.46681.9497-32.0293a53.46545,53.46545,0,0,0-11.39453-7.28516A31.75293,31.75293,0,0,0,2447.644,516.89941Z" transform="translate(0 11.90184)"/><path class="cls-2" d="M2908.168,654.58105q-12.35157,9.54346-18.042,12.66993a39.69986,39.69986,0,0,1-20.88965,5.44629q-52.23341-1.8252-74.06445-21.11231-24.21313-21.2622-24.21338-73.04492,0-46.5454,21.36474-72.40332,23.2566-28.63476,68.8418-27.04688,17.55908.61377,30.86035,6.30274,18.03809,7.75488,20.415,22.56347l1.42383-57.90039a451.95279,451.95279,0,0,0-4.03516-61.8916q-4.03857-29.10791-12.581-65.03906l78.33691,4.63574q-5.2295,57.29591-8.30762,103.02246-3.09521,45.73681-3.08593,93.2295,0,23.75684,1.42382,55.625,3.315,74.69384,3.32325,93.69043l-63.14551-.30469Zm-7.59668-112.36523a42.73947,42.73947,0,0,0-15.668-12.42187,51.98927,51.98927,0,0,0-19.94043-4.4961,60.216,60.216,0,0,0-18.51562,2.20313q-9.02492,2.53564-14.95508,22.99023-5.94288,20.45508-5.93555,34.70508,0,15.208,14.71875,30.43945,14.71,15.24171,29.91016,15.76953a66.73483,66.73483,0,0,0,14.95508-1.14062,93.45086,93.45086,0,0,0,15.43066-4.44824Z" transform="translate(0 11.90184)"/><path class="cls-2" d="M3088.57617,436.87968,3096.64746,673l-49.85156-2.56387q0-29.37519-1.42383-88.89993-1.42528-59.5118-1.4248-89.59878,0-11.17935,1.18652-26.86669,1.18067-15.67656,2.61133-30.29046ZM3091,396.76047q0,14.29671-5.27571,22.03539-5.28262,7.7403-17.26543,7.27763a25.797,25.797,0,0,1-17.02472-7.27546A22.81481,22.81481,0,0,1,3044,401.30232q0-11.63985,8.63271-22.17147,8.63124-10.51311,19.18315-10.11575,9.10475.35109,14.14814,8.75276A36.24549,36.24549,0,0,1,3091,396.76047Z" transform="translate(0 11.90184)"/><path class="cls-2" d="M3162.6377,364.69336l38.457,1.34277-1.89942-58.0166,48.42578,1.69141-3.79687,57.81738,66.46777,2.32129V423.999l-70.2666-5.77832,4.27344,146.92383q.94482,18.09082,2.373,35.708,2.3701,15.29,7.59667,15.46484,9.96974.34863,16.14258-32.68554,4.74024-36.88477,5.69727-43.502l56.02344,19.53223q-13.29786,50.83593-36.55762,74.72266-19.47363,19.749-44.62891,18.86621-19.47216-.6797-33.23437-9.23535-16.62451-10.07667-16.61621-28.6045V414.01074l-40.83106-.001Z" transform="translate(0 11.90184)"/><path class="cls-2" d="M3468.15625,658.335q0,17.57813-18.51562,16.92774-13.7754-.48048-21.12793-6.67579-7.36671-6.19043-7.3584-19.96875a38.6384,38.6384,0,0,1,3.55957-17.21289q3.5625-7.23486,12.583-6.92382Q3468.15235,625.55958,3468.15625,658.335Z" transform="translate(0 11.90184)"/><path class="cls-2" d="M3575.92383,662.09766q0,17.57813-18.5166,16.92871-13.7754-.48194-21.127-6.67578-7.3667-6.19044-7.35937-19.96875a38.64268,38.64268,0,0,1,3.56055-17.21387q3.5625-7.2334,12.582-6.92285Q3575.91895,629.32178,3575.92383,662.09766Z" transform="translate(0 11.90184)"/><path class="cls-2" d="M3683.69141,665.86133q0,17.57813-18.51661,16.92773-13.77538-.48046-21.12792-6.6748-7.36671-6.19044-7.3584-19.96973a38.628,38.628,0,0,1,3.56054-17.21289q3.561-7.23486,12.582-6.92383Q3683.68653,633.08593,3683.69141,665.86133Z" transform="translate(0 11.90184)"/><path class="cls-2" d="M3973.5293,641.43555q4.74022-17.88135,7.5957-34.88477A211.71168,211.71168,0,0,0,3983.97363,571.5q0-13.771-4.748-33.89062-10.44727-44.061-10.44434-56.415l121.542,4.24414q0-50.3423-9.9707-80.14746-16.1455-47.58985-57.44727-49.03125-35.14012-1.22754-47.47656,31.11718-7.60107,20.16211-7.59766,63.38379l-53.17382-6.60644q0-46.54687,28.72461-78.084,28.71972-31.52783,75.72461-29.89355,65.98681,2.30419,102.55078,58.68164,31.80323,49.09276,31.80957,118.91015,0,21.854-6.17188,33.98536-8.54443,16.333-28.01074,15.64648a254.47623,254.47623,0,0,1-35.13281-4.07715q-4.752-.63281-59.34668-12.99707,0,9.97413-1.42383,29.875-1.4253,19.8999-1.42481,30.34961a74.14962,74.14962,0,0,0,9.96973,37.39844Zm.94922,57.98242a84.12789,84.12789,0,0,1,11.86914-7.18555q7.58935-3.53027,13.76855-3.31933,8.5459.29881,11.63184,5.63183,3.08349,5.33936,3.08593,14.35742a27.18437,27.18437,0,0,1-6.17187,17.59668,18.86323,18.86323,0,0,1-16.14258,7.27442q-10.92773-.38234-14.48047-10.71875A72.38892,72.38892,0,0,1,3974.47852,699.418Z" transform="translate(0 11.90184)"/></g><g id="Ancrage"><rect class="cls-3" x="5624" y="1010.90184" width="1" height="1"/><rect class="cls-3" x="5624" y="11.90184" width="1" height="1"/><rect class="cls-3" y="1010.90184" width="1" height="1"/><rect class="cls-3" y="11.90184" width="1" height="1"/></g></svg>