<svg xmlns="http://www.w3.org/2000/svg" viewBox="0 0 5625 1000"><title>logo_wonderland</title><g id="f367c05e-bac7-412a-a7a8-e7b13ac7536b" data-name="Texte"><path d="M963.80371,784.05566,856.81348,159.2998h42.04687l87.00733,508.13477L1072.875,159.2998h34.13721l87.00732,508.13477,87.00781-508.13477h42.04688L1216.084,784.05566h-44.12841l-82.01172-478.97949-82.01221,478.97949Z" style="stroke:#000;stroke-miterlimit:10;stroke-width:30px"/><path d="M1697.1416,659.10449q0,51.6504-36.63476,88.29883-36.63868,36.65625-88.25684,36.65234-51.624,0-88.25586-36.65234-36.63867-36.646-36.63476-88.29883V284.251q0-51.64014,36.63476-88.29883,36.62769-36.646,88.25586-36.65235,51.61524,0,88.25684,36.65235,36.62841,36.65625,36.63476,88.29883Zm-208.15234,0q0,34.57617,24.35449,58.93555,24.353,24.36474,58.90625,24.36523,34.5498,0,58.90723-24.36523,24.35448-24.36621,24.35351-58.93555V284.251q0-34.56593-24.35351-58.93555-24.353-24.36474-58.90723-24.36523-34.55859,0-58.90625,24.36523-24.3545,24.36621-24.35449,58.93555Z" style="stroke:#000;stroke-miterlimit:10;stroke-width:30px"/><path d="M1867.22021,285.501V784.05566h-41.63037V159.2998h43.71192L2033.7417,657.85449V159.2998h41.63037V784.05566h-43.71191Z" style="stroke:#000;stroke-miterlimit:10;stroke-width:30px"/><path d="M2453.60254,659.10449q0,51.6504-36.63477,88.29883-36.63794,36.65625-88.25634,36.65234H2203.82031V159.2998h124.89112q51.61523,0,88.25634,36.65235,36.62842,36.65625,36.63477,88.29883Zm-124.89111,83.30078q34.5498,0,58.90722-24.36523,24.35376-24.36621,24.35352-58.93555V284.251q0-34.56593-24.35352-58.93555-24.35376-24.36474-58.90722-24.36523h-83.26075V742.40527Z" style="stroke:#000;stroke-miterlimit:10;stroke-width:30px"/><path d="M2790.20264,159.2998v41.6504H2623.68115V450.85254h124.89112v41.65039H2623.68115V742.40527h166.52149v41.65039H2582.05078V159.2998Z" style="stroke:#000;stroke-miterlimit:10;stroke-width:30px"/><path d="M3043.542,159.2998q51.61524,0,88.25684,36.65235,36.627,36.65625,36.63476,88.29883v83.30078q0,51.65038-36.63476,88.29883-32.0625,32.07714-76.1836,36.23632l112.81836,291.96875h-44.54492L3011.48633,492.50293h-51.20508V784.05566h-41.63086V159.2998Zm0,41.6504h-83.26074V450.85254H3043.542q34.54981,0,58.90723-24.36524,24.3545-24.36621,24.35351-58.93554V284.251q0-34.56593-24.35351-58.93555Q3078.09473,200.95069,3043.542,200.9502Z" style="stroke:#000;stroke-miterlimit:10;stroke-width:30px"/><path d="M3338.51172,742.40527H3505.0332v41.65039H3296.88086V159.2998h41.63086Z" style="stroke:#000;stroke-miterlimit:10;stroke-width:30px"/><path d="M3816.65527,617.4541H3700.08984l-28.72461,166.60156h-42.04687L3736.30859,159.2998h44.12793l106.99024,624.75586h-42.0459ZM3707.168,575.80371h102.41016L3758.37305,275.9209Z" style="stroke:#000;stroke-miterlimit:10;stroke-width:30px"/><path d="M4053.3418,285.501V784.05566h-41.62989V159.2998h43.71192l164.43945,498.55469V159.2998h41.63086V784.05566h-43.71191Z" style="stroke:#000;stroke-miterlimit:10;stroke-width:30px"/><path d="M4639.72461,659.10449q0,51.6504-36.63477,88.29883-36.63867,36.65625-88.25586,36.65234h-124.8916V159.2998H4514.834q51.61524,0,88.25586,36.65235,36.62842,36.65625,36.63477,88.29883ZM4514.834,742.40527q34.54981,0,58.90625-24.36523,24.35449-24.36621,24.35352-58.93555V284.251q0-34.56593-24.35352-58.93555-24.353-24.36474-58.90625-24.36523h-83.26171V742.40527Z" style="stroke:#000;stroke-miterlimit:10;stroke-width:30px"/></g><g id="bdfbf88f-4837-4ae4-9876-891331455f31" data-name="soulignage"><line x1="791.5" y1="930" x2="4833.5" y2="930" style="fill:none;stroke:#000;stroke-miterlimit:10;stroke-width:30px"/></g><g id="aff605cf-40df-4f84-ae8a-53942906e4e2" data-name="icons"><g id="a657d93f-0aa2-4d55-8ca5-31fa8e7ca1ce" data-name="Balloon"><path d="M5253.29815,794.31907a5.79735,5.79735,0,0,1-3.07007-.8652,4.3813,4.3813,0,0,1-1.26821-6.5704l81.991-102.58559a5.77549,5.77549,0,0,1,7.42227-1.12447c2.39785,1.50343,4.3167,1.72279,2.61877,3.84748L5257.65031,792.3294A5.562,5.562,0,0,1,5253.29815,794.31907Z" style="fill:#304551"/><path d="M5191.38387,794.32062a6.04005,6.04005,0,0,1-1.44839-.178c-2.82753-.70715-4.47-3.31047-3.673-5.81559l32.68969-102.58559a5.43375,5.43375,0,0,1,6.56983-3.25683c2.82748.70722,5.4513.33586,4.65432,2.841l-33.671,105.56027A5.26841,5.26841,0,0,1,5191.38387,794.32062Z" style="fill:#304551"/><path d="M5101.10863,794.31907a5.79712,5.79712,0,0,0,3.07007-.8652,4.38127,4.38127,0,0,0,1.26821-6.5704l-81.991-102.58559a5.77545,5.77545,0,0,0-7.42223-1.12447c-2.39785,1.50343-4.95178,1.72279-3.25389,3.84748l83.97666,105.30851A5.5621,5.5621,0,0,0,5101.10863,794.31907Z" style="fill:#304551"/><path d="M5163.02291,794.32062a6.03981,6.03981,0,0,0,1.44839-.178c2.82752-.70715,4.47-3.31047,3.673-5.81559l-32.68969-102.58559a5.43371,5.43371,0,0,0-6.56979-3.25683c-2.82752.70722-5.267.80535-4.47,3.31047l33.48667,105.09078A5.26836,5.26836,0,0,0,5163.02291,794.32062Z" style="fill:#304551"/><path d="M5075.44481,792.85253V898.4111c0,17.59264,16.39291,31.85629,36.61387,31.85629H5241.713c20.22185,0,36.61391-14.26365,36.61391-31.85629V792.85253Z" style="fill:#d59247"/><path d="M5340.99189,687.02089C5428.11577,607.41344,5507,482.18639,5507,376.71647c0-169.54322-147.7973-306.98386-330.11373-306.98386-182.31816,0-330.11461,137.44064-330.11461,306.98386,0,105.46992,78.88338,230.697,166.00815,310.30442Z" style="fill:#de594e"/><path d="M5291.052,687.02089c53.54171-79.60745,88.70452-204.8345,88.70452-310.30442,0-169.54322-90.82835-306.98386-202.87038-306.98386-112.04308,0-202.87093,137.44064-202.87093,306.98386,0,105.46992,35.16227,230.697,88.70457,310.30442Z" style="fill:#ededed"/><path d="M5227.79967,687.02089c23.87764-79.60745,39.55893-204.8345,39.55893-310.30442,0-169.54322-40.50606-306.98386-90.47262-306.98386-49.967,0-90.47289,137.44064-90.47289,306.98386,0,105.46992,15.68108,230.697,39.55894,310.30442Z" style="fill:#de594e"/><path d="M5285.12722,772.414H5068.64443c-10.91312,0-19.761,7.69871-19.761,17.19243s8.84784,17.19237,19.761,17.19237h216.48279c10.91312,0,19.761-7.69864,19.761-17.19237S5296.04034,772.414,5285.12722,772.414Z" style="fill:#e7a14e"/></g><g id="ee26d81e-899f-437e-add7-95cd2bf97ec5" data-name="compass"><circle cx="418.5" cy="500.00003" r="331.49511" style="fill:#fab659"/><path d="M127.02442,500c0-176.35941,137.72588-320.5271,311.48535-330.87614-6.62189-.39486-13.28916-.619-20.00977-.619C235.42,168.50492,87.00489,316.92,87.00489,500S235.42,831.49514,418.5,831.49514c6.72061,0,13.38788-.22276,20.00977-.61765C264.7503,820.52844,127.02442,676.35941,127.02442,500Z" style="fill:#ec8d00"/><circle cx="418.5" cy="500.00003" r="234.4024" style="fill:#e2e2e2"/><path d="M224.11713,500c0-122.71456,94.30469-223.389,214.39264-233.54332-6.59791-.55761-13.26783-.85909-20.00977-.85909-129.45651,0-234.4024,104.94587-234.4024,234.40241S289.04347,734.40243,418.5,734.40243c6.74194,0,13.41186-.3015,20.00977-.85911C318.42182,723.389,224.11713,622.71592,224.11713,500Z" style="fill:#c1bfc5"/><path d="M343.04051,424.54187,418.5,500H98.34375Z" style="fill:#78cbec"/><path d="M418.5,179.84378V500l-75.45949-75.45818Z" style="fill:#00acdc"/><path d="M418.5,500V820.15627L343.04051,575.45954Z" style="fill:#78cbec"/><path d="M418.5,500l-75.45949,75.45951L98.34375,500Z" style="fill:#00acdc"/><path d="M738.65625,500,493.95952,575.45954,418.5,500Z" style="fill:#78cbec"/><path d="M418.5,500l75.45952,75.45951L418.5,820.15627Z" style="fill:#00acdc"/><path d="M418.5,179.84378l75.45952,244.69809L418.5,500Z" style="fill:#78cbec"/><path d="M738.65625,500H418.5l75.45952-75.45818Z" style="fill:#00acdc"/><path d="M418.5,402.41908V500L211.49232,292.99234Z" style="fill:#f9496e"/><path d="M625.50769,292.99233,418.5,500V402.41908Z" style="fill:#ff748f"/><path d="M418.5,500,211.49232,707.00771,320.91905,500Z" style="fill:#f9496e"/><path d="M418.5,500H320.91905L211.49232,292.99234Z" style="fill:#ff748f"/><path d="M625.50769,707.00771,418.5,597.581V500Z" style="fill:#f9496e"/><path d="M418.5,500V597.581L211.49232,707.00771Z" style="fill:#ff748f"/><path d="M625.50769,292.99233,516.081,500H418.5Z" style="fill:#f9496e"/><path d="M625.50769,707.00771,418.5,500h97.581Z" style="fill:#ff748f"/><path d="M418.5,841.5a340.02279,340.02279,0,0,0,122.952-22.82848,10.00481,10.00481,0,1,0-7.2075-18.66646,319.63587,319.63587,0,0,1-105.63289,21.31041l24.47459-79.36674A242.7042,242.7042,0,0,0,572.099,690.0928s48.70912,25.74722,48.7171,25.75256a10.00667,10.00667,0,0,0,13.5346-13.51327l-25.7579-48.73179a242.71237,242.71237,0,0,0,51.8573-119.01276l79.37606-24.47727a321.06328,321.06328,0,0,1-170.758,273.991,10.00462,10.00462,0,1,0,9.38593,17.67127A341.56176,341.56176,0,0,0,289.92655,183.56021a10.005,10.005,0,0,0,7.53835,18.53571A319.29671,319.29671,0,0,1,408.387,178.6845l-24.47461,79.36673a242.70921,242.70921,0,0,0-119.01275,51.856l-48.73178-25.76057a10.24391,10.24391,0,0,0-12.06855,2.11037,10.13971,10.13971,0,0,0-1.45271,11.4109l25.76058,48.73177a242.6866,242.6866,0,0,0-51.856,119.01276l-79.3774,24.47862A321.522,321.522,0,0,1,265.2732,217.302a10.00407,10.00407,0,1,0-9.55-17.58191A341.53649,341.53649,0,0,0,418.5,841.5ZM97.1832,510.11165l79.36807,24.47593a242.69859,242.69859,0,0,0,51.856,119.01276l-25.76057,48.73179a10.00825,10.00825,0,0,0,13.53195,13.51461l48.72111-25.7539a242.71077,242.71077,0,0,0,119.01275,51.856l24.47462,79.36808A321.43345,321.43345,0,0,1,97.18323,510.11173ZM459.66544,279.38438A222.624,222.624,0,0,1,552.71085,320.155l-69.19377,36.57653ZM408.49512,753.76254,371.4864,633.75064l37.00872-19.56289ZM275.23274,565.01841l-36.57652,69.19511a222.61018,222.61018,0,0,1-40.77056-93.04676Zm296.25257-232.152L428.50489,475.84688V408.44733ZM510.05266,489.99512H442.65445L585.63223,347.01734Zm-101.55756,34.158v67.39955L265.51466,667.13355Zm-14.14824-34.158H326.94863L251.36774,347.01468Zm-67.39955,20.00979h67.39955L251.36641,652.98533ZM353.4816,643.26729l23.853,77.34708a222.64449,222.64449,0,0,1-93.04676-40.77055Zm75.02329-29.08084,37.00874,19.56289-37.00874,120.0119Zm0-22.63373V524.15317L571.48531,667.13359Zm157.12734,61.43L442.65311,510.00491h67.39821Zm-33.383-199.99627,120.0119,37.00872H532.68639Zm9.518-18.00478,36.57652-69.19511a222.62212,222.62212,0,0,1,40.7719,93.04676Zm-96.25364-68.73087-37.00874,19.56287V246.23886Zm-57.01849,19.56287-37.00872-19.56287,37.00872-120.0119Zm0,22.63371v67.39957L265.516,332.86648ZM284.75075,547.01365l-120.0119-37.00874H304.31362ZM459.66544,720.61571l23.85164-77.34842,69.19511,36.57653A222.61268,222.61268,0,0,1,459.66544,720.61571Zm138.67835-86.4035-36.57652-69.1951,77.34842-23.85165A222.62219,222.62219,0,0,1,598.34379,634.21221Zm-46.09451-87.19856-19.56289-37.00874H672.26118Zm187.56753-57.12521-79.36674-24.47461a242.69561,242.69561,0,0,0-51.8573-119.01275s25.7579-48.72645,25.76058-48.73178a10.00765,10.00765,0,0,0-13.51994-13.51994l-48.73314,25.7579A242.71268,242.71268,0,0,0,453.08752,258.05l-24.47593-79.36673a321.43848,321.43848,0,0,1,311.20522,311.2052ZM377.33457,279.38438,353.48292,356.7328l-69.19511-36.57652A222.61276,222.61276,0,0,1,377.33457,279.38438Zm-138.67835,86.4035,36.57652,69.1951-77.34842,23.85165A222.60526,222.60526,0,0,1,238.65622,365.78788Zm46.09451,87.19856,19.56421,37.00872H164.73883Z"/></g></g><g id="a9b3df80-096a-4bf0-985a-c0cc50cf3bb8" data-name="Ancrage"><rect x="5624" y="999" width="1" height="1" style="fill:none"/><rect x="5624" width="1" height="1" style="fill:none"/><rect y="999" width="1" height="1" style="fill:none"/><rect width="1" height="1" style="fill:none"/></g></svg>