<svg xmlns="http://www.w3.org/2000/svg" viewBox="0 0 5625 1000"><title>logo_a_table</title><g id="e950118f-3650-419a-b89a-95af91be5682" data-name="Texte"><path d="M1445.52637,927.751l-35.13282-132.04981H1187.251L1154.0166,927.751h-73.11474l176.61523-665.9502h85.459l182.312,665.9502Zm-292.459-839.79981,26.58692-38L1396.15039,196.251l-18.99023,24.70019Zm145.28028,276.44922L1203.39307,733.001H1394.251Z" style="fill:#249cd3"/><path d="M2004.79492,927.751V337.80078H1857.61621v-76H2227.9375v76H2078.85938V927.751Z" style="fill:#e2017a"/><path d="M2629.59473,927.751l-35.13282-132.04981H2371.31934L2338.085,927.751H2264.9707l176.61524-665.9502h85.459L2709.35645,927.751ZM2482.416,364.40039,2387.46191,733.001h190.85743Z" style="fill:#e2017a"/><path d="M2828.0498,927.751V261.80078h244.98243q138.62549,0,138.63379,124.4502v85.5q0,49.4077-18.51661,76.95019-18.51562,27.564-51.75,33.25,34.1836,5.69971,56.97266,36.09961,22.78857,30.41455,22.78906,81.7002v72.20019q0,155.814-150.02832,155.79981Zm314.29883-517.75q0-72.186-69.3164-72.2002h-170.918v213.75H3072.083q36.0747,0,53.17383-19.95019,17.0918-19.94971,17.09179-53.2002Zm4.74805,289.75q0-37.0503-20.88965-60.79981-20.89746-23.73633-60.77148-23.75H2902.11426V851.751h164.27148q80.69532,0,80.71094-82.65039Z" style="fill:#e2017a"/><path d="M3365.48828,927.751V261.80078h73.11524V851.751h223.14257v76Z" style="fill:#e2017a"/><path d="M3786.13281,927.751V261.80078H4156.4541v76H3860.19727V554.40039H4036.8125v70.30078H3860.19727V851.751H4156.4541v76Z" style="fill:#e2017a"/><g id="a21bfeb5-855a-4413-80bb-60291e31b843" data-name="spoon"><path d="M4473.1624,110.95363a23.53166,23.53166,0,0,0-23.62148,23.62147c.07371.20735.02074.288.08641.48953,0,0-.0668,173.5667.00114,189.7471,13.61629,79.40906-3.05131,108.93851-3.05131,108.93851l-.08064,17.18366,13.6762-.02649.06793,256.19641c-41.7013,8.64482-73.65429,59.44246-73.6013,121.00553-.0668,67.70488,38.69146,122.57556,86.32951,122.556s86.30187-54.93172,86.32145-122.564c.14168-62.078-32.52664-113.2684-74.69213-121.34534l-.06681-255.875,13.69118-.01383.01383-17.11685s-19.40564-42.79789-1.35113-108.4985c-.0795-13.91809-.08639-190.23548-.08639-190.23548.07948-.07947.00577-.31447.07256-.38126A23.77839,23.77839,0,0,0,4473.1624,110.95363Zm-4.05462,620.79569a26.50939,26.50939,0,0,0-3.96936,2.97644,53.52653,53.52653,0,0,0-4.95883,4.82518c-1.49167,1.54468-3.125,3.25868-4.83786,4.89087-7.74866,8.44439-18.30212,20.04147-25.468,33.0703a48.04508,48.04508,0,0,0-3.79543,10.21827,110.08306,110.08306,0,0,0-2.47654,11.36208,161.84865,161.84865,0,0,0-2.55716,21.53314c-.33405,6.59793-.58861,11.93918-.0668,15.77838.20158,3.86914.79133,7.69566.76368,7.7233a2.38958,2.38958,0,0,1-1.8073,2.71726,2.36313,2.36313,0,0,1-2.86239-1.55155s-1.09082-3.13886-2.67-7.87652a83.05963,83.05963,0,0,1-3.82769-17.77459,148.97507,148.97507,0,0,1-.6151-24.35753,112.64131,112.64131,0,0,1,1.866-13.4562,66.1863,66.1863,0,0,1,4.51763-13.35023c6.73156-12.56694,17.10994-23.37383,31.67194-33.00809a59.803,59.803,0,0,1,12.64643-6.51845l.842-.36053a18.39168,18.39168,0,0,1,6.35145-1.373.87456.87456,0,0,0,.1935-.00692,2.4277,2.4277,0,0,1,2.24847,1.873A2.366,2.366,0,0,1,4469.10778,731.74932Zm18.468-594.09639c-.05991,7.19232-5.99551,32.25363-13.33642,32.16726-7.35357-.07372-13.26959-24.96572-13.189-32.16725a13.13347,13.13347,0,0,1,13.26269-13.26269A13.35314,13.35314,0,0,1,4487.57579,137.65293Z" style="fill:#e2017a"/></g></g><g id="a4af1f4a-bbaa-4d9c-abee-84295886c610" data-name="icons"><g id="ef467477-c9d3-4d76-9986-26a9f75404ad" data-name="logo1"><g id="e0276843-11a7-412c-8f71-30260afc2342" data-name="hand"><g id="f6ae938c-4630-46b8-95e9-2fa70599fe53" data-name="manche"><path d="M4982.37768,661.10664H4879.34942L4934.5815,860h109.10808l-16.2731-53.71176Zm-9.2621,189.137a25.20521,25.20521,0,1,1,25.20671-25.20374v.003A25.23386,25.23386,0,0,1,4973.11558,850.24367Z" style="fill:#e2017a;stroke:#2f3a5a;stroke-miterlimit:10;stroke-width:7px"/><path d="M4973.11558,814.90093a10.13753,10.13753,0,1,0,10.139,10.13753A10.13753,10.13753,0,0,0,4973.11558,814.90093Z" style="fill:#e2017a;stroke:#2f3a5a;stroke-miterlimit:10;stroke-width:7px"/></g><g id="a939d9e1-6b07-42b4-8495-e8d8c9d38f93" data-name="main"><path d="M5355.461,666.14678l73.238-39.51049c-8.66088-9.00143-22.22483-12.56644-32.24483-7.53384l-56.51888,30.45328a62.01063,62.01063,0,0,1,10.56545,19.21281Z" style="fill:#d9e2e9;stroke:#2f3a5a;stroke-miterlimit:10;stroke-width:7px"/><path d="M5322.42808,616.96737c-.05877.03467-.11754.06782-.17782.09946l-19.20826,10.4389a61.8018,61.8018,0,0,1,25.45232,11.08528l37.65867-20.27657C5352.74576,610.11159,5335.68918,609.28289,5322.42808,616.96737Z" style="fill:#d9e2e9;stroke:#2f3a5a;stroke-miterlimit:10;stroke-width:7px"/><path d="M5453.22154,630.52676,5362.5518,679.441l-8.98033,4.73578c.10245,1.44349.17179,2.89448.17179,4.36961a7.53386,7.53386,0,0,1-7.53384,7.53384h-.34055l-62.59414-2.83273a302.61167,302.61167,0,0,0-55.00907,2.54042,7.53384,7.53384,0,0,1-2.06578-14.917,317.85064,317.85064,0,0,1,57.75439-2.66848l54.05378,2.4485a47.09553,47.09553,0,0,0-46.35721-39.13229h-73.37959a95.31638,95.31638,0,0,1-41.25982-9.45647l-7.56849-3.66144A114.11806,114.11806,0,0,0,5050.913,639.81752l-18.036,16.05461a79.1462,79.1462,0,0,1-31.16,17.05814l37.17949,119.61326L5090.321,760.035c.11452-.07385.23053-.14163.34807-.20794a48.35229,48.35229,0,0,1,35.27794-4.77344l110.05736,20.266a126.24191,126.24191,0,0,0,13.353,1.68606,122.86947,122.86947,0,0,0,77.94811-21.7261l170.54049-117.094A36.62353,36.62353,0,0,0,5453.22154,630.52676Z" style="fill:#d9e2e9;stroke:#2f3a5a;stroke-miterlimit:10;stroke-width:7px"/></g></g><g id="ba076373-f1d8-41bd-bd67-afa0ed9d4dce" data-name="plateau"><path d="M5224.01353,256.431c4.5203-.27273,11.04458-.42792,16.57444-.42792s10.54738.15068,16.57445.42792V232.36035a59.59423,59.59423,0,0,1-16.57445,2.52987,52.10875,52.10875,0,0,1-16.57444-2.52987Z" style="fill:#d9e2e9;stroke:#2f3a5a;stroke-miterlimit:10;stroke-width:7px"/><path d="M5239.94306,271.18976c-135.86827,0-252.88688,87.05653-281.9916,209.10473h563.98321C5492.833,358.24629,5375.83543,271.18977,5239.94306,271.18976Zm-119.54245,101.752a187.74323,187.74323,0,0,0-51.86145,51.44255,7.53385,7.53385,0,0,1-12.57684-8.2981q.03491-.05286.07066-.10514a202.70092,202.70092,0,0,1,55.993-55.56358,7.53384,7.53384,0,0,1,8.37462,12.52425Zm31.957-17.373c-2.72575,1.17829-5.44847,2.42438-8.08833,3.70362a7.53519,7.53519,0,1,1-6.574-13.56091c2.83875-1.37567,5.76188-2.71218,8.691-3.97938a7.53383,7.53383,0,1,1,6.05765,13.79636l-.08633.03727Z" style="fill:#d9e2e9;stroke:#2f3a5a;stroke-miterlimit:10;stroke-width:7px"/><path d="M5279.85434,179.91277a39.91127,39.91127,0,1,0-39.91279,39.90977h.00151A39.955,39.955,0,0,0,5279.85434,179.91277Z" style="fill:#d9e2e9;stroke:#2f3a5a;stroke-miterlimit:10;stroke-width:7px"/><path d="M4946.16552,575.27513a21.99884,21.99884,0,0,0,21.55582,18.027h543.52285a22.08617,22.08617,0,0,0,21.46993-17.54781l6.35254-30.66876H4940.59953Z" style="fill:#d9e2e9;stroke:#2f3a5a;stroke-miterlimit:10;stroke-width:7px"/><path d="M5557.6752,495.36217H4922.20789a17.32783,17.32783,0,1,0,0,34.65566h635.46428a17.32783,17.32783,0,1,0,0-34.65566Z" style="fill:#d9e2e9;stroke:#2f3a5a;stroke-miterlimit:10;stroke-width:7px"/></g></g><g id="e1dc63b2-9ca4-4225-ba70-61160bd430ab" data-name="plate"><circle cx="452.97123" cy="505.63331" r="239.91674" style="fill:#249cd3"/><path d="M452.97735,751.67712c-135.89639,0-246.06217-110.16579-246.06216-246.06221S317.081,259.55274,452.97739,259.55276,699.03955,369.71857,699.03955,505.615C698.89782,641.45263,588.815,751.53543,452.97735,751.67712Zm0-479.83959c-129.13539,0-233.82026,104.6849-233.82026,233.8203S323.842,739.47809,452.97735,739.47809s233.8203-104.6849,233.8203-233.82026C686.66269,376.5784,582.0568,271.97247,452.97735,271.83753Z" style="fill:#2f3a5a"/><circle cx="452.97123" cy="505.63331" r="208.18575" style="fill:#d9e2e9"/><path d="M452.97735,719.94c-118.35832.00336-214.30944-95.94226-214.31282-214.30058S334.60679,291.33,452.96511,291.32662,667.27456,387.26888,667.27792,505.6272v.00611C667.14637,623.9347,571.27874,719.8051,452.97735,719.94Zm0-416.36538c-111.59731-.00675-202.07029,90.45526-202.077,202.05257s90.45526,202.07026,202.05257,202.077,202.07026-90.45525,202.077-202.05256v-.01836c-.12819-111.53839-90.51419-201.92712-202.05256-202.05865Z" style="fill:#2f3a5a"/><g style="opacity:0.5"><circle cx="452.97123" cy="505.63331" r="137.66626" style="fill:#c1cdd3"/><path d="M452.97735,649.42057A143.78722,143.78722,0,1,1,596.734,505.60277v.03054A143.95249,143.95249,0,0,1,452.97735,649.42057Zm0-275.32643A131.54533,131.54533,0,1,0,584.49207,505.67007v-.03676A131.6922,131.6922,0,0,0,452.97735,374.09412Z" style="fill:#333;stroke:#000;stroke-miterlimit:10;stroke-width:3px"/></g><path d="M230.59713,307.79811l-5.30687-116.84892a10.28321,10.28321,0,0,0-10.27708-9.79353H212.5648a10.28319,10.28319,0,0,0-10.28319,10.2832h0V318.3996a12.1195,12.1195,0,0,1-12.11336,12.1256h-1.84852a12.12561,12.12561,0,0,1-12.11948-12.1256V191.97138a10.6688,10.6688,0,0,0-8.56933-10.69942,10.29546,10.29546,0,0,0-12.01542,10.14241V318.3996a12.1256,12.1256,0,1,1-24.24508.54468q-.00612-.27231,0-.54468V191.97138a10.66881,10.66881,0,0,0-8.56933-10.69942,10.2954,10.2954,0,0,0-12.01542,10.14241V318.3996a12.11949,12.11949,0,0,1-12.05216,12.1256H96.37694a12.11948,12.11948,0,0,1-12.1256-12.11336V191.41438a10.2832,10.2832,0,0,0-10.2832-10.2832h-2.124A10.28319,10.28319,0,0,0,61.5671,190.9247l-5.313,116.87341A115.741,115.741,0,0,0,74.415,375.44685l41.82445,65.31052-8.7652,338.96595A37.01336,37.01336,0,0,0,142.535,818.371a36.02178,36.02178,0,0,0,36.909-35.11215q.025-1.00254-.0058-2.00531l-8.808-340.49618,41.81832-65.31052A115.75325,115.75325,0,0,0,230.59713,307.79811Z" style="fill:#d9e2e9"/><path d="M212.43626,375.42236l-41.8,65.34727,8.77133,340.49616a35.95445,35.95445,0,0,1-34.79217,37.08033q-1.03073.03285-2.06207.00649a33.73271,33.73271,0,0,1-16.89382-4.94572,3.61771,3.61771,0,0,0,1.12013.11628,36.04627,36.04627,0,0,0,36.91575-35.1553q.02433-.9963-.00642-1.99274l-8.82641-340.49,41.85506-65.286a115.93079,115.93079,0,0,0,18.13025-67.64262l-5.29462-116.855a9.457,9.457,0,0,0-1.05892-4.06431,9.59146,9.59146,0,0,1,4.1194-.88142h2.41165a10.23425,10.23425,0,0,1,10.24035,9.79352l5.35583,116.84892A115.86957,115.86957,0,0,1,212.43626,375.42236Z" style="fill:#c1cdd3"/><path d="M143.45316,824.5042H142.382a41.01033,41.01033,0,0,1-28.90313-13.03149,44.74407,44.74407,0,0,1-12.1256-31.92078L110.06338,442.459,69.26113,378.74605a121.19482,121.19482,0,0,1-19.128-71.23561l5.30075-116.83668a16.38579,16.38579,0,0,1,16.3919-15.66352h2.124a16.42864,16.42864,0,0,1,16.41027,16.41027V318.40572a6.00463,6.00463,0,0,0,5.99853,5.99853h2.37493a6.00463,6.00463,0,0,0,5.99853-5.99853V191.41438a16.41638,16.41638,0,0,1,19.12185-16.18991,16.851,16.851,0,0,1,13.69256,16.74079V318.40572a6.0016,6.0016,0,0,0,12.00319,0h0V191.41438a16.41638,16.41638,0,0,1,19.12185-16.18991,16.851,16.851,0,0,1,13.67418,16.74691V318.40572a6.00466,6.00466,0,0,0,5.99853,5.99853h1.83628a6.00466,6.00466,0,0,0,5.99853-5.99853V191.41438a16.4225,16.4225,0,0,1,16.40415-16.41026h2.44837a16.37965,16.37965,0,0,1,16.3919,15.66351l5.30687,116.83669h0a121.22533,121.22533,0,0,1-19.128,71.24173L176.80009,442.459l8.75908,338.61705a42.13662,42.13662,0,0,1-40.8505,43.38462q-.62453.01878-1.2494.019Zm-71.609-637.25207a4.16224,4.16224,0,0,0-4.16224,3.97862L62.37506,308.06744a109.06924,109.06924,0,0,0,17.18763,64.08635L121.381,437.46434a6.121,6.121,0,0,1,.96711,3.45833l-8.75908,338.9598a32.441,32.441,0,0,0,8.77132,23.15558,28.83585,28.83585,0,0,0,20.30931,9.18142,30.19467,30.19467,0,0,0,21.95584-8.81418,29.60706,29.60706,0,0,0,8.67338-21.99259l-8.78967-340.49617a6.121,6.121,0,0,1,.96711-3.45833l41.81832-65.31055a109.112,109.112,0,0,0,17.19375-64.08635l-5.30686-116.83668a4.15613,4.15613,0,0,0-4.16225-3.9725h-2.44838a4.16837,4.16837,0,0,0-4.16225,4.16837V318.40572a18.26491,18.26491,0,0,1-18.24042,18.24043H188.332a18.26491,18.26491,0,0,1-18.24042-18.24043V191.97138a4.59072,4.59072,0,0,0-3.42161-4.658,4.28465,4.28465,0,0,0-3.44.93039,4.16836,4.16836,0,0,0-1.469,3.17677V318.40572a18.24349,18.24349,0,0,1-36.487,0V191.97138a4.59682,4.59682,0,0,0-3.42773-4.658,4.28466,4.28466,0,0,0-3.44.93039,4.16836,4.16836,0,0,0-1.469,3.17677V318.40572a18.26493,18.26493,0,0,1-18.24043,18.24043H96.37694a18.26493,18.26493,0,0,1-18.24043-18.24043V191.41438a4.17449,4.17449,0,0,0-4.16837-4.16837Z" style="fill:#2f3a5a"/><path d="M825.125,191.46334c1.56082-26.71182-86.91747-7.90214-102.75852,231.3413C711.53853,586.12993,762.70355,590.182,762.70355,590.182l-14.8188,188.58033a37.16641,37.16641,0,1,0,74.111,5.73867q.08645-1.11693.10554-2.23749Z" style="fill:#d9e2e9"/><path d="M739.47451,569.56051a7.28417,7.28417,0,0,0,1.83631.41012l-.14692,2.38716A32.30912,32.30912,0,0,1,739.47451,569.56051Z" style="fill:#d9e2e9"/><path d="M822.11957,782.23293A37.20313,37.20313,0,0,1,750.786,796.44576,37.18472,37.18472,0,0,0,800.65342,762.046l2.80952-575.98135c13.10494-7.15539,22.18232-3.26859,21.6804,5.4354Z" style="fill:#c1cdd3"/><path d="M784.97764,824.97553h-1.48125a43.28734,43.28734,0,0,1-41.819-44.70752q.03291-.98656.11081-1.97084l14.421-183.53056c-14.85556-5.9618-49.08388-34.6262-39.95144-172.34145,13.60687-205.27219,78.795-247.50062,100.8304-246.22746a14.30469,14.30469,0,0,1,14.22745,14.38147q-.00286.5315-.0452,1.06168L828.2528,782.3125A43.28735,43.28735,0,0,1,785.00828,825Zm30.83124-636.57877c-15.11875,0-74.43689,40.2636-87.33981,234.81187-10.13628,152.9013,34.43034,160.82185,34.88939,160.883l5.72308.78347-.26932,5.77818-14.8188,188.58033a31.04545,31.04545,0,0,0,61.90386,4.81589q.07314-.94047.08911-1.884l3.06047-591.05728c.08569-1.42007-.06734-2.528-2.7177-2.69322Z" style="fill:#2f3a5a"/><path d="M740.57629,384.67112h-.2632a3.51342,3.51342,0,0,1-3.11558-3.86844,492.062,492.062,0,0,1,31.14338-127.05255,3.51342,3.51342,0,1,1,6.58061,2.46413q-.02354.063-.04955.125a484.99917,484.99917,0,0,0-30.69044,125.22239A3.51342,3.51342,0,0,1,740.57629,384.67112Z" style="fill:#fff"/><path d="M781.758,234.90372a3.51346,3.51346,0,0,1-3.06048-5.03142c2.79728-5.81491,4.51726-8.89373,4.51726-8.89373a3.51343,3.51343,0,0,1,6.12095,3.42773c-.03059.05509-1.671,2.99926-4.3214,8.51424A3.5134,3.5134,0,0,1,781.758,234.90372Z" style="fill:#fff"/></g></g><g id="a96a14a5-96b3-41b4-94f5-77c330b5a28a" data-name="Ancrage"><rect x="5624" y="999" width="1" height="1" style="fill:none"/><rect x="5624" width="1" height="1" style="fill:none"/><rect y="999" width="1" height="1" style="fill:none"/><rect width="1" height="1" style="fill:none"/></g></svg>