<svg xmlns="http://www.w3.org/2000/svg" viewBox="0 0 5625 1000"><title>logo_dou_ca_vient</title><g id="a9b2801f-ac67-400e-bedb-2cc4a69e6e11" data-name="Texte"><path d="M594.73108,307.45525c-1.17855-.75092-2.5596-2.447-4.12466-5.08837q-2.36146-3.94888-4.71419-8.7633-2.36147-4.79694-4.12467-9.046-1.76781-4.2403-1.76756-5.93643a12.01857,12.01857,0,0,1,6.18725-11.02479,34.53469,34.53469,0,0,1,14.14155-4.523,106.5229,106.5229,0,0,1,15.3206-.56537c4.90745.19428,7.95482.28269,9.13337.28269s3.24113.09714,6.18724.28268q4.41918.29144,9.42787.56538,4.99971.29142,9.13336.56537c2.74361.19429,4.7142.28269,5.89274.28269q25.3285,9.05036,58.92483,21.20153,33.58707,12.16428,68.94223,27.986a687.58745,687.58745,0,0,1,69.23673,35.90126,336.85932,336.85932,0,0,1,60.3984,45.22992,224.55448,224.55448,0,0,1,43.0152,55.40666q16.4894,30.25188,16.49916,66.99682,0,31.66969-12.669,56.8201a148.8661,148.8661,0,0,1-33.29282,43.81649,196.755,196.755,0,0,1-48.0239,31.66094,360.11387,360.11387,0,0,1-56.27322,21.20153,390.57742,390.57742,0,0,1-58.0413,11.87286,434.10613,434.10613,0,0,1-53.91613,3.67493q-5.30346,0-18.85625-.56538-13.562-.57051-27.6946-1.13074-14.14179-.57052-25.63251-1.13075-11.48969-.55664-12.07948-.56538l-1.17854-27.70333Zm44.78328-3.39225v6.21912c0,3.02115.092,6.31625.29451,9.894q.28988,5.3798.2945,10.17674v6.5018q.57976,11.87286,1.76757,36.74931,1.17418,24.88519,2.6516,56.25472,1.46406,31.37826,3.24114,65.86608,1.76782,34.493,3.24062,65.86608,1.46406,31.37826,2.6516,56.5374,1.17418,25.16429,1.76808,37.032,4.11541,0,14.73108.56538,10.60694.57051,22.68641.84806,12.07022.29142,22.68589.56537,10.60615.29143,15.32061.28269a304.69437,304.69437,0,0,0,71.29932-8.48061q35.3549-8.48061,63.344-26.28989a142.25951,142.25951,0,0,0,45.3723-46.078q17.37369-28.26356,17.3832-68.41026a119.59,119.59,0,0,0-13.84756-55.972,197.56627,197.56627,0,0,0-37.123-49.47023,290.817,290.817,0,0,0-53.03209-40.98962,429.69646,429.69646,0,0,0-61.87145-31.09558,383.65358,383.65358,0,0,0-63.93353-19.78809Q666.61994,304.063,639.51436,304.063Z" style="fill:#699;stroke:#000;stroke-miterlimit:10;stroke-width:11px"/><path d="M1020.69315,162.71949q0-3.39225,6.18673-8.7633,6.18775-5.36668,9.13336-5.371,20.02581,12.44259,25.63252,32.22632a148.999,148.999,0,0,1,5.59772,40.70693q0,4.53172.295,11.0248a72.33772,72.33772,0,0,1-.58953,13.0036,28.194,28.194,0,0,1-4.41917,11.87285q-3.53565,5.3798-11.196,7.06718-6.49076-1.69613-11.785-16.11316a326.675,326.675,0,0,1-9.72237-31.661,326.12862,326.12862,0,0,1-6.77678-33.07438Q1020.68827,167.8166,1020.69315,162.71949Z" style="fill:#699;stroke:#000;stroke-miterlimit:10;stroke-width:11px"/><path d="M1122.56687,546.0431a292.06161,292.06161,0,0,1,3.24113-40.42424,311.58729,311.58729,0,0,1,10.31191-46.36068,338.72018,338.72018,0,0,1,17.67771-46.078,182.5407,182.5407,0,0,1,25.632-40.42425,122.31512,122.31512,0,0,1,34.47137-28.55139q19.44528-10.73337,43.60422-10.7421,25.3285,0,46.84535,16.67853,21.503,16.68291,36.82847,42.96843a220.53632,220.53632,0,0,1,23.27491,58.51621,212.70892,212.70892,0,0,1,6.18725,63.3219q.58053,45.23866-17.6772,80.5658-18.27186,35.341-45.96182,57.38547-27.70384,22.04958-59.80887,29.39945-32.123,7.34112-59.80886-4.24031-27.70385-11.58142-46.25583-43.81649Q1122.56688,602.01514,1122.56687,546.0431Zm29.46267,2.82687q1.76783,45.7953,15.90963,70.67176,14.14257,24.88519,34.47137,32.79169,20.32879,7.924,43.89924.56538,23.56068-7.34112,43.89872-26.57258,20.32957-19.214,34.76588-48.33948,14.43246-29.11163,16.20465-65.30071a205.93765,205.93765,0,0,0-4.41968-52.86247q-5.60723-25.72016-16.20414-45.51261-10.60694-19.78372-26.22153-31.661a56.48708,56.48708,0,0,0-35.06039-11.87286,62.90128,62.90128,0,0,0-33.88184,9.32868,105.67265,105.67265,0,0,0-27.10557,24.59377,157.23421,157.23421,0,0,0-20.62382,34.7705,337.59988,337.59988,0,0,0-14.43657,39.2935,268.10579,268.10579,0,0,0-8.54435,38.16275A227.7828,227.7828,0,0,0,1152.02954,548.87Z" style="fill:#699;stroke:#000;stroke-miterlimit:10;stroke-width:11px"/><path d="M1433.03587,391.696q-.59365-3.94887,4.71367-7.91523a41.33044,41.33044,0,0,1,12.669-6.21912,67.97562,67.97562,0,0,1,14.43657-2.82687q7.07129-.55663,10.0174,2.2615,5.30346,93.28671,18.85574,148.69338,13.54816,55.41539,31.23023,81.13117,17.67822,25.73326,38.007,26.00721,20.32879.29142,40.06857-16.39585,19.73592-16.6698,36.534-46.36067a326.76125,326.76125,0,0,0,27.40008-63.60458,307.0158,307.0158,0,0,0,13.258-67.84489q2.65135-33.92244-6.18725-59.92965l47.13987-5.65374q.58053,11.87286,4.12466,37.88006,3.53563,26.01157,7.95532,58.7989,4.41918,32.79684,9.72238,68.12758,5.30348,35.341,9.42787,65.86608,4.11618,30.53019,7.07129,52.01441,2.94123,21.49294,2.94611,26.57258h-33.58733l-36.53344-130.036a346.99385,346.99385,0,0,1-26.81056,50.31829,239.8022,239.8022,0,0,1-34.17686,42.40305,153.78662,153.78662,0,0,1-39.18505,28.2687q-20.63254,10.17674-40.6581,8.19793-20.0389-1.97367-38.89054-17.80928-18.8655-15.82174-34.76588-50.03561-15.90963-34.2-27.69459-88.76373Q1438.32983,470.28811,1433.03587,391.696Zm143.77668-200.70779q14.14257,13.569,21.50785,24.31109a194.74928,194.74928,0,0,1,12.96352,21.7669q5.59333,11.02479,11.785,24.0284a276.0952,276.0952,0,0,0,17.97221,31.09557c0,3.39224-.792,5.75088-2.35709,7.06717a16.90913,16.90913,0,0,1-6.48176,3.10956q-4.12929,1.13949-9.42787,2.2615a50.65884,50.65884,0,0,0-11.196,3.95762q-10.60616-16.96122-16.20413-26.57258-5.60722-9.607-10.60693-18.092-5.01282-8.48061-11.48994-18.37466-6.49153-9.88531-18.85626-27.42064Z" style="fill:#699;stroke:#000;stroke-miterlimit:10;stroke-width:11px"/><path d="M2138.82469,555.08909q0-28.26357,9.42838-61.90846a238.43939,238.43939,0,0,1,27.69459-62.75652,173.16159,173.16159,0,0,1,45.07779-48.62217q26.80566-19.50541,61.57643-19.50541,18.2572-2.82251,29.16765,3.10956a39.8088,39.8088,0,0,1,16.79366,17.80928A87.45321,87.45321,0,0,1,2336.518,410.636a281.69906,281.69906,0,0,1,2.3571,31.661q.28989,16.11316,0,30.24751-.30377,14.1395,1.47306,23.18034h-20.03429q-.59364-5.08836-2.3571-22.04959A236.84322,236.84322,0,0,0,2311.475,438.622a121.27858,121.27858,0,0,0-13.258-32.22632q-8.54923-14.12562-23.27543-14.13435-21.80673,0-40.95312,16.39584a167.52253,167.52253,0,0,0-33.58682,39.85888,241.76557,241.76557,0,0,0-22.98091,48.33948q-8.54846,24.8852-8.54435,41.83768a286.38752,286.38752,0,0,0,5.89274,40.98962,133.87135,133.87135,0,0,0,15.32061,40.42424,85.46825,85.46825,0,0,0,27.69459,29.11677q17.08381,11.02479,42.42619,6.5018a89.99608,89.99608,0,0,0,35.94391-7.34986q17.0838-7.34114,33.88184-15.83048,16.79392-8.48061,33.58733-15.83047a88.01916,88.01916,0,0,1,35.64992-7.34986q0,19.79682-15.0261,34.20513a122.62638,122.62638,0,0,1-36.53345,23.74571,213.49371,213.49371,0,0,1-45.37229,13.85166q-23.86445,4.51785-40.95262,4.523a111.52763,111.52763,0,0,1-48.90794-10.7421,126.90833,126.90833,0,0,1-64.523-70.10639A137.25947,137.25947,0,0,1,2138.82469,555.08909Zm87.22436,128.32654c5.95095-7.41563,5.31169,8.60018,2.10525,33.684-1.05262,9.47362,2.299,12.40739,8.78077,14.10352s14.62983,2.26149,24.454,1.69612q14.72157-.84807,31.81926-1.97881a92.17014,92.17014,0,0,1,31.81925,3.10956,46.85849,46.85849,0,0,1,24.454,16.67853q9.72263,12.42949,9.72289,38.44544,0,16.96122-7.95481,29.39945a66.35584,66.35584,0,0,1-20.32931,20.35346A76.84038,76.84038,0,0,1,2303.2257,849.649a104.69585,104.69585,0,0,1-30.64122,1.13075,99.22609,99.22609,0,0,1-17.38268-3.67493,94.17611,94.17611,0,0,1-21.21335-9.046,70.0996,70.0996,0,0,1-17.9717-14.69972,30.34482,30.34482,0,0,1-7.66031-20.63616,40.33138,40.33138,0,0,1,17.67719,3.95762,178.38162,178.38162,0,0,1,16.49916,9.046,178.24337,178.24337,0,0,0,16.49916,9.046,40.40394,40.40394,0,0,0,17.67719,3.95762q10.60693,1.69612,24.15946-4.2403a92.52627,92.52627,0,0,0,24.159-15.2651C2332.09884,803.00561,2334.943,796.54222,2337,789c3-11,.51117-13.91163-4-19-4.52094-5.08837-8.56147-7.8956-22.70353-9.96282q-21.21309-3.11469-62.46047,2.54419a28.65807,28.65807,0,0,1-15.32061-4.80568,51.92281,51.92281,0,0,1-13.55253-12.43823,68.89676,68.89676,0,0,1-9.42787-16.39585c-2.3571-5.848-4.53841-9.73677-5.591-17.10514-3.15788-15.78935.18657-26.809,4.707-36.04" style="fill:#699;stroke:#000;stroke-miterlimit:10;stroke-width:11px"/><path d="M2455.77544,618.97635q0-42.95969,24.74848-62.47383,24.74872-19.5054,64.81756-19.5054,15.90963,0,29.75718.56537a134.71865,134.71865,0,0,1,26.516,3.67493,113.024,113.024,0,0,1,24.74848,9.32867,143.82468,143.82468,0,0,1,25.63252,17.5266c0-1.88115.092-5.17677.29451-9.894q.29065-7.062.295-15.2651V517.209q-1.18806-13.569-.884-35.05319a262.376,262.376,0,0,0-3.24113-44.09917,134.45167,134.45167,0,0,0-14.43657-42.96843q-10.90992-20.35347-34.47086-30.5302a90.601,90.601,0,0,0-30.34619,5.08836q-14.44633,5.08837-28.57863,11.0248-14.14259,5.93643-28.28413,11.02479a88.087,88.087,0,0,1-30.05168,5.08837q0-19.214,12.07947-31.37826a84.42053,84.42053,0,0,1,29.16765-18.94,143.35908,143.35908,0,0,1,36.23893-9.046,286.53824,286.53824,0,0,1,32.70329-2.26149q14.14259,2.26586,26.51656,5.08836a53.68134,53.68134,0,0,1,22.9804,11.87286q10.60693,9.05036,19.44527,27.70333,8.83911,18.65735,15.61512,51.73172,6.76752,33.07439,12.08,83.958,5.30269,50.88368,8.24932,124.94767,1.17417,9.6201-7.07078,16.67853-8.25934,7.07592-22.09687,12.15555a182.76637,182.76637,0,0,1-31.81977,8.19792q-17.98121,3.11469-35.94391,4.80568-17.982,1.69612-34.47137,2.2615-16.50327.55664-27.10557.56537a97.84261,97.84261,0,0,1-28.87314-4.523,94.46836,94.46836,0,0,1-26.81107-13.00361,70.33138,70.33138,0,0,1-19.73978-20.91884A51.73616,51.73616,0,0,1,2455.77544,618.97635ZM2558.305,566.39657q-39.48418,10.17674-55.09468,24.87646-15.61974,14.70846-13.553,28.55139,2.0577,13.86039,18.26672,24.59377,16.20028,10.74725,39.77458,14.13435,23.56068,3.39225,51.26452-3.67493,27.69074-7.062,53.0326-28.55139-10.02639-21.47909-19.44527-33.35707-9.43275-11.87286-20.32879-17.80928a64.30406,64.30406,0,0,0-24.15947-7.34987A284.49337,284.49337,0,0,0,2558.305,566.39657Z" style="fill:#699;stroke:#000;stroke-miterlimit:10;stroke-width:11px"/><path d="M3066.69449,350.98905l24.749-23.74571,172.65085,301.90975,74.24492-292.29839a33.92856,33.92856,0,0,0,11.49046,3.67493q6.18621.84806,11.19646,1.97881a34.58927,34.58927,0,0,1,8.24829,2.82687,5.89775,5.89775,0,0,1,3.24011,5.65374q-10.02562,48.06117-19.14871,90.17716-9.14364,42.12474-19.15076,82.26193-10.0287,40.15029-22.09687,80.28312-12.08565,40.15029-27.40111,84.24073H3254.0759Z" style="fill:#699;stroke:#000;stroke-miterlimit:10;stroke-width:11px"/><path d="M3401.324,256.57158a86.94964,86.94964,0,0,1,.884-11.59017,38.32584,38.32584,0,0,1,3.5341-11.87285,27.44442,27.44442,0,0,1,7.07231-9.046,16.48,16.48,0,0,1,10.90041-3.67493q8.83834,0,18.56072.56538a71.3172,71.3172,0,0,1,18.26672,3.39224,32.74887,32.74887,0,0,1,13.84858,8.48061q5.30117,5.65812,5.30218,15.83048,0,18.65734-13.84652,32.509-13.8527,13.86041-34.47137,13.85167-15.90963,0-22.98091-11.59017Q3401.32294,271.84542,3401.324,256.57158Zm45.95977,3.95762c-1.96956,0-2.94612,1.22789-2.94612,3.67493,0,2.45578.97656,3.67493,2.94612,3.67493,1.96133,0,2.94817-1.21915,2.94817-3.67493C3450.23192,261.75709,3449.24508,260.5292,3447.28375,260.5292Zm-.588,130.60141q10.01328,0,16.49864-.56537,6.4761-.55665,11.19646,7.91523,2.34683,33.3658,5.59618,68.41026,3.23189,35.06193,6.18827,70.67176,2.942,35.61856,4.4202,71.23713,1.46175,35.61856.294,69.541c0,3.02115-.79153,4.90334-2.35813,5.65374a14.09713,14.09713,0,0,1-6.77626.84806c-2.94612-.19428-6.38976-.38034-10.31037-.56537a46.09979,46.09979,0,0,0-12.96454,1.41343Z" style="fill:#699;stroke:#000;stroke-miterlimit:10;stroke-width:11px"/><path d="M3550.92606,506.46692q0-22.60623,10.31243-50.03561a213.17453,213.17453,0,0,1,27.6951-51.16635,175.4911,175.4911,0,0,1,40.06755-39.85887q22.6787-16.11317,46.84586-16.11316a72.841,72.841,0,0,1,26.22308,5.08837,110.66767,110.66767,0,0,1,25.337,13.85166,133.96851,133.96851,0,0,1,21.80288,19.78809,98.01328,98.01328,0,0,1,15.32061,22.89765,57.94443,57.94443,0,0,1,5.89223,23.18034,28.73345,28.73345,0,0,1-6.77627,19.78809l-165.58058,29.39945q-2.95434.57051-5.30219,7.06718a101.48623,101.48623,0,0,0-4.1262,16.39584q-1.767,9.89919-2.94611,21.48422-1.18728,11.5953-1.766,22.615-.59518,11.02479-.884,19.78809-.30531,8.772-.296,12.72092,0,21.49294,10.60641,34.48782a67.251,67.251,0,0,0,27.10712,19.78809,136.47271,136.47271,0,0,0,37.41748,9.046,382.57627,382.57627,0,0,0,41.24558,2.2615q20.33189,0,38.59758-1.41344,18.25644-1.40469,30.05117-1.41343a13.172,13.172,0,0,1-2.35813,7.06718,47.0597,47.0597,0,0,1-5.59617,7.06717q-3.2473,3.39225-6.18828,5.93643a24.27654,24.27654,0,0,1-4.12414,3.10956q-5.89633,1.69611-19.15076,4.2403-13.25751,2.54418-27.69511,4.80568-14.44479,2.26663-27.10506,3.95762a160.91391,160.91391,0,0,1-16.79469,1.69612q-24.748,4.51785-42.71967-.84806a71.18059,71.18059,0,0,1-30.64122-18.092,99.33745,99.33745,0,0,1-20.62279-31.09557,179.39371,179.39371,0,0,1-11.7865-39.57619,264.52813,264.52813,0,0,1-4.12415-43.81649A359.4171,359.4171,0,0,1,3550.92606,506.46692ZM3664.6526,378.127q-7.07128-.55665-18.26672,6.78448a116.50092,116.50092,0,0,0-37.71354,41.83768q-6.49152,12.44261-4.71419,20.91885a154.34249,154.34249,0,0,0,42.72172-.28269,199.01253,199.01253,0,0,0,40.0696-9.61136q17.96656-6.49307,29.75718-15.2651,11.78034-8.75894,11.4884-17.5266-.30222-8.75892-14.73056-16.11316Q3698.8197,381.528,3664.6526,378.127Z" style="fill:#699;stroke:#000;stroke-miterlimit:10;stroke-width:11px"/><path d="M3844.30791,680.03675q-1.767-11.87284-2.94611-35.05319-1.18728-23.1752-2.35812-52.01441-1.18729-28.83408-2.06208-60.495-.882-31.6558-1.76807-60.21233-.882-28.54266-2.06208-51.73173-1.18728-23.176-2.94611-35.05319c-.39473-.37109-.69078-1.599-.884-3.67493q-.30222-3.10083-.588-6.78449c-.20353-2.447-.296-4.6114-.296-6.5018V364.558q11.78034-9.607,20.0348-6.5018,8.24623,3.11392,13.55253,13.28629,5.30424,10.17674,7.95636,25.44183,2.649,15.26509,3.83015,30.24751,1.17186,14.98678,1.178,27.42064v17.5266q1.175-12.99924,4.41814-30.24751a254.25179,254.25179,0,0,1,9.42839-35.33588,256.80969,256.80969,0,0,1,15.32061-35.61857,130.38693,130.38693,0,0,1,22.39292-31.09557A97.85854,97.85854,0,0,1,3956.85436,318.48q17.08458-7.63254,38.89157-5.93643,34.16607,1.13949,56.56619,17.80929,22.38881,16.6829,35.65146,44.38186,13.2575,27.7077,19.1487,64.17a665.40155,665.40155,0,0,1,7.66031,76.89087q1.77014,40.42938.884,82.26192-.882,41.84643-.884,80.28312a75.81787,75.81787,0,0,0-13.55253,5.08837q-7.0713,3.39223-11.78446,3.10956-4.72446-.29143-6.77626-6.78449-2.07236-6.49307.884-25.15915.57976-13.569,2.65212-41.83768,2.05694-28.26357,1.76808-63.03921-.30531-34.77049-4.12621-71.8025-3.8394-37.02327-14.73056-67.27952-10.9107-30.23877-30.34723-49.75291-19.44372-19.50542-50.674-19.50541-32.41443,13.01235-53.91818,48.33948-21.51608,35.34025-34.76536,83.11a637.863,637.863,0,0,0-19.15077,103.18077q-5.89633,55.41539-6.48021,107.98644a19.93553,19.93553,0,0,0-5.59823-.84806c-2.94611-.185-6.09576-.37109-9.42839-.56537q-5.01435-.27755-9.42838-.84806C3846.37,681.36178,3844.69443,680.79641,3844.30791,680.03675Z" style="fill:#699;stroke:#000;stroke-miterlimit:10;stroke-width:11px"/><path d="M4269.09092,410.35333q-7.07128-2.25276-19.15076-1.97881-12.08564.29142-25.633,1.41343-13.56282,1.13949-26.221,2.82687a166.30213,166.30213,0,0,1-21.50889,1.69613q-4.12929,0-5.00818-11.0248-.882-11.02479-3.83016-30.24751l111.36841-7.34986q2.34683-25.99848,2.94612-37.59738.57976-11.58143.294-19.5054-.30222-7.91088-.882-17.80929-.59519-9.8853-.59005-31.94363,20.61868-2.8225,31.22921-1.97881,10.60846.84806,14.73262,5.37105,4.11387,4.53174,3.5341,13.28629-.59209,8.772-2.35607,21.76691-1.767,13.01234-3.2401,30.81288-1.48026,17.80929,1.472,40.98962l93.69174-3.39224v37.31468q-5.89943,0-19.44681.56538-13.55973.56974-28.57709,1.41343-15.02765.84807-28.28515,1.69613t-19.15076,2.54418q-6.49154,27.138-13.55253,58.23353a425.36483,425.36483,0,0,0-9.42839,61.0604,237.75,237.75,0,0,0,1.76808,55.972q4.11695,26.01234,19.74081,43.25111,15.60432,17.25266,44.78173,23.463,29.17023,6.22785,76.897-3.95762a32.26544,32.26544,0,0,1-9.13233,18.092,54.33225,54.33225,0,0,1-17.38268,11.59017,88.38783,88.38783,0,0,1-20.91884,5.93642,129.543,129.543,0,0,1-19.74081,1.69613q-39.48264,0-63.04846-13.85167-23.5761-13.84653-35.6494-36.46663-12.08565-22.60621-15.02662-51.73172a423.04141,423.04141,0,0,1-1.76807-59.36428q1.17495-30.23877,4.1262-59.647Q4269.08373,434.10777,4269.09092,410.35333Z" style="fill:#699;stroke:#000;stroke-miterlimit:10;stroke-width:11px"/><path d="M4892.384,458.9755q0-16.39149,9.13439-27.70333a95.43776,95.43776,0,0,1,22.68692-20.07078,228.70333,228.70333,0,0,1,29.75718-16.11316,227.952,227.952,0,0,0,29.75718-16.11316,89.90848,89.90848,0,0,0,22.68486-20.63616q9.12822-11.87285,9.13439-29.39945,0-12.4295-8.54434-19.78809a59.93627,59.93627,0,0,0-20.62485-11.30748,112.19884,112.19884,0,0,0-25.337-5.08837q-13.25751-1.12638-22.09687-1.13075a73.23733,73.23733,0,0,0-31.52526,7.06718,290.075,290.075,0,0,0-29.16713,15.83047q-14.14258,8.772-27.10507,15.83048-12.97069,7.07591-25.339,7.06717-8.83834,0-13.55253-3.39224-4.72447-3.39225-9.42839-11.87286a119.6282,119.6282,0,0,1,24.749-26.28989,146.83972,146.83972,0,0,1,30.64121-18.37466A166.78223,166.78223,0,0,1,4892.68,266.46563a180.59841,180.59841,0,0,1,36.2374-3.67493q13.55047,0,33.29333,3.39224a181.07307,181.07307,0,0,1,38.30153,11.0248,97.176,97.176,0,0,1,31.52525,20.35346Q5044.98972,310.28211,5045,328.93946q0,19.79684-13.25854,40.70693a260.47359,260.47359,0,0,1-31.2292,39.85888,325.035,325.035,0,0,1-37.41749,33.92244q-19.44372,14.98678-31.81925,23.463v67.84489q-14.14257,0-22.09687-8.19792a47.87012,47.87012,0,0,1-11.49046-20.07078,114.02208,114.02208,0,0,1-4.4202-24.87646Q4892.386,468.59122,4892.384,458.9755Zm30.64122,202.96928q0-7.91009,3.24217-12.43823,3.23187-4.51785,12.07844-9.046,9.42119,4.53173,12.66849,9.046,3.23189,4.53174,3.24217,12.43823,0,8.48061-3.24217,13.00361-3.24421,4.53173-12.66849,9.046-8.83833-4.51785-12.07844-9.046Q4923.02,670.43054,4923.02517,661.94478Z" style="fill:#699;stroke:#000;stroke-miterlimit:10;stroke-width:11px"/></g><g id="f1c4fe51-e230-4748-869c-4ca6187fb455" data-name="soulignage"><rect x="312.5" y="909.26611" width="5000" height="25.73389" rx="9.00685" style="fill:#699;stroke:#000;stroke-miterlimit:10;stroke-width:7px"/><rect x="313.5" y="65" width="5000" height="25.73389" rx="9.00685" style="fill:#699;stroke:#000;stroke-miterlimit:10;stroke-width:7px"/></g><g id="a15be113-4b29-49bb-a227-90af5dfd5707" data-name="icons"><g id="e1eee458-44b9-43c4-9d3a-d493ee1537b8" data-name="Scope"><path d="M5373.26446,420.87191a66.19008,66.19008,0,0,0-66.1157,66.1157c0,47.72314,60.68181,106.09091,63.26445,108.55372a4.1322,4.1322,0,0,0,5.71489,0c2.58265-2.49175,63.25207-61.33472,63.25207-108.55372A66.19009,66.19009,0,0,0,5373.26446,420.87191Z" style="fill:#ccc"/><path d="M5600.53719,493.14463H5594.5A222.07026,222.07026,0,0,0,5389.624,287.124v-6.13223a14.46281,14.46281,0,0,0-14.46281-14.46281h-2.55371a14.46282,14.46282,0,0,0-14.46281,14.46281v6.03719A222.06612,222.06612,0,0,0,5152.124,491.905h-6.13225a14.46282,14.46282,0,0,0-14.46281,14.46281v2.5537a14.4628,14.4628,0,0,0,14.46281,14.46281h6.03719a222.06612,222.06612,0,0,0,204.876,206.02064v6.13227A14.46281,14.46281,0,0,0,5371.36777,750h2.5537a14.4628,14.4628,0,0,0,14.46281-14.46281h0V729.5a222.07022,222.07022,0,0,0,206.02064-204.876h6.13227A14.4628,14.4628,0,0,0,5615,510.16116v-2.55371a14.46282,14.46282,0,0,0-14.46278-14.46282Zm-108.00827,0a14.46281,14.46281,0,0,0-14.46281,14.46282h0v2.55371a14.46281,14.46281,0,0,0,14.46281,14.46281h15.8595a136.36364,136.36364,0,0,1-120.00827,118.92561V627.52892a14.4628,14.4628,0,0,0-14.46281-14.46281h-2.5537a14.46282,14.46282,0,0,0-14.46281,14.46281v15.8595a136.36361,136.36361,0,0,1-118.92561-120.00827h16.02065a14.46281,14.46281,0,0,0,14.46281-14.46281v-2.5537a14.46282,14.46282,0,0,0-14.46281-14.46281h-15.85538a136.36363,136.36363,0,0,1,120.00827-118.92561v16.02065a14.46281,14.46281,0,0,0,14.46279,14.46281h2.5537a14.46281,14.46281,0,0,0,14.46281-14.46281V373.14049a136.36366,136.36366,0,0,1,118.92562,120.00827ZM5389.63636,341.44214V318.69008a190.562,190.562,0,0,1,173.29753,174.45455h-22.76034A167.89258,167.89258,0,0,0,5389.624,341.44215Zm-31.47934-.09091A167.88844,167.88844,0,0,0,5206.44628,491.905H5183.686A190.5744,190.5744,0,0,1,5358.14463,318.595ZM5206.35124,523.38428A167.89673,167.89673,0,0,0,5356.905,675.08679V697.843A190.56614,190.56614,0,0,1,5183.595,523.38428Zm182.033,151.7934A167.88431,167.88431,0,0,0,5540.08266,524.624H5562.843a190.56614,190.56614,0,0,1-174.45872,173.30992Z" style="fill:#ccc"/><path d="M5418.719,470.45454c0,46.00414-61.98347,105.57852-61.98347,105.57852s-61.98347-59.09092-61.98347-105.57852a61.98347,61.98347,0,0,1,123.96694,0Z" style="fill:#699"/><path d="M5356.73554,429.75207a41.32231,41.32231,0,1,0,41.32231,41.32231A41.32232,41.32232,0,0,0,5356.73554,429.75207Z" style="fill:#bee7f4"/><path d="M5356.73554,442.14876a41.35122,41.35122,0,0,1,40.80578,35.124,41.32231,41.32231,0,1,0-81.61157,0A41.35124,41.35124,0,0,1,5356.73554,442.14876Z" style="fill:#fff"/><path d="M5356.73554,274.05785c-120.22008,0-217.6777,97.45763-217.6777,217.67769s97.45762,217.67769,217.6777,217.67769,217.67769-97.4576,217.67769-217.67769h0C5574.27432,371.57305,5476.898,274.19674,5356.73554,274.05785Zm0,412.13636c-107.39656,0-194.45867-87.06211-194.45867-194.45867s87.06211-194.45867,194.45867-194.45867,194.45867,87.06211,194.45867,194.45867h0C5551.19421,599.1321,5464.1321,686.19421,5356.73554,686.19421Z" style="fill:#699"/><path d="M5356.73554,328.23967a163.49587,163.49587,0,1,0,163.49587,163.49588h0A163.49586,163.49586,0,0,0,5356.73554,328.23967Zm0,303.77272a140.27686,140.27686,0,1,1,140.281-140.27685A140.27685,140.27685,0,0,1,5356.73554,632.01239Z" style="fill:#699"/><rect x="5345.74793" y="254.13223" width="23.21901" height="128.66942" rx="10.33058" style="fill:#699"/><rect x="5119.13223" y="479.50413" width="128.66942" height="23.21901" rx="10.33058" style="fill:#699"/><rect x="5344.5041" y="600.66942" width="23.21902" height="128.66942" rx="10.33058" style="fill:#699"/><rect x="5465.66939" y="480.74795" width="128.66942" height="23.21902" rx="10.33058" style="fill:#699"/><path d="M5356.73554,404.343a66.1901,66.1901,0,0,0-66.11571,66.1157c0,47.72314,60.68183,106.09091,63.26447,108.55373a4.13227,4.13227,0,0,0,5.71488,0c2.58264-2.49176,63.25206-61.33472,63.25206-108.55373A66.19009,66.19009,0,0,0,5356.73554,404.343Zm0,165.843c-12.0372-12.1942-57.85124-61.157-57.85124-99.72728a57.85124,57.85124,0,0,1,115.70248,0C5414.58678,508.624,5368.74792,557.92148,5356.73554,570.186Z"/><path d="M5356.73554,425.61983a45.45455,45.45455,0,1,0,45.45454,45.45455A45.45456,45.45456,0,0,0,5356.73554,425.61983Zm0,82.64463a37.19008,37.19008,0,1,1,37.19008-37.19008A37.19009,37.19009,0,0,1,5356.73554,508.26446Z"/><path d="M5445.90084,604.08679a4.13212,4.13212,0,0,0,2.6281-.94214,145.81814,145.81814,0,0,0,26.10332-28.09918,4.13223,4.13223,0,0,0-6.73969-4.77689,137.36366,137.36366,0,0,1-24.6281,26.5,4.13223,4.13223,0,0,0,2.63637,7.3182Z"/><path d="M5584.00826,476.6157h-6.04544A222.04544,222.04544,0,0,0,5373.095,270.61157v-6.14876A14.4628,14.4628,0,0,0,5358.63223,250h-2.55372a14.46282,14.46282,0,0,0-14.46281,14.46281v6.03306A222.07023,222.07023,0,0,0,5135.60331,475.376h-6.1405A14.46282,14.46282,0,0,0,5115,489.83884v2.55372a14.46281,14.46281,0,0,0,14.46281,14.4628h6.04546A222.04956,222.04956,0,0,0,5340.376,712.85948v6.14878a14.46281,14.46281,0,0,0,14.46281,14.46281h2.55372a14.46279,14.46279,0,0,0,14.4628-14.46281v-6.03305A222.07027,222.07027,0,0,0,5577.86774,508.095h6.14052a14.4628,14.4628,0,0,0,14.46281-14.46281v-2.55372a14.46281,14.46281,0,0,0-14.46281-14.46281Zm-14.31816,0h-15.02067A198.80165,198.80165,0,0,0,5373.095,293.91322v-14.9876A213.77688,213.77688,0,0,1,5569.6901,476.6157Zm-69.4215,0A144.58676,144.58676,0,0,0,5373.095,348.31405V333.29339a159.53717,159.53717,0,0,1,142.20662,143.3223Zm23.3223,0a167.80164,167.80164,0,0,0-150.49586-151.624V302.20661A190.5248,190.5248,0,0,1,5546.405,476.6157ZM5349.88016,264.46281a6.19836,6.19836,0,0,1,6.19835-6.19835h2.55372a6.19836,6.19836,0,0,1,6.19835,6.19835V372.47108a6.19835,6.19835,0,0,1-6.19835,6.19834h-2.55372a6.19835,6.19835,0,0,1-6.19835-6.19834Zm-8.26446,83.72727a144.58265,144.58265,0,0,0-128.2686,127.186h-15.04958A159.53721,159.53721,0,0,1,5341.6157,333.16942Zm0-23.31818A167.80579,167.80579,0,0,0,5189.99587,475.376h-22.79339A190.52479,190.52479,0,0,1,5341.6157,302.09091Zm0-46.08265v15.0124A198.79756,198.79756,0,0,0,5158.90909,475.376h-15.0124A213.781,213.781,0,0,1,5341.6157,278.78925ZM5123.26446,492.39256v-2.55372a6.19835,6.19835,0,0,1,6.19835-6.19834h108.00827a6.19834,6.19834,0,0,1,6.19834,6.19834h0v2.55372a6.19835,6.19835,0,0,1-6.19834,6.19835H5129.46281a6.19836,6.19836,0,0,1-6.19835-6.19835Zm66.60744,14.4628a167.80991,167.80991,0,0,0,150.50413,151.624v22.78512a190.52476,190.52476,0,0,1-173.30991-174.40909Zm8.30165,0h15.02067A144.595,144.595,0,0,0,5340.376,635.157V650.1777A159.53306,159.53306,0,0,1,5198.17355,506.85536Zm-54.39256,0h15.02066A198.80578,198.80578,0,0,0,5340.39255,689.562v15.00412A213.781,213.781,0,0,1,5143.781,506.85536Zm219.80992,212.1529a6.19834,6.19834,0,0,1-6.19835,6.19835h-2.55372a6.19834,6.19834,0,0,1-6.19834-6.19835V611a6.19834,6.19834,0,0,1,6.19834-6.19835h2.55372A6.19834,6.19834,0,0,1,5363.59091,611Zm-6.19835-122.47107h-2.55372A14.46281,14.46281,0,0,0,5340.376,611v15.85949A136.33473,136.33473,0,0,1,5221.5,506.85536h15.97108a14.46281,14.46281,0,0,0,14.46281-14.46281v-2.55372a14.46282,14.46282,0,0,0-14.46281-14.46281h-15.83885a136.33059,136.33059,0,0,1,119.98347-118.8843v15.97934a14.46282,14.46282,0,0,0,14.46281,14.46281h2.55372a14.46281,14.46281,0,0,0,14.46281-14.46281V356.61157a136.33471,136.33471,0,0,1,118.876,120.00413H5476a14.46281,14.46281,0,0,0-14.46281,14.46281h0v2.55372A14.4628,14.4628,0,0,0,5476,508.095h15.78512a135.6117,135.6117,0,0,1-14.938,47.69008,4.13272,4.13272,0,0,0,7.28926,3.8967h0A143.95458,143.95458,0,0,0,5500.124,508.095h15.07027A159.53719,159.53719,0,0,1,5371.876,650.30166V635.26034a143.67381,143.67381,0,0,0,60.47934-20.54546,4.13223,4.13223,0,0,0-4.343-7.02478,135.36379,135.36379,0,0,1-56.17356,19.252V611A14.46281,14.46281,0,0,0,5357.39256,596.53719Zm14.4628,62.062A167.8058,167.8058,0,0,0,5523.4752,508.095h22.79338A190.52476,190.52476,0,0,1,5371.85536,681.405Zm0,46.08265V689.66943a198.80579,198.80579,0,0,0,182.71076-181.58678h15.00828A213.78512,213.78512,0,0,1,5371.85536,704.68181Zm218.35125-211.04958a6.19834,6.19834,0,0,1-6.19835,6.19835H5476a6.19834,6.19834,0,0,1-6.19835-6.19835h0v-2.55372A6.19834,6.19834,0,0,1,5476,484.88016h108.00826a6.19834,6.19834,0,0,1,6.19835,6.19835h0Z"/></g><g id="a7e8bfc5-b004-4ef4-8645-6c2cbc067c59" data-name="loupe"><path d="M491.65038,690.22462a29.29245,29.29245,0,1,1-41.42576,41.42579L355.918,637.34376A246.68659,246.68659,0,0,0,397.34376,595.918Z" style="fill:#699"/><path d="M355.5371,554.11133,397.34373,595.918a246.68565,246.68565,0,0,1-41.42579,41.42579L314.1113,595.53713v-.00978a186.80555,186.80555,0,0,0,41.416-41.416Z" style="fill:#9cc"/><path d="M390.85938,445.3125a184.54379,184.54379,0,0,1-35.332,108.79883,186.80555,186.80555,0,0,1-41.416,41.416,184.5438,184.5438,0,0,1-108.79884,35.332c-102.31444,0-185.54686-83.23244-185.54686-185.54688s83.23242-185.54687,185.54686-185.54687S390.85938,342.99805,390.85938,445.3125Z" style="fill:#699"/><path d="M205.31249,298.82813c80.77149,0,146.48439,65.71289,146.48439,146.48437S286.084,591.79688,205.31249,591.79688,58.82813,526.084,58.82813,445.3125,124.541,298.82813,205.31249,298.82813Z" style="fill:#bee7f4"/><path d="M498.55567,683.31933,368.20413,552.96779A193.55932,193.55932,0,0,0,400.625,445.3125C400.625,337.61719,313.00781,250,205.31249,250S10,337.61719,10,445.3125,97.61719,640.625,205.31249,640.625a193.56883,193.56883,0,0,0,107.6553-32.41992l36.03026,36.03026.01562.01562,94.30468,94.30468a39.05833,39.05833,0,1,0,55.23732-55.23631Zm-169.6924-86.84179a195.97152,195.97152,0,0,0,27.61427-27.61427l27.70606,27.70606a237.04315,237.04315,0,0,1-27.61427,27.61427Zm-299.332-151.165c0-96.92578,78.85547-175.78125,175.78124-175.78125S381.09375,348.38672,381.09375,445.3125A174.27585,174.27585,0,0,1,347.625,548.374a176.633,176.633,0,0,1-39.25,39.25l-.002.002a174.27646,174.27646,0,0,1-103.06055,33.46777C108.38672,621.09375,29.53125,542.2383,29.53125,445.3125ZM484.74512,724.74512a19.51649,19.51649,0,0,1-27.61524,0L370.416,638.03124A256.61523,256.61523,0,0,0,398.03026,610.417l86.7168,86.7168a19.51412,19.51412,0,0,1-.00194,27.61134Z"/><path d="M361.56249,445.3125c0-86.15723-70.09276-156.25-156.25-156.25s-156.25,70.09277-156.25,156.25,70.09277,156.25,156.25,156.25S361.56249,531.46973,361.56249,445.3125Zm-156.25,136.71875c-75.38671,0-136.71874-61.332-136.71874-136.71875s61.332-136.71875,136.71874-136.71875,136.71876,61.332,136.71876,136.71875S280.69923,582.03125,205.31249,582.03125Z"/><path d="M309.13768,416.01074A9.76637,9.76637,0,0,0,314.751,403.3916,117.37193,117.37193,0,0,0,205.31249,328.125a9.76563,9.76563,0,0,0,0,19.53125,98.32316,98.32316,0,0,1,91.207,62.74122,9.75632,9.75632,0,0,0,12.61815,5.61327Z"/><path d="M312.73438,435.54688A9.76563,9.76563,0,1,0,322.5,445.3125,9.76919,9.76919,0,0,0,312.73438,435.54688Z"/></g></g><g id="bdc505ab-b985-4ec3-be43-228900b87831" data-name="Ancrage"><rect x="5624" y="999" width="1" height="1" style="fill:none"/><rect x="5624" width="1" height="1" style="fill:none"/><rect y="999" width="1" height="1" style="fill:none"/><rect width="1" height="1" style="fill:none"/></g></svg>