<svg xmlns="http://www.w3.org/2000/svg" viewBox="0 0 5625 1000"><defs><style>.cls-1{fill:#004875;stroke:#004875;stroke-miterlimit:10;stroke-width:9px;}.cls-2{fill:#e8947d;}.cls-3{fill:#004876;}.cls-4{fill:none;}</style></defs><title>logo_bde_polytech_angers</title><g id="Texte"><path class="cls-1" d="M722.394,651.41016V338.76172H872.31592q28.38941,0,45.82178,7.15967a48.61625,48.61625,0,0,1,25.83691,24.03027q8.40674,16.87353,8.40674,46.38086,0,30.25635-7.77832,46.31836-7.77906,16.062-33.042,24.5293,29.74291,8.46825,39.8872,25.08837,10.14111,16.62159,10.14258,48.87012,0,29.51074-7.40918,49.30664a57.93254,57.93254,0,0,1-25.15234,30.38086q-17.74365,10.585-48.002,10.584ZM867.75391,369.88965H757.11621v105.0874h98.44141q23.76928,0,36.77539-4.73047,13.00341-4.73144,18.41894-16.80957,5.41407-12.07543,5.41407-34.61426,0-28.511-10.01856-38.72314Q896.12793,369.89184,867.75391,369.88965Zm12.3208,136.71387H757.11621V620.78027h95.82813q30.11571,0,44.4292-3.3623,14.31-3.36036,20.90771-15.56348,6.59546-12.20069,6.59619-39.22168,0-27.88915-8.71142-41.96Q907.45312,506.6045,880.07471,506.60352Z"/><path class="cls-1" d="M999.77734,651.41016V338.76172h144.24024q34.34838,0,56.6875,8.40478,22.3374,8.40381,34.72265,24.96436,12.3816,16.56079,17.36036,40.77783,4.97607,24.21826,4.97851,59.4541v29.6333q0,47.19141-6.7207,78.56641-6.72,31.377-29.74414,51.1123-23.02515,19.73585-68.57276,19.73536Zm34.1001-30.62989h102.05029q24.8899,0,41.94043-3.3623,17.04933-3.36036,27.37989-15.9375,17.79492-23.53125,17.79638-87.28223V499.38135q0-49.92774-3.60888-73.33692-4.10742-33.61816-22.65039-44.63769-18.54492-11.01855-53.76368-11.019h-109.144Z"/><path class="cls-1" d="M1327.56445,370.3877V475.97314h159.04932v29.63428H1327.56445V620.78027h166.14307v30.62989H1293.46436V338.76172h200.24316v31.626Z"/><path class="cls-1" d="M1685.94629,651.41016V338.76172h145.85742A185.344,185.344,0,0,1,1867.335,341.75a53.87076,53.87076,0,0,1,26.07227,12.82471,66.97944,66.97944,0,0,1,20.41015,34.42773q5.10206,20.60816,5.10254,47.12744,0,23.03686-4.04492,40.90186-4.0459,17.86816-16.36523,29.57178a61.446,61.446,0,0,1-18.792,13.25976,82.53615,82.53615,0,0,1-21.15722,6.22559,232.35766,232.35766,0,0,1-29.1836,2.05468q-18.23291.37354-18.48144.374H1720.668V651.41016ZM1720.668,498.8833h83.00976q31.73438,0,47.54-3.61035,15.80421-3.60937,23.64649-17.12012,7.83984-13.50879,7.83984-42.521,0-24.52808-3.42187-38.2876-3.42482-13.75635-14.623-20.60645-11.20166-6.84594-33.85156-6.84814H1720.668Z"/><path class="cls-1" d="M1954.12012,535.61426q0-39.71778,6.90722-62.3794,6.90675-22.66113,26.81934-33.68066,19.91016-11.02,58.99023-11.01953,42.063,0,63.40821,9.15137,21.34276,9.15234,29.18359,31.31445,7.84131,22.16455,7.84082,64.62158,0,44.57665-4.543,68.48145a60.19609,60.19609,0,0,1-24.14355,38.41211q-19.60107,14.50633-62.03906,14.50585-40.69629,0-62.28809-7.78222a51.516,51.516,0,0,1-30.86426-28.8252q-9.27246-21.03954-9.27148-61.88183Zm33.10449,0V554.042q0,50.42725,13.17773,64.7461,9.3252,9.21533,35.18555,9.21386H2051.377q20.88867,0,33.19629-3.36132a33.00824,33.00824,0,0,0,19.208-13.44727q6.90089-10.08691,8.14355-30.13281.62256-17.43018.62305-50.05274,0-31.752-2.67383-46.44287-2.67187-14.69091-14.0498-21.85156-11.376-7.15869-37.35938-7.16016H2051.377q-29.34228,0-42.457,5.47852-13.11768,5.48145-17.40625,20.17187-4.29053,14.69239-4.28906,47.314Z"/><path class="cls-1" d="M2219.18262,338.76172V651.41016h-33.10449V338.76172Z"/><path class="cls-1" d="M2439.94043,432.64355,2378.21289,663.6123a160.95566,160.95566,0,0,1-25.70019,59.26758q-18.854,27.01758-46.10938,27.01856-6.59766,0-17.29883-2.61426V720.8877a32.27914,32.27914,0,0,1,4.35645.498,32.857,32.857,0,0,0,4.23144.498q15.30762,0,24.6416-10.71191a68.2152,68.2152,0,0,0,13.56446-23.48047q4.23047-12.77052,10.20508-36.1875h-11.69825l-79.02636-218.86036h33.72558l68.2002,194.23731,49.03418-194.23731Z"/><path class="cls-1" d="M2623.4873,432.64355v26.521h-84.1289V592.76563q0,19.79589,5.97363,26.95605,5.97363,7.16161,24.6416,7.15918,20.40821,0,26.00977-9.08887,5.6001-9.08789,5.60058-29.63379V574.46191h30.49122q0,39.84522-12.00977,59.64161-12.01172,19.79589-50.0918,19.79687-24.26807,0-38.0205-5.60351a35.52108,35.52108,0,0,1-19.72559-18.80079q-5.97363-13.19677-5.97363-36.73046V459.16455h-28.624v-26.521h28.624V380.09961h33.10449v52.54394Z"/><path class="cls-1" d="M2830.30664,584.49121h34.22363q0,30.78076-11.13769,45.79492-11.14014,15.01758-30.30469,19.31446-19.166,4.29931-51.89648,4.2998-30.73975,0-49.84278-5.47851-19.1045-5.47706-29.49511-17.74317-10.39308-12.2622-14.43653-32.24805-4.04589-19.98486-4.04492-51.61035,0-43.33008,5.72559-67.29834,5.72168-23.96777,25.69922-36.97949,19.9746-13.01,61.292-13.01172,41.19286,0,61.85254,8.5293a48.70168,48.70168,0,0,1,28.31347,29.50879q7.65381,20.98242,8.27539,63.439v16.9336H2707.47266q0,30.20946,2.7998,45.75a38.26193,38.26193,0,0,0,15.43262,24.86328q12.62988,9.32373,40.38379,9.32226h8.71191q27.37792,0,41.44238-6.52441,14.0625-6.52589,14.06348-29.65137Zm.62207-62.07519q0-29.50929-3.7959-43.20459a27.88215,27.88215,0,0,0-16.80078-19.17579q-13.00635-5.477-41.6289-5.478-25.14113,0-38.207,6.03857-13.06786,6.041-18.04589,20.35742-4.979,14.32032-4.97754,41.46241Z"/><path class="cls-1" d="M3057.16211,571.34961h32.60644q0,33.61816-9.14648,51.11133-9.14795,17.49462-28.68652,23.96875-19.53956,6.47607-54.38575,6.47461-34.10009,0-53.63867-6.78614-19.53954-6.78514-28.68652-20.918-9.14649-14.1299-11.57324-34.17872-2.42726-20.04492-2.42774-56.40332,0-38.59716,8.08985-60.94775a57.72039,57.72039,0,0,1,29.05957-32.99609q20.96923-10.645,59.17675-10.64551,42.06446,0,64.90137,13.50976,22.83692,13.511,22.83692,53.35254v7.09717h-31.61036q0-19.79663-5.165-29.88232A27.32294,27.32294,0,0,0,3032.21,460.28564q-11.14014-3.73534-31.05078-3.73632-29.74658,0-43.30957,5.72851-13.56593,5.72754-18.04492,20.85547-4.481,15.12744-4.48047,47.87451v21.91407q0,29.01269,3.29785,43.70312a33.96754,33.96754,0,0,0,16.11621,22.47461q12.81738,7.78272,40.32227,7.78125,26.25732,0,38.70508-3.42383a26.7505,26.7505,0,0,0,17.92089-15.19043Q3057.16211,596.501,3057.16211,571.34961Z"/><path class="cls-1" d="M3157.5752,338.76172V457.67041q10.45458-17.92968,27.06835-23.53271,16.61427-5.603,42.251-5.603,31.23633,0,48.97266,7.28418a46.95363,46.95363,0,0,1,25.69922,24.59082q7.96289,17.30859,7.96484,48.68408V651.41016h-33.10449V509.09375a27.25605,27.25605,0,0,1,.498-6.10156q0-20.0442-5.165-30.38037a27.64293,27.64293,0,0,0-16.24122-14.19434q-11.07714-3.85841-31.1123-3.85986-27.38087,0-41.75391,7.09717a38.06683,38.06683,0,0,0-19.72558,22.16308q-5.35254,15.06738-5.35156,42.08447V651.41016h-32.1084V338.76172Z"/><path class="cls-1" d="M3720.4043,584.54688H3563.27637l-23.40723,66.86328h-37.72559l114.17286-312.64844h50.05273l115.666,312.64844h-36.72852Zm-9.21289-28.01465-69.35059-192.24561L3572.9873,556.53223Z"/><path class="cls-1" d="M3817.85742,432.64355h29.49512v28.51319q12.44385-19.17261,30.98828-26.39649,18.542-7.21947,43.93164-7.22168,29.86816,0,46.98047,7.3462a46.44123,46.44123,0,0,1,24.82812,24.65283q7.71534,17.30859,7.7168,47.06592V651.41016h-33.10449V509.09375q0-22.16089-4.10742-33.61865a26.601,26.601,0,0,0-15.36914-16.18555q-11.26613-4.73145-34.03809-4.73193-64.71533,0-64.71484,62.75293V651.41016h-32.60645Z"/><path class="cls-1" d="M4228.65332,432.64355v233.085q0,32.74658-10.3291,50.67675-10.33155,17.9297-30.86426,24.65332-20.53417,6.72365-54.63476,6.72364-30.49219,0-48.41114-4.85645-17.92089-4.8545-27.31738-20.23242-9.39845-15.37939-9.39648-45.75781h31.11328q.74706,19.29784,5.53808,28.88672a24.14942,24.14942,0,0,0,14.9961,12.76171q10.20409,3.17579,29.86914,3.17579,24.76318,0,38.7041-3.42481a34.594,34.594,0,0,0,21.53027-15.06543q7.58935-11.644,7.5918-35.05078V624.39063q-9.58447,18.30468-27.50391,23.90625-17.92089,5.60448-44.30468,5.60351-33.60205,0-52.39454-12.13965-18.79394-12.14062-25.76171-34.30371-6.9712-22.16016-6.96973-56.0293,0-30.50536,2.42773-51.17431,2.42578-20.66748,11.1377-36.60645,8.71-15.93676,26.75781-24.77783,18.04248-8.83961,48.28711-8.84033,24.51563,0,41.50488,6.63623,16.9878,6.63575,28.4375,24.3667l-1.61816-28.38819ZM4074.209,549.37891q0,29.90625,3.04883,45.10644a35.92307,35.92307,0,0,0,16.11621,23.79883q13.06788,8.59717,41.56739,8.59668,26.75536,0,41.94043-10.71484,15.18163-10.71681,17.67187-36.75879,1.49413-18.31494,1.49317-37.75391,0-31.897-3.04883-48.22119a40.75947,40.75947,0,0,0-16.17871-26.10449q-13.13234-9.78223-41.87793-9.78223-25.26562,0-38.02051,5.60742-12.75732,5.60889-17.73438,19.56348-4.979,13.95556-4.97754,41.11767Z"/><path class="cls-1" d="M4425.89063,584.49121h34.22363q0,30.78076-11.1377,45.79492-11.14014,15.01758-30.30468,19.31446-19.166,4.29931-51.89649,4.2998-30.73974,0-49.84277-5.47851-19.10449-5.47706-29.49512-17.74317-10.39307-12.2622-14.43652-32.24805-4.0459-19.98486-4.04493-51.61035,0-43.33008,5.72559-67.29834,5.72167-23.96777,25.69922-36.97949,19.97461-13.01,61.292-13.01172,41.19288,0,61.85254,8.5293a48.70167,48.70167,0,0,1,28.31348,29.50879q7.65381,20.98242,8.27539,63.439v16.9336H4303.05664q0,30.20946,2.79981,45.75a38.26188,38.26188,0,0,0,15.43261,24.86328q12.62988,9.32373,40.38379,9.32226h8.71192q27.37793,0,41.44238-6.52441,14.0625-6.52589,14.06348-29.65137Zm.62207-62.07519q0-29.50929-3.7959-43.20459a27.88218,27.88218,0,0,0-16.80078-19.17579q-13.00635-5.477-41.62891-5.478-25.14111,0-38.207,6.03857-13.06788,6.041-18.0459,20.35742-4.979,14.32032-4.97754,41.46241Z"/><path class="cls-1" d="M4493.69727,432.64355h31.61035l-.498,25.02686q18.668-30.1311,59.61231-30.13184,63.21972,0,63.22167,77.44581H4616.0332q0-25.27369-7.59179-37.85108-7.59229-12.57422-31.11328-12.57568-51.02637,0-51.0254,51.0498V651.41016h-32.60546Z"/><path class="cls-1" d="M4864.29492,489.17236h-32.60644q0-21.041-13.31641-27.8291-13.31837-6.78516-36.71387-6.78564h-16.30273q-23.14893,0-35.0332,6.78564-11.88574,6.78809-11.88575,26.833,0,13.57178,2.61426,20.606a18.0855,18.0855,0,0,0,9.458,10.334q6.84228,3.3003,20.65918,4.2959,22.40185.49952,44.05566.99609,21.6548.49952,38.082,5.2295a50.5305,50.5305,0,0,1,26.75782,18.17871q10.32861,13.44726,10.3291,38.84765,0,30.13331-11.02149,44.6377-11.02294,14.50635-30.13867,18.55176-19.11768,4.04442-51.12109,4.04687-29.14161,0-48.63086-3.48828-19.49121-3.4878-32.62793-16.50781-13.13818-13.021-13.1377-39.6836a101.50289,101.50289,0,0,1,.5-12.21h32.72266q0,19.51611,4.916,29.39844a25.80019,25.80019,0,0,0,15.74316,13.42383q10.82813,3.542,31.36426,3.542h7.59082q38.83008,0,51.02929-8.7002,9.70752-6.83349,9.708-31.57324,0-21.501-10.081-27.2832-10.08107-5.77881-31.23731-5.78027h-13.3164a17.377,17.377,0,0,1-2.98731-.49805,17.23025,17.23025,0,0,0-3.11133-.498q-32.27782-1.99073-42.61816-3.05078a75.06964,75.06964,0,0,1-22.55566-6.47461,41.02087,41.02087,0,0,1-19.19043-17.43164q-6.97706-12.01464-6.97754-32.8081,0-38.97071,15.81543-49.9292,22.043-15.8108,70.86133-15.813,27.022,0,46.69921,4.1709,19.67726,4.17333,32.68946,17.55664Q4864.29443,463.648,4864.29492,489.17236Z"/></g><g id="icons"><g id="Logo_bde"><path class="cls-2" d="M5538.03465,417.872a49.569,49.569,0,0,1-4.36082-5.99835q-47.1259-68.73993-124.75375-99.07246c-.69574-.27007-1.38379-.56208-2.06389-.86941a9.92109,9.92109,0,0,1-1.01857-.676,41.7472,41.7472,0,0,1,5.36892-1.49543c5.18549-.71683,9.9285-3.05895,14.99081-4.02277,2.77568-.52846,5.40423-1.35942,8.10593-2.03747,1.5668-.39321.49541,1.40909,1.14821,2.01186.5921-.76357.40631-1.761,1.38707-2.58212,2.30833-1.93277,1.97739-5.10361,2.27059-7.80486,1.38012-12.71787-.37887-25.28937-1.906-37.88577-1.70155-14.0353-7.42186-26.24482-16.0191-37.27994-6.19-7.94535-8.01947-17.30546-8.50136-27.04832-.75031-15.17214,2.39181-29.824,5.68411-44.51167,2.07638-9.26306.74638-18.126-6.70575-25.00983-6.375-5.88888-14.2845-8.43412-22.95814-10.17442a58.15779,58.15779,0,0,1,2.83193,13.6279c.433,8.25881-2.33382,15.76373-5.15089,23.27847q-.41424.02845-.82857.05684c2.28369-8.83468,3.42454-17.75,1.92022-26.85674a62.1374,62.1374,0,0,0-2.09629-8.1218,3.96419,3.96419,0,0,0-3.75969-3.09735,175.97613,175.97613,0,0,0-33.74274-.30409c-30.08146,2.244-59.41209,8.55235-88.41755,16.54422-16.2901,4.4884-32.473,9.38228-48.13377,15.744-14.60852,5.93433-29.76111,8.35849-45.39381,8.27965-2.74231-.01384-2.75057.67179-1.626,2.7382a69.3028,69.3028,0,0,1,3.28591,7.11462c.73182,1.806,1.78991,2.3766,3.80779,2.37224,24.37419-.05265,47.1538-6.64507,69.12808-16.61926,3.40008-1.54329,6.73245-3.24131,10.1679-4.69854a3.18421,3.18421,0,0,0,2.32894-3.2597,25.61817,25.61817,0,0,1,1.16652-6.86307c.96372-3,3.03111-3.32737,5.24983-1.088a13.65329,13.65329,0,0,1,1.25832,1.498c2.59654,3.51059,2.61529,3.56364,6.74515,1.68023,9.439-4.30466,18.91381-8.72952,29.31113-9.919,13.85223-1.58469,27.57307-1.1133,40.29593,5.74474a37.4748,37.4748,0,0,1,8.16393,6.32887,46.98975,46.98975,0,0,0,4.77945,4.29966c2.31767,1.69591,4.46822,1.39867,6.56917-.58,2.584-2.43367,3.95283-5.61713,5.398-8.75626.61745-1.34132-.1717-1.81941-1.227-2.277-3.92841-1.70345-8.0102-1.55262-12.1183-1.04961a29.35683,29.35683,0,0,1-3.92023.43495,21.31589,21.31589,0,0,1,12.07793-5.16807,20.39536,20.39536,0,0,1,4.75419-.01509c4.58528.6104,8.85468,1.86356,10.61412,6.86234,1.82287,5.17906,2.41093,10.22088-1.94674,14.58786a9.204,9.204,0,0,1-4.22125,2.31166c1.06869-2.71447,1.85346-5.046,1.06831-8.28431a31.26966,31.26966,0,0,1-9.49628,11.4728c-9.23875,6.95787-19.88215,10.54711-31.04067,12.8022-17.844,3.60618-35.55995,2.5091-53.32931-1.0598a124.7956,124.7956,0,0,0-35.11672-1.64933,3.59822,3.59822,0,0,0-3.042,1.97055,48.86091,48.86091,0,0,1-9.47831,11.32906,10.69177,10.69177,0,0,1-2.06864,1.4089c-2.5475,1.25994-3.80831.65816-3.88463-2.12027-.06865-2.50023.31443-5.01195.47628-7.52.05328-.82538.91922-1.96185-.52726-2.317a2.05673,2.05673,0,0,0-2.51774,1.29724c-1.18385,2.90692-3.204,5.23522-5.17865,7.59929a25.26993,25.26993,0,0,1-6.58816,6.00445c-2.66866,1.53653-3.78057.952-3.90707-2.06289-.09334-2.22438.00781-4.46229.13011-6.68826.06966-1.26834-.20855-1.66543-1.55948-1.31325a5.71078,5.71078,0,0,0-3.41621,2.18327,38.32529,38.32529,0,0,1-8.52294,8.42631,11.42534,11.42534,0,0,1-2.14989,1.29513c-3.22336,1.35949-4.28558.55707-4.08323-2.92226.10289-1.7691,1.54087-4.03.08027-5.14487-1.10908-.8466-3.40186-.17536-5.1664-.12532-17.56435.49793-34.76537-2.11861-51.85116-5.8901-7.9857-1.76274-15.87638-4.32762-24.23511-3.62922-5.59761.4677-11.15013,1.17162-16.16812,3.9831-3.8786,2.17308-4.59857,4.68978-2.52721,8.604,4.06219,7.67631,13.65632,12.665,22.99353,11.77432-3.94683-4.06489-7.29507-8.32952-7.94793-14.23514,2.19559,2.29549,4.26462,4.72989,6.60711,6.86418,16.36817,14.91329,35.41907,19.39932,56.86574,14.48807,9.54016-2.18465,18.96337-4.99064,28.79545-5.68474,13.81073-.975,27.11109,1.42606,40.14293,5.909a192.95024,192.95024,0,0,0,31.44133,7.79134c13.64086,2.251,27.31954,3.96149,41.1635,3.49236,27.96745-.94769,53.90926-8.33567,76.95053-24.69655a12.52121,12.52121,0,0,1,1.1697-.76643c.121-.067.3284.0219,1.155.108a246.86442,246.86442,0,0,1-50.04206,55.02208,232.74908,232.74908,0,0,1,44.73124-6.96523c15.08576-.78179,30.27536-.74645,45.02365,3.81351-2.18272.40183-4.37536-.09991-6.53861-.15717-2.2075-.05842-4.41923-.50662-6.65748-.391q-.30666-.00155-.61325-.00272c-12.00238-.24791-23.86444,1.20407-35.75213,2.65219a303.90932,303.90932,0,0,0-45.08574,9.10151,177.59426,177.59426,0,0,0-28.67133,10.41976c-6.26063,2.97853-10.30676,7.92656-13.53074,13.77595-4.95892,8.9972-7.8849,18.7713-10.862,28.524-.43445,1.4232-4.25506,3.207-5.48886,2.51134-.98823-.55711-.304-1.3837-.1404-1.96728a190.9031,190.9031,0,0,1,6.40793-19.74336c2.62825-6.54182,5.51744-12.95332,9.646-18.72345.968-1.35287.06932-1.9291-.98-2.51092a122.35269,122.35269,0,0,0-19.42855-8.80884,148.66548,148.66548,0,0,0-19.97019-5.53225c-7.973-1.55277-16.01018-2.71214-24.08414-3.61461-7.61807-.85151-15.28893-.72754-22.93894-1.38763a53.68133,53.68133,0,0,1,11.06441-1.41679c7.34379.11957,14.71082-.42446,22.02521.52438a176.39935,176.39935,0,0,1,23.24357,4.30077c5.41044,1.45627,10.88965,2.6667,16.26851,4.227a97.79444,97.79444,0,0,1,9.9705,3.11855c6.06729,2.49675,11.66369,2.5883,17.72454-.24394,6.86108-3.20616,14.18631-5.34673,21.41027-7.67a6.78508,6.78508,0,0,0,2.96593-2.07287q-6.67267.50782-13.34534,1.01568c-7.09869.54033-14.22963.85808-21.32424,1.01331-8.01681.17544-15.97543,1.3987-23.99649,1.07135a13.60532,13.60532,0,0,1-10.53068-5.76846,4.73083,4.73083,0,0,1-.35132-4.77887,17.178,17.178,0,0,0,1.64721-7.1036c-13.7863,6.92813-28.92973,5.28745-43.30166,7.90524a168.58031,168.58031,0,0,0-20.18245,4.55466c-1.35631.42369-2.43512.88505-2.68742,2.70036-1.15405,8.30338-6.07388,14.07806-13.018,18.24435-3.83548,2.30119-7.87223,4.27116-11.84987,6.3293-1.87135.96828-1.885,1.77209-.32405,3.22807,6.46617,6.03156,14.06957,9.9793,22.25505,13.15918,10.811,4.19984,16.79372,12.62811,19.23085,23.73276.98,4.4654,1.54042,9.03355,2.9713,13.38512.607,1.84576-.60245,2.049-1.66144,2.53059a256.62018,256.62018,0,0,0-41.09376,23.32054q-68.178,47.7378-97.61827,125.615a266.4449,266.4449,0,0,0-10.53488,35.64807c-.17626.78525-.00494,1.93069-.95317,2.11911-.86906.17269-1.35529-.865-1.92031-1.45365-5.22212-5.44074-7.39975-12.45864-9.83858-19.3079-5.02484-14.11181-8.94713-28.47712-9.76832-43.54741a68.2588,68.2588,0,0,1,11.94592-42.84254c10.4493-15.59157,21.47308-30.77949,32.10182-46.24371,1.0983-1.598,1.294-2.60426-.04462-4.313-7.93833-10.13376-7.17493-20.87074-1.745-31.78848.60117-1.2087,1.24784-2.04418-.13161-3.35331-11.03323-10.47078-9.763-25.201-.05783-36.05255,3.49743-3.91058,7.65846-7.10571,11.69318-10.4262a5.52633,5.52633,0,0,0,2.20611-3.08035c5.48154-23.1022,20.06467-37.27729,42.76408-43.45146a91.54913,91.54913,0,0,1,14.592-2.55047,6.3166,6.3166,0,0,0,3.32934-1.24274c2.97967-2.24828,6.07108-4.3494,9.03287-6.62015,4.42629-3.39348,8.92639-2.66564,13.37054-.25341a25.72371,25.72371,0,0,1,9.47268,8.95384c1.0554,1.65889,2.08663,2.13769,4.10082,1.33848a182.47621,182.47621,0,0,1,43.71917-11.601c3.31189-.43325,6.65671-.61463,10.07015-.91947-.65969-1.16636-1.907-1.16934-2.87766-1.5387-11.35772-4.32211-22.93512-7.72487-35.085-9.115-9.88129-1.13057-19.24775,1.31813-28.75283,3.19571-14.52911,2.87-29.16,4.47683-43.9336,1.98672-4.79386-.808-9.48892-2.09306-13.55849-4.94138a4.73218,4.73218,0,0,0-3.17957-.67061c-7.87152.33352-15.68065.08342-23.15235-2.83459-9.69553-3.78653-16.1652-10.51412-18.61828-20.76551-.44563-1.86229-1.01252-3.02516-3.21417-2.88955a16.64742,16.64742,0,0,1-3.87165-.52733c-7.86076-1.42128-12.373-6.87017-12.44113-14.8801a36.86212,36.86212,0,0,1,2.89811-14.17167,4.11211,4.11211,0,0,0-.25284-4.12286c-3.70262-6.23679-2.23437-16.75247,2.9007-21.91026,5.0423-5.0646,11.09981-4.51763,17.26368-2.95939a35.70291,35.70291,0,0,1,8.23421,3.494,2.93793,2.93793,0,0,0,2.87878.22619,50.30017,50.30017,0,0,1,21.01063-4.00643c1.21172.01074,2.30441.01858,3.248-1.12355,4.84908-5.8697,11.1968-6.89282,18.23812-5.33685a24.62365,24.62365,0,0,1,6.84847,2.38231c5.74521,3.23076,11.7894,2.06052,17.74476,1.08373,8.97263-1.47169,17.08738-5.22367,24.82917-9.8805a182.46216,182.46216,0,0,1,28.964-13.9856c1.83827-.70309,2.86676-1.51871,3.10413-3.665a30.10821,30.10821,0,0,1,3.0991-10.69409c.66608-1.275.2341-2.01114-.55909-2.94143a15.76,15.76,0,0,1-3.65626-8.043c-.71289-4.76069,1.41386-8.46647,6.02821-10.06222,9.07044-3.13677,18.316-3.06416,27.55493-1.01315,3,.666,5.33877.67788,8.00978-1.3654,5.86609-4.4875,12.932-6.07629,20.13572-6.953a61.22558,61.22558,0,0,1,15.07845-.18186,8.50813,8.50813,0,0,0,4.83863-.95131c13.446-6.34714,27.36109-11.03136,42.43054-11.15367a39.086,39.086,0,0,1,16.89772,3.19791,4.02866,4.02866,0,0,0,2.41761.33121,134.19988,134.19988,0,0,1,44.00162.3368c10.5177,1.92492,20.57543,5.37572,29.62427,11.298.82453.53962,2.08955.94114,1.95043,2.14448-.16488,1.42631-1.64071,1.38212-2.65352,1.59143-7.21164,1.49043-14.56979,2.29366-21.59844,4.63683a25.47019,25.47019,0,0,0-8.03268,4.10389c2.13513,1.11792,4.22283.5603,6.20625.81431,17.02657,2.1805,33.97619,4.73235,50.3965,9.99191,10.44238,3.34477,20.504,7.49673,29.70847,13.5415a24.42924,24.42924,0,0,1,2.27709,1.63041c.696.5816,1.63219,1.106,1.45492,2.21724-.182,1.14082-1.262,1.36894-2.11888,1.55322-3.37082.72485-6.775,1.29293-10.15237,1.98916-6.58306,1.35709-13.20653,2.61078-18.93714,6.47553-.69653.46974-1.72454.86789-1.75143,1.671-.03381,1.01017,1.192.95433,1.90687,1.30181,20.74938,10.08609,40.65811,21.42415,56.8246,38.30121a70.095,70.095,0,0,1,5.10819,5.94089c1.50758,1.97558,1.0894,3.19754-1.30591,3.93177a32.37581,32.37581,0,0,1-9.42244,1.09375q-10.50039.04626-21.00059.11435c-.51152.00409-1.1168-.23926-1.75407.53068,1.85063,1.49861,3.71117,2.96618,5.5297,4.48411,14.48175,12.08792,26.75532,25.99474,35.26856,42.9767.42526.84832,1.52937,1.79232.73317,2.74731-.74412.89247-2.05629.68175-3.17823.54463-8.23307-1.00635-16.35283-2.899-24.67935-3.16885-1.485-.04814-2.97283-.00684-4.4597-.00684-.26066,1.06171.65218,1.32927,1.12655,1.78847a69.23679,69.23679,0,0,1,13.95719,18.80226,4.103,4.103,0,0,0,3.42533,2.38695c12.72491,2.12967,24.82511,6.04968,35.65618,13.22362,15.03909,9.96106,23.81226,24.04722,27.3141,41.67274,2.45466,12.35487,1.76659,24.68825.45472,37.0483a3.55113,3.55113,0,0,0,1.70562,3.671c19.73772,15.17319,30.52051,35.33378,33.07355,59.98686,1.37239,13.25217-.34948,26.244-3.615,39.07344-.394,1.54785-.47745,2.71087.77751,4.04107,14.52948,15.40041,16.91521,34.47643,6.71,53.08295a24.82545,24.82545,0,0,1-3.22633,5.22754c-5.103,5.4186-6.6673,12.57682-9.72974,18.99808-4.63681,9.72238-11.69807,17.46525-19.97186,24.20211-.68845.56055-1.70469.87007-1.79817,1.98629h-1.12118c.01423-5.172-1.43169-10.11546-2.52929-15.08929a262.41148,262.41148,0,0,0-32.07514-80.05755m-71.90019-280.45757a.83085.83085,0,0,0-.13755-.22117c-.0389-.03339-.12694-.00952-.19291-.01137l.30322.26041.44012.67955a5.4115,5.4115,0,0,0,2.37683,2.67223c11.21487,12.16817,21.84253,24.75666,28.63769,40.08107.28317.63855.61123,1.19693,1.37085,1.20376,2.56234.023,5.12506.00877,7.61319.00877.22853-.79493-.1798-1.10008-.41319-1.48431a130.75053,130.75053,0,0,0-13.83209-18.58479,170.83435,170.83435,0,0,0-22.75226-21.85228,5.23711,5.23711,0,0,0-2.8012-2.24889Q5469.119,142.72871,5468.81259,142.47732Zm-29.7213-46.511-.38185-.34335-.11541.22158.516.09954a22.5956,22.5956,0,0,0,6.69241,3.96542c6.30424,4.14337,12.69911,8.15634,18.89081,12.46155,8.66238,6.02312,17.16659,12.37843,23.77647,20.65143,2.63563,3.29883,5.19144,3.88675,8.72537,3.12143.86155-.18659,2.0963-.08793,2.35763-1.15.21632-.879-.78583-1.40134-1.35661-1.98628-14.90753-15.27819-33.01833-25.65227-52.34378-34.16392C5443.64974,97.76476,5441.597,96.33358,5439.09129,95.96633Zm-44.82192-36.36068c-3.31823-.75745-6.64817-1.40367-10.146-.745l9.6169,1.70115c7.38432,1.88391,14.82531,3.57244,22.14062,5.69426,13.35205,3.87281,26.552,8.18605,38.15765,16.2033.4757.32863.95736.70721,1.52393.53224,3.19455-.9865,6.37425-2.021,10.06-3.19937-1.42385-.772-2.30631-1.27592-3.21059-1.73706-12.45694-6.35233-25.72865-10.35513-39.30108-13.405A231.864,231.864,0,0,0,5394.26937,59.60565Zm-343.6639,429.88584a13.0979,13.0979,0,0,0,2.93435,5.37029,26.82317,26.82317,0,0,0-2.36345-6.4992,170.5316,170.5316,0,0,1-7.80385-41.63069c-.52353-7.89037-.61491-15.85732,1.59873-23.60073,2.40512-8.41323,6.54914-16.01814,11.06378-23.44229a141.24408,141.24408,0,0,0,9.71577-18.735,71.89438,71.89438,0,0,0-12.56293,14.88881c-8.75593,13.17841-14.14064,27.45561-13.67308,43.52124a146.431,146.431,0,0,0,1.6336,17.23378C5042.8386,467.98218,5045.57494,479.0669,5050.60547,489.49149Zm510.63682-170.46921a88.00522,88.00522,0,0,0,1.84545-12.69769c1.39843-12.59123,1.399-25.1324-1.32815-37.55512-4.3394-19.76605-15.17444-34.401-34.11449-42.42918-13.03583-5.52557-26.75823-6.9168-40.77564-6.67869a135.22365,135.22365,0,0,0-37.14774,5.77412c-1.82832-.056-3.41192.64948-5.72726,1.72327a26.83362,26.83362,0,0,0,8.01522-1.1105q4.32078-.3772,8.64155-.75485c16.80886-1.486,33.50628-1.289,49.87433,3.47029,22.64564,6.58456,38.293,20.64364,45.85489,43.2226,4.82677,14.41222,5.3374,29.26784,4.32776,44.26175a1.44348,1.44348,0,0,0-.29692,1.77124q-.034.4693-.068.93861l-1.65436,11.84365C5559.93412,326.94738,5561.18764,323.10661,5561.24229,319.02228Zm-481.0207-162.42213a20.09764,20.09764,0,0,1,2.33157-.67591,50.245,50.245,0,0,1,15.30022.21368c11.44,1.59641,22.85563,3.371,34.26728,5.16172,1.78481.28007,2.04767-.36169,2.00263-1.89835a27.76267,27.76267,0,0,1,.21617-6.97135c.56685-2.44691-.578-2.91254-2.41091-3.21848-.73565-.12279-1.46351-.29279-2.19415-.44508-8.86788-1.84838-17.59354-4.21264-25.7872-8.12929a39.2955,39.2955,0,0,0-19.24455-3.81189c-4.41871.212-8.52114,1.648-12.67841,2.83844-.24176-.75353.13848-1.03507.46182-1.36139a50.05127,50.05127,0,0,1,15.4311-10.42581,57.10056,57.10056,0,0,1,15.852-4.34689c3.0159-.39663,1.81076-2.79537,1.89813-4.12421.12448-1.89351-1.60482-.73075-2.50268-.64353a83.28822,83.28822,0,0,0-15.05507,3.01567c-9.18557,2.65315-17.63051,6.47275-23.88129,14.1907-8.33966,10.29715-7.39088,21.12358,2.59462,27.83169,1.73279,1.164,2.99648,1.45935,4.48362-.35444,1.0752-1.31137,2.80966-1.802,4.37543-2.39541,4.35207-1.64952,8.90757-1.886,13.49825-1.84448,1.989.018,1.98914.00092,3.32134-.82817C5088.61991,156.66549,5084.45349,157.31083,5080.22159,156.60015ZM5276.79305,46.85852c-2.528-.99092-4.89241-.74028-7.18854-.58568-7.697.51821-14.68259,2.69-19.53128,9.24612-4.97655,6.72905-6.06721,14.48593-5.66586,22.55362.09083,1.82544-.06008,2.72544-2.17806,2.83672a99.57659,99.57659,0,0,0-27.79976,5.85222c-12.84564,4.50527-24.5586,11.25138-36.17569,18.17921-8.3488,4.97881-17.12457,8.65866-26.89777,9.62249-1.17759.11613-2.87114-.51692-3.41443.50752-.63056,1.189,1.17184,1.82488,1.76794,2.80113.43687.71546,1.01175,1.35085,1.41086,2.08411a1.7168,1.7168,0,0,0,2.26463,1.02945c7.27975-2.25949,14.84542-3.637,21.66548-7.29764,14.53475-7.80145,28.54459-16.59072,43.72143-23.186,8.145-3.53947,16.44055-6.62074,25.24761-7.9927,1.9741-.30752,2.49849-.63337,2.45324-2.84062-.26784-13.05972,5.65993-24.47189,20.82159-25.96158,1.15966-.11394,2.40456-.093,3.38516-1.06675C5272.58887,50.74411,5274.58534,48.93588,5276.79305,46.85852Zm313.83246,387.54174a33.29867,33.29867,0,0,0,1.36548-3.743,221.601,221.601,0,0,0,5.7832-36.39757c1.015-14.86386-.13474-29.457-5.3423-43.51949-4.00922-10.82662-10.23808-20.08884-19.994-26.63758-3.84954-2.584-3.87168-2.53874-5.92369,1.42536a22.68916,22.68916,0,0,1-1.51808,2.677c-1.25852,1.78506-1.08382,2.90877.9063,4.24154a52.45487,52.45487,0,0,1,18.5876,21.88794c5.87876,12.60132,7.73695,26.02447,8.22431,39.6914A252.89178,252.89178,0,0,1,5590.62551,434.40026ZM5302.26043,152.21217a61.49469,61.49469,0,0,1,1.11462-15.29235c.3371-1.50234.82771-3.02187,2.54154-3.34792,1.71621-.3265,2.70056.949,3.604,2.18012a42.58289,42.58289,0,0,1,4.20365,7.56014,108.23523,108.23523,0,0,0,6.68058,13.218c.72513,1.13868,1.37088,2.14846,3.09036,1.55114,1.797-.62423,1.72748-1.81065,1.59072-3.31552a71.4658,71.4658,0,0,1-.036-15.909c.46749-3.52648-.153-4.50565-3.74046-5.17536a114.18173,114.18173,0,0,0-16.59265-2.01107c-6.07651-.2344-11.80167,1.26808-17.595,2.58887-.92492.21086-1.8546.47353-.97891,1.852,4.16685,6.55966,6.79415,13.90108,10.443,20.72555.658,1.23066,1.50194,2.36239,2.15138,3.59695a2.33093,2.33093,0,0,0,2.73882,1.42115c1.32423-.31663.73531-1.53549.7593-2.36441C5302.30562,157.06615,5302.26043,154.6385,5302.26043,152.21217ZM5083.72189,312.3357c-1.07849-2.02771-1.93061-3.46983-2.63528-4.98072-4.43586-9.51116-3.068-17.79573,4.03873-25.45581a147.90269,147.90269,0,0,1,18.75607-16.74347c15.24454-11.6591,30.63629-23.12562,45.89187-34.77043,4.661-3.5578,9.32473-7.17379,12.893-11.93338.46535-.62073,1.5058-1.22846.86854-2.11631-.49656-.69181-1.5471-.50877-2.36271-.4485-2.74379.20275-4.42271,2.25278-6.29586,3.86061-6.29091,5.39979-12.18243,11.26968-18.81766,16.2626-16.15631,12.15746-32.44826,24.13945-47.91328,37.1851-5.85678,4.94053-10.77617,10.566-12.95939,18.16763C5072.78519,299.7218,5075.66991,307.254,5083.72189,312.3357ZM5257.38245,72.33679c1.99827-.41154,2.00855-.39778,3.09221-1.20786a260.50657,260.50657,0,0,1,31.84687-20.67678c13.9663-7.56241,28.37964-13.65661,44.91713-14.08217a51.94582,51.94582,0,0,0-22.112-.5864C5291.27217,40.45864,5273.65034,54.9628,5257.38245,72.33679Zm-2.63312,142.67081c-.07809-2.19421-1.20925-1.86734-2.06919-1.80429-5.663.41517-11.26766,1.28427-16.85744,2.25457-16.18162,2.80892-32.0017,6.906-47.17542,13.28937-.94762.39863-2.51273.54427-1.77073,2.17842.66407,1.46257,1.78274.36686,2.63342.11067,14.97116-4.50851,30.09946-8.37721,45.43073-11.4682,5.73865-1.157,11.44841-2.44154,17.23931-3.33719C5253.21911,216.07022,5254.81872,216.20147,5254.74933,215.0076Zm-199.336,187.72732a8.20736,8.20736,0,0,0,4.6727-2.89944c10.6881-10.924,18.30141-23.89228,25.00714-37.48326,1.02465-2.07669.53416-3.97853.22409-5.98265a1.49081,1.49081,0,0,0-1.23895-1.35117c-.8367-.1163-.98483.711-1.263,1.26625C5074.83673,372.20818,5066.54013,387.94492,5055.41335,402.73492ZM5405.37927,41.25613c-10.19155-5.69816-35.57653-6.93949-46.52609-4.61065,1.58422,3.39063,4.23042,3.88929,7.76,3.58532,10.8189-.9317,21.62988-.58825,32.18384,2.2357C5401.32793,43.14369,5403.27384,42.98951,5405.37927,41.25613ZM5278.131,142.17867c0-.88564-.00539-1.35264.00089-1.81949.03853-2.867-.069-2.97146-2.72391-1.67842-2.68237,1.30644-5.28695,2.77219-7.96385,4.09047-1.283.63181-1.54318,1.35381-.84237,2.63633,1.69851,3.10841,3.29837,6.27077,4.93518,9.41286a6.05276,6.05276,0,0,0,4.12323,2.98584c2.25876.65611,2.51945-.17445,2.45677-2.09181C5277.965,151.06548,5277.45157,146.41123,5278.131,142.17867ZM5097.56356,257.88081c1.48044-1.08794,2.4525-1.76792,3.38153-2.50236a4.7516,4.7516,0,0,0,.918-1.04421c5.91771-8.58949,13.927-14.61481,23.21791-19.12808,3.94217-1.915,6.561-5.48546,9.9509-8.10368C5120.69959,230.35227,5104.84131,241.6844,5097.56356,257.88081Zm209.78684-183.037c-8.06528,1.57637-13.71231,6.1947-19.676,11.41131a43.14033,43.14033,0,0,0,22.7317-2.251C5304.6863,82.661,5303.7866,80.12759,5307.3504,74.84377Zm-200.7328,52.38767c1.181-.28186,1.43778-1.35638,1.965-2.1916,1.2407-1.96537,2.37813-4.00909,3.764-5.867,3.05175-4.09131,6.55034-6.84721,12.30852-5.39231,6.113,1.54456,12.037,3.128,16.65705,7.80186,1.27095,1.28574,1.66158,3.14534,3.10732,4.61151a6.76926,6.76926,0,0,0-1.60638-6.32785c-6.06945-7.0225-14.20451-9.53018-23.04393-8.88545C5113.64958,111.427,5107.52217,119.77334,5106.6176,127.23144Zm-23.35032,186.79782c-8.08224,15.21772-4.35024,34.12065,11.848,42.57028C5082.88285,344.92939,5079.923,330.632,5083.26728,314.02926ZM5288.323,161.12969c1.09024.23164,1.62268-.03094,1.274-1.28584-1.79094-6.44577-3.54552-12.90165-5.34542-19.3449-.22395-.80179-.649-1.72241-1.61682-1.6419-.88622.07372-.888,1.02008-1.0257,1.7551-1.15136,6.14693-.08291,12.2196.58584,18.30612a1.50838,1.50838,0,0,0,1.46862,1.40507C5285.22,160.57136,5286.77021,160.85871,5288.323,161.12969Zm190.99608,30.18294c3.13583,7.15635,6.42437,14.11274,8.67672,21.50363a1.46758,1.46758,0,0,0,1.41886,1.14609c2.17115.0487,4.34409.018,6.88125.018A83.615,83.615,0,0,0,5479.31909,191.31263ZM5215.016,58.69944c5.00132-5.11478,10.37446-4.02907,15.75344-2.49539a61.68,61.68,0,0,1,6.03007,2.188c2.33221.93707,1.916-1.3564,2.644-2.23312.73913-.89011.85377-1.793-.54993-2.40428-6.66715-2.90323-13.47453-3.527-20.40151-1.16376C5216.02842,53.43139,5215.2036,55.53477,5215.016,58.69944Zm93.96435,102.72844c4.27255-.11986,4.7462-.75941,3.6158-4.74348-.68422-2.41147-1.33931-4.8312-2.02374-7.2426-.68274-2.40556-1.39089-4.80389-2.07715-7.20846-.22671-.7944-.299-1.87955-1.36539-1.80008-1.05391.07853-.85483,1.28114-1.14623,2.0056a4.26985,4.26985,0,0,0-.14627,1.37739c-.23451,5.51456.69454,10.91759,1.52773,16.33422C5307.53583,161.26016,5308.06,161.56707,5308.98038,161.42788Zm-152.89793-2.53522a30.63293,30.63293,0,0,0,.47991,6.65784c.17664.95335-.237,2.30261,1.16022,2.50012a35.09551,35.09551,0,0,0,5.50714.25761c.463-.00807.39532-.71687.24669-1.19085-1.52587-4.86575-3.03322-9.73733-4.57417-14.59827-.16076-.50712-.40414-1.1231-1.089-1.08678-.63869.03386-.928.5932-1.1111,1.11764A17.67005,17.67005,0,0,0,5156.08245,158.89266Zm100.30311-15.0614a45.17485,45.17485,0,0,0,.49519,6.96831c.42419,3.503,1.57471,4.50215,5.18417,4.49452,1.384-.00293,1.63513-.59309,1.31848-1.71935-1.45983-5.1925-2.92125-10.38467-4.42167-15.56549-.16665-.57543-.25-1.47773-1.08385-1.42574-.90324.05634-1.02888.966-1.20734,1.67275A23.02572,23.02572,0,0,0,5256.38556,143.83126Zm-112.5642,7.64292c1.63176,3.61966,3.29458,7.24266,4.89566,10.89273.6251,1.42509,1.77455,1.43308,3.0336,1.39334.9532-.03006,1.3876-.47459,1.26951-1.39876-.42436-3.32133,1.32679-7.26429-.48588-9.79577-1.44046-2.01168-5.427-.86257-8.25592-1.32165C5144.20428,151.232,5144.1135,151.323,5143.82136,151.47418Zm184.79273-8.26511a59.36134,59.36134,0,0,0,1.10681,10.16627c.15058.7774-.283,2.61351,1.43712,1.895,1.328-.55466,3.82723-.50068,3.31738-2.95957-1.05771-5.1011-2.35167-10.1534-3.56342-15.22219-.14586-.61-.1717-1.509-.97662-1.496-.915.01479-1.063.96727-1.16073,1.66928A19.1965,19.1965,0,0,0,5328.61409,143.20907Zm-191.6509,14.10687c-.14632,1.54941.35468,3.83952.59569,6.1509.22446,2.15269,3.27392,3.93947,5.33421,3.15773a.99707.99707,0,0,0,.63828-1.33482c-1.19945-4.85208-1.80715-9.86271-3.8395-14.49189-.22356-.50922-.53972-1.03561-1.21233-.97965-.67675.0563-.81053.64363-1.01143,1.16924C5136.7792,152.7898,5137.05619,154.6678,5136.96319,157.31594Zm115.163,75.15156c6.4959-3.36513,10.02374-9.04772,12.61154-15.57426.94095-2.37307-.18006-2.85216-2.03079-3.365-2.36447-.65521-2.02261,1.1099-2.346,2.36232-.324,1.2547-.65141,2.51189-1.058,3.74129C5257.73725,224.366,5254.74372,228.2866,5252.12624,232.4675Zm-22.52406-74.612c-1.4965.81043-4.201-.37853-4.95253,1.99168a35.88982,35.88982,0,0,0-1.87808,10.121c-.01365.703-.27052,1.62675.58357,1.99789.85751.3726,1.3631-.422,1.8373-.94807,3.087-3.42489,3.95149-7.94179,5.79373-11.97725C5231.4711,157.97851,5230.64007,157.79005,5229.60218,157.85547Zm79.44506-83.35879c.88844.54189,1.17953.74293,1.49069.90557,2.94936,1.54174,2.98636,1.66456.84486,4.02988-.799.88249-.51818,1.587.077,2.46144.55977.82243.95365,1.0794,1.95375.57978a32.83834,32.83834,0,0,0,7.87842-6.10353c.66546-.63882,1.03177-1.67044-.22038-1.90536C5317.31149,73.75906,5313.50994,72.866,5309.04724,74.49668Zm-104.73382,97.86509c.20964.791-.57332,2.36715.79252,2.71538,1.3269.33827,2.02666-1.06026,2.50852-2.16762,1.36491-3.13679,2.67033-6.29957,3.99016-9.45588.2389-.57126.72461-1.19269-.05763-1.712-1.06038-.704-5.6453,1.11373-5.88055,2.43732C5205.19664,166.82216,5204.31537,169.39983,5204.31342,172.36177Zm11.93608-92.75a31.57417,31.57417,0,0,0,5.20792-1.532c1.46826-.68809-.33487-2.19124.279-3.272.13293-.234.1034-.56088.23792-.79335.83125-1.43659.22936-2.00287-1.19179-2.50844-3.82652-1.36128-4.12967-1.32347-5.3774,2.43419a31.16309,31.16309,0,0,0-.89828,4.32135C5214.317,79.31824,5214.73424,79.87051,5216.2495,79.61173Zm-22.72221,86.79976c-2.67865.3531-5.24458-.069-6.37472,1.85664-1.2318,2.09892-1.709,4.69415-2.24216,7.1327-.422,1.93014.81822,2.25245,2.36531,1.6859a3.99721,3.99721,0,0,0,2.11258-2.135C5190.70153,172.30279,5191.9708,169.6321,5193.52729,166.41149Zm55.75216-13.33422c1.07923.75282,2.1389.33533,3.11268.41933,1.14927.09914,1.01757-.8768.90347-1.59753-.18725-1.18281-.959-.60885-1.44681-.32224C5251.059,152.04079,5250.01626,152.04022,5249.27945,153.07727Zm72.83681,83.91977c-.04267-.06366-.07425-.16518-.13071-.18174a.66005.66005,0,0,0-.26092.034l.161.2834Zm-68.85391-14.69161-.09693.15417.13719.02363Z"/><path class="cls-3" d="M5244.52746,947.13743V892.25736h26.97767q9.48056,0,12.929,3.03339,3.43109,3.0285,3.43618,11.43746,0,10.15959-8.08072,11.97469v.20878c6.271.95477,9.40875,5.32078,9.40875,13.05829,0,5.6095-1.20837,9.52791-3.62051,11.78577q-3.62511,3.37151-12.626,3.38169Zm10.41292-31.84576H5267.686c4.12718,0,6.76288-.4476,7.90148-1.37284,1.134-.90491,1.70587-3.01353,1.70587-6.3056q0-6.59331-7.47934-6.59382h-14.87365Zm0,23.07352H5266.358l3.65514-.06976q5.27343,0,6.94212-1.49149,1.66284-1.49174,1.66564-6.27607,0-4.9824-1.74559-6.27558c-1.16864-.8453-4.04265-1.28268-8.62762-1.28268h-13.3073Z"/><path class="cls-3" d="M5297.90535,947.13743V892.25736h26.97257q11.50926,0,16.107,5.02238,4.602,5.02824,4.60483,17.60405,0,20.5575-3.70505,26.39564-3.68467,5.86309-16.68339,5.858Zm10.41292-8.77224h14.83392q7.474,0,9.66744-3.43108,2.19292-3.44637,2.19268-15.18681,0-12.12873-1.96914-15.43585-1.96913-3.29661-9.24427-3.292h-15.48063Z"/><path class="cls-3" d="M5363.6658,901.01941V915.172H5389.4v7.67793H5363.6658v15.51525h27.38v8.77224h-37.79288V892.25736h37.55456v8.76205Z"/><path class="cls-2" d="M5315.09642,323.02141c-114.87163.03971-210.578,81.70293-232.30919,190.18952h96.95441a143.10123,143.10123,0,1,1,.17925,94.07531h-96.93456V728.573c0,101.83269,88.13788,95.83567,88.13788,95.83567l.03972-76.233A235.99932,235.99932,0,0,0,5315.09642,796.939c130.87421-.03,236.91911-106.08008,236.95374-236.97363-.03463-130.86448-106.07953-236.9043-236.95374-236.944"/><path class="cls-3" d="M5474.89247,845.99065a3.27209,3.27209,0,0,1-3.30734,2.85415,3.80769,3.80769,0,0,1-3.88836-4.0177,3.71626,3.71626,0,0,1,3.85373-4.02789,3.1103,3.1103,0,0,1,3.27221,2.77471h-1.41714a1.7297,1.7297,0,0,0-1.85507-1.3428c-1.36724,0-2.11324,1.07394-2.11324,2.55626a2.3402,2.3402,0,0,0,2.14787,2.60565,1.66048,1.66048,0,0,0,1.82044-1.40238Zm-3.55584,4.17709a5.31555,5.31555,0,1,0-5.09214-5.31111,5.122,5.122,0,0,0,5.09214,5.31111m0-12.074a6.76556,6.76556,0,1,1-6.9467,6.76287,6.71592,6.71592,0,0,1,6.9467-6.76287"/><path class="cls-3" d="M5176.39509,864.46953h7.26038a15.01221,15.01221,0,0,0,3.45094-.219,1.69514,1.69514,0,0,0,1.31785-1.104,7.33941,7.33941,0,0,0,.31317-2.40651c.01527-2.36734-.31317-3.46113-.66606-3.77939-.27345-.33812-1.16864-.58713-3.11282-.56676h-8.56346Zm-5.34064,14.49072V851.66941h15.2861c2.88929-.00967,5.00762.9451,6.23126,2.64537a10.27065,10.27065,0,0,1,1.51644,6.04692,11.3912,11.3912,0,0,1-.98431,5.22149c-.9945,1.97931-3.24726,3.65-6.91259,3.61032h-9.79626v9.76674Z"/><path class="cls-3" d="M5218.21126,856.18462c-2.29248-.00968-3.46571.30858-3.94335.80554-.51227.46749-.885,1.62137-.87025,4.00806v8.93162c.01018,2.41673.45269,3.38118,1.01435,3.80892.54741.47765,1.79549.70628,3.79925.70628h3.74476c2.00376,0,3.25694-.22863,3.80434-.70628.56167-.42774,1.02913-1.39219,1.02913-3.80892v-8.93162c0-2.38669-.37275-3.54057-.885-4.00806-.47255-.497-1.66105-.81522-3.94845-.80554Zm3.75953-4.70416c3.56552.04994,6.11668.56679,7.87195,2.17794,1.76035,1.64117,2.28739,4.11751,2.28739,7.33982v8.93162c.00509,3.07311-.61666,5.49951-2.38669,7.09081-1.77563,1.58162-4.34156,2.1387-7.78742,2.1387h-3.74476c-3.44076,0-6.0072-.55708-7.78741-2.1387-1.77-1.5913-2.3816-4.0177-2.3816-7.09081v-8.93162c0-3.22231.527-5.69865,2.2823-7.33982,1.75526-1.61115,4.32628-2.128,7.88671-2.17794h3.74476"/><polygon class="cls-3" points="5248.958 878.96 5248.958 851.669 5254.304 851.669 5254.304 874.246 5268.506 874.246 5268.506 878.96 5248.958 878.96"/><polygon class="cls-3" points="5288.855 878.96 5288.855 867.732 5277.631 851.669 5283.977 851.669 5291.664 862.61 5299.338 851.669 5305.807 851.669 5294.221 867.742 5294.221 878.96 5288.855 878.96"/><polygon class="cls-3" points="5326.37 878.96 5326.37 856.394 5317.349 856.394 5317.349 851.669 5340.751 851.669 5340.751 856.394 5331.711 856.394 5331.711 877.856 5331.711 878.96 5326.37 878.96"/><polygon class="cls-3" points="5355.704 878.96 5355.704 851.669 5375.81 851.669 5375.81 856.394 5361.06 856.394 5361.06 862.719 5375.183 862.719 5375.183 867.235 5361.06 867.235 5361.06 874.246 5375.81 874.246 5375.81 878.96 5355.704 878.96"/><path class="cls-3" d="M5401.42914,879.15935h-.01477a9.45559,9.45559,0,0,1-6.7033-2.377,8.78047,8.78047,0,0,1-2.46663-6.6239v-9.71679c-.05958-3.73967,1.40746-6.3056,3.85882-7.53892,2.402-1.25318,5.42059-1.41209,8.85168-1.42227h2.60565c3.02829,0,5.276.58665,6.768,2.069,1.48182,1.52153,1.93451,3.66988,1.93451,6.24552v1.90955h-5.34573v-1.80975c0-1.68091-.23882-2.596-.63143-2.984-.33812-.37784-1.21855-.72614-3.17291-.72614h-1.78022a23.26936,23.26936,0,0,0-5.39054.42774,2.5496,2.5496,0,0,0-1.989,1.45224,5.31705,5.31705,0,0,0-.37326,2.2971v6.89273a22.74538,22.74538,0,0,0,.32845,4.893,2.46971,2.46971,0,0,0,1.45686,1.90955,7.06146,7.06146,0,0,0,2.66064.37784h3.74426a15.514,15.514,0,0,0,3.99835-.32794c.82034-.27854,1.03931-.4975,1.273-1.00468a4.78391,4.78391,0,0,0,.25868-1.78021v-3.08332h5.34064v3.43162c.0499,3.08279-1.24809,5.30092-3.33689,6.32492-2.05366,1.04443-4.585,1.15391-7.41925,1.1641Z"/><polygon class="cls-3" points="5452.192 878.96 5452.187 867.413 5438.079 867.413 5438.079 878.96 5432.713 878.96 5432.713 851.669 5438.079 851.669 5438.079 862.719 5452.187 862.719 5452.187 851.669 5457.547 851.669 5457.547 878.96 5452.192 878.96"/><path class="cls-3" d="M5270.40723,978.87305H5260.0957l-1.51855,4.44531h-3.57227l7.69336-22.06055h4.94531l7.82227,22.06055h-3.49121Zm-.85645-2.58594-4.332-12.37891-4.2666,12.37891Z"/><path class="cls-3" d="M5298.0625,961.25781v22.06055h-5.64062l-7.74122-13.51172q-.51708-.90527-2.21386-4.23437l-.72754-1.42188h-.09668l.03222,1.14649q.04835,1.60253.04786,3.459v14.5625h-3.34473V961.25781h5.624l6.86817,12.13672q.88916,1.585,2.877,5.28516l.9375,1.76172h.09668l-.03223-1.13086q-.04833-1.60254-.04785-3.39453V961.25781Z"/><path class="cls-3" d="M5310.65723,971.957h9.59961q.04833,1.11328.04882,3.61914a29.04759,29.04759,0,0,1-.12207,3.13477,5.96223,5.96223,0,0,1-.47656,1.79492,4.67281,4.67281,0,0,1-3.65234,2.74805,33.07252,33.07252,0,0,1-5.252.27343,23.18132,23.18132,0,0,1-4.623-.33789,5.74255,5.74255,0,0,1-2.58594-1.27734,6.41944,6.41944,0,0,1-1.97168-4.42773q-.11279-1.13086-.1123-2.74805,0-4.55859.04785-5.86719.16113-4.60547,2.23047-6.33594a6.32216,6.32216,0,0,1,3.73339-1.373q1.4707-.11133,3.92676-.11328,2.50635,0,3.62891.08984a8.1995,8.1995,0,0,1,1.94726.36328,4.47936,4.47936,0,0,1,3.13575,4.10547c.05371.46289.08593,1.18555.09668,2.16406h-3.37793a6.32734,6.32734,0,0,0-.501-2.73047,2.63093,2.63093,0,0,0-2.10059-1.00195q-1.03564-.11425-3.57226-.11328a13.9953,13.9953,0,0,0-3.70117.35547,2.77576,2.77576,0,0,0-1.8418,2.27929,44.21676,44.21676,0,0,0-.24316,5.5586q.03222,3.81445.06543,4.47656a6.0606,6.0606,0,0,0,.541,2.50586,2.367,2.367,0,0,0,1.43066,1.16406,18.058,18.058,0,0,0,4.55762.38672,17.27259,17.27259,0,0,0,3.127-.209,2.63576,2.63576,0,0,0,1.51074-.72852q.77637-.87012.77636-3.99023c0-.24805-.00585-.6211-.0166-1.11524h-6.2539Z"/><path class="cls-3" d="M5326.90234,964.11719v6.54687h10.73145v2.61719h-10.73145V980.457h11.29688v2.86133h-14.69043V961.25781h14.64258v2.85938Z"/><path class="cls-3" d="M5342.17871,983.31836V961.25781h10.68262a9.19756,9.19756,0,0,1,4.541.88867,4.23732,4.23732,0,0,1,1.97168,2.63477,10.9065,10.9065,0,0,1,.30762,2.9082,12.37453,12.37453,0,0,1-.35547,3.42578,3.4022,3.4022,0,0,1-2.085,2.24805,7.04465,7.04465,0,0,1-1.45508.3711v.11328a3.74019,3.74019,0,0,1,2.72364,1.1875,4.6446,4.6446,0,0,1,.89648,3.07812v5.20508h-3.41016v-4.49414a3.652,3.652,0,0,0-.92089-2.87695,4.28081,4.28081,0,0,0-2.81153-.72657h-6.6914v8.09766Zm3.39356-10.99023h6.52929a5.496,5.496,0,0,0,3.08692-.66211,2.50654,2.50654,0,0,0,.96972-1.61719,8.90318,8.90318,0,0,0,.09668-1.584,10.167,10.167,0,0,0-.24218-2.76367,2.21815,2.21815,0,0,0-1.97168-1.4375,8.67617,8.67617,0,0,0-1.374-.09765h-7.09472Z"/><path class="cls-3" d="M5379.75781,967.46289h-3.3125a5.00875,5.00875,0,0,0-.43652-2.56836,2.34447,2.34447,0,0,0-1.665-.95508,15.032,15.032,0,0,0-2.32715-.1289,26.311,26.311,0,0,0-3.03027.12109,3.708,3.708,0,0,0-1.47852.47656q-1.03417.64746-1.03418,2.78125a4.69057,4.69057,0,0,0,.40332,2.18164,2.6229,2.6229,0,0,0,2.21485,1.09766q.51708.06445,3.28027.21094a32.90877,32.90877,0,0,1,4.08887.37109,4.28411,4.28411,0,0,1,3.21679,2.21485,8.37694,8.37694,0,0,1,.56543,3.55468,13.65267,13.65267,0,0,1-.291,3.15235,4.06979,4.06979,0,0,1-.95313,1.875,5.43232,5.43232,0,0,1-3.54,1.51953q-1.63184.16113-4.00781.16015a20.76547,20.76547,0,0,1-5.17187-.41992q-2.79639-.873-3.1836-4.26562c-.05371-.48633-.09179-1.293-.11328-2.42578h3.31348v.50195a7.2817,7.2817,0,0,0,.25781,2.21484,2.05683,2.05683,0,0,0,.85742,1.13086,3.60754,3.60754,0,0,0,1.79395.43555q1.21143.03222,2.71484.0332a15.87853,15.87853,0,0,0,2.99024-.19531,2.48721,2.48721,0,0,0,1.38964-.74219,5.0983,5.0983,0,0,0,.582-3.02344,4.55762,4.55762,0,0,0-.30762-1.89062,2.42,2.42,0,0,0-2.05274-1.09766q-.43652-.06445-3.34472-.22656-2.82861-.16113-3.57227-.27539a5.10337,5.10337,0,0,1-3.58789-1.875,7.03469,7.03469,0,0,1-.9209-4.03906q0-3.76758,1.69727-5.02735a6.68694,6.68694,0,0,1,3.42578-1.16406q1.53516-.12891,3.41016-.1289a21.82686,21.82686,0,0,1,4.541.32421,4.165,4.165,0,0,1,3.13574,2.48829,8.50657,8.50657,0,0,1,.45215,3.10351Z"/></g><g id="Logo_bde_-_copie" data-name="Logo_bde - copie"><path class="cls-2" d="M513.03465,417.872a49.569,49.569,0,0,1-4.36082-5.99835q-47.12591-68.73993-124.75375-99.07246c-.69574-.27007-1.38379-.56208-2.06389-.86941a9.92109,9.92109,0,0,1-1.01857-.676,41.7472,41.7472,0,0,1,5.36892-1.49543c5.18549-.71683,9.9285-3.05895,14.99081-4.02277,2.77568-.52846,5.40423-1.35942,8.10593-2.03747,1.5668-.39321.49541,1.40909,1.14821,2.01186.5921-.76357.40631-1.761,1.38707-2.58212,2.30833-1.93277,1.97739-5.10361,2.27059-7.80486,1.38012-12.71787-.37887-25.28937-1.906-37.88577-1.70155-14.0353-7.42186-26.24482-16.0191-37.27994-6.19-7.94535-8.01947-17.30546-8.50136-27.04832-.75031-15.17214,2.39181-29.824,5.68411-44.51167,2.07638-9.26306.74638-18.126-6.70575-25.00983-6.375-5.88888-14.2845-8.43412-22.95814-10.17442a58.15779,58.15779,0,0,1,2.83193,13.6279c.433,8.25881-2.33382,15.76373-5.15089,23.27847q-.41424.02845-.82857.05684c2.28369-8.83468,3.42454-17.75,1.92022-26.85674a62.1374,62.1374,0,0,0-2.09629-8.1218,3.96419,3.96419,0,0,0-3.75969-3.09735,175.97613,175.97613,0,0,0-33.74274-.30409c-30.08146,2.244-59.41209,8.55235-88.41755,16.54422-16.2901,4.4884-32.473,9.38228-48.13377,15.744-14.60852,5.93433-29.76111,8.35849-45.39381,8.27965-2.74231-.01384-2.75057.67179-1.626,2.7382a69.3028,69.3028,0,0,1,3.28591,7.11462c.73182,1.806,1.78991,2.3766,3.80779,2.37224,24.37419-.05265,47.1538-6.64507,69.12808-16.61926,3.40008-1.54329,6.73245-3.24131,10.1679-4.69854a3.18421,3.18421,0,0,0,2.32894-3.2597,25.61817,25.61817,0,0,1,1.16652-6.86307c.96372-3,3.03111-3.32737,5.24983-1.088a13.65329,13.65329,0,0,1,1.25832,1.498c2.59654,3.51059,2.61529,3.56364,6.74515,1.68023,9.43905-4.30466,18.91381-8.72952,29.31113-9.919,13.85223-1.58469,27.57307-1.1133,40.29593,5.74474a37.4748,37.4748,0,0,1,8.16393,6.32887,46.98975,46.98975,0,0,0,4.77945,4.29966c2.31767,1.69591,4.46822,1.39867,6.56917-.58,2.584-2.43367,3.95283-5.61713,5.398-8.75626.61745-1.34132-.1717-1.81941-1.227-2.277-3.92841-1.70345-8.0102-1.55262-12.1183-1.04961a29.35683,29.35683,0,0,1-3.92023.43495,21.31589,21.31589,0,0,1,12.07793-5.16807,20.39536,20.39536,0,0,1,4.75419-.01509c4.58528.6104,8.85468,1.86356,10.61412,6.86234,1.82287,5.17906,2.41093,10.22088-1.94674,14.58786a9.204,9.204,0,0,1-4.22125,2.31166c1.06869-2.71447,1.85346-5.046,1.06831-8.28431a31.26966,31.26966,0,0,1-9.49628,11.4728c-9.23875,6.95787-19.88215,10.54711-31.04067,12.8022-17.844,3.60618-35.56,2.5091-53.32931-1.0598a124.7956,124.7956,0,0,0-35.11672-1.64933,3.59822,3.59822,0,0,0-3.042,1.97055,48.86091,48.86091,0,0,1-9.47831,11.32906,10.69177,10.69177,0,0,1-2.06864,1.4089c-2.5475,1.25994-3.80831.65816-3.88463-2.12027-.06865-2.50023.31443-5.01195.47628-7.52.05328-.82538.91922-1.96185-.52726-2.317a2.05673,2.05673,0,0,0-2.51774,1.29724c-1.18385,2.90692-3.204,5.23522-5.17865,7.59929a25.26993,25.26993,0,0,1-6.58816,6.00445c-2.66866,1.53653-3.78057.952-3.90707-2.06289-.09334-2.22438.00781-4.46229.13011-6.68826.06966-1.26834-.20855-1.66543-1.55948-1.31325a5.71078,5.71078,0,0,0-3.41621,2.18327,38.32529,38.32529,0,0,1-8.52294,8.42631,11.42534,11.42534,0,0,1-2.14989,1.29513c-3.22336,1.35949-4.28558.55707-4.08323-2.92226.10289-1.7691,1.54087-4.03.08027-5.14487-1.10908-.8466-3.40186-.17536-5.1664-.12532-17.56435.49793-34.76537-2.11861-51.85116-5.8901-7.9857-1.76274-15.87638-4.32762-24.23511-3.62922-5.59761.4677-11.15013,1.17162-16.16812,3.9831-3.8786,2.17308-4.59857,4.68978-2.52721,8.604,4.06219,7.67631,13.65632,12.665,22.99353,11.77432-3.94683-4.06489-7.29507-8.32952-7.94793-14.23514,2.19559,2.29549,4.26462,4.72989,6.60711,6.86418C94.89514,195.212,113.946,199.698,135.39271,194.78677c9.54016-2.18465,18.96337-4.99064,28.79545-5.68474,13.81073-.975,27.11109,1.42606,40.14293,5.909a192.95024,192.95024,0,0,0,31.44133,7.79134c13.64086,2.251,27.31954,3.96149,41.1635,3.49236,27.96745-.94769,53.90926-8.33567,76.95053-24.69655a12.52121,12.52121,0,0,1,1.1697-.76643c.12105-.067.3284.0219,1.15505.108a246.86442,246.86442,0,0,1-50.04206,55.02208,232.74908,232.74908,0,0,1,44.73124-6.96523c15.08576-.78179,30.27536-.74645,45.02365,3.81351-2.18272.40183-4.37536-.09991-6.53861-.15717-2.2075-.05842-4.41923-.50662-6.65748-.391q-.30666-.00155-.61325-.00272c-12.00238-.24791-23.86444,1.20407-35.75213,2.65219a303.90932,303.90932,0,0,0-45.08574,9.10151,177.59426,177.59426,0,0,0-28.67133,10.41976c-6.26063,2.97853-10.30676,7.92656-13.53074,13.77595-4.95892,8.9972-7.8849,18.7713-10.862,28.524-.43445,1.4232-4.25506,3.207-5.48886,2.51134-.98823-.55711-.304-1.3837-.1404-1.96728a190.9031,190.9031,0,0,1,6.40793-19.74336c2.62825-6.54182,5.51744-12.95332,9.646-18.72345.968-1.35287.06932-1.9291-.98-2.51092a122.35269,122.35269,0,0,0-19.42855-8.80884,148.66548,148.66548,0,0,0-19.97019-5.53225c-7.973-1.55277-16.01018-2.71214-24.08414-3.61461-7.61807-.85151-15.28893-.72754-22.93894-1.38763A53.68133,53.68133,0,0,1,182.3,235.5389c7.34379.11957,14.71082-.42446,22.02521.52438a176.39935,176.39935,0,0,1,23.24357,4.30077c5.41044,1.45627,10.88965,2.6667,16.26851,4.227a97.79444,97.79444,0,0,1,9.9705,3.11855c6.06729,2.49675,11.66369,2.5883,17.72454-.24394,6.86108-3.20616,14.18631-5.34673,21.41027-7.67a6.78508,6.78508,0,0,0,2.96593-2.07287q-6.67267.50782-13.34534,1.01568c-7.09869.54033-14.22963.85808-21.32424,1.01331-8.01681.17544-15.97543,1.3987-23.99649,1.07135a13.60532,13.60532,0,0,1-10.53068-5.76846,4.73083,4.73083,0,0,1-.35132-4.77887,17.178,17.178,0,0,0,1.64721-7.1036c-13.7863,6.92813-28.92973,5.28745-43.30166,7.90524a168.58031,168.58031,0,0,0-20.18245,4.55466c-1.35631.42369-2.43512.88505-2.68742,2.70036-1.15405,8.30338-6.07388,14.07806-13.018,18.24435-3.83548,2.30119-7.87223,4.27116-11.84987,6.3293-1.87135.96828-1.885,1.77209-.324,3.22807,6.46617,6.03156,14.06957,9.9793,22.25505,13.15918,10.81095,4.19984,16.79372,12.62811,19.23085,23.73276.98,4.4654,1.54042,9.03355,2.9713,13.38512.607,1.84576-.60245,2.049-1.66144,2.53059a256.62018,256.62018,0,0,0-41.09376,23.32054q-68.178,47.7378-97.61827,125.615A266.4449,266.4449,0,0,0,30.193,503.52549c-.17626.78525-.00494,1.93069-.95317,2.11911-.86906.17269-1.35529-.865-1.92031-1.45365-5.22212-5.44074-7.39975-12.45864-9.83858-19.3079-5.02484-14.11181-8.94713-28.47712-9.76832-43.54741A68.2588,68.2588,0,0,1,19.65856,398.4931c10.4493-15.59157,21.47308-30.77949,32.10182-46.24371,1.0983-1.598,1.294-2.60426-.04462-4.313-7.93833-10.13376-7.17493-20.87074-1.745-31.78848.60117-1.2087,1.24784-2.04418-.13161-3.35331-11.03323-10.47078-9.763-25.201-.05783-36.05255,3.49743-3.91058,7.65846-7.10571,11.69318-10.4262a5.52633,5.52633,0,0,0,2.20611-3.08035c5.48154-23.1022,20.06467-37.27729,42.76408-43.45146a91.54913,91.54913,0,0,1,14.592-2.55047,6.3166,6.3166,0,0,0,3.32934-1.24274c2.97967-2.24828,6.07108-4.3494,9.03287-6.62015,4.42629-3.39348,8.92639-2.66564,13.37054-.25341a25.72371,25.72371,0,0,1,9.47268,8.95384c1.0554,1.65889,2.08663,2.13769,4.10082,1.33848a182.47621,182.47621,0,0,1,43.71917-11.601c3.31189-.43325,6.65671-.61463,10.07015-.91947-.65969-1.16636-1.907-1.16934-2.87766-1.5387-11.35772-4.32211-22.93512-7.72487-35.085-9.115-9.88129-1.13057-19.24775,1.31813-28.75283,3.19571-14.52911,2.87-29.16,4.47683-43.9336,1.98672-4.79386-.808-9.48892-2.09306-13.55849-4.94138a4.73218,4.73218,0,0,0-3.17957-.67061c-7.87152.33352-15.68065.08342-23.15235-2.83459-9.69553-3.78653-16.1652-10.51412-18.61828-20.76551-.44563-1.86229-1.01252-3.02516-3.21417-2.88955a16.64742,16.64742,0,0,1-3.87165-.52733c-7.86076-1.42128-12.373-6.87017-12.44113-14.8801a36.86212,36.86212,0,0,1,2.89811-14.17167,4.11211,4.11211,0,0,0-.25284-4.12286c-3.70262-6.23679-2.23437-16.75247,2.9007-21.91026,5.0423-5.0646,11.09981-4.51763,17.26368-2.95939a35.70291,35.70291,0,0,1,8.23421,3.494,2.93793,2.93793,0,0,0,2.87878.22619,50.30017,50.30017,0,0,1,21.01063-4.00643c1.21172.01074,2.30441.01858,3.248-1.12355,4.84908-5.8697,11.1968-6.89282,18.23812-5.33685a24.62365,24.62365,0,0,1,6.84847,2.38231c5.74521,3.23076,11.7894,2.06052,17.74476,1.08373,8.97263-1.47169,17.08738-5.22367,24.82917-9.8805a182.46216,182.46216,0,0,1,28.964-13.9856c1.83827-.70309,2.86676-1.51871,3.10413-3.665a30.10821,30.10821,0,0,1,3.0991-10.69409c.66608-1.275.2341-2.01114-.55909-2.94143a15.76,15.76,0,0,1-3.65626-8.043c-.71289-4.76069,1.41386-8.46647,6.02821-10.06222,9.07044-3.13677,18.316-3.06416,27.55493-1.01315,3,.666,5.33877.67788,8.00978-1.3654,5.86609-4.4875,12.93205-6.07629,20.13572-6.953a61.22558,61.22558,0,0,1,15.07845-.18186,8.50813,8.50813,0,0,0,4.83863-.95131c13.446-6.34714,27.36109-11.03136,42.43054-11.15367a39.086,39.086,0,0,1,16.89772,3.19791,4.02866,4.02866,0,0,0,2.41761.33121,134.19988,134.19988,0,0,1,44.00162.3368c10.5177,1.92492,20.57543,5.37572,29.62427,11.298.82453.53962,2.08955.94114,1.95043,2.14448-.16488,1.42631-1.64071,1.38212-2.65352,1.59143-7.21164,1.49043-14.56979,2.29366-21.59844,4.63683a25.47019,25.47019,0,0,0-8.03268,4.10389c2.13513,1.11792,4.22283.5603,6.20625.81431,17.02657,2.1805,33.97619,4.73235,50.3965,9.99191,10.44238,3.34477,20.504,7.49673,29.70847,13.5415a24.42924,24.42924,0,0,1,2.27709,1.63041c.696.5816,1.63219,1.106,1.45492,2.21724-.182,1.14082-1.262,1.36894-2.11888,1.55322-3.37082.72485-6.775,1.29293-10.15237,1.98916-6.58306,1.35709-13.20653,2.61078-18.93714,6.47553-.69653.46974-1.72454.86789-1.75143,1.671-.03381,1.01017,1.192.95433,1.90687,1.30181,20.74938,10.08609,40.65811,21.42415,56.8246,38.30121a70.095,70.095,0,0,1,5.10819,5.94089c1.50758,1.97558,1.0894,3.19754-1.30591,3.93177a32.37581,32.37581,0,0,1-9.42244,1.09375q-10.50039.04626-21.00059.11435c-.51152.00409-1.1168-.23926-1.75407.53068,1.85063,1.49861,3.71117,2.96618,5.5297,4.48411,14.48175,12.08792,26.75532,25.99474,35.26856,42.9767.42526.84832,1.52937,1.79232.73317,2.74731-.74412.89247-2.05629.68175-3.17823.54463-8.23307-1.00635-16.35283-2.899-24.67935-3.16885-1.485-.04814-2.97283-.00684-4.4597-.00684-.26066,1.06171.65218,1.32927,1.12655,1.78847a69.23679,69.23679,0,0,1,13.95719,18.80226,4.103,4.103,0,0,0,3.42533,2.38695c12.72491,2.12967,24.82511,6.04968,35.65618,13.22362,15.03909,9.96106,23.81226,24.04722,27.3141,41.67274,2.45466,12.35487,1.76659,24.68825.45472,37.0483a3.55113,3.55113,0,0,0,1.70562,3.671c19.73772,15.17319,30.52051,35.33378,33.07355,59.98686,1.37239,13.25217-.34948,26.244-3.615,39.07344-.394,1.54785-.47745,2.71087.77751,4.04107,14.52948,15.40041,16.91521,34.47643,6.71,53.08295a24.82545,24.82545,0,0,1-3.22633,5.22754c-5.103,5.4186-6.6673,12.57682-9.72974,18.99808-4.63681,9.72238-11.69807,17.46525-19.97186,24.20211-.68845.56055-1.70469.87007-1.79817,1.98629h-1.12118c.01423-5.172-1.43169-10.11546-2.52929-15.08929a262.41148,262.41148,0,0,0-32.07514-80.05755M443.81259,142.47732a.83085.83085,0,0,0-.13755-.22117c-.0389-.03339-.12694-.00952-.19291-.01137l.30322.26041.44012.67955a5.4115,5.4115,0,0,0,2.37683,2.67223c11.21487,12.16817,21.84253,24.75666,28.63769,40.08107.28317.63855.61123,1.19693,1.37085,1.20376,2.56234.023,5.12506.00877,7.61319.00877.22853-.79493-.1798-1.10008-.41319-1.48431a130.75053,130.75053,0,0,0-13.83209-18.58479,170.83435,170.83435,0,0,0-22.75226-21.85228,5.23711,5.23711,0,0,0-2.8012-2.24889Q444.119,142.72871,443.81259,142.47732Zm-29.7213-46.511-.38185-.34335-.11541.22158.516.09954a22.5956,22.5956,0,0,0,6.69241,3.96542c6.30424,4.14337,12.69911,8.15634,18.89081,12.46155,8.66238,6.02312,17.16659,12.37843,23.77647,20.65143,2.63563,3.29883,5.19144,3.88675,8.72537,3.12143.86155-.18659,2.0963-.08793,2.35763-1.15.21632-.879-.78583-1.40134-1.35661-1.98628-14.90753-15.27819-33.01833-25.65227-52.34378-34.16392C418.64974,97.76476,416.597,96.33358,414.09129,95.96633ZM369.26937,59.60565c-3.31823-.75745-6.64817-1.40367-10.146-.745l9.6169,1.70115c7.38432,1.88391,14.82531,3.57244,22.14062,5.69426,13.352,3.87281,26.552,8.18605,38.15765,16.2033.4757.32863.95736.70721,1.52393.53224,3.19455-.9865,6.37425-2.021,10.06-3.19937-1.42385-.772-2.30631-1.27592-3.21059-1.73706-12.45694-6.35233-25.72865-10.35513-39.30108-13.405A231.864,231.864,0,0,0,369.26937,59.60565ZM25.60547,489.49149a13.0979,13.0979,0,0,0,2.93435,5.37029,26.82317,26.82317,0,0,0-2.36345-6.4992,170.5316,170.5316,0,0,1-7.80385-41.63069c-.52353-7.89037-.61491-15.85732,1.59873-23.60073,2.40512-8.41323,6.54914-16.01814,11.06378-23.44229a141.24408,141.24408,0,0,0,9.71577-18.735,71.89438,71.89438,0,0,0-12.56293,14.88881c-8.75593,13.17841-14.14064,27.45561-13.67308,43.52124a146.431,146.431,0,0,0,1.6336,17.23378C17.8386,467.98218,20.57494,479.0669,25.60547,489.49149ZM536.24229,319.02228a88.00522,88.00522,0,0,0,1.84545-12.69769c1.39843-12.59123,1.399-25.1324-1.32815-37.55512-4.3394-19.76605-15.17444-34.401-34.11449-42.42918-13.03583-5.52557-26.75823-6.9168-40.77564-6.67869a135.22365,135.22365,0,0,0-37.14774,5.77412c-1.82832-.056-3.41192.64948-5.72726,1.72327a26.83362,26.83362,0,0,0,8.01522-1.1105q4.32078-.3772,8.64155-.75485c16.80886-1.486,33.50628-1.289,49.87433,3.47029,22.64564,6.58456,38.293,20.64364,45.85489,43.2226,4.82677,14.41222,5.3374,29.26784,4.32776,44.26175a1.44348,1.44348,0,0,0-.29692,1.77124q-.034.4693-.068.93861l-1.65436,11.84365C534.93412,326.94738,536.18764,323.10661,536.24229,319.02228ZM55.22159,156.60015a20.09764,20.09764,0,0,1,2.33157-.67591,50.245,50.245,0,0,1,15.30022.21368c11.44,1.59641,22.85563,3.371,34.26728,5.16172,1.78481.28007,2.04767-.36169,2.00263-1.89835a27.76267,27.76267,0,0,1,.21617-6.97135c.56685-2.44691-.578-2.91254-2.41091-3.21848-.73565-.12279-1.46351-.29279-2.19415-.44508-8.86788-1.84838-17.59354-4.21264-25.7872-8.12929a39.2955,39.2955,0,0,0-19.24455-3.81189c-4.41871.212-8.52114,1.648-12.67841,2.83844-.24176-.75353.13848-1.03507.46182-1.36139a50.05127,50.05127,0,0,1,15.4311-10.42581,57.10056,57.10056,0,0,1,15.852-4.34689c3.0159-.39663,1.81076-2.79537,1.89813-4.12421.12448-1.89351-1.60482-.73075-2.50268-.64353a83.28822,83.28822,0,0,0-15.05507,3.01567c-9.18557,2.65315-17.63051,6.47275-23.88129,14.1907-8.33966,10.29715-7.39088,21.12358,2.59462,27.83169,1.73279,1.164,2.99648,1.45935,4.48362-.35444,1.0752-1.31137,2.80966-1.802,4.37543-2.39541,4.35207-1.64952,8.90757-1.886,13.49825-1.84448,1.989.018,1.98914.00092,3.32134-.82817C63.61991,156.66549,59.45349,157.31083,55.22159,156.60015ZM251.79305,46.85852c-2.528-.99092-4.89241-.74028-7.18854-.58568-7.697.51821-14.68259,2.69-19.53128,9.24612-4.97655,6.72905-6.06721,14.48593-5.66586,22.55362.09083,1.82544-.06008,2.72544-2.17806,2.83672a99.57659,99.57659,0,0,0-27.79976,5.85222c-12.84564,4.50527-24.5586,11.25138-36.17569,18.17921-8.3488,4.97881-17.12457,8.65866-26.89777,9.62249-1.17759.11613-2.87114-.51692-3.41443.50752-.63056,1.189,1.17184,1.82488,1.76794,2.80113.43687.71546,1.01175,1.35085,1.41086,2.08411a1.7168,1.7168,0,0,0,2.26463,1.02945c7.27975-2.25949,14.84542-3.637,21.66548-7.29764,14.53475-7.80145,28.54459-16.59072,43.72143-23.186,8.145-3.53947,16.44055-6.62074,25.24761-7.9927,1.9741-.30752,2.49849-.63337,2.45324-2.84062-.26784-13.05972,5.65993-24.47189,20.82159-25.96158,1.15966-.11394,2.40456-.093,3.38516-1.06675C247.58887,50.74411,249.58534,48.93588,251.79305,46.85852ZM565.62551,434.40026a33.29867,33.29867,0,0,0,1.36548-3.743,221.601,221.601,0,0,0,5.7832-36.39757c1.015-14.86386-.13474-29.457-5.3423-43.51949-4.00922-10.82662-10.23808-20.08884-19.994-26.63758-3.84954-2.584-3.87168-2.53874-5.92369,1.42536a22.68916,22.68916,0,0,1-1.51808,2.677c-1.25852,1.78506-1.08382,2.90877.9063,4.24154a52.45487,52.45487,0,0,1,18.5876,21.88794c5.87876,12.60132,7.73695,26.02447,8.22431,39.6914A252.89178,252.89178,0,0,1,565.62551,434.40026ZM277.26043,152.21217a61.49469,61.49469,0,0,1,1.11462-15.29235c.3371-1.50234.82771-3.02187,2.54154-3.34792,1.71621-.3265,2.70056.949,3.604,2.18012a42.58289,42.58289,0,0,1,4.20365,7.56014,108.23523,108.23523,0,0,0,6.68058,13.218c.72513,1.13868,1.37088,2.14846,3.09036,1.55114,1.797-.62423,1.72748-1.81065,1.59072-3.31552a71.4658,71.4658,0,0,1-.036-15.909c.46749-3.52648-.15305-4.50565-3.74046-5.17536a114.18173,114.18173,0,0,0-16.59265-2.01107c-6.07651-.2344-11.80167,1.26808-17.595,2.58887-.92492.21086-1.8546.47353-.97891,1.852,4.16685,6.55966,6.79415,13.90108,10.44305,20.72555.658,1.23066,1.50194,2.36239,2.15138,3.59695a2.33093,2.33093,0,0,0,2.73882,1.42115c1.32423-.31663.73531-1.53549.7593-2.36441C277.30562,157.06615,277.26043,154.6385,277.26043,152.21217ZM58.72189,312.3357c-1.07849-2.02771-1.93061-3.46983-2.63528-4.98072-4.43586-9.51116-3.068-17.79573,4.03873-25.45581A147.90269,147.90269,0,0,1,78.88141,265.1557c15.24454-11.6591,30.63629-23.12562,45.89187-34.77043,4.661-3.5578,9.32473-7.17379,12.893-11.93338.46535-.62073,1.5058-1.22846.86854-2.11631-.49656-.69181-1.5471-.50877-2.36271-.4485-2.74379.20275-4.42271,2.25278-6.29586,3.86061-6.29091,5.39979-12.18243,11.26968-18.81766,16.2626-16.15631,12.15746-32.44826,24.13945-47.91328,37.1851-5.85678,4.94053-10.77617,10.566-12.95939,18.16763C47.78519,299.7218,50.66991,307.254,58.72189,312.3357ZM232.38245,72.33679c1.99827-.41154,2.00855-.39778,3.09221-1.20786a260.50657,260.50657,0,0,1,31.84687-20.67678c13.9663-7.56241,28.37964-13.65661,44.91713-14.08217a51.94582,51.94582,0,0,0-22.112-.5864C266.27217,40.45864,248.65034,54.9628,232.38245,72.33679ZM229.74933,215.0076c-.07809-2.19421-1.20925-1.86734-2.06919-1.80429-5.663.41517-11.26766,1.28427-16.85744,2.25457-16.18162,2.80892-32.0017,6.906-47.17542,13.28937-.94762.39863-2.51273.54427-1.77073,2.17842.66407,1.46257,1.78274.36686,2.63342.11067,14.97116-4.50851,30.09946-8.37721,45.43073-11.4682,5.73865-1.157,11.44841-2.44154,17.23931-3.33719C228.21911,216.07022,229.81872,216.20147,229.74933,215.0076ZM30.41335,402.73492a8.20736,8.20736,0,0,0,4.6727-2.89944c10.6881-10.924,18.30141-23.89228,25.00714-37.48326,1.02465-2.07669.53416-3.97853.22409-5.98265a1.49081,1.49081,0,0,0-1.23895-1.35117c-.8367-.1163-.98483.711-1.263,1.26625C49.83673,372.20818,41.54013,387.94492,30.41335,402.73492ZM380.37927,41.25613c-10.19155-5.69816-35.57653-6.93949-46.52609-4.61065,1.58422,3.39063,4.23042,3.88929,7.76,3.58532,10.8189-.9317,21.62988-.58825,32.18384,2.2357C376.32793,43.14369,378.27384,42.98951,380.37927,41.25613ZM253.131,142.17867c0-.88564-.00539-1.35264.00089-1.81949.03853-2.867-.069-2.97146-2.72391-1.67842-2.68237,1.30644-5.28695,2.77219-7.96385,4.09047-1.283.63181-1.54318,1.35381-.84237,2.63633,1.69851,3.10841,3.29837,6.27077,4.93518,9.41286a6.05276,6.05276,0,0,0,4.12323,2.98584c2.25876.65611,2.51945-.17445,2.45677-2.09181C252.965,151.06548,252.45157,146.41123,253.131,142.17867ZM72.56356,257.88081c1.48044-1.08794,2.4525-1.76792,3.38153-2.50236a4.7516,4.7516,0,0,0,.918-1.04421c5.91771-8.58949,13.927-14.61481,23.21791-19.12808,3.94217-1.915,6.56095-5.48546,9.9509-8.10368C95.69959,230.35227,79.84131,241.6844,72.56356,257.88081ZM282.3504,74.84377c-8.06528,1.57637-13.71231,6.1947-19.676,11.41131a43.14033,43.14033,0,0,0,22.7317-2.251C279.6863,82.661,278.7866,80.12759,282.3504,74.84377ZM81.6176,127.23144c1.181-.28186,1.43778-1.35638,1.965-2.1916,1.2407-1.96537,2.37813-4.00909,3.764-5.867,3.05175-4.09131,6.55034-6.84721,12.30852-5.39231,6.113,1.54456,12.037,3.128,16.65705,7.80186,1.27095,1.28574,1.66158,3.14534,3.10732,4.61151a6.76926,6.76926,0,0,0-1.60638-6.32785c-6.06945-7.0225-14.20451-9.53018-23.04393-8.88545C88.64958,111.427,82.52217,119.77334,81.6176,127.23144ZM58.26728,314.02926C50.185,329.247,53.917,348.14991,70.11529,356.59954,57.88285,344.92939,54.923,330.632,58.26728,314.02926ZM263.323,161.12969c1.09024.23164,1.62268-.03094,1.274-1.28584-1.79094-6.44577-3.54552-12.90165-5.34542-19.3449-.224-.80179-.649-1.72241-1.61682-1.6419-.88622.07372-.888,1.02008-1.0257,1.7551-1.15136,6.14693-.08291,12.2196.58584,18.30612a1.50838,1.50838,0,0,0,1.46862,1.40507C260.22,160.57136,261.77021,160.85871,263.323,161.12969Zm190.99608,30.18294c3.13583,7.15635,6.42437,14.11274,8.67672,21.50363a1.46758,1.46758,0,0,0,1.41886,1.14609c2.17115.0487,4.34409.018,6.88125.018A83.615,83.615,0,0,0,454.31909,191.31263ZM190.016,58.69944c5.00132-5.11478,10.37446-4.02907,15.75344-2.49539a61.68,61.68,0,0,1,6.03007,2.188c2.33221.93707,1.916-1.3564,2.644-2.23312.73913-.89011.85377-1.793-.54993-2.40428-6.66715-2.90323-13.47453-3.527-20.40151-1.16376C191.02842,53.43139,190.2036,55.53477,190.016,58.69944Zm93.96435,102.72844c4.27255-.11986,4.7462-.75941,3.6158-4.74348-.68422-2.41147-1.33931-4.8312-2.02374-7.2426-.68274-2.40556-1.39089-4.80389-2.07715-7.20846-.22671-.7944-.299-1.87955-1.36539-1.80008-1.05391.07853-.85483,1.28114-1.14623,2.0056a4.26985,4.26985,0,0,0-.14627,1.37739c-.23451,5.51456.69454,10.91759,1.52773,16.33422C282.53583,161.26016,283.06,161.56707,283.98038,161.42788Zm-152.89793-2.53522a30.63293,30.63293,0,0,0,.47991,6.65784c.17664.95335-.237,2.30261,1.16022,2.50012a35.09551,35.09551,0,0,0,5.50714.25761c.463-.00807.39532-.71687.24669-1.19085-1.52587-4.86575-3.03322-9.73733-4.57417-14.59827-.16076-.50712-.40414-1.1231-1.089-1.08678-.63869.03386-.928.5932-1.1111,1.11764A17.67005,17.67005,0,0,0,131.08245,158.89266Zm100.30311-15.0614a45.17485,45.17485,0,0,0,.49519,6.96831c.42419,3.503,1.57471,4.50215,5.18417,4.49452,1.384-.00293,1.63513-.59309,1.31848-1.71935-1.45983-5.1925-2.92125-10.38467-4.42167-15.56549-.16665-.57543-.24995-1.47773-1.08385-1.42574-.90324.05634-1.02888.966-1.20734,1.67275A23.02572,23.02572,0,0,0,231.38556,143.83126Zm-112.5642,7.64292c1.63176,3.61966,3.29458,7.24266,4.89566,10.89273.6251,1.42509,1.77455,1.43308,3.0336,1.39334.9532-.03006,1.3876-.47459,1.26951-1.39876-.42436-3.32133,1.32679-7.26429-.48588-9.79577-1.44046-2.01168-5.427-.86257-8.25592-1.32165C119.20428,151.232,119.1135,151.323,118.82136,151.47418Zm184.79273-8.26511a59.36134,59.36134,0,0,0,1.10681,10.16627c.15058.7774-.283,2.61351,1.43712,1.895,1.328-.55466,3.82723-.50068,3.31738-2.95957-1.05771-5.1011-2.35167-10.1534-3.56342-15.22219-.14586-.61-.1717-1.509-.97662-1.496-.915.01479-1.063.96727-1.16073,1.66928A19.1965,19.1965,0,0,0,303.61409,143.20907Zm-191.6509,14.10687c-.14632,1.54941.35468,3.83952.59569,6.1509.22446,2.15269,3.27392,3.93947,5.33421,3.15773a.99707.99707,0,0,0,.63828-1.33482c-1.19945-4.85208-1.80715-9.86271-3.8395-14.49189-.22356-.50922-.53972-1.03561-1.21233-.97965-.67675.0563-.81053.64363-1.01143,1.16924C111.7792,152.7898,112.05619,154.6678,111.96319,157.31594ZM227.12624,232.4675c6.4959-3.36513,10.02374-9.04772,12.61154-15.57426.941-2.37307-.18006-2.85216-2.03079-3.365-2.36447-.65521-2.02261,1.1099-2.346,2.36232-.324,1.2547-.65141,2.51189-1.058,3.74129C232.73725,224.366,229.74372,228.2866,227.12624,232.4675Zm-22.52406-74.612c-1.4965.81043-4.201-.37853-4.95253,1.99168a35.88982,35.88982,0,0,0-1.87808,10.121c-.01365.703-.27052,1.62675.58357,1.99789.85751.3726,1.3631-.422,1.8373-.94807,3.087-3.42489,3.95149-7.94179,5.79373-11.97725C206.4711,157.97851,205.64007,157.79005,204.60218,157.85547Zm79.44506-83.35879c.88844.54189,1.17953.74293,1.49069.90557,2.94936,1.54174,2.98636,1.66456.84486,4.02988-.799.88249-.51818,1.587.077,2.46144.55977.82243.95365,1.0794,1.95375.57978a32.83834,32.83834,0,0,0,7.87842-6.10353c.66546-.63882,1.03177-1.67044-.22038-1.90536C292.31149,73.75906,288.50994,72.866,284.04724,74.49668ZM179.31342,172.36177c.20964.791-.57332,2.36715.79252,2.71538,1.3269.33827,2.02666-1.06026,2.50852-2.16762,1.36491-3.13679,2.67033-6.29957,3.99016-9.45588.2389-.57126.72461-1.19269-.05763-1.712-1.06038-.704-5.6453,1.11373-5.88055,2.43732C180.19664,166.82216,179.31537,169.39983,179.31342,172.36177Zm11.93608-92.75a31.57417,31.57417,0,0,0,5.20792-1.532c1.46826-.68809-.33487-2.19124.279-3.272.13293-.234.1034-.56088.23792-.79335.83125-1.43659.22936-2.00287-1.19179-2.50844-3.82652-1.36128-4.12967-1.32347-5.3774,2.43419a31.16309,31.16309,0,0,0-.89828,4.32135C189.317,79.31824,189.73424,79.87051,191.2495,79.61173Zm-22.72221,86.79976c-2.67865.3531-5.24458-.069-6.37472,1.85664-1.2318,2.09892-1.709,4.69415-2.24216,7.1327-.422,1.93014.81822,2.25245,2.36531,1.6859a3.99721,3.99721,0,0,0,2.11258-2.135C165.70153,172.30279,166.9708,169.6321,168.52729,166.41149Zm55.75216-13.33422c1.07923.75282,2.1389.33533,3.11268.41933,1.14927.09914,1.01757-.8768.90347-1.59753-.18725-1.18281-.959-.60885-1.44681-.32224C226.059,152.04079,225.01626,152.04022,224.27945,153.07727ZM297.11626,236.997c-.04267-.06366-.07425-.16518-.13071-.18174a.66005.66005,0,0,0-.26092.034l.161.2834Zm-68.85391-14.69161-.09693.15417.13719.02363Z"/><path class="cls-3" d="M219.52746,947.13743V892.25736h26.97767q9.48055,0,12.92895,3.03339,3.43109,3.0285,3.43618,11.43746,0,10.15959-8.08072,11.97469v.20878c6.271.95477,9.40875,5.32078,9.40875,13.05829,0,5.6095-1.20837,9.52791-3.62051,11.78577q-3.62511,3.37151-12.626,3.38169Zm10.41292-31.84576H242.686c4.12718,0,6.76288-.4476,7.90148-1.37284,1.134-.90491,1.70587-3.01353,1.70587-6.3056q0-6.59331-7.47934-6.59382H229.94038Zm0,23.07352H241.358l3.65514-.06976q5.27343,0,6.94212-1.49149,1.66284-1.49174,1.66564-6.27607,0-4.9824-1.74559-6.27558c-1.16864-.8453-4.04265-1.28268-8.62762-1.28268h-13.3073Z"/><path class="cls-3" d="M272.90535,947.13743V892.25736h26.97257q11.50926,0,16.107,5.02238,4.602,5.02824,4.60483,17.60405,0,20.5575-3.70505,26.39564-3.68468,5.86309-16.68339,5.858Zm10.41292-8.77224h14.83392q7.474,0,9.66744-3.43108,2.19293-3.44637,2.19268-15.18681,0-12.12873-1.96914-15.43585-1.96913-3.29661-9.24427-3.292H283.31827Z"/><path class="cls-3" d="M338.6658,901.01941V915.172H364.4v7.67793H338.6658v15.51525h27.38v8.77224H328.25287V892.25736h37.55456v8.76205Z"/><path class="cls-2" d="M290.09642,323.02141c-114.87163.03971-210.578,81.70293-232.30919,190.18952h96.95441a143.10123,143.10123,0,1,1,.17925,94.07531H57.98633V728.573c0,101.83269,88.13788,95.83567,88.13788,95.83567l.03972-76.233A235.99932,235.99932,0,0,0,290.09642,796.939c130.87421-.03,236.91911-106.08008,236.95374-236.97363-.03463-130.86448-106.07953-236.9043-236.95374-236.944"/><path class="cls-3" d="M449.89247,845.99065a3.27209,3.27209,0,0,1-3.30734,2.85415,3.80769,3.80769,0,0,1-3.88836-4.0177,3.71626,3.71626,0,0,1,3.85373-4.02789,3.1103,3.1103,0,0,1,3.27221,2.77471h-1.41714a1.7297,1.7297,0,0,0-1.85507-1.3428c-1.36724,0-2.11324,1.07394-2.11324,2.55626a2.3402,2.3402,0,0,0,2.14787,2.60565,1.66048,1.66048,0,0,0,1.82044-1.40238Zm-3.55584,4.17709a5.31555,5.31555,0,1,0-5.09214-5.31111,5.122,5.122,0,0,0,5.09214,5.31111m0-12.074a6.76556,6.76556,0,1,1-6.9467,6.76287,6.71592,6.71592,0,0,1,6.9467-6.76287"/><path class="cls-3" d="M151.39509,864.46953h7.26038a15.01221,15.01221,0,0,0,3.45094-.219,1.69514,1.69514,0,0,0,1.31785-1.104,7.33941,7.33941,0,0,0,.31317-2.40651c.01527-2.36734-.31317-3.46113-.66606-3.77939-.27345-.33812-1.16864-.58713-3.11282-.56676h-8.56346Zm-5.34064,14.49072V851.66941h15.2861c2.88929-.00967,5.00762.9451,6.23126,2.64537a10.27065,10.27065,0,0,1,1.51644,6.04692,11.3912,11.3912,0,0,1-.98431,5.22149c-.9945,1.97931-3.24726,3.65-6.91259,3.61032h-9.79626v9.76674Z"/><path class="cls-3" d="M193.21126,856.18462c-2.29248-.00968-3.46571.30858-3.94335.80554-.51227.46749-.885,1.62137-.87025,4.00806v8.93162c.01018,2.41673.45269,3.38118,1.01435,3.80892.54741.47765,1.79549.70628,3.79925.70628H196.956c2.00376,0,3.25694-.22863,3.80434-.70628.56167-.42774,1.02913-1.39219,1.02913-3.80892v-8.93162c0-2.38669-.37275-3.54057-.885-4.00806-.47255-.497-1.66105-.81522-3.94845-.80554Zm3.75953-4.70416c3.56552.04994,6.11668.56679,7.87195,2.17794,1.76035,1.64117,2.28739,4.11751,2.28739,7.33982v8.93162c.00509,3.07311-.61666,5.49951-2.38669,7.09081-1.77563,1.58162-4.34156,2.1387-7.78742,2.1387h-3.74476c-3.44076,0-6.0072-.55708-7.78741-2.1387-1.77-1.5913-2.3816-4.0177-2.3816-7.09081v-8.93162c0-3.22231.527-5.69865,2.2823-7.33982,1.75526-1.61115,4.32628-2.128,7.88671-2.17794H196.956"/><polygon class="cls-3" points="223.958 878.96 223.958 851.669 229.304 851.669 229.304 874.246 243.506 874.246 243.506 878.96 223.958 878.96"/><polygon class="cls-3" points="263.855 878.96 263.855 867.732 252.631 851.669 258.977 851.669 266.664 862.61 274.338 851.669 280.807 851.669 269.221 867.742 269.221 878.96 263.855 878.96"/><polygon class="cls-3" points="301.37 878.96 301.37 856.394 292.349 856.394 292.349 851.669 315.751 851.669 315.751 856.394 306.711 856.394 306.711 877.856 306.711 878.96 301.37 878.96"/><polygon class="cls-3" points="330.704 878.96 330.704 851.669 350.81 851.669 350.81 856.394 336.06 856.394 336.06 862.719 350.183 862.719 350.183 867.235 336.06 867.235 336.06 874.246 350.81 874.246 350.81 878.96 330.704 878.96"/><path class="cls-3" d="M376.42914,879.15935h-.01477a9.45559,9.45559,0,0,1-6.7033-2.377,8.78047,8.78047,0,0,1-2.46663-6.6239v-9.71679c-.05958-3.73967,1.40746-6.3056,3.85882-7.53892,2.402-1.25318,5.42059-1.41209,8.85168-1.42227h2.60565c3.02829,0,5.276.58665,6.768,2.069,1.48182,1.52153,1.93451,3.66988,1.93451,6.24552v1.90955h-5.34573v-1.80975c0-1.68091-.23882-2.596-.63143-2.984-.33812-.37784-1.21855-.72614-3.17291-.72614h-1.78022a23.26936,23.26936,0,0,0-5.39054.42774,2.5496,2.5496,0,0,0-1.989,1.45224,5.31705,5.31705,0,0,0-.37326,2.2971v6.89273a22.74538,22.74538,0,0,0,.32845,4.893,2.46971,2.46971,0,0,0,1.45686,1.90955,7.06146,7.06146,0,0,0,2.66064.37784h3.74426a15.514,15.514,0,0,0,3.99835-.32794c.82034-.27854,1.03931-.4975,1.273-1.00468a4.78391,4.78391,0,0,0,.25868-1.78021v-3.08332h5.34064v3.43162c.0499,3.08279-1.24809,5.30092-3.33689,6.32492-2.05366,1.04443-4.585,1.15391-7.41925,1.1641Z"/><polygon class="cls-3" points="427.192 878.96 427.187 867.413 413.079 867.413 413.079 878.96 407.713 878.96 407.713 851.669 413.079 851.669 413.079 862.719 427.187 862.719 427.187 851.669 432.547 851.669 432.547 878.96 427.192 878.96"/><path class="cls-3" d="M245.40723,978.87305H235.0957l-1.51855,4.44531h-3.57227l7.69336-22.06055h4.94531l7.82227,22.06055h-3.49121Zm-.85645-2.58594-4.332-12.37891-4.2666,12.37891Z"/><path class="cls-3" d="M273.0625,961.25781v22.06055h-5.64062l-7.74122-13.51172q-.51708-.90527-2.21386-4.23437l-.72754-1.42188h-.09668l.03222,1.14649q.04834,1.60253.04786,3.459v14.5625h-3.34473V961.25781h5.624l6.86817,12.13672q.88916,1.585,2.877,5.28516l.9375,1.76172h.09668l-.03223-1.13086q-.04833-1.60254-.04785-3.39453V961.25781Z"/><path class="cls-3" d="M285.65723,971.957h9.59961q.04833,1.11328.04882,3.61914a29.04759,29.04759,0,0,1-.12207,3.13477,5.96223,5.96223,0,0,1-.47656,1.79492,4.67281,4.67281,0,0,1-3.65234,2.74805,33.07252,33.07252,0,0,1-5.252.27343,23.18132,23.18132,0,0,1-4.623-.33789,5.74255,5.74255,0,0,1-2.58594-1.27734,6.41944,6.41944,0,0,1-1.97168-4.42773q-.11279-1.13086-.1123-2.74805,0-4.55859.04785-5.86719.16113-4.60547,2.23047-6.33594a6.32216,6.32216,0,0,1,3.73339-1.373q1.47071-.11133,3.92676-.11328,2.50635,0,3.62891.08984a8.1995,8.1995,0,0,1,1.94726.36328,4.47936,4.47936,0,0,1,3.13575,4.10547c.05371.46289.08593,1.18555.09668,2.16406h-3.37793a6.32734,6.32734,0,0,0-.501-2.73047,2.63093,2.63093,0,0,0-2.10059-1.00195q-1.03564-.11425-3.57226-.11328a13.9953,13.9953,0,0,0-3.70117.35547,2.77576,2.77576,0,0,0-1.8418,2.27929,44.21676,44.21676,0,0,0-.24316,5.5586q.03222,3.81445.06543,4.47656a6.0606,6.0606,0,0,0,.541,2.50586,2.367,2.367,0,0,0,1.43066,1.16406,18.058,18.058,0,0,0,4.55762.38672,17.27259,17.27259,0,0,0,3.127-.209,2.63576,2.63576,0,0,0,1.51074-.72852q.77637-.87012.77636-3.99023c0-.24805-.00585-.6211-.0166-1.11524h-6.2539Z"/><path class="cls-3" d="M301.90234,964.11719v6.54687h10.73145v2.61719H301.90234V980.457h11.29688v2.86133H298.50879V961.25781h14.64258v2.85938Z"/><path class="cls-3" d="M317.17871,983.31836V961.25781h10.68262a9.19756,9.19756,0,0,1,4.541.88867,4.23732,4.23732,0,0,1,1.97168,2.63477,10.9065,10.9065,0,0,1,.30762,2.9082,12.37453,12.37453,0,0,1-.35547,3.42578,3.4022,3.4022,0,0,1-2.085,2.24805,7.04465,7.04465,0,0,1-1.45508.3711v.11328a3.74019,3.74019,0,0,1,2.72364,1.1875,4.6446,4.6446,0,0,1,.89648,3.07812v5.20508h-3.41016v-4.49414a3.652,3.652,0,0,0-.92089-2.87695,4.28081,4.28081,0,0,0-2.81153-.72657h-6.6914v8.09766Zm3.39356-10.99023h6.52929a5.496,5.496,0,0,0,3.08692-.66211,2.50654,2.50654,0,0,0,.96972-1.61719,8.90318,8.90318,0,0,0,.09668-1.584,10.167,10.167,0,0,0-.24218-2.76367,2.21815,2.21815,0,0,0-1.97168-1.4375,8.67617,8.67617,0,0,0-1.374-.09765h-7.09472Z"/><path class="cls-3" d="M354.75781,967.46289h-3.3125a5.00875,5.00875,0,0,0-.43652-2.56836,2.34447,2.34447,0,0,0-1.665-.95508,15.032,15.032,0,0,0-2.32715-.1289,26.311,26.311,0,0,0-3.03027.12109,3.708,3.708,0,0,0-1.47852.47656q-1.03418.64746-1.03418,2.78125a4.69057,4.69057,0,0,0,.40332,2.18164,2.6229,2.6229,0,0,0,2.21485,1.09766q.51708.06445,3.28027.21094a32.90877,32.90877,0,0,1,4.08887.37109,4.28411,4.28411,0,0,1,3.21679,2.21485,8.37694,8.37694,0,0,1,.56543,3.55468,13.65267,13.65267,0,0,1-.291,3.15235,4.06979,4.06979,0,0,1-.95313,1.875,5.43232,5.43232,0,0,1-3.54,1.51953q-1.63184.16113-4.00781.16015a20.76547,20.76547,0,0,1-5.17187-.41992q-2.79639-.873-3.1836-4.26562c-.05371-.48633-.09179-1.293-.11328-2.42578h3.31348v.50195a7.2817,7.2817,0,0,0,.25781,2.21484,2.05683,2.05683,0,0,0,.85742,1.13086,3.60754,3.60754,0,0,0,1.79395.43555q1.21143.03222,2.71484.0332a15.87853,15.87853,0,0,0,2.99024-.19531,2.48721,2.48721,0,0,0,1.38964-.74219,5.0983,5.0983,0,0,0,.582-3.02344,4.55762,4.55762,0,0,0-.30762-1.89062,2.42,2.42,0,0,0-2.05274-1.09766q-.43651-.06445-3.34472-.22656-2.82861-.16113-3.57227-.27539a5.10337,5.10337,0,0,1-3.58789-1.875,7.03469,7.03469,0,0,1-.9209-4.03906q0-3.76758,1.69727-5.02735a6.68694,6.68694,0,0,1,3.42578-1.16406q1.53516-.12891,3.41016-.1289a21.82686,21.82686,0,0,1,4.541.32421,4.165,4.165,0,0,1,3.13574,2.48829,8.50657,8.50657,0,0,1,.45215,3.10351Z"/></g></g><g id="cubes"><g id="haut"><rect class="cls-2" x="3807.75" y="80" width="80" height="80"/><rect class="cls-2" x="3577.75" y="80" width="80" height="80"/><rect class="cls-2" x="3347.75" y="80" width="80" height="80"/><rect class="cls-2" x="4268.25" y="80" width="80" height="80"/><rect class="cls-2" x="4728.75" y="80" width="80" height="80"/><rect class="cls-2" x="4498.75" y="80" width="80" height="80"/><rect class="cls-2" x="2656.75" y="80" width="80" height="80"/><rect class="cls-2" x="2426.75" y="80" width="80" height="80"/><rect class="cls-2" x="2196.75" y="80" width="80" height="80"/><rect class="cls-2" x="3117.25" y="80" width="80" height="80"/><rect class="cls-2" x="4037.75" y="80" width="80" height="80"/><rect class="cls-2" x="1506.75" y="80" width="80" height="80"/><rect class="cls-2" x="1276.75" y="80" width="80" height="80"/><rect class="cls-2" x="1046.75" y="80" width="80" height="80"/><rect class="cls-2" x="1966.25" y="80" width="80" height="80"/><rect class="cls-2" x="2886.75" y="80" width="80" height="80"/><rect class="cls-2" x="816.25" y="80" width="80" height="80"/><rect class="cls-2" x="1736.75" y="80" width="80" height="80"/><rect class="cls-2" x="3807.75" y="840" width="80" height="80"/><rect class="cls-2" x="3577.75" y="840" width="80" height="80"/><rect class="cls-2" x="3347.75" y="840" width="80" height="80"/><rect class="cls-2" x="4268.25" y="840" width="80" height="80"/><rect class="cls-2" x="4728.75" y="840" width="80" height="80"/><rect class="cls-2" x="4498.75" y="840" width="80" height="80"/><rect class="cls-2" x="2656.75" y="840" width="80" height="80"/><rect class="cls-2" x="2426.75" y="840" width="80" height="80"/><rect class="cls-2" x="2196.75" y="840" width="80" height="80"/><rect class="cls-2" x="3117.25" y="840" width="80" height="80"/><rect class="cls-2" x="4037.75" y="840" width="80" height="80"/><rect class="cls-2" x="1506.75" y="840" width="80" height="80"/><rect class="cls-2" x="1276.75" y="840" width="80" height="80"/><rect class="cls-2" x="1046.75" y="840" width="80" height="80"/><rect class="cls-2" x="1966.25" y="840" width="80" height="80"/><rect class="cls-2" x="2886.75" y="840" width="80" height="80"/><rect class="cls-2" x="816.25" y="840" width="80" height="80"/><rect class="cls-2" x="1736.75" y="840" width="80" height="80"/></g></g><g id="Ancrage"><rect class="cls-4" x="5624" y="999" width="1" height="1"/><rect class="cls-4" x="5624" width="1" height="1"/><rect class="cls-4" y="999" width="1" height="1"/><rect class="cls-4" width="1" height="1"/></g></svg>