<svg xmlns="http://www.w3.org/2000/svg" viewBox="0 0 5625 1000"><title>logo_wonderland</title><g id="a631a286-a0c2-4f7b-811a-554c4bab3f65" data-name="Texte"><path d="M1342.294,290.98291q-4.02247,15.48486-9.45411,38.13086-4.01513,21.89868-12.98632,64.93311-13.46925,55.4978-42.78809,161.58691-30.0293,107.98242-43.02539,161.21094-9.69433,39.6416-18.209,63.42968-11.124,31.33447-33.89746,31.35938-13.5249.01318-24.45019-11.67676-12.82617-13.5747-13.7959-35.84375-10.95849-43.39014-13.83105-70.94629-10.52052-80.75684-29.18165-242.66845-15.35155,75.8811-33.084,136.29052-26.48877,90.61085-34.74023,142.3291a71.05845,71.05845,0,0,1,2.15234,17.73829q.02343,23.40674-13.0127,38.13476-11.376,12.46728-25.13769,12.47949-17.32324.01758-28.72266-13.93652-12.35449-15.46143-12.85351-42.2627l-7.39746-44.15332q-7.88818-58.87353-25.7959-175.86425-15.7456-89.439-52.68262-254.72364a85.2082,85.2082,0,0,1-2.15332-18.87011q-.022-22.64649,10.87891-35.86768,9.71484-12.085,23.47754-12.10107,18.0293-.01758,28.73242,24.12841,5.94141,13.21069,13.57129,47.92237,23.35254,106.4165,52.73632,310.208,18.9082-73.62012,38.50586-173.66163,15.813-81.54345,25.749-115.90039,23.64258-82.303,48.32226-82.32959,23.25147-.02269,33.96875,40.353,5.23389,19.24512,10.26953,69.81738,1.43848,15.47975,6.24219,75.86036,5.04639,64.9182,30.125,236.25048,25.05615-93.62548,67.3584-269.9375,2.59863-10.56444,12.27051-69.46142,6.83789-42.2754,17.25586-66.82471,11.36279-26.4265,30.34375-26.45068,14.46972-.01392,23.97754,14.13086,9.501,14.14525,9.52636,36.41406Q1350.56593,258.13672,1342.294,290.98291Z" style="fill:#f30;stroke:#000;stroke-miterlimit:10;stroke-width:14px"/><path d="M1576.7002,798.041q-70.2334.06883-119.64356-64.04981-52.73877-68.63964-52.84473-177.72558-.1245-128.32471,50.31055-234.064,56.58839-118.9497,142.71777-119.0332,82.80177-.07985,124.14844,60.271,41.34229,60.353,41.46,181.51026.12451,128.33422-46.27832,232.55029Q1663.064,797.96143,1576.7002,798.041Zm20.63964-492.58545q-52.91161.05127-90.55664,81.61572-35.28222,76.281-35.18847,169.12891.06151,62.65869,30.70605,101.88085,29.45361,37.71826,74.30078,37.67188,52.19385-.0498,86.99707-81.61133,31.95851-74.38623,31.86719-169.12646-.07764-79.26343-22.41016-110.1919Q1651.67334,305.40259,1597.33984,305.45557Z" style="fill:#f30;stroke:#000;stroke-miterlimit:10;stroke-width:14px"/><path d="M2182.29785,681.57715q.01905,18.87891-3.97558,59.64062-4.70216,48.69581-34.59375,48.72461-16.60987.01613-37.51661-29.78222-91.47509-130.88086-206.53906-367.05323-1.32861,98.14307-1.30664,120.40577.02784,29.82128.917,89.83105.8877,60.01319.918,89.83105.10693,111.3501-34.05859,111.37989-17.32177.01611-27.77637-16.959-9.26806-15.09228-9.28906-36.60351-.01319-15.09083,1.498-45.67188,1.51025-30.57421,1.498-45.67187-.02051-22.2671.88379-66.8086.90234-44.5327.88477-66.80859-.02344-23.77881-.78125-71.71387-.75879-47.92823-.78125-71.71338-.022-22.64647-2.91309-67.56-2.89014-44.90993-2.91308-67.55957-.022-22.64649,12.18066-40.39795,12.20068-17.74878,27.86133-17.76758,17.55615-.01685,38.958,48.27539,107.95313,244.4795,212.97656,398.75244.22266-12.0747.18164-57.37109-.18018-186.07545-2.61621-250.999-.4878-10.94165-3.12305-40.76074-2.40089-26.41334-2.41406-41.5166-.04981-52.08691,34.59082-52.12109,38.6704-.03736,38.8584,189.81689.00293,4.158-.417,59.63672Q2182.25245,634.77758,2182.29785,681.57715Z" style="fill:#f30;stroke:#000;stroke-miterlimit:10;stroke-width:14px"/><path d="M2298.38574,778.09082q-14.00244-.36621-23.5039-15.26269-9.50683-14.89747-9.52539-36.03711-.03663-37.73877,2.14453-113.23536,2.17823-75.48925,2.14355-113.23584-.03955-41.896-1.18945-125.688-1.14845-83.79126-1.18945-125.688-.019-20.75317,12.53515-41.34229,12.55371-20.57958,26.791-20.59668,7.82958-.00732,39.40918,23.36377,36.80127,27.90089,43.68652,31.28516,69.55224,35.79566,118.74023,110.85351,58.6875,89.398,58.7959,197.72413.06446,65.30419-20.04687,124.19824-20.11084,60.03369-55.18946,96.30176-39.34716,40.80321-110.76269,40.87207-17.32325.01611-39.86816-7.8877Q2314.05907,793.92334,2298.38574,778.09082Zm132.9668-388.1416q-23.03907-22.99586-98.77246-72.37354l.3623,373.66944a60.4766,60.4766,0,0,0,21.249,14.13379,72.191,72.191,0,0,0,26.69726,4.69238q51.249-.0498,73.53028-22.71875,21.09375-21.53467,33.51562-58.53613a239.57849,239.57849,0,0,0,12.38184-77.01075Q2500.22559,458.20289,2431.35254,389.94922Z" style="fill:#f30;stroke:#000;stroke-miterlimit:10;stroke-width:14px"/><path d="M2873.96387,289.87451a25.01687,25.01687,0,0,1-9.9668-2.25488q-38.45361-16.56738-74.75488-16.53516a176.79467,176.79467,0,0,0-38.19531,4.56641,291.82793,291.82793,0,0,0-43.40625,13.63037q.04833,50.20313-1.99024,149.09229,13.28321-1.51686,92.75684-14.05567,45.30908-7.20923,57.41113-7.22705,13.99657-.01319,23.97754,14.13086,9.97851,14.14527,10.001,37.54639.04393,44.92089-30.082,50.98388-18.98437,2.28369-56.70019,7.6045-33.687,6.07323-101.53516,14.81835-1.61573,47.94-1.585,77.377.07177,73.98194,5.53809,84.165,2.61327,4.90722,29.90039,4.87793,14.70849-.01465,44.36719-1.17481,29.65575-1.16162,44.36816-1.17578,4.74316-.00439,13.99609-2.27832,9.2505-2.27343,13.75879-2.27832,13.75782-.01319,23.502,12.43359,11.1621,13.957,11.18945,39.24317.041,42.26807-27.71094,50.60449-23.72168,7.188-98.458,7.2666-77.35254.07617-100.87011-33.11621-25.89844-36.58154-26.01563-158.50293-.0498-50.57373,4.47949-151.92529,4.52784-101.34814,4.4795-151.54834-.01319-13.207-2.41016-39.063-2.40089-25.84644-2.41113-39.063-.05566-57.3684,33.16211-57.40381,10.437-.01024,19.22753,9.417a341.71036,341.71036,0,0,1,52.30079-16.46924,218.01,218.01,0,0,1,46.85449-5.51856q59.79052-.05785,95.63867,21.79883,21.83936,13.196,21.875,47.91455.01905,19.63038-8.50781,34.7334Q2888.67235,289.86329,2873.96387,289.87451Z" style="fill:#f30;stroke:#000;stroke-miterlimit:10;stroke-width:14px"/><path d="M3211.08789,777.96094q-12.81151.01171-23.50391-15.83008-71.99414-107.12109-158.16308-148.55957,2.71583,109.83252,2.72851,121.91113.02052,21.51417-9.45507,36.4336-9.479,14.915-23.71192,14.93164-14.23681.01464-23.74121-14.88575-9.50831-14.89746-9.52637-36.415-.02783-28.30812.39258-84.73633.41748-56.42139.39258-84.73731l.17871-304.59668q-.02343-24.531,9.21-44.54736,12.07617-25.67579,33.43262-23.05664,57.66212,6.73828,59.08594,7.11426,33.22119,6.38964,56.49316,25.23388,101.3877,81.05713,101.50781,201.0791.04835,49.45093-21.15039,87.39844-21.20068,37.95411-63.64453,64.03906,62.92675,55.8047,94.78027,113.89551a68.5607,68.5607,0,0,1,8.33692,33.585q.0205,21.14357-9.93067,36.4336Q3224.85059,777.94726,3211.08789,777.96094ZM3058.541,303.2832q-1.90284-.36914-27.7627-2.99218l.19434,200.42236q5.92821.375,10.43945.36767,58.12792-.05712,86.10547-23.10742,12.09082-9.82251,22.1582-26.06543,10.06788-16.23413,10.06055-24.54345-.041-42.26807-33.77051-81.49512Q3093.9004,308.91382,3058.541,303.2832Z" style="fill:#f30;stroke:#000;stroke-miterlimit:10;stroke-width:14px"/><path d="M3531.35059,758.77832q-27.98,19.65673-86.56836,35.18652-53.61036,14.39063-88.01075,14.42774-58.13377.05567-58.209-81.09375.00587,6.42188,4.62891-119.65528,6.00879-163.81347,5.81543-364.61669-.02052-21.51417,9.33691-36.6211,9.3545-15.10107,23.59277-15.12109,14.23536-.01392,23.74121,15.07519,9.501,15.09156,9.5254,36.60254.19482,201.18384-6.04688,370.65674-2.105,30.20361-4.418,92.47852,56.231-1.55861,144.21582-43.92383a24.01917,24.01917,0,0,1,10.43653-2.65235q14.94726-.01464,24.21777,17.33887a72.27743,72.27743,0,0,1,8.33789,34.7168Q3551.97706,744.04395,3531.35059,758.77832Z" style="fill:#f90;stroke:#000;stroke-miterlimit:10;stroke-width:14px"/><path d="M3877.51563,784.1084q-18.74707-1.11475-37.793-70.168-12.6211-44.51953-21.69043-102.64355-17.55762,4.17333-57.41016,8.35937-37.48828,4.19385-57.40918,9.86914-10.875,41.53564-37.84082,124.96973-10.418,27.186-28.91992,27.20508-13.05176.01317-23.50293-14.13086-10.45752-14.146-10.47461-36.03614-.01905-19.2495,34.51367-130.62988a68.40089,68.40089,0,0,1-2.86816-21.88867q.92724-18.11865,22.9873-28.33106,33.59913-92.88354,74.78906-192.56884,59.17383-143.10353,72.93946-143.12207,26.09619-.02563,34.92676,50.166,4.78125,40.38794,15.06445,121.145,14.5752,108.68994,35.59375,248.70117,1.667,10.57032,12.14941,49.81153,8.57227,32.45654,8.58887,48.68164.0205,21.89355-10.28613,36.62207Q3890.5664,784.85058,3877.51563,784.1084Zm-88.875-387.17236q-18.457,50.60229-50.87891,137.81689,10.67432-3.7793,33.21191-6.07129,26.56788-2.66161,33.4502-4.18457Q3798.68164,475.44166,3788.64063,396.936Z" style="fill:#f90;stroke:#000;stroke-miterlimit:10;stroke-width:14px"/><path d="M4340.52832,679.48438q.01758,18.87889-3.97559,59.64062-4.70214,48.69434-34.59375,48.72363-16.61132.01613-37.5166-29.78222-91.47656-130.88086-206.54-367.05323-1.32861,98.14307-1.30761,120.40674.0293,29.82129.91894,89.83106.88478,60.01171.917,89.83007.1084,111.3501-34.05859,111.37989-17.32177.01611-27.77539-16.959-9.26807-15.09081-9.29-36.60254-.01464-15.09081,1.499-45.67285,1.51026-30.57421,1.49805-45.6709-.022-22.26708.88379-66.80859.90234-44.53417.88379-66.80859-.02344-23.77881-.78027-71.71436-.75879-47.92823-.78223-71.71387-.022-22.64647-2.91309-67.55957-2.8916-44.90991-2.91211-67.55957-.022-22.64647,12.17969-40.39843,12.19922-17.74878,27.86133-17.76709,17.55615-.01685,38.958,48.27539,107.95165,244.47948,212.97754,398.75195.22119-12.0747.18164-57.37109-.18165-186.07472-2.61719-250.999-.4878-10.94165-3.12305-40.76025-2.40087-26.41334-2.41308-41.51709-.05127-52.08691,34.58984-52.12061,38.6704-.03808,38.8584,189.8169.00439,4.158-.416,59.63672Q4340.48292,632.68359,4340.52832,679.48438Z" style="fill:#f90;stroke:#000;stroke-miterlimit:10;stroke-width:14px"/><path d="M4456.61621,775.99805q-14.00391-.36768-23.50488-15.26367-9.50684-14.89747-9.52539-36.03711-.03663-37.73877,2.14355-113.23536,2.17969-75.48779,2.14453-113.23535-.041-41.896-1.18945-125.688-1.1499-83.792-1.18945-125.688-.0205-20.75317,12.53515-41.34229,12.55225-20.58031,26.791-20.59668,7.82959-.00805,39.4082,23.36328,36.80127,27.90162,43.6875,31.28565,69.55226,35.79566,118.74024,110.85351,58.686,89.39723,58.79687,197.72364.063,65.30419-20.04785,124.19824-20.11084,60.03516-55.18945,96.30176-39.34863,40.80321-110.76367,40.87207-17.32179.01756-39.86817-7.8877Q4472.28907,791.82959,4456.61621,775.99805ZM4589.582,387.85547q-23.03905-22.99512-98.77246-72.37354l.36231,373.66944a60.48529,60.48529,0,0,0,21.249,14.13379,72.213,72.213,0,0,0,26.69629,4.69336q51.25048-.04982,73.53125-22.71973,21.09228-21.53467,33.5166-58.53613a239.625,239.625,0,0,0,12.38086-77.00977Q4658.45508,456.10865,4589.582,387.85547Z" style="fill:#f90;stroke:#000;stroke-miterlimit:10;stroke-width:14px"/></g><g id="a698426c-6f17-46db-a52b-24ca3b512205" data-name="soulignage"><rect x="792" y="920" width="4041" height="26" rx="12.99999" style="fill:#09c;stroke:#000;stroke-miterlimit:10;stroke-width:6px"/></g><g id="e1f56a05-87d5-470f-81a5-810f4ed393c1" data-name="icons"><g id="ac932d68-0862-488c-b3f0-eaa18df5609b" data-name="compass"><g id="e6b20a5a-b029-4bc6-8425-8c94a291de51" data-name="boussole"><path d="M5179,279.998c-190.53846,0-345,154.46178-345,345s154.46154,345,345,345,345-154.46179,345-345S5369.53846,279.998,5179,279.998Zm0,603.2563c-142.62986,0-258.25431-115.62439-258.25431-258.25431S5036.37014,366.74567,5179,366.74567,5437.25431,482.37006,5437.25431,625,5321.62986,883.25429,5179,883.25429Z" style="fill:gray;stroke:#000;stroke-miterlimit:10;stroke-width:8.5px"/></g><g id="f711f516-d402-4123-ad90-c5b3374c0461" data-name="aiguilles"><g id="efee64b7-6b1b-4f60-9886-1ce507ba3f69" data-name="blue"><g id="ee459a98-e1d5-48f9-8d88-8ea9f9cb9bb7" data-name="blueC"><path d="M5179,624.99756v334.165l-78.7613-255.40367Z" style="fill:#0cf;stroke:#000;stroke-miterlimit:10;stroke-width:4px"/><path d="M5179,290.83257l78.76132,255.40509L5179,624.99756Z" style="fill:#0cf;stroke:#000;stroke-miterlimit:10;stroke-width:4px"/><path d="M5513.165,624.99756l-255.40367,78.76132L5179,624.99756Z" style="fill:#0cf;stroke:#000;stroke-miterlimit:10;stroke-width:4px"/><path d="M5100.2387,546.23766,5179,624.99756H4844.835Z" style="fill:#0cf;stroke:#000;stroke-miterlimit:10;stroke-width:4px"/></g><g id="e7ac3af0-32a2-451b-bb84-eaa469a3c15a" data-name="BlueF"><path d="M5179,290.83257v334.165l-78.7613-78.75992Z" style="fill:#09c;stroke:#000;stroke-miterlimit:10;stroke-width:4px"/><path d="M5179,624.99756l78.76132,78.76132L5179,959.16255Z" style="fill:#09c;stroke:#000;stroke-miterlimit:10;stroke-width:4px"/><path d="M5513.165,624.99756H5179l78.76132-78.75992Z" style="fill:#09c;stroke:#000;stroke-miterlimit:10;stroke-width:4px"/><path d="M5179,624.99756l-78.7613,78.76132L4844.835,624.99756Z" style="fill:#09c;stroke:#000;stroke-miterlimit:10;stroke-width:4px"/></g></g><g id="f413d084-1c31-4159-8511-93eb0611187e" data-name="red"><g id="e74c4188-27c0-4be5-803d-e3afca117d7d" data-name="redC"><path d="M5356.43851,802.43605,5179,624.99754h83.64239Z" style="fill:#ffcf0d;stroke:#000;stroke-miterlimit:10;stroke-width:4px"/><path d="M5179,624.99754v83.64239l-177.43851,93.79612Z" style="fill:#ffcf0d;stroke:#000;stroke-miterlimit:10;stroke-width:4px"/><path d="M5179,624.99754h-83.6424L5001.56149,447.559Z" style="fill:#ffcf0d;stroke:#000;stroke-miterlimit:10;stroke-width:4px"/><path d="M5356.43851,447.559,5179,624.99754v-83.6424Z" style="fill:#ffcf0d;stroke:#000;stroke-miterlimit:10;stroke-width:4px"/></g><g id="bf620a92-5d15-4797-889b-b20a2264ae09" data-name="RedF"><path d="M5179,541.35514v83.6424L5001.56149,447.559Z" style="fill:#f90;stroke:#000;stroke-miterlimit:10;stroke-width:4px"/><path d="M5179,624.99754,5001.56149,802.43605l93.79611-177.43851Z" style="fill:#f90;stroke:#000;stroke-miterlimit:10;stroke-width:4px"/><path d="M5356.43851,802.43605,5179,708.63993V624.99754Z" style="fill:#f90;stroke:#000;stroke-miterlimit:10;stroke-width:4px"/><path d="M5356.43851,447.559l-93.79612,177.43852H5179Z" style="fill:#f90;stroke:#000;stroke-miterlimit:10;stroke-width:4px"/></g></g></g></g><g id="ab830b7c-7a84-401f-a261-29efea87f23a" data-name="personages"><g id="e59512f9-51cc-47e9-9834-8768ba656fb7" data-name="fairy tail"><path d="M546.99382,447.28019v84.22472H23.74775V447.28019A52.64075,52.64075,0,0,1,76.3882,394.63975H494.35337A52.64075,52.64075,0,0,1,546.99382,447.28019Z" style="fill:#06c"/><path d="M504.88146,447.28019v347.427a10.52787,10.52787,0,0,1-10.52809,10.52809H76.3882a10.52788,10.52788,0,0,1-10.52809-10.52809v-347.427A10.52788,10.52788,0,0,1,76.3882,436.7521H494.35337A10.52787,10.52787,0,0,1,504.88146,447.28019Z" style="fill:#fff"/><path d="M23.74775,794.70716V531.50491A52.64076,52.64076,0,0,1,76.3882,478.86446H494.35337a52.64075,52.64075,0,0,1,52.64045,52.64045V794.70716a52.64076,52.64076,0,0,1-52.64045,52.64045H76.3882A52.64077,52.64077,0,0,1,23.74775,794.70716Z" style="fill:#09c"/><path d="M504.88146,742.06671A52.64076,52.64076,0,0,1,452.241,794.70716H76.3882a52.64077,52.64077,0,0,1-52.64045-52.64045v52.64045A52.64077,52.64077,0,0,0,76.3882,847.34761H494.35337a52.64076,52.64076,0,0,0,52.64045-52.64045V531.50491a52.65766,52.65766,0,0,0-42.11236-51.58552Z" style="fill:#06c"/><path d="M301.07553,536.769v7.97925A42.17246,42.17246,0,0,0,254.713,563.41346a63.17172,63.17172,0,1,0-15.41733,124.43362H332.6598V536.769a15.79214,15.79214,0,0,0-31.58427,0Z" style="fill:#fff"/><path d="M216.24334,789.44312v-7.97925a42.17247,42.17247,0,0,1-46.36255-18.66524A63.17171,63.17171,0,1,1,154.46346,638.365h93.36415V789.44312a15.79214,15.79214,0,0,1-31.58427,0Z" style="fill:#fff"/><path d="M152.34205,720.48413V605.728H343.88484V720.48413Z" style="fill:#9aa3b1"/><path d="M201.14607,663.106a21.05576,21.05576,0,0,0,21.05618,21.05618h31.58427a10.52789,10.52789,0,0,0,10.52809-10.52809V652.578a10.52789,10.52789,0,0,0-10.52809-10.52809H222.20225A21.05575,21.05575,0,0,0,201.14607,663.106Z" style="fill:#67788c"/><path d="M152.341,720.48413V694.69031h191.5428v25.79382Z" style="fill:#7e8b9e"/><path d="M85.33708,663.106c0,18.57682,55.35038,66.53542,66.41961,66.53542S169.5618,698.3246,169.5618,663.106s-6.73482-66.53542-17.80511-66.53542S85.33708,644.52923,85.33708,663.106Z" style="fill:#f30"/><path d="M164.57885,615.72963c0,54.71238-55.28721,82.66551-70.5582,65.42366,16.03217,21.35413,49.40938,48.48817,57.736,48.48817,11.07029,0,17.80511-31.31686,17.80511-66.53542C169.5618,645.05879,167.79309,628.03908,164.57885,615.72963Z" style="fill:#e8180c"/><path d="M295.89887,593.99992v11.41054a9.92854,9.92854,0,0,0,10.00169,9.85456h11.5809a9.92852,9.92852,0,0,1,10.00168,9.85455v11.41054a9.92853,9.92853,0,0,1-10.00168,9.85456h-11.5809a9.92855,9.92855,0,0,0-10.00169,9.85456v11.41054a9.92855,9.92855,0,0,0,10.00169,9.85456h11.5809a9.92853,9.92853,0,0,1,10.00168,9.85455v11.41054a9.92853,9.92853,0,0,1-10.00168,9.85456h-11.5809a9.92855,9.92855,0,0,0-10.00169,9.85456v11.41054a9.92855,9.92855,0,0,0,10.00169,9.85456H546.99382V584.14536H305.90056A9.92854,9.92854,0,0,0,295.89887,593.99992Z" style="fill:#c6c6c6"/><path d="M348.53933,694.69031H327.48315v5.79045a10.00129,10.00129,0,0,1-10.00169,10.00168h-11.5809a10.00128,10.00128,0,0,0-10.00168,10.00169V732.065a10.00128,10.00128,0,0,0,10.00168,10.00168H546.99382V699.95435H380.1236v-115.809H359.06742V684.16222A10.52788,10.52788,0,0,1,348.53933,694.69031Z" style="fill:#9aa3b1"/><path d="M15.85169,447.31811V794.66924a60.57443,60.57443,0,0,0,60.57443,60.57444H494.31545a60.57444,60.57444,0,0,0,60.57444-60.57444V447.31811a60.57444,60.57444,0,0,0-60.57444-60.57443H76.42612A60.57443,60.57443,0,0,0,15.85169,447.31811ZM482.77247,749.96278h56.28736a.03792.03792,0,0,1,.03792.03792v44.66854a44.7823,44.7823,0,0,1-44.7823,44.7823H76.42612a44.7823,44.7823,0,0,1-44.7823-44.7823V531.54283a44.7823,44.7823,0,0,1,44.7823-44.7823H494.31545a44.7823,44.7823,0,0,1,44.7823,44.7823L539,749.74368m0-173-198.40631-.49429a.03791.03791,0,0,1-.03782-.03792v-38.8567c0-12.67754-9.71865-23.55274-22.37763-24.23846a23.7172,23.7172,0,0,0-24.96851,22.44206.03639.03639,0,0,1-.03835.03482q-1.30995-.0676-2.62394-.0676a49.66967,49.66967,0,0,0-39.29951,19.07766.03644.03644,0,0,1-.03485.0135A71.0376,71.0376,0,0,0,173.532,597.8097a.03729.03729,0,0,1-.03453.02321h-7.6558a.03738.03738,0,0,1-.0315-.01752c-3.52438-5.594-8.105-9.13981-14.0545-9.13981-11.91359,0-37.71794,23.69556-42.77037,28.44586C94.59547,630.65108,77.441,649.61323,77.441,663.106c0,5.96026,3.35093,12.98879,8.32849,20.14411a.03679.03679,0,0,1,.00542.0304,71.07731,71.07731,0,0,0,80.607,88.31583.0364.0364,0,0,1,.03485.0135,49.66972,49.66972,0,0,0,39.29951,19.07766q1.31453,0,2.624-.06759a.03636.03636,0,0,1,.03832.03483,23.71659,23.71659,0,0,0,24.96574,22.4422c12.66-.68419,22.38043-11.55961,22.38043-24.23812V728.41917a.03792.03792,0,0,1,.03792-.03792h32.20223a.03792.03792,0,0,1,.03792.03792v3.64692a17.91781,17.91781,0,0,0,17.89775,17.89775L539,749.74368M214.27776,773.81627a34.27334,34.27334,0,0,1-37.63146-15.09311,8.13,8.13,0,0,0-8.83662-3.5461,55.28749,55.28749,0,0,1-68.57761-51.52944c-.05152-1.38455-.04657-2.76206.003-4.13447a.03825.03825,0,0,1,.06594-.02462c3.22173,3.3862,6.52006,6.62615,9.6864,9.60317,5.05244,4.75027,30.85678,28.44584,42.77038,28.44584,5.94953,0,10.53011-3.54583,14.0545-9.13982a.03739.03739,0,0,1,.03149-.01751h74.052a.03792.03792,0,0,1,.03792.03792v60.71265a8.105,8.105,0,0,1-7.39029,8.19254,7.904,7.904,0,0,1-8.40185-7.88019v-7.81439a8.05821,8.05821,0,0,0-1.04565-4.116,7.92769,7.92769,0,0,0-8.81813-3.69643ZM244.7271,605.728a7.89489,7.89489,0,0,0-7.89607-7.89607H191.07122a.03891.03891,0,0,1-.03373-.05759,55.25675,55.25675,0,0,1,61.75415-26.70271,7.89746,7.89746,0,0,0,8.63619-3.50375,34.04134,34.04134,0,0,1,29.11964-16.25116,34.42175,34.42175,0,0,1,8.60486,1.08927,7.14239,7.14239,0,0,0,2.55687.2519,7.968,7.968,0,0,0,7.2624-7.91072V537.0813a8.105,8.105,0,0,1,7.39026-8.19256,7.904,7.904,0,0,1,8.40188,7.88019v39.44242a.03791.03791,0,0,1-.03792.03791H305.93848a17.93567,17.93567,0,0,0-17.93567,17.93568v3.609a.03792.03792,0,0,1-.03792.03792H268.719a8.098,8.098,0,0,0-8.185,7.40634,7.89561,7.89561,0,0,0,7.88127,8.38579h21.426a.03673.03673,0,0,1,.033.0205,17.90117,17.90117,0,0,0,16.02729,9.98119h11.543a2.14354,2.14354,0,0,1,2.14354,2.14353v11.50507a2.14354,2.14354,0,0,1-2.14354,2.14353H305.93954a17.93567,17.93567,0,0,0-17.93567,17.93567v11.50507a17.93567,17.93567,0,0,0,17.93567,17.93567H317.4446a2.14354,2.14354,0,0,1,2.14354,2.14353v11.50507a2.14354,2.14354,0,0,1-2.14354,2.14353h-11.543a17.90121,17.90121,0,0,0-16.02729,9.98119.03673.03673,0,0,1-.033.0205H172.24468a.03718.03718,0,0,1-.03631-.04678c4.66939-17.59535,5.24951-39.68014,5.24951-49.43524s-.58012-31.8399-5.24951-49.43525a.03718.03718,0,0,1,.03631-.04678H236.83a7.8958,7.8958,0,0,0,7.89713-7.89606ZM161.66573,663.106c0,34.89511-6.48209,54.79619-10.2202,58.41737a.03666.03666,0,0,1-.03994.00831c-4.66248-1.7313-17.99827-10.95129-32.89976-25.17482C99.96376,678.65812,93.23315,666.77506,93.23315,663.106s6.73061-15.5521,25.27268-33.25088c14.90255-14.22354,28.23729-23.44351,32.89976-25.17483a.03664.03664,0,0,1,.03994.0083c3.73811,3.6212,10.2202,23.52227,10.2202,58.41738Zm142.12921,57.416a2.14354,2.14354,0,0,1,2.14354-2.14354h11.50506a17.93567,17.93567,0,0,0,17.93567-17.93567V688.93778a17.93567,17.93567,0,0,0-17.93567-17.93568H305.93848a2.14354,2.14354,0,0,1-2.14354-2.14353V657.35351a2.14354,2.14354,0,0,1,2.14354-2.14354h11.50506a17.93567,17.93567,0,0,0,17.93567-17.93567V625.76924a17.93567,17.93567,0,0,0-17.93567-17.93567H305.93848a2.14355,2.14355,0,0,1-2.14354-2.14354v-11.543a2.10774,2.10774,0,0,1,2.10562-2.10562l233.06164.70213a.03793.03793,0,0,1,.0378.03792V733.70583a.03792.03792,0,0,1-.03785.03792l-233.06159.42689a2.10774,2.10774,0,0,1-2.10562-2.10561ZM494.31545,402.53581a44.7823,44.7823,0,0,1,44.7823,44.7823v43.35906a.03689.03689,0,0,1-.06446.025A60.67437,60.67437,0,0,0,512.80347,473.853a.03724.03724,0,0,1-.02594-.03551V447.31811A18.46207,18.46207,0,0,0,494.31545,428.856H76.42612A18.46208,18.46208,0,0,0,57.964,447.31811v26.49936a.03724.03724,0,0,1-.02593.03551,60.674,60.674,0,0,0-26.22982,16.84917.03689.03689,0,0,1-.06447-.025V447.31811a44.7823,44.7823,0,0,1,44.7823-44.7823ZM73.75618,470.99541v-23.6773a2.66994,2.66994,0,0,1,2.66994-2.66994H494.31545a2.66994,2.66994,0,0,1,2.66994,2.66994V470.9954a.03755.03755,0,0,1-.03922.03762c-.86081-.03706-1.72373-.06462-2.5928-.06462H76.3882c-.86906,0-1.732.02862-2.59281.06466A.03759.03759,0,0,1,73.75618,470.99541Z"/><path d="M193.25,663.106a28.98579,28.98579,0,0,0,28.95225,28.95224h31.58427a18.44574,18.44574,0,0,0,18.42415-18.42415V652.578a18.44574,18.44574,0,0,0-18.42415-18.42416H222.20225A28.98579,28.98579,0,0,0,193.25,663.106Zm60.53652-13.16011a2.63433,2.63433,0,0,1,2.632,2.632v21.05618a2.63433,2.63433,0,0,1-2.632,2.632H222.20225a13.16011,13.16011,0,1,1,0-26.32022Z"/></g><g id="a68e7e81-7ae8-44a3-8cfd-feffae1121bc" data-name="knight"><path d="M807.4209,630.11867a5.27333,5.27333,0,0,0,5.27343-5.27344V587.93117a42.18736,42.18736,0,0,0-42.1875-42.18751V593.2046A36.914,36.914,0,0,0,807.4209,630.11867Z" style="fill:#f30"/><path d="M602.70182,508.8296l-32.23072-5.27344-19.86663,5.27344v73.82813l19.86663,5.27344,32.23072-5.27344a63.85653,63.85653,0,0,0,0-73.82813Z" style="fill:#9aa3b1"/><path d="M611.12614,566.10388a63.89252,63.89252,0,0,0-8.42379-57.27428l-32.23072-5.27344L550.605,508.8296v13.77211A63.97882,63.97882,0,0,1,611.12614,566.10388Z" style="fill:#7e8b9e"/><path d="M602.70182,582.65773H550.60447v15.3436a10.53293,10.53293,0,0,0,12.54709,10.35808A63.87019,63.87019,0,0,0,602.70182,582.65773Z" style="fill:#4e5660"/><path d="M602.70182,508.8296H550.60447V493.486a10.53294,10.53294,0,0,1,12.54709-10.35809A63.87016,63.87016,0,0,1,602.70182,508.8296Z" style="fill:#383c43"/><path d="M586.29141,545.74366a21.452,21.452,0,0,0,24.51938,21.24141q.67317-1.90083,1.22608-3.85067a63.80326,63.80326,0,0,0-1.224-38.63214,21.45054,21.45054,0,0,0-24.52149,21.2414Z" style="fill:#4e5660"/><path d="M588.93288,535.42513a64.14574,64.14574,0,0,1,22.18429,30.6508c.328-.97189.64019-1.94959.92022-2.94153a63.80337,63.80337,0,0,0-1.224-38.63214,21.44668,21.44668,0,0,0-21.88055,10.92287Z" style="fill:#383c43"/><path d="M571.67027,479.82569v39.55078a10.54667,10.54667,0,0,0,10.54688,10.54688h36.91406V506.19288a36.914,36.914,0,0,0-36.91406-36.91407A10.54668,10.54668,0,0,0,571.67027,479.82569Z" style="fill:#c6c6c6"/><path d="M571.67027,611.66164V572.11085A10.54667,10.54667,0,0,1,582.21715,561.564h36.91406v23.73047a36.914,36.914,0,0,1-36.91406,36.91406A10.54667,10.54667,0,0,1,571.67027,611.66164Z" style="fill:#c6c6c6"/><path d="M730.78941,606.3882a76.46107,76.46107,0,0,0,0-121.28907H637.64732a76.46106,76.46106,0,0,0,0,121.28907Z" style="fill:#ffd4be"/><path d="M698.78808,512.81157h54.45035a76.77414,76.77414,0,0,0-22.449-27.71244H637.64731a76.57856,76.57856,0,0,0-28.254,76.46378c14.50881-40.62709,36.66093-48.75134,89.39479-48.75134Z" style="fill:#ffbf9e"/><g style="opacity:0.5"><ellipse cx="658.38194" cy="503.78977" rx="12.32772" ry="15.48017" style="fill:#eda1ab"/></g><g style="opacity:0.5"><ellipse cx="658.38194" cy="587.69756" rx="12.32772" ry="15.48018" style="fill:#eda1ab"/></g><path d="M666.29369,512.81157a3.95517,3.95517,0,0,1,3.95508-3.95508h6.32812a3.95508,3.95508,0,0,1,0,7.91016h-6.32812A3.95517,3.95517,0,0,1,666.29369,512.81157Z"/><path d="M666.29369,578.67576a3.95517,3.95517,0,0,1,3.95508-3.95508h6.32812a3.95508,3.95508,0,0,1,0,7.91016h-6.32812A3.95518,3.95518,0,0,1,666.29369,578.67576Z"/><path d="M630.52687,545.74366a15.46979,15.46979,0,0,1,5.31193-11.66379,3.95518,3.95518,0,1,1,5.19749,5.96321,7.5529,7.5529,0,0,0,0,11.40223,3.95518,3.95518,0,1,1-5.19749,5.96321,15.47364,15.47364,0,0,1-5.31193-11.66484Z"/><path d="M797.54322,576.645a42.09409,42.09409,0,0,1,15.15111,32.38V587.93117a42.18736,42.18736,0,0,0-42.1875-42.18751V593.2046a36.72873,36.72873,0,0,0,4.8194,18.22817,92.49925,92.49925,0,0,0,22.217-34.7878Z" style="fill:#e8180c"/><path d="M710.58581,469.27881H647.30456a39.551,39.551,0,0,0-39.55078,39.55079,10.54687,10.54687,0,0,0,21.09375,0,13.18368,13.18368,0,0,1,13.1836-13.1836h85.83364V595.84132H642.03061A13.18366,13.18366,0,0,1,628.847,582.65773a10.54688,10.54688,0,0,0-21.09376,0,39.551,39.551,0,0,0,39.55079,39.55078H710.5853a76.46485,76.46485,0,0,0,.00053-152.9297Z" style="fill:#9aa3b1"/><path d="M787.05066,545.74366a76.46471,76.46471,0,0,0-76.46484-76.46485H689.33913a47.16757,47.16757,0,0,0-6.37137,23.73047V495.646h44.897V595.84132h-44.897V598.478a47.16757,47.16757,0,0,0,6.37137,23.73047h21.24669A76.465,76.465,0,0,0,787.05066,545.74366Z" style="fill:#7e8b9e"/><path d="M812.69433,545.74366a10.54666,10.54666,0,0,0-10.54687-10.54687H775.79714v21.09375h26.35032A10.54667,10.54667,0,0,0,812.69433,545.74366Z" style="fill:#c6c6c6"/><path d="M775.79714,545.74366A10.54667,10.54667,0,0,1,786.344,535.19679H740.97558v21.09375H786.344A10.54668,10.54668,0,0,1,775.79714,545.74366Z" style="fill:#9aa3b1"/><path d="M698.78808,598.478V493.00928a31.64063,31.64063,0,0,1,63.28125,0V598.478a31.64062,31.64062,0,1,1-63.28125,0Z" style="fill:#c6c6c6"/><circle cx="730.4287" cy="493.00928" r="10.54688" style="fill:#9aa3b1"/><circle cx="730.4287" cy="528.16572" r="10.54688" style="fill:#9aa3b1"/><circle cx="730.4287" cy="563.32162" r="10.54688" style="fill:#9aa3b1"/><circle cx="730.4287" cy="598.47804" r="10.54688" style="fill:#9aa3b1"/><path d="M765.50761,604.48237q1.06946-1.00065,2.09988-2.0366a40.877,40.877,0,0,0,39.81341,31.628,9.23933,9.23933,0,0,0,9.22851-9.22852V587.93117a46.21171,46.21171,0,0,0-9.83232-28.46128,14.5,14.5,0,0,0-4.66963-28.22818H789.6974A80.53464,80.53464,0,0,0,765.50761,487.005a35.56109,35.56109,0,0,0-57.42141-21.678c-.01951-.00053-.03849-.00316-.058-.00316H647.30456a43.41815,43.41815,0,0,0-33.15146,15.37787,40.85627,40.85627,0,0,0-8.01088-7.647,3.95494,3.95494,0,1,0-4.63536,6.40934,32.93931,32.93931,0,0,1,7.88063,8.07152,43.22379,43.22379,0,0,0-5.58879,21.29362,14.45561,14.45561,0,0,0,4.46292,10.45037q-1.15251,3.30565-2.01129,6.6883H582.21769a6.59893,6.59893,0,0,1-6.59179-6.5918V479.82516a6.59894,6.59894,0,0,1,6.59179-6.5918,33.25171,33.25171,0,0,1,6.37823.61594,3.955,3.955,0,1,0,1.52086-7.7625,41.20936,41.20936,0,0,0-7.89909-.76307,14.51807,14.51807,0,0,0-14.50195,14.502v.2969q-1.88658-.49043-3.79107-.87381A14.4884,14.4884,0,0,0,546.64941,493.486V598.0008A14.4884,14.4884,0,0,0,563.92467,612.238c1.26879-.2526,2.53335-.55109,3.79054-.878v.30164a14.51807,14.51807,0,0,0,14.502,14.502,40.53989,40.53989,0,0,0,31.94754-15.36416,43.41794,43.41794,0,0,0,33.13986,15.36416H708.0282c.01951,0,.03849-.00264.058-.00317a35.56108,35.56108,0,0,0,57.42141-21.678Zm16.133-44.23675a72.57113,72.57113,0,0,1-15.61623,32.22861V560.24562Zm27.09862,27.68555v36.91406a1.3202,1.3202,0,0,1-1.31836,1.31836A33.09782,33.09782,0,0,1,774.49935,594.542a80.41148,80.41148,0,0,0,15.198-34.29633H796.855A38.291,38.291,0,0,1,808.73926,587.93117Zm0-42.18751a6.59894,6.59894,0,0,1-6.5918,6.5918H766.02441V539.15187h36.12305A6.59894,6.59894,0,0,1,808.73926,545.74366Zm-42.71485-14.50195V499.01309a72.57383,72.57383,0,0,1,15.61623,32.22862ZM611.70886,508.8296a35.63577,35.63577,0,0,1,35.5957-35.59571h53.54332a35.37,35.37,0,0,0-5.98166,18.457H642.03059a17.15847,17.15847,0,0,0-17.13867,17.13868,6.59153,6.59153,0,1,1-13.18306,0Zm21.09375,0a9.23934,9.23934,0,0,1,9.22852-9.22852H694.833v55.81038a3.95508,3.95508,0,1,0,7.91016,0V493.00928a27.68554,27.68554,0,0,1,55.37109,0V598.478a27.68555,27.68555,0,1,1-55.37109,0V571.23177a3.95508,3.95508,0,0,0-7.91016,0v20.65447H642.03113a9.23933,9.23933,0,0,1-9.22852-9.22851,14.50454,14.50454,0,0,0-17.46247-14.19715,72.883,72.883,0,0,1-.001-45.43383,14.50553,14.50553,0,0,0,17.46352-14.19715ZM603.7987,545.74366a81.06968,81.06968,0,0,0,.87275,11.86524h-9.78486a17.49259,17.49259,0,0,1-.00053-23.73047h9.78539A81.08037,81.08037,0,0,0,603.7987,545.74366Zm-21.58154-11.86523h3.07758a25.27511,25.27511,0,0,0-.00051,23.73047h-3.077a14.51807,14.51807,0,0,0-14.50195,14.502v6.5918H554.55958v-65.918h13.15565v6.59179a14.51841,14.51841,0,0,0,14.50195,14.502Zm-25.2334-45.5124a6.48307,6.48307,0,0,1,5.39473-1.3595c1.79086.357,3.57961.801,5.33672,1.32363v16.54436H554.55957V493.486a6.59822,6.59822,0,0,1,2.42421-5.12ZM562.379,604.48079a6.482,6.482,0,0,1-5.39525-1.35949,6.60076,6.60076,0,0,1-2.42421-5.12V586.61281h13.15564v16.53855C565.957,603.67449,564.17144,604.12378,562.379,604.48079Zm19.83814,13.77264a6.59893,6.59893,0,0,1-6.5918-6.59179V572.11085a6.59894,6.59894,0,0,1,6.5918-6.5918h24.0337q.85666,3.3816,2.01075,6.68778a14.45725,14.45725,0,0,0-4.46343,10.4509A43.22888,43.22888,0,0,0,609.388,603.954a32.71421,32.71421,0,0,1-27.17086,14.29945Zm29.49169-35.5957a6.5918,6.5918,0,1,1,13.1836,0,17.15845,17.15845,0,0,0,17.13867,17.13867h52.8351a35.36987,35.36987,0,0,0,5.98167,18.457H647.304A35.63565,35.63565,0,0,1,611.70884,582.65773Z"/><path d="M744.93066,493.00928a14.502,14.502,0,1,0-14.502,14.502A14.51807,14.51807,0,0,0,744.93066,493.00928Zm-21.09375,0a6.5918,6.5918,0,1,1,6.59179,6.5918A6.59893,6.59893,0,0,1,723.83691,493.00928Z"/><path d="M744.93066,528.16572a14.502,14.502,0,1,0-14.502,14.502A14.51807,14.51807,0,0,0,744.93066,528.16572Zm-21.09375,0a6.5918,6.5918,0,1,1,6.59179,6.59179A6.59893,6.59893,0,0,1,723.83691,528.16572Z"/><path d="M730.4287,577.82357a14.502,14.502,0,1,0-14.502-14.50195A14.51807,14.51807,0,0,0,730.4287,577.82357Zm0-21.09375a6.5918,6.5918,0,1,1-6.59179,6.5918A6.59893,6.59893,0,0,1,730.4287,556.72982Z"/><path d="M715.92675,598.478a14.502,14.502,0,1,0,14.502-14.50195A14.51807,14.51807,0,0,0,715.92675,598.478Zm21.09375,0a6.5918,6.5918,0,1,1-6.5918-6.5918A6.59894,6.59894,0,0,1,737.0205,598.478Z"/></g><g id="add241a7-4261-4658-89c0-79cc34a40362" data-name="Robin hood"><path d="M137.94531,419.08469l53.119-53.119,52.83981,52.83981-53.119,53.119Z" style="fill:#d59247"/><path d="M252.99314,410.11387l-53.18251-53.18252a12.53509,12.53509,0,0,0-17.7273,17.7273l53.18252,53.18251a12.53509,12.53509,0,1,0,17.72729-17.72729Z" style="fill:#d59247"/><circle cx="234.76131" cy="319.74188" r="22.61415" style="fill:#ffbf9e"/><circle cx="52.83903" cy="319.74188" r="22.61415" style="fill:#f7ab8b"/><path d="M81.692,478.54359a12.51938,12.51938,0,0,1-12.31146-14.91252,75.90329,75.90329,0,0,1,148.8406,0,12.51875,12.51875,0,0,1-12.31146,14.91252Z" style="fill:#89d47f"/><path d="M159.46605,404.29126A75.9018,75.9018,0,0,0,69.3899,463.62417a12.51723,12.51723,0,0,0,12.30958,14.91942H99.25379A76.03547,76.03547,0,0,1,159.46605,404.29126Z" style="fill:#5ec783"/><path d="M121.01867,406.14082a76.0361,76.0361,0,0,0-38.77642,28.02059l42.972,44.38218h65.907Z" style="fill:#d59247"/><path d="M121.03058,406.15337a76.22374,76.22374,0,0,0-38.76076,28.03688l20.5822,21.25783a76.23694,76.23694,0,0,1,28.38473-38.75323Z" style="fill:#c18053"/><path d="M123.11833,433.59231l-9.51047-36.45677h60.379l-9.50232,36.45677Z" style="fill:#f7ab8b"/><path d="M163.59766,450.39012c17.125-14.85924,20.45746-39.12051,20.51138-53.2546H173.98686L143.79769,433.5923,154.2414,449.178a6.28505,6.28505,0,0,0,9.35628,1.21215Z" style="fill:#fcf2d0"/><path d="M123.997,450.39012c-17.125-14.85924-20.45746-39.12051-20.51137-53.2546h10.12218L143.797,433.5923,133.35333,449.178a6.28505,6.28505,0,0,1-9.35628,1.21215Z" style="fill:#fcf2d0"/><circle cx="143.80143" cy="319.74" r="90.88029" style="fill:#ffd4be"/><path d="M84.25917,319.74a90.9034,90.9034,0,0,1,75.21128-89.53024,90.88031,90.88031,0,1,0,0,179.0605A90.90292,90.90292,0,0,1,84.25918,319.74Z" style="fill:#ffbf9e"/><path d="M143.80143,167.04357c-18.06638,0-90.96177,56.55762-90.96177,130.08416H234.76382C234.76318,223.6012,161.8678,167.04357,143.80143,167.04357Z" style="fill:#5ec783"/><path d="M124.81246,175.13693C96.70413,193.26974,52.839,240.08876,52.839,297.12772h81.58041V277.35343C112.266,262.31556,96.644,194.087,124.81246,175.13692Z" style="fill:#49b76b"/><path d="M223.00578,232.37333a68.47044,68.47044,0,0,0,.58225,53.62125,6.51624,6.51624,0,0,0,8.32212,3.44719,68.27769,68.27769,0,0,0,37.74542-91.12535,6.51624,6.51624,0,0,0-8.32214-3.44718,68.46586,68.46586,0,0,0-38.32767,37.5041Z" style="fill:#ffcf0d"/><path d="M262.88593,302.42386H24.7169a12.53522,12.53522,0,0,1,0-25.07043h238.169a12.53522,12.53522,0,0,1,0,25.07043Z" style="fill:#89d47f"/><path d="M121.88486,289.88865a12.535,12.535,0,0,1,12.53521-12.53522H24.71691a12.53522,12.53522,0,0,0,0,25.07043H134.42007A12.535,12.535,0,0,1,121.88486,289.88865Z" style="fill:#5ec783"/><g style="opacity:0.5"><ellipse cx="93.88308" cy="350.43122" rx="18.41861" ry="14.66809" style="fill:#eda1ab"/></g><g style="opacity:0.5"><ellipse cx="193.71978" cy="350.43122" rx="18.41861" ry="14.66809" style="fill:#eda1ab"/></g><path d="M96.96173,337.62023a4.70041,4.70041,0,0,1-4.70071-4.7007V325.3984a4.70071,4.70071,0,1,1,9.40141,0v7.52113A4.70041,4.70041,0,0,1,96.96173,337.62023Z"/><path d="M190.64051,337.62023a4.70041,4.70041,0,0,1-4.70071-4.7007V325.3984a4.70071,4.70071,0,1,1,9.40141,0v7.52113A4.70041,4.70041,0,0,1,190.64051,337.62023Z"/><path d="M144.12355,384.83767c-7.37084,0-14.387-2.09678-19.31166-5.76273-2.286-1.70171-2.49793-4.35615-.211-6.05729,2.6523-1.97292,7.40195-1.47466,10.0239.37036a16.66319,16.66319,0,0,0,4.79719,2.87831c2.57164.81907,11.01363,1.60735,14.39157-.95944,1.67182-1.27035,2.87832-3.83775,6.485-3.679,5.26472.23165,6.44846,4.91175,3.39458,7.25358-4.93751,3.78557-12.07,5.95626-19.56959,5.95626Z"/><path d="M280.12185,289.88865a17.25339,17.25339,0,0,0-17.009-17.23028,72.97662,72.97662,0,0,0,10.85737-76.20845,11.258,11.258,0,0,0-14.36724-5.95109,72.8924,72.8924,0,0,0-40.14213,38.22551,178.80542,178.80542,0,0,0-14.13033-20.455,4.70072,4.70072,0,0,0-7.35,5.86209,165.51864,165.51864,0,0,1,17.35313,26.50132,72.18336,72.18336,0,0,0-.79724,32.01994H60.32754c7.51674-33.24965,28.50193-58.87977,40.67363-71.46575,18.57657-19.21084,36.79273-29.44271,42.80023-29.44271,5.59509,0,22.74325,9.02535,41.783,28.39853a4.7004,4.7004,0,0,0,6.70447-6.58976c-18.05948-18.376-37.9986-31.21018-48.48745-31.21018-10.61294,0-31.45587,13.58755-49.55859,32.30826-13.1181,13.565-35.924,41.506-43.53542,78.00161H24.7169a17.23592,17.23592,0,0,0,0,34.47183h3.8972a27.30593,27.30593,0,0,0,23.60506,39.91651A95.53317,95.53317,0,0,0,69.655,380.06132a4.70065,4.70065,0,1,0,7.28923-5.9373,86.35242,86.35242,0,0,1-19.323-54.384,87.2813,87.2813,0,0,1,.92134-12.61544h170.5165a87.16778,87.16778,0,0,1,.922,12.61544A86.18248,86.18248,0,0,1,89.41115,386.59093a4.701,4.701,0,0,0-5.93856,7.28923A94.95766,94.95766,0,0,0,99.062,404.19663c.15355,2.07584.38922,4.371.7402,6.82354a80.83127,80.83127,0,0,0-35.03153,51.69209A17.21879,17.21879,0,0,0,81.692,483.24368h124.2183a17.21881,17.21881,0,0,0,16.92129-20.53142,79.74391,79.74391,0,0,0-3.592-12.53271l16.27572-16.2751a17.23531,17.23531,0,0,0,20.80155-27.11552l-5.53993-5.53993,23.26722-23.26725a4.70065,4.70065,0,0,0-6.648-6.64741l-23.26723,23.26724-7.21715-7.21652L260.179,364.11781a4.70065,4.70065,0,0,0-6.648-6.64741L230.26368,380.737l-7.37823-7.3776a95.23827,95.23827,0,0,0,12.517-26.31893,27.30682,27.30682,0,0,0,23.58313-39.91587h3.89909a17.25574,17.25574,0,0,0,17.23717-17.23592Zm-52.77323-55.71652a63.55416,63.55416,0,0,1,35.71594-34.9325,1.80373,1.80373,0,0,1,2.27639.94328,63.5512,63.5512,0,0,1,.55469,49.95533,62.74,62.74,0,0,1-15.79249,22.51449h-11.026l12.72512-30.72192a4.70062,4.70062,0,1,0-8.68565-3.59761l-14.21492,34.31953H224.144A62.9926,62.9926,0,0,1,227.34862,234.17213ZM16.88242,289.88865a7.843,7.843,0,0,1,7.8345-7.83451H262.886a7.83451,7.83451,0,1,1,0,15.669H24.71692A7.843,7.843,0,0,1,16.88242,289.88865ZM49.87948,337.4065a17.90357,17.90357,0,0,1-9.74738-30.28194h8.915A96.77061,96.77061,0,0,0,48.22045,319.74,95.33525,95.33525,0,0,0,49.87948,337.4065ZM160.51713,446.84015a1.61655,1.61655,0,0,1-1.29239.393,1.50872,1.50872,0,0,1-1.07927-.67127l-8.49072-12.67247,17.837-21.54113a94.84863,94.84863,0,0,0,11.1275-3.59322C177.08491,420.40529,172.6863,436.28049,160.51713,446.84015Zm-7.30927-31.98172-9.41019,11.36442-9.41959-11.37507q4.68472.46631,9.42335.47384Q148.56231,415.32068,153.20786,414.85843Zm-33.13371-2.544L137.94,433.8894l-8.49136,12.67247a1.50671,1.50671,0,0,1-1.07928.67127,1.6155,1.6155,0,0,1-1.29238-.393c-12.17733-10.56656-16.57343-26.45369-18.10586-38.10642A96.26593,96.26593,0,0,0,120.07415,412.31442Zm-18.27634,8.75521c2.88247,11.19834,8.45062,23.61446,19.11871,32.87108a10.98574,10.98574,0,0,0,16.34215-2.146l6.53837-9.758,6.53837,9.758a10.91957,10.91957,0,0,0,12.50826,4.30144l17.18326,17.74673H127.20668L88.4453,433.80916A71.54765,71.54765,0,0,1,101.79781,421.06963Zm-26.1917,49.892a7.70094,7.70094,0,0,1-1.61516-6.41113,70.754,70.754,0,0,1,8.94889-22.9106l31.18009,32.203H81.692a7.84445,7.84445,0,0,1-6.08585-2.88121Zm136.39,0a7.84349,7.84349,0,0,1-6.08584,2.88123H193.11245l-22.72384-23.469c8.28264-8.74082,12.88118-19.48913,15.40827-29.3067a71.34351,71.34351,0,0,1,27.81438,43.48339,7.69992,7.69992,0,0,1-1.61516,6.41113Zm-24.203-59.94276c.35162-2.45691.5879-4.75523.74084-6.83358a95.772,95.772,0,0,0,10.1742-6.25318l29.74231,29.74167-13.33684,13.33683a80.99338,80.99338,0,0,0-27.32049-29.99174Zm61.87568,2.41868a7.83444,7.83444,0,1,1-11.07925,11.07988l-32.41292-32.41293A96.44176,96.44176,0,0,0,217.165,380.93377Zm3.00594-93.6957a17.93982,17.93982,0,0,1-14.93508,17.6615,95.72,95.72,0,0,0,1.64274-17.66274,96.74218,96.74218,0,0,0-.82921-12.61545h8.91568a17.90671,17.90671,0,0,1,5.20587,12.6167Z"/></g><g id="a51de61b-d329-4983-8209-9920b4e3a587" data-name="elf"><path d="M787.45546,747.31494a84.37471,84.37471,0,0,0-84.375-84.375h-8.03935v168.75h8.03935A84.375,84.375,0,0,0,787.45546,747.31494Z" style="fill:#f7ef87"/><path d="M787.45546,747.31494a84.375,84.375,0,0,0-84.375-84.375h-8.03935v31.64063h8.03935a84.394,84.394,0,0,1,78.23461,52.73437Z" style="fill:#efd176"/><path d="M677.96255,829.18031c-14.06425,0-14.06425,9.50222-28.12852,9.50222-14.06478,0-14.06478-9.50222-28.129-9.50222-14.06531,0-14.06531,9.50222-28.13063,9.50222q-.75384,0-1.45441-.03533a28.32387,28.32387,0,0,1-26.67621-28.40853V684.38914A28.3235,28.3235,0,0,1,592.12,655.9806q.70163-.0348,1.45441-.03533c14.06532,0,14.06532,9.50221,28.13063,9.50221,14.06478,0,14.06478-9.50221,28.129-9.50221s14.06427,9.50221,28.12851,9.50221Z" style="fill:#efd176"/><path d="M597.49727,782.6417V711.97658a64.03171,64.03171,0,0,0-40.59439-27.27,10.53173,10.53173,0,0,0-12.55289,10.357V799.56205A10.53346,10.53346,0,0,0,556.91448,809.917,64.05321,64.05321,0,0,0,597.49727,782.6417Z" style="fill:#89d47f"/><path d="M597.49727,711.97659a64.03167,64.03167,0,0,0-40.59439-27.27,10.53173,10.53173,0,0,0-12.55289,10.357v14.76984a63.84341,63.84341,0,0,1,53.14728,28.51769Z" style="fill:#5ec783"/><path d="M597.49727,711.98186a36.91966,36.91966,0,0,0-.00581,70.66458,63.64952,63.64952,0,0,0,6.99-13.86913q.71982-2.0076,1.301-4.07109a63.72876,63.72876,0,0,0-8.28511-52.72435Z" style="fill:#ffbf9e"/><path d="M581.52034,721.80628a64.00617,64.00617,0,0,1,25.30407,38.68857,63.74213,63.74213,0,0,0-9.32712-48.513,36.92273,36.92273,0,0,0-15.97693,9.82442Z" style="fill:#f7ab8b"/><path d="M681.00849,807.38678a19.02707,19.02707,0,1,0-14.5626,35.15748c9.7084,4.02153,17.64809,7.31,32.95,13.64819S704.21478,816.99869,681.00849,807.38678Z" style="fill:#ffbf9e"/><path d="M681.00849,687.24311a19.02707,19.02707,0,1,1-14.5626-35.15748c9.7084-4.02152,17.64809-7.31,32.95-13.64819S704.21478,677.63069,681.00849,687.24311Z" style="fill:#f7ab8b"/><path d="M696.83566,821.43048a120.79385,120.79385,0,0,0,0-148.231,76.46486,76.46486,0,1,0,0,148.231Z" style="fill:#ffd4be"/><path d="M677.96413,697.21729a76.10784,76.10784,0,0,1,37.34121,9.72316,120.611,120.611,0,0,0-18.46969-33.741,76.51478,76.51478,0,0,0-94.20046,87.29912A76.48388,76.48388,0,0,1,677.96413,697.21729Z" style="fill:#ffbf9e"/><ellipse cx="652.67167" cy="703.50956" rx="12.8714" ry="16.16308" style="fill:#eda1ab;opacity:0.5"/><g style="opacity:0.5"><ellipse cx="652.75394" cy="791.12033" rx="12.8714" ry="16.16308" style="fill:#eda1ab"/></g><path d="M622.27238,747.31494a15.469,15.469,0,0,1,5.31193-11.66378,3.95521,3.95521,0,0,1,5.197,5.96373,7.55172,7.55172,0,0,0,0,11.40117,3.95521,3.95521,0,0,1-5.197,5.96373A15.47368,15.47368,0,0,1,622.27238,747.31494Z"/><path d="M661.30915,712.45737a4.094,4.094,0,0,1,4.14483-3.60088h5.9177a4.094,4.094,0,0,1,4.14483,3.60088,3.95578,3.95578,0,0,1-3.93962,4.30928h-6.32812A3.95578,3.95578,0,0,1,661.30915,712.45737Z"/><path d="M661.30915,780.45737a4.094,4.094,0,0,1,4.14483-3.60088h5.9177a4.094,4.094,0,0,1,4.14483,3.60088,3.95578,3.95578,0,0,1-3.93962,4.30928h-6.32812A3.95578,3.95578,0,0,1,661.30915,780.45737Z"/><path d="M806.43983,747.31494A10.54666,10.54666,0,0,0,795.893,736.76807H724.17421v21.09375H795.893A10.547,10.547,0,0,0,806.43983,747.31494Z" style="fill:#fcf2d0"/><path d="M763.24669,747.31494a10.54667,10.54667,0,0,1,10.54688-10.54687H724.17421v21.09375h49.61936A10.547,10.547,0,0,1,763.24669,747.31494Z" style="fill:#efdfb4"/><path d="M712.70184,747.31494c0-24.20771,9.44526-45.28142,27.31483-60.942a88.07837,88.07837,0,0,1,27.33855-16.41779,10.547,10.547,0,0,1,6.70306,20.00057,68.11358,68.11358,0,0,0-20.69086,12.77068c-12.98689,11.64006-19.57183,26.64193-19.57183,44.589,0,43.44943,39.82184,57.21257,40.22368,57.34652a10.54679,10.54679,0,1,1-6.664,20.01323,88.07837,88.07837,0,0,1-27.33855-16.41779c-17.86957-15.66158-27.31483-36.73477-27.31483-60.94248Z" style="fill:#fff"/><path d="M723.88048,763.9268a10.58845,10.58845,0,0,1,13.75839,5.23284,61.14218,61.14218,0,0,1-3.84328-21.8447c0-17.94656,6.585-32.94843,19.57184-44.589a68.11992,68.11992,0,0,1,20.69086-12.77068,10.547,10.547,0,0,0-6.70307-20.00057,88.06611,88.06611,0,0,0-27.33855,16.41779c-17.86957,15.66053-27.31483,36.73424-27.31483,60.94195a82.63339,82.63339,0,0,0,5.42,29.98687,10.58782,10.58782,0,0,1,5.7586-13.37449Z" style="fill:#fcf2d0"/><circle cx="694.24481" cy="747.31494" r="7.91016" style="fill:#fff"/><circle cx="712.70184" cy="747.31494" r="10.54687" style="fill:#fff"/><path d="M708.0396,857.92583c3.61758-4.42179,2.989-13.31754.00581-22.41844a87.72474,87.72474,0,0,0,43.27593-14.19029,82.50307,82.50307,0,0,0,14.78408,7.11071,14.5021,14.5021,0,0,0,9.18158-27.51258c-.02267-.00792-.58535-.20514-1.54775-.60961a87.88191,87.88191,0,0,0,16.479-38.48871H795.893a14.502,14.502,0,1,0,0-29.0039h-5.66947a87.90663,87.90663,0,0,0-16.47527-38.47975c.98613-.41976,1.55988-.62543,1.57464-.63018a14.50206,14.50206,0,0,0-9.21585-27.501,82.53547,82.53547,0,0,0-14.78567,7.11071,87.73479,87.73479,0,0,0-43.28068-14.1903c2.98213-9.1067,3.61072-18.013-.0058-22.42424-1.12641-1.3732-4.3701-4.31-10.15189-1.91426l-32.95,13.64819a23.14218,23.14218,0,0,0-7.165,4.6633,26.94183,26.94183,0,0,0-7.93336-1.10479c-8.24343,0-12.51228,2.88457-16.2791,5.429-3.36867,2.27549-6.02913,4.07373-11.85047,4.07373-5.82188,0-8.48232-1.79772-11.851-4.07373-3.76681-2.54444-8.03619-5.429-16.27963-5.429-.55423,0-1.10953.01319-1.65163.04061a32.15724,32.15724,0,0,0-30.32016,29.71476c-1.29674-.34382-2.604-.65285-3.9229-.917a14.48721,14.48721,0,0,0-17.28475,14.23458V799.56208a14.48894,14.48894,0,0,0,17.299,14.23249c1.31361-.26368,2.61615-.5727,3.90815-.91547a32.15973,32.15973,0,0,0,30.32226,29.71846c.54053.0269,1.09583.04008,1.65006.04008,8.24343,0,12.51281-2.88457,16.27963-5.429,3.36867-2.27549,6.02913-4.07374,11.851-4.07374,5.82135,0,8.48181,1.79718,11.85048,4.07374,3.76682,2.54444,8.03567,5.429,16.2791,5.429a26.95375,26.95375,0,0,0,7.93494-1.10321,23.13725,23.13725,0,0,0,7.16343,4.66329l32.94949,13.64819c5.7876,2.39783,9.03129-.54422,10.15716-1.92005Zm-3.11237-30.22524a66.33711,66.33711,0,0,0-3.26532-6.09188,123.89045,123.89045,0,0,0,17.47934-32.8841,84.26817,84.26817,0,0,0,18.26824,22.507c2.22433,1.94958,4.45553,3.70775,6.63714,5.29083a79.91148,79.91148,0,0,1-39.1194,11.1781Zm97.55753-80.38565a6.59893,6.59893,0,0,1-6.59179,6.5918h-25.3125a3.95508,3.95508,0,1,0,0,7.91016h11.60525a80.01877,80.01877,0,0,1-15.60937,34.85583,65.27139,65.27139,0,0,1-10.40186-7.58478,53.40566,53.40566,0,0,1-16.711-27.27158h15.29667a3.95508,3.95508,0,0,0,0-7.91016h-16.672a64.84372,64.84372,0,0,1-.00316-13.18359h57.808A6.59972,6.59972,0,0,1,802.48476,747.31494ZM782.18414,732.813H739.44767a52.91,52.91,0,0,1,16.55913-27.14185,66.13287,66.13287,0,0,1,10.578-7.69342A80.04206,80.04206,0,0,1,782.18414,732.813Zm-5.24285-54.93234a6.61151,6.61151,0,0,1-4.185,8.33994A72.03505,72.03505,0,0,0,750.727,699.78071c-13.85964,12.42263-20.887,28.41539-20.887,47.53423,0,46.27231,42.50022,60.9562,42.92947,61.0991a6.59189,6.59189,0,1,1-4.16654,12.50807,83.58653,83.58653,0,0,1-25.97959-15.63891,74.55637,74.55637,0,0,1-24.87322-44.37387,14.50073,14.50073,0,0,0,0-27.18774,74.54944,74.54944,0,0,1,24.87322-44.37387,83.57266,83.57266,0,0,1,25.98117-15.63943,6.59821,6.59821,0,0,1,8.33678,4.17234ZM694.24482,751.27a3.95508,3.95508,0,1,1,3.95508-3.95508A3.95924,3.95924,0,0,1,694.24482,751.27Zm18.457-10.54687a6.5918,6.5918,0,1,1-6.59179,6.59179A6.59893,6.59893,0,0,1,712.70185,740.72315Zm31.34478-62.61627c-2.18161,1.58308-4.41281,3.34178-6.63714,5.29136a84.26612,84.26612,0,0,0-18.26824,22.50651,123.87684,123.87684,0,0,0-17.47987-32.8841,66.16856,66.16856,0,0,0,3.26373-6.09135A79.9108,79.9108,0,0,1,744.04663,678.10688Zm-43.13672-36.01547a3.61629,3.61629,0,0,1,1.0721-.29953c.549.77256,1.18968,4.07479-.10916,10.057a57.10211,57.10211,0,0,1-6.847,16.86867,80.65744,80.65744,0,0,0-36.37829.52893,14.99536,14.99536,0,0,1,9.31183-13.50633Zm-108.59431,17.84c.4108-.02057.83426-.03111,1.25876-.03111,5.82188,0,8.48286,1.79771,11.85153,4.07373,3.76682,2.54443,8.0362,5.429,16.27963,5.429,8.24291,0,12.51228-2.88457,16.27857-5.429,3.36867-2.27549,6.02912-4.07373,11.85046-4.07373a22.3806,22.3806,0,0,1,2.9642.18457,22.80551,22.80551,0,0,0-2.07246,9.49693c0,.6729.03956,1.35106.09966,2.03028a80.85463,80.85463,0,0,0-46.67413,43.79537q-1.51085-2.81918-3.28113-5.49545c-.02689-.04376-.05484-.087-.08331-.13025a68.597,68.597,0,0,0-31.3875-25.44644,24.29667,24.29667,0,0,1,22.91573-24.40389Zm8.06784,108.511a59.61774,59.61774,0,0,1-4.55837,9.42627,32.96417,32.96417,0,0,1,.0079-61.10648,59.78934,59.78934,0,0,1,4.541,9.39726,80.27548,80.27548,0,0,0,.00949,42.283ZM550.733,804.68519a6.59911,6.59911,0,0,1-2.42789-5.12314V695.06361a6.603,6.603,0,0,1,2.42736-5.12368,6.47807,6.47807,0,0,1,5.39367-1.35527,60.40175,60.40175,0,0,1,35.119,21.53777,40.88276,40.88276,0,0,0-.009,74.38763,60.42378,60.42378,0,0,1-35.10053,21.52986,6.48585,6.48585,0,0,1-5.40264-1.35475Zm87.25061,25.969c-3.76682-2.54444-8.03567-5.429-16.27857-5.429-8.24343,0-12.51281,2.88457-16.27963,5.429-3.36867,2.27549-6.02964,4.07373-11.85152,4.07373-.42451,0-.84744-.01054-1.25666-.03059a24.29823,24.29823,0,0,1-22.91731-24.40864,68.58859,68.58859,0,0,0,31.388-25.45277c.02689-.0406.05327-.08173.07857-.12287q1.77661-2.676,3.28535-5.49808a80.11222,80.11222,0,0,0,11.36849,18.78081,3.95495,3.95495,0,0,0,6.1388-4.98814A72.53947,72.53947,0,0,1,694.54593,676.712a116.082,116.082,0,0,1,19.643,39.88775,83.26646,83.26646,0,0,0-4.34743,16.49742,14.513,14.513,0,0,0-8.25029,4.91063,11.86524,11.86524,0,1,0,0,18.61312,14.51469,14.51469,0,0,0,8.25029,4.91064,83.26813,83.26813,0,0,0,4.34795,16.49742,116.09162,116.09162,0,0,1-19.643,39.88775,72.6527,72.6527,0,0,1-62.27508-14.29787,3.95479,3.95479,0,1,0-4.98761,6.13882,80.27582,80.27582,0,0,0,23.54432,13.2474c-.06064.68239-.1002,1.36267-.1002,2.03871a22.80742,22.80742,0,0,0,2.073,9.499,22.42046,22.42046,0,0,1-2.96578.18458c-5.82241.00053-8.48285-1.79771-11.85152-4.0732Zm62.92581,21.88423-32.95-13.64819a14.996,14.996,0,0,1-9.31131-13.52321,80.35113,80.35113,0,0,0,36.37881.54528,57.11381,57.11381,0,0,1,6.837,16.827c1.30992,6.008.66919,9.32291.11865,10.09863a3.61652,3.61652,0,0,1-1.07314-.29953Z"/></g><g id="a2d60391-3ebf-4e3e-b983-8da555b698a6" data-name="Wizard"><circle cx="513.63944" cy="313.47427" r="22.61415" style="fill:#ffbf9e"/><circle cx="331.71778" cy="313.47427" r="22.61415" style="fill:#f7ab8b"/><path d="M360.57008,472.276a12.51938,12.51938,0,0,1-12.31146-14.91251,75.90328,75.90328,0,0,1,148.8406,0A12.51875,12.51875,0,0,1,484.78775,472.276Z" style="fill:#c0f"/><path d="M438.34418,398.02365A75.90181,75.90181,0,0,0,348.268,457.35656,12.51723,12.51723,0,0,0,360.5776,472.276h17.5543a76.03549,76.03549,0,0,1,60.21226-74.25233Z" style="fill:#9212b3"/><path d="M422.67954,429.86121a25.49625,25.49625,0,0,0,25.24592-29.14186q-2.25918-.80009-4.57661-1.45723a75.83164,75.83164,0,0,0-45.91522,1.45472,25.49445,25.49445,0,0,0,25.24591,29.14437Z" style="fill:#ffe4c2"/><path d="M536.49738,339.97936a23.88683,23.88683,0,0,0-23.8871-23.8871V303.13211l-.86054-12.49823a89.94464,89.94464,0,0,0-178.1404,0l-.86054,12.49823v12.96015a23.8866,23.8866,0,0,0-7.75177,46.48057,23.87584,23.87584,0,0,0,19.2522,36.78521,23.89722,23.89722,0,0,0,27.70971,29.97922,23.88158,23.88158,0,0,0,32.64734,9.22842,23.86809,23.86809,0,0,0,36.14653,0,23.88157,23.88157,0,0,0,32.64733-9.22842A23.887,23.887,0,0,0,501.10985,399.358a23.87587,23.87587,0,0,0,19.25221-36.78521A23.89127,23.89127,0,0,0,536.49738,339.97936Z" style="fill:#fcf2d0"/><path d="M404.61317,438.57318a27.88522,27.88522,0,0,1-1.718-28.42236,27.8864,27.8864,0,0,1,.64745-55.76539V215.24583a90.00922,90.00922,0,0,0-69.93207,75.388l-.86054,12.49823v12.96015a23.8866,23.8866,0,0,0-7.75178,46.48057,23.87585,23.87585,0,0,0,19.2522,36.78521,23.89722,23.89722,0,0,0,27.70971,29.97922,23.88158,23.88158,0,0,0,32.64734,9.22842l.00564.00752Z" style="fill:#efdfb4"/><path d="M354.81767,322.55477a36.27937,36.27937,0,0,0,36.27941,36.27942H454.262a36.27942,36.27942,0,0,0,0-72.55883H391.09709a36.279,36.279,0,0,0-36.27942,36.27941Z" style="fill:#ffd4be"/><path d="M401.82722,322.55477a36.27937,36.27937,0,0,1,36.2794-36.27941H391.09707a36.27942,36.27942,0,0,0,0,72.55883h47.00955a36.27978,36.27978,0,0,1-36.27941-36.27942Z" style="fill:#ffbf9e"/><path d="M383.539,333.52309a4.70083,4.70083,0,0,1-4.70071-4.70071v-7.52113a4.70071,4.70071,0,0,1,9.40141,0v7.52113A4.70082,4.70082,0,0,1,383.539,333.52309Z"/><path d="M461.82012,333.52309a4.70083,4.70083,0,0,1-4.70071-4.70071v-7.52113a4.70071,4.70071,0,0,1,9.40141,0v7.52113A4.70082,4.70082,0,0,1,461.82012,333.52309Z"/><path d="M386.62952,380.76893a12.53,12.53,0,0,1-11.86395-16.59724,50.71375,50.71375,0,0,1,95.82793,0,12.53,12.53,0,0,1-11.86394,16.59724Z" style="fill:#fff"/><path d="M422.67954,160.776c29.16443,0,131.61973,49.98729,131.61973,72.07058s-131.61973,20.643-131.61973,20.643Z" style="fill:#c0f"/><path d="M519.08409,231.729a187.53917,187.53917,0,0,0-30.01869-45.88828q-1.96019-2.23284-4.03947-4.4594c-25.03032-11.82572-50.12456-20.60538-62.34639-20.60538v92.71418s63.71084.697,102.47976-6.31587a157.92192,157.92192,0,0,0-6.07519-15.44525Z" style="fill:#9212b3"/><path d="M422.67954,160.776c-18.06637,0-90.96177,56.55763-90.96177,130.08417H513.64131C513.64131,217.33359,440.74592,160.776,422.67954,160.776Z" style="fill:#c0f"/><path d="M403.69058,168.86932c-28.10833,18.13282-71.9728,64.95183-71.9728,121.9908H413.2982v-19.7743c-22.15411-15.03787-37.77612-83.2664-9.60761-102.21651Z" style="fill:#9212b3"/><path d="M541.76406,296.15625H303.595a12.53521,12.53521,0,1,1,0-25.07042h238.169a12.53521,12.53521,0,0,1,0,25.07042Z" style="fill:#c0f"/><path d="M400.763,283.621a12.535,12.535,0,0,1,12.53521-12.53521H303.595a12.53521,12.53521,0,1,0,0,25.07042H413.29819A12.535,12.535,0,0,1,400.763,283.621Z" style="fill:#9212b3"/><path d="M541.76406,266.38512H515.77794a129.62332,129.62332,0,0,0-3.29176-12.54461c32.1102-4.052,46.51379-10.581,46.51379-20.994,0-6.81728-5.98181-14.764-18.287-24.29387-9.81257-7.59947-23.33742-15.96422-39.11363-24.19045-26.12651-13.6239-61.96782-28.287-78.91981-28.287-10.62985,0-31.49848,13.61449-49.62063,32.37218-13.10807,13.56812-35.872,41.48529-43.474,77.93768H304.01813a17.5141,17.5141,0,0,0-17.64644,16.57158A17.25418,17.25418,0,0,0,303.595,300.857h3.8972a27.32491,27.32491,0,0,0,.13412,25.496A28.56917,28.56917,0,0,0,318.569,364.80345a28.6773,28.6773,0,0,0-1.54309,16.18546,4.70206,4.70206,0,0,0,4.60857,3.80131,4.69578,4.69578,0,0,0,4.58527-5.77654,19.36322,19.36322,0,0,1-.32141-3.52084,19.10614,19.10614,0,0,1,2.98694-10.27364,4.87986,4.87986,0,0,0,.79658-2.15446,4.72124,4.72124,0,0,0-3.15865-4.93753,19.18591,19.18591,0,0,1,6.20488-37.3336,4.72056,4.72056,0,0,0,4.72206-4.70074V303.29442l.168-2.43684h18.70379a41.01911,41.01911,0,0,0,15.52047,57.88761q-.82545,1.90568-1.51739,3.88967a16.9903,16.9903,0,0,0,2.37028,15.75664,17.707,17.707,0,0,0,14.352,7.07941h71.2633a17.71118,17.71118,0,0,0,14.35367-7.07829,16.98877,16.98877,0,0,0,2.37113-15.75776c-.45815-1.32372-.96709-2.61922-1.51738-3.88967a41.0184,41.0184,0,0,0,15.52047-57.887h18.7038l.168,2.43685v12.79845a4.72058,4.72058,0,0,0,4.72213,4.70074,19.18588,19.18588,0,0,1,6.32267,37.29269,4.90169,4.90169,0,0,0-1.96282,1.19779,4.72065,4.72065,0,0,0-.58061,5.83586,19.1755,19.1755,0,0,1-15.348,29.53677,4.868,4.868,0,0,0-2.22557.57683,4.72237,4.72237,0,0,0-2.2483,5.41557,19.19659,19.19659,0,0,1-22.29052,24.07586,4.66993,4.66993,0,0,0-5.00916,2.33479,19.18142,19.18142,0,0,1-26.1912,7.43378,4.73413,4.73413,0,0,0-5.88686.984,19.16844,19.16844,0,0,1-29.06351,0,4.73387,4.73387,0,0,0-5.88669-.98406,19.18142,19.18142,0,0,1-26.19136-7.43369,4.66988,4.66988,0,0,0-5.00933-2.33475,19.18511,19.18511,0,0,1-22.32653-23.94741,4.925,4.925,0,0,0,.1404-2.30263,4.71868,4.71868,0,0,0-4.46332-3.81392,19.11331,19.11331,0,0,1-10.02-3.24022,4.77412,4.77412,0,0,0-6.23682.79659,4.70228,4.70228,0,0,0,.92872,6.9632,28.48129,28.48129,0,0,0,9.66026,4.18551q-.11469,1.27482-.11532,2.55781a28.60826,28.60826,0,0,0,14.84106,25.05663,79.71163,79.71163,0,0,0-9.82008,25.46529,17.10387,17.10387,0,0,0,4.75149,15.51663,17.81989,17.81989,0,0,0,12.61964,5.01542H484.38468a17.76074,17.76074,0,0,0,12.545-4.98644,17.10578,17.10578,0,0,0,4.78062-15.54561,79.66675,79.66675,0,0,0-9.82135-25.46466,28.60915,28.60915,0,0,0,14.84232-25.05726q0-1.27577-.11408-2.54715a28.59916,28.59916,0,0,0,20.17355-38.57212,28.5689,28.5689,0,0,0,10.94012-38.45488,27.27722,27.27722,0,0,0,.12536-25.49161H541.341A17.51411,17.51411,0,0,0,558.98737,284.289a17.25584,17.25584,0,0,0-17.22328-17.90385ZM492.49,458.2823a7.70324,7.70324,0,0,1-1.6158,6.41177,7.84514,7.84514,0,0,1-6.0852,2.88121H360.57008a7.84223,7.84223,0,0,1-6.08522-2.88121,7.70533,7.70533,0,0,1-1.61579-6.41177,70.40486,70.40486,0,0,1,9.70163-24.15536,28.6553,28.6553,0,0,0,4.6443.38295q1.19963,0,2.39924-.10029a28.58017,28.58017,0,0,0,34.003,9.84392,28.56455,28.56455,0,0,0,38.12333,0,28.58016,28.58016,0,0,0,34.003-9.84392q1.19682.09964,2.39924.10029a28.69573,28.69573,0,0,0,4.6418-.38232A70.35441,70.35441,0,0,1,492.49,458.2823Zm4.76212-265.58416c15.28857,7.97239,28.32645,16.025,37.704,23.28729,13.936,10.79282,14.64175,15.93915,14.64175,16.86111,0,.07208-1.12378,7.20023-40.327,11.91911-10.14349-25.77427-26.50946-45.47273-36.86857-56.21165a181.37178,181.37178,0,0,0-15.02973-13.92536,386.477,386.477,0,0,1,39.87952,18.0695ZM328.05874,302.80932c-.00752.10718-.01128.215-.01128.32278v8.64554a28.48394,28.48394,0,0,0-13.63706,6.29079,17.8456,17.8456,0,0,1,4.59979-17.21209h9.18267Zm137.07192,69.95526a7.76988,7.76988,0,0,1-6.40112,3.30365h-72.1a7.76984,7.76984,0,0,1-6.4011-3.30365,7.68814,7.68814,0,0,1-1.021-7.0542,46.0132,46.0132,0,0,1,86.94424,0A7.68814,7.68814,0,0,1,465.13066,372.76458Zm3.926-22.29826a55.40616,55.40616,0,0,0-92.75429,0,31.583,31.583,0,0,1-8.141-49.60935H477.19769a31.582,31.582,0,0,1-8.141,49.60935Zm61.8901-32.3985a28.48628,28.48628,0,0,0-13.63581-6.28955v-8.64616c0-.1078-.00377-.2156-.01128-.32278l-.13412-1.95236h9.1858a17.85679,17.85679,0,0,1,4.59541,17.21085Zm10.81727-26.61225H303.595a7.83451,7.83451,0,0,1,0-15.669H452.41871a4.7007,4.7007,0,0,0,0-9.40141H339.20694c7.508-33.20891,28.45117-58.81709,40.61347-71.40558,18.59787-19.25032,36.84035-29.50287,42.85913-29.50287,6.037,0,24.32458,10.28827,42.95755,29.60441,12.146,12.59224,33.02088,38.1622,40.51442,71.304H471.28922a4.7007,4.7007,0,1,0,0,9.40141h70.47484a7.83451,7.83451,0,0,1,0,15.669Z"/></g></g><g id="f3a7dfd1-9bc1-4d48-b491-a4ceb8927df0" data-name="Balloon"><path d="M5425.13435,587.11717a3.68565,3.68565,0,0,1-2.39082-.91213,5.62863,5.62863,0,0,1-.98761-6.92681l63.85041-108.15037a3.729,3.729,0,0,1,5.78009-1.18546c1.86732,1.585,3.36162,1.81623,2.03936,4.05617l-64.90219,111.021A3.98056,3.98056,0,0,1,5425.13435,587.11717Z" style="stroke:#000;stroke-miterlimit:10;stroke-width:3px"/><path d="M5376.91865,587.1188a3.549,3.549,0,0,1-1.12793-.18762c-2.20193-.74551-3.481-3.49-2.86035-6.13106l25.45707-108.15036c.61523-2.63946,2.89814-4.17745,5.11625-3.4335,2.2019.74558,4.2452.35408,3.62455,2.99509L5380.907,583.49776A4.32871,4.32871,0,0,1,5376.91865,587.1188Z" style="stroke:#000;stroke-miterlimit:10;stroke-width:3px"/><path d="M5306.61688,587.11717a3.68549,3.68549,0,0,0,2.39082-.91213,5.62859,5.62859,0,0,0,.98762-6.92681l-63.85041-108.15037a3.729,3.729,0,0,0-5.78005-1.18546c-1.86733,1.585-3.8562,1.81623-2.534,4.05617l65.39676,111.021A3.9806,3.9806,0,0,0,5306.61688,587.11717Z" style="stroke:#000;stroke-miterlimit:10;stroke-width:3px"/><path d="M5354.83258,587.1188a3.54877,3.54877,0,0,0,1.12793-.18762c2.20194-.74551,3.481-3.49,2.86036-6.13106l-25.45708-108.15036c-.61523-2.63946-2.8981-4.17745-5.11621-3.4335-2.20193.74558-4.10165.849-3.481,3.49l26.07772,110.79145A4.32868,4.32868,0,0,0,5354.83258,587.1188Z" style="stroke:#000;stroke-miterlimit:10;stroke-width:3px"/><g id="ec96fba4-cd9b-48b7-b28e-95268843a85d" data-name="mad hatter"><path d="M5394.10171,526.90918h-57.85889s-9.43132,27.2014-7.19219,29.64425,7.19219-1.98477,7.19219-1.98477-2.52836,11.25583,0,12.88021,8.941-5.0934,8.941-5.0934l1.99335,12.20645h35.99068l1.99334-12.20645s6.4126,6.718,8.941,5.0934,0-12.88021,0-12.88021,4.95307,4.42782,7.1922,1.98477c2.23872-2.44285-7.1926-29.64426-7.1926-29.64426Z" style="fill:#f30"/><path d="M5388.84087,579.86383a24.14025,24.14025,0,0,0-47.33721,0,3.98147,3.98147,0,0,0,3.91554,4.74277h12.80047l6.9526-3.9867,6.95259,3.9867h12.80048a3.98146,3.98146,0,0,0,3.91553-4.74277Z" style="fill:#89d47f"/><path d="M5358.21967,568.317h13.90539V584.6066h-13.90539Z" style="fill:#efd176"/><path d="M5369.74381,560.9061a24.15653,24.15653,0,0,0-28.24015,18.95773,3.98147,3.98147,0,0,0,3.91554,4.74277h4.75951a24.14065,24.14065,0,0,1,19.5651-23.7005Z" style="fill:#5ec783"/><path d="M5358.59422,570.31032l-3.0247-11.5947h19.20291l-3.02212,11.5947Z" style="fill:#ffbf9e"/><path d="M5371.46825,575.65269c5.44642-4.72583,6.50628-12.44188,6.52343-16.93708h-3.21925l-9.60136,11.5947,3.32152,4.95686a1.99894,1.99894,0,0,0,2.97567.38551Z" style="fill:#f7ef87"/><path d="M5358.87369,575.65269c-5.44642-4.72583-6.50629-12.44188-6.52343-16.93708h3.21926l9.60135,11.5947-3.32152,4.95686a1.99889,1.99889,0,0,1-2.97566.38551Z" style="fill:#f7ef87"/><circle cx="5394.10111" cy="534.10137" r="7.1922" style="fill:#ffbf9e"/><circle cx="5336.24262" cy="534.10137" r="7.1922" style="fill:#ffbf9e"/><circle cx="5365.17227" cy="534.10077" r="28.90353" style="fill:#ffd4be"/><path d="M5346.23547,534.10077a28.91089,28.91089,0,0,1,23.92016-28.47416,28.90354,28.90354,0,1,0,0,56.94833,28.91072,28.91072,0,0,1-23.92016-28.47416Z" style="fill:#ffbf9e"/><path d="M5392.6677,485.53726h-54.99086a3.98665,3.98665,0,0,0-3.96756,4.377l3.55613,36.14237h55.81371l3.55613-36.14237A3.98676,3.98676,0,0,0,5392.6677,485.53726Z" style="fill:#89d47f"/><path d="M5353.62361,485.53726h-15.94677a3.98665,3.98665,0,0,0-3.96756,4.377l3.55613,36.14237h55.81371l2.5192-25.60454c-.26153-.02611-.52505-.04046-.79017-.04046H5361.2368a11.63639,11.63639,0,0,1-11.58054-10.49717,3.98656,3.98656,0,0,1,3.96735-4.37719Z" style="fill:#5ec783"/><path d="M5333.5526,508.58l1.71946,17.47667h59.80041l1.71946-17.47667a1.99332,1.99332,0,0,0-1.98378-2.18849h-59.272a1.99329,1.99329,0,0,0-1.98358,2.18849Z" style="fill:#ffcf0d"/><path d="M5377.63068,514.132h-20.25a1.495,1.495,0,0,1-1.48783-1.3487l-.41362-4.20337a1.99332,1.99332,0,0,1,1.98378-2.18849h-21.92682a1.99332,1.99332,0,0,0-1.98378,2.18849l1.71946,17.47667h21.92682l-.71761-7.29325a1.495,1.495,0,0,1,1.48784-1.64132h19.66157a1.495,1.495,0,0,0,.0002-2.99Z" style="fill:#f90"/><path d="M5387.50632,507.08953a21.77631,21.77631,0,0,0,.18518,17.05368,2.07242,2.07242,0,0,0,2.64677,1.09634,21.715,21.715,0,0,0,12.00454-28.98147,2.07242,2.07242,0,0,0-2.64677-1.09634,21.77545,21.77545,0,0,0-12.18972,11.92779Z" style="fill:#f30"/><path d="M5365.17207,531.50563c-23.367,0-37.2728-6.57924-37.85326-6.8591a3.98671,3.98671,0,0,1,3.45826-7.18442c.246.11581,13.09329,6.07014,34.395,6.07014,21.56343,0,34.26324-6.00656,34.389-6.06735a3.98675,3.98675,0,1,1,3.46464,7.18143c-.58066.28026-14.48645,6.8593-37.85366,6.8593Z" style="fill:#89d47f"/><path d="M5365.17227,531.50563a3.98669,3.98669,0,1,1,0-7.97338c-21.30171,0-34.149-5.95433-34.395-6.07014a3.98671,3.98671,0,0,0-3.45826,7.18442C5327.89947,524.92659,5341.80506,531.50563,5365.17227,531.50563Z" style="fill:#5ec783"/><g id="e3cac801-1f58-4dd2-a4cb-64065d21a238" data-name="visage"><g style="opacity:0.5"><ellipse cx="5349.3138" cy="545.86033" rx="5.85147" ry="4.65985" style="fill:#eda1ab"/></g><g style="opacity:0.5"><ellipse cx="5381.03074" cy="545.86033" rx="5.85147" ry="4.65985" style="fill:#eda1ab"/></g><path d="M5368.294,545.28994c0-1.87551-1.3587-2.05175-3.03466-2.05175s-3.03466.17624-3.03466,2.05175a3.05387,3.05387,0,1,0,6.06932,0Z" style="fill:#4e5660;stroke:#000;stroke-miterlimit:10;stroke-width:1.4000000000000001px"/><path d="M5355.46746,536.68873l-4.797-1.28531a1.495,1.495,0,0,0-.774,2.88817l1.41109.37814a1.49226,1.49226,0,0,0-.07874.47581v2.0663a1.495,1.495,0,1,0,2.99,0v-1.76212l.47462.12718a1.495,1.495,0,0,0,.774-2.88817Z"/><path d="M5381.50495,536.4605a1.49493,1.49493,0,0,0-1.83108-1.05708l-4.797,1.28531a1.495,1.495,0,1,0,.77382,2.88817l.47461-.12718v1.76212a1.495,1.495,0,0,0,2.99,0v-2.0663a1.4904,1.4904,0,0,0-.07874-.47581l1.41109-.37814a1.495,1.495,0,0,0,1.05727-1.83109Z"/><path d="M5358.933,555.21692l8.84092-.52c3.7711-1.04011,4.144-1.02371,5.20053-2.08021h0" style="fill:none;stroke:#000;stroke-miterlimit:10;stroke-width:1.4000000000000001px"/></g><path d="M5374.37874,568.23425c-3.19513,0-9.20647,4.52668-9.20647,4.52668s-6.01134-4.52668-9.20648-4.52668-3.19513,12.21523,0,12.21523,9.20648-4.5267,9.20648-4.5267,6.01134,4.52669,9.20647,4.52669c3.19513.0002,3.19513-12.21523,0-12.21523Z" style="fill:#f30"/><circle cx="5365.17227" cy="574.34186" r="4.03155" style="fill:#f30"/><path d="M5406.23043,518.67386a5.46588,5.46588,0,0,0-3.24477-2.82756q.5062-.95861.92352-1.96265a23.17737,23.17737,0,0,0-.19436-18.21939,3.58024,3.58024,0,0,0-4.56935-1.89248q-.73943.29273-1.44976.63069l.42717-4.34171a5.48176,5.48176,0,0,0-5.45539-6.01851h-54.99066a5.48147,5.48147,0,0,0-5.45539,6.01831l1.50956,15.34359a3.466,3.466,0,0,0-1.66664,3.32211l.785,7.97818c-.91654-.355-1.40311-.57947-1.42524-.58983a5.48176,5.48176,0,0,0-4.75513,9.87863c.17243.08312,1.49541.70923,3.86331,1.5556a8.6848,8.6848,0,0,0-.18379,12.92706c-1.17548,4.02516-2.032,7.363-2.5461,9.92427-.95681,4.76948-.63389,6.31293.14551,7.16329,1.74039,1.89887,4.20935,1.2909,6.1726.27449-.115.7501-.22545,1.56837-.31315,2.40577-.50352,4.80636-.0018,7.41645,1.62677,8.46275,1.65886,1.066,3.99407.40844,7.13837-2.01029.56831-.43734,1.1079-.88923,1.59049-1.31322l.60718,3.718a25.5667,25.5667,0,0,0-4.733,10.47065,5.47634,5.47634,0,0,0,5.38163,6.53h39.50635a5.47635,5.47635,0,0,0,5.38163-6.53,25.56867,25.56867,0,0,0-4.733-10.471l.60717-3.7176c.4824.424,1.022.87588,1.5905,1.31322,3.1441,2.41873,5.47911,3.07673,7.13837,2.01029,1.62857-1.0463,2.13049-3.65639,1.627-8.46275-.08771-.83741-.19834-1.65568-.31316-2.40557,1.96345,1.0162,4.432,1.62418,6.1724-.27469.78079-.85175,1.10352-2.40038.14033-7.1892-.51448-2.55846-1.36923-5.88715-2.54072-9.89876a8.69063,8.69063,0,0,0-.1802-12.928c2.36571-.84558,3.68769-1.47129,3.85992-1.55442a5.48146,5.48146,0,0,0,2.55507-7.31917Zm-5.984-22.12216a.57439.57439,0,0,1,.72438.3,20.22546,20.22546,0,0,1-1.45434,19.01953,5.48516,5.48516,0,0,0-.60159.246,45.78689,45.78689,0,0,1-5.56642,2.01946l3.31673-8.00727a1.495,1.495,0,1,0-2.76238-1.14418l-4.21075,10.16587q-.90208.22723-1.8861.45169a20.18422,20.18422,0,0,1,12.44048-23.05106ZM5335.167,508.05012a.49363.49363,0,0,1,.36937-.16366h36.246a1.495,1.495,0,1,0,0-2.99h-35.09686l-1.48844-15.1287a2.49151,2.49151,0,0,1,2.47973-2.73547h54.99066a2.49151,2.49151,0,0,1,2.47972,2.73547l-.63448,6.44887a23.00214,23.00214,0,0,0-7.64309,8.67963h-9.1072a1.495,1.495,0,0,0,0,2.99h7.8498a22.96288,22.96288,0,0,0-.73236,12.33025,104.2366,104.2366,0,0,1-19.70762,1.82052,96.58672,96.58672,0,0,1-29.21031-4.23885l-.92152-9.36494a.493.493,0,0,1,.12657-.38312Zm8.93558,53.27239a34.02989,34.02989,0,0,1-3.28942,2.95454c-2.42013,1.87494-3.545,1.99355-3.74909,1.91959-.09269-.1176-.779-1.16909-.25654-5.88356.31016-2.79786.888-5.3914.89381-5.41732a1.49556,1.49556,0,0,0-2.45381-1.44338c-1.52371,1.35547-4.11287,2.84829-5.00549,2.172-.12638-.54-.26631-3.04883,2.73447-13.47562a8.633,8.633,0,0,0,3.06159.63428,30.188,30.188,0,0,0,2.59673,6.15526,1.495,1.495,0,1,0,2.60849-1.46153,27.42013,27.42013,0,0,1-3.47978-13.37616,27.723,27.723,0,0,1,.33269-4.2827,116.7637,116.7637,0,0,0,54.15046.0002,27.71864,27.71864,0,0,1,.33388,4.2825,27.40906,27.40906,0,0,1-48.06876,18.01149,1.49493,1.49493,0,1,0-2.25288,1.96564,30.42158,30.42158,0,0,0,8.68381,6.88223c.04864.6594.12359,1.39075.23482,2.17314a25.674,25.674,0,0,0-3.84955,3.08032l-.66937-4.09951a1.49472,1.49472,0,0,0-2.55607-.79136Zm-8.80382-21.60349a5.69492,5.69492,0,0,1-1.04471-10.95384q.45747.13693.94166.27548a30.41628,30.41628,0,0,0,.10305,10.67836Zm34.58995,31.74564c2.56364-1.45993,3.87307-1.71089,4.4055-1.73342.35721.32273.98591,1.94411.98591,4.61062,0,2.66669-.6287,4.28808-.98591,4.61081-.532-.02253-1.84146-.27329-4.4055-1.73342a5.51481,5.51481,0,0,0,0-5.75459Zm5.37685-4.5835a2.79018,2.79018,0,0,0-.88684-.14192c-1.52331,0-3.59361.75368-6.16323,2.23853l4.49161-5.4241a30.13975,30.13975,0,0,0,3.53819-1.14259,25.95916,25.95916,0,0,1-.97973,4.47008Zm-10.0945,1.08538-2.9956-3.61753c.99129.09828,1.99115.1505,2.99679.1505q1.51416,0,2.99182-.14731Zm2.53773,6.37532a2.53654,2.53654,0,1,1-2.53654-2.53653A2.53948,2.53948,0,0,1,5367.7088,574.34186Zm-7.253,2.8776c-2.56543,1.46073-3.87407,1.71069-4.40549,1.73322-.35721-.32292-.98591-1.94431-.98591-4.61082,0-2.6663.6287-4.28769.98591-4.61061.53142.02253,1.84006.27249,4.40549,1.73322a5.51557,5.51557,0,0,0,0,5.755Zm-4.49-10.48022a2.712,2.712,0,0,0-.887.1505,25.92043,25.92043,0,0,1-.98292-4.481,30.379,30.379,0,0,0,3.53261,1.137l4.4956,5.42888c-2.568-1.48285-4.63653-2.23533-6.15825-2.23533Zm.75887,16.37236h-11.30547a2.49477,2.49477,0,0,1-1.93534-.91635,2.45058,2.45058,0,0,1-.51388-2.03919,22.68575,22.68575,0,0,1,8.84069-13.82526,25.304,25.304,0,0,0,1.017,3.12677c-.02392.06318-.04765.127-.07057.19315a14.77993,14.77993,0,0,0-.68252,4.69114c0,3.67533,1.02219,7.60283,3.89141,7.60283a5.52446,5.52446,0,0,0,.75887-.05721v1.22411Zm13.90519,0h-10.91537v-2.1594a27.771,27.771,0,0,0,3.06378-1.62955,5.523,5.523,0,0,0,4.78821-.00021,27.8106,27.8106,0,0,0,3.06358,1.63v2.1592Zm16.74491-2.95554a2.44978,2.44978,0,0,1-.51388,2.0392,2.49511,2.49511,0,0,1-1.93534.91634h-11.30547v-1.22411a5.55317,5.55317,0,0,0,.75887.057c2.86923,0,3.89141-3.92729,3.89141-7.60282a14.34737,14.34737,0,0,0-.75348-4.88928,25.26468,25.26468,0,0,0,1.015-3.12338,22.684,22.684,0,0,1,8.84289,13.827Zm12.72752-24.53132c-.89262.67694-3.48178-.81668-5.0041-2.17095a1.495,1.495,0,0,0-2.455,1.442c.00578.02591.58385,2.61945.89382,5.41731.52226,4.71208-.16305,5.76477-.25635,5.88336-.20591.07376-1.33155-.04624-3.74928-1.91939a34.08472,34.08472,0,0,1-3.289-2.95414,1.49516,1.49516,0,0,0-2.55707.79136l-.66936,4.09932a25.67052,25.67052,0,0,0-3.85135-3.08112c.11222-.78737.18657-1.51973.23481-2.17494a30.54217,30.54217,0,0,0,14.90585-18.17415,8.63414,8.63414,0,0,0,3.06258-.63448c3.001,10.4272,2.86105,12.93582,2.73447,13.47582Zm-4.95347-26.58427q.4838-.13875.94226-.27568a5.69532,5.69532,0,0,1-1.04252,10.95344,30.497,30.497,0,0,0,.10026-10.67776Zm7.22768-5.74064c-.5683.27408-14.18326,6.7108-37.20422,6.7108-23.02077,0-36.63572-6.43672-37.20363-6.7106a2.49038,2.49038,0,0,1,1.086-4.734,2.50061,2.50061,0,0,1,1.08558.24837c.5388.25355,13.44094,6.21266,35.03207,6.21266,21.91526,0,34.91048-6.15386,35.03805-6.21565a2.4919,2.4919,0,0,1,2.16617,4.48842Z"/></g><path d="M5288.22758,599.90739v79.96127c0,13.32654,12.6026,24.13134,28.14813,24.13134h99.6761C5431.598,704,5444.2,693.1952,5444.2,679.86866V599.90739Z" style="fill:#d59247;stroke:#000;stroke-miterlimit:10;stroke-width:7px"/><path d="M5449.42792,584.42511H5282.99957c-8.38982,0-15.1919,5.83181-15.1919,13.02337s6.80208,13.02332,15.1919,13.02332h166.42835c8.38982,0,15.19193-5.83176,15.19193-13.02332S5457.81774,584.42511,5449.42792,584.42511Z" style="fill:#e7a14e;stroke:#000;stroke-miterlimit:10;stroke-width:7px"/><path d="M5492.37574,472.5997C5559.35512,412.29656,5620,317.43629,5620,237.54218,5620,109.11214,5506.37591,5,5366.21409,5c-140.16316,0-253.7866,104.11214-253.7866,232.54218,0,79.89411,60.64422,174.75438,127.62429,235.05752Z" style="fill:#f30;stroke:#000;stroke-miterlimit:10;stroke-width:7px"/><path d="M5453.98276,472.5997c41.162-60.30314,68.19455-155.16341,68.19455-235.05752C5522.17731,109.11214,5452.35,5,5366.214,5c-86.13685,0-155.96378,104.11214-155.96378,232.54218,0,79.89411,27.03216,174.75438,68.19458,235.05752Z" style="fill:#fff;stroke:#000;stroke-miterlimit:10;stroke-width:7px"/><path d="M5405.35545,472.5997c18.35674-60.30314,30.41225-155.16341,30.41225-235.05752C5435.7677,109.11214,5404.62731,5,5366.21386,5c-38.41382,0-69.554,104.11214-69.554,232.54218,0,79.89411,12.05535,174.75438,30.41225,235.05752Z" style="fill:#f30;stroke:#000;stroke-miterlimit:10;stroke-width:7px"/></g></g><g id="f0d25a4a-6a05-469d-b6b4-b1bc209310ea" data-name="Ancrage"><rect x="5624" y="999" width="1" height="1" style="fill:none"/><rect x="5624" width="1" height="1" style="fill:none"/><rect y="999" width="1" height="1" style="fill:none"/><rect width="1" height="1" style="fill:none"/></g></svg>