<svg xmlns="http://www.w3.org/2000/svg" viewBox="0 0 5624.57549 1000.27009"><defs><style>.cls-1,.cls-4{stroke:#000;}.cls-1,.cls-3,.cls-4{stroke-miterlimit:10;}.cls-1{stroke-width:20px;}.cls-2{fill:#ffd517;}.cls-3,.cls-4{fill:none;}.cls-3{stroke:#ffd517;stroke-width:15px;}.cls-4{stroke-width:45px;}</style></defs><title>logo_le_saviez_vous</title><g id="Texte"><path class="cls-1" d="M1075.68018,582.53125a25.288,25.288,0,0,1-13.17286,4.31055l-82.38769,6.22754-57.001,4.79-29.69824,2.39453q-3.83935,0-6.94531-4.79a16.78251,16.78251,0,0,1-3.11328-9.10059,5.99314,5.99314,0,0,1,2.15527-5.03027,13.55373,13.55373,0,0,1,4.79-2.39453,22.76892,22.76892,0,0,0,3.59277-1.19727q.47169-25.86621.47852-120.708,0-69.93017-5.50781-108.49414-5.51222-38.55176-5.50879-41.43359a12.52865,12.52865,0,0,1,5.02929-10.53711,16.85074,16.85074,0,0,1,10.29883-3.832,6.18015,6.18015,0,0,1,5.26856,2.63379q1.90869,2.63819,2.874,8.38281,4.78272,16.29053,7.4248,59.875,2.62647,43.59228,2.63477,91.00977,0,40.23631-.47949,74.7246-.48193,34.48683-.47852,46.4629,6.21973-.47169,23.9502-1.67676,17.71436-1.18946,36.40332-2.63477,27.7749-3.34571,62.749-10.05859,28.25683-5.26611,34.00879-5.26953,5.26611,0,6.70605,4.79a40.35679,40.35679,0,0,1,1.4375,11.49609A11.74358,11.74358,0,0,1,1075.68018,582.53125Z" transform="translate(-0.42451 -0.14953)"/><path class="cls-1" d="M1346.07471,492.958q0,8.62206-12.69336,37.84082-12.69727,29.22363-38.32031,54.127-25.62891,24.9126-62.98829,24.9082-30.65918,0-51.25293-19.16015-20.60008-19.15284-20.59668-58.917,0-37.36231,17.24415-74.00489,17.24413-36.64452,45.02539-59.875,27.7749-23.228,57.48046-23.23242,17.71582,0,29.9375,7.9043,12.21387,7.90283,12.21387,22.75195,0,16.77246-18.91992,32.57227-18.92871,15.80712-49.09766,27.78222a300.0381,300.0381,0,0,1-62.26953,17.24414,170.41943,170.41943,0,0,0-5.748,43.10938q0,27.78661,13.17187,43.11035,13.16895,15.33544,37.60156,15.32813,36.87891,0,59.875-26.34571a249.2046,249.2046,0,0,0,38.32032-59.39551q.95361-1.90869,3.35253-7.4248,2.3921-5.50049,4.31153-5.50781Q1346.06788,485.77344,1346.07471,492.958Zm-53.40821-94.36328a37.93131,37.93131,0,0,0-18.4414-4.31055q-18.20948,0-34.9668,11.97461a111.37208,111.37208,0,0,0-28.02148,28.74023q-11.26026,16.77246-14.60938,29.69825,22.0254-2.3921,46.46289-12.45411,24.42774-10.05908,40.9541-22.03418,16.52492-11.96776,16.52539-19.63867Q1300.56982,402.91358,1292.6665,398.59473Z" transform="translate(-0.42451 -0.14953)"/><path class="cls-1" d="M1755.36865,581.333q-17.00829,19.40039-44.78613,31.13574a147.53172,147.53172,0,0,1-57.959,11.73535q-20.60157,0-27.78223-3.832-7.18506-3.83935-7.18457-10.53809,0-4.311,11.0166-15.08886,11.0127-10.77686,14.84863-10.77735,5.748,0,5.748,2.39551,0,1.91895-2.39453,3.832c-1.60156,1.2793-2.39551,2.39453-2.39551,3.35254q0,1.92042,5.98828,3.832a48.27936,48.27936,0,0,0,14.60938,1.916,117.39527,117.39527,0,0,0,40.47558-7.42481q20.35254-7.42089,33.29-19.39941,12.9331-11.96778,12.9336-25.38672,0-12.9331-8.14356-20.59668a49.62992,49.62992,0,0,0-20.35742-11.25683q-12.21387-3.59181-40.9541-10.29883-31.61426-7.18506-49.09766-12.69336-17.4917-5.50048-28.02148-13.89063-10.54248-8.376-10.53809-21.31543,0-22.99218,22.5127-42.15234a173.63671,173.63671,0,0,1,51.73242-30.17676q29.21044-11.01415,45.02539-11.01758,16.27881,0,16.28613,9.58008,0,5.748-3.832,12.69434-3.83935,6.94922-11.49609,6.94531a11.67918,11.67918,0,0,1-6.22657-2.15625,12.34392,12.34392,0,0,0-6.70605-2.15527q-9.5874,0-30.17676,6.22754a120.73315,120.73315,0,0,0-37.3623,18.68066q-16.77246,12.46143-16.76465,30.17676,0,11.49609,13.17187,17.00488,13.16895,5.51221,49.09766,13.65137a56.67937,56.67937,0,0,0,8.62207,2.15527,70.94067,70.94067,0,0,1,7.66406,1.67676q36.87891,8.62207,56.52246,19.63867,19.63477,11.02441,19.63868,33.05176Q1772.37354,561.94189,1755.36865,581.333Z" transform="translate(-0.42451 -0.14953)"/><path class="cls-1" d="M2054.50146,584.207c2.2295,2.39551,3.35254,4.39356,3.35254,5.98828q0,5.748-4.79,13.17188-4.793,7.42089-9.58007,7.4248-8.1504,0-12.4541-10.05859-4.311-10.05909-4.31055-23.47168,0-11.49609,1.43652-68.97559l.47949-18.20215q0-11.01269-5.748-15.80664-21.55518,36.40724-40.23633,63.22754-18.68115,26.83155-47.4209,50.53418-28.74024,23.71143-60.35352,23.71094-15.33544,0-23.71093-9.58008-8.38623-9.57569-8.38282-24.9082,0-19.15284,17.24415-52.4502,17.24414-33.2871,44.06835-67.53906,26.81984-34.24072,53.64747-56.28223,17.71581-14.3701,28.26171-19.39941,10.53076-5.03028,18.68067-5.03027,7.65673,0,15.80664,4.79a42.75273,42.75273,0,0,1,13.8916,13.41211,34.59773,34.59773,0,0,1,5.74805,19.63964,53.61508,53.61508,0,0,1-8.14356,28.26075l8.14356-2.39551q5.26464,0,6.22656,12.93359.47168,7.667,1.19727,31.13477.71923,23.47411,1.19824,38.79883.47167,15.80712.958,30.65625.47168,14.852.958,23.4707Q2051.14112,580.61914,2054.50146,584.207ZM1931.398,566.72363a225.80618,225.80618,0,0,0,42.87109-45.74414q18.91553-26.584,41.91211-65.38379a83.044,83.044,0,0,0,5.74805-31.13476,27.0286,27.0286,0,0,0-5.98731-17.4834q-5.99561-7.42091-16.04687-7.42481-11.978,0-30.65625,16.28614-21.55518,18.20948-45.50488,48.61816a406.37583,406.37583,0,0,0-39.75684,60.11524q-15.80714,29.70557-15.80664,46.9414,0,14.37012,13.41211,14.37012Q1907.44726,585.88379,1931.398,566.72363Z" transform="translate(-0.42451 -0.14953)"/><path class="cls-1" d="M2373.74951,371.77051q-6.46583,4.311-7.90332,6.22754-24.91113,28.26855-46.46289,80.95117-21.55518,52.69775-34.00879,114.002-1.437,7.18506-4.79,28.74024l-2.39551,16.76464a20.04585,20.04585,0,0,1-6.46679,11.97461q-5.02881,4.311-17.4834,4.31153-2.40234,0-16.28516-28.97949-13.8999-28.97609-29.21972-62.50977l-20.59668-45.02637q-18.68115-40.70654-31.13477-63.707-12.46143-22.99072-18.20215-22.99121-1.92041,0-3.11328,2.39453c-.80078,1.60156-1.67676,2.39551-2.63476,2.39551a4.99736,4.99736,0,0,1-4.07129-2.15625,7.255,7.255,0,0,1-1.67676-4.54981q0-6.21972,6.94531-16.28613,6.9375-10.05908,13.65137-10.05957,4.78272,0,7.18555,1.916a27.944,27.944,0,0,1,4.31054,4.31152c1.27246,1.60156,2.23047,2.874,2.874,3.832q11.49609,14.37012,39.75683,75.68164,10.05909,21.55518,49.81641,112.56543l11.0166,25.38672q0-12.4497,4.79-40.23633a652.54764,652.54764,0,0,1,31.61426-112.08593q21.07177-55.56006,49.33691-92.92579a73.72785,73.72785,0,0,1,9.34082-10.77734,13.76046,13.76046,0,0,1,9.33984-3.11328q2.3921,0,7.66407,7.42383,5.26611,7.43262,5.26953,9.82031Q2380.21631,367.46777,2373.74951,371.77051Z" transform="translate(-0.42451 -0.14953)"/><path class="cls-1" d="M2472.1792,315.249h-15.80664q-8.1504,0-16.52539-6.706-8.38623-6.70166-8.38281-11.0166,0-5.26611,5.02929-10.05957,5.03028-4.78272,10.29883-4.79a27.76764,27.76764,0,0,1,11.97461,7.66406,106.59259,106.59259,0,0,1,8.62207,10.05957q4.78272,6.23,4.79,7.66406Zm7.90332,301.53028a14.37637,14.37637,0,0,1-9.33984,2.15527q-6.71485-.48193-9.82032-21.55469-3.1201-21.07177-6.46582-79.99316-1.92041-38.79931-3.35351-75.9209-1.437-37.11621-1.916-57.24121,0-5.26466,1.67676-7.90332c1.11523-1.751,3.27051-2.63477,6.4668-2.63477q11.01268,0,13.89062,9.10157,2.874,9.104,2.874,34.96679l-.47851,56.52246q0,48.38526,2.87305,77.59766,0,1.437,4.31152,30.65625,3.3457,20.11816,3.35254,26.82324A8.376,8.376,0,0,1,2480.08252,616.7793Z" transform="translate(-0.42451 -0.14953)"/><path class="cls-1" d="M2768.67432,492.958q0,8.62206-12.69336,37.84082-12.69727,29.22363-38.32032,54.127-25.6289,24.9126-62.98828,24.9082-30.65917,0-51.25293-19.16015-20.60009-19.15284-20.59668-58.917,0-37.36231,17.24414-74.00489,17.24415-36.64452,45.0254-59.875,27.7749-23.228,57.48046-23.23242,17.71583,0,29.9375,7.9043,12.21387,7.90283,12.21387,22.75195,0,16.77246-18.91992,32.57227-18.92871,15.80712-49.09766,27.78222a300.0381,300.0381,0,0,1-62.26953,17.24414,170.41945,170.41945,0,0,0-5.74805,43.10938q0,27.78661,13.17188,43.11035,13.169,15.33544,37.60156,15.32813,36.87891,0,59.875-26.34571a249.20426,249.20426,0,0,0,38.32031-59.39551q.95362-1.90869,3.35254-7.4248,2.3921-5.50049,4.31153-5.50781Q2768.66749,485.77344,2768.67432,492.958Zm-53.40821-94.36328a37.93134,37.93134,0,0,0-18.4414-4.31055q-18.20948,0-34.9668,11.97461a111.37208,111.37208,0,0,0-28.02148,28.74023q-11.26026,16.77246-14.60938,29.69825,22.02539-2.3921,46.46289-12.45411,24.42774-10.05908,40.9541-22.03418,16.5249-11.96776,16.52539-19.63867Q2723.16943,402.91358,2715.26611,398.59473Z" transform="translate(-0.42451 -0.14953)"/><path class="cls-1" d="M3046.00977,576.06445q-17.24415,15.57129-45.26563,26.82422a153.6217,153.6217,0,0,1-57.71875,11.25586,191.00854,191.00854,0,0,1-42.87109-4.79q-20.83595-4.78125-33.76953-12.69336-12.93165-7.90283-12.9336-16.52539,0-11.49609,9.10156-27.06347,9.09375-15.55958,29.21875-44.78614-12.46,0-29.21875-3.832-8.62206-2.39208-8.62109-10.53808,0-3.34571,8.62109-3.35352l43.58985-.47852a380.33708,380.33708,0,0,0,19.87695-43.82812q8.85938-23.228,8.86328-31.375c0-2.55176-1.123-3.832-3.35351-3.832q-5.27637,0-16.28711,5.26953-11.02441,5.27637-14.84766,7.18457-29.22363,13.89843-58.918,13.89062-6.23143,0-6.22656-4.31054,0-3.34571,13.89063-7.66406,19.1543-6.21973,50.29492-23.47071,35.44335-19.63623,48.85742-19.63965,7.65821,0,11.97656,3.35352a10.45409,10.45409,0,0,1,4.31055,8.62207q0,11.978-38.79883,94.3623,11.0127-.4702,35.92383-6.70507,8.14159-2.3921,10.53906-2.39551a2.82052,2.82052,0,0,1,2.39453,1.4375,5.16736,5.16736,0,0,1,.959,2.874q0,7.667-7.66407,11.0166-19.64648,9.104-55.08593,13.41211l-10.0586,16.28614q-13.415,21.08349-20.59765,34.4873-7.1836,13.41651-7.1836,19.63965,0,6.23,23.47071,9.81933a306.7503,306.7503,0,0,0,46.46289,3.59278q33.0498,0,59.875-10.05957,26.81835-10.05909,44.06836-28.74024,2.39063-4.311,4.78906-17.72265a52.39059,52.39059,0,0,1,1.4375-7.90332q.95214-3.59327,2.873-3.59278,2.874,0,4.07226,6.94532a106.40176,106.40176,0,0,1,1.19727,17.48339Q3063.25391,560.501,3046.00977,576.06445Z" transform="translate(-0.42451 -0.14953)"/><path class="cls-1" d="M3249.58008,495.11328q-6.71192,3.12159-25.38672,5.0293l-32.0918,3.832q-11.49609,1.437-21.55468,2.15625-10.06056.71778-24.42969.71777a24.23517,24.23517,0,0,1-11.01758-2.39453q-4.793-2.39208-4.78906-8.14355,0-6.21827,4.31054-8.14258,4.30957-1.90869,14.36914-1.916,18.19923,0,25.627-.23925a62.816,62.816,0,0,0,13.17187-1.67676q1.91016-.47169,11.01758-2.15528,9.09375-1.67284,29.21875-4.55078,3.82911-.47168,6.4668-6.22656,2.62792-5.748,5.50781-5.74805,5.26758,0,10.7793,5.98731,5.499,5.99413,5.50781,12.21484Q3256.28711,492.00782,3249.58008,495.11328Z" transform="translate(-0.42451 -0.14953)"/><path class="cls-1" d="M3569.3125,371.77051q-6.46583,4.311-7.9043,6.22754-24.91113,28.26855-46.46289,80.95117-21.55371,52.69775-34.00781,114.002-1.43847,7.18506-4.791,28.74024l-2.39453,16.76464a20.05094,20.05094,0,0,1-6.46679,11.97461q-5.03028,4.311-17.48438,4.31153-2.40234,0-16.28515-28.97949-13.89844-28.97609-29.21875-62.50977l-20.59766-45.02637q-18.67969-40.70654-31.13477-63.707-12.46-22.99072-18.20117-22.99121-1.92187,0-3.11328,2.39453c-.80078,1.60156-1.67773,2.39551-2.63477,2.39551a4.99907,4.99907,0,0,1-4.07226-2.15625,7.25377,7.25377,0,0,1-1.67578-4.54981q0-6.21972,6.94531-16.28613,6.9375-10.05908,13.65039-10.05957,4.78418,0,7.18555,1.916a27.944,27.944,0,0,1,4.31054,4.31152c1.27344,1.60156,2.23047,2.874,2.875,3.832q11.49611,14.37012,39.75586,75.68164,10.06056,21.55518,49.81641,112.56543L3458.42383,606.96q0-12.4497,4.78906-40.23633a652.5516,652.5516,0,0,1,31.61524-112.08593q21.07031-55.56006,49.33593-92.92579a73.66185,73.66185,0,0,1,9.3418-10.77734,13.76046,13.76046,0,0,1,9.33984-3.11328q2.39063,0,7.66407,7.42383,5.26464,7.43262,5.26953,9.82031Q3575.7793,367.46777,3569.3125,371.77051Z" transform="translate(-0.42451 -0.14953)"/><path class="cls-1" d="M3788.44922,551.875q-13.89844,24.42919-39.2793,41.91211-25.39453,17.4917-57.959,17.4834-32.09474,0-47.41992-17.72266-15.33692-17.71583-15.32813-44.06836,0-22.99073,8.38281-57.001,8.373-34.0049,23.71094-60.833.95215-1.90724,7.90234-14.12988,6.9375-12.21534,15.56836-18.68165a29.85034,29.85034,0,0,1,18.20118-6.46582,15.08229,15.08229,0,0,1,7.90429,2.15528q3.5918,2.15625,3.5918,5.50879c0,.64355-.88281,2.15527-2.63477,4.5498q-2.63672,3.59327-4.07031,5.50879a225.594,225.594,0,0,0-26.3457,38.79883,261.54663,261.54663,0,0,0-20.83594,48.3789,175.44269,175.44269,0,0,0-7.42578,52.21094q0,37.8457,45.98437,37.8418a70.02172,70.02172,0,0,0,39.9961-12.4541,99.02932,99.02932,0,0,0,29.459-30.417q11.0127-17.96191,11.01758-32.81153a42.72153,42.72153,0,0,0-11.01758-29.21875q-11.02442-12.4497-30.17773-26.34472-12.46-9.09375-18.20117-14.84961-5.748-5.74806-5.748-9.58008,0-5.74659,8.14258-9.33985a47.1253,47.1253,0,0,1,19.16015-3.59277q6.21974,0,8.14258.71875a2.643,2.643,0,0,1,1.916,2.63477c0,.64355-.56055,1.67578-1.67578,3.11328a6.39669,6.39669,0,0,0-1.67578,3.59179q0,1.437,9.58007,9.58008a217.82843,217.82843,0,0,1,32.0918,32.09375q12.93458,16.28907,12.93359,38.31934Q3802.33984,527.4458,3788.44922,551.875Z" transform="translate(-0.42451 -0.14953)"/><path class="cls-1" d="M4075.8457,611.75q-4.30956,4.311-11.97461,4.31055-9.58885,0-17.48437-20.11719a149.46642,149.46642,0,0,1-9.81836-41.67383q-1.92187-20.58837-2.875-83.3457-.4834-10.05909-.47852-20.35742,0-10.29492-.47851-17.4834-13.89845,33.05127-37.8418,75.20312-23.956,42.15528-48.13867,72.3291-24.19337,30.17725-39.51758,30.17676-15.80859,0-20.83789-16.76465-5.02734-16.7622-5.0293-53.16894,0-34.00635,8.86133-77.11914,8.85938-43.11036,20.35938-65.623,4.78125-10.05908,8.14258-13.65137a10.22221,10.22221,0,0,1,7.66406-3.59277q11.96776,0,11.97461,4.79,0,2.40234-4.791,11.0166-12.93164,23.95752-22.51172,57.48047-9.58887,33.53321-9.58008,90.05176,0,37.84423,10.53711,37.84082,12.45118,0,33.76954-27.542,21.3076-27.53907,42.39257-65.86329,21.07032-38.31591,32.0918-66.58007,3.8291-9.57716,8.62305-29.69825a65.37028,65.37028,0,0,1,2.873-11.73535q1.43849-3.59327,3.35352-3.59277,5.26465,0,11.49609,4.31055,6.21974,4.311,6.22657,9.10156,0,22.99218,1.67773,78.79492,1.67285,55.80762,4.07031,77.35938,1.91016,18.67968,6.94532,29.21875a86.29774,86.29774,0,0,0,9.82031,16.52539q4.78125,5.99413,4.78906,7.4248Q4080.15625,607.44238,4075.8457,611.75Z" transform="translate(-0.42451 -0.14953)"/><path class="cls-1" d="M4314.14453,581.333q-17.00684,19.40039-44.78515,31.13574a147.53882,147.53882,0,0,1-57.959,11.73535q-20.60156,0-27.7832-3.832-7.18359-3.83935-7.1836-10.53809,0-4.311,11.01563-15.08886,11.0127-10.77686,14.84961-10.77735,5.748,0,5.74805,2.39551,0,1.91895-2.39454,3.832c-1.60156,1.2793-2.39648,2.39453-2.39648,3.35254q0,1.92042,5.98828,3.832a48.2838,48.2838,0,0,0,14.60938,1.916,117.40477,117.40477,0,0,0,40.47656-7.42481q20.35254-7.42089,33.28906-19.39941,12.93458-11.96778,12.93359-25.38672,0-12.9331-8.14257-20.59668a49.63,49.63,0,0,0-20.35743-11.25683q-12.21385-3.59181-40.95507-10.29883Q4209.48339,497.74756,4192,492.23926q-17.49024-5.50048-28.02148-13.89063-10.541-8.376-10.53711-21.31543,0-22.99218,22.51172-42.15234a173.63659,173.63659,0,0,1,51.73242-30.17676q29.21191-11.01415,45.02539-11.01758,16.28027,0,16.28711,9.58008,0,5.748-3.832,12.69434-3.84082,6.94922-11.4961,6.94531a11.67918,11.67918,0,0,1-6.22656-2.15625,12.347,12.347,0,0,0-6.707-2.15527q-9.58594,0-30.17578,6.22754a120.73818,120.73818,0,0,0-37.36328,18.68066q-16.77246,12.46143-16.76368,30.17676,0,11.49609,13.17188,17.00488,13.16895,5.51221,49.09766,13.65137a56.66734,56.66734,0,0,0,8.62109,2.15527,70.88856,70.88856,0,0,1,7.66406,1.67676q36.87891,8.62207,56.52344,19.63867,19.63476,11.02441,19.63867,33.05176Q4331.15039,561.94189,4314.14453,581.333Z" transform="translate(-0.42451 -0.14953)"/><path class="cls-1" d="M4776.60938,383.50684q-11.02441,15.57129-30.17774,32.332L4732.541,428.293q-1.91895,1.9204-14.60938,12.93262a121.90152,121.90152,0,0,0-20.35742,22.03418,39.4375,39.4375,0,0,0-8.14258,23.95019q0,11.02441,5.26953,24.9082.95215,1.91895,2.63477,5.74805a16.60279,16.60279,0,0,1,1.67578,6.22656,11.47423,11.47423,0,0,1-3.832,9.10157,12.76475,12.76475,0,0,1-8.62305,3.35254q-8.61913,0-13.89062-12.45411-9.58594-23.46385-9.58008-36.88281,0-12.4497,7.66406-25.86621a87.26,87.26,0,0,1,15.80664-19.63867q10.06055-9.57716,25.38867-22.5127l17.24414-14.84961q13.88673-13.40478,21.55469-24.668a41.48328,41.48328,0,0,0,7.66406-23.71093q0-22.50879-27.7832-22.5127-18.208,0-42.86914,8.38184a265.73213,265.73213,0,0,0-46.46289,20.83691q-21.80274,12.46143-31.375,22.5127-4.793,4.311-9.3418,7.66406-4.55566,3.35742-7.42383,3.35352-5.748,0-12.21484-4.79-6.46583-4.78272-6.4668-11.4961,0-2.39208,2.875-4.79a51.73215,51.73215,0,0,1,6.4668-4.55078q3.59179-2.15478,6.94531-4.5498a528.04852,528.04852,0,0,1,70.89258-39.27832q39.26954-18.19776,72.32813-18.20215,24.42773,0,39.03906,11.25683,14.6045,11.26026,14.60937,31.374Q4787.627,367.94629,4776.60938,383.50684Zm-56.52149,208.84375a52.262,52.262,0,0,1-11.97461,14.37011q-7.18651,5.98389-13.89258,5.98731-19.16309,0-19.1582-18.68067,0-9.09375,10.29688-18.92089,10.29492-9.81153,20.83789-9.81934,18.67968,0,18.67968,13.41211Q4724.877,583.97559,4720.08789,592.35059Z" transform="translate(-0.42451 -0.14953)"/></g><g id="Soulignage"><path d="M424.4717,510.34906a1.5009,1.5009,0,0,0,0-3,1.5009,1.5009,0,0,0,0,3Z" transform="translate(-0.42451 -0.14953)"/><path class="cls-2" d="M755.23908,866.12493c265.50182-40.76337,535.54771-49.80122,803.74614-54.97638,207.11628-3.99652,414.29665-3.99634,621.44216-3.206,244.02728.93109,488.04811,3.1041,732.07287,4.49585q428.71012,2.44509,857.429.6618,487.51863-2.74352,974.92578-14.71093,65.41772-1.65063,130.83048-3.48774c28.89774-.80934,29.01562-45.81264,0-45q-498.89766,13.97265-998.00849,17.48874-435.86874,3.2991-871.75143.54724c-249.44693-1.23579-498.888-3.4347-748.33492-4.65682-211.32962-1.03538-422.68835-1.46777-634.0024,1.75469-261.15681,3.98254-523.37268,11.59336-782.7461,44.12363q-48.87212,6.12948-97.56591,13.57334c-28.53379,4.38089-16.41376,47.7493,11.96278,43.39256Z" transform="translate(-0.42451 -0.14953)"/><path class="cls-3" d="M4211.5,808.5" transform="translate(-0.42451 -0.14953)"/></g><g id="Bulb"><path class="cls-2" d="M550.726,609.208C514.01391,645.92011,518.6029,720,518.6029,720h-186.183s3.93344-74.07989-32.12314-110.792c-39.99-35.401-65.5574-86.53575-65.5574-143.57073,0-105.51956,86.24771-191.1358,192.00171-190.1073,102.74875.99927,186.67627,84.43775,188.20939,187.17993C615.819,520.921,590.73227,573.20236,550.726,609.208Z" transform="translate(-0.42451 -0.14953)"/><path d="M560.55965,627.83694a202.75431,202.75431,0,0,0,66.86854-150.12647c0-111.44759-91.12481-202.57238-202.5724-202.57238S222.28341,366.26288,222.28341,477.71047a203.32349,203.32349,0,0,0,68.83527,152.09316c32.12313,32.12314,28.84526,100.30286,28.84526,100.95842a15.664,15.664,0,0,0,3.27787,9.178,12.94327,12.94327,0,0,0,9.17805,3.93343H517.94734a12.94327,12.94327,0,0,0,9.178-3.93343c2.6223-2.62231,3.27787-5.90018,3.27787-9.178,0-.65556-3.27787-68.83528,28.84527-100.95842C559.90409,629.14812,560.55965,628.49251,560.55965,627.83694Zm-18.35609-16.38935a6.54518,6.54518,0,0,0-2.62231,3.27787c-28.84526,30.812-33.43426,81.29119-34.08983,104.89185H344.87578c-.65557-24.25622-5.90018-76.70214-36.71214-107.51416-38.67888-34.08983-60.96838-82.60232-60.96838-133.73711,0-98.33611,79.98-177.66058,177.66058-177.66058,98.33611,0,177.66056,79.98,177.66056,177.66058C602.5164,528.84527,580.88244,578.01332,542.20356,611.44759Z" transform="translate(-0.42451 -0.14953)"/><path d="M424.85582,327.584a12.45592,12.45592,0,1,0,0,24.91183A133.17718,133.17718,0,0,1,557.93735,485.57739a12.45592,12.45592,0,1,0,24.91183,0C582.84918,398.386,512.04716,327.584,424.85582,327.584Z" transform="translate(-0.42451 -0.14953)"/><path d="M536.2795,791.65246A30.0812,30.0812,0,0,0,506.147,760.26293H344.22024a30.1564,30.1564,0,1,0,0,60.3128H505.53633C521.47375,820.57573,535.66309,807.578,536.2795,791.65246Zm-30.78808,4.01143H344.22021a5.24461,5.24461,0,0,1,0-10.48922H505.49142a5.1708,5.1708,0,0,1,5.24462,5.24461C511.3916,793.6972,508.76929,795.66389,505.49142,795.66389Z" transform="translate(-0.42451 -0.14953)"/><path d="M481.27736,833.68719l-112.8009,0a30.15639,30.15639,0,1,0,0,60.31279H481.89077a30.09889,30.09889,0,0,0,30.01074-33.15345C510.39314,845.30987,496.88709,833.68718,481.27736,833.68719Zm.61341,35.401H368.47646a5.24462,5.24462,0,0,1,0-10.48923H481.89077a5.1708,5.1708,0,0,1,5.24461,5.24461C487.13538,867.12147,485.16864,869.08822,481.89077,869.08822Z" transform="translate(-0.42451 -0.14953)"/><path d="M437.31174,202.36939V118.45591a12.45592,12.45592,0,0,0-24.91184,0v84.569a12.44745,12.44745,0,0,0,12.45592,12.4559C432.06715,214.8253,437.31174,209.5807,437.31174,202.36939Z" transform="translate(-0.42451 -0.14953)"/><path d="M631.36167,168.27954c-5.90017-3.93345-13.11148-1.96673-17.04491,3.27787L567.771,241.70384c-3.93344,5.90016-1.96674,13.11148,3.27787,17.04492a12.64894,12.64894,0,0,0,6.55574,1.96672,13.68581,13.68581,0,0,0,10.48917-5.24459l46.54575-70.14642C638.573,180.07987,636.60623,172.213,631.36167,168.27954Z" transform="translate(-0.42451 -0.14953)"/><path d="M276.69609,258.09319a12.64912,12.64912,0,0,0,6.55574-1.96672c5.90018-3.93345,7.21131-11.14476,3.93344-17.04493l-45.23462-70.802c-3.93345-5.90016-11.14477-7.21132-17.04493-3.93344-5.90017,3.93344-7.21132,11.14475-3.93345,17.04492l45.23462,70.802A12.59717,12.59717,0,0,0,276.69609,258.09319Z" transform="translate(-0.42451 -0.14953)"/><path d="M102.969,317.09485l74.07987,39.99c1.96672,1.31115,3.93345,1.31115,5.90016,1.31115,4.589,0,8.52246-2.6223,11.14477-6.55574a12.329,12.329,0,0,0-5.24459-17.04491l-74.07987-39.99a12.329,12.329,0,0,0-17.04492,5.24458C95.10207,306.60566,97.06879,313.817,102.969,317.09485Z" transform="translate(-0.42451 -0.14953)"/><path d="M666.76263,359.05158a19.14149,19.14149,0,0,0,5.90018-1.31116l74.07989-39.99a12.61021,12.61021,0,1,0-11.80031-22.28952l-74.07988,39.99a12.502,12.502,0,0,0,5.90012,23.60066Z" transform="translate(-0.42451 -0.14953)"/></g><g id="Bulb_-_copie" data-name="Bulb - copie"><path class="cls-2" d="M5331.726,621.2812c-36.71213,36.71214-32.12314,110.792-32.12314,110.792h-186.183s3.93344-74.07989-32.12314-110.792c-39.99-35.401-65.5574-86.53575-65.5574-143.57073,0-106.33206,87.581-192.45311,194.44806-190.0681,103.981,2.3206,187.36338,89.08485,185.76172,193.07942A192.69162,192.69162,0,0,1,5331.726,621.2812Z" transform="translate(-0.42451 -0.14953)"/><path d="M5335.55965,627.83694a202.75431,202.75431,0,0,0,66.86854-150.12647c0-111.44759-91.12481-202.57238-202.5724-202.57238s-202.57238,91.12479-202.57238,202.57238a203.32349,203.32349,0,0,0,68.83527,152.09316c32.12313,32.12314,28.84526,100.30286,28.84526,100.95842a15.664,15.664,0,0,0,3.27787,9.178,12.94327,12.94327,0,0,0,9.178,3.93343h185.52748a12.94327,12.94327,0,0,0,9.17805-3.93343c2.6223-2.62231,3.27787-5.90018,3.27787-9.178,0-.65556-3.27787-68.83528,28.84527-100.95842C5334.90409,629.14812,5335.55965,628.49251,5335.55965,627.83694Zm-18.35609-16.38935a6.54518,6.54518,0,0,0-2.62231,3.27787c-28.84526,30.812-33.43426,81.29119-34.08983,104.89185H5119.87578c-.65557-24.25622-5.90018-76.70214-36.71214-107.51416-38.67888-34.08983-60.96838-82.60232-60.96838-133.73711,0-98.33611,79.98-177.66058,177.66058-177.66058,98.33611,0,177.66056,79.98,177.66056,177.66058C5377.5164,528.84527,5355.88244,578.01332,5317.20356,611.44759Z" transform="translate(-0.42451 -0.14953)"/><path d="M5199.85582,327.584a12.45592,12.45592,0,1,0,0,24.91183,133.17718,133.17718,0,0,1,133.08153,133.08153,12.45591,12.45591,0,1,0,24.91183,0C5357.84918,398.386,5287.04716,327.584,5199.85582,327.584Z" transform="translate(-0.42451 -0.14953)"/><path d="M5311.25535,792.16934a30.08477,30.08477,0,0,0-30.10831-31.90641h-161.9268a30.1564,30.1564,0,1,0,0,60.3128H5280.4951C5296.58647,820.57573,5310.37494,808.23661,5311.25535,792.16934Zm-30.76393,3.49455H5119.22021a5.24461,5.24461,0,0,1,0-10.48922h161.27121a5.1708,5.1708,0,0,1,5.24462,5.24461C5286.3916,793.6972,5283.76929,795.66389,5280.49142,795.66389Z" transform="translate(-0.42451 -0.14953)"/><path d="M5256.22246,833.68719l-112.746,0a30.15639,30.15639,0,1,0,0,60.31279h113.41431a30.10385,30.10385,0,0,0,29.95591-33.67328C5285.10121,845.003,5271.64532,833.68719,5256.22246,833.68719Zm.66831,35.401H5143.47646a5.24461,5.24461,0,0,1,0-10.48923h113.41431a5.1708,5.1708,0,0,1,5.24461,5.24461C5262.13538,867.12147,5260.16864,869.08822,5256.89077,869.08822Z" transform="translate(-0.42451 -0.14953)"/><path d="M5212.31174,202.36939V118.45591a12.45592,12.45592,0,0,0-24.91184,0v84.569a12.44745,12.44745,0,0,0,12.45592,12.4559C5207.06715,214.8253,5212.31174,209.5807,5212.31174,202.36939Z" transform="translate(-0.42451 -0.14953)"/><path d="M5406.36167,168.27954c-5.90017-3.93345-13.11148-1.96673-17.04491,3.27787L5342.771,241.70384c-3.93344,5.90016-1.96674,13.11148,3.27787,17.04492a12.64894,12.64894,0,0,0,6.55574,1.96672,13.68581,13.68581,0,0,0,10.48917-5.24459l46.54575-70.14642C5413.573,180.07987,5411.60623,172.213,5406.36167,168.27954Z" transform="translate(-0.42451 -0.14953)"/><path d="M5051.69609,258.09319a12.64912,12.64912,0,0,0,6.55574-1.96672c5.90018-3.93345,7.21131-11.14476,3.93344-17.04493l-45.23462-70.802c-3.93345-5.90016-11.14477-7.21132-17.04493-3.93344-5.90017,3.93344-7.21132,11.14475-3.93345,17.04492l45.23462,70.802A12.59717,12.59717,0,0,0,5051.69609,258.09319Z" transform="translate(-0.42451 -0.14953)"/><path d="M4877.969,317.09485l74.07987,39.99c1.96672,1.31115,3.93345,1.31115,5.90016,1.31115,4.589,0,8.52246-2.6223,11.14477-6.55574a12.329,12.329,0,0,0-5.24459-17.04491l-74.07987-39.99a12.329,12.329,0,0,0-17.04492,5.24458C4870.10207,306.60566,4872.06879,313.817,4877.969,317.09485Z" transform="translate(-0.42451 -0.14953)"/><path d="M5441.76263,359.05158a19.14149,19.14149,0,0,0,5.90018-1.31116l74.07989-39.99a12.61021,12.61021,0,1,0-11.80031-22.28952l-74.07988,39.99a12.502,12.502,0,0,0,5.90012,23.60066Z" transform="translate(-0.42451 -0.14953)"/></g><g id="cadre_droite" data-name="cadre droite"><line class="cls-4" x1="5123.35763" y1="977.77009" x2="5624.57549" y2="977.77009"/><line class="cls-4" x1="5602.03287" y1="498.63261" x2="5602.03287" y2="999.85047"/></g><g id="cadre_droite_-_copie" data-name="cadre droite - copie"><line class="cls-4" x1="536.21177" y1="22.5" x2="34.99391" y2="22.5"/><line class="cls-4" x1="22.5" y1="501.63505" x2="22.5" y2="0.41719"/></g></svg>