<svg xmlns="http://www.w3.org/2000/svg" viewBox="0 0 5625 1000"><defs><style>.cls-1{fill:none;}</style></defs><title>template_logo</title><g id="Texte"><path d="M435.96387,480.92725,675.69238,378.71533v44.022L485.52783,501.67383l190.16455,78.93555v44.02148L435.96387,522.41992Z"/><path d="M1081.81543,380.2334H962.45654V680.79688h-49.564V380.2334H793.53369V335.70557h288.28174Z"/><path d="M1180.43213,680.79688h-49.564V335.70557h49.564Z"/><path d="M1517.77246,380.2334H1398.41357V680.79688h-49.564V380.2334H1229.49072V335.70557h288.28174Z"/><path d="M1654.32129,335.70557q52.59375.50976,82.94434,26.312,30.34423,25.80541,30.34472,70.83984,0,29.86158-14.91992,51.61182-14.92383,21.76171-42.73633,32.89014a136.89242,136.89242,0,0,1,26.55274,22.76953,258.81415,258.81415,0,0,1,23.01171,29.85351q6.5669,9.61816,13.40235,20.49414,6.82764,10.88673,13.9082,22.51758,3.03516,5.0625,5.81641,9.61328,2.77442,4.55274,5.8164,8.60156c.332.67969.75879,1.43946,1.26465,2.27735a11.41184,11.41184,0,0,0,1.76953,2.27734q6.06885,9.1084,13.65528,19.48047,7.58642,10.377,18.71386,25.55274h-59.17382L1729.17285,609.957q-28.82812-44.51954-46.5293-59.96094-17.71-15.42772-33.37988-17.457c-2.02344-.332-3.96777-.584-5.8164-.75781q-2.78614-.249-5.81641-.25391h-20.73633V680.79688h-49.56348V335.70557Zm-37.42676,150.78808h31.86328q39.44825.50977,53.61035-16.44531,14.15332-16.94677,14.16114-38.20313V430.8335q-.50977-24.52515-16.18457-38.57471-15.68262-14.04126-51.58692-14.04932h-31.86328Z"/><path d="M2069.5415,380.2334H1923.37793V484.46924h141.106v44.52881h-141.106V636.26953h150.71533v44.52735H1873.81348V335.70557h195.728Z"/><path d="M2359.34082,335.70557q52.59449.50976,82.94434,26.312,30.345,25.80541,30.34521,70.83984,0,29.86158-14.91992,51.61182-14.92383,21.76171-42.73633,32.89014a136.87511,136.87511,0,0,1,26.55225,22.76953,258.75957,258.75957,0,0,1,23.01172,29.85351q6.56689,9.61816,13.40283,20.49414,6.82764,10.88673,13.9082,22.51758,3.03442,5.0625,5.81641,9.61328,2.77368,4.55274,5.81592,8.60156c.332.67969.75878,1.43946,1.26464,2.27735a11.414,11.414,0,0,0,1.77,2.27734q6.06885,9.1084,13.65528,19.48047,7.58641,10.377,18.71338,25.55274h-59.17383L2434.19287,609.957q-28.82812-44.51954-46.52978-59.96094-17.70924-15.42772-33.37989-17.457c-2.023-.332-3.96728-.584-5.8164-.75781q-2.78541-.249-5.81592-.25391h-20.73633V680.79688h-49.564V335.70557Zm-37.42627,150.78808h31.86279q39.449.50977,53.61036-16.44531,14.15331-16.94677,14.16113-38.20313V430.8335q-.50978-24.52515-16.18408-38.57471-15.68262-14.04126-51.58741-14.04932h-31.86279Z"/><path d="M2853.46,545.18945q0,63.75586-38.18457,101.959-38.19214,38.21191-115.05957,38.20312-54.62182,0-99.12842-32.13086-44.51074-32.127-44.50683-102.46484V335.70557H2606.145V539.62305q0,29.8623,4.55176,44.78125a63.23818,63.23818,0,0,0,16.18408,26.56445,96.536,96.536,0,0,0,33.37988,22.01172,111.17654,111.17654,0,0,0,40.96631,7.33594q28.31836,0,48.80566-8.09571,20.48365-8.08593,32.11573-19.73242a64.6811,64.6811,0,0,0,17.44873-32.13281q4.29052-18.97266,4.29883-43.26172V335.70557h49.564Z"/><path d="M2923.75684,335.70557h100.13964q54.62256.50976,79.91016,27.0708,25.28321,26.56494,26.29883,58.44287v3.03613q0,26.82568-12.89649,44.78125-12.89647,17.96631-39.70117,29.09473v.50586q38.93849,7.59009,60.94336,31.62451,21.999,24.041,22,58.94922,0,4.05762-.25293,8.0957a45.48076,45.48076,0,0,1-1.26465,8.09766q-5.57079,28.34179-32.873,51.86328-27.312,23.53125-83.957,23.5293H2923.75684Zm49.56445,147.75195h32.874q36.9126.50976,54.875-13.21924,17.94581-13.73364,17.9541-41.69775a49.27683,49.27683,0,0,0-12.89746-33.81494q-12.89647-14.49244-47.28711-14.49219h-45.51855Zm0,152.812h62.208q39.44824.50977,55.38086-14.23047,15.93164-14.74218,17.9541-32.543a16.10631,16.10631,0,0,0,.50488-3.81054V581.875q0-23.88574-18.71289-38.89062Q3071.93994,527.99316,3033,527.98633h-59.67871Z"/><path d="M3298.5166,335.70557q52.59522.50976,82.94434,26.312,30.3457,25.80541,30.3457,70.83984,0,29.86158-14.91992,51.61182-14.92383,21.76171-42.73633,32.89014a136.88673,136.88673,0,0,1,26.55176,22.76953,258.81419,258.81419,0,0,1,23.01172,29.85351q6.5669,9.61816,13.40332,20.49414,6.82617,10.88673,13.9082,22.51758,3.03369,5.0625,5.81641,9.61328,2.77294,4.55274,5.81543,8.60156c.332.67969.75879,1.43946,1.26465,2.27735a11.41111,11.41111,0,0,0,1.76953,2.27734q6.07031,9.1084,13.65625,19.48047,7.585,10.377,18.71289,25.55274h-59.17383L3373.36914,609.957q-28.82812-44.51954-46.53027-59.96094-17.70851-15.42772-33.37989-17.457c-2.02343-.332-3.96679-.584-5.8164-.75781q-2.78613-.249-5.81641-.25391h-20.73633V680.79688h-49.56347V335.70557Zm-37.42676,150.78808h31.86329q39.44823.50977,53.61035-16.44531,14.15331-16.94677,14.16113-38.20313V430.8335q-.50976-24.52515-16.18359-38.57471-15.68262-14.04126-51.58789-14.04932h-31.86329Z"/><path d="M3568.08008,680.79688h-49.56445V335.70557h49.56445Z"/><path d="M3859.39551,680.291v1.01171q33.3794,14.16211,57.40332,21.252,24.01611,7.081,43.748,7.084A100.4616,100.4616,0,0,0,3974.708,708.627a90.68182,90.68182,0,0,0,13.65527-3.03515l1.51758,1.51758L3945.375,751.13086q-50.07129-3.54492-91.79492-23.5293a465.58306,465.58306,0,0,1-77.63477-46.80468q-64.23486-11.63379-104.43847-59.707-40.20851-48.06738-40.208-112.332,0-78.427,53.10547-127.76562,53.10351-49.33448,137.05957-49.335,77.38036,0,129.47363,51.10595,52.08544,51.11427,52.09375,127.00635,0,62.748-40.46094,111.06641-40.46924,48.32813-103.1748,59.96094ZM3731.43945,404.77441q-30.85547,27.58521-41.47265,60.4668a132.47094,132.47094,0,0,0-5.81641,22.77,134.85808,134.85808,0,0,0-1.76953,21.25244q0,52.12207,34.64453,91.58594,34.63476,39.46875,103.42676,39.4668,57.65625,0,94.57715-38.7793,36.91113-38.78028,36.91992-91.51563,0-56.76928-37.67969-95.04785-37.68164-38.28222-94.82812-38.28222Q3762.28174,377.20117,3731.43945,404.77441Z"/><path d="M4354.53125,545.18945q0,63.75586-38.18555,101.959-38.19139,38.21191-115.05859,38.20312-54.62256,0-99.12891-32.13086-44.51073-32.127-44.50683-102.46484V335.70557h49.56445V539.62305q0,29.8623,4.55176,44.78125a63.24689,63.24689,0,0,0,16.18359,26.56445,96.53537,96.53537,0,0,0,33.38086,22.01172,111.17207,111.17207,0,0,0,40.96582,7.33594q28.31837,0,48.80567-8.09571,20.48438-8.08593,32.11523-19.73242a64.68565,64.68565,0,0,0,17.44922-32.13281q4.29053-18.97266,4.29883-43.26172V335.70557h49.56445Z"/><path d="M4620.55469,380.2334H4474.3916V484.46924h141.10645v44.52881H4474.3916V636.26953h150.71582v44.52735H4424.82715V335.70557h195.72754Z"/><path d="M4812.2373,624.63086V580.60938l190.165-78.93555-190.165-78.93653v-44.022l239.7295,102.21192v41.49267Z"/></g><g id="Ancrage"><rect class="cls-1" x="5624" y="999" width="1" height="1"/><rect class="cls-1" x="5624" width="1" height="1"/><rect class="cls-1" y="999" width="1" height="1"/><rect class="cls-1" width="1" height="1"/></g></svg>