<svg id="Layer_1" height="512" viewBox="0 0 128 128" width="512" xmlns="http://www.w3.org/2000/svg" data-name="Layer 1"><path d="m96.726 83.7v-39.412a21.151 21.151 0 0 1 11.85-18.976c2.691-1.322 5.039-2.437 7-2.633l-102.968-.124s-1.538 8.333 4.268 10.935l.137.062a16.1 16.1 0 0 1 9.5 14.686v18.751a31.207 31.207 0 0 1 -1.749 10.158 4.911 4.911 0 0 0 -.228 3.116 4.705 4.705 0 0 0 3.641 3.5 4.844 4.844 0 0 0 5.616-6.317 28.912 28.912 0 0 1 -1.862-9.459v-24.587a14.93 14.93 0 0 1 3.484-9.822 11.217 11.217 0 0 1 6.485-3.892c4.312-.784 6.994.255 9.829 1.285a9.631 9.631 0 0 1 6.342 9.051v6.672a31.217 31.217 0 0 1 -1.749 10.16 4.911 4.911 0 0 0 -.227 3.116 4.705 4.705 0 0 0 3.641 3.5 4.844 4.844 0 0 0 5.616-6.316 28.934 28.934 0 0 1 -1.863-9.462v-5.192a13.4 13.4 0 0 1 10.734-13.1 7.554 7.554 0 0 1 .919-.121 15.177 15.177 0 0 1 16.165 15.247v38.186a31.211 31.211 0 0 1 -1.749 10.158 4.912 4.912 0 0 0 -.228 3.116 4.705 4.705 0 0 0 3.641 3.5 4.844 4.844 0 0 0 5.617-6.315 28.962 28.962 0 0 1 -1.862-9.471z" fill="#cc1c17"/><path d="m76.827 81.552a3.563 3.563 0 0 1 -7.125 0c0-1.968 3.563-8.146 3.563-8.146s3.562 6.179 3.562 8.146z" fill="#cc1c17"/><path d="m19.548 52.573a3.563 3.563 0 0 1 -7.125 0c0-1.968 3.563-8.146 3.563-8.146s3.562 6.179 3.562 8.146z" fill="#cc1c17"/><g fill="#941111"><path d="m50.905 101.883a3.563 3.563 0 0 1 -7.125 0c0-1.968 3.563-8.146 3.563-8.146s3.562 6.178 3.562 8.146z"/><path d="m113.577 47.268a4.335 4.335 0 0 1 -8.669 0c0-2.394 4.335-9.911 4.335-9.911s4.334 7.517 4.334 9.911z"/><path d="m108.56 25.32c2.7-1.325 5.05-2.444 7.017-2.64l-12.5-.015a16.153 16.153 0 0 0 -8.31 12.421 152.138 152.138 0 0 0 -.767 16.514v34.025s-.125 4.625 1.25 7.125 1.193 6.339-2.278 6.732a4.844 4.844 0 0 0 5.617-6.315 28.957 28.957 0 0 1 -1.863-9.467v-39.412a21.141 21.141 0 0 1 11.834-18.968z"/><path d="m74.223 29.4a7.56 7.56 0 0 1 .919-.121s-13.809-1.444-13.809 8.889v15.082a7.3 7.3 0 0 0 1.042 3.625c1.063 1.625 2.038 6.557-2.637 6.591a4.844 4.844 0 0 0 5.616-6.316 28.933 28.933 0 0 1 -1.863-9.462v-5.188a13.4 13.4 0 0 1 10.732-13.1z"/><path d="m29.167 44.48v26.02a13.17 13.17 0 0 0 1.833 6c1.75 2.75-.114 7.934-4.432 6.592a4.849 4.849 0 0 0 7.227-5.65 28.912 28.912 0 0 1 -1.862-9.459v-24.583a14.93 14.93 0 0 1 3.484-9.822 11.217 11.217 0 0 1 6.483-3.892s-12.733.607-12.733 14.794z"/></g></svg>