<svg xmlns="http://www.w3.org/2000/svg" xmlns:xlink="http://www.w3.org/1999/xlink" viewBox="0 0 5676.85412 1028.00657"><defs><radialGradient id="b98e91f7-f498-488d-a763-1892635d5c11" cx="875.84442" cy="500" r="712.73635" gradientTransform="translate(18.6404 9.00657) scale(3.21371 1)" gradientUnits="userSpaceOnUse"><stop offset="0.00403" stop-color="#fff" stop-opacity="0"/><stop offset="1" stop-color="#231f20" stop-opacity="0.2"/></radialGradient></defs><title>logo_pop_news_5</title><g style="isolation:isolate"><g id="fb3bd8c7-a895-4ef2-b057-cb741d032037" data-name="Fond"><rect x="20.85412" y="8.91766" width="5625" height="1000.17781" style="fill:#f93"/><g style="opacity:0.30000000000000004"><polygon points="2590.409 8.918 2200.259 8.918 2833.354 509.007 2590.409 8.918" style="fill:#f63"/><polygon points="3463.31 8.918 3073.522 8.918 2833.354 509.007 3463.31 8.918" style="fill:#f63"/><polygon points="1550.572 8.918 812.843 8.918 2833.354 509.007 1550.572 8.918" style="fill:#f63"/><polygon points="4846.866 8.918 4111.692 8.918 2833.354 509.007 4846.866 8.918" style="fill:#f63"/><polygon points="5645.854 376.711 5645.854 164.259 2833.354 509.007 5645.854 376.711" style="fill:#f63"/><polygon points="3076.303 1009.095 3466.455 1009.095 2833.354 509.007 3076.303 1009.095" style="fill:#f63"/><polygon points="4116.143 1009.095 4853.872 1009.095 2833.354 509.007 4116.143 1009.095" style="fill:#f63"/><polygon points="2833.354 509.007 5645.854 852.043 5645.854 639.786 2833.354 509.007" style="fill:#f63"/><polygon points="20.854 165.966 20.854 378.227 2833.354 509.007 20.854 165.966" style="fill:#f63"/><polygon points="20.854 641.299 20.854 853.753 2833.354 509.007 20.854 641.299" style="fill:#f63"/><polygon points="819.83 1009.095 1555.01 1009.095 2833.354 509.007 819.83 1009.095" style="fill:#f63"/><polygon points="2203.395 1009.095 2593.187 1009.095 2833.354 509.007 2203.395 1009.095" style="fill:#f63"/></g><g style="mix-blend-mode:multiply"><polygon points="440.362 8.918 353.169 8.918 1732.634 299.137 440.362 8.918" style="fill:#f63"/><polygon points="120.742 8.918 63.883 8.918 681.459 134.091 120.742 8.918" style="fill:#f63"/><polygon points="1276.077 8.918 1188.883 8.918 2320.908 350.151 1276.077 8.918" style="fill:#f63"/><polygon points="956.456 8.918 899.597 8.918 1440.47 164.26 956.456 8.918" style="fill:#f63"/><polygon points="2047.505 8.918 1960.311 8.918 2616.217 337.489 2047.505 8.918" style="fill:#f63"/><polygon points="1727.885 8.918 1671.026 8.918 2089.457 179.535 1727.885 8.918" style="fill:#f63"/><polygon points="2499.313 8.918 2442.454 8.918 2616.217 194.112 2499.313 8.918" style="fill:#f63"/><polygon points="5196.878 8.918 5284.071 8.918 3904.609 299.137 5196.878 8.918" style="fill:#f63"/><polygon points="5516.498 8.918 5573.357 8.918 4955.781 134.091 5516.498 8.918" style="fill:#f63"/><polygon points="4361.163 8.918 4448.357 8.918 3316.332 350.151 4361.163 8.918" style="fill:#f63"/><polygon points="4680.784 8.918 4737.643 8.918 4196.77 164.26 4680.784 8.918" style="fill:#f63"/><polygon points="3589.735 8.918 3676.928 8.918 3021.026 337.489 3589.735 8.918" style="fill:#f63"/><polygon points="3909.355 8.918 3966.214 8.918 3547.786 179.535 3909.355 8.918" style="fill:#f63"/><polygon points="3137.927 8.918 3194.785 8.918 3021.026 194.112 3137.927 8.918" style="fill:#f63"/><polygon points="20.854 513.237 20.854 543.496 1042.903 523.75 20.854 513.237" style="fill:#f63"/><polygon points="20.854 418.287 20.854 434.827 564.834 447.523 20.854 418.287" style="fill:#f63"/><polygon points="20.854 325.692 20.854 337.69 580.193 368.159 20.854 325.692" style="fill:#f63"/><polygon points="20.854 205.67 20.854 217.669 899.597 336.633 20.854 205.67" style="fill:#f63"/><polygon points="20.854 95.651 20.854 107.649 551.845 179.535 20.854 95.651" style="fill:#f63"/><polygon points="20.854 325.692 20.854 337.69 580.193 368.159 20.854 325.692" style="fill:#f63"/><polygon points="20.854 205.67 20.854 217.669 899.597 336.633 20.854 205.67" style="fill:#f63"/><polygon points="20.854 95.651 20.854 107.649 551.845 179.535 20.854 95.651" style="fill:#f63"/><polygon points="20.854 625.286 20.854 607.203 641.117 591.917 20.854 625.286" style="fill:#f63"/><polygon points="20.854 715.478 20.854 703.48 580.193 673.01 20.854 715.478" style="fill:#f63"/><polygon points="20.854 835.499 20.854 823.501 899.597 704.536 20.854 835.499" style="fill:#f63"/><polygon points="20.854 945.519 20.854 933.521 551.845 861.635 20.854 945.519" style="fill:#f63"/><polygon points="2528.782 1009.095 2471.923 1009.095 2645.686 823.901 2528.782 1009.095" style="fill:#f63"/><polygon points="5645.854 509.007 5645.854 478.747 4623.805 498.493 5645.854 509.007" style="fill:#f63"/><polygon points="5645.854 600.382 5645.854 582.995 5074.025 569.651 5645.854 600.382" style="fill:#f63"/><polygon points="5645.854 692.321 5645.854 680.323 5086.518 649.854 5645.854 692.321" style="fill:#f63"/><polygon points="5645.854 812.343 5645.854 800.344 4767.111 681.38 5645.854 812.343" style="fill:#f63"/><polygon points="5645.854 922.362 5645.854 910.364 5114.863 838.478 5645.854 922.362" style="fill:#f63"/><polygon points="5645.854 692.321 5645.854 680.323 5086.518 649.854 5645.854 692.321" style="fill:#f63"/><polygon points="5645.854 812.343 5645.854 800.344 4767.111 681.38 5645.854 812.343" style="fill:#f63"/><polygon points="5645.854 922.362 5645.854 910.364 5114.863 838.478 5645.854 922.362" style="fill:#f63"/><polygon points="5645.854 395.165 5645.854 411.666 5079.845 425.615 5645.854 395.165" style="fill:#f63"/><polygon points="5645.854 302.535 5645.854 314.533 5086.518 345.003 5645.854 302.535" style="fill:#f63"/><polygon points="5645.854 182.514 5645.854 194.512 4767.111 313.477 5645.854 182.514" style="fill:#f63"/><polygon points="5645.854 72.494 5645.854 84.493 5114.863 156.378 5645.854 72.494" style="fill:#f63"/><polygon points="3938.823 1009.095 3995.683 1009.095 3577.254 838.478 3938.823 1009.095" style="fill:#f63"/><polygon points="3167.395 1009.095 3224.254 1009.095 3050.494 823.901 3167.395 1009.095" style="fill:#f63"/><polygon points="469.831 1009.095 382.637 1009.095 1762.102 718.876 469.831 1009.095" style="fill:#f63"/><polygon points="150.21 1009.095 93.351 1009.095 710.927 883.922 150.21 1009.095" style="fill:#f63"/><polygon points="1305.545 1009.095 1218.351 1009.095 2350.376 667.862 1305.545 1009.095" style="fill:#f63"/><polygon points="985.924 1009.095 929.066 1009.095 1469.938 853.753 985.924 1009.095" style="fill:#f63"/><polygon points="2076.973 1009.095 1989.78 1009.095 2645.686 680.524 2076.973 1009.095" style="fill:#f63"/><polygon points="1757.353 1009.095 1700.494 1009.095 2118.926 838.478 1757.353 1009.095" style="fill:#f63"/><polygon points="5226.346 1009.095 5313.54 1009.095 3934.078 718.876 5226.346 1009.095" style="fill:#f63"/><polygon points="5545.966 1009.095 5602.825 1009.095 4985.249 883.922 5545.966 1009.095" style="fill:#f63"/><polygon points="4390.632 1009.095 4477.825 1009.095 3345.8 667.862 4390.632 1009.095" style="fill:#f63"/><polygon points="4710.252 1009.095 4767.111 1009.095 4226.238 853.753 4710.252 1009.095" style="fill:#f63"/><polygon points="3619.203 1009.095 3706.397 1009.095 3050.494 680.524 3619.203 1009.095" style="fill:#f63"/></g><rect x="20.85412" y="8.91766" width="5625" height="1000.17781" style="mix-blend-mode:soft-light;fill:url(#b98e91f7-f498-488d-a763-1892635d5c11)"/></g><g id="ea06753c-d7e7-401a-8a19-d9aaad4aba4a" data-name="wooden board"><g id="ab9fa3ce-be67-4833-9d63-87bd551d910a" data-name="wooden3"><path d="M3306.79686,951.72693c138.39213,0,263.625-1.8166,309.75951-4.50707,23.06725-1.34546,85.678-2.22023,154.86868-2.22023h1358.778c273.4998,0,494.29687,4.50707,494.29687,10.091v3.36365l-329.53125,3.36365,329.53125,3.36366v20.18192l-329.53125,3.36365,329.53125,3.36365v6.72731l-329.53125,3.36365,329.53124,3.36366v3.36365c0,5.58389-220.79706,10.091-494.29686,10.091H1823.90627c-92.27974,0-164.76562-1.47978-164.76562-3.36365s-72.50783-3.36366-164.76562-3.36366c-92.27974,0-164.76562,1.47979-164.76562,3.36366S1257.12353,1019,1164.84379,1019H494.79693C221.275,1019,.50006,1014.49293.50006,1008.909V992.09077l329.53125-2.82524L.50006,985.36347v-6.72731l329.53125-3.36365L.50006,971.90885v-6.7273l329.53125-3.36366L.50007,958.45424v-3.36365c0-5.58389,220.775-10.091,494.29686-10.091H2842.14688c69.21249,0,131.82356.87454,154.89082,2.22023C3043.17187,949.91033,3168.38261,951.72693,3306.79686,951.72693Z" transform="translate(20.85412 9.00657)" style="fill:#896748"/><path d="M3306.79686,951.72693c138.39213,0,263.625-1.8166,309.75951-4.50707,23.06725-1.34546,85.678-2.22023,154.86868-2.22023h1358.778c273.4998,0,494.29687,4.50707,494.29687,10.091v3.36365l-329.53125,3.36365,329.53125,3.36366v16.81826H.50006v-3.36365l329.53125-3.36365L.50006,971.90885v-6.7273l329.53125-3.36366L.50007,958.45424v-3.36365c0-5.58389,220.775-10.091,494.29686-10.091H2842.14688c69.21249,0,131.82356.87454,154.89082,2.22023C3043.17187,949.91033,3168.38261,951.72693,3306.79686,951.72693Z" transform="translate(20.85412 9.00657)" style="fill:#73553a"/><path d="M1988.67189,1002.18173c0,1.85921,73.69417,3.36366,164.76563,3.36366H5624.49993v-6.72731H2153.43752C2062.36606,998.81808,1988.67189,1000.32253,1988.67189,1002.18173Z" transform="translate(20.85412 9.00657)" style="fill:#73553a"/><path d="M4295.39059,975.27251c0-1.85921-73.69433-3.36366-164.76562-3.36366H.50006v6.72731H4130.625C4221.69626,978.63616,4295.39059,977.13171,4295.39059,975.27251Z" transform="translate(20.85412 9.00657)" style="fill:#59422d"/><path d="M2647.73438,961.81789c0-1.8592-73.69417-3.36365-164.76562-3.36365H.50007v6.72731h2482.4687C2574.04021,965.18155,2647.73438,963.67709,2647.73438,961.81789Z" transform="translate(20.85412 9.00657)" style="fill:#59422d"/><path d="M3965.85935,961.81789c0,1.85921,73.69433,3.36366,164.76562,3.36366h1493.875v-6.72731H4130.625C4039.55368,958.45424,3965.85935,959.95869,3965.85935,961.81789Z" transform="translate(20.85412 9.00657)" style="fill:#59422d"/><rect x="21.35418" y="994.37003" width="5623.99987" height="6.72731" style="fill:#73553a"/></g><g id="e083acff-461f-4a2c-8d3e-f88e1321d52f" data-name="wooden2"><path d="M5650.19508,591.418c0,24.75506,1.56752,47.15625,3.8891,55.40862,1.161,4.12618,1.91582,15.32575,1.91582,27.70233V917.582c0,48.92262-3.8891,88.418-8.70738,88.418h-2.90246l-2.90246-58.94531L5638.58524,1006h-17.41476l-2.90246-58.94531L5615.36556,1006h-5.80492l-2.90246-58.94531L5603.75572,1006h-2.90246c-4.81827,0-8.70738-39.49535-8.70738-88.418v-591.418c0-16.50665,1.27689-29.47265,2.90246-29.47265s2.90246-12.96993,2.90246-29.47266c0-16.50665-1.27689-29.47266-2.90246-29.47266s-2.90246-12.966-2.90246-29.47265V88.418c0-48.92657,3.88911-88.418,8.70738-88.418h14.5123l2.43787,58.94531L5621.17048,0h5.80492l2.90246,58.94531L5632.78032,0h5.80492l2.90246,58.94531L5644.39016,0h2.90246C5652.1109,0,5656,39.4914,5656,88.418V508.30312c0,12.38047-.75464,23.58011-1.91582,27.70629C5651.7626,544.26172,5650.19508,566.659,5650.19508,591.418Z" transform="translate(20.85412 9.00657)" style="fill:#896748"/><path d="M5650.19508,591.418c0,24.75506,1.56752,47.15625,3.8891,55.40862,1.161,4.12618,1.91582,15.32575,1.91582,27.70233V917.582c0,48.92262-3.8891,88.418-8.70738,88.418h-2.90246l-2.90246-58.94531L5638.58524,1006h-14.5123V0h2.90246l2.90246,58.94531L5632.78032,0h5.80492l2.90246,58.94531L5644.39016,0h2.90246C5652.1109,0,5656,39.4914,5656,88.418V508.30312c0,12.38047-.75464,23.58011-1.91582,27.70629C5651.7626,544.26172,5650.19508,566.659,5650.19508,591.418Z" transform="translate(20.85412 9.00657)" style="fill:#73553a"/><path d="M5606.65818,355.63672c-1.60428,0-2.90246,13.18213-2.90246,29.47265V1006h5.80492V385.10937C5609.56064,368.81885,5608.26247,355.63672,5606.65818,355.63672Z" transform="translate(20.85412 9.00657)" style="fill:#73553a"/><path d="M5629.87786,768.25391c1.60429,0,2.90246-13.18217,2.90246-29.47266V0h-5.80492V738.78125C5626.9754,755.07174,5628.27358,768.25391,5629.87786,768.25391Z" transform="translate(20.85412 9.00657)" style="fill:#59422d"/><path d="M5641.4877,473.52734c1.60429,0,2.90246-13.18213,2.90246-29.47265V0h-5.80492V444.05469C5638.58524,460.34521,5639.88342,473.52734,5641.4877,473.52734Z" transform="translate(20.85412 9.00657)" style="fill:#59422d"/><path d="M5641.4877,709.30859c-1.60429,0-2.90246,13.18217-2.90246,29.47266V1006h5.80492V738.78125C5644.39016,722.49076,5643.092,709.30859,5641.4877,709.30859Z" transform="translate(20.85412 9.00657)" style="fill:#59422d"/><rect x="5636.21968" y="9.00657" width="5.80492" height="1006" style="fill:#73553a"/></g><g id="a67b358d-51b5-45db-ad89-2101e7769ce5" data-name="wooden4"><path d="M37.19508,588.418c0,24.75506,1.56752,47.15625,3.8891,55.40862C42.24517,647.95277,43,659.15234,43,671.52892V914.582C43,963.50465,39.1109,1003,34.29262,1003H31.39016L28.4877,944.05469,25.58524,1003H8.17048L5.268,944.05469,2.36556,1003H-3.43936l-2.90246-58.94531L-9.24428,1003h-2.90246c-4.81827,0-8.70738-39.49535-8.70738-88.418v-591.418c0-16.50665,1.27689-29.47265,2.90246-29.47265s2.90246-12.96993,2.90246-29.47266c0-16.50665-1.27689-29.47266-2.90246-29.47266s-2.90246-12.966-2.90246-29.47265V85.418C-20.85412,36.4914-16.965-3-12.14674-3H2.36556L4.80343,55.94531,8.17048-3H13.9754l2.90246,58.94531L19.78032-3h5.80492L28.4877,55.94531,31.39016-3h2.90246C39.1109-3,43,36.4914,43,85.418V505.30312c0,12.38047-.75464,23.58011-1.91582,27.70629C38.7626,541.26172,37.19508,563.659,37.19508,588.418Z" transform="translate(20.85412 9.00657)" style="fill:#896748"/><path d="M37.19508,588.418c0,24.75506,1.56752,47.15625,3.8891,55.40862C42.24517,647.95277,43,659.15234,43,671.52892V914.582C43,963.50465,39.1109,1003,34.29262,1003H31.39016L28.4877,944.05469,25.58524,1003H11.07294V-3H13.9754l2.90246,58.94531L19.78032-3h5.80492L28.4877,55.94531,31.39016-3h2.90246C39.1109-3,43,36.4914,43,85.418V505.30312c0,12.38047-.75464,23.58011-1.91582,27.70629C38.7626,541.26172,37.19508,563.659,37.19508,588.418Z" transform="translate(20.85412 9.00657)" style="fill:#73553a"/><path d="M-6.34182,352.63672c-1.60428,0-2.90246,13.18213-2.90246,29.47265V1003h5.80492V382.10937C-3.43936,365.81885-4.73753,352.63672-6.34182,352.63672Z" transform="translate(20.85412 9.00657)" style="fill:#73553a"/><path d="M16.87786,765.25391c1.60429,0,2.90246-13.18217,2.90246-29.47266V-3H13.9754V735.78125C13.9754,752.07174,15.27358,765.25391,16.87786,765.25391Z" transform="translate(20.85412 9.00657)" style="fill:#59422d"/><path d="M28.4877,470.52734c1.60429,0,2.90246-13.18213,2.90246-29.47265V-3H25.58524V441.05469C25.58524,457.34521,26.88342,470.52734,28.4877,470.52734Z" transform="translate(20.85412 9.00657)" style="fill:#59422d"/><path d="M28.4877,706.30859c-1.60429,0-2.90246,13.18217-2.90246,29.47266V1003h5.80492V735.78125C31.39016,719.49076,30.092,706.30859,28.4877,706.30859Z" transform="translate(20.85412 9.00657)" style="fill:#59422d"/><rect x="23.21968" y="6.00657" width="5.80492" height="1006" style="fill:#73553a"/></g><g id="ace37dc2-32cb-4a6a-bb87-fd7dc06da1f7" data-name="wooden board"><path d="M3306.29681-2.27926c138.39213,0,263.625-1.8166,309.7595-4.50707,23.06726-1.34546,85.678-2.22024,154.86869-2.22024H5129.703c273.4998,0,494.29686,4.50708,494.29686,10.091V4.44805L5294.46864,7.8117l329.53124,3.36366V31.35728l-329.53124,3.36365,329.53124,3.36365v6.72731l-329.53124,3.36365,329.53124,3.36366v3.36365c0,5.58389-220.79706,10.091-494.29686,10.091H1823.40622c-92.27974,0-164.76562-1.47978-164.76562-3.36365S1586.13276,58.2665,1493.875,58.2665c-92.27975,0-164.76562,1.47979-164.76562,3.36366s-72.48588,3.36365-164.76563,3.36365H494.29688C220.775,64.99381,0,60.48674,0,54.90285V38.08458l329.53124-2.82524L0,31.35728V24.63l329.53124-3.36365L0,17.90266v-6.7273L329.53125,7.8117,0,4.44805V1.08439c0-5.58388,220.775-10.091,494.29687-10.091h2347.35c69.21249,0,131.82356.87455,154.89081,2.22024C3042.67182-4.09586,3167.88256-2.27926,3306.29681-2.27926Z" transform="translate(20.85412 9.00657)" style="fill:#896748"/><path d="M3306.29681-2.27926c138.39213,0,263.625-1.8166,309.7595-4.50707,23.06726-1.34546,85.678-2.22024,154.86869-2.22024H5129.703c273.4998,0,494.29686,4.50708,494.29686,10.091V4.44805L5294.46864,7.8117l329.53124,3.36366V27.99362H0V24.63l329.53124-3.36365L0,17.90266v-6.7273L329.53125,7.8117,0,4.44805V1.08439c0-5.58388,220.775-10.091,494.29687-10.091h2347.35c69.21249,0,131.82356.87455,154.89081,2.22024C3042.67182-4.09586,3167.88256-2.27926,3306.29681-2.27926Z" transform="translate(20.85412 9.00657)" style="fill:#73553a"/><path d="M1988.17184,48.17554c0,1.85921,73.69417,3.36366,164.76562,3.36366H5623.99988V44.81189H2152.93746C2061.866,44.81189,1988.17184,46.31634,1988.17184,48.17554Z" transform="translate(20.85412 9.00657)" style="fill:#73553a"/><path d="M4294.89054,21.26632c0-1.85921-73.69434-3.36366-164.76562-3.36366H0V24.63H4130.12492C4221.1962,24.63,4294.89054,23.12552,4294.89054,21.26632Z" transform="translate(20.85412 9.00657)" style="fill:#59422d"/><path d="M2647.23433,7.8117c0-1.85921-73.69417-3.36365-164.76563-3.36365H0v6.72731H2482.4687C2573.54016,11.17536,2647.23433,9.6709,2647.23433,7.8117Z" transform="translate(20.85412 9.00657)" style="fill:#59422d"/><path d="M3965.3593,7.8117c0,1.85921,73.69433,3.36366,164.76562,3.36366h1493.875V4.44805h-1493.875C4039.05363,4.44805,3965.3593,5.9525,3965.3593,7.8117Z" transform="translate(20.85412 9.00657)" style="fill:#59422d"/><rect x="20.85413" y="40.36384" width="5623.99987" height="6.72731" style="fill:#73553a"/></g></g><g id="f1b3c6a4-3163-45b8-b149-266f7809eaed" data-name="Texte"><path d="M1086.47949,710.28809l12.98535-15.58789V803.81641H825.0415L840.624,789.96l10.38819-14.72168V459.14844H824.17578l25.9707-82.27h.86573V225.32861l-9.52246-13.856-15.58252-12.99024h273.55761V307.59863l-13.85107-15.58838-14.7168-11.25781H934.11816v96.126h165.34668l-165.34668,82.27V720.68066H1070.897Z" transform="translate(20.85412 9.00657)" style="stroke:#000;stroke-miterlimit:10;stroke-width:10px"/><path d="M1506.32666,625.41992h-.86572V686.04a117.10032,117.10032,0,0,1-117.73389,117.77637H1231.90332L1247.48584,789.96l10.38818-14.72168V225.32861l-9.52246-13.856L1232.769,198.48242h154.958a117.29965,117.29965,0,0,1,45.88184,9.09278,121.72552,121.72552,0,0,1,38.08984,25.11425,113.43833,113.43833,0,0,1,25.53809,37.6709,117.40992,117.40992,0,0,1,9.08984,45.898V625.41992Zm-83.10645-47.6289V316.2583a35.47417,35.47417,0,0,0-35.49316-35.50586H1340.98V720.68066h46.74707a34.94961,34.94961,0,0,0,25.105-9.959A32.78768,32.78768,0,0,0,1423.22021,686.04Z" transform="translate(20.85412 9.00657)" style="stroke:#000;stroke-miterlimit:10;stroke-width:10px"/><path d="M1747.8418,197.61621h25.9707l-14.7168,12.99024-11.2539,14.72216V507.64453L1706.28857,802.9502l-40.687-295.30567V225.32861l-11.2539-14.72216-15.58252-12.99024H1747.8418Z" transform="translate(20.85412 9.00657)" style="stroke:#000;stroke-miterlimit:10;stroke-width:10px"/><path d="M2100.16992,197.61621h27.70215V306.73242l-12.98535-14.72217-14.7168-11.25781h-54.53808V509.377l-41.55323,294.43946L1963.39111,509.377V280.75244H1907.9873l-14.71679,11.25781-12.98535,14.72217V197.61621h219.88476Z" transform="translate(20.85412 9.00657)" style="stroke:#000;stroke-miterlimit:10;stroke-width:10px"/><path d="M2333.90186,197.61621h25.9707l-14.7168,12.99024-11.2539,14.72216V507.64453L2292.34863,802.9502l-40.687-295.30567V225.32861l-11.25391-14.72216-15.58251-12.99024h109.07666Z" transform="translate(20.85412 9.00657)" style="stroke:#000;stroke-miterlimit:10;stroke-width:10px"/><path d="M2642.08057,208.0083a122.83417,122.83417,0,0,1,37.65722,25.54736,117.92328,117.92328,0,0,1,25.105,37.2378,114.28085,114.28085,0,0,1,9.08985,45.46484V686.04a117.10032,117.10032,0,0,1-117.73389,117.77637H2584.0791A117.12381,117.12381,0,0,1,2466.3457,686.04V316.2583a114.28085,114.28085,0,0,1,9.08985-45.46484,117.69581,117.69581,0,0,1,25.105-37.2378,122.50717,122.50717,0,0,1,37.65722-25.54736,112.66238,112.66238,0,0,1,45.88135-9.52588h12.11963A112.75524,112.75524,0,0,1,2642.08057,208.0083Zm-11.25391,217.36621V316.2583q0-14.71509-9.95557-24.68115-9.9624-9.94482-24.67236-9.959H2584.0791a34.98522,34.98522,0,0,0-25.105,9.959,32.83037,32.83037,0,0,0-10.38818,24.68115V686.04a35.475,35.475,0,0,0,35.49316,35.50684h12.11963a32.80781,32.80781,0,0,0,24.67236-10.39258,35.00786,35.00786,0,0,0,9.95557-25.11426V425.37451Z" transform="translate(20.85412 9.00657)" style="stroke:#000;stroke-miterlimit:10;stroke-width:10px"/><path d="M3145.03516,198.48242l-14.7168,13.856-11.25391,14.72217V803.81641L3036.82422,509.377l-83.10645-143.75634V776.10449l11.25391,14.72168,15.582,12.99024H2845.50684l14.71679-12.99024,11.25391-14.72168V227.06055l-11.25391-14.72217-14.71679-13.856h108.21093l83.10645,144.62207V227.06055l-11.25391-14.72217-15.583-13.856h135.04786Z" transform="translate(20.85412 9.00657)" style="stroke:#000;stroke-miterlimit:10;stroke-width:10px"/><path d="M3834.11133,638.41016h-70.1211V588.18262h77.91211l15.583-122.97217h-73.584v-50.228h80.50879L3886.918,253.04053h49.34473l-21.64258,161.94189h89.166l20.77637-161.94189h50.21l-21.6416,161.94189H4123.251v50.228h-77.91114l-14.71679,122.97217h72.71777v50.22754h-80.50977l-21.6416,165.40625h-51.07617l21.64258-165.40625h-87.43457l-21.64258,165.40625h-51.07519Zm161.88379-173.19971h-88.29981l-15.583,122.97217h87.43458Z" transform="translate(20.85412 9.00657)" style="stroke:#000;stroke-miterlimit:10;stroke-width:10px"/><path d="M4152.46094,256.33105h2.19629l4.39257,4.02833-4.39257,4.39453h-2.19629l-4.39356-4.39453Zm83.46582,12.81739H4246.543l15.00879,4.02832,12.44726-4.02832h2.19629l6.58985,6.22558v4.39453q-3.665,6.96094-27.82227,15.01465v1.83106q8.78613,0,8.78613,4.39453v4.39453q0,5.13282-17.206,6.22559,0-4.0254-12.8125-8.42286l-6.58984,6.22559h-4.02637l-6.58985-6.22559v-2.19726l2.19629-2.19727-2.19629-2.19726V294.7832Q4216.52441,280.501,4235.92676,269.14844Zm2.19629,55.29785h1.83008l4.39355,4.39453-6.22363,6.22559-4.39258-4.02832v-2.19727Zm204.63867-138.79395q36.60205,2.93556,36.60742,8.42286l42.46484-1.83106H4539.04q15.00587,0,23.42871-4.39453l15.00977,2.19727,30.01855-2.19727,31.84863,4.39453,79.07325-2.19726,17.206-2.19727,2.19629,2.19727v2.19726q44.28956-2.92675,46.85742-6.5918l2.19727,2.19727V318.2207l-4.39356,4.02832q-3.29443,0-12.8125-36.25488-39.53613-51.2666-87.49316-51.26953H4626.5332l-15.00976-4.02832-49.05469,1.83105q-20.1372-6.22265-34.04492-6.22558l-17.20606,4.39453-19.03613-4.39453-17.20508,8.42285H4459.9668q-3.29443,15.38087-19.40235,30.0293,0,27.835-23.42871,38.45214l-8.41992,31.86036v15.01464q-25.62891,21.61231-25.625,47.24122-3.665,0-4.39355,10.62011l6.58984,4.39453h8.41992q9.145-5.85351,59.6709-17.21191,3.65478-5.124,49.41992-10.62012l102.50293,4.02832q52.34619,30.03223,76.876,30.0293l21.23242,10.62012q73.94238,56.39942,83.4668,96.31347,10.61279,19.04591,10.61621,31.86036-6.59034,10.626-6.58985,27.832V619.6123l-16.83984,49.07227q-12.08057,19.04591-42.831,40.64941-29.29248,24.9082-38.43848,42.48047-6.22851,0-21.23242,17.21192Q4641.90771,790.999,4547.46,800.88672q0,4.75488-19.03613,6.5918h-4.39258q-128.13428,0-185.96875-42.84668-13.1792,0-25.625-25.63477-19.76953,0-21.2334-51.26953l-4.39258-21.24024q4.39307,0,12.8125-25.63476,6.59034-6.5918,34.41211-10.62012a214.70214,214.70214,0,0,0,46.85742,15.01465q27.8174,20.51367,27.82227,42.48047L4389.31348,709.334v8.42286q0,33.69726,119.708,49.07226,65.5254,0,124.10059-40.64941,46.856-79.10157,46.8584-110.96192,0-5.85351,6.58984-12.81738v-2.19726l-23.7959-57.86133q0-4.39454-61.86718-55.29785,0-7.32129-31.84864-10.62012l-23.79492-10.98633-59.6709-1.83105q-49.06055,0-96.27929,21.24023-34.41359,0-95.91211,34.05762l-8.78614,2.19726h-8.41992l-8.41992-8.42285v-2.19726q5.4917-61.88379,21.23242-61.88965l19.40235-55.66407q8.78613-6.95214,29.65234-74.707,36.60205-53.833,36.6084-81.29882,6.21972-3.65625,29.65234-46.875h21.59864Z" transform="translate(20.85412 9.00657)" style="stroke:#000;stroke-miterlimit:10;stroke-width:10px"/></g><g id="ec681bca-3cd3-4594-9e7e-80abd8ae32d4" data-name="icons"><g id="a6f1228e-74e8-4235-b991-d9fa6d7bd12c" data-name="toile"><path d="M286,519.06667a16.00585,16.00585,0,0,1-16-16v-480a16,16,0,1,1,32,0v480A16.00585,16.00585,0,0,1,286,519.06667Z" transform="translate(20.85412 9.00657)" style="fill:#607d8b;stroke:#000;stroke-miterlimit:10;stroke-width:4px"/><path d="M116.29334,448.77333a16.01068,16.01068,0,0,1-11.30667-27.328L444.4,82.032a16.00513,16.00513,0,0,1,22.63468,22.63467L127.62134,444.08A15.9584,15.9584,0,0,1,116.29334,448.77333Z" transform="translate(20.85412 9.00657)" style="fill:#607d8b;stroke:#000;stroke-miterlimit:10;stroke-width:4px"/><path d="M526,279.06668H46a16,16,0,1,1,0-32H526a16,16,0,1,1,0,32Z" transform="translate(20.85412 9.00657)" style="fill:#607d8b;stroke:#000;stroke-miterlimit:10;stroke-width:4px"/><path d="M455.70668,448.77333A15.874,15.874,0,0,1,444.4,444.08L104.98666,104.66667A16.00512,16.00512,0,0,1,127.62132,82.032L467.03468,421.44532a16.01067,16.01067,0,0,1-11.328,27.328Z" transform="translate(20.85412 9.00657)" style="fill:#607d8b;stroke:#000;stroke-miterlimit:10;stroke-width:4px"/><path d="M381.168,183.89867h-.10665a151.56662,151.56662,0,0,1-106.32534-44.288,16.01282,16.01282,0,0,1,22.54934-22.74133A119.74137,119.74137,0,0,0,381.296,151.89867a16.00018,16.00018,0,0,1-.128,32Z" transform="translate(20.85412 9.00657)" style="fill:#607d8b;stroke:#000;stroke-miterlimit:10;stroke-width:4px"/><path d="M449.02935,117.40267H448.944C383.49334,117.04,321.648,91.26934,274.82136,44.86934A16.01282,16.01282,0,0,1,297.37069,22.128c40.832,40.46933,94.72,62.95467,151.744,63.25333a16.01082,16.01082,0,0,1-.08533,32.02134Z" transform="translate(20.85412 9.00657)" style="fill:#607d8b;stroke:#000;stroke-miterlimit:10;stroke-width:4px"/><path d="M515.61069,280.02668A15.87419,15.87419,0,0,1,504.24,275.26936c-46.03735-46.54934-71.552-108.48-71.82934-174.4a15.9923,15.9923,0,0,1,15.936-16.064c9.17334.78933,16.02132,7.104,16.064,15.936a216.28239,216.28239,0,0,0,62.592,152.04267,15.98924,15.98924,0,0,1-11.392,27.24266Z" transform="translate(20.85412 9.00657)" style="fill:#607d8b;stroke:#000;stroke-miterlimit:10;stroke-width:4px"/><path d="M447.664,442.096h-.08532A16.00614,16.00614,0,0,1,431.664,426.01067c.384-65.45068,26.13335-127.296,72.53333-174.12266a15.99773,15.99773,0,1,1,22.72,22.528c-40.448,40.85334-62.93335,94.74132-63.25334,151.78665A15.99712,15.99712,0,0,1,447.664,442.096Z" transform="translate(20.85412 9.00657)" style="fill:#607d8b;stroke:#000;stroke-miterlimit:10;stroke-width:4px"/><path d="M285.04,508.656a16.01064,16.01064,0,0,1-11.24268-27.392c46.54934-46.03735,108.50135-71.552,174.42135-71.85067h.064a16.00006,16.00006,0,0,1,.064,32,216.28236,216.28236,0,0,0-152.04267,62.592A15.89333,15.89333,0,0,1,285.04,508.656Z" transform="translate(20.85412 9.00657)" style="fill:#607d8b;stroke:#000;stroke-miterlimit:10;stroke-width:4px"/><path d="M285.91468,508.6347a15.96107,15.96107,0,0,1-11.264-4.62931c-40.81067-40.46932-94.69867-62.95468-151.744-63.25334a16.00011,16.00011,0,0,1,.08533-32h.08533c65.472.36267,127.31734,26.13334,174.12266,72.53332a15.98948,15.98948,0,0,1-11.28534,27.34937Z" transform="translate(20.85412 9.00657)" style="fill:#607d8b;stroke:#000;stroke-miterlimit:10;stroke-width:4px"/><path d="M123.61067,441.328a15.99223,15.99223,0,0,1-16-15.936,216.24476,216.24476,0,0,0-62.592-152.04267,16.00538,16.00538,0,0,1,22.76266-22.50667c46.03734,46.54934,71.552,108.48,71.82934,174.4a15.99233,15.99233,0,0,1-15.936,16.064A.07839.07839,0,0,1,123.61067,441.328Z" transform="translate(20.85412 9.00657)" style="fill:#607d8b;stroke:#000;stroke-miterlimit:10;stroke-width:4px"/><path d="M56.432,278.98133a15.98925,15.98925,0,0,1-11.34933-27.264c40.448-40.832,62.93333-94.72,63.25333-151.76533a16.00151,16.00151,0,0,1,16-15.91467h.08534A16.00608,16.00608,0,0,1,140.336,100.12266,248.14041,248.14041,0,0,1,67.80266,274.224,15.874,15.874,0,0,1,56.432,278.98133Z" transform="translate(20.85412 9.00657)" style="fill:#607d8b;stroke:#000;stroke-miterlimit:10;stroke-width:4px"/><path d="M123.73867,116.67734a16.00007,16.00007,0,0,1-.064-32,216.10022,216.10022,0,0,0,152.04266-62.592A16.00539,16.00539,0,0,1,298.224,44.848C251.65333,90.88533,189.70134,116.4,123.78133,116.67733h-.04266Z" transform="translate(20.85412 9.00657)" style="fill:#607d8b;stroke:#000;stroke-miterlimit:10;stroke-width:4px"/><path d="M420.592,279.06668a15.874,15.874,0,0,1-11.37064-4.75733,151.44056,151.44056,0,0,1-43.88268-106.496,15.99233,15.99233,0,0,1,15.936-16.064h.064a15.99226,15.99226,0,0,1,16,15.936,119.56944,119.56944,0,0,0,34.624,84.13867A15.98921,15.98921,0,0,1,420.592,279.06668Z" transform="translate(20.85412 9.00657)" style="fill:#607d8b;stroke:#000;stroke-miterlimit:10;stroke-width:4px"/><path d="M381.168,374.23467h-.08533A16.00612,16.00612,0,0,1,365.168,358.14934,151.4755,151.4755,0,0,1,409.456,251.824a15.99774,15.99774,0,1,1,22.72,22.528,119.66741,119.66741,0,0,0-35.008,84.01068A15.99276,15.99276,0,0,1,381.168,374.23467Z" transform="translate(20.85412 9.00657)" style="fill:#607d8b;stroke:#000;stroke-miterlimit:10;stroke-width:4px"/><path d="M286,413.63734a16.01064,16.01064,0,0,1-11.24268-27.392,151.49061,151.49061,0,0,1,106.51734-43.88267h.064a16.00007,16.00007,0,0,1,.064,32,119.64449,119.64449,0,0,0-84.13867,34.624A15.92969,15.92969,0,0,1,286,413.63734Z" transform="translate(20.85412 9.00657)" style="fill:#607d8b;stroke:#000;stroke-miterlimit:10;stroke-width:4px"/><path d="M286,413.89336a15.961,15.961,0,0,1-11.264-4.62931,119.72964,119.72964,0,0,0-83.98934-35.02934,16.00011,16.00011,0,0,1,.08534-32h.08533a151.52528,151.52528,0,0,1,106.34667,44.288A16.01066,16.01066,0,0,1,286,413.8934Z" transform="translate(20.85412 9.00657)" style="fill:#607d8b;stroke:#000;stroke-miterlimit:10;stroke-width:4px"/><path d="M190.66134,374.40533a15.99223,15.99223,0,0,1-16-15.936,119.65691,119.65691,0,0,0-34.624-84.16A16.00538,16.00538,0,0,1,162.8,251.80266,151.49054,151.49054,0,0,1,206.68266,358.32a15.99232,15.99232,0,0,1-15.936,16.064.1613.1613,0,0,1-.08534.02133Z" transform="translate(20.85412 9.00657)" style="fill:#607d8b;stroke:#000;stroke-miterlimit:10;stroke-width:4px"/><path d="M151.19468,279.06668a15.98925,15.98925,0,0,1-11.34934-27.264,119.61748,119.61748,0,0,0,35.008-83.98934,16.0015,16.0015,0,0,1,16-15.91466h.08533A16.00609,16.00609,0,0,1,206.85334,167.984a151.47557,151.47557,0,0,1-44.288,106.32534,15.94563,15.94563,0,0,1-11.37066,4.75733Z" transform="translate(20.85412 9.00657)" style="fill:#607d8b;stroke:#000;stroke-miterlimit:10;stroke-width:4px"/><path d="M190.66134,183.74933a16.00006,16.00006,0,0,1-.064-32A119.57371,119.57371,0,0,0,274.736,117.104a16.00538,16.00538,0,0,1,22.50667,22.76266,151.49062,151.49062,0,0,1-106.51733,43.88267h-.064Z" transform="translate(20.85412 9.00657)" style="fill:#607d8b;stroke:#000;stroke-miterlimit:10;stroke-width:4px"/></g><g id="e98fc865-8809-40c5-8268-24867d637acf" data-name="citrouille"><g id="a458845c-674c-4b12-b42d-2ea9f835b99d" data-name="Color"><path d="M430.76,522.88938a14.86751,14.86751,0,0,1-12.914-7.50871l-2.86161-4.81829c-8.19354-13.59883-21.8902-36.34509-21.8902-63.02912a91.03634,91.03634,0,0,1,24.067-62.09971,14.9031,14.9031,0,0,1,10.90842-4.76938h49.23463A14.85763,14.85763,0,0,1,488.286,405.5383a62.24643,62.24643,0,0,0-16.24032,41.995c0,18.27037,9.17187,33.19,15.849,44.07392l3.253,5.38083a14.85322,14.85322,0,0,1-11.74,22.23262l-47.52254,3.61983a8.84962,8.84962,0,0,1-1.12507.04891Z" transform="translate(20.85412 9.00657)" style="fill:#607d8b"/><path d="M636.55242,551.97033A190.69549,190.69549,0,0,0,475.959,513.86425a158.1591,158.1591,0,0,1-66.89353,0,190.59446,190.59446,0,0,0-160.59342,38.10608A187.31693,187.31693,0,0,0,178.35,698.23118V739.0766c0,104.02129,85.384,188.6716,190.3103,188.6716H516.33973c104.92628,0,190.3103-84.62586,190.3103-188.6716V698.23118a187.36927,187.36927,0,0,0-70.09757-146.26084Z" transform="translate(20.85412 9.00657)" style="fill:#ffc107"/><path d="M323.73033,581.02683a13.373,13.373,0,0,0-21.08308,3.8155L271.43842,647.26a13.36667,13.36667,0,0,0,11.96013,19.34652h98.07793a13.35967,13.35967,0,0,0,9.123-23.13758Z" transform="translate(20.85412 9.00657)" style="fill:#f63"/><path d="M613.56157,647.23555l-31.20886-62.3932a13.373,13.373,0,0,0-21.08307-3.8155l-66.86909,62.41767a13.35967,13.35967,0,0,0,9.123,23.13758h98.07792a13.36667,13.36667,0,0,0,11.96013-19.34652Z" transform="translate(20.85412 9.00657)" style="fill:#f63"/><path d="M607.59375,738.19609H277.40625A10.99151,10.99151,0,0,0,266.4,749.20234,121.21969,121.21969,0,0,0,387.46875,870.2711h110.0625A120.751,120.751,0,0,0,618.6,749.20236a10.99152,10.99152,0,0,0-11.00627-11.00625Z" transform="translate(20.85412 9.00657)" style="fill:#f63"/></g><g id="bc4144a7-61ad-4426-bac9-95d078898d30" data-name="1.5"><path d="M411.90262,514.54909a18.29693,18.29693,0,0,1-15.94685-9.26971,111.17313,111.17313,0,0,1-14.60163-55.71609,112.54384,112.54384,0,0,1,29.69241-76.65242,18.328,18.328,0,0,1,13.47654-5.89446H485.302A18.33716,18.33716,0,0,1,498.852,397.71162a76.8994,76.8994,0,0,0-20.03138,51.85166,73.93392,73.93392,0,0,0,9.95453,37.47017,18.34946,18.34946,0,1,1-31.77137,18.36821,111.76814,111.76814,0,0,1-14.87066-55.83838,113.531,113.531,0,0,1,9.63658-45.85937H433.10793a76.24686,76.24686,0,0,0-15.06633,45.85937,75.2124,75.2124,0,0,0,9.78332,37.59246,18.30229,18.30229,0,0,1-15.92237,27.39333Z" transform="translate(20.85412 9.00657)"/><path d="M524.53325,950.98359H360.46675C243.84941,950.98359,149,856.94131,149,741.35121V695.981a208.14924,208.14924,0,0,1,77.89979-162.52563,211.9088,211.9088,0,0,1,178.448-42.33737,175.48144,175.48144,0,0,0,74.32889,0,211.9282,211.9282,0,0,1,178.448,42.33737A208.20156,208.20156,0,0,1,736,695.981v45.3702C736,856.94126,641.15058,950.98359,524.53325,950.98359ZM360.12433,522.9872a175.1144,175.1144,0,0,0-110.18479,39.011,171.65013,171.65013,0,0,0-64.252,133.98274v45.3702c0,95.363,78.41342,172.9449,174.77926,172.9449H524.5577c96.36584,0,174.77924-77.58186,174.77924-172.94488V695.981a171.65019,171.65019,0,0,0-64.25206-133.98277,175.36405,175.36405,0,0,0-147.67942-34.99987,211.96186,211.96186,0,0,1-89.76208,0,178.24352,178.24352,0,0,0-37.51909-4.01116Z" transform="translate(20.85412 9.00657)"/><path d="M399.69792,683.16484H265.17708a18.33289,18.33289,0,0,1-16.41154-26.53729l42.80208-85.60417a18.36839,18.36839,0,0,1,28.93422-5.23408l91.71875,85.60417a18.35929,18.35929,0,0,1-12.52267,31.77137ZM294.845,646.47734h58.30867L313.40892,609.374Z" transform="translate(20.85412 9.00657)"/><path d="M619.82292,683.16484H485.30208a18.34,18.34,0,0,1-12.52267-31.74692l91.71873-85.60417a18.65611,18.65611,0,0,1,15.77564-4.64707,18.33345,18.33345,0,0,1,13.15858,9.8567l42.80209,85.60417a18.3329,18.3329,0,0,1-16.41158,26.53727Zm-87.97663-36.6875H590.155L571.59108,609.374Z" transform="translate(20.85412 9.00657)"/><path d="M501.61579,877.60859H383.38421c-79.1227,0-136.55088-54.004-136.55088-128.40625a18.35045,18.35045,0,0,1,18.34375-18.34375H619.82292a18.35045,18.35045,0,0,1,18.34375,18.34375c0,42.0928-18.7351,65.20592-39.598,87.02276-26.146,26.733-60.53439,41.38349-96.95283,41.38349ZM285.184,767.54609c8.218,44.00053,46.32408,73.375,98.20021,73.375H501.59134c26.48838,0,51.55816-10.71275,70.58674-30.18157,14.96849-15.67781,23.84689-27.4178,27.4178-43.19343Z" transform="translate(20.85412 9.00657)"/><path d="M387.46875,804.23359A18.35045,18.35045,0,0,1,369.125,785.88984v-36.6875a18.34375,18.34375,0,0,1,36.6875,0v36.6875A18.35045,18.35045,0,0,1,387.46875,804.23359Z" transform="translate(20.85412 9.00657)"/></g></g><g id="b95601ba-6554-46aa-ac80-ca9b6b4cabe8" data-name="bat"><g id="fe0896a6-7ffb-490d-956c-041fc0780373" data-name="Color"><path d="M5341.70935,394.496a14.75177,14.75177,0,0,0-7.57333-.87467c-12.37333,1.856-25.45066-14.784-37.86666-17.89868l.704-.72535a22.76636,22.76636,0,0,0-8.87467-37.71734l-15.872-5.29067-10.624-10.53868a22.78768,22.78768,0,0,0-37.71734-8.896l-.704.704a96.2917,96.2917,0,0,1-1.89867-37.86665,14.58019,14.58019,0,0,0-.87467-7.57333c-4.544-11.28534-5.888-26.73067-14.54933-35.37067-29.61067-29.61065-71.296-45.41866-106.34668-22.86932a14.5034,14.5034,0,0,0-6.35733,11.30666,14.93334,14.93334,0,0,0,5.20533,12.11733c1.19467,1.04533,2.432,2.09066,3.60534,3.264,21.33333,21.33333,18.688,65.13066,1.024,89.408A14.41589,14.41589,0,0,0,5108.6,347.22132a61.9928,61.9928,0,0,1,17.664,12.26667,63.21756,63.21756,0,0,1,12.18133,17.36533C5149.21866,400,5155,422.37867,5136.93066,440.448a14.391,14.391,0,1,0,20.352,20.352c21.44-21.44,43.92533-18.70935,68.52266-.64a52.17435,52.17435,0,0,1,7.104,5.97334c5.07733,5.09868,19.88266,11.05066,22.95466,17.664a14.39227,14.39227,0,0,0,21.54667,5.58935c24.256-17.64266,62.69867-14.99731,84.07467,6.35734a61.66944,61.66944,0,0,1,11.54134,15.95732,14.44856,14.44856,0,0,0,11.776,7.91467c.384.02132.74667.04269,1.10934.04269A14.34313,14.34313,0,0,0,5397.64534,513.6c25.344-35.712,5.184-84.18132-25.856-115.2C5363.10669,389.7387,5352.99469,399.04005,5341.70935,394.496Z" transform="translate(20.85412 9.00657)" style="fill:#607d8b"/><path d="M5557.32536,61.312a61.94327,61.94327,0,0,0-79.82935,6.80533c-5.99467,5.99467.04269,12.992-3.11466,20.82134a13.01574,13.01574,0,0,0-.768,6.80533c.91732,5.84533-9.792,11.968-10.73067,17.94134a18.43358,18.43358,0,0,0-26.1333,10.47466l-2.88,8.66133-8.64,2.88a18.45512,18.45512,0,0,0-10.496,26.13333c-5.97333.93867-12.07467,11.62667-17.96267,10.752a13.07582,13.07582,0,0,0-6.80534.78934c-7.78666,3.136-14.80534-2.90134-20.8,3.09333a62.33842,62.33842,0,0,0-8.46934,77.376,12.96632,12.96632,0,0,0,10.06934,5.84534c.27732.02134.576.02134.85333.02134a13.23567,13.23567,0,0,0,9.94133-4.58667c.68265-.78932,1.344-1.6,2.048-2.28267a36.0494,36.0494,0,0,1,46.82666-3.79734,12.97486,12.97486,0,0,0,19.392-5.056,35.85222,35.85222,0,0,1,7.31734-10.496,37.25229,37.25229,0,0,1,10.32532-7.25333,36.36124,36.36124,0,0,1,40.98133,7.25333,12.96551,12.96551,0,0,0,18.32531-18.34668,36.0349,36.0349,0,0,1-3.52-47.14667,32.62406,32.62406,0,0,1,3.52-4.18133,36.71424,36.71424,0,0,1,10.53866-7.31733,12.94635,12.94635,0,0,0,5.01335-19.37068A36.35706,36.35706,0,0,1,5555.59729,83.456a12.93839,12.93839,0,0,0,1.728-22.144Z" transform="translate(20.85412 9.00657)" style="fill:#607d8b"/></g><g id="b609c101-687d-4306-8312-13f8c87c4b88" data-name="1.5"><path d="M5389.304,537.06667a12.19115,12.19115,0,0,1-1.23733-.04269,16.04079,16.04079,0,0,1-13.07733-8.78935,67.93174,67.93174,0,0,0-100.30933-24.7893,15.9869,15.9869,0,0,1-23.936-6.208,68.25127,68.25127,0,0,0-13.65333-19.62667,57.81869,57.81869,0,0,0-7.89333-6.63468,67.17629,67.17629,0,0,0-87.97867,6.656,16.00513,16.00513,0,0,1-22.63466-22.63468,68.08326,68.08326,0,0,0,13.54666-76.58667,69.59685,69.59685,0,0,0-13.54666-19.28534,68.605,68.605,0,0,0-19.62667-13.632,16.0105,16.0105,0,0,1-6.22934-23.936,67.27768,67.27768,0,0,0-7.06133-87.50934c-1.25867-1.30133-2.624-2.47467-3.968-3.62667a16.57067,16.57067,0,0,1-5.78133-13.46132,16.09579,16.09579,0,0,1,7.06133-12.56533c38.93333-25.04533,91.17867-19.34934,124.096,13.61068a99.46265,99.46265,0,0,1,22.08,33.36533,15.94663,15.94663,0,0,1,.98133,8.40534,107.05047,107.05047,0,0,0,2.112,42.06934l.78934-.78933a25.32423,25.32423,0,0,1,41.92,9.87734l5.86666,17.62134,17.62134,5.86666a25.3188,25.3188,0,0,1,9.87734,41.92l-.78933.81067a107.8193,107.8193,0,0,0,42.06934,2.112,16.18353,16.18353,0,0,1,8.42668.96,99.8781,99.8781,0,0,1,44.33067,150.10132,15.95324,15.95324,0,0,1-13.056,6.74134Zm-75.008-78.592a99.48381,99.48381,0,0,1,70.50667,29.41866c.59733.59734,1.19466,1.19467,1.74933,1.792A67.99857,67.99857,0,0,0,5349.73071,411.52a139.64648,139.64648,0,0,1-53.78133-4.33065,134.96743,134.96743,0,0,1-24.384-9.70666,15.98915,15.98915,0,0,1-4.05332-25.5787l10.51733-10.53867-10.496-3.49866a25.43367,25.43367,0,0,1-16-15.95734l-3.52-10.58134-10.51733,10.53868a15.74865,15.74865,0,0,1-13.80267,4.48,16.07038,16.07038,0,0,1-11.75467-8.512,134.77819,134.77819,0,0,1-9.70666-24.36267,140.293,140.293,0,0,1-4.352-53.824,67.53046,67.53046,0,0,0-13.41867-19.02934,68.25921,68.25921,0,0,0-65.984-17.408,98.977,98.977,0,0,1,9.28,101.99467,97.4606,97.4606,0,0,1,13.504,11.264,102.38063,102.38063,0,0,1,19.86134,28.26666,99.97994,99.97994,0,0,1,7.12534,63.04,98.64454,98.64454,0,0,1,79.65866,17.19466,93.42382,93.42382,0,0,1,11.86133,10.00533,97.03347,97.03347,0,0,1,11.264,13.48267,98.87384,98.87384,0,0,1,43.264-9.984Z" transform="translate(20.85412 9.00657)"/><path d="M5351.62935,284.352c-.36267,0-.704,0-1.06667-.02134a16.10673,16.10673,0,0,1-12.43734-7.21068c-19.28534-29.99467-14.89066-70.18667,10.45333-95.53067a76.72314,76.72314,0,0,1,25.664-17.00267,15.8214,15.8214,0,0,1,8.40534-.96,73.54621,73.54621,0,0,0,22.16534-.08534A22.80149,22.80149,0,0,1,5417.7627,131.264l10.66666-3.56266,3.56266-10.688a22.78925,22.78925,0,0,1,32.27735-12.928A71.52905,71.52905,0,0,0,5464.3547,81.92a15.93768,15.93768,0,0,1,.96-8.40534,76.86358,76.86358,0,0,1,115.56266-34.112A15.99462,15.99462,0,0,1,5578.744,66.752a45.37638,45.37638,0,0,0-11.66935,8.448,44.46819,44.46819,0,0,0-4.69332,57.81334,16.00563,16.00563,0,0,1-6.208,23.91467,45.42579,45.42579,0,0,0-12.992,9.024,39.66356,39.66356,0,0,0-4.33065,5.16267,44.4569,44.4569,0,0,0,4.33065,58.19734,15.99759,15.99759,0,0,1-22.63469,22.61332,44.90512,44.90512,0,0,0-50.60266-8.93866,46.17132,46.17132,0,0,0-12.75732,8.96,45.2349,45.2349,0,0,0-9.024,12.97066,16.0011,16.0011,0,0,1-23.936,6.22933,44.49478,44.49478,0,0,0-57.81333,4.672c-.85333.85333-1.68534,1.83468-2.51734,2.816a16.18666,16.18666,0,0,1-12.26666,5.71733ZM5382.712,195.84a44.66179,44.66179,0,0,0-11.47733,8.34133,45.1133,45.1133,0,0,0-12.75733,37.504,76.26657,76.26657,0,0,1,69.58934-4.94934,76.54349,76.54349,0,0,1,6.50667-7.40267,78.95691,78.95691,0,0,1,21.73869-15.27466,77.01745,77.01745,0,0,1,42.24-6.57066,76.20366,76.20366,0,0,1,14.336-55.06134,71.561,71.561,0,0,1,7.65866-9.088,74.77727,74.77727,0,0,1,7.44535-6.528,76.24487,76.24487,0,0,1,12.032-79.44533,44.49011,44.49011,0,0,0-35.05066,13.056,45.25323,45.25323,0,0,0-8.36267,11.47733,106.09345,106.09345,0,0,1-3.41333,39.44534,102.74545,102.74545,0,0,1-7.33866,18.47467,15.99573,15.99573,0,0,1-25.5787,4.096l-2.624-2.64534-.27735.91734A22.81268,22.81268,0,0,1,5442.936,156.608l-.85336.27733,2.60266,2.60267a15.98252,15.98252,0,0,1-4.032,25.55733,104.08061,104.08061,0,0,1-18.41068,7.33867A106.35338,106.35338,0,0,1,5382.712,195.84ZM5427,132.07467v0Zm20.07467-1.36534C5447.096,130.70933,5447.096,130.73067,5447.07467,130.70933Zm-14.22933-4.48c-.02132,0-.04269,0-.04269.02133Z" transform="translate(20.85412 9.00657)"/></g></g><g id="e93fb424-3839-47e9-b38e-27560f1a87f3" data-name="chapi"><g id="f1492c73-0166-407f-9ee6-634e35dbcc96" data-name="Color"><path d="M5184.25866,835.24107a13.18193,13.18193,0,0,0-2.74142-.28757H4976.58159a13.04689,13.04689,0,0,0-2.74143.28757c-64.72056,14.10968-101.83519,39.626-101.83519,70.03089,0,52.25955,106.66624,80.45978,207.04445,80.45978s207.04447-28.20023,207.04447-80.45978c0-30.40487-37.11465-55.92117-101.8352-70.03087Z" transform="translate(20.85412 9.00657)" style="fill:#455a64"/><path d="M5202.931,907.53411c-46.41246,23.69509-89.20165,31.651-125.952,31.651-71.94795,0-119.91325-30.38567-122.84638-32.20692a13.75215,13.75215,0,0,1-5.52118-15.7392l18.97907-62.05581,7.76417-25.86138,37.268-121.92618a49.42548,49.42548,0,0,1,17.59879-25.15206l134.23381-99.32383a12.22818,12.22818,0,0,1,15.52832.36425,14.11422,14.11422,0,0,1,3.79582,15.91174l-37.44054,94.0902a22.96931,22.96931,0,0,0-.51762,15.20243l36.92292,120.85261,7.93669,26.05309,18.80656,61.8641a13.68642,13.68642,0,0,1-6.55643,16.276Z" transform="translate(20.85412 9.00657)" style="fill:#607d8b"/><circle cx="5099.9035" cy="829.23691" r="43.0384" style="fill:#455a64"/></g><g id="ed12dab1-279f-4f63-b1f6-e9ae028e9f18" data-name="1.5"><path d="M5079.04939,994.10934C4967.533,994.10934,4849,962.78427,4849,904.716c0-33.7981,41.23635-62.15169,113.146-77.81421a14.381,14.381,0,0,1,6.11548,28.10436c-62.17085,13.53456-90.50527,35.25509-90.50527,49.70985,0,25.32459,76.56811,60.63719,201.29322,60.63719S5280.3426,930.0406,5280.3426,904.716c0-14.4356-28.33443-36.17525-90.50528-49.70985a14.381,14.381,0,0,1,6.11549-28.10436c71.90959,15.66252,113.146,44.01611,113.146,77.81421C5309.09877,962.78427,5190.56582,994.10934,5079.04939,994.10934Z" transform="translate(20.85412 9.00657)"/><path d="M5032.196,836.583a9.69214,9.69214,0,0,1-1.0544-.03834,497.35424,497.35424,0,0,1-60.29211-7.91753,14.37336,14.37336,0,0,1,5.5787-28.20022,470.117,470.117,0,0,0,56.76469,7.45743,14.36765,14.36765,0,0,1-.99688,28.69866Z" transform="translate(20.85412 9.00657)"/><path d="M5125.90278,836.583a14.3776,14.3776,0,0,1-1.016-28.71783,470.12047,470.12047,0,0,0,56.7647-7.45744,14.37336,14.37336,0,0,1,5.5787,28.20022,496.85,496.85,0,0,1-60.29212,7.91753,9.11337,9.11337,0,0,1-1.03522.05752Z" transform="translate(20.85412 9.00657)"/><path d="M4947.76787,909.71958a14.16444,14.16444,0,0,1-4.39011-.69013,14.34731,14.34731,0,0,1-9.29783-18.07806l71.18112-222.45776a52.10049,52.10049,0,0,1,19.49669-26.57071L5173.90642,536.637a14.37907,14.37907,0,0,1,21.56713,17.27288L5153.873,653.713a23.28569,23.28569,0,0,0-.671,15.95009l70.79772,221.28835a14.36269,14.36269,0,1,1-27.35671,8.76106l-70.81687-221.28834a52.03809,52.03809,0,0,1,1.49532-35.75351l22.41064-53.774-108.39159,76.51059a23.09532,23.09532,0,0,0-8.70355,11.86671l-71.18112,222.43859a14.34921,14.34921,0,0,1-13.68793,10.00713Z" transform="translate(20.85412 9.00657)"/><path d="M5079.04939,877.83857a57.51235,57.51235,0,1,1,57.51234-57.51234A57.58255,57.58255,0,0,1,5079.04939,877.83857Zm0-86.26852a28.75618,28.75618,0,1,0,28.75617,28.75618A28.79129,28.79129,0,0,0,5079.04939,791.57005Z" transform="translate(20.85412 9.00657)"/></g></g></g><g id="a54f7a59-7680-4cbd-8b6d-669ef2d09477" data-name="Ancrage"><rect x="5644.85412" y="1008.00657" width="1" height="1" style="fill:none"/><rect x="5644.85412" y="9.00657" width="1" height="1" style="fill:none"/><rect x="20.85412" y="1008.00657" width="1" height="1" style="fill:none"/><rect x="20.85412" y="9.00657" width="1" height="1" style="fill:none"/></g></g></svg>