<svg xmlns="http://www.w3.org/2000/svg" xmlns:xlink="http://www.w3.org/1999/xlink" viewBox="0 0 5625 1001.17781"><defs><radialGradient id="fd513989-74eb-40bd-9408-ebceea6e5f39" cx="875.84442" cy="500" r="712.73635" gradientTransform="translate(-2.21371 0.0889) scale(3.21371 1)" gradientUnits="userSpaceOnUse"><stop offset="0.00403" stop-color="#fff" stop-opacity="0"/><stop offset="1" stop-color="#231f20" stop-opacity="0.2"/></radialGradient></defs><title>logo_pop_news_6</title><g style="isolation:isolate"><g id="f32cc472-3a8c-46c4-a8e8-8f0364bf8ffe" data-name="Fond"><rect y="1" width="5625" height="1000.17781" style="fill:#fb82d5"/><g style="opacity:0.30000000000000004"><polygon points="2569.555 0 2179.405 0 2812.5 500.089 2569.555 0" style="fill:#fa37bd"/><polygon points="3442.456 0 3052.667 0 2812.5 500.089 3442.456 0" style="fill:#fa37bd"/><polygon points="1529.717 0 791.989 0 2812.5 500.089 1529.717 0" style="fill:#fa37bd"/><polygon points="4826.012 0 4090.838 0 2812.5 500.089 4826.012 0" style="fill:#fa37bd"/><polygon points="5625 367.793 5625 155.341 2812.5 500.089 5625 367.793" style="fill:#fa37bd"/><polygon points="3055.449 1000.178 3445.601 1000.178 2812.5 500.089 3055.449 1000.178" style="fill:#fa37bd"/><polygon points="4095.289 1000.178 4833.018 1000.178 2812.5 500.089 4095.289 1000.178" style="fill:#fa37bd"/><polygon points="2812.5 500.089 5625 843.125 5625 630.868 2812.5 500.089" style="fill:#fa37bd"/><polygon points="0 157.048 0 369.309 2812.5 500.089 0 157.048" style="fill:#fa37bd"/><polygon points="0 632.381 0 844.836 2812.5 500.089 0 632.381" style="fill:#fa37bd"/><polygon points="798.976 1000.178 1534.156 1000.178 2812.5 500.089 798.976 1000.178" style="fill:#fa37bd"/><polygon points="2182.541 1000.178 2572.333 1000.178 2812.5 500.089 2182.541 1000.178" style="fill:#fa37bd"/></g><g style="mix-blend-mode:multiply"><polygon points="419.508 0 332.314 0 1711.78 290.22 419.508 0" style="fill:#7a4068"/><polygon points="99.888 0 43.029 0 660.605 125.174 99.888 0" style="fill:#7a4068"/><polygon points="1255.223 0 1168.029 0 2300.054 341.234 1255.223 0" style="fill:#7a4068"/><polygon points="935.602 0 878.743 0 1419.616 155.342 935.602 0" style="fill:#7a4068"/><polygon points="2026.651 0 1939.457 0 2595.363 328.571 2026.651 0" style="fill:#7a4068"/><polygon points="1707.031 0 1650.171 0 2068.603 170.617 1707.031 0" style="fill:#7a4068"/><polygon points="2478.459 0 2421.6 0 2595.363 185.194 2478.459 0" style="fill:#7a4068"/><polygon points="5176.023 0 5263.217 0 3883.755 290.22 5176.023 0" style="fill:#7a4068"/><polygon points="5495.644 0 5552.503 0 4934.927 125.174 5495.644 0" style="fill:#7a4068"/><polygon points="4340.309 0 4427.503 0 3295.478 341.234 4340.309 0" style="fill:#7a4068"/><polygon points="4659.93 0 4716.788 0 4175.916 155.342 4659.93 0" style="fill:#7a4068"/><polygon points="3568.881 0 3656.074 0 3000.171 328.571 3568.881 0" style="fill:#7a4068"/><polygon points="3888.501 0 3945.36 0 3526.932 170.617 3888.501 0" style="fill:#7a4068"/><polygon points="3117.072 0 3173.931 0 3000.171 185.194 3117.072 0" style="fill:#7a4068"/><polygon points="0 504.319 0 534.578 1022.049 514.833 0 504.319" style="fill:#7a4068"/><polygon points="0 409.37 0 425.91 543.98 438.605 0 409.37" style="fill:#7a4068"/><polygon points="0 316.774 0 328.772 559.339 359.242 0 316.774" style="fill:#7a4068"/><polygon points="0 196.753 0 208.751 878.743 327.715 0 196.753" style="fill:#7a4068"/><polygon points="0 86.733 0 98.731 530.991 170.617 0 86.733" style="fill:#7a4068"/><polygon points="0 316.774 0 328.772 559.339 359.242 0 316.774" style="fill:#7a4068"/><polygon points="0 196.753 0 208.751 878.743 327.715 0 196.753" style="fill:#7a4068"/><polygon points="0 86.733 0 98.731 530.991 170.617 0 86.733" style="fill:#7a4068"/><polygon points="0 616.368 0 598.285 620.263 582.999 0 616.368" style="fill:#7a4068"/><polygon points="0 706.56 0 694.562 559.339 664.093 0 706.56" style="fill:#7a4068"/><polygon points="0 826.582 0 814.583 878.743 695.619 0 826.582" style="fill:#7a4068"/><polygon points="0 936.601 0 924.603 530.991 852.717 0 936.601" style="fill:#7a4068"/><polygon points="2507.927 1000.178 2451.069 1000.178 2624.832 814.984 2507.927 1000.178" style="fill:#7a4068"/><polygon points="5625 500.089 5625 469.83 4602.951 489.575 5625 500.089" style="fill:#7a4068"/><polygon points="5625 591.465 5625 574.078 5053.171 560.733 5625 591.465" style="fill:#7a4068"/><polygon points="5625 683.404 5625 671.405 5065.664 640.936 5625 683.404" style="fill:#7a4068"/><polygon points="5625 803.425 5625 791.427 4746.257 672.462 5625 803.425" style="fill:#7a4068"/><polygon points="5625 913.445 5625 901.446 5094.009 829.561 5625 913.445" style="fill:#7a4068"/><polygon points="5625 683.404 5625 671.405 5065.664 640.936 5625 683.404" style="fill:#7a4068"/><polygon points="5625 803.425 5625 791.427 4746.257 672.462 5625 803.425" style="fill:#7a4068"/><polygon points="5625 913.445 5625 901.446 5094.009 829.561 5625 913.445" style="fill:#7a4068"/><polygon points="5625 386.247 5625 402.748 5058.991 416.697 5625 386.247" style="fill:#7a4068"/><polygon points="5625 293.618 5625 305.616 5065.664 336.085 5625 293.618" style="fill:#7a4068"/><polygon points="5625 173.596 5625 185.594 4746.257 304.559 5625 173.596" style="fill:#7a4068"/><polygon points="5625 63.577 5625 75.575 5094.009 147.461 5625 63.577" style="fill:#7a4068"/><polygon points="3917.969 1000.178 3974.828 1000.178 3556.4 829.561 3917.969 1000.178" style="fill:#7a4068"/><polygon points="3146.541 1000.178 3203.4 1000.178 3029.64 814.984 3146.541 1000.178" style="fill:#7a4068"/><polygon points="448.977 1000.178 361.783 1000.178 1741.248 709.958 448.977 1000.178" style="fill:#7a4068"/><polygon points="129.356 1000.178 72.497 1000.178 690.073 875.004 129.356 1000.178" style="fill:#7a4068"/><polygon points="1284.691 1000.178 1197.497 1000.178 2329.522 658.944 1284.691 1000.178" style="fill:#7a4068"/><polygon points="965.07 1000.178 908.212 1000.178 1449.084 844.836 965.07 1000.178" style="fill:#7a4068"/><polygon points="2056.119 1000.178 1968.926 1000.178 2624.832 671.607 2056.119 1000.178" style="fill:#7a4068"/><polygon points="1736.499 1000.178 1679.64 1000.178 2098.072 829.561 1736.499 1000.178" style="fill:#7a4068"/><polygon points="5205.492 1000.178 5292.686 1000.178 3913.223 709.958 5205.492 1000.178" style="fill:#7a4068"/><polygon points="5525.112 1000.178 5581.971 1000.178 4964.395 875.004 5525.112 1000.178" style="fill:#7a4068"/><polygon points="4369.777 1000.178 4456.971 1000.178 3324.946 658.944 4369.777 1000.178" style="fill:#7a4068"/><polygon points="4689.398 1000.178 4746.257 1000.178 4205.384 844.836 4689.398 1000.178" style="fill:#7a4068"/><polygon points="3598.349 1000.178 3685.543 1000.178 3029.64 671.607 3598.349 1000.178" style="fill:#7a4068"/></g><rect width="5625" height="1000.17781" style="mix-blend-mode:soft-light;fill:url(#fd513989-74eb-40bd-9408-ebceea6e5f39)"/></g><g id="e5e6de7c-5a64-421d-9d26-3a9d5cbbe971" data-name="Texte"><path d="M1028.60986,233.64648l278.66944-15.85986,1.82959,62.21973q-32.92823,14.03979-76.22266,21.96-10.97607,1.83031-132.93213,15.25l9.14649,106.75,103.05322-1.21973,1.21924,96.98975-117.6875-3.04981,6.09765,142.12989,153.05518-7.32032,5.48779,64.66016-234.15576,3.0498Z" transform="translate(0 0.0889)" style="stroke:#000;stroke-miterlimit:10;stroke-width:10px"/><path d="M1376.78906,240.35645q104.87256,0,176.83643,54.8999,78.66138,59.78979,78.66162,161.6499,0,80.51954-14.0249,133.58984-17.07863,65.27931-58.53907,100.04-46.34838,39.04542-126.2246,39.04-17.07863,0-31.40381-1.21972a169.36218,169.36218,0,0,1-28.3545-4.87989Zm70.73438,423.95019q62.79785-16.4707,90.24756-61.61035,24.38159-39.64453,24.39111-108.58008,0-56.11524-17.68359-101.25976-23.781-60.99024-69.51514-61a176.69405,176.69405,0,0,0-48.17236,6.71Z" transform="translate(0 0.0889)" style="stroke:#000;stroke-miterlimit:10;stroke-width:10px"/><path d="M1778.63037,458.12646q0,60.38966,6.09815,128.1001,4.259,48.80861,15.24414,128.09961l-87.19825,1.83008q0-31.71093,2.439-77.46973,5.488-103.69482,5.48828-129.32031,0-48.79467-2.13428-88.145-2.1438-39.345-7.62256-99.73486-3.05859-30.49512-9.75634-93.33008l89.02783-6.71q-6.10254,69.54053-8.8418,121.69531Q1778.63086,395.29663,1778.63037,458.12646Z" transform="translate(0 0.0889)" style="stroke:#000;stroke-miterlimit:10;stroke-width:10px"/><path d="M1982.898,328.80664l-85.36914-1.22021-11.58594-95.16016,431.11475-7.92969-7.92725,48.79981-253.05859,28.66992,24.39111,406.26025h-110.98Z" transform="translate(0 0.0889)" style="stroke:#000;stroke-miterlimit:10;stroke-width:10px"/><path d="M2451.20654,458.12646q0,60.38966,6.09815,128.1001,4.259,48.80861,15.24414,128.09961l-87.19824,1.83008q0-31.71093,2.439-77.46973,5.488-103.69482,5.48828-129.32031,0-48.79467-2.13428-88.145-2.14378-39.345-7.62255-99.73486-3.05861-30.49512-9.75635-93.33008l89.02783-6.71q-6.10254,69.54053-8.8418,121.69531Q2451.207,395.29663,2451.20654,458.12646Z" transform="translate(0 0.0889)" style="stroke:#000;stroke-miterlimit:10;stroke-width:10px"/><path d="M2908.5332,475.20654q0,72.59987-41.46484,150.06006-48.17871,90.28417-114.0293,90.28028-75.61743,0-137.81054-83.57032-57.32373-77.46093-57.31934-156.16015,0-92.10059,43.9043-161.04,50.60669-79.29052,137.20068-79.29981,73.77393,0,125.00439,86.00977Q2908.52345,395.91577,2908.5332,475.20654Zm-235.37549,7.92969q0,39.65991,21.95215,112.23975,25.6106,84.18016,51.22168,84.18066,18.89357,0,37.80616-81.74023,15.8496-68.9253,15.85449-101.87012,0-39.64527-20.12305-122-23.781-96.375-46.34326-96.37988-22.56664,0-43.29443,90.89013Q2673.15282,443.48657,2673.15771,483.13623Z" transform="translate(0 0.0889)" style="stroke:#000;stroke-miterlimit:10;stroke-width:10px"/><path d="M3059.14551,746.65625l-.60938,18.2998-72.56445,7.32032q0-42.08936,6.09863-178.12012,3.044-67.70947,3.04883-107.96973,0-31.71093-6.09766-137.25-3.05859-52.45531-3.0498-83.57031l59.75879-4.87988q34.75781,25.01953,68.90527,62.22021,27.43946,29.28,59.14844,71.98,27.44092,37.8296,54.88086,75.63965,5.4873-37.20044,8.53613-74.72461,3.04542-37.51538,3.04981-75.335a436.81066,436.81066,0,0,0-2.13477-46.05517q-2.14307-19.81567-7.62207-52.76514,28.04,0,60.36816,12.20019,0,35.38477-1.8291,82.96-4.27294,111.0293-4.26855,139.08007,0,45.75,4.26855,92.71973,4.25831,46.98046,21.95215,173.24023l-89.63769-5.49023q-41.47558-79.29053-82.32032-158.59961-50.62206-92.71583-96.3457-148.84033,0,46.97973,3.96387,108.88525,3.958,61.919,8.23144,123.21973Q3059.13673,702.12647,3059.14551,746.65625Z" transform="translate(0 0.0889)" style="stroke:#000;stroke-miterlimit:10;stroke-width:10px"/><path d="M3829.90527,398.95654l14.63477-65.27,88.418,3.65967a207.51793,207.51793,0,0,0,8.53711-28.66992,131.93644,131.93644,0,0,0,3.04883-28.06006l-1.82911-37.81982,66.46582-5.48975a525.27016,525.27016,0,0,0-33.53808,100.03955l57.31933-1.82959a279.5758,279.5758,0,0,0,14.93946-45.75,371.979,371.979,0,0,0,7.62207-50.63037l76.22265,3.66016a242.99809,242.99809,0,0,0-28.65918,45.75,201.6447,201.6447,0,0,0-15.85449,48.7998h75.00293l-46.95312,56.12012h-57.31934L4046.377,456.90625l68.90528-4.87988-1.8291,56.72949-81.71094,3.05078q-3.65772,17.08447-4.57324,24.39941a178.702,178.702,0,0,0-.91407,20.74024,285.15,285.15,0,0,0,2.74317,40.87012,412.2352,412.2352,0,0,0,8.84179,42.70019l-78.66113-15.86035,20.73242-115.90039-54.2705,3.05078v93.93945l-78.05176,10.37012A248.9047,248.9047,0,0,0,3869.541,564.876a306.768,306.768,0,0,0,10.36621-54.89942h-76.832l12.80468-53.07031h76.833l12.19531-61.60986ZM3939.666,460.56641l59.75781-3.66016,12.80566-71.36963h-62.19726Z" transform="translate(0 0.0889)" style="stroke:#000;stroke-miterlimit:10;stroke-width:10px"/><path d="M4412.24512,288.54639q-31.1001,0-58.53907,51.85009-14.63524,28.065-29.26953,77.46973,28.04-29.28,69.51465-29.27978,55.481,0,92.68653,54.8999,32.92821,48.80932,32.92871,106.75,0,64.05029-26.83106,103.08984-31.09863,45.14941-92.68652,45.14063-72.57276,0-121.65137-54.90039-49.09131-54.89941-49.08691-128.09961,0-111.01613,57.92968-193.98047,64.626-92.71509,169.51856-92.71973a405.02385,405.02385,0,0,1,45.7334,2.43994,281.948,281.948,0,0,1,43.29492,8.54l-54.88086,98.21q-18.293-21.96019-34.14746-33.55029Q4434.80664,288.55152,4412.24512,288.54639ZM4377.4873,442.2666q-25.01073,0-45.73339,36.59961-18.293,32.34009-18.294,59.16992,0,42.09082,14.02539,77.47071,18.293,46.36377,54.87988,46.35937,28.04,0,45.124-31.10937a114.97788,114.97788,0,0,0,14.02539-56.12012q0-34.771-16.46485-78.69043Q4404.92725,442.27589,4377.4873,442.2666Z" transform="translate(0 0.0889)" style="stroke:#000;stroke-miterlimit:10;stroke-width:10px"/></g><g id="bb54f7d6-0f2f-40d3-a70a-744f1ea90bd4" data-name="icons"><g id="f33a3829-02e0-4036-93ec-145e3e7d57c0" data-name="virus"><g id="b687ed29-7558-4437-8436-ee2569c98d8b" data-name="couleurs"><g id="fde17a5d-ede5-43e1-9925-a0bb0319bff7" data-name="clair"><path d="M772.3461,443.333c-9.45128,0-27.71235,15.02634-36.13352,36.39069H717.49a276.14885,276.14885,0,0,0-63.81588-157.573l35.51341-35.44627c21.09144,9.16411,44.649,6.90237,51.33274.23146,8.86548-8.84835-2.6775-34.71616-25.78211-57.77645s-49.02242-34.58188-57.8879-25.73209c-6.68378,6.6709-8.9498,30.18269.23144,51.23271l-35.23195,35.16338a277.31731,277.31731,0,0,0-156.76-66.38622v-19.104c21.40721-8.40544,36.46211-26.63078,36.46211-36.0635,0-12.51457-26.48935-22.65881-59.1638-22.65881-32.67588,0-59.16379,10.14424-59.16379,22.65881,0,9.43272,15.05492,27.65806,36.46213,36.0635v18.71113a277.24272,277.24272,0,0,0-157.87585,63.693L226.29571,251.291c9.18269-21.05145,6.91524-44.56324.23289-51.23272-8.8655-8.84835-34.78332,2.67179-57.88791,25.73209s-34.64759,48.92811-25.78209,57.77647c6.68378,6.67091,30.24128,8.93265,51.33273-.23146l35.232,35.16336a276.23854,276.23854,0,0,0-66.51337,156.45852H143.7873c-8.42115-21.36577-26.68222-36.39069-36.13351-36.39069-12.53886,0-22.7031,26.43789-22.7031,59.04949,0,32.613,10.16424,59.04951,22.7031,59.04951,9.45129,0,27.71236-15.02634,36.13351-36.39213h18.72256a276.149,276.149,0,0,0,63.81586,157.573L190.81086,713.2927c-21.09145-9.16411-44.64895-6.90236-51.33273-.23144-8.86549,8.84834,2.67751,34.71618,25.7821,57.77645s49.02241,34.58188,57.8879,25.7321c6.68378-6.67092,8.9498-30.1827-.23289-51.23272l35.232-35.16336a277.3171,277.3171,0,0,0,156.76,66.38619V795.6668C393.5,804.07223,378.445,822.29759,378.445,831.73029c0,12.51457,26.48933,22.65883,59.1638,22.65883s59.16381-10.14426,59.16381-22.65883c0-9.4327-15.0549-27.65806-36.46211-36.06349V776.95566a277.24281,277.24281,0,0,0,157.87588-63.693l35.51484,35.44626c-9.18268,21.05146-6.91522,44.56323-.23288,51.23271,8.86548,8.84834,34.78333-2.67178,57.8879-25.7321s34.64759-48.92811,25.78211-57.77645c-6.68378-6.67092-30.24129-8.93267-51.33274.23144L650.5737,681.50116a276.23875,276.23875,0,0,0,66.51339-156.45854h19.11974c8.42116,21.36579,26.6822,36.39213,36.13352,36.39213,12.53885,0,22.70312-26.43789,22.70312-59.04951S784.885,443.3329,772.3461,443.3329Z" transform="translate(0 0.0889)" style="fill:#dafa43"/></g><g id="a73b4dd2-da89-46be-ac70-6aea3247d6fd" data-name="milieu"><ellipse cx="616.61342" cy="594.87111" rx="31.15285" ry="31.06852" style="fill:#99ad37"/><path d="M772.3461,443.333c-9.45128,0-27.71235,15.02634-36.13352,36.39069H717.49a276.14885,276.14885,0,0,0-63.81588-157.573l35.51341-35.44627c21.09144,9.16411,44.649,6.90237,51.33274.23146,8.86548-8.84835-2.6775-34.71616-25.78211-57.77645s-49.02242-34.58188-57.88934-25.73209c-6.68234,6.6709-8.9498,30.18269.23144,51.23271l-35.23195,35.16338a277.31731,277.31731,0,0,0-156.76-66.38622v-19.104c21.40721-8.40544,36.46211-26.63078,36.46211-36.0635,0-12.51457-26.48791-22.65881-59.16379-22.65881s-59.1638,10.14424-59.1638,22.65881c0,9.43272,15.05492,27.65806,36.46213,36.0635v18.71113q-6.0844.43719-12.09308,1.143c140.24917,14.39339,249.65268,132.88958,249.65268,276.94212,0,141.53649-105.61728,258.39816-242.336,276.09057v18.44682c-21.40721,8.40543-36.46213,26.63079-36.46213,36.0635,0,12.51457,26.48933,22.65882,59.1638,22.65882,32.6759,0,59.16381-10.14425,59.16381-22.65882,0-9.43271-15.0549-27.65807-36.46211-36.0635V776.9557a277.251,277.251,0,0,0,157.87584-63.69156l35.51484,35.44626c-9.18269,21.05146-6.91523,44.56323-.23288,51.23271,8.86548,8.84835,34.78332-2.67178,57.8879-25.7321s34.64759-48.9281,25.78211-57.77644c-6.68378-6.67093-30.2413-8.93267-51.33274.23144L650.5751,681.50264a276.23868,276.23868,0,0,0,66.51338-156.45853h19.11974c8.42117,21.36579,26.6822,36.39212,36.13352,36.39212,12.53886,0,22.70312-26.43789,22.70312-59.05095s-10.15994-59.05234-22.6988-59.05234Z" transform="translate(0 0.0889)" style="fill:#99ad37"/></g><g id="f3ece747-9e66-42dc-a45d-a1b60bea1f0a" data-name="foncé"><path d="M616.61342,563.71368a31.063,31.063,0,0,0-14.28767,3.46335,31.02607,31.02607,0,0,1,0,55.21035,31.09118,31.09118,0,1,0,14.28767-58.6737Z" transform="translate(0 0.0889)" style="fill:#6d7a27"/></g></g><g id="bb2f38ce-da25-4fb4-bc5d-98d171dc975e" data-name="tracé"><path d="M729.29308,763.18521c-7.81819,0-13.37323-9.86991-8.94265-16.60654,8.094-12.306,9.54415-20.48279,8.9941-22.73739-3.85337-2.6918-21.51866-5.05924-39.26108,2.65038a10.7167,10.7167,0,0,1-11.84017-2.24462l-35.23051-35.16336a10.71712,10.71712,0,0,1-.53152-14.59912,264.49327,264.49327,0,0,0,63.943-150.40054c1.22589-13.71473,35.23195-14.45627,39.75972-2.97325,7.061,17.91531,21.15144,28.6839,25.90782,29.56118,3.70338-2.12884,12.2431-18.6654,12.2431-48.28946,0-29.66548-8.564-46.20774-12.2588-48.298-4.61493.79009-18.79969,11.57587-25.89212,29.56975-4.532,11.49442-38.37525,10.69573-39.37968-3.15615A264.46338,264.46338,0,0,0,645.456,329.02738a10.71576,10.71576,0,0,1,.65006-14.46055l35.51341-35.44627a10.7143,10.7143,0,0,1,11.84017-2.24316c17.66813,7.67962,35.26483,5.36073,39.26963,2.62892,1.08727-4.142-4.61633-21.85869-25.56065-42.763-21.02286-20.98144-38.80958-26.64078-42.91729-25.51063-2.69463,3.81909-5.06927,21.44293,2.65038,39.14392a10.71588,10.71588,0,0,1-2.25172,11.86876L629.41943,297.4102a10.71406,10.71406,0,0,1-14.56912.52864,265.54074,265.54074,0,0,0-150.712-63.82586c-13.72044-1.22445-14.462-35.2391-2.96326-39.754,17.90244-7.02811,28.70247-21.06,29.614-25.82068-2.176-3.70336-18.77258-12.21024-48.39947-12.21024-29.67264,0-46.27346,8.534-48.40948,12.22739.81868,4.61206,11.63445,18.74256,29.62262,25.80495,11.50729,4.51919,10.71575,38.37668-3.14614,39.374a267.0049,267.0049,0,0,0-70.12672,14.67773c-13.05749,4.63635-20.22705-15.56213-7.171-20.19705a288.267,288.267,0,0,1,65.81043-14.96919v-1.98313c-20.35707-10.25712-36.46213-28.79251-36.46213-42.99159,0-22.93027,36.225-33.37456,69.881-33.37456s69.87954,10.44429,69.87954,33.37456c0,14.19908-16.10506,32.73447-36.46211,42.99159v2.53892A286.50237,286.50237,0,0,1,621.1997,275.33433l23.40321-23.35748c-7.12526-21.62439-5.38217-46.09487,4.67636-56.13338,16.23077-16.19936,49.231,1.98456,73.02712,25.73208,19.68557,19.6484,31.91437,41.43709,31.91437,56.86635,0,8.23255-3.33476,13.28753-6.13225,16.07934-10.05422,10.03423-34.569,11.76732-56.22481,4.65205l-23.79184,23.7461a285.36721,285.36721,0,0,1,59.21381,146.08853h2.006c10.27567-20.31706,28.83822-36.39213,43.05158-36.39213,22.96029,0,33.41888,36.16494,33.41888,69.7667s-10.45715,69.7667-33.41888,69.7667c-14.21336,0-32.77447-16.07506-43.05158-36.39212h-2.56749a285.38753,285.38753,0,0,1-61.6313,145.09123l23.39178,23.34748c21.66011-7.11667,46.17348-5.38216,56.22625,4.65064,10.01567,9.99566,7.66105,28.041-6.45945,49.5082a10.6926,10.6926,0,0,1-8.95835,4.83067Z" transform="translate(0 0.0889)" style="fill:#060606"/><path d="M437.61182,865.10343c-33.656,0-69.87954-10.44428-69.87954-33.37457,0-14.19907,16.10506-32.73449,36.46213-42.99159v-2.53893a286.5027,286.5027,0,0,1-145.39416-61.53267l-23.40319,23.35747c7.12383,21.62439,5.38216,46.09485-4.67636,56.13337-4.30059,4.292-9.78134,6.17084-15.95361,6.17084-17.12234.00144-39.584-14.44768-57.07494-31.90434-19.68412-19.647-31.91293-41.43711-31.91293-56.86489,0-8.23254,3.33332-13.28895,6.13227-16.08078,10.0528-10.03424,34.56758-11.76875,56.22483-4.65208l23.79182-23.74609a285.37711,285.37711,0,0,1-59.2138-146.08855h-2.006c-10.27569,20.31706-28.83822,36.39212-43.0516,36.39212-22.96027,0-33.41885-36.165-33.41885-69.76668s10.45715-69.76667,33.41885-69.76667c14.21338,0,32.77448,16.07506,43.0516,36.39212h2.5675a285.39814,285.39814,0,0,1,61.63127-145.09125l-23.3932-23.34748c-21.65581,7.11812-46.17059,5.38359-56.22482-4.65063-2.79753-2.79182-6.13227-7.84822-6.13227-16.08077,0-15.42783,12.22882-37.21793,31.91436-56.86491,23.79611-23.749,56.7992-41.92858,73.02855-25.73208,10.05852,10.03851,11.80019,34.50757,4.67636,56.132l23.8061,23.76038a291.35026,291.35026,0,0,1,27.55233-18.974c11.84732-7.18241,22.96315,11.13438,11.11724,18.3225a269.32779,269.32779,0,0,0-32.58016,23.25461,10.719,10.719,0,0,1-14.42911-.64867l-35.51485-35.44626a10.71389,10.71389,0,0,1-2.25173-11.86877c7.68533-17.61955,5.36788-35.16194,2.63607-39.14821-4.13627-1.10157-21.90585,4.56206-42.89872,25.51635-20.97858,20.93429-26.66936,38.67243-25.56063,42.78013,3.84052,2.6918,21.51436,5.06641,39.26537-2.6475a10.71482,10.71482,0,0,1,11.84019,2.24317l35.232,35.16337a10.71559,10.71559,0,0,1,.53007,14.59913,264.47861,264.47861,0,0,0-63.94016,150.39912c-1.22874,13.71329-35.23624,14.45911-39.76258,2.97325-7.061-17.91386-21.15-28.68248-25.90639-29.55974-3.70336,2.12743-12.24453,18.6654-12.24453,48.28946,0,29.66548,8.56545,46.20774,12.26025,48.298,4.61348-.79012,18.79828-11.57446,25.89067-29.56834,4.52919-11.49584,38.3781-10.69717,39.3811,3.15617a264.46941,264.46941,0,0,0,61.347,151.47067,10.71722,10.71722,0,0,1-.65009,14.46055L198.382,720.87661a10.71432,10.71432,0,0,1-11.84019,2.24318c-17.66955-7.67818-35.26339-5.36076-39.27108-2.62893-1.08729,4.14058,4.61634,21.85728,25.56206,42.76154,21.02144,20.98287,38.80817,26.63794,42.9173,25.512,2.69323-3.8191,5.06783-21.44293-2.65323-39.14393a10.71841,10.71841,0,0,1,2.25174-11.86877l35.232-35.16337a10.714,10.714,0,0,1,14.56914-.52863A265.54907,265.54907,0,0,0,415.86316,765.8856c13.72044,1.22444,14.46341,35.2391,2.96469,39.754-17.90389,7.02955-28.7025,21.06144-29.61406,25.82209,2.17459,3.70194,18.7697,12.21023,48.39947,12.21023,29.67264,0,46.27346-8.534,48.40946-12.22741-.81868-4.61205-11.63446-18.74257-29.62262-25.8064-11.50871-4.51774-10.71288-38.37525,3.14613-39.37253a265.57707,265.57707,0,0,0,151.78788-61.23692,10.71594,10.71594,0,0,1,14.42912.64868l35.5134,35.44626a10.71429,10.71429,0,0,1,2.25316,11.86877c-7.67818,17.601-5.375,35.12338-2.64606,39.13534,1.74166.37288,8.83408-.07858,21.64724-8.21829,11.69446-7.42817,23.186,10.66146,11.49157,18.091-20.84,13.23323-38.37669,15.2478-48.11941,5.525-10.05709-10.03708-11.80162-34.50758-4.67493-56.13337L617.42639,727.636A286.52749,286.52749,0,0,1,471.0307,786.7555v1.98025c20.35565,10.25853,36.4621,28.79391,36.4621,42.99158-.00143,22.93169-36.22495,33.376-69.881,33.376Z" transform="translate(0 0.0889)" style="fill:#060606"/><path d="M616.61342,636.56508a41.78436,41.78436,0,1,1,41.8686-41.78427A41.8739,41.8739,0,0,1,616.61342,636.56508Zm0-62.13565a20.35295,20.35295,0,1,0,20.43705,20.35277A20.41813,20.41813,0,0,0,616.61342,574.42943Z" transform="translate(0 0.0889)" style="fill:#060606"/></g><g id="bf86e56e-50b4-4753-b7cc-cfc5dc9d8b1e" data-name="mean_eyes"><path d="M499.9997,291.79593A126.05833,126.05833,0,0,0,386.02684,364.389a98.02314,98.02314,0,1,0,0,106.87316A125.96462,125.96462,0,1,0,499.9997,291.79593Zm0,28.0066a97.537,97.537,0,0,1,62.03463,22.19524L402.35469,410.43192A98.07452,98.07452,0,0,1,499.9997,319.80253Zm-196.04621,28.0066c36.4786,0,66.19362,28.14664,69.38636,63.799L254.43783,368.366A69.83346,69.83346,0,0,1,303.95349,347.80913Zm0,140.033a69.64693,69.64693,0,0,1-65.10134-95.34848l131.11291,47.68125C360.58285,467.7894,334.69074,487.84214,303.95349,487.84214ZM499.9997,515.84871a98.13367,98.13367,0,0,1-95.41847-75.91188L581.821,363.98293A97.91774,97.91774,0,0,1,499.9997,515.84871Z" transform="translate(0 0.0889)"/><circle cx="331.9568" cy="448.92114" r="14.0033"/><circle cx="484.99145" cy="451.92279" r="21.00495"/></g><g id="b3b8eda6-a5b4-4473-88f9-2378626a47bb" data-name="Moustache"><path d="M505.04525,588.346c14.40981,15.32515,13.47312,21.46888,13.09963,28.27481-1.25632,23.45783-35.03693,5.38128-43.694-1.50469-53.826-42.84723-58.41266-41.24612-79.72859-34.28184l-.78025.30031-.70892-.35159c-20.00051-8.3871-24.30417-10.29437-85.11192,28.60522-9.77433,6.25124-46.4446,21.90167-43.71633-1.50546.80217-6.79117.93661-12.96253,17.86834-27.20837,0,0-45.15361.29842-35.02124,52.59378,4.9,25.26531,21.19576,71.17352,141.03672,13.7677,109.35085,65.29851,133.37987,20.779,142.55733-4.00156C549.88512,591.73392,505.04525,588.346,505.04525,588.346Z" transform="translate(0 0.0889)" style="stroke:#000;stroke-miterlimit:10;stroke-width:5px"/></g></g><g id="ac1cef56-7142-41fd-b3ec-0e2f04e8b571" data-name="virus - copie"><g id="ec26fc37-d1db-40cd-85d7-0501c85dc711" data-name="couleurs - copie"><g id="b38e881b-0fb1-47a3-8a35-917c180edd37" data-name="clair - copie"><path d="M4852.6539,443.3329c-12.53886,0-22.69737,26.44072-22.69737,59.05234s10.16427,59.04951,22.70312,59.04951c9.45132,0,27.71236-15.02634,36.13352-36.39213h19.11974a276.23875,276.23875,0,0,0,66.51339,156.45854l-35.232,35.16336c-21.09145-9.16411-44.649-6.90236-51.33274-.23144-8.86548,8.84834,2.67754,34.71614,25.78211,57.77645s49.02242,34.58044,57.8879,25.7321c6.68234-6.66948,8.9498-30.18125-.23288-51.23271l35.51484-35.44626a277.24281,277.24281,0,0,0,157.87588,63.693V795.6668c-21.40721,8.40543-36.46211,26.63079-36.46211,36.06349,0,12.51457,26.48934,22.65883,59.16381,22.65883s59.1638-10.14426,59.1638-22.65883c0-9.4327-15.05492-27.65806-36.46213-36.06349V776.55992a277.3171,277.3171,0,0,0,156.76-66.38619l35.23195,35.16336c-9.18269,21.05-6.91667,44.5618-.23289,51.23272,8.86549,8.84978,34.78332-2.67183,57.8879-25.7321s34.64759-48.92811,25.7821-57.77645c-6.68378-6.67092-30.24128-8.93267-51.33273.23144l-35.51486-35.44626a276.149,276.149,0,0,0,63.81586-157.573h18.72256c8.42115,21.36579,26.68222,36.39213,36.13351,36.39213,12.53886,0,22.7031-26.4365,22.7031-59.04951,0-32.6116-10.16424-59.04949-22.7031-59.04949-9.45129,0-27.71236,15.02492-36.13351,36.39069h-19.12261a276.23854,276.23854,0,0,0-66.51337-156.45852l35.232-35.16336c21.09145,9.16411,44.64895,6.90237,51.33273.23146,8.8655-8.84836-2.67751-34.71618-25.78209-57.77647S5407.3369,191.21,5398.4714,200.05831c-6.68235,6.66948-8.9498,30.18127.23289,51.23272l-35.51486,35.44627a277.24272,277.24272,0,0,0-157.87585-63.693V204.33319c21.40721-8.40544,36.46213-26.63078,36.46213-36.0635,0-12.51457-26.48791-22.65881-59.16379-22.65881-32.67445,0-59.1638,10.14424-59.1638,22.65881,0,9.43272,15.0549,27.65806,36.46211,36.0635v19.104a277.31731,277.31731,0,0,0-156.76,66.38622l-35.232-35.16338c9.18124-21.05,6.91522-44.56181.23144-51.23271-8.86548-8.84979-34.78328,2.67179-57.8879,25.73209s-34.64759,48.9281-25.78211,57.77645c6.68378,6.67091,30.2413,8.93265,51.33274-.23146l35.51341,35.44627a276.14885,276.14885,0,0,0-63.81588,157.573h-18.72256c-8.42117-21.36435-26.68224-36.39069-36.13352-36.39069Z" transform="translate(0 0.0889)" style="fill:#dafa43"/></g><g id="acc51a80-dcdf-4817-a726-f1c1fb3f1e28" data-name="milieu - copie"><ellipse cx="5008.38658" cy="594.87111" rx="31.15285" ry="31.06852" style="fill:#99ad37"/><path d="M4852.65394,443.33294c-12.53886,0-22.6988,26.43929-22.6988,59.05234s10.16426,59.051,22.70312,59.051c9.45132,0,27.71235-15.02633,36.13352-36.39212h19.11974a276.23868,276.23868,0,0,0,66.51338,156.45853L4939.193,716.666c-21.09144-9.16411-44.649-6.90237-51.33274-.23145-8.86548,8.84835,2.67754,34.71614,25.78211,57.77645s49.02242,34.58045,57.8879,25.7321c6.68235-6.66948,8.94981-30.18125-.23288-51.23271l35.51484-35.44626A277.251,277.251,0,0,0,5164.688,776.9557v18.71114c-21.40721,8.40543-36.46211,26.63079-36.46211,36.0635,0,12.51457,26.48791,22.65882,59.16381,22.65882,32.67447,0,59.1638-10.14425,59.1638-22.65882,0-9.43271-15.05492-27.65807-36.46213-36.0635V777.22c-136.71869-17.69241-242.336-134.55408-242.336-276.09057,0-144.05254,109.40351-262.54873,249.65268-276.94212q-6.00939-.69652-12.09308-1.143V204.33319c21.40721-8.40544,36.46213-26.63078,36.46213-36.0635,0-12.51457-26.48791-22.65881-59.1638-22.65881s-59.16379,10.14424-59.16379,22.65881c0,9.43272,15.0549,27.65806,36.46211,36.0635v19.104a277.31731,277.31731,0,0,0-156.76,66.38622l-35.232-35.16338c9.18124-21.05,6.91378-44.56181.23144-51.23271-8.86692-8.84979-34.78472,2.67179-57.88934,25.73209s-34.64759,48.9281-25.78211,57.77645c6.68378,6.67091,30.2413,8.93265,51.33274-.23146l35.51341,35.44627a276.14885,276.14885,0,0,0-63.81588,157.573h-18.72256c-8.42117-21.36435-26.68224-36.39069-36.13352-36.39069Z" transform="translate(0 0.0889)" style="fill:#99ad37"/></g><g id="e5630d6c-80a5-4000-8da3-a7b7aabee948" data-name="foncé - copie"><path d="M4977.23517,594.7822a31.16155,31.16155,0,0,0,45.43908,27.60518,31.02607,31.02607,0,0,1,0-55.21035,31.16155,31.16155,0,0,0-45.43908,27.60517Z" transform="translate(0 0.0889)" style="fill:#6d7a27"/></g></g><g id="b2cf3f40-15da-4c14-823d-7c849336d085" data-name="tracé"><path d="M4895.70692,763.18529a10.6926,10.6926,0,0,1-8.95835-4.83067c-14.1205-21.46721-16.47512-39.51254-6.45945-49.5082,10.05277-10.0328,34.56614-11.76731,56.22625-4.65064l23.39178-23.34748a285.38753,285.38753,0,0,1-61.6313-145.09123h-2.56749c-10.27711,20.31706-28.83822,36.39212-43.05158,36.39212-22.96173,0-33.41888-36.165-33.41888-69.7667s10.45859-69.7667,33.41888-69.7667c14.21336,0,32.77591,16.07507,43.05158,36.39213h2.006a285.36721,285.36721,0,0,1,59.21381-146.08853l-23.79184-23.7461c-21.65579,7.11527-46.17059,5.38218-56.22481-4.65205-2.79749-2.79181-6.13225-7.84679-6.13225-16.07934,0-15.42926,12.2288-37.21795,31.91437-56.86635,23.7961-23.74752,56.79635-41.93144,73.02712-25.73208,10.05853,10.03851,11.80162,34.509,4.67636,56.13338l23.40321,23.35748a286.50237,286.50237,0,0,1,145.39414-61.53269v-2.53892c-20.35705-10.25712-36.46211-28.79251-36.46211-42.99159,0-22.93027,36.22356-33.37456,69.87954-33.37456s69.881,10.44429,69.881,33.37456c0,14.19908-16.10506,32.73447-36.46213,42.99159v1.98313a288.267,288.267,0,0,1,65.81043,14.96919c13.05607,4.63492,5.88651,24.8334-7.171,20.19705a267.0049,267.0049,0,0,0-70.12672-14.67773c-13.86189-.99727-14.65343-34.85476-3.14614-39.374,17.98817-7.06239,28.80394-21.19289,29.62262-25.80495-2.136-3.69336-18.73684-12.22739-48.40948-12.22739-29.62689,0-46.22344,8.50688-48.39947,12.21024.91156,4.76066,11.71159,18.79257,29.614,25.82068,11.49872,4.51489,10.75718,38.52954-2.96326,39.754a265.54074,265.54074,0,0,0-150.712,63.82586,10.71406,10.71406,0,0,1-14.56912-.52864l-35.23051-35.16481a10.71588,10.71588,0,0,1-2.25172-11.86876c7.71965-17.701,5.345-35.32483,2.65038-39.14392-4.10771-1.13015-21.89443,4.52919-42.91729,25.51063-20.94432,20.90429-26.64792,38.621-25.56065,42.763,4.0048,2.73181,21.6015,5.0507,39.26963-2.62892a10.7143,10.7143,0,0,1,11.84017,2.24316l35.51341,35.44627a10.71576,10.71576,0,0,1,.65006,14.46055,264.46338,264.46338,0,0,0-61.34836,151.47069c-1.00443,13.85188-34.84764,14.65057-39.37968,3.15615-7.09243-17.99388-21.27719-28.77966-25.89212-29.56975-3.69479,2.09028-12.2588,18.63254-12.2588,48.298,0,29.62406,8.53972,46.16062,12.2431,48.28946,4.75638-.87728,18.84687-11.64587,25.90782-29.56118,4.52777-11.483,38.53383-10.74148,39.75972,2.97325a264.49327,264.49327,0,0,0,63.943,150.40054,10.71712,10.71712,0,0,1-.53152,14.59912L4946.75672,724.247a10.7167,10.7167,0,0,1-11.84017,2.24462c-17.74242-7.70962-35.40771-5.34218-39.26108-2.65038-.55,2.2546.90013,10.43142,8.9941,22.73739,4.43058,6.73663-1.12446,16.60654-8.94265,16.60654Z" transform="translate(0 0.0889)" style="fill:#060606"/><path d="M5187.38818,865.1033c-33.656,0-69.87955-10.44428-69.881-33.376,0-14.19767,16.10645-32.73305,36.4621-42.99158V786.7555a286.52749,286.52749,0,0,1-146.39569-59.1195l-23.80181,23.75613c7.12669,21.62579,5.38216,46.09629-4.67493,56.13337-9.74272,9.72275-27.27943,7.70818-48.11941-5.525-11.69445-7.42956-.20289-25.51919,11.49157-18.091,12.81316,8.13971,19.90558,8.59117,21.64724,8.21829,2.72895-4.012,5.03212-21.53436-2.64606-39.13534a10.71429,10.71429,0,0,1,2.25316-11.86877l35.5134-35.44626a10.71594,10.71594,0,0,1,14.42912-.64868,265.57707,265.57707,0,0,0,151.78788,61.23692c13.859.99728,14.65484,34.85479,3.14613,39.37253-17.98816,7.06383-28.80394,21.19435-29.62262,25.8064,2.136,3.6934,18.73682,12.22741,48.40946,12.22741,29.62977,0,46.22488-8.50829,48.39947-12.21023-.91156-4.76065-11.71017-18.79254-29.61406-25.82209-11.49872-4.51491-10.75575-38.52957,2.96469-39.754a265.54907,265.54907,0,0,0,150.71345-63.82586,10.714,10.714,0,0,1,14.56914.52863l35.232,35.16337a10.71841,10.71841,0,0,1,2.25174,11.86877c-7.72106,17.701-5.34646,35.32483-2.65323,39.14393,4.10913,1.1259,21.89586-4.52917,42.9173-25.512,20.94572-20.90426,26.64935-38.621,25.56206-42.76154-4.00769-2.73183-21.60153-5.04925-39.27108,2.62893a10.71432,10.71432,0,0,1-11.84019-2.24318l-35.51343-35.44486a10.71722,10.71722,0,0,1-.65009-14.46055,264.46941,264.46941,0,0,0,61.347-151.47067c1.003-13.85334,34.85191-14.652,39.3811-3.15617,7.09239,17.99388,21.27719,28.77822,25.89067,29.56834,3.6948-2.09031,12.26025-18.63257,12.26025-48.298,0-29.62406-8.54117-46.162-12.24453-48.28946-4.75636.87726-18.84543,11.64588-25.90639,29.55974-4.52634,11.48586-38.53384,10.74-39.76258-2.97325a264.47861,264.47861,0,0,0-63.94016-150.39912,10.71559,10.71559,0,0,1,.53007-14.59913l35.23195-35.16337a10.71482,10.71482,0,0,1,11.84019-2.24317c17.751,7.71391,35.42485,5.3393,39.26537,2.6475,1.10873-4.1077-4.582-21.84584-25.56063-42.78013-20.99287-20.95429-38.76245-26.61792-42.89872-25.51635-2.73181,3.98627-5.04926,21.52866,2.63607,39.14821a10.71389,10.71389,0,0,1-2.25173,11.86877l-35.51485,35.44626a10.719,10.719,0,0,1-14.42911.64867,269.32779,269.32779,0,0,0-32.58016-23.25461c-11.84591-7.18812-.73008-25.50491,11.11724-18.3225a291.35026,291.35026,0,0,1,27.55233,18.974l23.8061-23.76038c-7.12383-21.62439-5.38216-46.09345,4.67636-56.132,16.22935-16.1965,49.23244,1.98313,73.02855,25.73208,19.68554,19.647,31.91436,41.43708,31.91436,56.86491,0,8.23255-3.33474,13.289-6.13227,16.08077-10.05423,10.03422-34.569,11.76875-56.22482,4.65063l-23.3932,23.34748a285.39814,285.39814,0,0,1,61.63127,145.09125h2.5675c10.27712-20.31706,28.83822-36.39212,43.0516-36.39212,22.9617,0,33.41885,36.165,33.41885,69.76667s-10.45858,69.76668-33.41885,69.76668c-14.21338,0-32.77591-16.07506-43.0516-36.39212h-2.006a285.37711,285.37711,0,0,1-59.2138,146.08855l23.79182,23.74609c21.65725-7.11667,46.172-5.38216,56.22483,4.65208,2.799,2.79183,6.13227,7.84824,6.13227,16.08078,0,15.42778-12.22881,37.21791-31.91293,56.86489-17.491,17.45666-39.9526,31.90578-57.07494,31.90434-6.17227,0-11.653-1.87883-15.95361-6.17084-10.05852-10.03852-11.80019-34.509-4.67636-56.13337l-23.40319-23.35747a286.5027,286.5027,0,0,1-145.39416,61.53267v2.53893c20.35707,10.2571,36.46213,28.79252,36.46213,42.99159,0,22.93029-36.22352,33.37457-69.87954,33.37457Z" transform="translate(0 0.0889)" style="fill:#060606"/><path d="M4966.518,594.78081a41.86869,41.86869,0,1,1,41.8686,41.78427A41.87388,41.87388,0,0,1,4966.518,594.78081Zm21.43155.00139a20.43723,20.43723,0,1,0,20.43705-20.35277A20.41813,20.41813,0,0,0,4987.94953,594.7822Z" transform="translate(0 0.0889)" style="fill:#060606"/></g><g id="aaa01087-b23d-4a8e-a238-8008bb82141d" data-name="mean_eyes - copie"><path d="M4998.97059,417.82561a125.92736,125.92736,0,0,0,240.00257,53.43659,98.02314,98.02314,0,1,0,0-106.87316,125.92736,125.92736,0,0,0-240.00257,53.43657Zm223.67472-7.39369-159.67964-68.43415a97.88121,97.88121,0,0,1,159.67964,68.43415ZM5370.56217,368.366l-118.902,43.24219c3.19274-35.6524,32.90776-63.799,69.38636-63.799A69.83346,69.83346,0,0,1,5370.56217,368.366Zm-115.52723,71.80893,131.11291-47.68125a69.64693,69.64693,0,0,1-65.10134,95.34848C5290.30926,487.84214,5264.41715,467.7894,5255.03494,440.17491Zm-228.05775-22.34928a97.41139,97.41139,0,0,1,16.20179-53.8427l177.23979,75.9539a97.97952,97.97952,0,0,1-193.44158-22.1112Z" transform="translate(0 0.0889)"/><circle cx="5293.0432" cy="448.92114" r="14.0033"/><circle cx="5140.00855" cy="451.92279" r="21.00495"/></g><g id="a7ca175c-102e-4a47-9c42-be33cf2d2acd" data-name="Moustache"><path d="M5094.15394,643.03433c9.17746,24.78053,33.20648,69.30007,142.55733,4.00156,119.841,57.40582,136.13676,11.49761,141.03672-13.7677,10.13237-52.29536-35.02124-52.59378-35.02124-52.59378,16.93173,14.24584,17.06617,20.4172,17.86834,27.20837,2.72827,23.40713-33.942,7.7567-43.71633,1.50546-60.80775-38.89959-65.11141-36.99232-85.11192-28.60522l-.70892.35159-.78025-.30031c-21.31593-6.96428-25.90256-8.56539-79.72859,34.28184-8.657,6.886-42.43764,24.96252-43.694,1.50469-.37349-6.80593-1.31018-12.94966,13.09963-28.27481C5119.95475,588.346,5075.11488,591.73392,5094.15394,643.03433Z" transform="translate(0 0.0889)" style="stroke:#000;stroke-miterlimit:10;stroke-width:5px"/></g></g></g><g id="b881338d-6b48-4fc2-9631-6d1b0b150b37" data-name="Ancrage"><rect x="5624" y="999.0889" width="1" height="1" style="fill:none"/><rect x="5624" y="0.0889" width="1" height="1" style="fill:none"/><rect y="999.0889" width="1" height="1" style="fill:none"/><rect y="0.0889" width="1" height="1" style="fill:none"/></g></g></svg>