<svg xmlns="http://www.w3.org/2000/svg" xmlns:xlink="http://www.w3.org/1999/xlink" viewBox="0 0 1478.26536 768"><defs><radialGradient id="a4a84497-c275-4567-b5d9-cfe55b8c1004" cx="-915.74091" cy="295.86842" r="419.91425" gradientTransform="translate(2051.87066 -1.61073) scale(1.43353 1.30202)" gradientUnits="userSpaceOnUse"><stop offset="0.00403" stop-color="#fff" stop-opacity="0"/><stop offset="1" stop-color="#231f20" stop-opacity="0.2"/></radialGradient></defs><title>img_lien_pop_8</title><g style="isolation:isolate"><g id="ac3805b5-c443-4af2-868d-da481d568701" data-name="Calque 1"><rect y="0.7671" width="1478.26536" height="767.2329" style="fill:#3bff72"/><g style="opacity:0.30000000000000004"><polygon points="675.286 0 572.754 0 739.133 383.616 675.286 0" style="fill:#05b336"/><polygon points="904.687 0 802.249 0 739.133 383.616 904.687 0" style="fill:#05b336"/><polygon points="402.014 0 208.137 0 739.133 383.616 402.014 0" style="fill:#05b336"/><polygon points="1268.289 0 1075.083 0 739.133 383.616 1268.289 0" style="fill:#05b336"/><polygon points="1478.265 282.133 1478.265 119.162 739.133 383.616 1478.265 282.133" style="fill:#05b336"/><polygon points="802.98 767.233 905.513 767.233 739.133 383.616 802.98 767.233" style="fill:#05b336"/><polygon points="1076.253 767.233 1270.13 767.233 739.133 383.616 1076.253 767.233" style="fill:#05b336"/><polygon points="739.133 383.616 1478.265 646.759 1478.265 483.937 739.133 383.616" style="fill:#05b336"/><polygon points="0 120.471 0 283.296 739.133 383.616 0 120.471" style="fill:#05b336"/><polygon points="0 485.097 0 648.071 739.133 383.616 0 485.097" style="fill:#05b336"/><polygon points="209.973 767.233 403.18 767.233 739.133 383.616 209.973 767.233" style="fill:#05b336"/><polygon points="573.578 767.233 676.016 767.233 739.133 383.616 573.578 767.233" style="fill:#05b336"/></g><g style="mix-blend-mode:multiply"><polygon points="110.248 0 87.333 0 449.86 222.626 110.248 0" style="fill:#05b336"/><polygon points="26.251 0 11.308 0 173.609 96.02 26.251 0" style="fill:#05b336"/><polygon points="329.876 0 306.961 0 604.46 261.759 329.876 0" style="fill:#05b336"/><polygon points="245.879 0 230.936 0 373.079 119.162 245.879 0" style="fill:#05b336"/><polygon points="532.609 0 509.695 0 682.068 252.046 532.609 0" style="fill:#05b336"/><polygon points="448.612 0 433.67 0 543.635 130.88 448.612 0" style="fill:#05b336"/><polygon points="651.346 0 636.403 0 682.068 142.062 651.346 0" style="fill:#05b336"/><polygon points="1360.273 0 1383.188 0 1020.661 222.626 1360.273 0" style="fill:#05b336"/><polygon points="1444.27 0 1459.213 0 1296.912 96.02 1444.27 0" style="fill:#05b336"/><polygon points="1140.645 0 1163.56 0 866.061 261.759 1140.645 0" style="fill:#05b336"/><polygon points="1224.642 0 1239.585 0 1097.442 119.162 1224.642 0" style="fill:#05b336"/><polygon points="937.912 0 960.826 0 788.453 252.046 937.912 0" style="fill:#05b336"/><polygon points="1021.909 0 1036.851 0 926.887 130.88 1021.909 0" style="fill:#05b336"/><polygon points="819.175 0 834.118 0 788.453 142.062 819.175 0" style="fill:#05b336"/><polygon points="0 386.861 0 410.073 268.597 394.926 0 386.861" style="fill:#05b336"/><polygon points="0 314.026 0 326.714 142.959 336.453 0 314.026" style="fill:#05b336"/><polygon points="0 242.996 0 252.2 146.996 275.573 0 242.996" style="fill:#05b336"/><polygon points="0 150.928 0 160.132 230.936 251.389 0 150.928" style="fill:#05b336"/><polygon points="0 66.533 0 75.737 139.546 130.88 0 66.533" style="fill:#05b336"/><polygon points="0 242.996 0 252.2 146.996 275.573 0 242.996" style="fill:#05b336"/><polygon points="0 150.928 0 160.132 230.936 251.389 0 150.928" style="fill:#05b336"/><polygon points="0 66.533 0 75.737 139.546 130.88 0 66.533" style="fill:#05b336"/><polygon points="0 472.814 0 458.942 163.007 447.217 0 472.814" style="fill:#05b336"/><polygon points="0 542 0 532.796 146.996 509.423 0 542" style="fill:#05b336"/><polygon points="0 634.068 0 624.864 230.936 533.607 0 634.068" style="fill:#05b336"/><polygon points="0 718.463 0 709.26 139.546 654.116 0 718.463" style="fill:#05b336"/><polygon points="659.09 767.233 644.148 767.233 689.813 625.171 659.09 767.233" style="fill:#05b336"/><polygon points="1478.265 383.616 1478.265 360.405 1209.668 375.552 1478.265 383.616" style="fill:#05b336"/><polygon points="1478.265 453.71 1478.265 440.373 1327.987 430.137 1478.265 453.71" style="fill:#05b336"/><polygon points="1478.265 524.237 1478.265 515.033 1331.27 491.66 1478.265 524.237" style="fill:#05b336"/><polygon points="1478.265 616.305 1478.265 607.101 1247.329 515.844 1478.265 616.305" style="fill:#05b336"/><polygon points="1478.265 700.7 1478.265 691.496 1338.719 636.353 1478.265 700.7" style="fill:#05b336"/><polygon points="1478.265 524.237 1478.265 515.033 1331.27 491.66 1478.265 524.237" style="fill:#05b336"/><polygon points="1478.265 616.305 1478.265 607.101 1247.329 515.844 1478.265 616.305" style="fill:#05b336"/><polygon points="1478.265 700.7 1478.265 691.496 1338.719 636.353 1478.265 700.7" style="fill:#05b336"/><polygon points="1478.265 296.289 1478.265 308.947 1329.517 319.647 1478.265 296.289" style="fill:#05b336"/><polygon points="1478.265 225.233 1478.265 234.437 1331.27 257.81 1478.265 225.233" style="fill:#05b336"/><polygon points="1478.265 133.165 1478.265 142.369 1247.329 233.626 1478.265 133.165" style="fill:#05b336"/><polygon points="1478.265 48.769 1478.265 57.973 1338.719 113.117 1478.265 48.769" style="fill:#05b336"/><polygon points="1029.653 767.233 1044.596 767.233 934.632 636.353 1029.653 767.233" style="fill:#05b336"/><polygon points="826.919 767.233 841.862 767.233 796.198 625.171 826.919 767.233" style="fill:#05b336"/><polygon points="117.992 767.233 95.078 767.233 457.605 544.606 117.992 767.233" style="fill:#05b336"/><polygon points="33.995 767.233 19.052 767.233 181.353 671.213 33.995 767.233" style="fill:#05b336"/><polygon points="337.62 767.233 314.706 767.233 612.205 505.474 337.62 767.233" style="fill:#05b336"/><polygon points="253.623 767.233 238.68 767.233 380.823 648.071 253.623 767.233" style="fill:#05b336"/><polygon points="540.354 767.233 517.439 767.233 689.813 515.187 540.354 767.233" style="fill:#05b336"/><polygon points="456.357 767.233 441.414 767.233 551.379 636.353 456.357 767.233" style="fill:#05b336"/><polygon points="1368.017 767.233 1390.932 767.233 1028.406 544.606 1368.017 767.233" style="fill:#05b336"/><polygon points="1452.015 767.233 1466.957 767.233 1304.657 671.213 1452.015 767.233" style="fill:#05b336"/><polygon points="1148.389 767.233 1171.304 767.233 873.805 505.474 1148.389 767.233" style="fill:#05b336"/><polygon points="1232.387 767.233 1247.329 767.233 1105.186 648.071 1232.387 767.233" style="fill:#05b336"/><polygon points="945.656 767.233 968.571 767.233 796.198 515.187 945.656 767.233" style="fill:#05b336"/></g><rect width="1478.26536" height="767.2329" style="mix-blend-mode:soft-light;fill:url(#a4a84497-c275-4567-b5d9-cfe55b8c1004)"/><g id="a964bd7c-d347-4ae2-84cd-999fbe120dd3" data-name="Capa 1"><path d="M903,560a165.95615,165.95615,0,0,1-88.1032,146.61819l-2.503.09727L807.2647,710.431A166.43262,166.43262,0,0,1,674.121,713.6732l-5.78406-4.75953h-4.7725A166.04777,166.04777,0,1,1,903,560Z" style="fill:#f4dee8"/><path d="M903,560a165.95615,165.95615,0,0,1-88.1032,146.61819l-2.503.09727L807.2647,710.431A166.43262,166.43262,0,0,1,674.121,713.6732l-5.78406-4.75953h-4.7725a166.10088,166.10088,0,0,1-70.72507-231.26523,166.04821,166.04821,0,0,0,288.32125,0A165.213,165.213,0,0,1,903,560Z" style="fill:#f4b4d1"/><path d="M663.6922,605.672l1.85323,7.40127-8.595,3.10665-9.57288-2.56521,8.60736-7.49984Z" style="fill:#ff3445"/><path d="M669.497,603.74683l-5.11876-4.943-40.633-43.47644-7.69565-7.97837c-22.85094-23.72633-19.00376-63.31862,9.43152-81.054.52523-.332,1.06473-.65038,1.60229-.961a54.2866,54.2866,0,0,1,69.72453,13.32085Z" style="fill:#ff3445"/><path d="M669.06515,605.35821l3.87117,8.55355-7.38829,4.57213L656.95039,616.18l5.36842-8.36743,1.37339-2.14049Z" style="fill:#dd1265"/><path d="M701.25942,485.20857,714.6542,549.97,669.497,603.74683l-1.94726-4.09357-14.93287-36.59-2.85377-6.68085c-8.49583-19.8798-13.7793-50.62351,4.87754-72.339,12.07974-14.06007,34.37886-15.25514,42.17048-5.3976a55.46093,55.46093,0,0,1,4.44828,6.56284Z" style="fill:#dd1265"/><path d="M683.71919,623.35235,665.548,618.48389l3.51712-13.12568,10.94952,7.1957Z" style="fill:#ba0d5c"/><path d="M662.41672,653.77054c0,4.42882,2.503,6.54273,5.6803,9.22727,3.41727,2.88555,7.28845,6.15367,7.28845,12.68993,0,6.52977-3.87118,9.80437-7.28845,12.68992-3.17733,2.678-5.6803,4.79844-5.6803,9.22079,0,4.42881,2.503,6.54273,5.6803,9.22727,2.20469,1.861,4.60392,3.88413,6.03048,6.8475q-5.37879-2.19822-10.56305-4.75953c-2.918-2.60024-5.6868-5.79054-5.6868-11.31524,0-6.52977,3.87118-9.80438,7.28844-12.68993,3.17086-2.678,5.68031-4.79843,5.68031-9.22078,0-4.42882-2.50945-6.54274-5.68031-9.22728-3.41726-2.88555-7.28844-6.15366-7.28844-12.68992,0-6.52977,3.87118-9.80437,7.28844-12.68993,3.17086-2.678,5.68031-4.79843,5.68031-9.22078V604.5217h4.53907v27.33813c0,6.52977-3.87118,9.80437-7.28845,12.68993C664.91969,647.22781,662.41672,649.34819,662.41672,653.77054Z" style="fill:#fff"/><path d="M662.41672,653.77054c0,4.42882,2.503,6.54273,5.6803,9.22727,3.41727,2.88555,7.28845,6.15367,7.28845,12.68993,0,6.52977-3.87118,9.80437-7.28845,12.68992-3.17733,2.678-5.6803,4.79844-5.6803,9.22079,0,4.42881,2.503,6.54273,5.6803,9.22727,2.20469,1.861,4.60392,3.88413,6.024,6.8475q-1.887-.77813-3.75444-1.59515l-.00648-.00649c-3.80633-4.48071-10.2129-6.76969-10.2129-14.47313,0-10.95859,12.96875-10.95859,12.96875-21.91071,0-10.95859-12.96875-10.95859-12.96875-21.91718,0-10.9521,12.96875-10.9521,12.96875-21.91071V604.52172h2.26954v27.33813c0,6.52977-3.87118,9.80437-7.28845,12.68993-3.17733,2.678-5.6803,4.79843-5.6803,9.22078Z" style="fill:#e0f8fc"/><path d="M802.343,681.19946c0,4.42881,2.503,6.54273,5.68032,9.22727,3.41726,2.88555,7.28843,6.15366,7.28843,12.68992a13.96918,13.96918,0,0,1-.42148,3.50156v.00649q-3.75444,2.00367-7.62563,3.80633c2.075-1.94531,3.50805-3.96844,3.50805-7.31438,0-4.42881-2.50945-6.54273-5.68032-9.22727-3.41726-2.88555-7.28843-6.15366-7.28843-12.68992,0-6.52977,3.87117-9.80438,7.28843-12.68993,3.17087-2.678,5.68032-4.79843,5.68032-9.22078V631.95062h4.53906v27.33813c0,6.52977-3.87117,9.80437-7.28843,12.68992C804.846,674.65672,802.343,676.77711,802.343,681.19946Z" style="fill:#fff"/><path d="M802.343,681.19946c0,4.42881,2.503,6.54273,5.68032,9.22727,3.41726,2.88555,7.28843,6.15366,7.28843,12.68992a14.2857,14.2857,0,0,1-.415,3.50156c-.9986.5382-1.99718,1.057-3.00876,1.56274a10.9375,10.9375,0,0,0,1.15422-5.0643c0-10.95858-12.96875-10.95858-12.96875-21.91717,0-10.95212,12.96875-10.95212,12.96875-21.91071V631.95064h2.26953v27.33813c0,6.52977-3.87117,9.80437-7.28843,12.68992-3.17734,2.678-5.68032,4.79844-5.68032,9.22079Z" style="fill:#e0f8fc"/><path d="M743.83323,581.67922,733.477,584.64777l-57.07547,17.37748-6.90456,1.7216,31.76241-118.53826a54.295,54.295,0,0,1,74.17542,19.87526c.31061.53755.61862,1.08354.90716,1.63341C792.125,536.33789,775.58722,572.62055,743.83323,581.67922Z" style="fill:#ba0d5c"/><path d="M667.54975,599.65326l-.04345,5.27567-5.1875,2.8836-6.33394-1.69762,8.39338-7.31113Z" style="fill:#fff"/><path d="M670.38991,600.41451l3.14492,6.12968-5.53506,2.79023-5.681-1.52187,5.231-8.15929Z" style="fill:#e0f8fc"/><path d="M680.01467,612.55391l-12.01491-3.21949,2.39015-8.91991,6.01166,1.61072Z" style="fill:#c5ecfb"/><path d="M813.19853,630.5059l4.36983,4.51571-4.851,5.75554-7.88435,2.11195,3.05089-8.89331Z" style="fill:#ff3445"/><path d="M816.54643,626.74173l-5.68679-1.41814-46.88658-14.278-8.77466-2.52177c-26.06978-7.5128-39.6299-37.337-26.65143-61.69754.238-.45326.49151-.90263.747-1.34551a44.71141,44.71141,0,0,1,55.21834-19.21126Z" style="fill:#ff3445"/><path d="M816.90176,628.06908l6.284,4.50665-3.38744,6.30346-7.08094,1.898.38323-8.1794.09791-2.09187Z" style="fill:#dd1265"/><path d="M790.3865,529.11168l36.22367,40.67648-10.06374,56.95357-3.07489-2.11779-25.71963-19.94919-4.78676-3.58976c-34.24657-30.88767-30.08943-49.82788-23.94485-61.35126,4.563-8.55744,15.8731-17.29319,25.49008-13.47065a45.62964,45.62964,0,0,1,5.87614,2.84859Z" style="fill:#dd1265"/><path d="M834.76428,634.86924l-14.96593,4.00993-2.89657-10.81009,10.77315.62314Z" style="fill:#ba0d5c"/><path d="M860.48066,580.38947l-6.164,6.38193-33.554,35.89945-4.21615,4.07153-26.15991-97.63a44.71818,44.71818,0,0,1,61.09189-16.36981c.44289.25549.88707.5181,1.31957.79174,23.45593,14.62745,26.60149,47.31779,7.68268,66.8552Z" style="fill:#ba0d5c"/><path d="M813.47154,624.62394l2.14179,3.781-2.51269,4.1928-5.21669,1.398,2.97567-8.67155Z" style="fill:#fff"/><path d="M815.8111,623.99754l4.76731,3.07684-2.79867,4.26995-4.67912,1.25344.3709-7.97383Z" style="fill:#e0f8fc"/><path d="M827.67491,628.69222l-9.89517,2.65211-1.96866-7.34679,4.95146-1.32669Z" style="fill:#c5ecfb"/><path d="M571,394" style="fill:#c5ecfb"/></g><g id="b72781a1-ecba-48ff-a0d1-918d876589da" data-name="icons"><g id="f477292f-a2d2-42d3-9ff0-0305c9c3218d" data-name="Capa 1"><polygon points="1140.899 506.98 1140.899 619.007 1381.756 512.582 1140.899 506.98" style="fill:#c1b5c6"/><polygon points="1162.305 523.785 1139.899 619.007 1380.756 512.582 1162.305 523.785" style="fill:#d0c7d4"/><polygon points="1163.305 523.785 1241.723 596.601 1381.756 512.582 1163.305 523.785" style="fill:#efecf1"/><polygon points="1140.899 506.98 1090.488 456.569 1381.756 512.582 1140.899 506.98" style="fill:#efecf1"/><path d="M1352.7069,609.10942c-36.52789-40.58646-68.99651,0-52.76219,32.46863,16.235,32.46862,52.76221,44.64435,52.76221,44.64435s36.5279-12.17573,52.76222-44.64435S1389.23412,568.523,1352.7069,609.10942Z" style="fill:#ff97a4"/><path d="M1315.81536,635.97714c-8.19239-16.38618-3.97776-34.833,6.89944-43.87737-21.40053-.4368-34.23737,26.54306-22.76941,49.47828,16.235,32.46862,52.76221,44.64435,52.76221,44.64435a94.18533,94.18533,0,0,0,13.86159-6.34563C1358.70562,676.79629,1329.76752,663.88,1315.81536,635.97714Z" style="fill:#ff7d8d"/><path d="M1169.94762,368.25312c-36.5279-40.58647-68.99652,0-52.76221,32.46862s52.76221,44.64436,52.76221,44.64436,36.52789-12.17574,52.7622-44.64436S1206.47551,327.66665,1169.94762,368.25312Z" style="fill:#ff97a4"/><path d="M1134.92375,397.45384c-8.80543-17.61155-3.279-37.60349,9.447-45.74294-23.98573-4.54065-39.421,24.53747-27.18467,49.01084,16.235,32.46862,52.76221,44.64436,52.76221,44.64436a90.82826,90.82826,0,0,0,12.23773-5.47275C1171.36247,435.10749,1147.27294,422.15362,1134.92375,397.45384Z" style="fill:#ff7d8d"/><path d="M1116.09936,655.239c-19.98359-22.20374-37.74561,0-28.86425,17.76271s28.86425,24.42391,28.86425,24.42391,19.98358-6.6605,28.86424-24.42391C1153.845,655.239,1136.08224,633.03525,1116.09936,655.239Z" style="fill:#fe5578"/><path d="M1099.83788,666.93336c-3.68936-7.378-2.77817-15.52026.97737-20.931-12.37427-1.2414-20.05185,14.05525-13.58014,26.99936,8.88136,17.76271,28.86425,24.42391,28.86425,24.42391a57.09005,57.09005,0,0,0,12.14508-6.23137C1125.23359,690.08383,1107.93065,683.11891,1099.83788,666.93336Z" style="fill:#fe3f67"/><path d="M1351.35475,414.38269c-19.98358-22.20375-37.74561,0-28.86424,17.76273s28.86424,24.42391,28.86424,24.42391,19.98359-6.66119,28.86425-24.42391S1371.33764,392.17894,1351.35475,414.38269Z" style="fill:#fe5578"/><path d="M1335.56,425.37694a20.9258,20.9258,0,0,1,.5169-20.23089c-12.37776-1.24767-20.05882,14.05176-13.58573,26.99867,8.88136,17.76272,28.86425,24.42391,28.86425,24.42391a57.80177,57.80177,0,0,0,12.97825-6.79912C1362.93348,449.28326,1344.10838,442.47438,1335.56,425.37694Z" style="fill:#fe3f67"/><path d="M1321.185,548.92462a5.25,5.25,0,0,0-7.20458-1.80149L1242.405,590.0684l-66.41967-61.67561,185.02683-9.48883-26.09583,15.65681a5.25191,5.25191,0,0,0,5.40449,9.00677l44.13791-26.48247c4.0969-2.44587,2.88336-9.01371-1.91714-9.6999l-291.06259-55.973a5.25188,5.25188,0,0,0-4.70505,8.87092l48.8736,48.87361V619.00788a5.30387,5.30387,0,0,0,7.37316,4.80327l81.50245-36.01308,13.62612,12.65292a5.30076,5.30076,0,0,0,6.27457.65554l74.959-44.97526A5.25406,5.25406,0,0,0,1321.185,548.92462Zm-175.03434-36.569,94.59077,2.2-77.70651,3.98473a5.31927,5.31927,0,0,0-4.843,4.04116l-12.042,51.18015.0007-61.406Zm172.90195-6.485-175.92813-4.09132-36.82187-36.82258ZM1148.42726,609.93912l17.92085-76.16276,49.79734,46.24035Z"/><path d="M1399.58814,591.88938c-5.29579-3.60925-23.69176-13.02213-46.88194,9.633-23.18948-22.65516-41.584-13.24228-46.88124-9.633-15.3057,10.43137-19.95223,33.28856-10.57765,52.037,17.01106,34.0235,54.22234,46.75307,55.79814,47.27762a5.2672,5.2672,0,0,0,3.32084,0c1.57508-.52525,38.78638-13.25482,55.79814-47.27762C1419.54039,625.17794,1414.89314,602.32075,1399.58814,591.88938Zm1.18428,47.33964c-13.12733,26.25465-41.00166,38.61081-48.07109,41.39247-7.08057-2.7712-34.88942-15.05-48.05993-41.39247-7.79044-15.58157-2.38108-32.19971,7.09869-38.661a18.34627,18.34627,0,0,1,10.51217-3.28324c8.23279,0,17.45829,5.2352,26.55,15.337a5.30523,5.30523,0,0,0,7.80646,0c13.229-14.69754,26.73882-19.0919,37.06291-12.05383C1403.15351,607.02929,1408.56287,623.64745,1400.77242,639.229Z"/><path d="M1168.28753,450.34771a5.26723,5.26723,0,0,0,3.32085,0c1.57508-.52526,38.78637-13.25482,55.79813-47.27762,9.37457-18.74846,4.72734-41.60564-10.57767-52.037-5.29649-3.60995-23.69176-13.02214-46.88124,9.633-23.18947-22.65517-41.58474-13.24228-46.88053-9.633-15.3057,10.43137-19.95224,33.28856-10.57766,52.037C1129.50047,437.09359,1166.71176,449.82314,1168.28753,450.34771Zm-39.30536-90.636a18.34844,18.34844,0,0,1,10.51287-3.28323c8.2328,0,17.4583,5.23519,26.55,15.337a5.30412,5.30412,0,0,0,7.80645,0c13.22835-14.69754,26.73882-19.0912,37.06291-12.05382,9.48046,6.46126,14.88982,23.07941,7.09868,38.661-13.12732,26.25466-41.00166,38.61082-48.07038,41.39247-7.08057-2.7712-34.88942-15.05-48.05994-41.39248C1114.09236,382.79113,1119.50171,366.173,1128.98217,359.71172Z"/><path d="M1143.08618,643.85326c-6.35119-4.32886-16.451-5.18713-26.98613,4.00912-10.53586-9.19623-20.63493-8.3359-26.98612-4.00912-9.33627,6.363-12.2238,20.19814-6.57482,31.49683,9.7424,19.48339,31.00082,26.75693,31.90087,27.05718a5.26734,5.26734,0,0,0,3.32084,0c.90075-.30025,22.15847-7.57309,31.90087-27.05718C1155.31,664.0514,1152.42175,650.2163,1143.08618,643.85326Zm-2.81927,26.80011c-6.36443,12.72886-19.54609,19.19639-24.17731,21.14349-4.63887-1.93315-17.75575-8.33869-24.1578-21.14349-3.688-7.37524-1.26439-15.14966,3.09514-18.12078a7.69106,7.69106,0,0,1,4.41525-1.36123c3.8266,0,8.26693,2.59566,12.75324,7.58144a5.30521,5.30521,0,0,0,7.80646,0c6.35328-7.059,12.61252-9.32721,17.16849-6.22021C1141.532,655.50373,1143.95488,663.27745,1140.26691,670.65337Z"/><path d="M1349.694,461.55024a5.26723,5.26723,0,0,0,3.32085,0c.90074-.30024,22.15915-7.57308,31.90086-27.05718,5.64968-11.29937,2.76144-25.13378-6.5748-31.49681-6.3512-4.32887-16.45028-5.18782-26.98614,4.00911-10.53585-9.19624-20.63493-8.33589-26.98613-4.00911-9.33626,6.363-12.2238,20.19814-6.5748,31.49681C1327.5355,453.97786,1348.79324,461.2507,1349.694,461.55024Zm-19.41166-49.87466a7.69115,7.69115,0,0,1,4.41526-1.36122c3.82661,0,8.26694,2.59565,12.75325,7.58145a5.30412,5.30412,0,0,0,7.80645,0c6.35328-7.05967,12.61183-9.32721,17.16849-6.22023,4.36092,2.97183,6.7838,10.74555,3.09583,18.12079-6.36442,12.72886-19.54611,19.19639-24.1773,21.14348-4.63887-1.93315-17.75576-8.33868-24.15781-21.14347C1323.49853,422.42113,1325.92212,414.64741,1330.28232,411.67558Z"/></g></g><g id="b75c6c6b-03ec-498c-85a5-1e7ba81e6115" data-name="icons"><g id="f0caaf45-c8ef-4bc7-88e5-8c0fda6b9daf" data-name="Layer 1"><polygon points="222.948 377.09 234.208 397.771 213.914 428.592 213.914 377.09 222.948 377.09" style="fill:#ff6761"/><polygon points="213.914 377.09 224.326 408.23 199.173 434.857 163.865 397.771 175.119 377.09 213.914 377.09" style="fill:#ff9387"/><path d="M234.20831,397.77109a57.12178,57.12178,0,0,0-7.43855,1.276l-10.83291,76.52635c13.95438-5.89152,24.40661-19.07208,24.40661-36.69185v-41.4295A58.97,58.97,0,0,0,234.20831,397.77109Z" style="fill:#be2a45"/><path d="M226.76913,399.04709v39.8345c0,17.61977-4.63547,30.80033-10.83228,36.69185L199.0367,414.63073l.13581-.13582A58.02251,58.02251,0,0,1,226.76913,399.04709Z" style="fill:#e43349"/><path d="M163.86508,397.76984a58.1796,58.1796,0,0,1,52.07177,57.88853V475.5722a43.2882,43.2882,0,0,1-16.90015,3.42053c-21.47456,0-41.30739-15.84844-41.30739-40.11238v-41.4295A58.97017,58.97017,0,0,1,163.86508,397.76984Z" style="fill:#ff3b3b"/><polygon points="93.42 396.819 112.877 410.082 108.886 446.767 85.382 400.941 93.42 396.819" style="fill:#ff6761"/><polygon points="85.382 400.941 108.858 423.899 98.627 459.07 50.286 442.183 50.862 418.647 85.382 400.941" style="fill:#ff9387"/><path d="M112.87741,410.08187a57.02358,57.02358,0,0,0-6.0367,4.53018l25.28448,73.036c9.72826-11.61047,13.013-28.10876,4.97254-43.78648-11.0759-21.59606-18.90635-36.86382-18.90635-36.86382A59.17812,59.17812,0,0,0,112.87741,410.08187Z" style="fill:#be2a45"/><path d="M106.84009,414.612c2.18316,4.25791,9.08839,17.71946,18.17864,35.44452,8.041,15.67772,9.93137,29.52182,7.10647,37.59153L89.27578,441.13453l.05919-.18255A58.0295,58.0295,0,0,1,106.84009,414.612Z" style="fill:#e43349"/><path d="M50.2855,442.18187a58.17943,58.17943,0,0,1,72.7507,27.74552l9.08839,17.71946a43.27978,43.27978,0,0,1-13.47651,10.75628c-19.10822,9.7999-43.9871,4.74886-55.06052-16.841C52.51166,459.96612,44.6812,444.699,44.6812,444.699A59.125,59.125,0,0,1,50.2855,442.18187Z" style="fill:#ff3b3b"/><polygon points="347.205 418.643 347.787 442.184 315.664 460.347 339.167 414.52 347.205 418.643" style="fill:#ff6761"/><polygon points="339.167 414.52 334.22 446.981 299.687 459.194 285.196 410.082 304.647 396.816 339.167 414.52" style="fill:#ff9387"/><path d="M347.78665,442.18436a57.14835,57.14835,0,0,0-7.20119-2.25916l-44.56218,63.14891c15.10514,1.12585,30.42088-5.83233,38.46192-21.51007,11.07591-21.596,18.90636-36.86381,18.90636-36.86381A58.87564,58.87564,0,0,0,347.78665,442.18436Z" style="fill:#be2a45"/><path d="M340.58546,439.92457c-2.18315,4.2579-9.08838,17.71945-18.17864,35.44451-8.041,15.67773-18.18113,25.29072-26.38354,27.705l12.77432-61.939.18255-.05919A58.01929,58.01929,0,0,1,340.58546,439.92457Z" style="fill:#e43349"/><path d="M285.1966,410.08062a58.17947,58.17947,0,0,1,19.91508,75.27155l-9.08838,17.71945a43.2721,43.2721,0,0,1-16.59859-4.66911c-19.10823-9.79991-29.52246-32.95295-18.449-54.54277,11.07591-21.596,18.90636-36.86382,18.90636-36.86382A59.34009,59.34009,0,0,1,285.1966,410.08062Z" style="fill:#ff3b3b"/><path d="M271.42228,542.01329a134.94,134.94,0,0,1,14.15812,10.4186c-.00685.00684-69.57564,89.36049-69.57564,89.36049l-18.99046,3.76693Z" style="fill:#d1c4de"/><path d="M241.71478,527.801a133.72741,133.72741,0,0,1,29.7075,14.21232c-18.84156,31.64891-44.33414,74.46283-60.83368,102.18841l-25.12623,11.165Z" style="fill:#efecf1"/><path d="M199.0367,520.88639a133.92356,133.92356,0,0,0-86.54433,31.54736c.00686.00685,69.57565,89.36049,69.57565,89.36049l13.32074,9.742,46.32539-123.73336A134.25744,134.25744,0,0,0,199.0367,520.88639Z" style="fill:#d0c7d4"/><polygon points="216.005 641.792 218.978 661.136 199.037 674.71 179.096 661.136 182.069 641.792 216.005 641.792" style="fill:#b7a4b5"/><polygon points="218.978 661.136 222.792 685.91 175.281 685.91 179.096 661.136 218.978 661.136" style="fill:#d0c7d4"/><path d="M358.19776,443.11582a5.08833,5.08833,0,0,0-2.514-2.94452c-.962-.49346-1.93518-.95451-2.91336-1.39625l-.50779-20.25837a5.09181,5.09181,0,0,0-2.7657-4.40245l-42.55658-21.82658a5.08815,5.08815,0,0,0-5.18937.32336l-16.74438,11.41048c-.92959-.53768-1.8704-1.05855-2.83176-1.55138a5.09058,5.09058,0,0,0-6.85289,2.20683l-18.90387,36.85759c-11.95315,23.30569-1.46728,47.15281,16.2528,58.82559L258.0355,528.895a139.89985,139.89985,0,0,0-14.14566-5.68094c-.13582-.06542-.27415-.1271-.41806-.1813a5.0834,5.0834,0,0,0-.82306-.22617,139.62314,139.62314,0,0,0-38.551-6.91333V483.79081c21.09387-2.29967,41.30739-18.72381,41.30739-44.9167l-.00063-40.63886c-.00062-5.7096-4.56943-5.87408-5.0903-5.87408-1.081,0-2.157.03364-3.22926.08785l-9.69708-17.79484A5.09016,5.09016,0,0,0,222.91808,372H175.0905a5.0921,5.0921,0,0,0-4.471,2.656L160.928,392.45027c-1.07226-.05421-2.14826-.08848-3.228-.08848a5.09,5.09,0,0,0-5.0903,5.0903v41.42265c0,26.19289,20.21289,42.617,41.30614,44.91669v32.10249a139.78388,139.78388,0,0,0-53.939,12.99988l-14.63474-28.53368c17.72007-11.67278,28.20595-35.5199,16.25342-58.82559L122.78075,404.852a5.1009,5.1009,0,0,0-6.94261-2.38191c-.962.49345-1.904,1.01495-2.83362,1.55139l-16.74812-11.408a5.09148,5.09148,0,0,0-5.18874-.32211L48.51231,414.11735a5.091,5.091,0,0,0-2.7657,4.40369l-.50218,20.25588c-.97881.44112-1.95138.90155-2.91212,1.39438a5.09113,5.09113,0,0,0-2.20683,6.85227l18.90386,36.85758a44.02473,44.02473,0,0,0,27.70191,22.78233A46.24231,46.24231,0,0,0,98.961,508.304a47.79857,47.79857,0,0,0,17.3313-3.286L130.919,533.5361a138.854,138.854,0,0,0-21.73063,14.998,5.08894,5.08894,0,0,0-.724,7.03919c.843,1.0816,47.42758,60.9184,63.87851,82.04781a5.088,5.088,0,0,0,2.9115,9.26223h.85357l-5.8853,38.25258A5.09071,5.09071,0,0,0,175.25438,691h47.51045a5.09072,5.09072,0,0,0,5.03171-5.86413L221.91,646.88392h.85357a5.088,5.088,0,0,0,2.9115-9.26224l63.88661-82.05775a5.09014,5.09014,0,0,0-.73769-7.02049,138.76057,138.76057,0,0,0-21.72813-15.00236l14.62789-28.52059a47.79443,47.79443,0,0,0,17.33192,3.286,46.29223,46.29223,0,0,0,12.22916-1.64048,44.021,44.021,0,0,0,27.70254-22.78233l17.507-34.13487C358.5448,445.74881,358.86005,445.13449,358.19776,443.11582ZM55.84869,421.7964l37.176-19.06648,11.041,7.51955a62.67753,62.67753,0,0,0-17.99359,24.69882,62.99992,62.99992,0,0,0-30.55484.21121Zm33.57164,75.04786A33.46316,33.46316,0,0,1,68.0872,479.23572l-16.46838-32.11a53.35566,53.35566,0,0,1,64.81183,21.48639,5.09049,5.09049,0,0,0,8.67344-5.33141,62.99485,62.99485,0,0,0-29.333-25.14742,52.60414,52.60414,0,0,1,19.83906-23.7711c.16573-.10842.30654-.20748.45357-.30156,3.1358,6.11334,9.08091,17.70512,16.47337,32.11931,10.00488,19.5076-.40124,39.56909-16.24159,47.693A37.75341,37.75341,0,0,1,89.42033,496.84426Zm88.69384-114.66367h41.78089l6.39184,11.72948a62.67821,62.67821,0,0,0-27.28073,13.7656A62.995,62.995,0,0,0,171.72233,393.92Zm-15.3226,56.69415V402.78848a53.35672,53.35672,0,0,1,47.86432,48.6961,5.09019,5.09019,0,1,0,10.15007-.785,62.99165,62.99165,0,0,0-14.62354-35.76164,52.62578,52.62578,0,0,1,29.04209-12.155v36.09248c0,21.92439-18.41415,35.02582-36.21647,35.02582S162.79157,460.79851,162.79157,438.87474Zm54.03872,241.94468H181.18641l5.22051-33.93611h25.20162Zm-3.342-44.11732H206.3494l15.19549-40.58652a5.09047,5.09047,0,1,0-9.53447-3.57007L195.4785,636.7021H184.52782c-43.68679-56.11286-59.3502-76.23166-64.97942-83.46087a128.96718,128.96718,0,0,1,20.16616-12.88148c.11589-.0486.233-.09346.34641-.152.10779-.05544.21-.119.31152-.18069a129.24453,129.24453,0,0,1,94.64456-8.92951l-15.86652,42.379a5.09059,5.09059,0,1,0,9.5345,3.57067l15.998-42.73043a129.73344,129.73344,0,0,1,12.99365,5.73016c.09222.05483.18193.11151.27912.16074.10405.05358.21121.09345.31651.13894a128.80014,128.80014,0,0,1,20.19109,12.9008ZM304.9852,402.72743l37.176,19.06648.334,13.35376a62.68292,62.68292,0,0,0-30.55671-.20062,63.01186,63.01186,0,0,0-17.99982-24.69135Zm24.94306,76.50829a33.46062,33.46062,0,0,1-21.33375,17.60854,37.76154,37.76154,0,0,1-26.87637-2.97069c-15.841-8.12452-26.24647-28.18477-16.24095-47.693l16.46838-32.11a53.356,53.356,0,0,1,20.36615,65.17319,5.09052,5.09052,0,0,0,9.39056,3.93329,62.99738,62.99738,0,0,0,3.30837-38.49432,52.61419,52.61419,0,0,1,31.38848,2.43736C343.264,453.2341,337.31884,464.82464,329.92826,479.23572Z"/></g></g></g><g id="f288d88a-9977-483a-ab6d-3c6255883dac" data-name="Texte"><path d="M93.30371,130.45947l109.52149-6.188.71875,24.27637a142.16521,142.16521,0,0,1-29.957,8.56738q-4.3125.71486-52.24414,5.9502l3.59473,41.65039,40.50195-.47656.47852,37.84179L119.666,240.8916l2.39648,55.4541,60.15234-2.85644,2.15723,25.22851L92.3457,319.90723Z"/><path d="M230.14258,133.07715q41.21631,0,69.499,21.41992,30.91553,23.32909,30.915,63.07031,0,31.41651-5.51172,52.12207-6.71191,25.46925-23.00683,39.03223-18.21534,15.23291-49.60743,15.23145-6.71191,0-12.34277-.47559a67.0539,67.0539,0,0,1-11.14355-1.9043Zm27.7998,165.41015q24.68115-6.42626,35.46875-24.03808,9.58155-15.46728,9.58594-42.36328,0-21.895-6.95019-39.50879-9.3457-23.79639-27.32032-23.79981a69.92245,69.92245,0,0,0-18.93261,2.61817Z"/><path d="M388.07227,218.044q0,23.562,2.39648,49.97949,1.67284,19.04444,5.99121,49.98047l-34.27051.71386q0-12.37206.959-30.22656,2.15625-40.45752,2.15625-50.45605,0-19.03711-.83887-34.39063-.84228-15.35156-2.99512-38.91308-1.20263-11.89747-3.835-36.41407l34.98926-2.61767q-2.39795,27.1311-3.47461,47.48095Q388.07227,193.52881,388.07227,218.044Z"/><path d="M468.35254,167.58789l-33.55176-.47656-4.55371-37.12793,169.43457-3.09375-3.11621,19.04-99.45508,11.18554,9.58594,158.50782H463.08008Z"/><path d="M652.40332,218.044q0,23.562,2.39648,49.97949,1.67286,19.04444,5.99122,49.98047l-34.27051.71386q0-12.37206.959-30.22656,2.15625-40.45752,2.15625-50.45605,0-19.03711-.83886-34.39063-.84229-15.35156-2.99512-38.91308-1.20264-11.89747-3.835-36.41407l34.98925-2.61767q-2.39794,27.1311-3.4746,47.48095Q652.40333,193.52881,652.40332,218.044Z"/><path d="M832.13867,224.707q0,28.32716-16.2959,58.54883-18.93456,35.2251-44.81543,35.22363-29.71875,0-54.16113-32.60644-22.5293-30.22119-22.52734-60.92774,0-35.93408,17.25488-62.832,19.88965-30.936,53.92188-30.93945,28.99365,0,49.1289,33.55762Q832.13477,193.772,832.13867,224.707Zm-92.50586,3.09473q0,15.47314,8.62793,43.792Q758.32568,304.437,768.3916,304.4375q7.4253,0,14.8584-31.8916,6.22851-26.89307,6.23047-39.7461,0-15.46875-7.9082-47.60058-9.34717-37.60107-18.21387-37.60352-8.86816,0-17.01465,35.46192Q739.63037,212.33105,739.63281,227.80176Z"/><path d="M891.332,330.61719l-.24023,7.14062-28.51856,2.85547q0-16.42236,2.39649-69.49609,1.19677-26.417,1.19824-42.126,0-12.37208-2.39649-53.5498-1.20117-20.46534-1.19824-32.60547l23.48633-1.9043A179.09615,179.09615,0,0,1,913.13965,165.207a323.94,323.94,0,0,1,23.24609,28.085q10.78419,14.75831,21.56934,29.51172,2.15625-14.51514,3.35449-29.15527,1.19678-14.63672,1.19824-29.39258a169.07843,169.07843,0,0,0-.83886-17.96973q-.84229-7.73144-2.99512-20.58642a67.91762,67.91762,0,0,1,23.72558,4.75976q0,13.80543-.71875,32.36768-1.68016,43.31982-1.67773,54.26465,0,17.84911,1.67773,36.17578,1.67286,18.32958,8.627,67.5918l-35.22852-2.14161q-16.30079-30.936-32.35351-61.87988-19.894-36.17432-37.86426-58.07226,0,18.32958,1.55762,42.48242,1.55565,24.15966,3.23535,48.07617Q891.32715,313.24366,891.332,330.61719Z"/><path d="M1110.37207,194.957l5.752-25.46582,34.749,1.42871a80.54365,80.54365,0,0,0,3.35547-11.18652,51.10028,51.10028,0,0,0,1.19824-10.94824l-.71875-14.75586,26.12207-2.1416a203.82811,203.82811,0,0,0-13.18067,39.03222l22.52735-.71484a108.5271,108.5271,0,0,0,5.87109-17.84961,144.09127,144.09127,0,0,0,2.99512-19.75391L1229,134.0293a94.70774,94.70774,0,0,0-11.26367,17.85058,78.27632,78.27632,0,0,0-6.23145,19.04h29.47754l-18.45312,21.89551H1200.002l-4.55371,24.752,27.08106-1.90429-.71875,22.13476-32.11328,1.18945q-1.43848,6.66651-1.79786,9.52051a69.25711,69.25711,0,0,0-.35937,8.0918,110.48748,110.48748,0,0,0,1.07812,15.94629,159.72367,159.72367,0,0,0,3.47559,16.65918l-30.915-6.1875,8.14746-45.21973-21.32812,1.18945v36.65235l-30.67578,4.0459a96.76466,96.76466,0,0,0,8.627-19.99219,118.77861,118.77861,0,0,0,4.07422-21.41992h-30.19629l5.0332-20.70606h30.19629l4.793-24.03808Zm43.1377,24.03809,23.48535-1.42774,5.0332-27.8457H1157.584Z"/><path d="M1342.11523,233.752q11.02,0,16.05665,19.04a110.33113,110.33113,0,0,1,3.35546,28.32129q0,16.90137-13.06152,27.13184a47.74683,47.74683,0,0,1-30.31543,10.23437q-21.56982,0-34.03125-13.68457-12.46289-13.68311-12.46191-35.34375,0-18.79833,6.4707-28.79785,5.269-8.0874,13.90039-8.0918a22.05327,22.05327,0,0,1,5.27148.71387q-17.01855-8.0874-24.44433-23.32422-6.23437-12.85107-6.23047-33.31933a51.25742,51.25742,0,0,1,13.30078-35.34375q13.30078-14.87111,33.91016-14.87452,22.04589,0,36.1875,17.13623,13.41944,16.188,13.4209,38.79395a72.39879,72.39879,0,0,1-5.99121,29.9873q-7.18946,15.709-20.61036,22.61036,1.916-.47461,3.11524-.833A7.61385,7.61385,0,0,1,1342.11523,233.752Zm-28.998-90.916q-7.90869,0-11.86231,8.21094a38.77652,38.77652,0,0,0-3.95508,17.0166q0,11.90331,5.27247,28.32226,6.47168,20.231,15.09863,20.22949,10.06494,0,15.33789-15.708a76.61713,76.61713,0,0,0,3.834-24.51368,41.82586,41.82586,0,0,0-5.99121-21.41992Q1323.66211,142.83595,1313.11719,142.83594Zm5.27246,105.19531q-9.82911,0-15.09766,9.75781a37.98709,37.98709,0,0,0-4.31445,18.56446,38.61213,38.61213,0,0,0,5.99121,21.41992q6.94922,10.9497,18.45313,10.94824,5.75244,0,7.42968-15.46973a149.74685,149.74685,0,0,0,.71875-14.99414v-8.33008a33.404,33.404,0,0,0-2.876-13.80468Q1325.0996,248.03565,1318.38965,248.03125Z"/></g></g></svg>