<svg xmlns="http://www.w3.org/2000/svg" xmlns:xlink="http://www.w3.org/1999/xlink" viewBox="0 0 5625 1000.17781"><defs><radialGradient id="a0f3e14c-054f-46e8-8a24-7e982c69868e" cx="875.84442" cy="500" r="712.73635" gradientTransform="translate(-2.21371 0.0889) scale(3.21371 1)" gradientUnits="userSpaceOnUse"><stop offset="0.00403" stop-color="#fff" stop-opacity="0"/><stop offset="1" stop-color="#231f20" stop-opacity="0.2"/></radialGradient></defs><title>logo_pop_news_8</title><g style="isolation:isolate"><g id="b0836678-ed4e-413b-93cd-2ef899119eb2" data-name="Fond"><rect width="5625" height="1000.17781" style="fill:#3bff72"/><g style="opacity:0.30000000000000004"><polygon points="2569.555 0 2179.405 0 2812.5 500.089 2569.555 0" style="fill:#05b336"/><polygon points="3442.456 0 3052.667 0 2812.5 500.089 3442.456 0" style="fill:#05b336"/><polygon points="1529.717 0 791.989 0 2812.5 500.089 1529.717 0" style="fill:#05b336"/><polygon points="4826.012 0 4090.838 0 2812.5 500.089 4826.012 0" style="fill:#05b336"/><polygon points="5625 367.793 5625 155.341 2812.5 500.089 5625 367.793" style="fill:#05b336"/><polygon points="3055.449 1000.178 3445.601 1000.178 2812.5 500.089 3055.449 1000.178" style="fill:#05b336"/><polygon points="4095.289 1000.178 4833.018 1000.178 2812.5 500.089 4095.289 1000.178" style="fill:#05b336"/><polygon points="2812.5 500.089 5625 843.125 5625 630.868 2812.5 500.089" style="fill:#05b336"/><polygon points="0 157.048 0 369.309 2812.5 500.089 0 157.048" style="fill:#05b336"/><polygon points="0 632.381 0 844.836 2812.5 500.089 0 632.381" style="fill:#05b336"/><polygon points="798.976 1000.178 1534.156 1000.178 2812.5 500.089 798.976 1000.178" style="fill:#05b336"/><polygon points="2182.541 1000.178 2572.333 1000.178 2812.5 500.089 2182.541 1000.178" style="fill:#05b336"/></g><g style="mix-blend-mode:multiply"><polygon points="419.508 0 332.314 0 1711.78 290.22 419.508 0" style="fill:#05b336"/><polygon points="99.888 0 43.029 0 660.605 125.174 99.888 0" style="fill:#05b336"/><polygon points="1255.223 0 1168.029 0 2300.054 341.234 1255.223 0" style="fill:#05b336"/><polygon points="935.602 0 878.743 0 1419.616 155.342 935.602 0" style="fill:#05b336"/><polygon points="2026.651 0 1939.457 0 2595.363 328.571 2026.651 0" style="fill:#05b336"/><polygon points="1707.031 0 1650.171 0 2068.603 170.617 1707.031 0" style="fill:#05b336"/><polygon points="2478.459 0 2421.6 0 2595.363 185.194 2478.459 0" style="fill:#05b336"/><polygon points="5176.023 0 5263.217 0 3883.755 290.22 5176.023 0" style="fill:#05b336"/><polygon points="5495.644 0 5552.503 0 4934.927 125.174 5495.644 0" style="fill:#05b336"/><polygon points="4340.309 0 4427.503 0 3295.478 341.234 4340.309 0" style="fill:#05b336"/><polygon points="4659.93 0 4716.788 0 4175.916 155.342 4659.93 0" style="fill:#05b336"/><polygon points="3568.881 0 3656.074 0 3000.171 328.571 3568.881 0" style="fill:#05b336"/><polygon points="3888.501 0 3945.36 0 3526.932 170.617 3888.501 0" style="fill:#05b336"/><polygon points="3117.072 0 3173.931 0 3000.171 185.194 3117.072 0" style="fill:#05b336"/><polygon points="0 504.319 0 534.578 1022.049 514.833 0 504.319" style="fill:#05b336"/><polygon points="0 409.37 0 425.91 543.98 438.605 0 409.37" style="fill:#05b336"/><polygon points="0 316.774 0 328.772 559.339 359.242 0 316.774" style="fill:#05b336"/><polygon points="0 196.753 0 208.751 878.743 327.715 0 196.753" style="fill:#05b336"/><polygon points="0 86.733 0 98.731 530.991 170.617 0 86.733" style="fill:#05b336"/><polygon points="0 316.774 0 328.772 559.339 359.242 0 316.774" style="fill:#05b336"/><polygon points="0 196.753 0 208.751 878.743 327.715 0 196.753" style="fill:#05b336"/><polygon points="0 86.733 0 98.731 530.991 170.617 0 86.733" style="fill:#05b336"/><polygon points="0 616.368 0 598.285 620.263 582.999 0 616.368" style="fill:#05b336"/><polygon points="0 706.56 0 694.562 559.339 664.093 0 706.56" style="fill:#05b336"/><polygon points="0 826.582 0 814.583 878.743 695.619 0 826.582" style="fill:#05b336"/><polygon points="0 936.601 0 924.603 530.991 852.717 0 936.601" style="fill:#05b336"/><polygon points="2507.927 1000.178 2451.069 1000.178 2624.832 814.984 2507.927 1000.178" style="fill:#05b336"/><polygon points="5625 500.089 5625 469.83 4602.951 489.575 5625 500.089" style="fill:#05b336"/><polygon points="5625 591.465 5625 574.078 5053.171 560.733 5625 591.465" style="fill:#05b336"/><polygon points="5625 683.404 5625 671.405 5065.664 640.936 5625 683.404" style="fill:#05b336"/><polygon points="5625 803.425 5625 791.427 4746.257 672.462 5625 803.425" style="fill:#05b336"/><polygon points="5625 913.445 5625 901.446 5094.009 829.561 5625 913.445" style="fill:#05b336"/><polygon points="5625 683.404 5625 671.405 5065.664 640.936 5625 683.404" style="fill:#05b336"/><polygon points="5625 803.425 5625 791.427 4746.257 672.462 5625 803.425" style="fill:#05b336"/><polygon points="5625 913.445 5625 901.446 5094.009 829.561 5625 913.445" style="fill:#05b336"/><polygon points="5625 386.247 5625 402.748 5058.991 416.697 5625 386.247" style="fill:#05b336"/><polygon points="5625 293.618 5625 305.616 5065.664 336.085 5625 293.618" style="fill:#05b336"/><polygon points="5625 173.596 5625 185.594 4746.257 304.559 5625 173.596" style="fill:#05b336"/><polygon points="5625 63.577 5625 75.575 5094.009 147.461 5625 63.577" style="fill:#05b336"/><polygon points="3917.969 1000.178 3974.828 1000.178 3556.4 829.561 3917.969 1000.178" style="fill:#05b336"/><polygon points="3146.541 1000.178 3203.4 1000.178 3029.64 814.984 3146.541 1000.178" style="fill:#05b336"/><polygon points="448.977 1000.178 361.783 1000.178 1741.248 709.958 448.977 1000.178" style="fill:#05b336"/><polygon points="129.356 1000.178 72.497 1000.178 690.073 875.004 129.356 1000.178" style="fill:#05b336"/><polygon points="1284.691 1000.178 1197.497 1000.178 2329.522 658.944 1284.691 1000.178" style="fill:#05b336"/><polygon points="965.07 1000.178 908.212 1000.178 1449.084 844.836 965.07 1000.178" style="fill:#05b336"/><polygon points="2056.119 1000.178 1968.926 1000.178 2624.832 671.607 2056.119 1000.178" style="fill:#05b336"/><polygon points="1736.499 1000.178 1679.64 1000.178 2098.072 829.561 1736.499 1000.178" style="fill:#05b336"/><polygon points="5205.492 1000.178 5292.686 1000.178 3913.223 709.958 5205.492 1000.178" style="fill:#05b336"/><polygon points="5525.112 1000.178 5581.971 1000.178 4964.395 875.004 5525.112 1000.178" style="fill:#05b336"/><polygon points="4369.777 1000.178 4456.971 1000.178 3324.946 658.944 4369.777 1000.178" style="fill:#05b336"/><polygon points="4689.398 1000.178 4746.257 1000.178 4205.384 844.836 4689.398 1000.178" style="fill:#05b336"/><polygon points="3598.349 1000.178 3685.543 1000.178 3029.64 671.607 3598.349 1000.178" style="fill:#05b336"/></g><rect width="5625" height="1000.17781" style="mix-blend-mode:soft-light;fill:url(#a0f3e14c-054f-46e8-8a24-7e982c69868e)"/></g><g id="b28f2916-47eb-4bf7-bbea-e8244badcc5b" data-name="Texte"><path d="M1067.93994,233.64648l278.66944-15.85986,1.82958,62.21973q-32.92821,14.03979-76.22265,21.96-10.97607,1.83031-132.93213,15.25l9.14648,106.75,103.05323-1.21973,1.21924,96.98975-117.6875-3.04981,6.09765,142.12989,153.05518-7.32032,5.48779,64.66016-234.15576,3.0498Z" transform="translate(0 0.0889)" style="stroke:#000;stroke-miterlimit:10;stroke-width:10px"/><path d="M1416.11914,240.35645q104.87256,0,176.83643,54.8999,78.66136,59.78979,78.66162,161.6499,0,80.51954-14.0249,133.58984-17.07863,65.27931-58.53907,100.04-46.34838,39.04542-126.22461,39.04-17.07861,0-31.40381-1.21972a169.36224,169.36224,0,0,1-28.35449-4.87989Zm70.73438,423.95019q62.79785-16.4707,90.24755-61.61035,24.3816-39.64453,24.39112-108.58008,0-56.11524-17.6836-101.25976-23.781-60.99024-69.51513-61a176.69418,176.69418,0,0,0-48.17237,6.71Z" transform="translate(0 0.0889)" style="stroke:#000;stroke-miterlimit:10;stroke-width:10px"/><path d="M1817.96045,458.12646q0,60.38966,6.09814,128.1001,4.259,48.80861,15.24414,128.09961l-87.19824,1.83008q0-31.71093,2.439-77.46973,5.488-103.69482,5.48828-129.32031,0-48.79467-2.13428-88.145-2.1438-39.345-7.62256-99.73486-3.05859-30.49512-9.75635-93.33008l89.02784-6.71q-6.10254,69.54053-8.8418,121.69531Q1817.96094,395.29663,1817.96045,458.12646Z" transform="translate(0 0.0889)" style="stroke:#000;stroke-miterlimit:10;stroke-width:10px"/><path d="M2022.228,328.80664l-85.36914-1.22021L1925.273,232.42627l431.11475-7.92969-7.92725,48.79981-253.05859,28.66992L2119.793,708.22656h-110.98Z" transform="translate(0 0.0889)" style="stroke:#000;stroke-miterlimit:10;stroke-width:10px"/><path d="M2490.53662,458.12646q0,60.38966,6.09815,128.1001,4.259,48.80861,15.24414,128.09961l-87.19825,1.83008q0-31.71093,2.439-77.46973,5.488-103.69482,5.48828-129.32031,0-48.79467-2.13428-88.145-2.1438-39.345-7.62256-99.73486-3.05859-30.49512-9.75634-93.33008l89.02783-6.71q-6.10254,69.54053-8.8418,121.69531Q2490.53711,395.29663,2490.53662,458.12646Z" transform="translate(0 0.0889)" style="stroke:#000;stroke-miterlimit:10;stroke-width:10px"/><path d="M2947.86328,475.20654q0,72.59987-41.46484,150.06006-48.17871,90.28417-114.0293,90.28028-75.61743,0-137.81055-83.57032-57.32373-77.46093-57.31933-156.16015,0-92.10059,43.90429-161.04,50.6067-79.29052,137.20069-79.29981,73.7732,0,125.00439,86.00977Q2947.85351,395.91577,2947.86328,475.20654Zm-235.37549,7.92969q0,39.65991,21.95215,112.23975,25.61059,84.18016,51.22168,84.18066,18.89355,0,37.80615-81.74023,15.84962-68.9253,15.8545-101.87012,0-39.64527-20.12305-122-23.781-96.375-46.34326-96.37988-22.56666,0-43.29444,90.89013Q2712.48291,443.48657,2712.48779,483.13623Z" transform="translate(0 0.0889)" style="stroke:#000;stroke-miterlimit:10;stroke-width:10px"/><path d="M3098.47559,746.65625l-.60938,18.2998-72.56445,7.32032q0-42.08936,6.09863-178.12012,3.044-67.70947,3.04883-107.96973,0-31.71093-6.09766-137.25-3.05859-52.45531-3.0498-83.57031l59.75879-4.87988q34.7578,25.01953,68.90527,62.22021,27.43946,29.28,59.14844,71.98,27.44091,37.8296,54.88086,75.63965,5.4873-37.20044,8.53613-74.72461,3.04541-37.51538,3.0498-75.335a436.8109,436.8109,0,0,0-2.13476-46.05517q-2.14306-19.81567-7.62207-52.76514,28.04,0,60.36816,12.20019,0,35.38477-1.8291,82.96-4.27295,111.0293-4.26855,139.08007,0,45.75,4.26855,92.71973,4.2583,46.98046,21.95215,173.24023l-89.6377-5.49023q-41.47558-79.29053-82.32031-158.59961-50.62206-92.71583-96.3457-148.84033,0,46.97973,3.96387,108.88525,3.958,61.919,8.23144,123.21973Q3098.46681,702.12647,3098.47559,746.65625Z" transform="translate(0 0.0889)" style="stroke:#000;stroke-miterlimit:10;stroke-width:10px"/><path d="M3869.23535,398.95654l14.63477-65.27,88.418,3.65967a207.51793,207.51793,0,0,0,8.53711-28.66992,131.93642,131.93642,0,0,0,3.04882-28.06006l-1.8291-37.81982,66.46582-5.48975a525.27016,525.27016,0,0,0-33.53808,100.03955l57.31933-1.82959a279.5758,279.5758,0,0,0,14.93946-45.75,371.98052,371.98052,0,0,0,7.62207-50.63037l76.22265,3.66016a242.99809,242.99809,0,0,0-28.65918,45.75,201.64426,201.64426,0,0,0-15.85449,48.7998h75.00293l-46.95313,56.12012H4097.293L4085.707,456.90625l68.90527-4.87988-1.8291,56.72949-81.71093,3.05078q-3.65772,17.08447-4.57325,24.39941a178.70473,178.70473,0,0,0-.91406,20.74024,285.14853,285.14853,0,0,0,2.74317,40.87012,412.23257,412.23257,0,0,0,8.84179,42.70019l-78.66113-15.86035,20.73242-115.90039-54.27051,3.05078v93.93945L3886.919,616.11621a248.90464,248.90464,0,0,0,21.95214-51.24023,306.76712,306.76712,0,0,0,10.36621-54.89942h-76.832L3855.21,456.90625h76.833l12.19531-61.60986Zm109.76074,61.60987,59.75782-3.66016,12.80566-71.36963H3989.3623Z" transform="translate(0 0.0889)" style="stroke:#000;stroke-miterlimit:10;stroke-width:10px"/><path d="M4458.89258,498.38623q28.04,0,40.85449,48.80029,8.53272,32.33936,8.53711,72.58985,0,43.31982-33.23242,69.54-33.24316,26.23534-77.1377,26.23047-54.88036,0-86.58886-35.0752-31.71387-35.07129-31.708-90.585,0-48.18163,16.46386-73.81055,13.40479-20.73047,35.36719-20.73974a55.68123,55.68123,0,0,1,13.415,1.83007q-43.30371-20.73047-62.19726-59.78027-15.86427-32.93994-15.8545-85.3999,0-52.45533,33.84278-90.585,33.84228-38.11524,86.28418-38.125,56.09472,0,92.07617,43.91992,34.144,41.48951,34.14844,99.43017,0,42.70459-15.24512,76.85987-18.293,40.25976-52.44141,57.95019,4.87354-1.21509,7.92774-2.13525A19.27333,19.27333,0,0,1,4458.89258,498.38623Zm-73.78418-233.02q-20.12256,0-30.1836,21.04541a100.00175,100.00175,0,0,0-10.06152,43.61475q0,30.50976,13.415,72.58984,16.46484,51.85474,38.416,51.8501,25.61132,0,39.02636-40.25977a197.68731,197.68731,0,0,0,9.75586-62.83008q0-28.66552-15.24414-54.8999Q4411.93946,265.36622,4385.1084,265.36621Zm13.415,269.62012q-25.00927,0-38.416,25.00976-10.97607,20.1299-10.97558,47.58008,0,31.11036,15.24414,54.90039,17.6792,28.06494,46.95312,28.05957,14.63526,0,18.90332-39.64941,1.82959-18.3003,1.8291-38.43067v-21.3496a86.15462,86.15462,0,0,0-7.31738-35.37989Q4415.59765,534.9961,4398.52344,534.98633Z" transform="translate(0 0.0889)" style="stroke:#000;stroke-miterlimit:10;stroke-width:10px"/></g><g id="eabe3b91-2162-4965-9a25-e7cf11cc2c73" data-name="icons"><g id="bdda25ae-9e87-4dd4-9924-406d15686eee" data-name="Capa 1"><polygon points="4947.144 465.374 4947.144 689.427 5428.857 476.577 4947.144 465.374" style="fill:#c1b5c6"/><polygon points="4989.954 498.982 4945.144 689.427 5426.857 476.577 4989.954 498.982" style="fill:#d0c7d4"/><polygon points="4991.954 498.982 5148.791 644.616 5428.857 476.577 4991.954 498.982" style="fill:#efecf1"/><polygon points="4947.144 465.374 4846.321 364.55 5428.857 476.577 4947.144 465.374" style="fill:#efecf1"/><path d="M5370.759,669.543c-73.05579-81.17293-137.993,0-105.52439,64.93724,32.47,64.93725,105.52443,89.28871,105.52443,89.28871s73.05579-24.35146,105.52444-89.28871S5443.81338,588.37009,5370.759,669.543Z" transform="translate(0 0.0889)" style="fill:#ff97a4"/><path d="M5296.97588,723.27845c-16.3848-32.77235-7.95553-69.666,13.79887-87.75474-42.80107-.8736-68.47474,53.08612-45.53883,98.95655,32.47,64.93725,105.52444,89.28871,105.52444,89.28871a188.37191,188.37191,0,0,0,27.72317-12.69125C5382.75638,804.91675,5324.88019,779.08422,5296.97588,723.27845Z" transform="translate(0 0.0889)" style="fill:#ff7d8d"/><path d="M5005.24038,187.83041c-73.05579-81.17294-137.993,0-105.52441,64.93725s105.52441,89.2887,105.52441,89.2887,73.05578-24.35146,105.52441-89.2887S5078.29616,106.65747,5005.24038,187.83041Z" transform="translate(0 0.0889)" style="fill:#ff97a4"/><path d="M4935.19264,246.23185c-17.61085-35.2231-6.55809-75.207,18.894-91.48588-47.97147-9.08129-78.842,49.07493-54.36934,98.02169,32.47,64.93724,105.52441,89.2887,105.52441,89.2887a181.65646,181.65646,0,0,0,24.47547-10.94548C5008.07008,321.53916,4959.891,295.63142,4935.19264,246.23185Z" transform="translate(0 0.0889)" style="fill:#ff7d8d"/><path d="M4897.54386,761.80219c-39.96717-44.40748-75.49121,0-57.72849,35.52542s57.72849,48.84783,57.72849,48.84783,39.96717-13.321,57.72849-48.84783C4973.03508,761.80219,4937.50963,717.39467,4897.54386,761.80219Z" transform="translate(0 0.0889)" style="fill:#fe5578"/><path d="M4865.0209,785.19089c-7.37872-14.75606-5.55633-31.04051,1.95475-41.862-24.74854-2.48281-40.1037,28.11049-27.16028,53.99871,17.76272,35.52543,57.72849,48.84783,57.72849,48.84783a114.18047,114.18047,0,0,0,24.29016-12.46275C4915.81234,831.49183,4881.20645,817.562,4865.0209,785.19089Z" transform="translate(0 0.0889)" style="fill:#fe3f67"/><path d="M5368.05466,280.08956c-39.96718-44.4075-75.49124,0-57.72849,35.52545s57.72849,48.84783,57.72849,48.84783,39.96717-13.32239,57.72848-48.84783S5408.02043,235.68206,5368.05466,280.08956Z" transform="translate(0 0.0889)" style="fill:#fe5578"/><path d="M5336.46518,302.07805c-7.068-14.13326-5.69288-29.66677,1.03381-40.46178-24.75552-2.49533-40.11765,28.10353-27.17146,53.99733,17.76272,35.52545,57.72849,48.84783,57.72849,48.84783a115.60279,115.60279,0,0,0,25.95651-13.59825C5391.2121,349.89069,5353.56191,336.27292,5336.46518,302.07805Z" transform="translate(0 0.0889)" style="fill:#fe3f67"/><path d="M5307.71517,549.17341a10.50008,10.50008,0,0,0-14.40915-3.603L5150.15513,631.461,5017.31578,508.10975l370.05366-18.97765-52.19165,31.31362a10.50382,10.50382,0,0,0,10.809,18.01353l88.27582-52.96493c8.1938-4.89175,5.76673-18.02743-3.83428-19.3998l-582.12517-111.946a10.50375,10.50375,0,0,0-9.4101,17.74184l97.7472,97.74721V689.33993a10.60774,10.60774,0,0,0,14.74631,9.60654l163.00491-72.02615,27.25224,25.30584a10.60153,10.60153,0,0,0,12.54913,1.31108l149.918-89.95052A10.50813,10.50813,0,0,0,5307.71517,549.17341Zm-350.06869-73.138,189.18155,4.39993-155.413,7.96945a10.63853,10.63853,0,0,0-9.686,8.08232l-24.084,102.36031.00138-122.812Zm345.8039-12.9699-351.85625-8.18264-73.64375-73.64515Zm-341.25072,208.1369,35.84171-152.32552,99.59469,92.4807Z" transform="translate(0 0.0889)"/><path d="M5464.52143,635.10294c-10.59158-7.2185-47.38352-26.04427-93.76388,19.26606-46.379-45.31033-83.16809-26.48456-93.76248-19.26606-30.61141,20.86273-39.90445,66.57712-21.1553,104.074,34.02212,68.047,108.44468,93.50613,111.59628,94.55524a10.53454,10.53454,0,0,0,6.64168,0c3.15015-1.05052,77.57276-26.50964,111.59628-94.55524C5504.42593,701.68006,5495.13144,655.96567,5464.52143,635.10294Zm2.36856,94.67927c-26.25465,52.50931-82.00332,77.22163-96.14218,82.78495-14.16113-5.5424-69.77884-30.10008-96.11986-82.78495-15.58088-31.16314-4.76217-64.39942,14.19737-77.322a36.69258,36.69258,0,0,1,21.02434-6.56647c16.46559,0,34.9166,10.4704,53.10008,30.67409a10.61042,10.61042,0,0,0,15.6129,0c26.45807-29.39507,53.47764-38.1838,74.12582-24.10766C5471.65217,665.38274,5482.47088,698.61907,5466.89,729.78221Z" transform="translate(0 0.0889)"/><path d="M5001.92021,352.0196a10.53471,10.53471,0,0,0,6.64169,0c3.15017-1.05052,77.57276-26.50965,111.59626-94.55525,18.74915-37.49691,9.45468-83.21129-21.15533-104.074-10.593-7.21989-47.38351-26.04428-93.76247,19.26605-46.37895-45.31034-83.16949-26.48456-93.76108-19.26606-30.6114,20.86274-39.90446,66.57712-21.15531,104.074C4924.34608,325.51136,4998.76866,350.97046,5001.92021,352.0196Zm-78.61073-181.272a36.6969,36.6969,0,0,1,21.02575-6.56646c16.4656,0,34.9166,10.47038,53.10008,30.6741a10.60823,10.60823,0,0,0,15.6129,0c26.45669-29.39508,53.47764-38.1824,74.12582-24.10764,18.96092,12.92252,29.77964,46.15883,14.19737,77.322-26.25466,52.50932-82.00333,77.22164-96.14078,82.78494-14.16114-5.5424-69.77884-30.10008-96.11988-82.785C4893.52987,216.90644,4904.34857,183.67013,4923.30948,170.74761Z" transform="translate(0 0.0889)"/><path d="M4951.51751,739.03069c-12.70238-8.65772-32.90193-10.37426-53.97226,8.01824-21.07172-18.39246-41.26987-16.6718-53.97225-8.01824-18.67252,12.72608-24.4476,40.39628-13.14962,62.99366,19.48479,38.96679,62.00163,53.51387,63.80172,54.11437a10.53471,10.53471,0,0,0,6.64169,0c1.80149-.6005,44.31693-15.14618,63.80173-54.11437C4975.96512,779.427,4970.18864,751.75677,4951.51751,739.03069Zm-5.63854,53.60023c-12.72886,25.45772-39.09219,38.39278-48.35461,42.287-9.27775-3.8663-35.51151-16.67737-48.31561-42.287-7.37594-14.75049-2.52878-30.29932,6.19027-36.24157a15.38214,15.38214,0,0,1,8.83051-2.72245c7.6532,0,16.53386,5.19132,25.50648,15.16288a10.61042,10.61042,0,0,0,15.61291,0c12.70657-14.11794,25.22505-18.65442,34.337-12.44043C4948.40914,762.33164,4953.25491,777.87906,4945.879,792.63092Z" transform="translate(0 0.0889)"/><path d="M5364.73311,374.42466a10.53457,10.53457,0,0,0,6.64169,0c1.80149-.60049,44.31831-15.14617,63.80173-54.11436,11.29935-22.59874,5.52288-50.26756-13.14961-62.99364-12.70239-8.65773-32.90055-10.37563-53.97226,8.01823-21.07172-18.39247-41.26988-16.67179-53.97227-8.01823-18.67253,12.72608-24.4476,40.3963-13.14961,62.99364C5320.41615,359.27989,5362.93162,373.82557,5364.73311,374.42466Zm-38.82333-99.74932a15.38229,15.38229,0,0,1,8.83053-2.72244c7.65321,0,16.53387,5.1913,25.50649,15.16289a10.60825,10.60825,0,0,0,15.61291,0c12.70656-14.11934,25.22365-18.65441,34.337-12.44045,8.72184,5.94366,13.56761,21.4911,6.19166,36.24158-12.72884,25.45771-39.09221,38.39277-48.3546,42.287-9.27774-3.8663-35.51152-16.67737-48.31562-42.287C5312.34221,296.16643,5317.18938,280.619,5325.90978,274.67534Z" transform="translate(0 0.0889)"/></g><g id="b8762db8-f51c-430f-9573-7ffbac9ef01b" data-name="Layer 1"><polygon points="506.143 137.541 532.582 186.098 484.932 258.465 484.932 137.541 506.143 137.541" style="fill:#ff6761"/><polygon points="484.932 137.541 509.379 210.656 450.319 273.174 367.418 186.098 393.841 137.541 484.932 137.541" style="fill:#ff9387"/><path d="M532.58172,186.00954a134.1238,134.1238,0,0,0-17.46544,2.996L489.681,368.68655c32.76436-13.83309,57.30582-44.78054,57.30582-86.15109V185.26054A138.46415,138.46415,0,0,0,532.58172,186.00954Z" transform="translate(0 0.0889)" style="fill:#be2a45"/><path d="M515.1148,189.00554v93.52992c0,41.37055-10.88391,72.318-25.43379,86.15109L450.0001,225.59536l.31889-.31891A136.2346,136.2346,0,0,1,515.1148,189.00554Z" transform="translate(0 0.0889)" style="fill:#e43349"/><path d="M367.41845,186.00662A136.6035,136.6035,0,0,1,489.681,321.92671v46.75691a101.639,101.639,0,0,1-39.68091,8.03128c-50.42145,0-96.9882-37.21154-96.9882-94.18235V185.25763A138.46218,138.46218,0,0,1,367.41845,186.00662Z" transform="translate(0 0.0889)" style="fill:#ff3b3b"/><polygon points="202.017 183.863 247.701 215.004 238.329 301.14 183.144 193.542 202.017 183.863" style="fill:#ff6761"/><polygon points="183.144 193.542 238.263 247.445 214.242 330.025 100.739 290.376 102.091 235.114 183.144 193.542" style="fill:#ff9387"/><path d="M247.70134,214.9148a133.88749,133.88749,0,0,0-14.17395,10.63669l59.367,171.48589c22.84158-27.261,30.55394-65.99832,11.67534-102.809-26.0058-50.70672-44.39142-86.55485-44.39142-86.55485A138.9406,138.9406,0,0,0,247.70134,214.9148Z" transform="translate(0 0.0889)" style="fill:#be2a45"/><path d="M233.52594,225.55148c5.126,9.99739,21.33918,41.60461,42.68275,83.22238,18.88007,36.81071,23.31848,69.31614,16.68574,88.26352L192.28558,287.82528l.139-.42863A136.251,136.251,0,0,1,233.52594,225.55148Z" transform="translate(0 0.0889)" style="fill:#e43349"/><path d="M100.73789,290.28439a136.60306,136.60306,0,0,1,170.81589,65.14545l21.3392,41.60461a101.61919,101.61919,0,0,1-31.64232,25.25533c-44.8654,23.00982-103.28008,11.15015-129.28-39.54193-26.00581-50.70672-44.39141-86.55339-44.39141-86.55339A138.82057,138.82057,0,0,1,100.73789,290.28439Z" transform="translate(0 0.0889)" style="fill:#ff3b3b"/><polygon points="797.894 235.105 799.259 290.379 723.836 333.024 779.02 225.425 797.894 235.105" style="fill:#ff6761"/><polygon points="779.02 225.425 767.405 301.64 686.324 330.316 652.299 215.004 697.969 183.856 779.02 225.425" style="fill:#ff9387"/><path d="M799.25939,290.29024a134.1848,134.1848,0,0,0-16.90811-5.30444L677.72094,433.25709c35.4663,2.64345,71.42708-13.69411,90.30715-50.50484,26.00582-50.70672,44.39142-86.55485,44.39142-86.55485A138.23867,138.23867,0,0,0,799.25939,290.29024Z" transform="translate(0 0.0889)" style="fill:#be2a45"/><path d="M782.35128,284.98433c-5.126,9.9974-21.3392,41.6046-42.68277,83.22239-18.88007,36.8107-42.68861,59.38164-61.94757,65.05035l29.99363-145.43035.42862-.139A136.22714,136.22714,0,0,1,782.35128,284.98433Z" transform="translate(0 0.0889)" style="fill:#e43349"/><path d="M652.30031,214.91187a136.6032,136.6032,0,0,1,46.75986,176.73476L677.721,433.25124a101.60169,101.60169,0,0,1-38.97286-10.96291c-44.8654-23.00981-69.31761-77.37228-43.31764-128.06437,26.00582-50.70671,44.39142-86.55485,44.39142-86.55485A139.32991,139.32991,0,0,1,652.30031,214.91187Z" transform="translate(0 0.0889)" style="fill:#ff3b3b"/><path d="M619.95872,524.68481a316.83375,316.83375,0,0,1,33.24273,24.46248c-.01608.01607-163.361,209.81507-163.361,209.81507l-44.5889,8.84462Z" transform="translate(0 0.0889)" style="fill:#d1c4de"/><path d="M550.20663,491.31482a313.98708,313.98708,0,0,1,69.75209,33.37c-44.23927,74.31045-104.09488,174.83592-142.83519,239.93455l-58.99546,26.215Z" transform="translate(0 0.0889)" style="fill:#efecf1"/><path d="M450.0001,475.07965a314.44741,314.44741,0,0,0-203.20282,74.072c.01609.01607,163.361,209.81507,163.361,209.81507l31.27661,22.87374L550.20516,491.31918A315.23135,315.23135,0,0,0,450.0001,475.07965Z" transform="translate(0 0.0889)" style="fill:#d0c7d4"/><polygon points="489.84 759.051 496.821 804.47 450 836.342 403.18 804.47 410.16 759.051 489.84 759.051" style="fill:#b7a4b5"/><polygon points="496.821 804.47 505.777 862.637 394.223 862.637 403.18 804.47 496.821 804.47" style="fill:#d0c7d4"/><path d="M823.70428,292.47726a11.94723,11.94723,0,0,0-5.90277-6.91362c-2.25872-1.15861-4.54372-2.24114-6.84047-3.27833l-1.19226-47.56589a11.95544,11.95544,0,0,0-6.49377-10.33679l-99.92126-51.248a11.94672,11.94672,0,0,0-12.18443.75925l-39.31518,26.79137c-2.18264-1.26247-4.39162-2.48545-6.64886-3.6426a11.95253,11.95253,0,0,0-16.09032,5.18156l-44.38557,86.54023c-28.06556,54.7209-3.44513,110.713,38.161,138.12028l-34.36329,66.99892A328.48211,328.48211,0,0,0,555.31358,480.545c-.31889-.15359-.64368-.29842-.98159-.4257a11.93894,11.93894,0,0,0-1.93249-.531,327.83083,327.83083,0,0,0-90.51636-16.23222V387.98061c49.5276-5.39953,96.9882-43.9628,96.9882-105.46272l-.00147-95.4185c-.00148-13.40593-10.72886-13.79214-11.95184-13.79214-2.53809,0-5.06453.079-7.58218.20627l-22.76838-41.78161A11.95151,11.95151,0,0,0,506.07268,125.5H393.77533a11.95608,11.95608,0,0,0-10.4977,6.2363l-22.75525,41.78016c-2.51762-.12728-5.044-.20773-7.57924-.20773a11.95119,11.95119,0,0,0-11.95181,11.95181v97.25882c0,61.49993,47.4591,100.06318,96.98526,105.46272v75.37543a328.20739,328.20739,0,0,0-126.64683,30.52322l-34.36184-66.996c41.60607-27.40725,66.22652-83.39938,38.16244-138.12028L270.954,202.6353a11.97672,11.97672,0,0,0-16.301-5.59262c-2.2587,1.1586-4.47059,2.383-6.65322,3.6426l-39.324-26.78553a11.9546,11.9546,0,0,0-12.18295-.75632L96.5745,224.38994a11.95343,11.95343,0,0,0-6.49377,10.33971l-1.17909,47.56c-2.2982,1.03573-4.58177,2.1168-6.83755,3.274a11.95377,11.95377,0,0,0-5.18156,16.08887l44.38556,86.54022c13.72777,26.76506,36.82681,45.76214,65.043,53.49205a108.57435,108.57435,0,0,0,28.71508,3.85179,112.22944,112.22944,0,0,0,40.69323-7.71529l34.34281,66.95941a326.02329,326.02329,0,0,0-51.02269,35.21469,11.9486,11.9486,0,0,0-1.69989,16.52774C239.319,559.06269,348.69785,699.55725,387.324,749.16829a11.94642,11.94642,0,0,0,6.83609,21.74737h2.00416L382.3458,860.73129A11.95276,11.95276,0,0,0,394.16011,874.5H505.71285a11.95283,11.95283,0,0,0,11.81428-13.76875l-13.82138-89.81416h2.00415a11.94641,11.94641,0,0,0,6.83609-21.74737L662.54934,556.5012a11.95149,11.95149,0,0,0-1.73205-16.48386,325.80506,325.80506,0,0,0-51.01684-35.22495l34.34574-66.96529a112.21947,112.21947,0,0,0,40.69468,7.71529,108.69235,108.69235,0,0,0,28.71361-3.85178c28.2177-7.72846,51.31818-26.727,65.04452-53.49205l41.10577-80.1474C824.51912,298.65943,825.25931,297.217,823.70428,292.47726ZM113.8,242.42008l87.28775-44.76738,25.92389,17.65563a147.16432,147.16432,0,0,0-42.24828,57.99189,147.92136,147.92136,0,0,0-71.74162.49592ZM192.625,418.62963c-15.3311-4.19849-36.46548-14.781-50.08938-41.3442l-38.66712-75.393c55.46257-21.97847,120.4354-1.18786,152.17573,50.44924a11.95229,11.95229,0,0,0,20.36491-12.518,147.90951,147.90951,0,0,0-68.8729-59.04519,123.51262,123.51262,0,0,1,46.58136-55.81366c.38913-.25455.71974-.48715,1.065-.708,7.36272,14.35388,21.32163,41.571,38.67883,75.41492,23.4911,45.80311-.9421,92.90673-38.13463,111.98136C236.13427,421.70464,213.13177,424.24713,192.625,418.62963Zm208.2498-269.226h98.1L513.98254,176.944a147.16628,147.16628,0,0,0-64.05412,32.32111,147.91009,147.91009,0,0,0-64.06144-32.2977ZM364.8979,282.51936V197.7902c59.38313,5.75648,107.70678,53.90752,112.38363,114.3366a11.95157,11.95157,0,1,0,23.832-1.84324,147.90214,147.90214,0,0,0-34.33552-83.967A123.56348,123.56348,0,0,1,534.96771,197.777v84.7438c0,51.47765-43.23572,82.23931-85.03489,82.23931S364.8979,333.99555,364.8979,282.51936Zm126.88088,568.077H408.08829l12.25756-79.68071h59.17247Zm-7.84692-103.58581H467.17L502.8485,651.715a11.95224,11.95224,0,1,0-22.38659-8.38238l-38.81633,103.678H415.93381c-102.575-131.75087-139.35206-178.98905-152.56926-195.963a302.81164,302.81164,0,0,1,47.34939-30.24525c.27211-.11411.54711-.21942.81337-.35693.25308-.13018.493-.27942.73144-.42425A303.46118,303.46118,0,0,1,534.4806,499.055l-37.254,99.50438a11.9525,11.9525,0,1,0,22.38662,8.38381L557.1759,506.61377A304.6098,304.6098,0,0,1,587.6845,520.068c.21652.12875.42715.26184.65537.37742.24429.12581.49591.21942.74314.32621a302.41715,302.41715,0,0,1,47.40792,30.29061ZM698.7632,197.64684,786.051,242.41422l.78412,31.35413a147.17713,147.17713,0,0,0-71.746-.471,147.94947,147.94947,0,0,0-42.26289-57.97436Zm58.56536,179.63859c-13.62388,26.56462-34.75829,37.14571-50.09083,41.3442-20.50387,5.6175-43.50783,3.075-63.10471-6.97507-37.194-19.07608-61.62574-66.17678-38.13315-111.98134l38.66714-75.393c50.21374,32.22163,71.234,97.11838,47.81895,153.02419a11.95234,11.95234,0,0,0,22.04867,9.23524,147.91547,147.91547,0,0,0,7.768-90.38323,123.53608,123.53608,0,0,1,73.699,5.72283C788.64026,316.23461,774.68137,343.44876,757.32856,377.28543Z" transform="translate(0 0.0889)"/></g></g><g id="a7d92c3c-018c-45cc-baa7-aed783672ceb" data-name="Ancrage"><rect x="5624" y="999.0889" width="1" height="1" style="fill:none"/><rect x="5624" y="0.0889" width="1" height="1" style="fill:none"/><rect y="999.0889" width="1" height="1" style="fill:none"/><rect y="0.0889" width="1" height="1" style="fill:none"/></g></g></svg>