<svg xmlns="http://www.w3.org/2000/svg" viewBox="0 0 500 500"><g id="freepik--background-complete--inject-191"><rect y="382.4" width="500" height="0.25" style="fill:#ebebeb"></rect><rect x="423.67" y="398.49" width="26.23" height="0.25" style="fill:#ebebeb"></rect><rect x="322.53" y="395.24" width="34.23" height="0.25" style="fill:#ebebeb"></rect><rect x="389.33" y="389.21" width="26.44" height="0.25" style="fill:#ebebeb"></rect><rect x="67.7" y="390.89" width="43.19" height="0.25" style="fill:#ebebeb"></rect><rect x="52.46" y="390.89" width="6.33" height="0.25" style="fill:#ebebeb"></rect><rect x="131.47" y="395.11" width="56.2" height="0.25" style="fill:#ebebeb"></rect><path d="M237,337.8H43.91a5.71,5.71,0,0,1-5.7-5.71V60.66A5.71,5.71,0,0,1,43.91,55H237a5.71,5.71,0,0,1,5.71,5.71V332.09A5.71,5.71,0,0,1,237,337.8ZM43.91,55.2a5.46,5.46,0,0,0-5.45,5.46V332.09a5.46,5.46,0,0,0,5.45,5.46H237a5.47,5.47,0,0,0,5.46-5.46V60.66A5.47,5.47,0,0,0,237,55.2Z" style="fill:#ebebeb"></path><path d="M453.31,337.8H260.21a5.72,5.72,0,0,1-5.71-5.71V60.66A5.72,5.72,0,0,1,260.21,55h193.1A5.71,5.71,0,0,1,459,60.66V332.09A5.71,5.71,0,0,1,453.31,337.8ZM260.21,55.2a5.47,5.47,0,0,0-5.46,5.46V332.09a5.47,5.47,0,0,0,5.46,5.46h193.1a5.47,5.47,0,0,0,5.46-5.46V60.66a5.47,5.47,0,0,0-5.46-5.46Z" style="fill:#ebebeb"></path><rect x="69.67" y="73.27" width="362.41" height="225.41" style="fill:#fafafa"></rect><polygon points="307.38 298.68 247 298.68 296.58 73.27 356.96 73.27 307.38 298.68" style="fill:#fff"></polygon><polygon points="341.25 298.68 321.06 298.68 370.63 73.27 390.82 73.27 341.25 298.68" style="fill:#fff"></polygon><polygon points="154.04 298.68 114.79 298.68 164.36 73.27 203.62 73.27 154.04 298.68" style="fill:#fff"></polygon><path d="M65.29,68.05V303.89H436.45V68.05ZM428.57,296.32H73.17V75.63h355.4Z" style="fill:#ebebeb"></path><rect x="238.3" y="72.45" width="25.14" height="228.39" style="fill:#ebebeb"></rect><rect x="69.67" y="231.74" width="362.41" height="8.77" style="fill:#ebebeb"></rect><rect x="242.15" y="72.45" width="2.27" height="228.39" style="fill:#e0e0e0"></rect><rect x="258.64" y="72.45" width="0.61" height="228.39" style="fill:#f0f0f0"></rect><path d="M59.56,71.22V362.78A8.39,8.39,0,0,0,68.11,371h0a26,26,0,0,0,25.52-30.63L78.47,257.79c34.11-44.71,59.4-108.43,80.1-182A10.05,10.05,0,0,0,148.88,63H68.11A8.39,8.39,0,0,0,59.56,71.22Z" style="fill:#e6e6e6"></path><path d="M77.07,265H62.55a7.27,7.27,0,0,1-7.25-7.25h0a7.27,7.27,0,0,1,7.25-7.25H77.07a7.27,7.27,0,0,1,7.25,7.25h0A7.27,7.27,0,0,1,77.07,265Z" style="fill:#f5f5f5"></path><path d="M440.44,71.22V362.78a8.39,8.39,0,0,1-8.55,8.22h0a26,26,0,0,1-25.52-30.63l15.16-82.58c-34.11-44.71-59.4-108.43-80.1-182A10.05,10.05,0,0,1,351.12,63h80.77A8.39,8.39,0,0,1,440.44,71.22Z" style="fill:#e6e6e6"></path><path d="M422.93,265h14.52a7.27,7.27,0,0,0,7.25-7.25h0a7.27,7.27,0,0,0-7.25-7.25H422.93a7.27,7.27,0,0,0-7.25,7.25h0A7.27,7.27,0,0,0,422.93,265Z" style="fill:#f5f5f5"></path></g><g id="freepik--Shadow--inject-191"><ellipse id="freepik--path--inject-191" cx="250" cy="416.24" rx="193.89" ry="11.32" style="fill:#f5f5f5"></ellipse></g><g id="freepik--teddy-bear--inject-191"><path d="M343.09,355.22c0,46.17-41.68,54.12-93.09,54.12s-93.09-7.95-93.09-54.12,41.68-94.61,93.09-94.61S343.09,309.05,343.09,355.22Z" style="fill:#E6C8C8"></path><path d="M196.74,374.88c-21.59-17.72-32.7-15-32.7-15s-9.51-27.63-32.86-24.63c-33.11,4.26-28.92,74.29-3.34,81.19s80.6-3.5,87-9.73S205.88,382.39,196.74,374.88Z" style="fill:#E6C8C8"></path><ellipse cx="127.03" cy="381.87" rx="15.48" ry="31.1" transform="translate(-63.42 27.34) rotate(-9.84)" style="fill:#fff;opacity:0.2"></ellipse><path d="M303.26,374.88c21.59-17.72,32.7-15,32.7-15s9.51-27.63,32.86-24.63c33.11,4.26,28.92,74.29,3.34,81.19s-80.6-3.5-87.05-9.73S294.12,382.39,303.26,374.88Z" style="fill:#E6C8C8"></path><ellipse cx="372.97" cy="381.87" rx="31.1" ry="15.48" transform="translate(-67.04 684.06) rotate(-80.16)" style="fill:#fff;opacity:0.2"></ellipse><path d="M310.39,353.18c0,41.52-26.14,48.68-58.39,48.68s-58.39-7.16-58.39-48.68S219.76,268.1,252,268.1,310.39,311.66,310.39,353.18Z" style="fill:#fff;opacity:0.2"></path><path d="M250,260.61c-26.16,0-49.53,16.86-65,40.65,14.28,22.41,38.07,37.07,65,37.07s50.72-14.66,65-37.07C299.53,277.47,276.16,260.61,250,260.61Z" style="opacity:0.2"></path><path d="M334.84,331.11a35.5,35.5,0,0,1-7.41,16.29C307,372,279.68,381,249.69,381c-28.16,0-54-7.29-73.94-28.83a36,36,0,0,1-9-21.08Z" style="opacity:0.2"></path><ellipse cx="190.11" cy="180.21" rx="32.93" ry="38.74" transform="translate(-9.17 350.23) rotate(-83.94)" style="fill:#E6C8C8"></ellipse><path d="M193.58,147.47c-11.8-1.58-35.36-3.25-42.69,5-5.33,6,2.11,9.12,2.11,9.12s-11,11.77,2.56,15.33S193.58,147.47,193.58,147.47Z" style="fill:#E6C8C8"></path><ellipse cx="192.84" cy="191.06" rx="21.71" ry="25.54" transform="translate(-17.51 362.66) rotate(-83.94)" style="fill:#fff;opacity:0.30000000000000004"></ellipse><ellipse cx="321.89" cy="194.2" rx="32.93" ry="38.74" transform="translate(94.8 493.8) rotate(-83.94)" style="fill:#E6C8C8"></ellipse><path d="M362.5,184.17a6.3,6.3,0,0,0,1.62-6.81c-3.29-9.57-23.43-15.1-39.56-16l35.17,35C370.47,195.25,362.5,184.17,362.5,184.17Z" style="fill:#E6C8C8"></path><ellipse cx="316.94" cy="204.23" rx="21.71" ry="25.54" transform="translate(80.39 497.85) rotate(-83.94)" style="fill:#fff;opacity:0.30000000000000004"></ellipse><path d="M155.67,237.37l-1-.11A70.59,70.59,0,0,1,158.76,220l.94.36A70,70,0,0,0,155.67,237.37Z" style="fill:#E6C8C8"></path><path d="M154.44,249.63c-.16-2.43-.2-4.9-.12-7.32l1,0c-.08,2.39,0,4.82.12,7.22Z" style="fill:#E6C8C8"></path><ellipse cx="249.62" cy="247.34" rx="78.19" ry="91.97" transform="translate(-22.69 469.45) rotate(-83.94)" style="fill:#E6C8C8"></ellipse><ellipse cx="248.03" cy="262.32" rx="58.97" ry="69.7" transform="translate(-39.01 481.27) rotate(-83.94)" style="fill:#fff;opacity:0.1"></ellipse><path d="M191.26,191.87c1.49,1.56.42,5-2.39,7.72s-6.32,3.62-7.82,2.06-.42-5,2.39-7.72S189.76,190.31,191.26,191.87Z" style="fill:#fff;opacity:0.1"></path><path d="M329.73,165.4c-.07,1.08-3.28,1.75-7.17,1.5s-7-1.32-6.93-2.4,3.28-1.76,7.18-1.51S329.8,164.32,329.73,165.4Z" style="fill:#fff;opacity:0.1"></path><path d="M201.3,193.55c1,1,.58,2.93-.86,4.31s-3.37,1.68-4.33.68-.58-2.94.85-4.31S200.34,192.55,201.3,193.55Z" style="fill:#fff;opacity:0.1"></path><path d="M269.73,162.82s2.6-9.46-12.42-8.43c-15.25,1.05-25.42,11.25-34.52,20.59,0,0,28.37,13.83,59.45.43C284.77,159.48,269.73,162.82,269.73,162.82Z" style="fill:#E6C8C8"></path><path d="M248.77,256.26h-.1a1,1,0,0,1-.86-1.07l8.27-77.93a1,1,0,0,1,1.93.2l-8.27,77.94A1,1,0,0,1,248.77,256.26Z" style="fill:#263238;opacity:0.2"></path><path d="M234.11,244.18c-.5,4.72-8.75,7.7-18.42,6.68s-17.12-5.68-16.62-10.4,8.75-7.7,18.43-6.67S234.61,239.47,234.11,244.18Z" style="fill:#fff;opacity:0.30000000000000004"></path><ellipse cx="282.96" cy="249.37" rx="8.58" ry="17.62" transform="translate(5.11 504.42) rotate(-83.94)" style="fill:#fff;opacity:0.30000000000000004"></ellipse><path d="M231.22,236a7.15,7.15,0,1,1-6.36-7.87A7.16,7.16,0,0,1,231.22,236Z" style="fill:#263238"></path><path d="M283.69,241.26a7.15,7.15,0,1,1-6.36-7.87A7.15,7.15,0,0,1,283.69,241.26Z" style="fill:#263238"></path><ellipse cx="246.62" cy="275.58" rx="38.49" ry="49.37" transform="translate(-53.46 491.73) rotate(-83.94)" style="fill:#fff"></ellipse><path d="M271.76,260.85c-.67,6.3-11.65,10.3-24.53,8.93s-22.77-7.58-22.1-13.88,8.07-11.2,24.53-8.92S272.43,254.56,271.76,260.85Z" style="fill:#263238"></path><path d="M250.45,288.14a47.36,47.36,0,0,1-5.13-.28c-8.69-.92-16.29-4-20.33-8.25a1.67,1.67,0,1,1,2.41-2.3c3.46,3.63,10.46,6.41,18.27,7.24s15.23-.42,19.38-3.24a1.66,1.66,0,1,1,1.87,2.75C263.06,286.7,257.12,288.14,250.45,288.14Z" style="fill:#263238"></path><path d="M245.49,287.88h-.17a1.68,1.68,0,0,1-1.49-1.84l2.67-25.16a1.67,1.67,0,1,1,3.32.36l-2.67,25.15A1.68,1.68,0,0,1,245.49,287.88Z" style="fill:#263238"></path><path d="M294.59,302.33h0c-14.32-10.16-31.85-4.67-45,5.93-15.65-6.3-36-6.12-46.76,7.77a38.07,38.07,0,0,0-7.53,28.71A39.59,39.59,0,0,0,210.85,371l33,24.39a24.87,24.87,0,0,0,34.78-5.2L303,357.19a39.52,39.52,0,0,0,7.2-29.6A38,38,0,0,0,294.59,302.33Z" style="fill:#E6C8C8"></path><path d="M294.59,302.33h0c-14.32-10.16-31.85-4.67-45,5.93-15.65-6.3-36-6.12-46.76,7.77a38.07,38.07,0,0,0-7.53,28.71A39.59,39.59,0,0,0,210.85,371l33,24.39a24.87,24.87,0,0,0,34.78-5.2L303,357.19a39.52,39.52,0,0,0,7.2-29.6A38,38,0,0,0,294.59,302.33Z" style="opacity:0.5"></path><path d="M290.55,324.91c.21-3.62,6-5.61,10.89-4.79h0c12-8.51,17.73-21.35,19.33-25.48a1.38,1.38,0,0,1,1.86-.76c30.19,13.17,8.06,57.59-14.45,60.59-8.05,1.07-17.27-16-11.72-26.52C296.46,328,290.34,328.54,290.55,324.91Z" style="fill:#E6C8C8"></path><ellipse cx="217.96" cy="330.77" rx="22.36" ry="15.4" transform="translate(-177.75 348.83) rotate(-59.23)" style="fill:#E6C8C8;opacity:0.2"></ellipse><path d="M264.56,304.11c5.06-2.19,10.29-1.38,11.68,1.83s-1.58,7.58-6.64,9.77-10.29,1.38-11.68-1.82S259.51,306.31,264.56,304.11Z" style="fill:#E6C8C8;opacity:0.2"></path><path d="M209.19,325.18c-.21-3.63-6-5.62-10.9-4.79h0c-12-8.5-17.45-21.48-19-25.7a1.39,1.39,0,0,0-1.88-.79c-30.15,13.19-8.4,57.83,14.1,60.83,8,1.07,17.28-16,11.72-26.51C203.27,328.22,209.39,328.81,209.19,325.18Z" style="fill:#E6C8C8"></path></g><g id="freepik--Hearts--inject-191"><path d="M238.25,109.45h0a13.91,13.91,0,0,0-14.94,7.48,13.88,13.88,0,0,0-12.83,10.68,13.57,13.57,0,0,0,1.84,10.46,14.13,14.13,0,0,0,9,6.2l14.36,3a8.9,8.9,0,0,0,10.53-6.88l3-14.36a14.15,14.15,0,0,0-2.08-10.7A13.68,13.68,0,0,0,238.25,109.45Z" style="fill:#E6C8C8"></path><path d="M238.25,109.45h0a13.91,13.91,0,0,0-14.94,7.48,13.88,13.88,0,0,0-12.83,10.68,13.57,13.57,0,0,0,1.84,10.46,14.13,14.13,0,0,0,9,6.2l14.36,3a8.9,8.9,0,0,0,10.53-6.88l3-14.36a14.15,14.15,0,0,0-2.08-10.7A13.68,13.68,0,0,0,238.25,109.45Z" style="fill:#fff;opacity:0.4"></path><path d="M280.49,88.71h0a9.06,9.06,0,0,0-9.55-5.24,9.06,9.06,0,0,0-10.49-2.93,8.91,8.91,0,0,0-4.93,4.86,9.23,9.23,0,0,0,0,7.11l3.71,8.82a5.81,5.81,0,0,0,7.6,3.1l8.81-3.71a9.21,9.21,0,0,0,5-5.08A8.87,8.87,0,0,0,280.49,88.71Z" style="fill:#E6C8C8"></path><path d="M280.49,88.71h0a9.06,9.06,0,0,0-9.55-5.24,9.06,9.06,0,0,0-10.49-2.93,8.91,8.91,0,0,0-4.93,4.86,9.23,9.23,0,0,0,0,7.11l3.71,8.82a5.81,5.81,0,0,0,7.6,3.1l8.81-3.71a9.21,9.21,0,0,0,5-5.08A8.87,8.87,0,0,0,280.49,88.71Z" style="fill:#fff;opacity:0.6000000000000001"></path><path d="M241.62,53.94h0a7.27,7.27,0,0,0-8.69.88,7.28,7.28,0,0,0-8.27,2.84,7.14,7.14,0,0,0-1,5.46,7.4,7.4,0,0,0,3.23,4.7L233.31,72a4.67,4.67,0,0,0,6.43-1.41l4.14-6.47a7.36,7.36,0,0,0,1-5.62A7.1,7.1,0,0,0,241.62,53.94Z" style="fill:#E6C8C8"></path><path d="M241.62,53.94h0a7.27,7.27,0,0,0-8.69.88,7.28,7.28,0,0,0-8.27,2.84,7.14,7.14,0,0,0-1,5.46,7.4,7.4,0,0,0,3.23,4.7L233.31,72a4.67,4.67,0,0,0,6.43-1.41l4.14-6.47a7.36,7.36,0,0,0,1-5.62A7.1,7.1,0,0,0,241.62,53.94Z" style="fill:#fff;opacity:0.8"></path><path d="M362.55,282.71h0a4.25,4.25,0,0,0-5.1.31,4.2,4.2,0,0,0-5.64,4.62,4.35,4.35,0,0,0,1.78,2.83l3.68,2.57a2.72,2.72,0,0,0,3.79-.67l2.57-3.68a4.28,4.28,0,0,0,.7-3.26A4.17,4.17,0,0,0,362.55,282.71Z" style="fill:#E6C8C8"></path><path d="M362.55,282.71h0a4.25,4.25,0,0,0-5.1.31,4.2,4.2,0,0,0-5.64,4.62,4.35,4.35,0,0,0,1.78,2.83l3.68,2.57a2.72,2.72,0,0,0,3.79-.67l2.57-3.68a4.28,4.28,0,0,0,.7-3.26A4.17,4.17,0,0,0,362.55,282.71Z" style="fill:#fff;opacity:0.6000000000000001"></path><path d="M375.71,262.62h0a4.12,4.12,0,0,0-7.52-.8,2.8,2.8,0,0,0,.06,2.13l1.18,2.62a1.72,1.72,0,0,0,2.3.87l2.62-1.18a2.75,2.75,0,0,0,1.45-1.56A2.68,2.68,0,0,0,375.71,262.62Z" style="fill:#E6C8C8"></path><path d="M375.71,262.62h0a4.12,4.12,0,0,0-7.52-.8,2.8,2.8,0,0,0,.06,2.13l1.18,2.62a1.72,1.72,0,0,0,2.3.87l2.62-1.18a2.75,2.75,0,0,0,1.45-1.56A2.68,2.68,0,0,0,375.71,262.62Z" style="fill:#fff;opacity:0.5"></path><path d="M363.53,242.66h0a1.45,1.45,0,0,0-1.76,0,1.46,1.46,0,0,0-2,1.51,1.53,1.53,0,0,0,.57,1l1.23.95a1,1,0,0,0,.7.19.91.91,0,0,0,.62-.36l.95-1.23a1.47,1.47,0,0,0,.29-1.11A1.38,1.38,0,0,0,363.53,242.66Z" style="fill:#E6C8C8"></path><path d="M363.53,242.66h0a1.45,1.45,0,0,0-1.76,0,1.46,1.46,0,0,0-2,1.51,1.53,1.53,0,0,0,.57,1l1.23.95a1,1,0,0,0,.7.19.91.91,0,0,0,.62-.36l.95-1.23a1.47,1.47,0,0,0,.29-1.11A1.38,1.38,0,0,0,363.53,242.66Z" style="fill:#fff;opacity:0.8"></path><path d="M126.53,257.25h0a4.26,4.26,0,0,0-5.09.51,4.27,4.27,0,0,0-4.83,1.66,4.19,4.19,0,0,0-.61,3.2,4.3,4.3,0,0,0,1.89,2.74l3.78,2.42a2.65,2.65,0,0,0,2,.37,2.72,2.72,0,0,0,1.71-1.19l2.42-3.78a4.33,4.33,0,0,0,.57-3.29A4.19,4.19,0,0,0,126.53,257.25Z" style="fill:#E6C8C8"></path><path d="M126.53,257.25h0a4.26,4.26,0,0,0-5.09.51,4.27,4.27,0,0,0-4.83,1.66,4.19,4.19,0,0,0-.61,3.2,4.3,4.3,0,0,0,1.89,2.74l3.78,2.42a2.65,2.65,0,0,0,2,.37,2.72,2.72,0,0,0,1.71-1.19l2.42-3.78a4.33,4.33,0,0,0,.57-3.29A4.19,4.19,0,0,0,126.53,257.25Z" style="fill:#fff;opacity:0.8"></path><path d="M144.52,284.26h0a2.47,2.47,0,0,0-2.77-1.05,2.46,2.46,0,0,0-2.94-.4,2.4,2.4,0,0,0-1.15,1.49,2.52,2.52,0,0,0,.27,1.92l1.32,2.24a1.59,1.59,0,0,0,2.17.55l2.24-1.33a2.54,2.54,0,0,0,1.15-1.55A2.49,2.49,0,0,0,144.52,284.26Z" style="fill:#E6C8C8"></path><path d="M144.52,284.26h0a2.47,2.47,0,0,0-2.77-1.05,2.46,2.46,0,0,0-2.94-.4,2.4,2.4,0,0,0-1.15,1.49,2.52,2.52,0,0,0,.27,1.92l1.32,2.24a1.59,1.59,0,0,0,2.17.55l2.24-1.33a2.54,2.54,0,0,0,1.15-1.55A2.49,2.49,0,0,0,144.52,284.26Z" style="fill:#fff;opacity:0.5"></path></g></svg>